M48
;DRILL file {Pcbnew (2013-jul-07)-stable} date Mon 24 Nov 2014 01:28:33 PM PST
;FORMAT={-:-/ absolute / inch / decimal}
FMAT,2
INCH,TZ
T1C0.025
T2C0.028
T3C0.035
T4C0.039
T5C0.039
T6C0.040
T7C0.047
T8C0.098
T9C0.116
%
G90
G05
M72
T1
X2.4796Y-1.4252
X2.5785Y-1.8078
X2.6749Y-2.445
X2.8283Y-1.6107
X3.2944Y-1.4318
X3.5507Y-1.9594
X3.5851Y-1.4654
T2
X1.6807Y-2.7569
X1.6807Y-3.6231
X1.7594Y-2.7569
X1.7594Y-3.6231
X1.8381Y-2.7569
X1.8381Y-3.6231
X1.9169Y-2.7569
X1.9169Y-3.6231
X1.9956Y-2.7569
X1.9956Y-3.6231
X2.0744Y-2.7569
X2.0744Y-3.6231
X2.1531Y-2.7569
X2.1531Y-3.6231
X2.2319Y-2.7569
X2.2319Y-3.6231
X2.3106Y-2.7569
X2.3106Y-3.6231
X2.3893Y-2.7569
X2.3893Y-3.6231
T3
X1.105Y-2.897
X1.105Y-2.995
X1.105Y-3.093
X1.235Y-2.897
X1.235Y-2.995
X1.235Y-3.093
T4
X3.5972Y-3.475
X4.0028Y-3.475
T5
X1.169Y-1.4991
X1.169Y-1.6369
T6
X1.14Y-1.87
X1.14Y-2.47
X1.24Y-1.87
X1.24Y-1.97
X1.24Y-2.47
X1.34Y-1.87
X1.34Y-2.47
X1.44Y-1.87
X1.44Y-1.97
X1.44Y-2.47
X1.46Y-1.67
X1.54Y-1.87
X1.54Y-1.97
X1.54Y-2.47
X1.56Y-1.67
X1.64Y-1.87
X1.64Y-1.97
X1.64Y-2.47
X1.65Y-1.2
X1.65Y-1.3
X1.714Y-1.67
X1.74Y-1.87
X1.74Y-2.07
X1.74Y-2.17
X1.74Y-2.47
X1.75Y-1.2
X1.75Y-1.3
X1.814Y-1.67
X1.84Y-1.87
X1.84Y-2.07
X1.84Y-2.17
X1.84Y-2.47
X1.85Y-1.2
X1.85Y-1.3
X1.94Y-1.87
X1.94Y-2.07
X1.94Y-2.17
X1.94Y-2.47
X1.95Y-1.2
X1.95Y-1.3
X2.04Y-1.87
X2.04Y-2.07
X2.04Y-2.17
X2.04Y-2.47
X2.05Y-1.2
X2.05Y-1.3
X2.14Y-1.87
X2.14Y-2.07
X2.14Y-2.17
X2.14Y-2.47
X2.24Y-1.87
X2.24Y-2.07
X2.24Y-2.17
X2.24Y-2.47
X2.34Y-1.87
X2.34Y-2.07
X2.34Y-2.17
X2.34Y-2.47
X2.44Y-1.87
X2.44Y-1.97
X2.44Y-2.07
X2.44Y-2.17
X2.44Y-2.27
X2.44Y-2.37
X2.44Y-2.47
X2.5Y-1.2
X2.5Y-1.3
X2.6Y-1.2
X2.6Y-1.3
X2.7Y-1.2
X2.7Y-1.3
X2.795Y-3.53
X2.795Y-3.63
X2.8Y-1.2
X2.8Y-1.3
X2.85Y-1.7
X2.895Y-3.53
X2.895Y-3.63
X2.9Y-1.2
X2.9Y-1.3
X2.9Y-3.23
X2.9Y-3.33
X2.95Y-1.7
X3.05Y-1.7
X3.09Y-3.625
X3.15Y-1.7
X3.19Y-3.625
X3.25Y-1.7
X3.29Y-3.625
X3.35Y-1.2
X3.35Y-1.3
X3.35Y-1.7
X3.39Y-3.625
X3.45Y-1.2
X3.45Y-1.3
X3.45Y-1.7
X3.53Y-3.09
X3.55Y-1.2
X3.55Y-1.3
X3.55Y-1.7
X3.63Y-3.09
X3.65Y-1.7
X3.73Y-3.09
X3.83Y-3.09
X3.93Y-3.09
X4.Y-1.2
X4.Y-1.3
X4.03Y-3.09
X4.1Y-1.2
X4.1Y-1.3
X4.2Y-1.2
X4.2Y-1.3
X4.25Y-3.
X4.3Y-1.2
X4.3Y-1.3
X4.35Y-3.
X4.4Y-1.2
X4.4Y-1.3
X4.45Y-3.
X4.5Y-1.2
X4.5Y-1.3
X4.55Y-3.
X4.6Y-1.2
X4.6Y-1.3
X4.65Y-3.
X4.75Y-3.
X5.1Y-1.95
X5.1Y-2.05
X5.1Y-2.15
X5.1Y-2.25
X5.1Y-2.35
X5.1Y-2.45
X5.1Y-2.55
X5.1Y-2.65
T7
X3.5972Y-3.3293
X3.5976Y-3.5852
X4.0028Y-3.3293
X4.0028Y-3.5852
T8
X2.85Y-2.856
X3.65Y-2.856
X3.941Y-1.729
X3.941Y-2.871
X5.103Y-1.729
X5.103Y-2.871
T9
X1.25Y-1.25
X1.25Y-3.5
X5.Y-1.25
X5.Y-3.5
T0
M30
