G04 (created by PCBNEW (2013-jul-07)-stable) date Mon 24 Nov 2014 01:28:27 PM PST*
%MOIN*%
G04 Gerber Fmt 3.4, Leading zero omitted, Abs format*
%FSLAX34Y34*%
G01*
G70*
G90*
G04 APERTURE LIST*
%ADD10C,0.00590551*%
%ADD11C,0.008*%
%ADD12C,0.012*%
%ADD13C,0.015*%
%ADD14C,0.006*%
G04 APERTURE END LIST*
G54D10*
G54D11*
X16935Y-17861D02*
X16935Y-17461D01*
X17088Y-17461D01*
X17126Y-17480D01*
X17145Y-17500D01*
X17164Y-17538D01*
X17164Y-17595D01*
X17145Y-17633D01*
X17126Y-17652D01*
X17088Y-17671D01*
X16935Y-17671D01*
X17564Y-17861D02*
X17430Y-17671D01*
X17335Y-17861D02*
X17335Y-17461D01*
X17488Y-17461D01*
X17526Y-17480D01*
X17545Y-17500D01*
X17564Y-17538D01*
X17564Y-17595D01*
X17545Y-17633D01*
X17526Y-17652D01*
X17488Y-17671D01*
X17335Y-17671D01*
X17811Y-17461D02*
X17888Y-17461D01*
X17926Y-17480D01*
X17964Y-17519D01*
X17983Y-17595D01*
X17983Y-17728D01*
X17964Y-17804D01*
X17926Y-17842D01*
X17888Y-17861D01*
X17811Y-17861D01*
X17773Y-17842D01*
X17735Y-17804D01*
X17716Y-17728D01*
X17716Y-17595D01*
X17735Y-17519D01*
X17773Y-17480D01*
X17811Y-17461D01*
X18364Y-17480D02*
X18326Y-17461D01*
X18269Y-17461D01*
X18211Y-17480D01*
X18173Y-17519D01*
X18154Y-17557D01*
X18135Y-17633D01*
X18135Y-17690D01*
X18154Y-17766D01*
X18173Y-17804D01*
X18211Y-17842D01*
X18269Y-17861D01*
X18307Y-17861D01*
X18364Y-17842D01*
X18383Y-17823D01*
X18383Y-17690D01*
X18307Y-17690D01*
X13852Y-17411D02*
X13985Y-17811D01*
X14119Y-17411D01*
X14385Y-17602D02*
X14442Y-17621D01*
X14461Y-17640D01*
X14480Y-17678D01*
X14480Y-17735D01*
X14461Y-17773D01*
X14442Y-17792D01*
X14404Y-17811D01*
X14252Y-17811D01*
X14252Y-17411D01*
X14385Y-17411D01*
X14423Y-17430D01*
X14442Y-17450D01*
X14461Y-17488D01*
X14461Y-17526D01*
X14442Y-17564D01*
X14423Y-17583D01*
X14385Y-17602D01*
X14252Y-17602D01*
X14652Y-17411D02*
X14652Y-17735D01*
X14671Y-17773D01*
X14690Y-17792D01*
X14728Y-17811D01*
X14804Y-17811D01*
X14842Y-17792D01*
X14861Y-17773D01*
X14880Y-17735D01*
X14880Y-17411D01*
X15052Y-17792D02*
X15109Y-17811D01*
X15204Y-17811D01*
X15242Y-17792D01*
X15261Y-17773D01*
X15280Y-17735D01*
X15280Y-17697D01*
X15261Y-17659D01*
X15242Y-17640D01*
X15204Y-17621D01*
X15128Y-17602D01*
X15090Y-17583D01*
X15071Y-17564D01*
X15052Y-17526D01*
X15052Y-17488D01*
X15071Y-17450D01*
X15090Y-17430D01*
X15128Y-17411D01*
X15223Y-17411D01*
X15280Y-17430D01*
X15947Y-17411D02*
X15757Y-17411D01*
X15738Y-17602D01*
X15757Y-17583D01*
X15795Y-17564D01*
X15890Y-17564D01*
X15928Y-17583D01*
X15947Y-17602D01*
X15966Y-17640D01*
X15966Y-17735D01*
X15947Y-17773D01*
X15928Y-17792D01*
X15890Y-17811D01*
X15795Y-17811D01*
X15757Y-17792D01*
X15738Y-17773D01*
X16080Y-17411D02*
X16214Y-17811D01*
X16347Y-17411D01*
X11571Y-13411D02*
X11380Y-13411D01*
X11361Y-13602D01*
X11380Y-13583D01*
X11419Y-13564D01*
X11514Y-13564D01*
X11552Y-13583D01*
X11571Y-13602D01*
X11590Y-13640D01*
X11590Y-13735D01*
X11571Y-13773D01*
X11552Y-13792D01*
X11514Y-13811D01*
X11419Y-13811D01*
X11380Y-13792D01*
X11361Y-13773D01*
X11704Y-13411D02*
X11838Y-13811D01*
X11971Y-13411D01*
X29661Y-36435D02*
X29661Y-36207D01*
X30061Y-36321D02*
X29661Y-36321D01*
X30061Y-36073D02*
X29661Y-36073D01*
X30061Y-35845D01*
X29661Y-35845D01*
X30042Y-35673D02*
X30061Y-35616D01*
X30061Y-35521D01*
X30042Y-35483D01*
X30023Y-35464D01*
X29985Y-35445D01*
X29947Y-35445D01*
X29909Y-35464D01*
X29890Y-35483D01*
X29871Y-35521D01*
X29852Y-35597D01*
X29833Y-35635D01*
X29814Y-35654D01*
X29776Y-35673D01*
X29738Y-35673D01*
X29700Y-35654D01*
X29680Y-35635D01*
X29661Y-35597D01*
X29661Y-35502D01*
X29680Y-35445D01*
X29871Y-35197D02*
X30061Y-35197D01*
X29661Y-35330D02*
X29871Y-35197D01*
X29661Y-35064D01*
X27211Y-36107D02*
X27021Y-36240D01*
X27211Y-36335D02*
X26811Y-36335D01*
X26811Y-36183D01*
X26830Y-36145D01*
X26850Y-36126D01*
X26888Y-36107D01*
X26945Y-36107D01*
X26983Y-36126D01*
X27002Y-36145D01*
X27021Y-36183D01*
X27021Y-36335D01*
X27002Y-35935D02*
X27002Y-35802D01*
X27211Y-35745D02*
X27211Y-35935D01*
X26811Y-35935D01*
X26811Y-35745D01*
X26830Y-35364D02*
X26811Y-35402D01*
X26811Y-35459D01*
X26830Y-35516D01*
X26869Y-35554D01*
X26907Y-35573D01*
X26983Y-35592D01*
X27040Y-35592D01*
X27116Y-35573D01*
X27154Y-35554D01*
X27192Y-35516D01*
X27211Y-35459D01*
X27211Y-35421D01*
X27192Y-35364D01*
X27173Y-35345D01*
X27040Y-35345D01*
X27040Y-35421D01*
X27419Y-34261D02*
X27666Y-34261D01*
X27533Y-34414D01*
X27590Y-34414D01*
X27628Y-34433D01*
X27647Y-34452D01*
X27666Y-34490D01*
X27666Y-34585D01*
X27647Y-34623D01*
X27628Y-34642D01*
X27590Y-34661D01*
X27476Y-34661D01*
X27438Y-34642D01*
X27419Y-34623D01*
X27780Y-34261D02*
X27914Y-34661D01*
X28047Y-34261D01*
X28142Y-34261D02*
X28390Y-34261D01*
X28257Y-34414D01*
X28314Y-34414D01*
X28352Y-34433D01*
X28371Y-34452D01*
X28390Y-34490D01*
X28390Y-34585D01*
X28371Y-34623D01*
X28352Y-34642D01*
X28314Y-34661D01*
X28200Y-34661D01*
X28161Y-34642D01*
X28142Y-34623D01*
X28847Y-34642D02*
X28904Y-34661D01*
X29000Y-34661D01*
X29038Y-34642D01*
X29057Y-34623D01*
X29076Y-34585D01*
X29076Y-34547D01*
X29057Y-34509D01*
X29038Y-34490D01*
X29000Y-34471D01*
X28923Y-34452D01*
X28885Y-34433D01*
X28866Y-34414D01*
X28847Y-34376D01*
X28847Y-34338D01*
X28866Y-34300D01*
X28885Y-34280D01*
X28923Y-34261D01*
X29019Y-34261D01*
X29076Y-34280D01*
X29247Y-34452D02*
X29380Y-34452D01*
X29438Y-34661D02*
X29247Y-34661D01*
X29247Y-34261D01*
X29438Y-34261D01*
X29800Y-34661D02*
X29609Y-34661D01*
X29609Y-34261D01*
X27961Y-33657D02*
X27961Y-33409D01*
X28114Y-33542D01*
X28114Y-33485D01*
X28133Y-33447D01*
X28152Y-33428D01*
X28190Y-33409D01*
X28285Y-33409D01*
X28323Y-33428D01*
X28342Y-33447D01*
X28361Y-33485D01*
X28361Y-33599D01*
X28342Y-33638D01*
X28323Y-33657D01*
X27961Y-33295D02*
X28361Y-33161D01*
X27961Y-33028D01*
X27961Y-32933D02*
X27961Y-32685D01*
X28114Y-32819D01*
X28114Y-32761D01*
X28133Y-32723D01*
X28152Y-32704D01*
X28190Y-32685D01*
X28285Y-32685D01*
X28323Y-32704D01*
X28342Y-32723D01*
X28361Y-32761D01*
X28361Y-32876D01*
X28342Y-32914D01*
X28323Y-32933D01*
X28342Y-32228D02*
X28361Y-32171D01*
X28361Y-32076D01*
X28342Y-32038D01*
X28323Y-32019D01*
X28285Y-32000D01*
X28247Y-32000D01*
X28209Y-32019D01*
X28190Y-32038D01*
X28171Y-32076D01*
X28152Y-32152D01*
X28133Y-32190D01*
X28114Y-32209D01*
X28076Y-32228D01*
X28038Y-32228D01*
X28000Y-32209D01*
X27980Y-32190D01*
X27961Y-32152D01*
X27961Y-32057D01*
X27980Y-32000D01*
X28361Y-31828D02*
X27961Y-31828D01*
X28152Y-31828D02*
X28152Y-31600D01*
X28361Y-31600D02*
X27961Y-31600D01*
X28361Y-31409D02*
X27961Y-31409D01*
X27961Y-31314D01*
X27980Y-31257D01*
X28019Y-31219D01*
X28057Y-31200D01*
X28133Y-31180D01*
X28190Y-31180D01*
X28266Y-31200D01*
X28304Y-31219D01*
X28342Y-31257D01*
X28361Y-31314D01*
X28361Y-31409D01*
X28361Y-31009D02*
X27961Y-31009D01*
X28361Y-30780D01*
X27961Y-30780D01*
G54D12*
X13271Y-16364D02*
X13728Y-16364D01*
X13271Y-14864D02*
X13728Y-14864D01*
X13500Y-15092D02*
X13500Y-14635D01*
G54D11*
X40988Y-15252D02*
X41121Y-15252D01*
X41178Y-15461D02*
X40988Y-15461D01*
X40988Y-15061D01*
X41178Y-15061D01*
X41311Y-15061D02*
X41578Y-15461D01*
X41578Y-15061D02*
X41311Y-15461D01*
X41730Y-15461D02*
X41730Y-15061D01*
X41883Y-15061D01*
X41921Y-15080D01*
X41940Y-15100D01*
X41959Y-15138D01*
X41959Y-15195D01*
X41940Y-15233D01*
X41921Y-15252D01*
X41883Y-15271D01*
X41730Y-15271D01*
X42111Y-15347D02*
X42302Y-15347D01*
X42073Y-15461D02*
X42207Y-15061D01*
X42340Y-15461D01*
X42473Y-15461D02*
X42473Y-15061D01*
X42702Y-15461D01*
X42702Y-15061D01*
X42873Y-15442D02*
X42930Y-15461D01*
X43026Y-15461D01*
X43064Y-15442D01*
X43083Y-15423D01*
X43102Y-15385D01*
X43102Y-15347D01*
X43083Y-15309D01*
X43064Y-15290D01*
X43026Y-15271D01*
X42950Y-15252D01*
X42911Y-15233D01*
X42892Y-15214D01*
X42873Y-15176D01*
X42873Y-15138D01*
X42892Y-15100D01*
X42911Y-15080D01*
X42950Y-15061D01*
X43045Y-15061D01*
X43102Y-15080D01*
X43273Y-15461D02*
X43273Y-15061D01*
X43540Y-15061D02*
X43616Y-15061D01*
X43654Y-15080D01*
X43692Y-15119D01*
X43711Y-15195D01*
X43711Y-15328D01*
X43692Y-15404D01*
X43654Y-15442D01*
X43616Y-15461D01*
X43540Y-15461D01*
X43502Y-15442D01*
X43464Y-15404D01*
X43445Y-15328D01*
X43445Y-15195D01*
X43464Y-15119D01*
X43502Y-15080D01*
X43540Y-15061D01*
X43883Y-15461D02*
X43883Y-15061D01*
X44111Y-15461D01*
X44111Y-15061D01*
X34430Y-15342D02*
X34488Y-15361D01*
X34583Y-15361D01*
X34621Y-15342D01*
X34640Y-15323D01*
X34659Y-15285D01*
X34659Y-15247D01*
X34640Y-15209D01*
X34621Y-15190D01*
X34583Y-15171D01*
X34507Y-15152D01*
X34469Y-15133D01*
X34450Y-15114D01*
X34430Y-15076D01*
X34430Y-15038D01*
X34450Y-15000D01*
X34469Y-14980D01*
X34507Y-14961D01*
X34602Y-14961D01*
X34659Y-14980D01*
X34830Y-15152D02*
X34964Y-15152D01*
X35021Y-15361D02*
X34830Y-15361D01*
X34830Y-14961D01*
X35021Y-14961D01*
X35192Y-15361D02*
X35192Y-14961D01*
X35421Y-15361D01*
X35421Y-14961D01*
X35592Y-15342D02*
X35650Y-15361D01*
X35745Y-15361D01*
X35783Y-15342D01*
X35802Y-15323D01*
X35821Y-15285D01*
X35821Y-15247D01*
X35802Y-15209D01*
X35783Y-15190D01*
X35745Y-15171D01*
X35669Y-15152D01*
X35630Y-15133D01*
X35611Y-15114D01*
X35592Y-15076D01*
X35592Y-15038D01*
X35611Y-15000D01*
X35630Y-14980D01*
X35669Y-14961D01*
X35764Y-14961D01*
X35821Y-14980D01*
X36240Y-14961D02*
X36469Y-14961D01*
X36354Y-15361D02*
X36354Y-14961D01*
X36888Y-14942D02*
X36545Y-15457D01*
X37021Y-15361D02*
X37021Y-14961D01*
X37021Y-15152D02*
X37250Y-15152D01*
X37250Y-15361D02*
X37250Y-14961D01*
X26073Y-15342D02*
X26130Y-15361D01*
X26226Y-15361D01*
X26264Y-15342D01*
X26283Y-15323D01*
X26302Y-15285D01*
X26302Y-15247D01*
X26283Y-15209D01*
X26264Y-15190D01*
X26226Y-15171D01*
X26150Y-15152D01*
X26111Y-15133D01*
X26092Y-15114D01*
X26073Y-15076D01*
X26073Y-15038D01*
X26092Y-15000D01*
X26111Y-14980D01*
X26150Y-14961D01*
X26245Y-14961D01*
X26302Y-14980D01*
X26473Y-15152D02*
X26607Y-15152D01*
X26664Y-15361D02*
X26473Y-15361D01*
X26473Y-14961D01*
X26664Y-14961D01*
X26835Y-15361D02*
X26835Y-14961D01*
X27064Y-15361D01*
X27064Y-14961D01*
X27235Y-15342D02*
X27292Y-15361D01*
X27388Y-15361D01*
X27426Y-15342D01*
X27445Y-15323D01*
X27464Y-15285D01*
X27464Y-15247D01*
X27445Y-15209D01*
X27426Y-15190D01*
X27388Y-15171D01*
X27311Y-15152D01*
X27273Y-15133D01*
X27254Y-15114D01*
X27235Y-15076D01*
X27235Y-15038D01*
X27254Y-15000D01*
X27273Y-14980D01*
X27311Y-14961D01*
X27407Y-14961D01*
X27464Y-14980D01*
X28111Y-15095D02*
X28111Y-15361D01*
X28016Y-14942D02*
X27921Y-15228D01*
X28169Y-15228D01*
X28321Y-15209D02*
X28626Y-15209D01*
X28988Y-14961D02*
X28911Y-14961D01*
X28873Y-14980D01*
X28854Y-15000D01*
X28816Y-15057D01*
X28797Y-15133D01*
X28797Y-15285D01*
X28816Y-15323D01*
X28835Y-15342D01*
X28873Y-15361D01*
X28950Y-15361D01*
X28988Y-15342D01*
X29007Y-15323D01*
X29026Y-15285D01*
X29026Y-15190D01*
X29007Y-15152D01*
X28988Y-15133D01*
X28950Y-15114D01*
X28873Y-15114D01*
X28835Y-15133D01*
X28816Y-15152D01*
X28797Y-15190D01*
X17673Y-15292D02*
X17730Y-15311D01*
X17826Y-15311D01*
X17864Y-15292D01*
X17883Y-15273D01*
X17902Y-15235D01*
X17902Y-15197D01*
X17883Y-15159D01*
X17864Y-15140D01*
X17826Y-15121D01*
X17750Y-15102D01*
X17711Y-15083D01*
X17692Y-15064D01*
X17673Y-15026D01*
X17673Y-14988D01*
X17692Y-14950D01*
X17711Y-14930D01*
X17750Y-14911D01*
X17845Y-14911D01*
X17902Y-14930D01*
X18073Y-15102D02*
X18207Y-15102D01*
X18264Y-15311D02*
X18073Y-15311D01*
X18073Y-14911D01*
X18264Y-14911D01*
X18435Y-15311D02*
X18435Y-14911D01*
X18664Y-15311D01*
X18664Y-14911D01*
X18835Y-15292D02*
X18892Y-15311D01*
X18988Y-15311D01*
X19026Y-15292D01*
X19045Y-15273D01*
X19064Y-15235D01*
X19064Y-15197D01*
X19045Y-15159D01*
X19026Y-15140D01*
X18988Y-15121D01*
X18911Y-15102D01*
X18873Y-15083D01*
X18854Y-15064D01*
X18835Y-15026D01*
X18835Y-14988D01*
X18854Y-14950D01*
X18873Y-14930D01*
X18911Y-14911D01*
X19007Y-14911D01*
X19064Y-14930D01*
X19750Y-15311D02*
X19521Y-15311D01*
X19635Y-15311D02*
X19635Y-14911D01*
X19597Y-14969D01*
X19559Y-15007D01*
X19521Y-15026D01*
X19921Y-15159D02*
X20226Y-15159D01*
X20378Y-14911D02*
X20626Y-14911D01*
X20492Y-15064D01*
X20550Y-15064D01*
X20588Y-15083D01*
X20607Y-15102D01*
X20626Y-15140D01*
X20626Y-15235D01*
X20607Y-15273D01*
X20588Y-15292D01*
X20550Y-15311D01*
X20435Y-15311D01*
X20397Y-15292D01*
X20378Y-15273D01*
X11369Y-27561D02*
X11445Y-27561D01*
X11483Y-27580D01*
X11521Y-27619D01*
X11540Y-27695D01*
X11540Y-27828D01*
X11521Y-27904D01*
X11483Y-27942D01*
X11445Y-27961D01*
X11369Y-27961D01*
X11330Y-27942D01*
X11292Y-27904D01*
X11273Y-27828D01*
X11273Y-27695D01*
X11292Y-27619D01*
X11330Y-27580D01*
X11369Y-27561D01*
X11845Y-27752D02*
X11711Y-27752D01*
X11711Y-27961D02*
X11711Y-27561D01*
X11902Y-27561D01*
X12188Y-27752D02*
X12054Y-27752D01*
X12054Y-27961D02*
X12054Y-27561D01*
X12245Y-27561D01*
X11452Y-31861D02*
X11528Y-31861D01*
X11566Y-31880D01*
X11604Y-31919D01*
X11623Y-31995D01*
X11623Y-32128D01*
X11604Y-32204D01*
X11566Y-32242D01*
X11528Y-32261D01*
X11452Y-32261D01*
X11414Y-32242D01*
X11376Y-32204D01*
X11357Y-32128D01*
X11357Y-31995D01*
X11376Y-31919D01*
X11414Y-31880D01*
X11452Y-31861D01*
X11795Y-32261D02*
X11795Y-31861D01*
X12023Y-32261D01*
X12023Y-31861D01*
G54D10*
X26747Y-33396D02*
X24287Y-36683D01*
X24287Y-27116D02*
X26747Y-30403D01*
X26747Y-30403D02*
X26747Y-33396D01*
X13952Y-27116D02*
X24287Y-27116D01*
X13952Y-27116D02*
X13952Y-36683D01*
X13952Y-36683D02*
X24287Y-36683D01*
G54D13*
X10900Y-23300D02*
X12500Y-23300D01*
X12500Y-23300D02*
X12500Y-20100D01*
X12500Y-20100D02*
X10900Y-20100D01*
X10900Y-20100D02*
X10400Y-20100D01*
X10400Y-20100D02*
X10400Y-23300D01*
X10400Y-23300D02*
X10900Y-23300D01*
X10900Y-25200D02*
X24900Y-25200D01*
X24900Y-25200D02*
X24900Y-18200D01*
X24900Y-18200D02*
X10900Y-18200D01*
X10900Y-18200D02*
X10900Y-25200D01*
X34800Y-30400D02*
X34800Y-31400D01*
X34800Y-31400D02*
X40800Y-31400D01*
X40800Y-31400D02*
X40800Y-30400D01*
X40800Y-30400D02*
X34800Y-30400D01*
X34400Y-36850D02*
X34400Y-31750D01*
X30380Y-36850D02*
X30400Y-31750D01*
X34400Y-36850D02*
X30400Y-36850D01*
X34400Y-31750D02*
X30400Y-31750D01*
G54D12*
X29450Y-36800D02*
X27450Y-36800D01*
X27450Y-36800D02*
X27450Y-34800D01*
X27450Y-34800D02*
X29450Y-34800D01*
X29450Y-34800D02*
X29450Y-36800D01*
G54D14*
X16640Y-17200D02*
X16640Y-16200D01*
X16640Y-16200D02*
X18640Y-16200D01*
X18640Y-16200D02*
X18640Y-17200D01*
X18640Y-17200D02*
X16640Y-17200D01*
X16100Y-16200D02*
X16100Y-17200D01*
X16100Y-17200D02*
X14100Y-17200D01*
X14100Y-17200D02*
X14100Y-16200D01*
X14100Y-16200D02*
X16100Y-16200D01*
X28500Y-31800D02*
X29500Y-31800D01*
X29500Y-31800D02*
X29500Y-33800D01*
X29500Y-33800D02*
X28500Y-33800D01*
X28500Y-33800D02*
X28500Y-31800D01*
G54D13*
X41850Y-29400D02*
X48150Y-29400D01*
X41850Y-37300D02*
X48150Y-37300D01*
X48150Y-29400D02*
X48150Y-37250D01*
X48150Y-37250D02*
X48150Y-37300D01*
X41850Y-29400D02*
X41850Y-37300D01*
X39476Y-36324D02*
X39476Y-32879D01*
X36523Y-32879D02*
X36523Y-36324D01*
X36523Y-36324D02*
X39476Y-36324D01*
X36523Y-32879D02*
X39476Y-32879D01*
X11700Y-31650D02*
X12800Y-31650D01*
X12800Y-31650D02*
X12800Y-28250D01*
X12800Y-28250D02*
X10600Y-28250D01*
X10600Y-28250D02*
X10600Y-31650D01*
X10600Y-31650D02*
X11700Y-31650D01*
G54D10*
X28500Y-16000D02*
G75*
G03X27500Y-17000I0J-1000D01*
G74*
G01*
X37500Y-17000D02*
G75*
G03X36500Y-16000I-1000J0D01*
G74*
G01*
X27500Y-28500D02*
G75*
G03X28500Y-29500I1000J0D01*
G74*
G01*
X36500Y-29500D02*
G75*
G03X37500Y-28500I0J1000D01*
G74*
G01*
X36500Y-16000D02*
X28500Y-16000D01*
X36500Y-29500D02*
X28500Y-29500D01*
X27500Y-28500D02*
X27500Y-17000D01*
X37500Y-28500D02*
X37500Y-17000D01*
X40590Y-18380D02*
X40590Y-27620D01*
X38230Y-27620D02*
X40590Y-27620D01*
X38230Y-18380D02*
X40590Y-18380D01*
X39410Y-16110D02*
G75*
G03X38230Y-17290I0J-1180D01*
G74*
G01*
X38230Y-28710D02*
G75*
G03X39410Y-29890I1180J0D01*
G74*
G01*
X38230Y-28710D02*
X38230Y-27620D01*
X38230Y-17290D02*
X38230Y-18380D01*
X51030Y-29890D02*
G75*
G03X52210Y-28710I0J1180D01*
G74*
G01*
X52210Y-17290D02*
G75*
G03X51030Y-16110I-1180J0D01*
G74*
G01*
X52210Y-17290D02*
X52210Y-28710D01*
X51030Y-29890D02*
X39410Y-29890D01*
X51030Y-16110D02*
X39410Y-16110D01*
G54D13*
X48000Y-10600D02*
X46000Y-10600D01*
X48000Y-14400D02*
X46000Y-14400D01*
X48000Y-12500D02*
X48000Y-14400D01*
X48000Y-12500D02*
X48000Y-10600D01*
X38000Y-10600D02*
X46000Y-10600D01*
X46000Y-14400D02*
X38000Y-14400D01*
X38000Y-14400D02*
X38000Y-10600D01*
X39283Y-15374D02*
X40465Y-15374D01*
X39888Y-14661D02*
X39288Y-15361D01*
X40488Y-15360D02*
X39888Y-14660D01*
X14500Y-10600D02*
X22500Y-10600D01*
X22500Y-10600D02*
X22500Y-14400D01*
X22500Y-14400D02*
X14500Y-14400D01*
X14500Y-14400D02*
X14500Y-10600D01*
X15783Y-15374D02*
X16965Y-15374D01*
X16388Y-14661D02*
X15788Y-15361D01*
X16988Y-15360D02*
X16388Y-14660D01*
X23000Y-10600D02*
X31000Y-10600D01*
X31000Y-10600D02*
X31000Y-14400D01*
X31000Y-14400D02*
X23000Y-14400D01*
X23000Y-14400D02*
X23000Y-10600D01*
X24283Y-15374D02*
X25465Y-15374D01*
X24888Y-14661D02*
X24288Y-15361D01*
X25488Y-15360D02*
X24888Y-14660D01*
X31500Y-14400D02*
X37500Y-14400D01*
X31500Y-10600D02*
X37500Y-10600D01*
X37500Y-10600D02*
X37500Y-14400D01*
X31500Y-14400D02*
X31500Y-10600D01*
X32783Y-15374D02*
X33965Y-15374D01*
X33388Y-14661D02*
X32788Y-15361D01*
X33988Y-15360D02*
X33388Y-14660D01*
X13040Y-14080D02*
X10340Y-14080D01*
X10340Y-14080D02*
X10340Y-17280D01*
X10340Y-17280D02*
X13040Y-17280D01*
X13040Y-17280D02*
X13040Y-14080D01*
G54D11*
X26861Y-32204D02*
X27185Y-32204D01*
X27223Y-32185D01*
X27242Y-32166D01*
X27261Y-32128D01*
X27261Y-32052D01*
X27242Y-32014D01*
X27223Y-31995D01*
X27185Y-31976D01*
X26861Y-31976D01*
X26900Y-31804D02*
X26880Y-31785D01*
X26861Y-31747D01*
X26861Y-31652D01*
X26880Y-31614D01*
X26900Y-31595D01*
X26938Y-31576D01*
X26976Y-31576D01*
X27033Y-31595D01*
X27261Y-31823D01*
X27261Y-31576D01*
G54D12*
X19942Y-33192D02*
X20542Y-32792D01*
X19942Y-32792D02*
X20542Y-33192D01*
X20228Y-32364D02*
X20257Y-32278D01*
X20285Y-32249D01*
X20342Y-32221D01*
X20428Y-32221D01*
X20485Y-32249D01*
X20514Y-32278D01*
X20542Y-32335D01*
X20542Y-32564D01*
X19942Y-32564D01*
X19942Y-32364D01*
X19971Y-32307D01*
X20000Y-32278D01*
X20057Y-32249D01*
X20114Y-32249D01*
X20171Y-32278D01*
X20200Y-32307D01*
X20228Y-32364D01*
X20228Y-32564D01*
X20228Y-31964D02*
X20228Y-31764D01*
X20542Y-31678D02*
X20542Y-31964D01*
X19942Y-31964D01*
X19942Y-31678D01*
X20228Y-31421D02*
X20228Y-31221D01*
X20542Y-31135D02*
X20542Y-31421D01*
X19942Y-31421D01*
X19942Y-31135D01*
G54D10*
X16774Y-35763D02*
X16774Y-35576D01*
X16887Y-35801D02*
X16493Y-35670D01*
X16887Y-35538D01*
X16887Y-35407D02*
X16493Y-35407D01*
X16493Y-35313D01*
X16512Y-35257D01*
X16549Y-35220D01*
X16587Y-35201D01*
X16662Y-35182D01*
X16718Y-35182D01*
X16793Y-35201D01*
X16831Y-35220D01*
X16868Y-35257D01*
X16887Y-35313D01*
X16887Y-35407D01*
X16624Y-34845D02*
X16887Y-34845D01*
X16474Y-34938D02*
X16756Y-35032D01*
X16756Y-34789D01*
X17637Y-35501D02*
X17655Y-35520D01*
X17674Y-35576D01*
X17674Y-35613D01*
X17655Y-35670D01*
X17618Y-35707D01*
X17580Y-35726D01*
X17505Y-35745D01*
X17449Y-35745D01*
X17374Y-35726D01*
X17337Y-35707D01*
X17299Y-35670D01*
X17281Y-35613D01*
X17281Y-35576D01*
X17299Y-35520D01*
X17318Y-35501D01*
X17281Y-35388D02*
X17281Y-35163D01*
X17674Y-35276D02*
X17281Y-35276D01*
X17655Y-35051D02*
X17674Y-34995D01*
X17674Y-34901D01*
X17655Y-34864D01*
X17637Y-34845D01*
X17599Y-34826D01*
X17562Y-34826D01*
X17524Y-34845D01*
X17505Y-34864D01*
X17487Y-34901D01*
X17468Y-34976D01*
X17449Y-35013D01*
X17430Y-35032D01*
X17393Y-35051D01*
X17355Y-35051D01*
X17318Y-35032D01*
X17299Y-35013D01*
X17281Y-34976D01*
X17281Y-34882D01*
X17299Y-34826D01*
X18107Y-35647D02*
X18107Y-35572D01*
X18126Y-35535D01*
X18164Y-35497D01*
X18239Y-35478D01*
X18370Y-35478D01*
X18445Y-35497D01*
X18482Y-35535D01*
X18501Y-35572D01*
X18501Y-35647D01*
X18482Y-35685D01*
X18445Y-35722D01*
X18370Y-35741D01*
X18239Y-35741D01*
X18164Y-35722D01*
X18126Y-35685D01*
X18107Y-35647D01*
X18501Y-35310D02*
X18107Y-35310D01*
X18501Y-35085D01*
X18107Y-35085D01*
X18855Y-35763D02*
X19249Y-35632D01*
X18855Y-35501D01*
X19249Y-35145D02*
X19062Y-35276D01*
X19249Y-35370D02*
X18855Y-35370D01*
X18855Y-35220D01*
X18874Y-35182D01*
X18893Y-35163D01*
X18930Y-35145D01*
X18987Y-35145D01*
X19024Y-35163D01*
X19043Y-35182D01*
X19062Y-35220D01*
X19062Y-35370D01*
X19043Y-34976D02*
X19043Y-34845D01*
X19249Y-34789D02*
X19249Y-34976D01*
X18855Y-34976D01*
X18855Y-34789D01*
X19043Y-34489D02*
X19043Y-34620D01*
X19249Y-34620D02*
X18855Y-34620D01*
X18855Y-34432D01*
X19963Y-35724D02*
X19963Y-35537D01*
X20076Y-35762D02*
X19682Y-35630D01*
X20076Y-35499D01*
X20076Y-35368D02*
X19682Y-35368D01*
X19682Y-35274D01*
X19701Y-35218D01*
X19738Y-35180D01*
X19776Y-35162D01*
X19851Y-35143D01*
X19907Y-35143D01*
X19982Y-35162D01*
X20020Y-35180D01*
X20057Y-35218D01*
X20076Y-35274D01*
X20076Y-35368D01*
X19682Y-34787D02*
X19682Y-34974D01*
X19870Y-34993D01*
X19851Y-34974D01*
X19832Y-34937D01*
X19832Y-34843D01*
X19851Y-34805D01*
X19870Y-34787D01*
X19907Y-34768D01*
X20001Y-34768D01*
X20038Y-34787D01*
X20057Y-34805D01*
X20076Y-34843D01*
X20076Y-34937D01*
X20057Y-34974D01*
X20038Y-34993D01*
X20824Y-35501D02*
X20636Y-35632D01*
X20824Y-35726D02*
X20430Y-35726D01*
X20430Y-35576D01*
X20449Y-35538D01*
X20468Y-35520D01*
X20505Y-35501D01*
X20561Y-35501D01*
X20599Y-35520D01*
X20618Y-35538D01*
X20636Y-35576D01*
X20636Y-35726D01*
X20430Y-35388D02*
X20430Y-35163D01*
X20824Y-35276D02*
X20430Y-35276D01*
X20805Y-35051D02*
X20824Y-34995D01*
X20824Y-34901D01*
X20805Y-34864D01*
X20786Y-34845D01*
X20749Y-34826D01*
X20711Y-34826D01*
X20674Y-34845D01*
X20655Y-34864D01*
X20636Y-34901D01*
X20618Y-34976D01*
X20599Y-35013D01*
X20580Y-35032D01*
X20543Y-35051D01*
X20505Y-35051D01*
X20468Y-35032D01*
X20449Y-35013D01*
X20430Y-34976D01*
X20430Y-34882D01*
X20449Y-34826D01*
X21538Y-35763D02*
X21538Y-35576D01*
X21651Y-35801D02*
X21257Y-35670D01*
X21651Y-35538D01*
X21651Y-35407D02*
X21257Y-35407D01*
X21257Y-35313D01*
X21276Y-35257D01*
X21313Y-35220D01*
X21351Y-35201D01*
X21426Y-35182D01*
X21482Y-35182D01*
X21557Y-35201D01*
X21594Y-35220D01*
X21632Y-35257D01*
X21651Y-35313D01*
X21651Y-35407D01*
X21257Y-35051D02*
X21257Y-34807D01*
X21407Y-34938D01*
X21407Y-34882D01*
X21426Y-34845D01*
X21444Y-34826D01*
X21482Y-34807D01*
X21576Y-34807D01*
X21613Y-34826D01*
X21632Y-34845D01*
X21651Y-34882D01*
X21651Y-34995D01*
X21632Y-35032D01*
X21613Y-35051D01*
X22326Y-35763D02*
X22326Y-35576D01*
X22438Y-35801D02*
X22044Y-35670D01*
X22438Y-35538D01*
X22438Y-35407D02*
X22044Y-35407D01*
X22044Y-35313D01*
X22063Y-35257D01*
X22101Y-35220D01*
X22138Y-35201D01*
X22213Y-35182D01*
X22269Y-35182D01*
X22344Y-35201D01*
X22382Y-35220D01*
X22419Y-35257D01*
X22438Y-35313D01*
X22438Y-35407D01*
X22082Y-35032D02*
X22063Y-35013D01*
X22044Y-34976D01*
X22044Y-34882D01*
X22063Y-34845D01*
X22082Y-34826D01*
X22119Y-34807D01*
X22157Y-34807D01*
X22213Y-34826D01*
X22438Y-35051D01*
X22438Y-34807D01*
X23113Y-35763D02*
X23113Y-35576D01*
X23225Y-35801D02*
X22832Y-35670D01*
X23225Y-35538D01*
X23225Y-35407D02*
X22832Y-35407D01*
X22832Y-35313D01*
X22850Y-35257D01*
X22888Y-35220D01*
X22925Y-35201D01*
X23000Y-35182D01*
X23057Y-35182D01*
X23132Y-35201D01*
X23169Y-35220D01*
X23207Y-35257D01*
X23225Y-35313D01*
X23225Y-35407D01*
X23225Y-34807D02*
X23225Y-35032D01*
X23225Y-34920D02*
X22832Y-34920D01*
X22888Y-34957D01*
X22925Y-34995D01*
X22944Y-35032D01*
X23900Y-35763D02*
X23900Y-35576D01*
X24013Y-35801D02*
X23619Y-35670D01*
X24013Y-35538D01*
X24013Y-35407D02*
X23619Y-35407D01*
X23619Y-35313D01*
X23638Y-35257D01*
X23675Y-35220D01*
X23713Y-35201D01*
X23788Y-35182D01*
X23844Y-35182D01*
X23919Y-35201D01*
X23957Y-35220D01*
X23994Y-35257D01*
X24013Y-35313D01*
X24013Y-35407D01*
X23619Y-34938D02*
X23619Y-34901D01*
X23638Y-34864D01*
X23657Y-34845D01*
X23694Y-34826D01*
X23769Y-34807D01*
X23863Y-34807D01*
X23938Y-34826D01*
X23975Y-34845D01*
X23994Y-34864D01*
X24013Y-34901D01*
X24013Y-34938D01*
X23994Y-34976D01*
X23975Y-34995D01*
X23938Y-35013D01*
X23863Y-35032D01*
X23769Y-35032D01*
X23694Y-35013D01*
X23657Y-34995D01*
X23638Y-34976D01*
X23619Y-34938D01*
X16551Y-28853D02*
X16532Y-28891D01*
X16532Y-28947D01*
X16551Y-29003D01*
X16589Y-29040D01*
X16626Y-29059D01*
X16701Y-29078D01*
X16757Y-29078D01*
X16832Y-29059D01*
X16870Y-29040D01*
X16907Y-29003D01*
X16926Y-28947D01*
X16926Y-28909D01*
X16907Y-28853D01*
X16889Y-28834D01*
X16757Y-28834D01*
X16757Y-28909D01*
X16926Y-28666D02*
X16532Y-28666D01*
X16926Y-28441D01*
X16532Y-28441D01*
X16926Y-28253D02*
X16532Y-28253D01*
X16532Y-28159D01*
X16551Y-28103D01*
X16589Y-28066D01*
X16626Y-28047D01*
X16701Y-28028D01*
X16757Y-28028D01*
X16832Y-28047D01*
X16870Y-28066D01*
X16907Y-28103D01*
X16926Y-28159D01*
X16926Y-28253D01*
X17714Y-28964D02*
X17320Y-28964D01*
X17320Y-28870D01*
X17339Y-28814D01*
X17376Y-28776D01*
X17414Y-28757D01*
X17489Y-28739D01*
X17545Y-28739D01*
X17620Y-28757D01*
X17657Y-28776D01*
X17695Y-28814D01*
X17714Y-28870D01*
X17714Y-28964D01*
X17320Y-28626D02*
X17320Y-28401D01*
X17714Y-28514D02*
X17320Y-28514D01*
X17714Y-28045D02*
X17526Y-28176D01*
X17714Y-28270D02*
X17320Y-28270D01*
X17320Y-28120D01*
X17339Y-28082D01*
X17357Y-28064D01*
X17395Y-28045D01*
X17451Y-28045D01*
X17489Y-28064D01*
X17507Y-28082D01*
X17526Y-28120D01*
X17526Y-28270D01*
X18501Y-28748D02*
X18314Y-28879D01*
X18501Y-28973D02*
X18107Y-28973D01*
X18107Y-28823D01*
X18126Y-28786D01*
X18145Y-28767D01*
X18182Y-28748D01*
X18239Y-28748D01*
X18276Y-28767D01*
X18295Y-28786D01*
X18314Y-28823D01*
X18314Y-28973D01*
X18482Y-28598D02*
X18501Y-28542D01*
X18501Y-28448D01*
X18482Y-28411D01*
X18463Y-28392D01*
X18426Y-28373D01*
X18388Y-28373D01*
X18351Y-28392D01*
X18332Y-28411D01*
X18314Y-28448D01*
X18295Y-28523D01*
X18276Y-28561D01*
X18257Y-28579D01*
X18220Y-28598D01*
X18182Y-28598D01*
X18145Y-28579D01*
X18126Y-28561D01*
X18107Y-28523D01*
X18107Y-28429D01*
X18126Y-28373D01*
X18107Y-28261D02*
X18501Y-28129D01*
X18107Y-27998D01*
X19288Y-29530D02*
X18895Y-29530D01*
X18895Y-29380D01*
X18913Y-29342D01*
X18932Y-29324D01*
X18970Y-29305D01*
X19026Y-29305D01*
X19063Y-29324D01*
X19082Y-29342D01*
X19101Y-29380D01*
X19101Y-29530D01*
X18895Y-29174D02*
X19288Y-29080D01*
X19007Y-29005D01*
X19288Y-28930D01*
X18895Y-28836D01*
X19288Y-28686D02*
X18895Y-28686D01*
X19176Y-28555D01*
X18895Y-28424D01*
X19288Y-28424D01*
X19288Y-28030D02*
X19288Y-28255D01*
X19288Y-28142D02*
X18895Y-28142D01*
X18951Y-28180D01*
X18988Y-28217D01*
X19007Y-28255D01*
X20076Y-29530D02*
X19682Y-29530D01*
X19682Y-29380D01*
X19701Y-29342D01*
X19720Y-29324D01*
X19757Y-29305D01*
X19813Y-29305D01*
X19851Y-29324D01*
X19870Y-29342D01*
X19888Y-29380D01*
X19888Y-29530D01*
X19682Y-29174D02*
X20076Y-29080D01*
X19795Y-29005D01*
X20076Y-28930D01*
X19682Y-28836D01*
X20076Y-28686D02*
X19682Y-28686D01*
X19963Y-28555D01*
X19682Y-28424D01*
X20076Y-28424D01*
X19682Y-28161D02*
X19682Y-28124D01*
X19701Y-28086D01*
X19720Y-28067D01*
X19757Y-28049D01*
X19832Y-28030D01*
X19926Y-28030D01*
X20001Y-28049D01*
X20038Y-28067D01*
X20057Y-28086D01*
X20076Y-28124D01*
X20076Y-28161D01*
X20057Y-28199D01*
X20038Y-28217D01*
X20001Y-28236D01*
X19926Y-28255D01*
X19832Y-28255D01*
X19757Y-28236D01*
X19720Y-28217D01*
X19701Y-28199D01*
X19682Y-28161D01*
X20824Y-28690D02*
X20636Y-28821D01*
X20824Y-28915D02*
X20430Y-28915D01*
X20430Y-28765D01*
X20449Y-28727D01*
X20468Y-28709D01*
X20505Y-28690D01*
X20561Y-28690D01*
X20599Y-28709D01*
X20618Y-28727D01*
X20636Y-28765D01*
X20636Y-28915D01*
X20805Y-28540D02*
X20824Y-28484D01*
X20824Y-28390D01*
X20805Y-28352D01*
X20786Y-28334D01*
X20749Y-28315D01*
X20711Y-28315D01*
X20674Y-28334D01*
X20655Y-28352D01*
X20636Y-28390D01*
X20618Y-28465D01*
X20599Y-28502D01*
X20580Y-28521D01*
X20543Y-28540D01*
X20505Y-28540D01*
X20468Y-28521D01*
X20449Y-28502D01*
X20430Y-28465D01*
X20430Y-28371D01*
X20449Y-28315D01*
X20430Y-28202D02*
X20430Y-27977D01*
X20824Y-28090D02*
X20430Y-28090D01*
X21651Y-28992D02*
X21257Y-28992D01*
X21257Y-28898D01*
X21276Y-28842D01*
X21313Y-28804D01*
X21351Y-28786D01*
X21426Y-28767D01*
X21482Y-28767D01*
X21557Y-28786D01*
X21594Y-28804D01*
X21632Y-28842D01*
X21651Y-28898D01*
X21651Y-28992D01*
X21257Y-28523D02*
X21257Y-28486D01*
X21276Y-28448D01*
X21294Y-28429D01*
X21332Y-28411D01*
X21407Y-28392D01*
X21501Y-28392D01*
X21576Y-28411D01*
X21613Y-28429D01*
X21632Y-28448D01*
X21651Y-28486D01*
X21651Y-28523D01*
X21632Y-28561D01*
X21613Y-28579D01*
X21576Y-28598D01*
X21501Y-28617D01*
X21407Y-28617D01*
X21332Y-28598D01*
X21294Y-28579D01*
X21276Y-28561D01*
X21257Y-28523D01*
X21426Y-28167D02*
X21407Y-28204D01*
X21388Y-28223D01*
X21351Y-28242D01*
X21332Y-28242D01*
X21294Y-28223D01*
X21276Y-28204D01*
X21257Y-28167D01*
X21257Y-28092D01*
X21276Y-28054D01*
X21294Y-28036D01*
X21332Y-28017D01*
X21351Y-28017D01*
X21388Y-28036D01*
X21407Y-28054D01*
X21426Y-28092D01*
X21426Y-28167D01*
X21444Y-28204D01*
X21463Y-28223D01*
X21501Y-28242D01*
X21576Y-28242D01*
X21613Y-28223D01*
X21632Y-28204D01*
X21651Y-28167D01*
X21651Y-28092D01*
X21632Y-28054D01*
X21613Y-28036D01*
X21576Y-28017D01*
X21501Y-28017D01*
X21463Y-28036D01*
X21444Y-28054D01*
X21426Y-28092D01*
X22438Y-28838D02*
X22044Y-28838D01*
X22044Y-28744D01*
X22063Y-28688D01*
X22101Y-28651D01*
X22138Y-28632D01*
X22213Y-28613D01*
X22269Y-28613D01*
X22344Y-28632D01*
X22382Y-28651D01*
X22419Y-28688D01*
X22438Y-28744D01*
X22438Y-28838D01*
X22438Y-28444D02*
X22044Y-28444D01*
X22438Y-28257D02*
X22044Y-28257D01*
X22438Y-28032D01*
X22044Y-28032D01*
X23186Y-29376D02*
X22792Y-29376D01*
X22792Y-29282D01*
X22811Y-29226D01*
X22849Y-29189D01*
X22886Y-29170D01*
X22961Y-29151D01*
X23017Y-29151D01*
X23092Y-29170D01*
X23130Y-29189D01*
X23167Y-29226D01*
X23186Y-29282D01*
X23186Y-29376D01*
X22792Y-28907D02*
X22792Y-28832D01*
X22811Y-28795D01*
X22849Y-28757D01*
X22924Y-28739D01*
X23055Y-28739D01*
X23130Y-28757D01*
X23167Y-28795D01*
X23186Y-28832D01*
X23186Y-28907D01*
X23167Y-28945D01*
X23130Y-28982D01*
X23055Y-29001D01*
X22924Y-29001D01*
X22849Y-28982D01*
X22811Y-28945D01*
X22792Y-28907D01*
X22792Y-28570D02*
X23111Y-28570D01*
X23149Y-28551D01*
X23167Y-28532D01*
X23186Y-28495D01*
X23186Y-28420D01*
X23167Y-28382D01*
X23149Y-28364D01*
X23111Y-28345D01*
X22792Y-28345D01*
X22792Y-28214D02*
X22792Y-27989D01*
X23186Y-28101D02*
X22792Y-28101D01*
X23599Y-29098D02*
X23993Y-28966D01*
X23599Y-28835D01*
X23956Y-28479D02*
X23974Y-28498D01*
X23993Y-28554D01*
X23993Y-28591D01*
X23974Y-28648D01*
X23937Y-28685D01*
X23899Y-28704D01*
X23824Y-28723D01*
X23768Y-28723D01*
X23693Y-28704D01*
X23656Y-28685D01*
X23618Y-28648D01*
X23599Y-28591D01*
X23599Y-28554D01*
X23618Y-28498D01*
X23637Y-28479D01*
X23956Y-28085D02*
X23974Y-28104D01*
X23993Y-28160D01*
X23993Y-28198D01*
X23974Y-28254D01*
X23937Y-28292D01*
X23899Y-28310D01*
X23824Y-28329D01*
X23768Y-28329D01*
X23693Y-28310D01*
X23656Y-28292D01*
X23618Y-28254D01*
X23599Y-28198D01*
X23599Y-28160D01*
X23618Y-28104D01*
X23637Y-28085D01*
G54D11*
X25161Y-22004D02*
X25485Y-22004D01*
X25523Y-21985D01*
X25542Y-21966D01*
X25561Y-21928D01*
X25561Y-21852D01*
X25542Y-21814D01*
X25523Y-21795D01*
X25485Y-21776D01*
X25161Y-21776D01*
X25161Y-21414D02*
X25161Y-21490D01*
X25180Y-21528D01*
X25200Y-21547D01*
X25257Y-21585D01*
X25333Y-21604D01*
X25485Y-21604D01*
X25523Y-21585D01*
X25542Y-21566D01*
X25561Y-21528D01*
X25561Y-21452D01*
X25542Y-21414D01*
X25523Y-21395D01*
X25485Y-21376D01*
X25390Y-21376D01*
X25352Y-21395D01*
X25333Y-21414D01*
X25314Y-21452D01*
X25314Y-21528D01*
X25333Y-21566D01*
X25352Y-21585D01*
X25390Y-21604D01*
G54D12*
X15964Y-22592D02*
X16307Y-22592D01*
X16135Y-23192D02*
X16135Y-22592D01*
X16507Y-22878D02*
X16707Y-22878D01*
X16792Y-23192D02*
X16507Y-23192D01*
X16507Y-22592D01*
X16792Y-22592D01*
X17050Y-22878D02*
X17250Y-22878D01*
X17335Y-23192D02*
X17050Y-23192D01*
X17050Y-22592D01*
X17335Y-22592D01*
X17592Y-23192D02*
X17592Y-22592D01*
X17935Y-23192D01*
X17935Y-22592D01*
X18192Y-23164D02*
X18278Y-23192D01*
X18421Y-23192D01*
X18478Y-23164D01*
X18507Y-23135D01*
X18535Y-23078D01*
X18535Y-23021D01*
X18507Y-22964D01*
X18478Y-22935D01*
X18421Y-22907D01*
X18307Y-22878D01*
X18250Y-22850D01*
X18221Y-22821D01*
X18192Y-22764D01*
X18192Y-22707D01*
X18221Y-22650D01*
X18250Y-22621D01*
X18307Y-22592D01*
X18450Y-22592D01*
X18535Y-22621D01*
X18907Y-22907D02*
X18907Y-23192D01*
X18707Y-22592D02*
X18907Y-22907D01*
X19107Y-22592D01*
X19250Y-22592D02*
X19621Y-22592D01*
X19421Y-22821D01*
X19507Y-22821D01*
X19564Y-22850D01*
X19592Y-22878D01*
X19621Y-22935D01*
X19621Y-23078D01*
X19592Y-23135D01*
X19564Y-23164D01*
X19507Y-23192D01*
X19335Y-23192D01*
X19278Y-23164D01*
X19250Y-23135D01*
X19878Y-23135D02*
X19907Y-23164D01*
X19878Y-23192D01*
X19850Y-23164D01*
X19878Y-23135D01*
X19878Y-23192D01*
X20478Y-23192D02*
X20135Y-23192D01*
X20307Y-23192D02*
X20307Y-22592D01*
X20250Y-22678D01*
X20192Y-22735D01*
X20135Y-22764D01*
G54D11*
X33995Y-30661D02*
X33995Y-30985D01*
X34014Y-31023D01*
X34033Y-31042D01*
X34071Y-31061D01*
X34147Y-31061D01*
X34185Y-31042D01*
X34204Y-31023D01*
X34223Y-30985D01*
X34223Y-30661D01*
X34376Y-30661D02*
X34642Y-30661D01*
X34471Y-31061D01*
X32045Y-31111D02*
X32045Y-31435D01*
X32064Y-31473D01*
X32083Y-31492D01*
X32121Y-31511D01*
X32197Y-31511D01*
X32235Y-31492D01*
X32254Y-31473D01*
X32273Y-31435D01*
X32273Y-31111D01*
X32654Y-31111D02*
X32464Y-31111D01*
X32445Y-31302D01*
X32464Y-31283D01*
X32502Y-31264D01*
X32597Y-31264D01*
X32635Y-31283D01*
X32654Y-31302D01*
X32673Y-31340D01*
X32673Y-31435D01*
X32654Y-31473D01*
X32635Y-31492D01*
X32597Y-31511D01*
X32502Y-31511D01*
X32464Y-31492D01*
X32445Y-31473D01*
X30658Y-32741D02*
X30658Y-32341D01*
X30810Y-32341D01*
X30848Y-32360D01*
X30867Y-32380D01*
X30886Y-32418D01*
X30886Y-32475D01*
X30867Y-32513D01*
X30848Y-32532D01*
X30810Y-32551D01*
X30658Y-32551D01*
X31134Y-32341D02*
X31210Y-32341D01*
X31248Y-32360D01*
X31286Y-32399D01*
X31305Y-32475D01*
X31305Y-32608D01*
X31286Y-32684D01*
X31248Y-32722D01*
X31210Y-32741D01*
X31134Y-32741D01*
X31096Y-32722D01*
X31058Y-32684D01*
X31039Y-32608D01*
X31039Y-32475D01*
X31058Y-32399D01*
X31096Y-32360D01*
X31134Y-32341D01*
X31667Y-32741D02*
X31477Y-32741D01*
X31477Y-32341D01*
X31877Y-32341D02*
X31953Y-32341D01*
X31991Y-32360D01*
X32029Y-32399D01*
X32048Y-32475D01*
X32048Y-32608D01*
X32029Y-32684D01*
X31991Y-32722D01*
X31953Y-32741D01*
X31877Y-32741D01*
X31839Y-32722D01*
X31800Y-32684D01*
X31781Y-32608D01*
X31781Y-32475D01*
X31800Y-32399D01*
X31839Y-32360D01*
X31877Y-32341D01*
X32410Y-32741D02*
X32220Y-32741D01*
X32220Y-32341D01*
X32543Y-32341D02*
X32543Y-32665D01*
X32562Y-32703D01*
X32581Y-32722D01*
X32620Y-32741D01*
X32696Y-32741D01*
X32734Y-32722D01*
X32753Y-32703D01*
X32772Y-32665D01*
X32772Y-32341D01*
X32867Y-32780D02*
X33172Y-32780D01*
X33229Y-32341D02*
X33477Y-32341D01*
X33343Y-32494D01*
X33400Y-32494D01*
X33439Y-32513D01*
X33458Y-32532D01*
X33477Y-32570D01*
X33477Y-32665D01*
X33458Y-32703D01*
X33439Y-32722D01*
X33400Y-32741D01*
X33286Y-32741D01*
X33248Y-32722D01*
X33229Y-32703D01*
X33591Y-32341D02*
X33724Y-32741D01*
X33858Y-32341D01*
X33953Y-32341D02*
X34200Y-32341D01*
X34067Y-32494D01*
X34124Y-32494D01*
X34162Y-32513D01*
X34181Y-32532D01*
X34200Y-32570D01*
X34200Y-32665D01*
X34181Y-32703D01*
X34162Y-32722D01*
X34124Y-32741D01*
X34010Y-32741D01*
X33972Y-32722D01*
X33953Y-32703D01*
G54D10*
X30625Y-35763D02*
X31019Y-35632D01*
X30625Y-35501D01*
X30625Y-35294D02*
X30625Y-35219D01*
X30644Y-35182D01*
X30681Y-35144D01*
X30756Y-35126D01*
X30888Y-35126D01*
X30963Y-35144D01*
X31000Y-35182D01*
X31019Y-35219D01*
X31019Y-35294D01*
X31000Y-35332D01*
X30963Y-35369D01*
X30888Y-35388D01*
X30756Y-35388D01*
X30681Y-35369D01*
X30644Y-35332D01*
X30625Y-35294D01*
X30625Y-34957D02*
X30944Y-34957D01*
X30981Y-34938D01*
X31000Y-34920D01*
X31019Y-34882D01*
X31019Y-34807D01*
X31000Y-34770D01*
X30981Y-34751D01*
X30944Y-34732D01*
X30625Y-34732D01*
X30625Y-34601D02*
X30625Y-34376D01*
X31019Y-34488D02*
X30625Y-34488D01*
X31664Y-35509D02*
X31645Y-35547D01*
X31645Y-35603D01*
X31664Y-35659D01*
X31701Y-35697D01*
X31739Y-35716D01*
X31814Y-35734D01*
X31870Y-35734D01*
X31945Y-35716D01*
X31983Y-35697D01*
X32020Y-35659D01*
X32039Y-35603D01*
X32039Y-35566D01*
X32020Y-35509D01*
X32001Y-35491D01*
X31870Y-35491D01*
X31870Y-35566D01*
X32039Y-35322D02*
X31645Y-35322D01*
X32039Y-35097D01*
X31645Y-35097D01*
X32039Y-34910D02*
X31645Y-34910D01*
X31645Y-34816D01*
X31664Y-34760D01*
X31701Y-34722D01*
X31739Y-34703D01*
X31814Y-34685D01*
X31870Y-34685D01*
X31945Y-34703D01*
X31983Y-34722D01*
X32020Y-34760D01*
X32039Y-34816D01*
X32039Y-34910D01*
X32605Y-35741D02*
X32999Y-35609D01*
X32605Y-35478D01*
X32999Y-35347D02*
X32605Y-35347D01*
X32999Y-35160D02*
X32605Y-35160D01*
X32999Y-34935D01*
X32605Y-34935D01*
X33940Y-35711D02*
X33959Y-35655D01*
X33959Y-35561D01*
X33940Y-35524D01*
X33921Y-35505D01*
X33884Y-35486D01*
X33846Y-35486D01*
X33809Y-35505D01*
X33790Y-35524D01*
X33771Y-35561D01*
X33753Y-35636D01*
X33734Y-35674D01*
X33715Y-35693D01*
X33678Y-35711D01*
X33640Y-35711D01*
X33603Y-35693D01*
X33584Y-35674D01*
X33565Y-35636D01*
X33565Y-35543D01*
X33584Y-35486D01*
X33959Y-35318D02*
X33565Y-35318D01*
X33753Y-35318D02*
X33753Y-35093D01*
X33959Y-35093D02*
X33565Y-35093D01*
X33959Y-34905D02*
X33565Y-34905D01*
X33565Y-34811D01*
X33584Y-34755D01*
X33621Y-34718D01*
X33659Y-34699D01*
X33734Y-34680D01*
X33790Y-34680D01*
X33865Y-34699D01*
X33903Y-34718D01*
X33940Y-34755D01*
X33959Y-34811D01*
X33959Y-34905D01*
X33959Y-34511D02*
X33565Y-34511D01*
X33959Y-34286D01*
X33565Y-34286D01*
X33475Y-35786D02*
X33475Y-34193D01*
G54D11*
X28154Y-37361D02*
X28154Y-36961D01*
X28307Y-36961D01*
X28345Y-36980D01*
X28364Y-37000D01*
X28383Y-37038D01*
X28383Y-37095D01*
X28364Y-37133D01*
X28345Y-37152D01*
X28307Y-37171D01*
X28154Y-37171D01*
X28726Y-37095D02*
X28726Y-37361D01*
X28630Y-36942D02*
X28535Y-37228D01*
X28783Y-37228D01*
X16654Y-16111D02*
X16654Y-15711D01*
X16807Y-15711D01*
X16845Y-15730D01*
X16864Y-15750D01*
X16883Y-15788D01*
X16883Y-15845D01*
X16864Y-15883D01*
X16845Y-15902D01*
X16807Y-15921D01*
X16654Y-15921D01*
X17016Y-15711D02*
X17283Y-15711D01*
X17111Y-16111D01*
X14254Y-16111D02*
X14254Y-15711D01*
X14407Y-15711D01*
X14445Y-15730D01*
X14464Y-15750D01*
X14483Y-15788D01*
X14483Y-15845D01*
X14464Y-15883D01*
X14445Y-15902D01*
X14407Y-15921D01*
X14254Y-15921D01*
X14845Y-15711D02*
X14654Y-15711D01*
X14635Y-15902D01*
X14654Y-15883D01*
X14692Y-15864D01*
X14788Y-15864D01*
X14826Y-15883D01*
X14845Y-15902D01*
X14864Y-15940D01*
X14864Y-16035D01*
X14845Y-16073D01*
X14826Y-16092D01*
X14788Y-16111D01*
X14692Y-16111D01*
X14654Y-16092D01*
X14635Y-16073D01*
X29211Y-31645D02*
X28811Y-31645D01*
X28811Y-31492D01*
X28830Y-31454D01*
X28850Y-31435D01*
X28888Y-31416D01*
X28945Y-31416D01*
X28983Y-31435D01*
X29002Y-31454D01*
X29021Y-31492D01*
X29021Y-31645D01*
X29211Y-31226D02*
X29211Y-31149D01*
X29192Y-31111D01*
X29173Y-31092D01*
X29116Y-31054D01*
X29040Y-31035D01*
X28888Y-31035D01*
X28850Y-31054D01*
X28830Y-31073D01*
X28811Y-31111D01*
X28811Y-31188D01*
X28830Y-31226D01*
X28850Y-31245D01*
X28888Y-31264D01*
X28983Y-31264D01*
X29021Y-31245D01*
X29040Y-31226D01*
X29059Y-31188D01*
X29059Y-31111D01*
X29040Y-31073D01*
X29021Y-31054D01*
X28983Y-31035D01*
X48345Y-30811D02*
X48345Y-31135D01*
X48364Y-31173D01*
X48383Y-31192D01*
X48421Y-31211D01*
X48497Y-31211D01*
X48535Y-31192D01*
X48554Y-31173D01*
X48573Y-31135D01*
X48573Y-30811D01*
X48935Y-30945D02*
X48935Y-31211D01*
X48840Y-30792D02*
X48745Y-31078D01*
X48992Y-31078D01*
G54D12*
X43200Y-33092D02*
X43314Y-33092D01*
X43371Y-33121D01*
X43428Y-33178D01*
X43457Y-33292D01*
X43457Y-33492D01*
X43428Y-33607D01*
X43371Y-33664D01*
X43314Y-33692D01*
X43200Y-33692D01*
X43142Y-33664D01*
X43085Y-33607D01*
X43057Y-33492D01*
X43057Y-33292D01*
X43085Y-33178D01*
X43142Y-33121D01*
X43200Y-33092D01*
X43714Y-33692D02*
X43714Y-33092D01*
X43942Y-33092D01*
X44000Y-33121D01*
X44028Y-33150D01*
X44057Y-33207D01*
X44057Y-33292D01*
X44028Y-33350D01*
X44000Y-33378D01*
X43942Y-33407D01*
X43714Y-33407D01*
X44314Y-33378D02*
X44514Y-33378D01*
X44600Y-33692D02*
X44314Y-33692D01*
X44314Y-33092D01*
X44600Y-33092D01*
X44857Y-33692D02*
X44857Y-33092D01*
X45200Y-33692D01*
X45200Y-33092D01*
X45771Y-33692D02*
X45485Y-33692D01*
X45485Y-33092D01*
X46085Y-33092D02*
X46200Y-33092D01*
X46257Y-33121D01*
X46314Y-33178D01*
X46342Y-33292D01*
X46342Y-33492D01*
X46314Y-33607D01*
X46257Y-33664D01*
X46200Y-33692D01*
X46085Y-33692D01*
X46028Y-33664D01*
X45971Y-33607D01*
X45942Y-33492D01*
X45942Y-33292D01*
X45971Y-33178D01*
X46028Y-33121D01*
X46085Y-33092D01*
X46914Y-33121D02*
X46857Y-33092D01*
X46771Y-33092D01*
X46685Y-33121D01*
X46628Y-33178D01*
X46599Y-33235D01*
X46571Y-33350D01*
X46571Y-33435D01*
X46599Y-33550D01*
X46628Y-33607D01*
X46685Y-33664D01*
X46771Y-33692D01*
X46828Y-33692D01*
X46914Y-33664D01*
X46942Y-33635D01*
X46942Y-33435D01*
X46828Y-33435D01*
G54D10*
X37700Y-32626D02*
X37756Y-32645D01*
X37850Y-32645D01*
X37887Y-32626D01*
X37906Y-32608D01*
X37925Y-32570D01*
X37925Y-32533D01*
X37906Y-32495D01*
X37887Y-32476D01*
X37850Y-32458D01*
X37775Y-32439D01*
X37737Y-32420D01*
X37718Y-32401D01*
X37700Y-32364D01*
X37700Y-32326D01*
X37718Y-32289D01*
X37737Y-32270D01*
X37775Y-32251D01*
X37868Y-32251D01*
X37925Y-32270D01*
X38299Y-32645D02*
X38074Y-32645D01*
X38187Y-32645D02*
X38187Y-32251D01*
X38149Y-32308D01*
X38112Y-32345D01*
X38074Y-32364D01*
G54D11*
X12895Y-30092D02*
X12952Y-30111D01*
X13047Y-30111D01*
X13085Y-30092D01*
X13104Y-30073D01*
X13123Y-30035D01*
X13123Y-29997D01*
X13104Y-29959D01*
X13085Y-29940D01*
X13047Y-29921D01*
X12971Y-29902D01*
X12933Y-29883D01*
X12914Y-29864D01*
X12895Y-29826D01*
X12895Y-29788D01*
X12914Y-29750D01*
X12933Y-29730D01*
X12971Y-29711D01*
X13066Y-29711D01*
X13123Y-29730D01*
X13276Y-29750D02*
X13295Y-29730D01*
X13333Y-29711D01*
X13428Y-29711D01*
X13466Y-29730D01*
X13485Y-29750D01*
X13504Y-29788D01*
X13504Y-29826D01*
X13485Y-29883D01*
X13257Y-30111D01*
X13504Y-30111D01*
X32245Y-29611D02*
X32245Y-29935D01*
X32264Y-29973D01*
X32283Y-29992D01*
X32321Y-30011D01*
X32397Y-30011D01*
X32435Y-29992D01*
X32454Y-29973D01*
X32473Y-29935D01*
X32473Y-29611D01*
X32873Y-30011D02*
X32645Y-30011D01*
X32759Y-30011D02*
X32759Y-29611D01*
X32721Y-29669D01*
X32683Y-29707D01*
X32645Y-29726D01*
G54D12*
X32071Y-22571D02*
X32014Y-22542D01*
X31928Y-22542D01*
X31842Y-22571D01*
X31785Y-22628D01*
X31757Y-22685D01*
X31728Y-22800D01*
X31728Y-22885D01*
X31757Y-23000D01*
X31785Y-23057D01*
X31842Y-23114D01*
X31928Y-23142D01*
X31985Y-23142D01*
X32071Y-23114D01*
X32100Y-23085D01*
X32100Y-22885D01*
X31985Y-22885D01*
X32357Y-23142D02*
X32357Y-22542D01*
X32585Y-22542D01*
X32642Y-22571D01*
X32671Y-22600D01*
X32700Y-22657D01*
X32700Y-22742D01*
X32671Y-22800D01*
X32642Y-22828D01*
X32585Y-22857D01*
X32357Y-22857D01*
X32928Y-23114D02*
X33014Y-23142D01*
X33157Y-23142D01*
X33214Y-23114D01*
X33242Y-23085D01*
X33271Y-23028D01*
X33271Y-22971D01*
X33242Y-22914D01*
X33214Y-22885D01*
X33157Y-22857D01*
X33042Y-22828D01*
X32985Y-22800D01*
X32957Y-22771D01*
X32928Y-22714D01*
X32928Y-22657D01*
X32957Y-22600D01*
X32985Y-22571D01*
X33042Y-22542D01*
X33185Y-22542D01*
X33271Y-22571D01*
G54D10*
X28609Y-18517D02*
X28215Y-18517D01*
X28215Y-18367D01*
X28234Y-18329D01*
X28253Y-18311D01*
X28290Y-18292D01*
X28346Y-18292D01*
X28384Y-18311D01*
X28403Y-18329D01*
X28421Y-18367D01*
X28421Y-18517D01*
X28609Y-18123D02*
X28215Y-18123D01*
X28215Y-17973D01*
X28234Y-17936D01*
X28253Y-17917D01*
X28290Y-17898D01*
X28346Y-17898D01*
X28384Y-17917D01*
X28403Y-17936D01*
X28421Y-17973D01*
X28421Y-18123D01*
X28590Y-17748D02*
X28609Y-17692D01*
X28609Y-17598D01*
X28590Y-17561D01*
X28571Y-17542D01*
X28534Y-17523D01*
X28496Y-17523D01*
X28459Y-17542D01*
X28440Y-17561D01*
X28421Y-17598D01*
X28403Y-17673D01*
X28384Y-17711D01*
X28365Y-17730D01*
X28328Y-17748D01*
X28290Y-17748D01*
X28253Y-17730D01*
X28234Y-17711D01*
X28215Y-17673D01*
X28215Y-17580D01*
X28234Y-17523D01*
X29225Y-18371D02*
X29619Y-18239D01*
X29225Y-18108D01*
X29619Y-17977D02*
X29225Y-17977D01*
X29619Y-17790D02*
X29225Y-17790D01*
X29619Y-17565D01*
X29225Y-17565D01*
X30264Y-18359D02*
X30245Y-18397D01*
X30245Y-18453D01*
X30264Y-18509D01*
X30301Y-18547D01*
X30339Y-18566D01*
X30414Y-18584D01*
X30470Y-18584D01*
X30545Y-18566D01*
X30583Y-18547D01*
X30620Y-18509D01*
X30639Y-18453D01*
X30639Y-18416D01*
X30620Y-18359D01*
X30601Y-18341D01*
X30470Y-18341D01*
X30470Y-18416D01*
X30639Y-18172D02*
X30245Y-18172D01*
X30639Y-17947D01*
X30245Y-17947D01*
X30639Y-17760D02*
X30245Y-17760D01*
X30245Y-17666D01*
X30264Y-17610D01*
X30301Y-17572D01*
X30339Y-17553D01*
X30414Y-17535D01*
X30470Y-17535D01*
X30545Y-17553D01*
X30583Y-17572D01*
X30620Y-17610D01*
X30639Y-17666D01*
X30639Y-17760D01*
X31649Y-17885D02*
X31461Y-18016D01*
X31649Y-18110D02*
X31255Y-18110D01*
X31255Y-17960D01*
X31274Y-17923D01*
X31293Y-17904D01*
X31330Y-17885D01*
X31386Y-17885D01*
X31424Y-17904D01*
X31443Y-17923D01*
X31461Y-17960D01*
X31461Y-18110D01*
X31255Y-17754D02*
X31649Y-17491D01*
X31255Y-17491D02*
X31649Y-17754D01*
X32235Y-18099D02*
X32235Y-17874D01*
X32629Y-17987D02*
X32235Y-17987D01*
X32235Y-17781D02*
X32629Y-17518D01*
X32235Y-17518D02*
X32629Y-17781D01*
X33423Y-18124D02*
X33423Y-18256D01*
X33629Y-18256D02*
X33235Y-18256D01*
X33235Y-18068D01*
X33629Y-17918D02*
X33235Y-17918D01*
X33235Y-17768D02*
X33629Y-17506D01*
X33235Y-17506D02*
X33629Y-17768D01*
X34235Y-18806D02*
X34629Y-18675D01*
X34235Y-18544D01*
X34423Y-18281D02*
X34441Y-18225D01*
X34460Y-18206D01*
X34498Y-18188D01*
X34554Y-18188D01*
X34591Y-18206D01*
X34610Y-18225D01*
X34629Y-18263D01*
X34629Y-18413D01*
X34235Y-18413D01*
X34235Y-18281D01*
X34254Y-18244D01*
X34273Y-18225D01*
X34310Y-18206D01*
X34348Y-18206D01*
X34385Y-18225D01*
X34404Y-18244D01*
X34423Y-18281D01*
X34423Y-18413D01*
X34516Y-18038D02*
X34516Y-17850D01*
X34629Y-18075D02*
X34235Y-17944D01*
X34629Y-17813D01*
X34235Y-17738D02*
X34235Y-17513D01*
X34629Y-17625D02*
X34235Y-17625D01*
X35433Y-18160D02*
X35433Y-18029D01*
X35639Y-17973D02*
X35639Y-18160D01*
X35245Y-18160D01*
X35245Y-17973D01*
X35639Y-17804D02*
X35245Y-17804D01*
X35639Y-17579D01*
X35245Y-17579D01*
X36225Y-18477D02*
X36225Y-18233D01*
X36375Y-18364D01*
X36375Y-18308D01*
X36394Y-18271D01*
X36413Y-18252D01*
X36450Y-18233D01*
X36544Y-18233D01*
X36581Y-18252D01*
X36600Y-18271D01*
X36619Y-18308D01*
X36619Y-18421D01*
X36600Y-18458D01*
X36581Y-18477D01*
X36225Y-18121D02*
X36619Y-17990D01*
X36225Y-17858D01*
X36225Y-17765D02*
X36225Y-17521D01*
X36375Y-17652D01*
X36375Y-17596D01*
X36394Y-17558D01*
X36413Y-17540D01*
X36450Y-17521D01*
X36544Y-17521D01*
X36581Y-17540D01*
X36600Y-17558D01*
X36619Y-17596D01*
X36619Y-17708D01*
X36600Y-17746D01*
X36581Y-17765D01*
G54D11*
X39961Y-23304D02*
X40285Y-23304D01*
X40323Y-23285D01*
X40342Y-23266D01*
X40361Y-23228D01*
X40361Y-23152D01*
X40342Y-23114D01*
X40323Y-23095D01*
X40285Y-23076D01*
X39961Y-23076D01*
X39961Y-22923D02*
X39961Y-22676D01*
X40114Y-22809D01*
X40114Y-22752D01*
X40133Y-22714D01*
X40152Y-22695D01*
X40190Y-22676D01*
X40285Y-22676D01*
X40323Y-22695D01*
X40342Y-22714D01*
X40361Y-22752D01*
X40361Y-22866D01*
X40342Y-22904D01*
X40323Y-22923D01*
G54D12*
X46142Y-23414D02*
X46142Y-23700D01*
X45542Y-23700D01*
X46085Y-22871D02*
X46114Y-22900D01*
X46142Y-22985D01*
X46142Y-23042D01*
X46114Y-23128D01*
X46057Y-23185D01*
X46000Y-23214D01*
X45885Y-23242D01*
X45800Y-23242D01*
X45685Y-23214D01*
X45628Y-23185D01*
X45571Y-23128D01*
X45542Y-23042D01*
X45542Y-22985D01*
X45571Y-22900D01*
X45600Y-22871D01*
X46142Y-22614D02*
X45542Y-22614D01*
X45542Y-22471D01*
X45571Y-22385D01*
X45628Y-22328D01*
X45685Y-22300D01*
X45800Y-22271D01*
X45885Y-22271D01*
X46000Y-22300D01*
X46057Y-22328D01*
X46114Y-22385D01*
X46142Y-22471D01*
X46142Y-22614D01*
G54D10*
X49560Y-26344D02*
X49522Y-26325D01*
X49466Y-26325D01*
X49410Y-26344D01*
X49372Y-26381D01*
X49353Y-26419D01*
X49335Y-26494D01*
X49335Y-26550D01*
X49353Y-26625D01*
X49372Y-26663D01*
X49410Y-26700D01*
X49466Y-26719D01*
X49503Y-26719D01*
X49560Y-26700D01*
X49578Y-26681D01*
X49578Y-26550D01*
X49503Y-26550D01*
X49747Y-26719D02*
X49747Y-26325D01*
X49972Y-26719D01*
X49972Y-26325D01*
X50159Y-26719D02*
X50159Y-26325D01*
X50253Y-26325D01*
X50309Y-26344D01*
X50347Y-26381D01*
X50366Y-26419D01*
X50384Y-26494D01*
X50384Y-26550D01*
X50366Y-26625D01*
X50347Y-26663D01*
X50309Y-26700D01*
X50253Y-26719D01*
X50159Y-26719D01*
X49528Y-25315D02*
X49660Y-25709D01*
X49791Y-25315D01*
X49922Y-25709D02*
X49922Y-25315D01*
X50109Y-25709D02*
X50109Y-25315D01*
X50334Y-25709D01*
X50334Y-25315D01*
X49412Y-24325D02*
X49656Y-24325D01*
X49525Y-24475D01*
X49581Y-24475D01*
X49618Y-24494D01*
X49637Y-24513D01*
X49656Y-24550D01*
X49656Y-24644D01*
X49637Y-24681D01*
X49618Y-24700D01*
X49581Y-24719D01*
X49468Y-24719D01*
X49431Y-24700D01*
X49412Y-24681D01*
X49768Y-24325D02*
X49900Y-24719D01*
X50031Y-24325D01*
X50124Y-24325D02*
X50368Y-24325D01*
X50237Y-24475D01*
X50293Y-24475D01*
X50331Y-24494D01*
X50349Y-24513D01*
X50368Y-24550D01*
X50368Y-24644D01*
X50349Y-24681D01*
X50331Y-24700D01*
X50293Y-24719D01*
X50181Y-24719D01*
X50143Y-24700D01*
X50124Y-24681D01*
X49974Y-23671D02*
X49955Y-23690D01*
X49899Y-23709D01*
X49861Y-23709D01*
X49805Y-23690D01*
X49768Y-23653D01*
X49749Y-23615D01*
X49730Y-23540D01*
X49730Y-23484D01*
X49749Y-23409D01*
X49768Y-23371D01*
X49805Y-23334D01*
X49861Y-23315D01*
X49899Y-23315D01*
X49955Y-23334D01*
X49974Y-23353D01*
X50124Y-23690D02*
X50180Y-23709D01*
X50274Y-23709D01*
X50311Y-23690D01*
X50330Y-23671D01*
X50349Y-23634D01*
X50349Y-23596D01*
X50330Y-23559D01*
X50311Y-23540D01*
X50274Y-23521D01*
X50199Y-23503D01*
X50161Y-23484D01*
X50143Y-23465D01*
X50124Y-23428D01*
X50124Y-23390D01*
X50143Y-23353D01*
X50161Y-23334D01*
X50199Y-23315D01*
X50293Y-23315D01*
X50349Y-23334D01*
X49694Y-22719D02*
X49563Y-22531D01*
X49469Y-22719D02*
X49469Y-22325D01*
X49619Y-22325D01*
X49656Y-22344D01*
X49675Y-22363D01*
X49694Y-22400D01*
X49694Y-22456D01*
X49675Y-22494D01*
X49656Y-22513D01*
X49619Y-22531D01*
X49469Y-22531D01*
X49844Y-22700D02*
X49900Y-22719D01*
X49994Y-22719D01*
X50031Y-22700D01*
X50050Y-22681D01*
X50069Y-22644D01*
X50069Y-22606D01*
X50050Y-22569D01*
X50031Y-22550D01*
X49994Y-22531D01*
X49919Y-22513D01*
X49881Y-22494D01*
X49863Y-22475D01*
X49844Y-22438D01*
X49844Y-22400D01*
X49863Y-22363D01*
X49881Y-22344D01*
X49919Y-22325D01*
X50013Y-22325D01*
X50069Y-22344D01*
X50181Y-22325D02*
X50406Y-22325D01*
X50294Y-22719D02*
X50294Y-22325D01*
X49730Y-21709D02*
X49730Y-21315D01*
X49823Y-21315D01*
X49880Y-21334D01*
X49917Y-21371D01*
X49936Y-21409D01*
X49955Y-21484D01*
X49955Y-21540D01*
X49936Y-21615D01*
X49917Y-21653D01*
X49880Y-21690D01*
X49823Y-21709D01*
X49730Y-21709D01*
X50348Y-21671D02*
X50329Y-21690D01*
X50273Y-21709D01*
X50236Y-21709D01*
X50179Y-21690D01*
X50142Y-21653D01*
X50123Y-21615D01*
X50104Y-21540D01*
X50104Y-21484D01*
X50123Y-21409D01*
X50142Y-21371D01*
X50179Y-21334D01*
X50236Y-21315D01*
X50273Y-21315D01*
X50329Y-21334D01*
X50348Y-21353D01*
X49665Y-20671D02*
X49646Y-20690D01*
X49590Y-20709D01*
X49553Y-20709D01*
X49496Y-20690D01*
X49459Y-20653D01*
X49440Y-20615D01*
X49421Y-20540D01*
X49421Y-20484D01*
X49440Y-20409D01*
X49459Y-20371D01*
X49496Y-20334D01*
X49553Y-20315D01*
X49590Y-20315D01*
X49646Y-20334D01*
X49665Y-20353D01*
X50021Y-20709D02*
X49834Y-20709D01*
X49834Y-20315D01*
X50153Y-20709D02*
X50153Y-20315D01*
X50378Y-20709D02*
X50209Y-20484D01*
X50378Y-20315D02*
X50153Y-20540D01*
X49169Y-19689D02*
X49169Y-19295D01*
X49263Y-19295D01*
X49319Y-19314D01*
X49356Y-19351D01*
X49375Y-19389D01*
X49394Y-19464D01*
X49394Y-19520D01*
X49375Y-19595D01*
X49356Y-19633D01*
X49319Y-19670D01*
X49263Y-19689D01*
X49169Y-19689D01*
X49544Y-19576D02*
X49731Y-19576D01*
X49506Y-19689D02*
X49638Y-19295D01*
X49769Y-19689D01*
X49844Y-19295D02*
X50069Y-19295D01*
X49956Y-19689D02*
X49956Y-19295D01*
X50181Y-19576D02*
X50369Y-19576D01*
X50144Y-19689D02*
X50275Y-19295D01*
X50406Y-19689D01*
G54D11*
X38004Y-15061D02*
X38004Y-14661D01*
X38157Y-14661D01*
X38195Y-14680D01*
X38214Y-14700D01*
X38233Y-14738D01*
X38233Y-14795D01*
X38214Y-14833D01*
X38195Y-14852D01*
X38157Y-14871D01*
X38004Y-14871D01*
X38366Y-14661D02*
X38614Y-14661D01*
X38480Y-14814D01*
X38538Y-14814D01*
X38576Y-14833D01*
X38595Y-14852D01*
X38614Y-14890D01*
X38614Y-14985D01*
X38595Y-15023D01*
X38576Y-15042D01*
X38538Y-15061D01*
X38423Y-15061D01*
X38385Y-15042D01*
X38366Y-15023D01*
X45873Y-11386D02*
X45645Y-11386D01*
X45759Y-11386D02*
X45759Y-10986D01*
X45721Y-11044D01*
X45683Y-11082D01*
X45645Y-11101D01*
X46216Y-11120D02*
X46216Y-11386D01*
X46121Y-10967D02*
X46026Y-11253D01*
X46273Y-11253D01*
X45998Y-14036D02*
X45770Y-14036D01*
X45884Y-14036D02*
X45884Y-13636D01*
X45846Y-13694D01*
X45808Y-13732D01*
X45770Y-13751D01*
X46132Y-13636D02*
X46379Y-13636D01*
X46246Y-13789D01*
X46303Y-13789D01*
X46341Y-13808D01*
X46360Y-13827D01*
X46379Y-13865D01*
X46379Y-13960D01*
X46360Y-13998D01*
X46341Y-14017D01*
X46303Y-14036D01*
X46189Y-14036D01*
X46151Y-14017D01*
X46132Y-13998D01*
X39877Y-11040D02*
X39896Y-11020D01*
X39934Y-11001D01*
X40030Y-11001D01*
X40068Y-11020D01*
X40087Y-11040D01*
X40106Y-11078D01*
X40106Y-11116D01*
X40087Y-11173D01*
X39858Y-11401D01*
X40106Y-11401D01*
X14454Y-15011D02*
X14454Y-14611D01*
X14607Y-14611D01*
X14645Y-14630D01*
X14664Y-14650D01*
X14683Y-14688D01*
X14683Y-14745D01*
X14664Y-14783D01*
X14645Y-14802D01*
X14607Y-14821D01*
X14454Y-14821D01*
X14835Y-14650D02*
X14854Y-14630D01*
X14892Y-14611D01*
X14988Y-14611D01*
X15026Y-14630D01*
X15045Y-14650D01*
X15064Y-14688D01*
X15064Y-14726D01*
X15045Y-14783D01*
X14816Y-15011D01*
X15064Y-15011D01*
X20352Y-11401D02*
X20124Y-11401D01*
X20238Y-11401D02*
X20238Y-11001D01*
X20200Y-11059D01*
X20162Y-11097D01*
X20124Y-11116D01*
X20600Y-11001D02*
X20638Y-11001D01*
X20676Y-11020D01*
X20695Y-11040D01*
X20714Y-11078D01*
X20733Y-11154D01*
X20733Y-11249D01*
X20714Y-11325D01*
X20695Y-11363D01*
X20676Y-11382D01*
X20638Y-11401D01*
X20600Y-11401D01*
X20562Y-11382D01*
X20543Y-11363D01*
X20524Y-11325D01*
X20505Y-11249D01*
X20505Y-11154D01*
X20524Y-11078D01*
X20543Y-11040D01*
X20562Y-11020D01*
X20600Y-11001D01*
X20470Y-14039D02*
X20547Y-14039D01*
X20585Y-14020D01*
X20604Y-14001D01*
X20642Y-13944D01*
X20661Y-13868D01*
X20661Y-13716D01*
X20642Y-13678D01*
X20623Y-13658D01*
X20585Y-13639D01*
X20508Y-13639D01*
X20470Y-13658D01*
X20451Y-13678D01*
X20432Y-13716D01*
X20432Y-13811D01*
X20451Y-13849D01*
X20470Y-13868D01*
X20508Y-13887D01*
X20585Y-13887D01*
X20623Y-13868D01*
X20642Y-13849D01*
X20661Y-13811D01*
X16377Y-11040D02*
X16396Y-11020D01*
X16434Y-11001D01*
X16530Y-11001D01*
X16568Y-11020D01*
X16587Y-11040D01*
X16606Y-11078D01*
X16606Y-11116D01*
X16587Y-11173D01*
X16358Y-11401D01*
X16606Y-11401D01*
X23004Y-15011D02*
X23004Y-14611D01*
X23157Y-14611D01*
X23195Y-14630D01*
X23214Y-14650D01*
X23233Y-14688D01*
X23233Y-14745D01*
X23214Y-14783D01*
X23195Y-14802D01*
X23157Y-14821D01*
X23004Y-14821D01*
X23614Y-15011D02*
X23385Y-15011D01*
X23500Y-15011D02*
X23500Y-14611D01*
X23461Y-14669D01*
X23423Y-14707D01*
X23385Y-14726D01*
X28852Y-11401D02*
X28624Y-11401D01*
X28738Y-11401D02*
X28738Y-11001D01*
X28700Y-11059D01*
X28662Y-11097D01*
X28624Y-11116D01*
X29100Y-11001D02*
X29138Y-11001D01*
X29176Y-11020D01*
X29195Y-11040D01*
X29214Y-11078D01*
X29233Y-11154D01*
X29233Y-11249D01*
X29214Y-11325D01*
X29195Y-11363D01*
X29176Y-11382D01*
X29138Y-11401D01*
X29100Y-11401D01*
X29062Y-11382D01*
X29043Y-11363D01*
X29024Y-11325D01*
X29005Y-11249D01*
X29005Y-11154D01*
X29024Y-11078D01*
X29043Y-11040D01*
X29062Y-11020D01*
X29100Y-11001D01*
X28970Y-14039D02*
X29047Y-14039D01*
X29085Y-14020D01*
X29104Y-14001D01*
X29142Y-13944D01*
X29161Y-13868D01*
X29161Y-13716D01*
X29142Y-13678D01*
X29123Y-13658D01*
X29085Y-13639D01*
X29008Y-13639D01*
X28970Y-13658D01*
X28951Y-13678D01*
X28932Y-13716D01*
X28932Y-13811D01*
X28951Y-13849D01*
X28970Y-13868D01*
X29008Y-13887D01*
X29085Y-13887D01*
X29123Y-13868D01*
X29142Y-13849D01*
X29161Y-13811D01*
X24877Y-11040D02*
X24896Y-11020D01*
X24934Y-11001D01*
X25030Y-11001D01*
X25068Y-11020D01*
X25087Y-11040D01*
X25106Y-11078D01*
X25106Y-11116D01*
X25087Y-11173D01*
X24858Y-11401D01*
X25106Y-11401D01*
X31504Y-15011D02*
X31504Y-14611D01*
X31657Y-14611D01*
X31695Y-14630D01*
X31714Y-14650D01*
X31733Y-14688D01*
X31733Y-14745D01*
X31714Y-14783D01*
X31695Y-14802D01*
X31657Y-14821D01*
X31504Y-14821D01*
X31961Y-14783D02*
X31923Y-14764D01*
X31904Y-14745D01*
X31885Y-14707D01*
X31885Y-14688D01*
X31904Y-14650D01*
X31923Y-14630D01*
X31961Y-14611D01*
X32038Y-14611D01*
X32076Y-14630D01*
X32095Y-14650D01*
X32114Y-14688D01*
X32114Y-14707D01*
X32095Y-14745D01*
X32076Y-14764D01*
X32038Y-14783D01*
X31961Y-14783D01*
X31923Y-14802D01*
X31904Y-14821D01*
X31885Y-14859D01*
X31885Y-14935D01*
X31904Y-14973D01*
X31923Y-14992D01*
X31961Y-15011D01*
X32038Y-15011D01*
X32076Y-14992D01*
X32095Y-14973D01*
X32114Y-14935D01*
X32114Y-14859D01*
X32095Y-14821D01*
X32076Y-14802D01*
X32038Y-14783D01*
X35601Y-10986D02*
X35525Y-10986D01*
X35486Y-11005D01*
X35467Y-11025D01*
X35429Y-11082D01*
X35410Y-11158D01*
X35410Y-11310D01*
X35429Y-11348D01*
X35448Y-11367D01*
X35486Y-11386D01*
X35563Y-11386D01*
X35601Y-11367D01*
X35620Y-11348D01*
X35639Y-11310D01*
X35639Y-11215D01*
X35620Y-11177D01*
X35601Y-11158D01*
X35563Y-11139D01*
X35486Y-11139D01*
X35448Y-11158D01*
X35429Y-11177D01*
X35410Y-11215D01*
X35645Y-13636D02*
X35454Y-13636D01*
X35435Y-13827D01*
X35454Y-13808D01*
X35492Y-13789D01*
X35588Y-13789D01*
X35626Y-13808D01*
X35645Y-13827D01*
X35664Y-13865D01*
X35664Y-13960D01*
X35645Y-13998D01*
X35626Y-14017D01*
X35588Y-14036D01*
X35492Y-14036D01*
X35454Y-14017D01*
X35435Y-13998D01*
X33377Y-11040D02*
X33396Y-11020D01*
X33434Y-11001D01*
X33530Y-11001D01*
X33568Y-11020D01*
X33587Y-11040D01*
X33606Y-11078D01*
X33606Y-11116D01*
X33587Y-11173D01*
X33358Y-11401D01*
X33606Y-11401D01*
X10454Y-17861D02*
X10454Y-17461D01*
X10607Y-17461D01*
X10645Y-17480D01*
X10664Y-17500D01*
X10683Y-17538D01*
X10683Y-17595D01*
X10664Y-17633D01*
X10645Y-17652D01*
X10607Y-17671D01*
X10454Y-17671D01*
X11026Y-17461D02*
X10950Y-17461D01*
X10911Y-17480D01*
X10892Y-17500D01*
X10854Y-17557D01*
X10835Y-17633D01*
X10835Y-17785D01*
X10854Y-17823D01*
X10873Y-17842D01*
X10911Y-17861D01*
X10988Y-17861D01*
X11026Y-17842D01*
X11045Y-17823D01*
X11064Y-17785D01*
X11064Y-17690D01*
X11045Y-17652D01*
X11026Y-17633D01*
X10988Y-17614D01*
X10911Y-17614D01*
X10873Y-17633D01*
X10854Y-17652D01*
X10835Y-17690D01*
M02*
