M48
;DRILL file {Pcbnew (2013-jul-07)-stable} date Wed 25 Feb 2015 12:47:57 PM PST
;FORMAT={-:-/ absolute / inch / decimal}
FMAT,2
INCH,TZ
T1C0.025
T2C0.028
T3C0.035
T4C0.035
T5C0.039
T6C0.039
T7C0.040
T8C0.047
T9C0.098
T10C0.116
%
G90
G05
M72
T1
X1.6116Y-2.4364
X1.9319Y-2.0339
X2.0965Y-1.414
X2.3143Y-2.8637
X2.4604Y-2.9978
X2.4639Y-2.9527
X2.5049Y-1.9696
X2.5087Y-1.8811
X2.5134Y-3.0336
X2.6583Y-1.1354
X2.7424Y-1.7597
X3.0201Y-2.4725
X3.1231Y-2.4621
X3.1831Y-2.5091
X3.4347Y-2.0664
T2
X2.8346Y-2.7559
X2.8346Y-3.622
X2.9134Y-2.7559
X2.9134Y-3.622
X2.9921Y-2.7559
X2.9921Y-3.622
X3.0709Y-2.7559
X3.0709Y-3.622
X3.1496Y-2.7559
X3.1496Y-3.622
X3.2283Y-2.7559
X3.2283Y-3.622
X3.3071Y-2.7559
X3.3071Y-3.622
X3.3858Y-2.7559
X3.3858Y-3.622
X3.4646Y-2.7559
X3.4646Y-3.622
X3.5433Y-2.7559
X3.5433Y-3.622
T3
X1.14Y-2.182
X1.14Y-2.28
X1.14Y-2.378
X1.27Y-2.182
X1.27Y-2.28
X1.27Y-2.378
T4
X1.7375Y-1.1656
X1.7375Y-1.2444
X1.8163Y-1.1656
X1.8163Y-1.2444
X1.895Y-1.1656
X1.895Y-1.2444
X1.9737Y-1.1656
X1.9737Y-1.2444
X2.0525Y-1.1656
X2.0525Y-1.2444
X2.2925Y-1.1656
X2.2925Y-1.2444
X2.3713Y-1.1656
X2.3713Y-1.2444
X2.45Y-1.1656
X2.45Y-1.2444
X2.5287Y-1.1656
X2.5287Y-1.2444
X2.6075Y-1.1656
X2.6075Y-1.2444
T5
X1.4961Y-1.5157
X1.4961Y-1.7126
X1.6142Y-1.5157
X1.6142Y-1.7126
X1.7323Y-1.5157
X1.7323Y-1.7126
X1.8504Y-1.5157
X1.8504Y-1.7126
X1.9685Y-1.5157
X1.9685Y-1.7126
X2.0866Y-1.5157
X2.0866Y-1.7126
X2.2047Y-1.5157
X2.2047Y-1.7126
X2.3228Y-1.5157
X2.3228Y-1.7126
X2.4409Y-1.5157
X2.4409Y-1.7126
X2.5591Y-1.5157
X2.5591Y-1.7126
X2.6772Y-1.5157
X2.6772Y-1.7126
X2.8346Y-1.3976
X2.8346Y-1.5945
X2.8346Y-1.7913
X2.8346Y-1.9882
X2.9528Y-1.3976
X2.9528Y-1.5945
X2.9528Y-1.7913
X2.9528Y-1.9882
X3.0709Y-1.3976
X3.0709Y-1.5945
X3.0709Y-1.7913
X3.0709Y-1.9882
X3.189Y-1.3976
X3.189Y-1.5945
X3.189Y-1.7913
X3.189Y-1.9882
X3.3071Y-1.3976
X3.3071Y-1.5945
X3.3071Y-1.7913
X3.3071Y-1.9882
X3.4252Y-1.3976
X3.4252Y-1.5945
X3.4252Y-1.7913
X3.4252Y-1.9882
X3.5433Y-1.3976
X3.5433Y-1.5945
X4.2067Y-3.5039
X4.6122Y-3.5039
T6
X1.15Y-1.5011
X1.15Y-1.6389
T7
X1.145Y-1.925
X1.145Y-2.525
X1.245Y-1.925
X1.245Y-2.025
X1.245Y-2.525
X1.345Y-1.925
X1.345Y-2.525
X1.445Y-1.925
X1.445Y-2.025
X1.445Y-2.525
X1.485Y-1.15
X1.485Y-1.25
X1.5Y-3.51
X1.5Y-3.61
X1.545Y-1.925
X1.545Y-2.025
X1.545Y-2.525
X1.645Y-1.925
X1.645Y-2.025
X1.645Y-2.525
X1.73Y-3.51
X1.73Y-3.61
X1.745Y-1.925
X1.745Y-2.125
X1.745Y-2.225
X1.745Y-2.525
X1.77Y-2.765
X1.77Y-2.865
X1.77Y-2.965
X1.77Y-3.065
X1.77Y-3.165
X1.77Y-3.265
X1.83Y-3.51
X1.83Y-3.61
X1.845Y-1.925
X1.845Y-2.125
X1.845Y-2.225
X1.845Y-2.525
X1.945Y-1.925
X1.945Y-2.125
X1.945Y-2.225
X1.945Y-2.525
X2.045Y-1.925
X2.045Y-2.125
X2.045Y-2.225
X2.045Y-2.525
X2.055Y-2.765
X2.08Y-3.51
X2.08Y-3.61
X2.145Y-1.925
X2.145Y-2.125
X2.145Y-2.225
X2.145Y-2.525
X2.155Y-2.765
X2.245Y-1.925
X2.245Y-2.125
X2.245Y-2.225
X2.245Y-2.525
X2.255Y-2.765
X2.32Y-3.51
X2.32Y-3.61
X2.345Y-1.925
X2.345Y-2.125
X2.345Y-2.225
X2.345Y-2.525
X2.355Y-2.765
X2.445Y-1.925
X2.445Y-2.025
X2.445Y-2.125
X2.445Y-2.225
X2.445Y-2.325
X2.445Y-2.425
X2.445Y-2.525
X2.8677Y-2.4016
X2.9677Y-2.4016
X3.0677Y-2.4016
X3.1677Y-2.4016
X3.2677Y-2.4016
X3.3677Y-2.4016
X3.4677Y-2.4016
X3.5677Y-2.4016
X3.6677Y-2.4016
X4.145Y-1.205
X4.145Y-1.305
X4.1594Y-3.1496
X4.245Y-1.205
X4.245Y-1.305
X4.2594Y-3.1496
X4.345Y-1.205
X4.345Y-1.305
X4.3594Y-3.1496
X4.445Y-1.205
X4.445Y-1.305
X4.4594Y-3.1496
X4.545Y-1.205
X4.545Y-1.305
X4.5594Y-3.1496
X4.6594Y-3.1496
X5.1Y-1.95
X5.1Y-2.05
X5.1Y-2.15
X5.1Y-2.25
X5.1Y-2.35
X5.1Y-2.45
X5.1Y-2.55
X5.1Y-2.65
T8
X4.2067Y-3.3583
X4.2071Y-3.6142
X4.6122Y-3.3583
X4.6122Y-3.6142
T9
X2.8677Y-1.2456
X3.6677Y-1.2456
X3.941Y-1.729
X3.941Y-2.871
X5.103Y-1.729
X5.103Y-2.871
T10
X1.25Y-1.25
X1.25Y-3.5
X5.Y-1.25
X5.Y-3.5
T0
M30
