G04 (created by PCBNEW (2013-jul-07)-stable) date Tue 28 Apr 2015 09:29:23 AM PDT*
%MOIN*%
G04 Gerber Fmt 3.4, Leading zero omitted, Abs format*
%FSLAX34Y34*%
G01*
G70*
G90*
G04 APERTURE LIST*
%ADD10C,0.00590551*%
%ADD11C,0.0511811*%
%ADD12C,0.06*%
%ADD13R,0.06X0.06*%
%ADD14C,0.0629921*%
%ADD15C,0.0708661*%
%ADD16C,0.065*%
%ADD17C,0.13*%
%ADD18C,0.07*%
%ADD19C,0.125*%
%ADD20R,0.063X0.063*%
%ADD21C,0.063*%
%ADD22R,0.07X0.07*%
%ADD23C,0.0590551*%
%ADD24C,0.0492126*%
%ADD25C,0.15*%
%ADD26C,0.035*%
%ADD27C,0.03*%
%ADD28C,0.01*%
G04 APERTURE END LIST*
G54D10*
G54D11*
X35728Y-28051D03*
X34940Y-28051D03*
X34153Y-28051D03*
X33366Y-28051D03*
X32578Y-28051D03*
X31791Y-28051D03*
X31003Y-28051D03*
X30216Y-28051D03*
X29429Y-28051D03*
X28641Y-28051D03*
X28641Y-36712D03*
X29429Y-36712D03*
X30216Y-36712D03*
X31003Y-36712D03*
X31791Y-36712D03*
X32578Y-36712D03*
X33366Y-36712D03*
X34153Y-36712D03*
X34940Y-36712D03*
X35728Y-36712D03*
G54D12*
X41594Y-31496D03*
X42594Y-31496D03*
X43594Y-31496D03*
X44594Y-31496D03*
X45594Y-31496D03*
X46594Y-31496D03*
X20550Y-27650D03*
X21550Y-27650D03*
X22550Y-27650D03*
X23550Y-27650D03*
G54D13*
X17807Y-35100D03*
G54D12*
X17807Y-36100D03*
X16807Y-35100D03*
X16807Y-36100D03*
G54D13*
X21920Y-35100D03*
G54D12*
X21920Y-36100D03*
G54D13*
X23818Y-35129D03*
G54D12*
X23818Y-36129D03*
G54D13*
X19815Y-35100D03*
G54D12*
X19815Y-36100D03*
X17700Y-27650D03*
X17700Y-28650D03*
X17700Y-29650D03*
X17700Y-30650D03*
X17700Y-31650D03*
X17700Y-32650D03*
G54D14*
X42066Y-35039D03*
X46122Y-35039D03*
G54D15*
X42066Y-33582D03*
X42070Y-36141D03*
X46122Y-33582D03*
X46122Y-36141D03*
G54D16*
X12700Y-23780D03*
X12700Y-22800D03*
X12700Y-21820D03*
X11400Y-21820D03*
X11400Y-22800D03*
X11400Y-23780D03*
X28618Y-26043D03*
X29618Y-26043D03*
X30618Y-26043D03*
X31618Y-26043D03*
X32618Y-26043D03*
X33618Y-26043D03*
X34618Y-26043D03*
X35618Y-26043D03*
G54D17*
X28618Y-14483D03*
X36618Y-14483D03*
G54D16*
X36618Y-26043D03*
G54D18*
X51000Y-19500D03*
X51000Y-20500D03*
X51000Y-21500D03*
X51000Y-22500D03*
X51000Y-23500D03*
X51000Y-24500D03*
X51000Y-25500D03*
X51000Y-26500D03*
G54D19*
X51030Y-17290D03*
X51030Y-28710D03*
X39410Y-17290D03*
X39410Y-28710D03*
G54D20*
X11500Y-15011D03*
G54D21*
X11500Y-16389D03*
G54D13*
X15000Y-35100D03*
G54D12*
X15000Y-36100D03*
G54D22*
X41450Y-13050D03*
G54D18*
X41450Y-12050D03*
X42450Y-13050D03*
X42450Y-12050D03*
X43450Y-13050D03*
X43450Y-12050D03*
X44450Y-13050D03*
X44450Y-12050D03*
X45450Y-13050D03*
X45450Y-12050D03*
G54D12*
X11450Y-25250D03*
X12450Y-25250D03*
X13450Y-25250D03*
X14450Y-25250D03*
X15450Y-25250D03*
X16450Y-25250D03*
X17450Y-25250D03*
X18450Y-25250D03*
X19450Y-25250D03*
X20450Y-25250D03*
X21450Y-25250D03*
X22450Y-25250D03*
X23450Y-25250D03*
X24450Y-25250D03*
X24450Y-24250D03*
X24450Y-23250D03*
X24450Y-22250D03*
X24450Y-21250D03*
X24450Y-20250D03*
X24450Y-19250D03*
X23450Y-19250D03*
X22450Y-19250D03*
X21450Y-19250D03*
X20450Y-19250D03*
X19450Y-19250D03*
X18450Y-19250D03*
X17450Y-19250D03*
X16450Y-19250D03*
X15450Y-19250D03*
X14450Y-19250D03*
X13450Y-19250D03*
X12450Y-19250D03*
X11450Y-19250D03*
X17450Y-22250D03*
X18450Y-22250D03*
X19450Y-22250D03*
X20450Y-22250D03*
X21450Y-22250D03*
X22450Y-22250D03*
X23450Y-22250D03*
X23450Y-21250D03*
X22450Y-21250D03*
X21450Y-21250D03*
X20450Y-21250D03*
X19450Y-21250D03*
X18450Y-21250D03*
X17450Y-21250D03*
X16450Y-20250D03*
X15450Y-20250D03*
X14450Y-20250D03*
X12450Y-20250D03*
G54D23*
X16141Y-15157D03*
X16141Y-17125D03*
X17322Y-15157D03*
X17322Y-17125D03*
X18503Y-15157D03*
X18503Y-17125D03*
X19685Y-15157D03*
X19685Y-17125D03*
X20866Y-15157D03*
X20866Y-17125D03*
X22047Y-15157D03*
X22047Y-17125D03*
X23228Y-15157D03*
X23228Y-17125D03*
X24409Y-15157D03*
X24409Y-17125D03*
X25590Y-15157D03*
X25590Y-17125D03*
X26771Y-15157D03*
X26771Y-17125D03*
X28937Y-16141D03*
X28937Y-18110D03*
X14960Y-15157D03*
X14960Y-17125D03*
X31299Y-16141D03*
X31299Y-18110D03*
X32480Y-16141D03*
X32480Y-18110D03*
X33661Y-16141D03*
X33661Y-18110D03*
X34842Y-16141D03*
X34842Y-18110D03*
X36023Y-16141D03*
X36023Y-18110D03*
X28937Y-20078D03*
X28937Y-22047D03*
X30118Y-20078D03*
X30118Y-22047D03*
X31299Y-20078D03*
X31299Y-22047D03*
X32480Y-20078D03*
X32480Y-22047D03*
X33661Y-20078D03*
X33661Y-22047D03*
X34842Y-20078D03*
X34842Y-22047D03*
X30118Y-16141D03*
X30118Y-18110D03*
G54D24*
X22539Y-12401D03*
X22539Y-11614D03*
X23326Y-12401D03*
X23326Y-11614D03*
X24114Y-12401D03*
X24114Y-11614D03*
X24901Y-12401D03*
X24901Y-11614D03*
X25688Y-12401D03*
X25688Y-11614D03*
X15452Y-12401D03*
X15452Y-11614D03*
X16240Y-12401D03*
X16240Y-11614D03*
X17027Y-12401D03*
X17027Y-11614D03*
X17814Y-12401D03*
X17814Y-11614D03*
X18602Y-12401D03*
X18602Y-11614D03*
G54D23*
X30452Y-11673D03*
X31437Y-11673D03*
X32421Y-11673D03*
X33405Y-11673D03*
X34389Y-11673D03*
G54D25*
X12500Y-12500D03*
X12500Y-35000D03*
X50000Y-12500D03*
X50000Y-35000D03*
G54D26*
X27675Y-28903D03*
X17498Y-14073D03*
X17171Y-13747D03*
X27989Y-15489D03*
X19316Y-23064D03*
X28550Y-31498D03*
X39804Y-24836D03*
X28988Y-28992D03*
X26776Y-19716D03*
X21582Y-23477D03*
X24565Y-27549D03*
X35137Y-24224D03*
G54D27*
X41450Y-13050D02*
X41450Y-13650D01*
X41450Y-22329D02*
X35728Y-28051D01*
X41450Y-13650D02*
X41450Y-22329D01*
X22997Y-27097D02*
X23550Y-27650D01*
X20318Y-27097D02*
X22997Y-27097D01*
X19914Y-27502D02*
X20318Y-27097D01*
X19914Y-31213D02*
X19914Y-27502D01*
X16257Y-34870D02*
X19914Y-31213D01*
X16257Y-35549D02*
X16257Y-34870D01*
X16807Y-36100D02*
X16257Y-35549D01*
G54D28*
X20550Y-35365D02*
X20550Y-27650D01*
X19815Y-36100D02*
X20550Y-35365D01*
G54D27*
X27693Y-28885D02*
X27675Y-28903D01*
X27139Y-28331D02*
X27693Y-28885D01*
X27139Y-28312D02*
X27139Y-28331D01*
X25595Y-26769D02*
X27139Y-28312D01*
X25595Y-24395D02*
X25595Y-26769D01*
X24450Y-23250D02*
X25595Y-24395D01*
X30322Y-31496D02*
X41594Y-31496D01*
X28842Y-30016D02*
X30322Y-31496D01*
X28823Y-30016D02*
X28842Y-30016D01*
X27693Y-28885D02*
X28823Y-30016D01*
X13000Y-17699D02*
X11450Y-19250D01*
X16342Y-17699D02*
X13000Y-17699D01*
X16689Y-17353D02*
X16342Y-17699D01*
X16689Y-13638D02*
X16689Y-17353D01*
X15452Y-12401D02*
X16689Y-13638D01*
X12050Y-23130D02*
X12700Y-23780D01*
X12050Y-21519D02*
X12050Y-23130D01*
X11450Y-20919D02*
X12050Y-21519D01*
X11450Y-19250D02*
X11450Y-20919D01*
X21550Y-32310D02*
X23818Y-34579D01*
X21550Y-27650D02*
X21550Y-32310D01*
X23818Y-35129D02*
X23818Y-34579D01*
G54D28*
X15999Y-33650D02*
X15000Y-34649D01*
X15999Y-25063D02*
X15999Y-33650D01*
X17384Y-23679D02*
X15999Y-25063D01*
X17687Y-23679D02*
X17384Y-23679D01*
X18979Y-22387D02*
X17687Y-23679D01*
X18979Y-22084D02*
X18979Y-22387D01*
X19263Y-21799D02*
X18979Y-22084D01*
X20539Y-21799D02*
X19263Y-21799D01*
X20900Y-21439D02*
X20539Y-21799D01*
X20900Y-21158D02*
X20900Y-21439D01*
X21355Y-20703D02*
X20900Y-21158D01*
X23996Y-20703D02*
X21355Y-20703D01*
X24450Y-20250D02*
X23996Y-20703D01*
X15000Y-35100D02*
X15000Y-34649D01*
X17322Y-14708D02*
X17322Y-15157D01*
X17835Y-14195D02*
X17322Y-14708D01*
X17835Y-12422D02*
X17835Y-14195D01*
X17814Y-12401D02*
X17835Y-12422D01*
X21599Y-20100D02*
X22450Y-19250D01*
X19962Y-20100D02*
X21599Y-20100D01*
X18947Y-21114D02*
X19962Y-20100D01*
X18947Y-21388D02*
X18947Y-21114D01*
X18636Y-21700D02*
X18947Y-21388D01*
X17259Y-21700D02*
X18636Y-21700D01*
X16999Y-21440D02*
X17259Y-21700D01*
X16999Y-17449D02*
X16999Y-21440D01*
X17322Y-17125D02*
X16999Y-17449D01*
X17498Y-12872D02*
X17498Y-14073D01*
X17027Y-12401D02*
X17498Y-12872D01*
X22047Y-17652D02*
X22047Y-17125D01*
X20450Y-19250D02*
X22047Y-17652D01*
X22047Y-16338D02*
X23228Y-15157D01*
X22047Y-17125D02*
X22047Y-16338D01*
X17171Y-13747D02*
X17171Y-13747D01*
X17171Y-13333D02*
X17171Y-13747D01*
X16240Y-12401D02*
X17171Y-13333D01*
X19100Y-19900D02*
X18450Y-19250D01*
X21437Y-19900D02*
X19100Y-19900D01*
X21999Y-19337D02*
X21437Y-19900D01*
X21999Y-19063D02*
X21999Y-19337D01*
X22837Y-18225D02*
X21999Y-19063D01*
X25672Y-18225D02*
X22837Y-18225D01*
X26771Y-17125D02*
X25672Y-18225D01*
X24901Y-12401D02*
X27989Y-15489D01*
X28007Y-19149D02*
X28937Y-20078D01*
X28007Y-17024D02*
X28007Y-19149D01*
X26181Y-15197D02*
X28007Y-17024D01*
X26181Y-14468D02*
X26181Y-15197D01*
X24114Y-12401D02*
X26181Y-14468D01*
X30118Y-20866D02*
X30118Y-20078D01*
X28937Y-22047D02*
X30118Y-20866D01*
X22924Y-12804D02*
X23326Y-12401D01*
X22375Y-12804D02*
X22924Y-12804D01*
X22120Y-12549D02*
X22375Y-12804D01*
X22120Y-11467D02*
X22120Y-12549D01*
X22978Y-10610D02*
X22120Y-11467D01*
X34247Y-10610D02*
X22978Y-10610D01*
X35491Y-11854D02*
X34247Y-10610D01*
X35491Y-16419D02*
X35491Y-11854D01*
X34769Y-17142D02*
X35491Y-16419D01*
X33990Y-17142D02*
X34769Y-17142D01*
X33213Y-17918D02*
X33990Y-17142D01*
X33213Y-19631D02*
X33213Y-17918D01*
X33661Y-20078D02*
X33213Y-19631D01*
X17999Y-24381D02*
X19316Y-23064D01*
X17999Y-25417D02*
X17999Y-24381D01*
X16832Y-26584D02*
X17999Y-25417D01*
X16832Y-33100D02*
X16832Y-26584D01*
X15938Y-33994D02*
X16832Y-33100D01*
X15938Y-35873D02*
X15938Y-33994D01*
X16627Y-36561D02*
X15938Y-35873D01*
X17988Y-36561D02*
X16627Y-36561D01*
X19365Y-35184D02*
X17988Y-36561D01*
X19365Y-35100D02*
X19365Y-35184D01*
X19815Y-35100D02*
X19365Y-35100D01*
X42594Y-33055D02*
X42594Y-31496D01*
X42066Y-33582D02*
X42594Y-33055D01*
X41862Y-30763D02*
X42594Y-31496D01*
X30278Y-30763D02*
X41862Y-30763D01*
X29231Y-29716D02*
X30278Y-30763D01*
X28948Y-29716D02*
X29231Y-29716D01*
X27439Y-28207D02*
X28948Y-29716D01*
X27439Y-25601D02*
X27439Y-28207D01*
X24588Y-22750D02*
X27439Y-25601D01*
X23950Y-22750D02*
X24588Y-22750D01*
X23450Y-22250D02*
X23950Y-22750D01*
X43594Y-33511D02*
X43594Y-31496D01*
X42066Y-35039D02*
X43594Y-33511D01*
X42507Y-30409D02*
X43594Y-31496D01*
X30327Y-30409D02*
X42507Y-30409D01*
X29363Y-29445D02*
X30327Y-30409D01*
X28960Y-29445D02*
X29363Y-29445D01*
X27710Y-28194D02*
X28960Y-29445D01*
X27710Y-24870D02*
X27710Y-28194D01*
X24632Y-21793D02*
X27710Y-24870D01*
X22906Y-21793D02*
X24632Y-21793D01*
X22450Y-22250D02*
X22906Y-21793D01*
X44594Y-33180D02*
X44594Y-31496D01*
X41852Y-35922D02*
X44594Y-33180D01*
X38521Y-32592D02*
X41852Y-35922D01*
X30904Y-32592D02*
X38521Y-32592D01*
X23974Y-25662D02*
X30904Y-32592D01*
X23974Y-24774D02*
X23974Y-25662D01*
X21450Y-22250D02*
X23974Y-24774D01*
X41852Y-35922D02*
X42070Y-36141D01*
X46594Y-33110D02*
X46122Y-33582D01*
X46594Y-31496D02*
X46594Y-33110D01*
X28035Y-31498D02*
X28550Y-31498D01*
X21950Y-25413D02*
X28035Y-31498D01*
X21950Y-24750D02*
X21950Y-25413D01*
X19450Y-22250D02*
X21950Y-24750D01*
X45594Y-34837D02*
X45594Y-31496D01*
X43770Y-36660D02*
X45594Y-34837D01*
X38130Y-36660D02*
X43770Y-36660D01*
X34261Y-32792D02*
X38130Y-36660D01*
X30321Y-32792D02*
X34261Y-32792D01*
X22950Y-25420D02*
X30321Y-32792D01*
X22950Y-25085D02*
X22950Y-25420D01*
X22198Y-24333D02*
X22950Y-25085D01*
X21978Y-24333D02*
X22198Y-24333D01*
X20450Y-22804D02*
X21978Y-24333D01*
X20450Y-22250D02*
X20450Y-22804D01*
X45919Y-34837D02*
X46122Y-35039D01*
X45594Y-34837D02*
X45919Y-34837D01*
X17248Y-26451D02*
X18450Y-25250D01*
X17248Y-32198D02*
X17248Y-26451D01*
X17700Y-32650D02*
X17248Y-32198D01*
X19447Y-26252D02*
X20450Y-25250D01*
X19447Y-29902D02*
X19447Y-26252D01*
X17700Y-31650D02*
X19447Y-29902D01*
X18249Y-30100D02*
X17700Y-30650D01*
X18249Y-26450D02*
X18249Y-30100D01*
X19450Y-25250D02*
X18249Y-26450D01*
X44450Y-20190D02*
X39804Y-24836D01*
X44450Y-13050D02*
X44450Y-20190D01*
X44963Y-11536D02*
X44450Y-12050D01*
X45656Y-11536D02*
X44963Y-11536D01*
X45991Y-11870D02*
X45656Y-11536D01*
X45991Y-14491D02*
X45991Y-11870D01*
X51000Y-19500D02*
X45991Y-14491D01*
X27920Y-24720D02*
X24450Y-21250D01*
X27920Y-27924D02*
X27920Y-24720D01*
X28988Y-28992D02*
X27920Y-27924D01*
X21196Y-20503D02*
X20450Y-21250D01*
X23246Y-20503D02*
X21196Y-20503D01*
X23999Y-19750D02*
X23246Y-20503D01*
X25806Y-19750D02*
X23999Y-19750D01*
X26165Y-19391D02*
X25806Y-19750D01*
X27300Y-19391D02*
X26165Y-19391D01*
X28638Y-20729D02*
X27300Y-19391D01*
X29200Y-20729D02*
X28638Y-20729D01*
X29586Y-20343D02*
X29200Y-20729D01*
X29586Y-19754D02*
X29586Y-20343D01*
X28491Y-18659D02*
X29586Y-19754D01*
X28491Y-17911D02*
X28491Y-18659D01*
X29134Y-17268D02*
X28491Y-17911D01*
X29635Y-17268D02*
X29134Y-17268D01*
X30708Y-16194D02*
X29635Y-17268D01*
X30708Y-15998D02*
X30708Y-16194D01*
X33405Y-13301D02*
X30708Y-15998D01*
X33405Y-11673D02*
X33405Y-13301D01*
X20399Y-20300D02*
X19450Y-21250D01*
X23063Y-20300D02*
X20399Y-20300D01*
X23950Y-19414D02*
X23063Y-20300D01*
X23950Y-19106D02*
X23950Y-19414D01*
X24264Y-18792D02*
X23950Y-19106D01*
X26984Y-18792D02*
X24264Y-18792D01*
X28721Y-20529D02*
X26984Y-18792D01*
X29117Y-20529D02*
X28721Y-20529D01*
X29386Y-20260D02*
X29117Y-20529D01*
X29386Y-19887D02*
X29386Y-20260D01*
X28291Y-18792D02*
X29386Y-19887D01*
X28291Y-17448D02*
X28291Y-18792D01*
X29527Y-16212D02*
X28291Y-17448D01*
X29527Y-13582D02*
X29527Y-16212D01*
X31437Y-11673D02*
X29527Y-13582D01*
X45450Y-14950D02*
X51000Y-20500D01*
X45450Y-13050D02*
X45450Y-14950D01*
X25743Y-20750D02*
X26776Y-19716D01*
X24233Y-20750D02*
X25743Y-20750D01*
X23733Y-21250D02*
X24233Y-20750D01*
X23450Y-21250D02*
X23733Y-21250D01*
X21999Y-21700D02*
X22450Y-21250D01*
X21328Y-21700D02*
X21999Y-21700D01*
X20987Y-22040D02*
X21328Y-21700D01*
X20987Y-22882D02*
X20987Y-22040D01*
X21582Y-23477D02*
X20987Y-22882D01*
X17999Y-20700D02*
X17450Y-21250D01*
X17999Y-14354D02*
X17999Y-20700D01*
X18602Y-13752D02*
X17999Y-14354D01*
X18602Y-12401D02*
X18602Y-13752D01*
G54D27*
X23087Y-36861D02*
X23818Y-36129D01*
X14978Y-36861D02*
X23087Y-36861D01*
X13516Y-35399D02*
X14978Y-36861D01*
X13516Y-33329D02*
X13516Y-35399D01*
X10875Y-30688D02*
X13516Y-33329D01*
X10875Y-25044D02*
X10875Y-30688D01*
X11379Y-24540D02*
X10875Y-25044D01*
X12765Y-24540D02*
X11379Y-24540D01*
X13279Y-24025D02*
X12765Y-24540D01*
X13279Y-21079D02*
X13279Y-24025D01*
X12450Y-20250D02*
X13279Y-21079D01*
G54D28*
X19685Y-12136D02*
X19685Y-15157D01*
X18740Y-11192D02*
X19685Y-12136D01*
X17449Y-11192D02*
X18740Y-11192D01*
X17027Y-11614D02*
X17449Y-11192D01*
X20999Y-19700D02*
X21450Y-19250D01*
X19259Y-19700D02*
X20999Y-19700D01*
X18993Y-19434D02*
X19259Y-19700D01*
X18993Y-17817D02*
X18993Y-19434D01*
X19685Y-17125D02*
X18993Y-17817D01*
X20243Y-10991D02*
X24409Y-15157D01*
X16862Y-10991D02*
X20243Y-10991D01*
X16240Y-11614D02*
X16862Y-10991D01*
X24409Y-15602D02*
X24409Y-17125D01*
X25145Y-15602D02*
X24409Y-15602D01*
X25590Y-15157D02*
X25145Y-15602D01*
X21456Y-17243D02*
X19450Y-19250D01*
X21456Y-16386D02*
X21456Y-17243D01*
X22499Y-15343D02*
X21456Y-16386D01*
X22499Y-15247D02*
X22499Y-15343D01*
X23049Y-14698D02*
X22499Y-15247D01*
X23411Y-14698D02*
X23049Y-14698D01*
X23818Y-15105D02*
X23411Y-14698D01*
X23818Y-15222D02*
X23818Y-15105D01*
X24199Y-15602D02*
X23818Y-15222D01*
X24409Y-15602D02*
X24199Y-15602D01*
X31884Y-14375D02*
X30118Y-16141D01*
X31884Y-11474D02*
X31884Y-14375D01*
X31622Y-11212D02*
X31884Y-11474D01*
X25303Y-11212D02*
X31622Y-11212D01*
X24901Y-11614D02*
X25303Y-11212D01*
X31299Y-16929D02*
X31299Y-16141D01*
X30118Y-18110D02*
X31299Y-16929D01*
X33855Y-15154D02*
X34842Y-16141D01*
X33855Y-11477D02*
X33855Y-15154D01*
X33390Y-11012D02*
X33855Y-11477D01*
X24716Y-11012D02*
X33390Y-11012D01*
X24114Y-11614D02*
X24716Y-11012D01*
X36023Y-16929D02*
X36023Y-16141D01*
X34842Y-18110D02*
X36023Y-16929D01*
X24130Y-10810D02*
X23326Y-11614D01*
X34165Y-10810D02*
X24130Y-10810D01*
X35291Y-11937D02*
X34165Y-10810D01*
X35291Y-16336D02*
X35291Y-11937D01*
X34898Y-16729D02*
X35291Y-16336D01*
X34106Y-16729D02*
X34898Y-16729D01*
X32995Y-17841D02*
X34106Y-16729D01*
X32995Y-18382D02*
X32995Y-17841D01*
X31299Y-20078D02*
X32995Y-18382D01*
X31745Y-22493D02*
X31299Y-22047D01*
X32680Y-22493D02*
X31745Y-22493D01*
X32927Y-22246D02*
X32680Y-22493D01*
X32927Y-20526D02*
X32927Y-22246D01*
X32480Y-20078D02*
X32927Y-20526D01*
X22450Y-25434D02*
X24565Y-27549D01*
X22450Y-25250D02*
X22450Y-25434D01*
X35137Y-27854D02*
X34940Y-28051D01*
X35137Y-24224D02*
X35137Y-27854D01*
G54D27*
X17700Y-28650D02*
X17700Y-27650D01*
X25044Y-17672D02*
X25590Y-17125D01*
X23774Y-17672D02*
X25044Y-17672D01*
X23228Y-17125D02*
X23774Y-17672D01*
X14332Y-35432D02*
X15000Y-36100D01*
X14332Y-28132D02*
X14332Y-35432D01*
X11450Y-25250D02*
X14332Y-28132D01*
X15514Y-16279D02*
X15404Y-16389D01*
X15514Y-13861D02*
X15514Y-16279D01*
X14940Y-13287D02*
X15514Y-13861D01*
X14940Y-12126D02*
X14940Y-13287D01*
X15452Y-11614D02*
X14940Y-12126D01*
X16141Y-17125D02*
X15404Y-16389D01*
X15404Y-16389D02*
X11500Y-16389D01*
X34618Y-22271D02*
X34618Y-26043D01*
X34842Y-22047D02*
X34618Y-22271D01*
X29333Y-27409D02*
X28702Y-28040D01*
X33252Y-27409D02*
X29333Y-27409D01*
X34618Y-26043D02*
X33252Y-27409D01*
X28652Y-28040D02*
X28702Y-28040D01*
X28641Y-28051D02*
X28652Y-28040D01*
X46938Y-30561D02*
X51000Y-26500D01*
X47153Y-35109D02*
X46122Y-36141D01*
X47153Y-30777D02*
X47153Y-35109D01*
X46938Y-30561D02*
X47153Y-30777D01*
X29484Y-18657D02*
X30675Y-18657D01*
X28937Y-18110D02*
X29484Y-18657D01*
X30751Y-18657D02*
X31299Y-18110D01*
X30675Y-18657D02*
X30751Y-18657D01*
X31923Y-21489D02*
X30675Y-21489D01*
X32480Y-22047D02*
X31923Y-21489D01*
X30675Y-18657D02*
X30675Y-21489D01*
X30675Y-21489D02*
X30118Y-22047D01*
X45991Y-29614D02*
X46938Y-30561D01*
X30276Y-29614D02*
X45991Y-29614D01*
X28702Y-28040D02*
X30276Y-29614D01*
X25748Y-11673D02*
X25688Y-11614D01*
X30452Y-11673D02*
X25748Y-11673D01*
X20264Y-16523D02*
X20866Y-17125D01*
X19106Y-16523D02*
X20264Y-16523D01*
X19106Y-12117D02*
X19106Y-16523D01*
X18602Y-11614D02*
X19106Y-12117D01*
X19106Y-16523D02*
X18503Y-17125D01*
X35476Y-18657D02*
X36023Y-18110D01*
X34208Y-18657D02*
X35476Y-18657D01*
X33661Y-18110D02*
X34208Y-18657D01*
X41391Y-12050D02*
X41450Y-12050D01*
X36023Y-17417D02*
X41391Y-12050D01*
X36023Y-18110D02*
X36023Y-17417D01*
M02*
