G04 (created by PCBNEW (2013-jul-07)-stable) date Tue 28 Apr 2015 09:29:23 AM PDT*
%MOIN*%
G04 Gerber Fmt 3.4, Leading zero omitted, Abs format*
%FSLAX34Y34*%
G01*
G70*
G90*
G04 APERTURE LIST*
%ADD10C,0.00590551*%
%ADD11C,0.008*%
%ADD12C,0.012*%
%ADD13C,0.015*%
%ADD14C,0.006*%
%ADD15C,0.00984252*%
G04 APERTURE END LIST*
G54D10*
G54D11*
X31223Y-10555D02*
X31223Y-10155D01*
X31375Y-10155D01*
X31413Y-10174D01*
X31432Y-10193D01*
X31451Y-10231D01*
X31451Y-10288D01*
X31432Y-10327D01*
X31413Y-10346D01*
X31375Y-10365D01*
X31223Y-10365D01*
X31623Y-10555D02*
X31623Y-10155D01*
X31756Y-10441D01*
X31889Y-10155D01*
X31889Y-10555D01*
X32366Y-10536D02*
X32423Y-10555D01*
X32518Y-10555D01*
X32556Y-10536D01*
X32575Y-10517D01*
X32594Y-10479D01*
X32594Y-10441D01*
X32575Y-10403D01*
X32556Y-10384D01*
X32518Y-10365D01*
X32442Y-10346D01*
X32404Y-10327D01*
X32385Y-10307D01*
X32366Y-10269D01*
X32366Y-10231D01*
X32385Y-10193D01*
X32404Y-10174D01*
X32442Y-10155D01*
X32537Y-10155D01*
X32594Y-10174D01*
X32766Y-10346D02*
X32899Y-10346D01*
X32956Y-10555D02*
X32766Y-10555D01*
X32766Y-10155D01*
X32956Y-10155D01*
X33127Y-10555D02*
X33127Y-10155D01*
X33356Y-10555D01*
X33356Y-10155D01*
X33527Y-10536D02*
X33585Y-10555D01*
X33680Y-10555D01*
X33718Y-10536D01*
X33737Y-10517D01*
X33756Y-10479D01*
X33756Y-10441D01*
X33737Y-10403D01*
X33718Y-10384D01*
X33680Y-10365D01*
X33604Y-10346D01*
X33566Y-10327D01*
X33546Y-10307D01*
X33527Y-10269D01*
X33527Y-10231D01*
X33546Y-10193D01*
X33566Y-10174D01*
X33604Y-10155D01*
X33699Y-10155D01*
X33756Y-10174D01*
X43061Y-14961D02*
X43061Y-15285D01*
X43080Y-15323D01*
X43100Y-15342D01*
X43138Y-15361D01*
X43214Y-15361D01*
X43252Y-15342D01*
X43271Y-15323D01*
X43290Y-15285D01*
X43290Y-14961D01*
X43480Y-15152D02*
X43614Y-15152D01*
X43671Y-15361D02*
X43480Y-15361D01*
X43480Y-14961D01*
X43671Y-14961D01*
X43804Y-14961D02*
X44071Y-15361D01*
X44071Y-14961D02*
X43804Y-15361D01*
X44166Y-14961D02*
X44395Y-14961D01*
X44280Y-15361D02*
X44280Y-14961D01*
X14333Y-37047D02*
X14523Y-37047D01*
X14295Y-37161D02*
X14428Y-36761D01*
X14561Y-37161D01*
X14771Y-36761D02*
X14847Y-36761D01*
X14885Y-36780D01*
X14923Y-36819D01*
X14942Y-36895D01*
X14942Y-37028D01*
X14923Y-37104D01*
X14885Y-37142D01*
X14847Y-37161D01*
X14771Y-37161D01*
X14733Y-37142D01*
X14695Y-37104D01*
X14676Y-37028D01*
X14676Y-36895D01*
X14695Y-36819D01*
X14733Y-36780D01*
X14771Y-36761D01*
X15114Y-36761D02*
X15114Y-37085D01*
X15133Y-37123D01*
X15152Y-37142D01*
X15190Y-37161D01*
X15266Y-37161D01*
X15304Y-37142D01*
X15323Y-37123D01*
X15342Y-37085D01*
X15342Y-36761D01*
X15476Y-36761D02*
X15704Y-36761D01*
X15590Y-37161D02*
X15590Y-36761D01*
X21206Y-37161D02*
X21206Y-36761D01*
X21358Y-36761D01*
X21396Y-36780D01*
X21415Y-36800D01*
X21434Y-36838D01*
X21434Y-36895D01*
X21415Y-36933D01*
X21396Y-36952D01*
X21358Y-36971D01*
X21206Y-36971D01*
X21834Y-37161D02*
X21701Y-36971D01*
X21606Y-37161D02*
X21606Y-36761D01*
X21758Y-36761D01*
X21796Y-36780D01*
X21815Y-36800D01*
X21834Y-36838D01*
X21834Y-36895D01*
X21815Y-36933D01*
X21796Y-36952D01*
X21758Y-36971D01*
X21606Y-36971D01*
X22082Y-36761D02*
X22158Y-36761D01*
X22196Y-36780D01*
X22234Y-36819D01*
X22253Y-36895D01*
X22253Y-37028D01*
X22234Y-37104D01*
X22196Y-37142D01*
X22158Y-37161D01*
X22082Y-37161D01*
X22044Y-37142D01*
X22006Y-37104D01*
X21987Y-37028D01*
X21987Y-36895D01*
X22006Y-36819D01*
X22044Y-36780D01*
X22082Y-36761D01*
X22634Y-36780D02*
X22596Y-36761D01*
X22539Y-36761D01*
X22482Y-36780D01*
X22444Y-36819D01*
X22425Y-36857D01*
X22406Y-36933D01*
X22406Y-36990D01*
X22425Y-37066D01*
X22444Y-37104D01*
X22482Y-37142D01*
X22539Y-37161D01*
X22577Y-37161D01*
X22634Y-37142D01*
X22653Y-37123D01*
X22653Y-36990D01*
X22577Y-36990D01*
X23183Y-36769D02*
X23317Y-37169D01*
X23450Y-36769D01*
X23717Y-36960D02*
X23774Y-36979D01*
X23793Y-36998D01*
X23812Y-37036D01*
X23812Y-37093D01*
X23793Y-37131D01*
X23774Y-37150D01*
X23736Y-37169D01*
X23583Y-37169D01*
X23583Y-36769D01*
X23717Y-36769D01*
X23755Y-36788D01*
X23774Y-36807D01*
X23793Y-36845D01*
X23793Y-36884D01*
X23774Y-36922D01*
X23755Y-36941D01*
X23717Y-36960D01*
X23583Y-36960D01*
X23983Y-36769D02*
X23983Y-37093D01*
X24003Y-37131D01*
X24022Y-37150D01*
X24060Y-37169D01*
X24136Y-37169D01*
X24174Y-37150D01*
X24193Y-37131D01*
X24212Y-37093D01*
X24212Y-36769D01*
X24383Y-37150D02*
X24441Y-37169D01*
X24536Y-37169D01*
X24574Y-37150D01*
X24593Y-37131D01*
X24612Y-37093D01*
X24612Y-37055D01*
X24593Y-37017D01*
X24574Y-36998D01*
X24536Y-36979D01*
X24460Y-36960D01*
X24422Y-36941D01*
X24403Y-36922D01*
X24383Y-36884D01*
X24383Y-36845D01*
X24403Y-36807D01*
X24422Y-36788D01*
X24460Y-36769D01*
X24555Y-36769D01*
X24612Y-36788D01*
X10571Y-13461D02*
X10380Y-13461D01*
X10361Y-13652D01*
X10380Y-13633D01*
X10419Y-13614D01*
X10514Y-13614D01*
X10552Y-13633D01*
X10571Y-13652D01*
X10590Y-13690D01*
X10590Y-13785D01*
X10571Y-13823D01*
X10552Y-13842D01*
X10514Y-13861D01*
X10419Y-13861D01*
X10380Y-13842D01*
X10361Y-13823D01*
X10704Y-13461D02*
X10838Y-13861D01*
X10971Y-13461D01*
X17512Y-34011D02*
X17741Y-34011D01*
X17626Y-34411D02*
X17626Y-34011D01*
X17874Y-34411D02*
X17874Y-34011D01*
X18103Y-34411D01*
X18103Y-34011D01*
X18369Y-34221D02*
X18369Y-34411D01*
X18236Y-34011D02*
X18369Y-34221D01*
X18503Y-34011D01*
X16400Y-34411D02*
X16267Y-34221D01*
X16172Y-34411D02*
X16172Y-34011D01*
X16324Y-34011D01*
X16362Y-34030D01*
X16381Y-34050D01*
X16400Y-34088D01*
X16400Y-34145D01*
X16381Y-34183D01*
X16362Y-34202D01*
X16324Y-34221D01*
X16172Y-34221D01*
X16572Y-34202D02*
X16705Y-34202D01*
X16762Y-34411D02*
X16572Y-34411D01*
X16572Y-34011D01*
X16762Y-34011D01*
X17143Y-34030D02*
X17105Y-34011D01*
X17048Y-34011D01*
X16991Y-34030D01*
X16953Y-34069D01*
X16934Y-34107D01*
X16915Y-34183D01*
X16915Y-34240D01*
X16934Y-34316D01*
X16953Y-34354D01*
X16991Y-34392D01*
X17048Y-34411D01*
X17086Y-34411D01*
X17143Y-34392D01*
X17162Y-34373D01*
X17162Y-34240D01*
X17086Y-34240D01*
X16195Y-36769D02*
X16443Y-36769D01*
X16310Y-36922D01*
X16367Y-36922D01*
X16405Y-36941D01*
X16424Y-36960D01*
X16443Y-36998D01*
X16443Y-37093D01*
X16424Y-37131D01*
X16405Y-37150D01*
X16367Y-37169D01*
X16252Y-37169D01*
X16214Y-37150D01*
X16195Y-37131D01*
X16557Y-36769D02*
X16691Y-37169D01*
X16824Y-36769D01*
X16919Y-36769D02*
X17167Y-36769D01*
X17033Y-36922D01*
X17091Y-36922D01*
X17129Y-36941D01*
X17148Y-36960D01*
X17167Y-36998D01*
X17167Y-37093D01*
X17148Y-37131D01*
X17129Y-37150D01*
X17091Y-37169D01*
X16976Y-37169D01*
X16938Y-37150D01*
X16919Y-37131D01*
X17319Y-37150D02*
X17376Y-37169D01*
X17472Y-37169D01*
X17510Y-37150D01*
X17529Y-37131D01*
X17548Y-37093D01*
X17548Y-37055D01*
X17529Y-37017D01*
X17510Y-36998D01*
X17472Y-36979D01*
X17395Y-36960D01*
X17357Y-36941D01*
X17338Y-36922D01*
X17319Y-36884D01*
X17319Y-36845D01*
X17338Y-36807D01*
X17357Y-36788D01*
X17395Y-36769D01*
X17491Y-36769D01*
X17548Y-36788D01*
X17719Y-36960D02*
X17852Y-36960D01*
X17910Y-37169D02*
X17719Y-37169D01*
X17719Y-36769D01*
X17910Y-36769D01*
X18272Y-37169D02*
X18081Y-37169D01*
X18081Y-36769D01*
X18799Y-36769D02*
X19046Y-36769D01*
X18913Y-36922D01*
X18970Y-36922D01*
X19008Y-36941D01*
X19027Y-36960D01*
X19046Y-36998D01*
X19046Y-37093D01*
X19027Y-37131D01*
X19008Y-37150D01*
X18970Y-37169D01*
X18856Y-37169D01*
X18818Y-37150D01*
X18799Y-37131D01*
X19161Y-36769D02*
X19294Y-37169D01*
X19427Y-36769D01*
X19523Y-36769D02*
X19770Y-36769D01*
X19637Y-36922D01*
X19694Y-36922D01*
X19732Y-36941D01*
X19751Y-36960D01*
X19770Y-36998D01*
X19770Y-37093D01*
X19751Y-37131D01*
X19732Y-37150D01*
X19694Y-37169D01*
X19580Y-37169D01*
X19542Y-37150D01*
X19523Y-37131D01*
X19923Y-37150D02*
X19980Y-37169D01*
X20075Y-37169D01*
X20113Y-37150D01*
X20132Y-37131D01*
X20151Y-37093D01*
X20151Y-37055D01*
X20132Y-37017D01*
X20113Y-36998D01*
X20075Y-36979D01*
X19999Y-36960D01*
X19961Y-36941D01*
X19942Y-36922D01*
X19923Y-36884D01*
X19923Y-36845D01*
X19942Y-36807D01*
X19961Y-36788D01*
X19999Y-36769D01*
X20094Y-36769D01*
X20151Y-36788D01*
X20323Y-37169D02*
X20323Y-36769D01*
X20418Y-36769D01*
X20475Y-36788D01*
X20513Y-36826D01*
X20532Y-36865D01*
X20551Y-36941D01*
X20551Y-36998D01*
X20532Y-37074D01*
X20513Y-37112D01*
X20475Y-37150D01*
X20418Y-37169D01*
X20323Y-37169D01*
G54D12*
X13171Y-16514D02*
X13628Y-16514D01*
X13121Y-15064D02*
X13578Y-15064D01*
X13350Y-15292D02*
X13350Y-14835D01*
G54D11*
X22288Y-10182D02*
X22250Y-10163D01*
X22192Y-10163D01*
X22135Y-10182D01*
X22097Y-10220D01*
X22078Y-10258D01*
X22059Y-10334D01*
X22059Y-10392D01*
X22078Y-10468D01*
X22097Y-10506D01*
X22135Y-10544D01*
X22192Y-10563D01*
X22230Y-10563D01*
X22288Y-10544D01*
X22307Y-10525D01*
X22307Y-10392D01*
X22230Y-10392D01*
X22459Y-10449D02*
X22650Y-10449D01*
X22421Y-10563D02*
X22554Y-10163D01*
X22688Y-10563D01*
X22802Y-10544D02*
X22859Y-10563D01*
X22954Y-10563D01*
X22992Y-10544D01*
X23011Y-10525D01*
X23030Y-10487D01*
X23030Y-10449D01*
X23011Y-10411D01*
X22992Y-10392D01*
X22954Y-10373D01*
X22878Y-10353D01*
X22840Y-10334D01*
X22821Y-10315D01*
X22802Y-10277D01*
X22802Y-10239D01*
X22821Y-10201D01*
X22840Y-10182D01*
X22878Y-10163D01*
X22973Y-10163D01*
X23030Y-10182D01*
X23488Y-10544D02*
X23545Y-10563D01*
X23640Y-10563D01*
X23678Y-10544D01*
X23697Y-10525D01*
X23716Y-10487D01*
X23716Y-10449D01*
X23697Y-10411D01*
X23678Y-10392D01*
X23640Y-10373D01*
X23564Y-10353D01*
X23526Y-10334D01*
X23507Y-10315D01*
X23488Y-10277D01*
X23488Y-10239D01*
X23507Y-10201D01*
X23526Y-10182D01*
X23564Y-10163D01*
X23659Y-10163D01*
X23716Y-10182D01*
X23888Y-10353D02*
X24021Y-10353D01*
X24078Y-10563D02*
X23888Y-10563D01*
X23888Y-10163D01*
X24078Y-10163D01*
X24250Y-10563D02*
X24250Y-10163D01*
X24478Y-10563D01*
X24478Y-10163D01*
X24650Y-10544D02*
X24707Y-10563D01*
X24802Y-10563D01*
X24840Y-10544D01*
X24859Y-10525D01*
X24878Y-10487D01*
X24878Y-10449D01*
X24859Y-10411D01*
X24840Y-10392D01*
X24802Y-10373D01*
X24726Y-10353D01*
X24688Y-10334D01*
X24669Y-10315D01*
X24650Y-10277D01*
X24650Y-10239D01*
X24669Y-10201D01*
X24688Y-10182D01*
X24726Y-10163D01*
X24821Y-10163D01*
X24878Y-10182D01*
X25526Y-10296D02*
X25526Y-10563D01*
X25430Y-10144D02*
X25335Y-10430D01*
X25583Y-10430D01*
X25735Y-10411D02*
X26040Y-10411D01*
X26402Y-10163D02*
X26326Y-10163D01*
X26288Y-10182D01*
X26269Y-10201D01*
X26230Y-10258D01*
X26211Y-10334D01*
X26211Y-10487D01*
X26230Y-10525D01*
X26250Y-10544D01*
X26288Y-10563D01*
X26364Y-10563D01*
X26402Y-10544D01*
X26421Y-10525D01*
X26440Y-10487D01*
X26440Y-10392D01*
X26421Y-10353D01*
X26402Y-10334D01*
X26364Y-10315D01*
X26288Y-10315D01*
X26250Y-10334D01*
X26230Y-10353D01*
X26211Y-10392D01*
X14967Y-10214D02*
X14929Y-10194D01*
X14871Y-10194D01*
X14814Y-10214D01*
X14776Y-10252D01*
X14757Y-10290D01*
X14738Y-10366D01*
X14738Y-10423D01*
X14757Y-10499D01*
X14776Y-10537D01*
X14814Y-10575D01*
X14871Y-10594D01*
X14910Y-10594D01*
X14967Y-10575D01*
X14986Y-10556D01*
X14986Y-10423D01*
X14910Y-10423D01*
X15138Y-10480D02*
X15329Y-10480D01*
X15100Y-10594D02*
X15233Y-10194D01*
X15367Y-10594D01*
X15481Y-10575D02*
X15538Y-10594D01*
X15633Y-10594D01*
X15671Y-10575D01*
X15691Y-10556D01*
X15710Y-10518D01*
X15710Y-10480D01*
X15691Y-10442D01*
X15671Y-10423D01*
X15633Y-10404D01*
X15557Y-10385D01*
X15519Y-10366D01*
X15500Y-10347D01*
X15481Y-10309D01*
X15481Y-10271D01*
X15500Y-10233D01*
X15519Y-10214D01*
X15557Y-10194D01*
X15652Y-10194D01*
X15710Y-10214D01*
X16167Y-10575D02*
X16224Y-10594D01*
X16319Y-10594D01*
X16357Y-10575D01*
X16376Y-10556D01*
X16395Y-10518D01*
X16395Y-10480D01*
X16376Y-10442D01*
X16357Y-10423D01*
X16319Y-10404D01*
X16243Y-10385D01*
X16205Y-10366D01*
X16186Y-10347D01*
X16167Y-10309D01*
X16167Y-10271D01*
X16186Y-10233D01*
X16205Y-10214D01*
X16243Y-10194D01*
X16338Y-10194D01*
X16395Y-10214D01*
X16567Y-10385D02*
X16700Y-10385D01*
X16757Y-10594D02*
X16567Y-10594D01*
X16567Y-10194D01*
X16757Y-10194D01*
X16929Y-10594D02*
X16929Y-10194D01*
X17157Y-10594D01*
X17157Y-10194D01*
X17329Y-10575D02*
X17386Y-10594D01*
X17481Y-10594D01*
X17519Y-10575D01*
X17538Y-10556D01*
X17557Y-10518D01*
X17557Y-10480D01*
X17538Y-10442D01*
X17519Y-10423D01*
X17481Y-10404D01*
X17405Y-10385D01*
X17367Y-10366D01*
X17348Y-10347D01*
X17329Y-10309D01*
X17329Y-10271D01*
X17348Y-10233D01*
X17367Y-10214D01*
X17405Y-10194D01*
X17500Y-10194D01*
X17557Y-10214D01*
X18243Y-10594D02*
X18014Y-10594D01*
X18129Y-10594D02*
X18129Y-10194D01*
X18091Y-10252D01*
X18052Y-10290D01*
X18014Y-10309D01*
X18414Y-10442D02*
X18719Y-10442D01*
X18871Y-10194D02*
X19119Y-10194D01*
X18986Y-10347D01*
X19043Y-10347D01*
X19081Y-10366D01*
X19100Y-10385D01*
X19119Y-10423D01*
X19119Y-10518D01*
X19100Y-10556D01*
X19081Y-10575D01*
X19043Y-10594D01*
X18929Y-10594D01*
X18891Y-10575D01*
X18871Y-10556D01*
X10638Y-21419D02*
X10638Y-21495D01*
X10619Y-21533D01*
X10580Y-21571D01*
X10504Y-21590D01*
X10371Y-21590D01*
X10295Y-21571D01*
X10257Y-21533D01*
X10238Y-21495D01*
X10238Y-21419D01*
X10257Y-21380D01*
X10295Y-21342D01*
X10371Y-21323D01*
X10504Y-21323D01*
X10580Y-21342D01*
X10619Y-21380D01*
X10638Y-21419D01*
X10447Y-21895D02*
X10447Y-21761D01*
X10238Y-21761D02*
X10638Y-21761D01*
X10638Y-21952D01*
X10447Y-22238D02*
X10447Y-22104D01*
X10238Y-22104D02*
X10638Y-22104D01*
X10638Y-22295D01*
X10638Y-23602D02*
X10638Y-23678D01*
X10619Y-23716D01*
X10580Y-23754D01*
X10504Y-23773D01*
X10371Y-23773D01*
X10295Y-23754D01*
X10257Y-23716D01*
X10238Y-23678D01*
X10238Y-23602D01*
X10257Y-23564D01*
X10295Y-23526D01*
X10371Y-23507D01*
X10504Y-23507D01*
X10580Y-23526D01*
X10619Y-23564D01*
X10638Y-23602D01*
X10238Y-23945D02*
X10638Y-23945D01*
X10238Y-24173D01*
X10638Y-24173D01*
G54D10*
X38582Y-33877D02*
X36122Y-37165D01*
X36122Y-27598D02*
X38582Y-30885D01*
X38582Y-30885D02*
X38582Y-33877D01*
X25787Y-27598D02*
X36122Y-27598D01*
X25787Y-27598D02*
X25787Y-37165D01*
X25787Y-37165D02*
X36122Y-37165D01*
G54D13*
X41094Y-30996D02*
X41094Y-31996D01*
X41094Y-31996D02*
X47094Y-31996D01*
X47094Y-31996D02*
X47094Y-30996D01*
X47094Y-30996D02*
X41094Y-30996D01*
X20050Y-27050D02*
X20050Y-32150D01*
X24070Y-27050D02*
X24050Y-32150D01*
X20050Y-27050D02*
X24050Y-27050D01*
X20050Y-32150D02*
X24050Y-32150D01*
G54D12*
X18307Y-36600D02*
X16307Y-36600D01*
X16307Y-36600D02*
X16307Y-34600D01*
X16307Y-34600D02*
X18307Y-34600D01*
X18307Y-34600D02*
X18307Y-36600D01*
G54D14*
X21420Y-34600D02*
X22420Y-34600D01*
X22420Y-34600D02*
X22420Y-36600D01*
X22420Y-36600D02*
X21420Y-36600D01*
X21420Y-36600D02*
X21420Y-34600D01*
X23318Y-34629D02*
X24318Y-34629D01*
X24318Y-34629D02*
X24318Y-36629D01*
X24318Y-36629D02*
X23318Y-36629D01*
X23318Y-36629D02*
X23318Y-34629D01*
X19315Y-34600D02*
X20315Y-34600D01*
X20315Y-34600D02*
X20315Y-36600D01*
X20315Y-36600D02*
X19315Y-36600D01*
X19315Y-36600D02*
X19315Y-34600D01*
G54D13*
X18300Y-27000D02*
X18300Y-33300D01*
X10400Y-27000D02*
X10400Y-33300D01*
X18300Y-33300D02*
X10450Y-33300D01*
X10450Y-33300D02*
X10400Y-33300D01*
X18300Y-27000D02*
X10400Y-27000D01*
X45570Y-36614D02*
X45570Y-33169D01*
X42618Y-33169D02*
X42618Y-36614D01*
X42618Y-36614D02*
X45570Y-36614D01*
X42618Y-33169D02*
X45570Y-33169D01*
X12050Y-24500D02*
X13150Y-24500D01*
X13150Y-24500D02*
X13150Y-21100D01*
X13150Y-21100D02*
X10950Y-21100D01*
X10950Y-21100D02*
X10950Y-24500D01*
X10950Y-24500D02*
X12050Y-24500D01*
G54D10*
X36618Y-27043D02*
G75*
G03X37618Y-26043I0J1000D01*
G74*
G01*
X27618Y-26043D02*
G75*
G03X28618Y-27043I1000J0D01*
G74*
G01*
X37618Y-14543D02*
G75*
G03X36618Y-13543I-1000J0D01*
G74*
G01*
X28618Y-13543D02*
G75*
G03X27618Y-14543I0J-1000D01*
G74*
G01*
X28618Y-27043D02*
X36618Y-27043D01*
X28618Y-13543D02*
X36618Y-13543D01*
X37618Y-14543D02*
X37618Y-26043D01*
X27618Y-14543D02*
X27618Y-26043D01*
X40590Y-18380D02*
X40590Y-27620D01*
X38230Y-27620D02*
X40590Y-27620D01*
X38230Y-18380D02*
X40590Y-18380D01*
X39410Y-16110D02*
G75*
G03X38230Y-17290I0J-1180D01*
G74*
G01*
X38230Y-28710D02*
G75*
G03X39410Y-29890I1180J0D01*
G74*
G01*
X38230Y-28710D02*
X38230Y-27620D01*
X38230Y-17290D02*
X38230Y-18380D01*
X51030Y-29890D02*
G75*
G03X52210Y-28710I0J1180D01*
G74*
G01*
X52210Y-17290D02*
G75*
G03X51030Y-16110I-1180J0D01*
G74*
G01*
X52210Y-17290D02*
X52210Y-28710D01*
X51030Y-29890D02*
X39410Y-29890D01*
X51030Y-16110D02*
X39410Y-16110D01*
G54D13*
X12850Y-14100D02*
X10150Y-14100D01*
X10150Y-14100D02*
X10150Y-17300D01*
X10150Y-17300D02*
X12850Y-17300D01*
X12850Y-17300D02*
X12850Y-14100D01*
G54D14*
X14500Y-34600D02*
X15500Y-34600D01*
X15500Y-34600D02*
X15500Y-36600D01*
X15500Y-36600D02*
X14500Y-36600D01*
X14500Y-36600D02*
X14500Y-34600D01*
G54D13*
X39450Y-10650D02*
X47450Y-10650D01*
X47450Y-10650D02*
X47450Y-14450D01*
X47450Y-14450D02*
X39450Y-14450D01*
X39450Y-14450D02*
X39450Y-10650D01*
X40733Y-15424D02*
X41915Y-15424D01*
X41338Y-14711D02*
X40738Y-15411D01*
X41938Y-15410D02*
X41338Y-14710D01*
X10950Y-25750D02*
X24950Y-25750D01*
X24950Y-25750D02*
X24950Y-18750D01*
X24950Y-18750D02*
X10950Y-18750D01*
X10950Y-18750D02*
X10950Y-25750D01*
G54D10*
X15944Y-16732D02*
X16338Y-16732D01*
X16338Y-16732D02*
X16338Y-15551D01*
X16338Y-15551D02*
X15944Y-15551D01*
X15944Y-15551D02*
X15944Y-16732D01*
X17125Y-16732D02*
X17519Y-16732D01*
X17519Y-16732D02*
X17519Y-15551D01*
X17519Y-15551D02*
X17125Y-15551D01*
X17125Y-15551D02*
X17125Y-16732D01*
X18307Y-16732D02*
X18700Y-16732D01*
X18700Y-16732D02*
X18700Y-15551D01*
X18700Y-15551D02*
X18307Y-15551D01*
X18307Y-15551D02*
X18307Y-16732D01*
X19488Y-16732D02*
X19881Y-16732D01*
X19881Y-16732D02*
X19881Y-15551D01*
X19881Y-15551D02*
X19488Y-15551D01*
X19488Y-15551D02*
X19488Y-16732D01*
X20669Y-16732D02*
X21062Y-16732D01*
X21062Y-16732D02*
X21062Y-15551D01*
X21062Y-15551D02*
X20669Y-15551D01*
X20669Y-15551D02*
X20669Y-16732D01*
X21850Y-16732D02*
X22244Y-16732D01*
X22244Y-16732D02*
X22244Y-15551D01*
X22244Y-15551D02*
X21850Y-15551D01*
X21850Y-15551D02*
X21850Y-16732D01*
X23031Y-16732D02*
X23425Y-16732D01*
X23425Y-16732D02*
X23425Y-15551D01*
X23425Y-15551D02*
X23031Y-15551D01*
X23031Y-15551D02*
X23031Y-16732D01*
X24212Y-16732D02*
X24606Y-16732D01*
X24606Y-16732D02*
X24606Y-15551D01*
X24606Y-15551D02*
X24212Y-15551D01*
X24212Y-15551D02*
X24212Y-16732D01*
X25393Y-16732D02*
X25787Y-16732D01*
X25787Y-16732D02*
X25787Y-15551D01*
X25787Y-15551D02*
X25393Y-15551D01*
X25393Y-15551D02*
X25393Y-16732D01*
X26574Y-16732D02*
X26968Y-16732D01*
X26968Y-16732D02*
X26968Y-15551D01*
X26968Y-15551D02*
X26574Y-15551D01*
X26574Y-15551D02*
X26574Y-16732D01*
X28740Y-17716D02*
X29133Y-17716D01*
X29133Y-17716D02*
X29133Y-16535D01*
X29133Y-16535D02*
X28740Y-16535D01*
X28740Y-16535D02*
X28740Y-17716D01*
X14763Y-16732D02*
X15157Y-16732D01*
X15157Y-16732D02*
X15157Y-15551D01*
X15157Y-15551D02*
X14763Y-15551D01*
X14763Y-15551D02*
X14763Y-16732D01*
X31102Y-17716D02*
X31496Y-17716D01*
X31496Y-17716D02*
X31496Y-16535D01*
X31496Y-16535D02*
X31102Y-16535D01*
X31102Y-16535D02*
X31102Y-17716D01*
X32283Y-17716D02*
X32677Y-17716D01*
X32677Y-17716D02*
X32677Y-16535D01*
X32677Y-16535D02*
X32283Y-16535D01*
X32283Y-16535D02*
X32283Y-17716D01*
X33464Y-17716D02*
X33858Y-17716D01*
X33858Y-17716D02*
X33858Y-16535D01*
X33858Y-16535D02*
X33464Y-16535D01*
X33464Y-16535D02*
X33464Y-17716D01*
X34645Y-17716D02*
X35039Y-17716D01*
X35039Y-17716D02*
X35039Y-16535D01*
X35039Y-16535D02*
X34645Y-16535D01*
X34645Y-16535D02*
X34645Y-17716D01*
X35826Y-17716D02*
X36220Y-17716D01*
X36220Y-17716D02*
X36220Y-16535D01*
X36220Y-16535D02*
X35826Y-16535D01*
X35826Y-16535D02*
X35826Y-17716D01*
X28740Y-21653D02*
X29133Y-21653D01*
X29133Y-21653D02*
X29133Y-20472D01*
X29133Y-20472D02*
X28740Y-20472D01*
X28740Y-20472D02*
X28740Y-21653D01*
X29921Y-21653D02*
X30314Y-21653D01*
X30314Y-21653D02*
X30314Y-20472D01*
X30314Y-20472D02*
X29921Y-20472D01*
X29921Y-20472D02*
X29921Y-21653D01*
X31102Y-21653D02*
X31496Y-21653D01*
X31496Y-21653D02*
X31496Y-20472D01*
X31496Y-20472D02*
X31102Y-20472D01*
X31102Y-20472D02*
X31102Y-21653D01*
X32283Y-21653D02*
X32677Y-21653D01*
X32677Y-21653D02*
X32677Y-20472D01*
X32677Y-20472D02*
X32283Y-20472D01*
X32283Y-20472D02*
X32283Y-21653D01*
X33464Y-21653D02*
X33858Y-21653D01*
X33858Y-21653D02*
X33858Y-20472D01*
X33858Y-20472D02*
X33464Y-20472D01*
X33464Y-20472D02*
X33464Y-21653D01*
X34645Y-21653D02*
X35039Y-21653D01*
X35039Y-21653D02*
X35039Y-20472D01*
X35039Y-20472D02*
X34645Y-20472D01*
X34645Y-20472D02*
X34645Y-21653D01*
X29921Y-17716D02*
X30314Y-17716D01*
X30314Y-17716D02*
X30314Y-16535D01*
X30314Y-16535D02*
X29921Y-16535D01*
X29921Y-16535D02*
X29921Y-17716D01*
G54D15*
X27460Y-10748D02*
X27460Y-13267D01*
X26633Y-13267D02*
X27460Y-13267D01*
X26633Y-10748D02*
X27460Y-10748D01*
X21594Y-13267D02*
X20767Y-13267D01*
X20767Y-13267D02*
X20767Y-10748D01*
X20767Y-10748D02*
X21594Y-10748D01*
X22539Y-13464D02*
X22263Y-13818D01*
X22263Y-13818D02*
X22814Y-13818D01*
X22814Y-13818D02*
X22539Y-13464D01*
X21594Y-10748D02*
X21594Y-13267D01*
X21594Y-13267D02*
X26633Y-13267D01*
X26633Y-13267D02*
X26633Y-10748D01*
X26633Y-10748D02*
X21594Y-10748D01*
X20374Y-10748D02*
X20374Y-13267D01*
X19547Y-13267D02*
X20374Y-13267D01*
X19547Y-10748D02*
X20374Y-10748D01*
X14507Y-13267D02*
X13681Y-13267D01*
X13681Y-13267D02*
X13681Y-10748D01*
X13681Y-10748D02*
X14507Y-10748D01*
X15452Y-13464D02*
X15177Y-13818D01*
X15177Y-13818D02*
X15728Y-13818D01*
X15728Y-13818D02*
X15452Y-13464D01*
X14507Y-10748D02*
X14507Y-13267D01*
X14507Y-13267D02*
X19547Y-13267D01*
X19547Y-13267D02*
X19547Y-10748D01*
X19547Y-10748D02*
X14507Y-10748D01*
X35354Y-11673D02*
X35354Y-13011D01*
X35354Y-13011D02*
X29488Y-13011D01*
X29488Y-11673D02*
X29488Y-13011D01*
X29488Y-10748D02*
X35354Y-10748D01*
X35354Y-11673D02*
X35354Y-10748D01*
X29488Y-11673D02*
X29488Y-10748D01*
G54D11*
X38696Y-32686D02*
X39020Y-32686D01*
X39058Y-32667D01*
X39077Y-32648D01*
X39096Y-32610D01*
X39096Y-32534D01*
X39077Y-32496D01*
X39058Y-32477D01*
X39020Y-32458D01*
X38696Y-32458D01*
X38735Y-32286D02*
X38715Y-32267D01*
X38696Y-32229D01*
X38696Y-32134D01*
X38715Y-32096D01*
X38735Y-32077D01*
X38773Y-32058D01*
X38811Y-32058D01*
X38868Y-32077D01*
X39096Y-32305D01*
X39096Y-32058D01*
G54D12*
X31777Y-33674D02*
X32377Y-33274D01*
X31777Y-33274D02*
X32377Y-33674D01*
X32063Y-32846D02*
X32092Y-32760D01*
X32120Y-32731D01*
X32177Y-32703D01*
X32263Y-32703D01*
X32320Y-32731D01*
X32349Y-32760D01*
X32377Y-32817D01*
X32377Y-33046D01*
X31777Y-33046D01*
X31777Y-32846D01*
X31806Y-32789D01*
X31835Y-32760D01*
X31892Y-32731D01*
X31949Y-32731D01*
X32006Y-32760D01*
X32035Y-32789D01*
X32063Y-32846D01*
X32063Y-33046D01*
X32063Y-32446D02*
X32063Y-32246D01*
X32377Y-32160D02*
X32377Y-32446D01*
X31777Y-32446D01*
X31777Y-32160D01*
X32063Y-31903D02*
X32063Y-31703D01*
X32377Y-31617D02*
X32377Y-31903D01*
X31777Y-31903D01*
X31777Y-31617D01*
G54D10*
X28609Y-36245D02*
X28609Y-36058D01*
X28722Y-36283D02*
X28328Y-36152D01*
X28722Y-36020D01*
X28722Y-35889D02*
X28328Y-35889D01*
X28328Y-35795D01*
X28347Y-35739D01*
X28384Y-35702D01*
X28422Y-35683D01*
X28497Y-35664D01*
X28553Y-35664D01*
X28628Y-35683D01*
X28666Y-35702D01*
X28703Y-35739D01*
X28722Y-35795D01*
X28722Y-35889D01*
X28459Y-35327D02*
X28722Y-35327D01*
X28309Y-35420D02*
X28591Y-35514D01*
X28591Y-35270D01*
X29472Y-35983D02*
X29491Y-36002D01*
X29509Y-36058D01*
X29509Y-36095D01*
X29491Y-36152D01*
X29453Y-36189D01*
X29416Y-36208D01*
X29341Y-36227D01*
X29284Y-36227D01*
X29209Y-36208D01*
X29172Y-36189D01*
X29134Y-36152D01*
X29116Y-36095D01*
X29116Y-36058D01*
X29134Y-36002D01*
X29153Y-35983D01*
X29116Y-35870D02*
X29116Y-35645D01*
X29509Y-35758D02*
X29116Y-35758D01*
X29491Y-35533D02*
X29509Y-35477D01*
X29509Y-35383D01*
X29491Y-35345D01*
X29472Y-35327D01*
X29434Y-35308D01*
X29397Y-35308D01*
X29359Y-35327D01*
X29341Y-35345D01*
X29322Y-35383D01*
X29303Y-35458D01*
X29284Y-35495D01*
X29266Y-35514D01*
X29228Y-35533D01*
X29191Y-35533D01*
X29153Y-35514D01*
X29134Y-35495D01*
X29116Y-35458D01*
X29116Y-35364D01*
X29134Y-35308D01*
X29942Y-36129D02*
X29942Y-36054D01*
X29961Y-36017D01*
X29999Y-35979D01*
X30074Y-35960D01*
X30205Y-35960D01*
X30280Y-35979D01*
X30317Y-36017D01*
X30336Y-36054D01*
X30336Y-36129D01*
X30317Y-36167D01*
X30280Y-36204D01*
X30205Y-36223D01*
X30074Y-36223D01*
X29999Y-36204D01*
X29961Y-36167D01*
X29942Y-36129D01*
X30336Y-35792D02*
X29942Y-35792D01*
X30336Y-35567D01*
X29942Y-35567D01*
X30690Y-36245D02*
X31084Y-36114D01*
X30690Y-35983D01*
X31084Y-35627D02*
X30897Y-35758D01*
X31084Y-35852D02*
X30690Y-35852D01*
X30690Y-35702D01*
X30709Y-35664D01*
X30728Y-35645D01*
X30765Y-35627D01*
X30822Y-35627D01*
X30859Y-35645D01*
X30878Y-35664D01*
X30897Y-35702D01*
X30897Y-35852D01*
X30878Y-35458D02*
X30878Y-35327D01*
X31084Y-35270D02*
X31084Y-35458D01*
X30690Y-35458D01*
X30690Y-35270D01*
X30878Y-34970D02*
X30878Y-35102D01*
X31084Y-35102D02*
X30690Y-35102D01*
X30690Y-34914D01*
X31798Y-36206D02*
X31798Y-36018D01*
X31911Y-36243D02*
X31517Y-36112D01*
X31911Y-35981D01*
X31911Y-35850D02*
X31517Y-35850D01*
X31517Y-35756D01*
X31536Y-35700D01*
X31573Y-35662D01*
X31611Y-35643D01*
X31686Y-35625D01*
X31742Y-35625D01*
X31817Y-35643D01*
X31855Y-35662D01*
X31892Y-35700D01*
X31911Y-35756D01*
X31911Y-35850D01*
X31517Y-35269D02*
X31517Y-35456D01*
X31705Y-35475D01*
X31686Y-35456D01*
X31667Y-35419D01*
X31667Y-35325D01*
X31686Y-35287D01*
X31705Y-35269D01*
X31742Y-35250D01*
X31836Y-35250D01*
X31873Y-35269D01*
X31892Y-35287D01*
X31911Y-35325D01*
X31911Y-35419D01*
X31892Y-35456D01*
X31873Y-35475D01*
X32659Y-35983D02*
X32471Y-36114D01*
X32659Y-36208D02*
X32265Y-36208D01*
X32265Y-36058D01*
X32284Y-36020D01*
X32303Y-36002D01*
X32340Y-35983D01*
X32396Y-35983D01*
X32434Y-36002D01*
X32453Y-36020D01*
X32471Y-36058D01*
X32471Y-36208D01*
X32265Y-35870D02*
X32265Y-35645D01*
X32659Y-35758D02*
X32265Y-35758D01*
X32640Y-35533D02*
X32659Y-35477D01*
X32659Y-35383D01*
X32640Y-35345D01*
X32621Y-35327D01*
X32584Y-35308D01*
X32546Y-35308D01*
X32509Y-35327D01*
X32490Y-35345D01*
X32471Y-35383D01*
X32453Y-35458D01*
X32434Y-35495D01*
X32415Y-35514D01*
X32378Y-35533D01*
X32340Y-35533D01*
X32303Y-35514D01*
X32284Y-35495D01*
X32265Y-35458D01*
X32265Y-35364D01*
X32284Y-35308D01*
X33373Y-36245D02*
X33373Y-36058D01*
X33486Y-36283D02*
X33092Y-36152D01*
X33486Y-36020D01*
X33486Y-35889D02*
X33092Y-35889D01*
X33092Y-35795D01*
X33111Y-35739D01*
X33148Y-35702D01*
X33186Y-35683D01*
X33261Y-35664D01*
X33317Y-35664D01*
X33392Y-35683D01*
X33429Y-35702D01*
X33467Y-35739D01*
X33486Y-35795D01*
X33486Y-35889D01*
X33092Y-35533D02*
X33092Y-35289D01*
X33242Y-35420D01*
X33242Y-35364D01*
X33261Y-35327D01*
X33279Y-35308D01*
X33317Y-35289D01*
X33411Y-35289D01*
X33448Y-35308D01*
X33467Y-35327D01*
X33486Y-35364D01*
X33486Y-35477D01*
X33467Y-35514D01*
X33448Y-35533D01*
X34161Y-36245D02*
X34161Y-36058D01*
X34273Y-36283D02*
X33879Y-36152D01*
X34273Y-36020D01*
X34273Y-35889D02*
X33879Y-35889D01*
X33879Y-35795D01*
X33898Y-35739D01*
X33936Y-35702D01*
X33973Y-35683D01*
X34048Y-35664D01*
X34104Y-35664D01*
X34179Y-35683D01*
X34217Y-35702D01*
X34254Y-35739D01*
X34273Y-35795D01*
X34273Y-35889D01*
X33917Y-35514D02*
X33898Y-35495D01*
X33879Y-35458D01*
X33879Y-35364D01*
X33898Y-35327D01*
X33917Y-35308D01*
X33954Y-35289D01*
X33992Y-35289D01*
X34048Y-35308D01*
X34273Y-35533D01*
X34273Y-35289D01*
X34948Y-36245D02*
X34948Y-36058D01*
X35060Y-36283D02*
X34667Y-36152D01*
X35060Y-36020D01*
X35060Y-35889D02*
X34667Y-35889D01*
X34667Y-35795D01*
X34685Y-35739D01*
X34723Y-35702D01*
X34760Y-35683D01*
X34835Y-35664D01*
X34892Y-35664D01*
X34967Y-35683D01*
X35004Y-35702D01*
X35042Y-35739D01*
X35060Y-35795D01*
X35060Y-35889D01*
X35060Y-35289D02*
X35060Y-35514D01*
X35060Y-35402D02*
X34667Y-35402D01*
X34723Y-35439D01*
X34760Y-35477D01*
X34779Y-35514D01*
X35735Y-36245D02*
X35735Y-36058D01*
X35848Y-36283D02*
X35454Y-36152D01*
X35848Y-36020D01*
X35848Y-35889D02*
X35454Y-35889D01*
X35454Y-35795D01*
X35473Y-35739D01*
X35510Y-35702D01*
X35548Y-35683D01*
X35623Y-35664D01*
X35679Y-35664D01*
X35754Y-35683D01*
X35792Y-35702D01*
X35829Y-35739D01*
X35848Y-35795D01*
X35848Y-35889D01*
X35454Y-35420D02*
X35454Y-35383D01*
X35473Y-35345D01*
X35492Y-35327D01*
X35529Y-35308D01*
X35604Y-35289D01*
X35698Y-35289D01*
X35773Y-35308D01*
X35810Y-35327D01*
X35829Y-35345D01*
X35848Y-35383D01*
X35848Y-35420D01*
X35829Y-35458D01*
X35810Y-35477D01*
X35773Y-35495D01*
X35698Y-35514D01*
X35604Y-35514D01*
X35529Y-35495D01*
X35492Y-35477D01*
X35473Y-35458D01*
X35454Y-35420D01*
X28386Y-29335D02*
X28368Y-29372D01*
X28368Y-29429D01*
X28386Y-29485D01*
X28424Y-29522D01*
X28461Y-29541D01*
X28536Y-29560D01*
X28592Y-29560D01*
X28667Y-29541D01*
X28705Y-29522D01*
X28742Y-29485D01*
X28761Y-29429D01*
X28761Y-29391D01*
X28742Y-29335D01*
X28724Y-29316D01*
X28592Y-29316D01*
X28592Y-29391D01*
X28761Y-29147D02*
X28368Y-29147D01*
X28761Y-28922D01*
X28368Y-28922D01*
X28761Y-28735D02*
X28368Y-28735D01*
X28368Y-28641D01*
X28386Y-28585D01*
X28424Y-28547D01*
X28461Y-28529D01*
X28536Y-28510D01*
X28592Y-28510D01*
X28667Y-28529D01*
X28705Y-28547D01*
X28742Y-28585D01*
X28761Y-28641D01*
X28761Y-28735D01*
X29549Y-29446D02*
X29155Y-29446D01*
X29155Y-29352D01*
X29174Y-29296D01*
X29211Y-29258D01*
X29249Y-29239D01*
X29324Y-29221D01*
X29380Y-29221D01*
X29455Y-29239D01*
X29492Y-29258D01*
X29530Y-29296D01*
X29549Y-29352D01*
X29549Y-29446D01*
X29155Y-29108D02*
X29155Y-28883D01*
X29549Y-28996D02*
X29155Y-28996D01*
X29549Y-28527D02*
X29361Y-28658D01*
X29549Y-28752D02*
X29155Y-28752D01*
X29155Y-28602D01*
X29174Y-28564D01*
X29192Y-28546D01*
X29230Y-28527D01*
X29286Y-28527D01*
X29324Y-28546D01*
X29342Y-28564D01*
X29361Y-28602D01*
X29361Y-28752D01*
X30336Y-29230D02*
X30149Y-29361D01*
X30336Y-29455D02*
X29942Y-29455D01*
X29942Y-29305D01*
X29961Y-29267D01*
X29980Y-29249D01*
X30017Y-29230D01*
X30074Y-29230D01*
X30111Y-29249D01*
X30130Y-29267D01*
X30149Y-29305D01*
X30149Y-29455D01*
X30317Y-29080D02*
X30336Y-29024D01*
X30336Y-28930D01*
X30317Y-28892D01*
X30299Y-28874D01*
X30261Y-28855D01*
X30224Y-28855D01*
X30186Y-28874D01*
X30167Y-28892D01*
X30149Y-28930D01*
X30130Y-29005D01*
X30111Y-29042D01*
X30092Y-29061D01*
X30055Y-29080D01*
X30017Y-29080D01*
X29980Y-29061D01*
X29961Y-29042D01*
X29942Y-29005D01*
X29942Y-28911D01*
X29961Y-28855D01*
X29942Y-28742D02*
X30336Y-28611D01*
X29942Y-28480D01*
X31123Y-30012D02*
X30730Y-30012D01*
X30730Y-29862D01*
X30748Y-29824D01*
X30767Y-29805D01*
X30805Y-29787D01*
X30861Y-29787D01*
X30898Y-29805D01*
X30917Y-29824D01*
X30936Y-29862D01*
X30936Y-30012D01*
X30730Y-29655D02*
X31123Y-29562D01*
X30842Y-29487D01*
X31123Y-29412D01*
X30730Y-29318D01*
X31123Y-29168D02*
X30730Y-29168D01*
X31011Y-29037D01*
X30730Y-28906D01*
X31123Y-28906D01*
X31123Y-28512D02*
X31123Y-28737D01*
X31123Y-28624D02*
X30730Y-28624D01*
X30786Y-28662D01*
X30823Y-28699D01*
X30842Y-28737D01*
X31911Y-30012D02*
X31517Y-30012D01*
X31517Y-29862D01*
X31536Y-29824D01*
X31555Y-29805D01*
X31592Y-29787D01*
X31648Y-29787D01*
X31686Y-29805D01*
X31705Y-29824D01*
X31723Y-29862D01*
X31723Y-30012D01*
X31517Y-29655D02*
X31911Y-29562D01*
X31630Y-29487D01*
X31911Y-29412D01*
X31517Y-29318D01*
X31911Y-29168D02*
X31517Y-29168D01*
X31798Y-29037D01*
X31517Y-28906D01*
X31911Y-28906D01*
X31517Y-28643D02*
X31517Y-28606D01*
X31536Y-28568D01*
X31555Y-28549D01*
X31592Y-28531D01*
X31667Y-28512D01*
X31761Y-28512D01*
X31836Y-28531D01*
X31873Y-28549D01*
X31892Y-28568D01*
X31911Y-28606D01*
X31911Y-28643D01*
X31892Y-28681D01*
X31873Y-28699D01*
X31836Y-28718D01*
X31761Y-28737D01*
X31667Y-28737D01*
X31592Y-28718D01*
X31555Y-28699D01*
X31536Y-28681D01*
X31517Y-28643D01*
X32659Y-29172D02*
X32471Y-29303D01*
X32659Y-29397D02*
X32265Y-29397D01*
X32265Y-29247D01*
X32284Y-29209D01*
X32303Y-29191D01*
X32340Y-29172D01*
X32396Y-29172D01*
X32434Y-29191D01*
X32453Y-29209D01*
X32471Y-29247D01*
X32471Y-29397D01*
X32640Y-29022D02*
X32659Y-28966D01*
X32659Y-28872D01*
X32640Y-28834D01*
X32621Y-28816D01*
X32584Y-28797D01*
X32546Y-28797D01*
X32509Y-28816D01*
X32490Y-28834D01*
X32471Y-28872D01*
X32453Y-28947D01*
X32434Y-28984D01*
X32415Y-29003D01*
X32378Y-29022D01*
X32340Y-29022D01*
X32303Y-29003D01*
X32284Y-28984D01*
X32265Y-28947D01*
X32265Y-28853D01*
X32284Y-28797D01*
X32265Y-28684D02*
X32265Y-28459D01*
X32659Y-28572D02*
X32265Y-28572D01*
X33486Y-29474D02*
X33092Y-29474D01*
X33092Y-29380D01*
X33111Y-29324D01*
X33148Y-29286D01*
X33186Y-29267D01*
X33261Y-29249D01*
X33317Y-29249D01*
X33392Y-29267D01*
X33429Y-29286D01*
X33467Y-29324D01*
X33486Y-29380D01*
X33486Y-29474D01*
X33092Y-29005D02*
X33092Y-28967D01*
X33111Y-28930D01*
X33129Y-28911D01*
X33167Y-28892D01*
X33242Y-28874D01*
X33336Y-28874D01*
X33411Y-28892D01*
X33448Y-28911D01*
X33467Y-28930D01*
X33486Y-28967D01*
X33486Y-29005D01*
X33467Y-29042D01*
X33448Y-29061D01*
X33411Y-29080D01*
X33336Y-29099D01*
X33242Y-29099D01*
X33167Y-29080D01*
X33129Y-29061D01*
X33111Y-29042D01*
X33092Y-29005D01*
X33261Y-28649D02*
X33242Y-28686D01*
X33223Y-28705D01*
X33186Y-28724D01*
X33167Y-28724D01*
X33129Y-28705D01*
X33111Y-28686D01*
X33092Y-28649D01*
X33092Y-28574D01*
X33111Y-28536D01*
X33129Y-28517D01*
X33167Y-28499D01*
X33186Y-28499D01*
X33223Y-28517D01*
X33242Y-28536D01*
X33261Y-28574D01*
X33261Y-28649D01*
X33279Y-28686D01*
X33298Y-28705D01*
X33336Y-28724D01*
X33411Y-28724D01*
X33448Y-28705D01*
X33467Y-28686D01*
X33486Y-28649D01*
X33486Y-28574D01*
X33467Y-28536D01*
X33448Y-28517D01*
X33411Y-28499D01*
X33336Y-28499D01*
X33298Y-28517D01*
X33279Y-28536D01*
X33261Y-28574D01*
X34273Y-29320D02*
X33879Y-29320D01*
X33879Y-29226D01*
X33898Y-29170D01*
X33936Y-29132D01*
X33973Y-29114D01*
X34048Y-29095D01*
X34104Y-29095D01*
X34179Y-29114D01*
X34217Y-29132D01*
X34254Y-29170D01*
X34273Y-29226D01*
X34273Y-29320D01*
X34273Y-28926D02*
X33879Y-28926D01*
X34273Y-28739D02*
X33879Y-28739D01*
X34273Y-28514D01*
X33879Y-28514D01*
X35021Y-29858D02*
X34627Y-29858D01*
X34627Y-29764D01*
X34646Y-29708D01*
X34684Y-29670D01*
X34721Y-29652D01*
X34796Y-29633D01*
X34852Y-29633D01*
X34927Y-29652D01*
X34965Y-29670D01*
X35002Y-29708D01*
X35021Y-29764D01*
X35021Y-29858D01*
X34627Y-29389D02*
X34627Y-29314D01*
X34646Y-29277D01*
X34684Y-29239D01*
X34759Y-29221D01*
X34890Y-29221D01*
X34965Y-29239D01*
X35002Y-29277D01*
X35021Y-29314D01*
X35021Y-29389D01*
X35002Y-29427D01*
X34965Y-29464D01*
X34890Y-29483D01*
X34759Y-29483D01*
X34684Y-29464D01*
X34646Y-29427D01*
X34627Y-29389D01*
X34627Y-29052D02*
X34946Y-29052D01*
X34984Y-29033D01*
X35002Y-29014D01*
X35021Y-28977D01*
X35021Y-28902D01*
X35002Y-28864D01*
X34984Y-28846D01*
X34946Y-28827D01*
X34627Y-28827D01*
X34627Y-28696D02*
X34627Y-28471D01*
X35021Y-28583D02*
X34627Y-28583D01*
X35434Y-29580D02*
X35828Y-29448D01*
X35434Y-29317D01*
X35791Y-28961D02*
X35809Y-28980D01*
X35828Y-29036D01*
X35828Y-29073D01*
X35809Y-29130D01*
X35772Y-29167D01*
X35734Y-29186D01*
X35659Y-29205D01*
X35603Y-29205D01*
X35528Y-29186D01*
X35491Y-29167D01*
X35453Y-29130D01*
X35434Y-29073D01*
X35434Y-29036D01*
X35453Y-28980D01*
X35472Y-28961D01*
X35791Y-28567D02*
X35809Y-28586D01*
X35828Y-28642D01*
X35828Y-28680D01*
X35809Y-28736D01*
X35772Y-28773D01*
X35734Y-28792D01*
X35659Y-28811D01*
X35603Y-28811D01*
X35528Y-28792D01*
X35491Y-28773D01*
X35453Y-28736D01*
X35434Y-28680D01*
X35434Y-28642D01*
X35453Y-28586D01*
X35472Y-28567D01*
G54D11*
X40289Y-31257D02*
X40289Y-31581D01*
X40308Y-31619D01*
X40327Y-31638D01*
X40365Y-31657D01*
X40442Y-31657D01*
X40480Y-31638D01*
X40499Y-31619D01*
X40518Y-31581D01*
X40518Y-31257D01*
X40670Y-31257D02*
X40937Y-31257D01*
X40765Y-31657D01*
X21795Y-32311D02*
X21795Y-32635D01*
X21814Y-32673D01*
X21833Y-32692D01*
X21871Y-32711D01*
X21947Y-32711D01*
X21985Y-32692D01*
X22004Y-32673D01*
X22023Y-32635D01*
X22023Y-32311D01*
X22404Y-32311D02*
X22214Y-32311D01*
X22195Y-32502D01*
X22214Y-32483D01*
X22252Y-32464D01*
X22347Y-32464D01*
X22385Y-32483D01*
X22404Y-32502D01*
X22423Y-32540D01*
X22423Y-32635D01*
X22404Y-32673D01*
X22385Y-32692D01*
X22347Y-32711D01*
X22252Y-32711D01*
X22214Y-32692D01*
X22195Y-32673D01*
X20268Y-31481D02*
X20268Y-31081D01*
X20420Y-31081D01*
X20458Y-31100D01*
X20477Y-31120D01*
X20496Y-31158D01*
X20496Y-31215D01*
X20477Y-31253D01*
X20458Y-31272D01*
X20420Y-31291D01*
X20268Y-31291D01*
X20744Y-31081D02*
X20820Y-31081D01*
X20858Y-31100D01*
X20896Y-31139D01*
X20915Y-31215D01*
X20915Y-31348D01*
X20896Y-31424D01*
X20858Y-31462D01*
X20820Y-31481D01*
X20744Y-31481D01*
X20706Y-31462D01*
X20668Y-31424D01*
X20649Y-31348D01*
X20649Y-31215D01*
X20668Y-31139D01*
X20706Y-31100D01*
X20744Y-31081D01*
X21277Y-31481D02*
X21087Y-31481D01*
X21087Y-31081D01*
X21487Y-31081D02*
X21563Y-31081D01*
X21601Y-31100D01*
X21639Y-31139D01*
X21658Y-31215D01*
X21658Y-31348D01*
X21639Y-31424D01*
X21601Y-31462D01*
X21563Y-31481D01*
X21487Y-31481D01*
X21449Y-31462D01*
X21410Y-31424D01*
X21391Y-31348D01*
X21391Y-31215D01*
X21410Y-31139D01*
X21449Y-31100D01*
X21487Y-31081D01*
X22020Y-31481D02*
X21830Y-31481D01*
X21830Y-31081D01*
X22153Y-31081D02*
X22153Y-31405D01*
X22172Y-31443D01*
X22191Y-31462D01*
X22230Y-31481D01*
X22306Y-31481D01*
X22344Y-31462D01*
X22363Y-31443D01*
X22382Y-31405D01*
X22382Y-31081D01*
X22477Y-31520D02*
X22782Y-31520D01*
X22839Y-31081D02*
X23087Y-31081D01*
X22953Y-31234D01*
X23010Y-31234D01*
X23049Y-31253D01*
X23068Y-31272D01*
X23087Y-31310D01*
X23087Y-31405D01*
X23068Y-31443D01*
X23049Y-31462D01*
X23010Y-31481D01*
X22896Y-31481D01*
X22858Y-31462D01*
X22839Y-31443D01*
X23201Y-31081D02*
X23334Y-31481D01*
X23468Y-31081D01*
X23563Y-31081D02*
X23810Y-31081D01*
X23677Y-31234D01*
X23734Y-31234D01*
X23772Y-31253D01*
X23791Y-31272D01*
X23810Y-31310D01*
X23810Y-31405D01*
X23791Y-31443D01*
X23772Y-31462D01*
X23734Y-31481D01*
X23620Y-31481D01*
X23582Y-31462D01*
X23563Y-31443D01*
G54D10*
X23355Y-29523D02*
X23749Y-29392D01*
X23355Y-29261D01*
X23355Y-29054D02*
X23355Y-28979D01*
X23374Y-28942D01*
X23411Y-28904D01*
X23486Y-28886D01*
X23618Y-28886D01*
X23693Y-28904D01*
X23730Y-28942D01*
X23749Y-28979D01*
X23749Y-29054D01*
X23730Y-29092D01*
X23693Y-29129D01*
X23618Y-29148D01*
X23486Y-29148D01*
X23411Y-29129D01*
X23374Y-29092D01*
X23355Y-29054D01*
X23355Y-28717D02*
X23674Y-28717D01*
X23711Y-28698D01*
X23730Y-28680D01*
X23749Y-28642D01*
X23749Y-28567D01*
X23730Y-28530D01*
X23711Y-28511D01*
X23674Y-28492D01*
X23355Y-28492D01*
X23355Y-28361D02*
X23355Y-28136D01*
X23749Y-28248D02*
X23355Y-28248D01*
X22354Y-28989D02*
X22335Y-29027D01*
X22335Y-29083D01*
X22354Y-29139D01*
X22391Y-29177D01*
X22429Y-29196D01*
X22504Y-29214D01*
X22560Y-29214D01*
X22635Y-29196D01*
X22673Y-29177D01*
X22710Y-29139D01*
X22729Y-29083D01*
X22729Y-29046D01*
X22710Y-28989D01*
X22691Y-28971D01*
X22560Y-28971D01*
X22560Y-29046D01*
X22729Y-28802D02*
X22335Y-28802D01*
X22729Y-28577D01*
X22335Y-28577D01*
X22729Y-28390D02*
X22335Y-28390D01*
X22335Y-28296D01*
X22354Y-28240D01*
X22391Y-28202D01*
X22429Y-28183D01*
X22504Y-28165D01*
X22560Y-28165D01*
X22635Y-28183D01*
X22673Y-28202D01*
X22710Y-28240D01*
X22729Y-28296D01*
X22729Y-28390D01*
X21375Y-29021D02*
X21769Y-28889D01*
X21375Y-28758D01*
X21769Y-28627D02*
X21375Y-28627D01*
X21769Y-28440D02*
X21375Y-28440D01*
X21769Y-28215D01*
X21375Y-28215D01*
X20790Y-29631D02*
X20809Y-29575D01*
X20809Y-29481D01*
X20790Y-29444D01*
X20771Y-29425D01*
X20734Y-29406D01*
X20696Y-29406D01*
X20659Y-29425D01*
X20640Y-29444D01*
X20621Y-29481D01*
X20603Y-29556D01*
X20584Y-29594D01*
X20565Y-29613D01*
X20528Y-29631D01*
X20490Y-29631D01*
X20453Y-29613D01*
X20434Y-29594D01*
X20415Y-29556D01*
X20415Y-29463D01*
X20434Y-29406D01*
X20809Y-29238D02*
X20415Y-29238D01*
X20603Y-29238D02*
X20603Y-29013D01*
X20809Y-29013D02*
X20415Y-29013D01*
X20809Y-28825D02*
X20415Y-28825D01*
X20415Y-28731D01*
X20434Y-28675D01*
X20471Y-28638D01*
X20509Y-28619D01*
X20584Y-28600D01*
X20640Y-28600D01*
X20715Y-28619D01*
X20753Y-28638D01*
X20790Y-28675D01*
X20809Y-28731D01*
X20809Y-28825D01*
X20809Y-28431D02*
X20415Y-28431D01*
X20809Y-28206D01*
X20415Y-28206D01*
X20325Y-29706D02*
X20325Y-28113D01*
G54D11*
X16169Y-35795D02*
X15769Y-35795D01*
X15769Y-35642D01*
X15788Y-35604D01*
X15807Y-35585D01*
X15845Y-35566D01*
X15903Y-35566D01*
X15941Y-35585D01*
X15960Y-35604D01*
X15979Y-35642D01*
X15979Y-35795D01*
X15903Y-35223D02*
X16169Y-35223D01*
X15750Y-35319D02*
X16036Y-35414D01*
X16036Y-35166D01*
X21282Y-35895D02*
X20882Y-35895D01*
X20882Y-35742D01*
X20901Y-35704D01*
X20920Y-35685D01*
X20958Y-35666D01*
X21015Y-35666D01*
X21053Y-35685D01*
X21072Y-35704D01*
X21091Y-35742D01*
X21091Y-35895D01*
X20882Y-35533D02*
X20882Y-35266D01*
X21282Y-35438D01*
X23193Y-35925D02*
X22793Y-35925D01*
X22793Y-35772D01*
X22812Y-35734D01*
X22831Y-35715D01*
X22869Y-35696D01*
X22926Y-35696D01*
X22964Y-35715D01*
X22983Y-35734D01*
X23002Y-35772D01*
X23002Y-35925D01*
X22793Y-35334D02*
X22793Y-35525D01*
X22983Y-35544D01*
X22964Y-35525D01*
X22945Y-35487D01*
X22945Y-35391D01*
X22964Y-35353D01*
X22983Y-35334D01*
X23021Y-35315D01*
X23117Y-35315D01*
X23155Y-35334D01*
X23174Y-35353D01*
X23193Y-35391D01*
X23193Y-35487D01*
X23174Y-35525D01*
X23155Y-35544D01*
X19177Y-35845D02*
X18777Y-35845D01*
X18777Y-35692D01*
X18796Y-35654D01*
X18815Y-35635D01*
X18853Y-35616D01*
X18910Y-35616D01*
X18949Y-35635D01*
X18968Y-35654D01*
X18987Y-35692D01*
X18987Y-35845D01*
X19177Y-35426D02*
X19177Y-35349D01*
X19158Y-35311D01*
X19139Y-35292D01*
X19082Y-35254D01*
X19006Y-35235D01*
X18853Y-35235D01*
X18815Y-35254D01*
X18796Y-35273D01*
X18777Y-35311D01*
X18777Y-35388D01*
X18796Y-35426D01*
X18815Y-35445D01*
X18853Y-35464D01*
X18949Y-35464D01*
X18987Y-35445D01*
X19006Y-35426D01*
X19025Y-35388D01*
X19025Y-35311D01*
X19006Y-35273D01*
X18987Y-35254D01*
X18949Y-35235D01*
X18561Y-27704D02*
X18885Y-27704D01*
X18923Y-27685D01*
X18942Y-27666D01*
X18961Y-27628D01*
X18961Y-27552D01*
X18942Y-27514D01*
X18923Y-27495D01*
X18885Y-27476D01*
X18561Y-27476D01*
X18695Y-27114D02*
X18961Y-27114D01*
X18542Y-27209D02*
X18828Y-27304D01*
X18828Y-27057D01*
G54D12*
X13892Y-31949D02*
X13892Y-31835D01*
X13921Y-31778D01*
X13978Y-31721D01*
X14092Y-31692D01*
X14292Y-31692D01*
X14407Y-31721D01*
X14464Y-31778D01*
X14492Y-31835D01*
X14492Y-31949D01*
X14464Y-32007D01*
X14407Y-32064D01*
X14292Y-32092D01*
X14092Y-32092D01*
X13978Y-32064D01*
X13921Y-32007D01*
X13892Y-31949D01*
X14492Y-31435D02*
X13892Y-31435D01*
X13892Y-31207D01*
X13921Y-31150D01*
X13950Y-31121D01*
X14007Y-31092D01*
X14092Y-31092D01*
X14150Y-31121D01*
X14178Y-31150D01*
X14207Y-31207D01*
X14207Y-31435D01*
X14178Y-30835D02*
X14178Y-30635D01*
X14492Y-30550D02*
X14492Y-30835D01*
X13892Y-30835D01*
X13892Y-30550D01*
X14492Y-30292D02*
X13892Y-30292D01*
X14492Y-29950D01*
X13892Y-29950D01*
X14492Y-29378D02*
X14492Y-29664D01*
X13892Y-29664D01*
X13892Y-29064D02*
X13892Y-28950D01*
X13921Y-28892D01*
X13978Y-28835D01*
X14092Y-28807D01*
X14292Y-28807D01*
X14407Y-28835D01*
X14464Y-28892D01*
X14492Y-28950D01*
X14492Y-29064D01*
X14464Y-29121D01*
X14407Y-29178D01*
X14292Y-29207D01*
X14092Y-29207D01*
X13978Y-29178D01*
X13921Y-29121D01*
X13892Y-29064D01*
X13921Y-28235D02*
X13892Y-28292D01*
X13892Y-28378D01*
X13921Y-28464D01*
X13978Y-28521D01*
X14035Y-28550D01*
X14150Y-28578D01*
X14235Y-28578D01*
X14350Y-28550D01*
X14407Y-28521D01*
X14464Y-28464D01*
X14492Y-28378D01*
X14492Y-28321D01*
X14464Y-28235D01*
X14435Y-28207D01*
X14235Y-28207D01*
X14235Y-28321D01*
G54D10*
X43794Y-32916D02*
X43850Y-32934D01*
X43944Y-32934D01*
X43982Y-32916D01*
X44000Y-32897D01*
X44019Y-32859D01*
X44019Y-32822D01*
X44000Y-32784D01*
X43982Y-32766D01*
X43944Y-32747D01*
X43869Y-32728D01*
X43832Y-32709D01*
X43813Y-32691D01*
X43794Y-32653D01*
X43794Y-32616D01*
X43813Y-32578D01*
X43832Y-32559D01*
X43869Y-32541D01*
X43963Y-32541D01*
X44019Y-32559D01*
X44394Y-32934D02*
X44169Y-32934D01*
X44281Y-32934D02*
X44281Y-32541D01*
X44244Y-32597D01*
X44206Y-32634D01*
X44169Y-32653D01*
G54D11*
X13245Y-22942D02*
X13302Y-22961D01*
X13397Y-22961D01*
X13435Y-22942D01*
X13454Y-22923D01*
X13473Y-22885D01*
X13473Y-22847D01*
X13454Y-22809D01*
X13435Y-22790D01*
X13397Y-22771D01*
X13321Y-22752D01*
X13283Y-22733D01*
X13264Y-22714D01*
X13245Y-22676D01*
X13245Y-22638D01*
X13264Y-22600D01*
X13283Y-22580D01*
X13321Y-22561D01*
X13416Y-22561D01*
X13473Y-22580D01*
X13626Y-22600D02*
X13645Y-22580D01*
X13683Y-22561D01*
X13778Y-22561D01*
X13816Y-22580D01*
X13835Y-22600D01*
X13854Y-22638D01*
X13854Y-22676D01*
X13835Y-22733D01*
X13607Y-22961D01*
X13854Y-22961D01*
X37726Y-13895D02*
X37726Y-14219D01*
X37745Y-14257D01*
X37764Y-14276D01*
X37802Y-14295D01*
X37879Y-14295D01*
X37917Y-14276D01*
X37936Y-14257D01*
X37955Y-14219D01*
X37955Y-13895D01*
X38355Y-14295D02*
X38126Y-14295D01*
X38241Y-14295D02*
X38241Y-13895D01*
X38202Y-13952D01*
X38164Y-13991D01*
X38126Y-14010D01*
G54D12*
X31992Y-14592D02*
X31935Y-14564D01*
X31849Y-14564D01*
X31764Y-14592D01*
X31706Y-14649D01*
X31678Y-14706D01*
X31649Y-14821D01*
X31649Y-14906D01*
X31678Y-15021D01*
X31706Y-15078D01*
X31764Y-15135D01*
X31849Y-15164D01*
X31906Y-15164D01*
X31992Y-15135D01*
X32021Y-15106D01*
X32021Y-14906D01*
X31906Y-14906D01*
X32278Y-15164D02*
X32278Y-14564D01*
X32506Y-14564D01*
X32564Y-14592D01*
X32592Y-14621D01*
X32621Y-14678D01*
X32621Y-14764D01*
X32592Y-14821D01*
X32564Y-14849D01*
X32506Y-14878D01*
X32278Y-14878D01*
X32849Y-15135D02*
X32935Y-15164D01*
X33078Y-15164D01*
X33135Y-15135D01*
X33164Y-15106D01*
X33192Y-15049D01*
X33192Y-14992D01*
X33164Y-14935D01*
X33135Y-14906D01*
X33078Y-14878D01*
X32964Y-14849D01*
X32906Y-14821D01*
X32878Y-14792D01*
X32849Y-14735D01*
X32849Y-14678D01*
X32878Y-14621D01*
X32906Y-14592D01*
X32964Y-14564D01*
X33106Y-14564D01*
X33192Y-14592D01*
G54D10*
X36827Y-25500D02*
X36433Y-25500D01*
X36433Y-25350D01*
X36452Y-25313D01*
X36471Y-25294D01*
X36508Y-25275D01*
X36564Y-25275D01*
X36602Y-25294D01*
X36621Y-25313D01*
X36639Y-25350D01*
X36639Y-25500D01*
X36827Y-25107D02*
X36433Y-25107D01*
X36433Y-24957D01*
X36452Y-24919D01*
X36471Y-24900D01*
X36508Y-24882D01*
X36564Y-24882D01*
X36602Y-24900D01*
X36621Y-24919D01*
X36639Y-24957D01*
X36639Y-25107D01*
X36808Y-24732D02*
X36827Y-24675D01*
X36827Y-24582D01*
X36808Y-24544D01*
X36789Y-24525D01*
X36752Y-24507D01*
X36714Y-24507D01*
X36677Y-24525D01*
X36658Y-24544D01*
X36639Y-24582D01*
X36621Y-24657D01*
X36602Y-24694D01*
X36583Y-24713D01*
X36546Y-24732D01*
X36508Y-24732D01*
X36471Y-24713D01*
X36452Y-24694D01*
X36433Y-24657D01*
X36433Y-24563D01*
X36452Y-24507D01*
X35423Y-25534D02*
X35817Y-25403D01*
X35423Y-25272D01*
X35817Y-25140D02*
X35423Y-25140D01*
X35817Y-24953D02*
X35423Y-24953D01*
X35817Y-24728D01*
X35423Y-24728D01*
X34422Y-25283D02*
X34403Y-25320D01*
X34403Y-25377D01*
X34422Y-25433D01*
X34460Y-25470D01*
X34497Y-25489D01*
X34572Y-25508D01*
X34628Y-25508D01*
X34703Y-25489D01*
X34741Y-25470D01*
X34778Y-25433D01*
X34797Y-25377D01*
X34797Y-25339D01*
X34778Y-25283D01*
X34759Y-25264D01*
X34628Y-25264D01*
X34628Y-25339D01*
X34797Y-25095D02*
X34403Y-25095D01*
X34797Y-24870D01*
X34403Y-24870D01*
X34797Y-24683D02*
X34403Y-24683D01*
X34403Y-24589D01*
X34422Y-24533D01*
X34460Y-24495D01*
X34497Y-24477D01*
X34572Y-24458D01*
X34628Y-24458D01*
X34703Y-24477D01*
X34741Y-24495D01*
X34778Y-24533D01*
X34797Y-24589D01*
X34797Y-24683D01*
X33787Y-25288D02*
X33599Y-25420D01*
X33787Y-25513D02*
X33393Y-25513D01*
X33393Y-25363D01*
X33412Y-25326D01*
X33431Y-25307D01*
X33468Y-25288D01*
X33524Y-25288D01*
X33562Y-25307D01*
X33581Y-25326D01*
X33599Y-25363D01*
X33599Y-25513D01*
X33393Y-25157D02*
X33787Y-24895D01*
X33393Y-24895D02*
X33787Y-25157D01*
X32413Y-25543D02*
X32413Y-25318D01*
X32807Y-25430D02*
X32413Y-25430D01*
X32413Y-25224D02*
X32807Y-24962D01*
X32413Y-24962D02*
X32807Y-25224D01*
X31601Y-25368D02*
X31601Y-25499D01*
X31807Y-25499D02*
X31413Y-25499D01*
X31413Y-25312D01*
X31807Y-25162D02*
X31413Y-25162D01*
X31413Y-25012D02*
X31807Y-24749D01*
X31413Y-24749D02*
X31807Y-25012D01*
X30413Y-25530D02*
X30807Y-25398D01*
X30413Y-25267D01*
X30601Y-25005D02*
X30619Y-24948D01*
X30638Y-24930D01*
X30676Y-24911D01*
X30732Y-24911D01*
X30769Y-24930D01*
X30788Y-24948D01*
X30807Y-24986D01*
X30807Y-25136D01*
X30413Y-25136D01*
X30413Y-25005D01*
X30432Y-24967D01*
X30451Y-24948D01*
X30488Y-24930D01*
X30526Y-24930D01*
X30563Y-24948D01*
X30582Y-24967D01*
X30601Y-25005D01*
X30601Y-25136D01*
X30694Y-24761D02*
X30694Y-24573D01*
X30807Y-24798D02*
X30413Y-24667D01*
X30807Y-24536D01*
X30413Y-24461D02*
X30413Y-24236D01*
X30807Y-24348D02*
X30413Y-24348D01*
X29591Y-25463D02*
X29591Y-25332D01*
X29797Y-25276D02*
X29797Y-25463D01*
X29403Y-25463D01*
X29403Y-25276D01*
X29797Y-25107D02*
X29403Y-25107D01*
X29797Y-24882D01*
X29403Y-24882D01*
X28423Y-25540D02*
X28423Y-25297D01*
X28573Y-25428D01*
X28573Y-25372D01*
X28592Y-25334D01*
X28611Y-25315D01*
X28648Y-25297D01*
X28742Y-25297D01*
X28779Y-25315D01*
X28798Y-25334D01*
X28817Y-25372D01*
X28817Y-25484D01*
X28798Y-25521D01*
X28779Y-25540D01*
X28423Y-25184D02*
X28817Y-25053D01*
X28423Y-24922D01*
X28423Y-24828D02*
X28423Y-24584D01*
X28573Y-24715D01*
X28573Y-24659D01*
X28592Y-24622D01*
X28611Y-24603D01*
X28648Y-24584D01*
X28742Y-24584D01*
X28779Y-24603D01*
X28798Y-24622D01*
X28817Y-24659D01*
X28817Y-24772D01*
X28798Y-24809D01*
X28779Y-24828D01*
G54D11*
X39961Y-23304D02*
X40285Y-23304D01*
X40323Y-23285D01*
X40342Y-23266D01*
X40361Y-23228D01*
X40361Y-23152D01*
X40342Y-23114D01*
X40323Y-23095D01*
X40285Y-23076D01*
X39961Y-23076D01*
X39961Y-22923D02*
X39961Y-22676D01*
X40114Y-22809D01*
X40114Y-22752D01*
X40133Y-22714D01*
X40152Y-22695D01*
X40190Y-22676D01*
X40285Y-22676D01*
X40323Y-22695D01*
X40342Y-22714D01*
X40361Y-22752D01*
X40361Y-22866D01*
X40342Y-22904D01*
X40323Y-22923D01*
G54D12*
X46142Y-23414D02*
X46142Y-23700D01*
X45542Y-23700D01*
X46085Y-22871D02*
X46114Y-22900D01*
X46142Y-22985D01*
X46142Y-23042D01*
X46114Y-23128D01*
X46057Y-23185D01*
X46000Y-23214D01*
X45885Y-23242D01*
X45800Y-23242D01*
X45685Y-23214D01*
X45628Y-23185D01*
X45571Y-23128D01*
X45542Y-23042D01*
X45542Y-22985D01*
X45571Y-22900D01*
X45600Y-22871D01*
X46142Y-22614D02*
X45542Y-22614D01*
X45542Y-22471D01*
X45571Y-22385D01*
X45628Y-22328D01*
X45685Y-22300D01*
X45800Y-22271D01*
X45885Y-22271D01*
X46000Y-22300D01*
X46057Y-22328D01*
X46114Y-22385D01*
X46142Y-22471D01*
X46142Y-22614D01*
G54D10*
X49560Y-26344D02*
X49522Y-26325D01*
X49466Y-26325D01*
X49410Y-26344D01*
X49372Y-26381D01*
X49353Y-26419D01*
X49335Y-26494D01*
X49335Y-26550D01*
X49353Y-26625D01*
X49372Y-26663D01*
X49410Y-26700D01*
X49466Y-26719D01*
X49503Y-26719D01*
X49560Y-26700D01*
X49578Y-26681D01*
X49578Y-26550D01*
X49503Y-26550D01*
X49747Y-26719D02*
X49747Y-26325D01*
X49972Y-26719D01*
X49972Y-26325D01*
X50159Y-26719D02*
X50159Y-26325D01*
X50253Y-26325D01*
X50309Y-26344D01*
X50347Y-26381D01*
X50366Y-26419D01*
X50384Y-26494D01*
X50384Y-26550D01*
X50366Y-26625D01*
X50347Y-26663D01*
X50309Y-26700D01*
X50253Y-26719D01*
X50159Y-26719D01*
X49528Y-25315D02*
X49660Y-25709D01*
X49791Y-25315D01*
X49922Y-25709D02*
X49922Y-25315D01*
X50109Y-25709D02*
X50109Y-25315D01*
X50334Y-25709D01*
X50334Y-25315D01*
X49412Y-24325D02*
X49656Y-24325D01*
X49525Y-24475D01*
X49581Y-24475D01*
X49618Y-24494D01*
X49637Y-24513D01*
X49656Y-24550D01*
X49656Y-24644D01*
X49637Y-24681D01*
X49618Y-24700D01*
X49581Y-24719D01*
X49468Y-24719D01*
X49431Y-24700D01*
X49412Y-24681D01*
X49768Y-24325D02*
X49900Y-24719D01*
X50031Y-24325D01*
X50124Y-24325D02*
X50368Y-24325D01*
X50237Y-24475D01*
X50293Y-24475D01*
X50331Y-24494D01*
X50349Y-24513D01*
X50368Y-24550D01*
X50368Y-24644D01*
X50349Y-24681D01*
X50331Y-24700D01*
X50293Y-24719D01*
X50181Y-24719D01*
X50143Y-24700D01*
X50124Y-24681D01*
X49974Y-23671D02*
X49955Y-23690D01*
X49899Y-23709D01*
X49861Y-23709D01*
X49805Y-23690D01*
X49768Y-23653D01*
X49749Y-23615D01*
X49730Y-23540D01*
X49730Y-23484D01*
X49749Y-23409D01*
X49768Y-23371D01*
X49805Y-23334D01*
X49861Y-23315D01*
X49899Y-23315D01*
X49955Y-23334D01*
X49974Y-23353D01*
X50124Y-23690D02*
X50180Y-23709D01*
X50274Y-23709D01*
X50311Y-23690D01*
X50330Y-23671D01*
X50349Y-23634D01*
X50349Y-23596D01*
X50330Y-23559D01*
X50311Y-23540D01*
X50274Y-23521D01*
X50199Y-23503D01*
X50161Y-23484D01*
X50143Y-23465D01*
X50124Y-23428D01*
X50124Y-23390D01*
X50143Y-23353D01*
X50161Y-23334D01*
X50199Y-23315D01*
X50293Y-23315D01*
X50349Y-23334D01*
X49694Y-22719D02*
X49563Y-22531D01*
X49469Y-22719D02*
X49469Y-22325D01*
X49619Y-22325D01*
X49656Y-22344D01*
X49675Y-22363D01*
X49694Y-22400D01*
X49694Y-22456D01*
X49675Y-22494D01*
X49656Y-22513D01*
X49619Y-22531D01*
X49469Y-22531D01*
X49844Y-22700D02*
X49900Y-22719D01*
X49994Y-22719D01*
X50031Y-22700D01*
X50050Y-22681D01*
X50069Y-22644D01*
X50069Y-22606D01*
X50050Y-22569D01*
X50031Y-22550D01*
X49994Y-22531D01*
X49919Y-22513D01*
X49881Y-22494D01*
X49863Y-22475D01*
X49844Y-22438D01*
X49844Y-22400D01*
X49863Y-22363D01*
X49881Y-22344D01*
X49919Y-22325D01*
X50013Y-22325D01*
X50069Y-22344D01*
X50181Y-22325D02*
X50406Y-22325D01*
X50294Y-22719D02*
X50294Y-22325D01*
X49730Y-21709D02*
X49730Y-21315D01*
X49823Y-21315D01*
X49880Y-21334D01*
X49917Y-21371D01*
X49936Y-21409D01*
X49955Y-21484D01*
X49955Y-21540D01*
X49936Y-21615D01*
X49917Y-21653D01*
X49880Y-21690D01*
X49823Y-21709D01*
X49730Y-21709D01*
X50348Y-21671D02*
X50329Y-21690D01*
X50273Y-21709D01*
X50236Y-21709D01*
X50179Y-21690D01*
X50142Y-21653D01*
X50123Y-21615D01*
X50104Y-21540D01*
X50104Y-21484D01*
X50123Y-21409D01*
X50142Y-21371D01*
X50179Y-21334D01*
X50236Y-21315D01*
X50273Y-21315D01*
X50329Y-21334D01*
X50348Y-21353D01*
X49665Y-20671D02*
X49646Y-20690D01*
X49590Y-20709D01*
X49553Y-20709D01*
X49496Y-20690D01*
X49459Y-20653D01*
X49440Y-20615D01*
X49421Y-20540D01*
X49421Y-20484D01*
X49440Y-20409D01*
X49459Y-20371D01*
X49496Y-20334D01*
X49553Y-20315D01*
X49590Y-20315D01*
X49646Y-20334D01*
X49665Y-20353D01*
X50021Y-20709D02*
X49834Y-20709D01*
X49834Y-20315D01*
X50153Y-20709D02*
X50153Y-20315D01*
X50378Y-20709D02*
X50209Y-20484D01*
X50378Y-20315D02*
X50153Y-20540D01*
X49169Y-19689D02*
X49169Y-19295D01*
X49263Y-19295D01*
X49319Y-19314D01*
X49356Y-19351D01*
X49375Y-19389D01*
X49394Y-19464D01*
X49394Y-19520D01*
X49375Y-19595D01*
X49356Y-19633D01*
X49319Y-19670D01*
X49263Y-19689D01*
X49169Y-19689D01*
X49544Y-19576D02*
X49731Y-19576D01*
X49506Y-19689D02*
X49638Y-19295D01*
X49769Y-19689D01*
X49844Y-19295D02*
X50069Y-19295D01*
X49956Y-19689D02*
X49956Y-19295D01*
X50181Y-19576D02*
X50369Y-19576D01*
X50144Y-19689D02*
X50275Y-19295D01*
X50406Y-19689D01*
G54D11*
X10264Y-17881D02*
X10264Y-17481D01*
X10417Y-17481D01*
X10455Y-17500D01*
X10474Y-17520D01*
X10493Y-17558D01*
X10493Y-17615D01*
X10474Y-17653D01*
X10455Y-17672D01*
X10417Y-17691D01*
X10264Y-17691D01*
X10836Y-17481D02*
X10760Y-17481D01*
X10721Y-17500D01*
X10702Y-17520D01*
X10664Y-17577D01*
X10645Y-17653D01*
X10645Y-17805D01*
X10664Y-17843D01*
X10683Y-17862D01*
X10721Y-17881D01*
X10798Y-17881D01*
X10836Y-17862D01*
X10855Y-17843D01*
X10874Y-17805D01*
X10874Y-17710D01*
X10855Y-17672D01*
X10836Y-17653D01*
X10798Y-17634D01*
X10721Y-17634D01*
X10683Y-17653D01*
X10664Y-17672D01*
X10645Y-17710D01*
X14411Y-35845D02*
X14011Y-35845D01*
X14011Y-35692D01*
X14030Y-35654D01*
X14050Y-35635D01*
X14088Y-35616D01*
X14145Y-35616D01*
X14183Y-35635D01*
X14202Y-35654D01*
X14221Y-35692D01*
X14221Y-35845D01*
X14183Y-35388D02*
X14164Y-35426D01*
X14145Y-35445D01*
X14107Y-35464D01*
X14088Y-35464D01*
X14050Y-35445D01*
X14030Y-35426D01*
X14011Y-35388D01*
X14011Y-35311D01*
X14030Y-35273D01*
X14050Y-35254D01*
X14088Y-35235D01*
X14107Y-35235D01*
X14145Y-35254D01*
X14164Y-35273D01*
X14183Y-35311D01*
X14183Y-35388D01*
X14202Y-35426D01*
X14221Y-35445D01*
X14259Y-35464D01*
X14335Y-35464D01*
X14373Y-35445D01*
X14392Y-35426D01*
X14411Y-35388D01*
X14411Y-35311D01*
X14392Y-35273D01*
X14373Y-35254D01*
X14335Y-35235D01*
X14259Y-35235D01*
X14221Y-35254D01*
X14202Y-35273D01*
X14183Y-35311D01*
X39604Y-15261D02*
X39604Y-14861D01*
X39757Y-14861D01*
X39795Y-14880D01*
X39814Y-14900D01*
X39833Y-14938D01*
X39833Y-14995D01*
X39814Y-15033D01*
X39795Y-15052D01*
X39757Y-15071D01*
X39604Y-15071D01*
X39966Y-14861D02*
X40214Y-14861D01*
X40080Y-15014D01*
X40138Y-15014D01*
X40176Y-15033D01*
X40195Y-15052D01*
X40214Y-15090D01*
X40214Y-15185D01*
X40195Y-15223D01*
X40176Y-15242D01*
X40138Y-15261D01*
X40023Y-15261D01*
X39985Y-15242D01*
X39966Y-15223D01*
X45302Y-11451D02*
X45074Y-11451D01*
X45188Y-11451D02*
X45188Y-11051D01*
X45150Y-11109D01*
X45112Y-11147D01*
X45074Y-11166D01*
X45550Y-11051D02*
X45588Y-11051D01*
X45626Y-11070D01*
X45645Y-11090D01*
X45664Y-11128D01*
X45683Y-11204D01*
X45683Y-11299D01*
X45664Y-11375D01*
X45645Y-11413D01*
X45626Y-11432D01*
X45588Y-11451D01*
X45550Y-11451D01*
X45512Y-11432D01*
X45493Y-11413D01*
X45474Y-11375D01*
X45455Y-11299D01*
X45455Y-11204D01*
X45474Y-11128D01*
X45493Y-11090D01*
X45512Y-11070D01*
X45550Y-11051D01*
X45420Y-14089D02*
X45497Y-14089D01*
X45535Y-14070D01*
X45554Y-14051D01*
X45592Y-13994D01*
X45611Y-13918D01*
X45611Y-13766D01*
X45592Y-13728D01*
X45573Y-13708D01*
X45535Y-13689D01*
X45458Y-13689D01*
X45420Y-13708D01*
X45401Y-13728D01*
X45382Y-13766D01*
X45382Y-13861D01*
X45401Y-13899D01*
X45420Y-13918D01*
X45458Y-13937D01*
X45535Y-13937D01*
X45573Y-13918D01*
X45592Y-13899D01*
X45611Y-13861D01*
X41327Y-11090D02*
X41346Y-11070D01*
X41384Y-11051D01*
X41480Y-11051D01*
X41518Y-11070D01*
X41537Y-11090D01*
X41556Y-11128D01*
X41556Y-11166D01*
X41537Y-11223D01*
X41308Y-11451D01*
X41556Y-11451D01*
G54D10*
X14715Y-22849D02*
X15034Y-22849D01*
X15071Y-22831D01*
X15090Y-22812D01*
X15109Y-22774D01*
X15109Y-22699D01*
X15090Y-22662D01*
X15071Y-22643D01*
X15034Y-22624D01*
X14715Y-22624D01*
X14715Y-22268D02*
X14715Y-22343D01*
X14734Y-22381D01*
X14753Y-22400D01*
X14809Y-22437D01*
X14884Y-22456D01*
X15034Y-22456D01*
X15071Y-22437D01*
X15090Y-22418D01*
X15109Y-22381D01*
X15109Y-22306D01*
X15090Y-22268D01*
X15071Y-22250D01*
X15034Y-22231D01*
X14940Y-22231D01*
X14903Y-22250D01*
X14884Y-22268D01*
X14865Y-22306D01*
X14865Y-22381D01*
X14884Y-22418D01*
X14903Y-22437D01*
X14940Y-22456D01*
X15515Y-23949D02*
X15515Y-23724D01*
X15909Y-23837D02*
X15515Y-23837D01*
X15703Y-23593D02*
X15703Y-23462D01*
X15909Y-23406D02*
X15909Y-23593D01*
X15515Y-23593D01*
X15515Y-23406D01*
X15703Y-23237D02*
X15703Y-23106D01*
X15909Y-23049D02*
X15909Y-23237D01*
X15515Y-23237D01*
X15515Y-23049D01*
X15909Y-22881D02*
X15515Y-22881D01*
X15909Y-22656D01*
X15515Y-22656D01*
X15890Y-22487D02*
X15909Y-22431D01*
X15909Y-22337D01*
X15890Y-22300D01*
X15871Y-22281D01*
X15834Y-22262D01*
X15796Y-22262D01*
X15759Y-22281D01*
X15740Y-22300D01*
X15721Y-22337D01*
X15703Y-22412D01*
X15684Y-22450D01*
X15665Y-22468D01*
X15628Y-22487D01*
X15590Y-22487D01*
X15553Y-22468D01*
X15534Y-22450D01*
X15515Y-22412D01*
X15515Y-22318D01*
X15534Y-22262D01*
X15721Y-22018D02*
X15909Y-22018D01*
X15515Y-22150D02*
X15721Y-22018D01*
X15515Y-21887D01*
X15515Y-21793D02*
X15515Y-21550D01*
X15665Y-21681D01*
X15665Y-21625D01*
X15684Y-21587D01*
X15703Y-21568D01*
X15740Y-21550D01*
X15834Y-21550D01*
X15871Y-21568D01*
X15890Y-21587D01*
X15909Y-21625D01*
X15909Y-21737D01*
X15890Y-21775D01*
X15871Y-21793D01*
X15871Y-21381D02*
X15890Y-21362D01*
X15909Y-21381D01*
X15890Y-21400D01*
X15871Y-21381D01*
X15909Y-21381D01*
X15909Y-20987D02*
X15909Y-21212D01*
X15909Y-21100D02*
X15515Y-21100D01*
X15571Y-21137D01*
X15609Y-21175D01*
X15628Y-21212D01*
G54D14*
X16091Y-17916D02*
X15991Y-17773D01*
X15920Y-17916D02*
X15920Y-17616D01*
X16034Y-17616D01*
X16063Y-17630D01*
X16077Y-17645D01*
X16091Y-17673D01*
X16091Y-17716D01*
X16077Y-17745D01*
X16063Y-17759D01*
X16034Y-17773D01*
X15920Y-17773D01*
X16206Y-17645D02*
X16220Y-17630D01*
X16248Y-17616D01*
X16320Y-17616D01*
X16348Y-17630D01*
X16363Y-17645D01*
X16377Y-17673D01*
X16377Y-17702D01*
X16363Y-17745D01*
X16191Y-17916D01*
X16377Y-17916D01*
X17272Y-17916D02*
X17172Y-17773D01*
X17101Y-17916D02*
X17101Y-17616D01*
X17215Y-17616D01*
X17244Y-17630D01*
X17258Y-17645D01*
X17272Y-17673D01*
X17272Y-17716D01*
X17258Y-17745D01*
X17244Y-17759D01*
X17215Y-17773D01*
X17101Y-17773D01*
X17372Y-17616D02*
X17558Y-17616D01*
X17458Y-17730D01*
X17501Y-17730D01*
X17529Y-17745D01*
X17544Y-17759D01*
X17558Y-17788D01*
X17558Y-17859D01*
X17544Y-17888D01*
X17529Y-17902D01*
X17501Y-17916D01*
X17415Y-17916D01*
X17387Y-17902D01*
X17372Y-17888D01*
X18453Y-17916D02*
X18353Y-17773D01*
X18282Y-17916D02*
X18282Y-17616D01*
X18396Y-17616D01*
X18425Y-17630D01*
X18439Y-17645D01*
X18453Y-17673D01*
X18453Y-17716D01*
X18439Y-17745D01*
X18425Y-17759D01*
X18396Y-17773D01*
X18282Y-17773D01*
X18711Y-17716D02*
X18711Y-17916D01*
X18639Y-17602D02*
X18568Y-17816D01*
X18753Y-17816D01*
X19635Y-17916D02*
X19535Y-17773D01*
X19463Y-17916D02*
X19463Y-17616D01*
X19577Y-17616D01*
X19606Y-17630D01*
X19620Y-17645D01*
X19635Y-17673D01*
X19635Y-17716D01*
X19620Y-17745D01*
X19606Y-17759D01*
X19577Y-17773D01*
X19463Y-17773D01*
X19906Y-17616D02*
X19763Y-17616D01*
X19749Y-17759D01*
X19763Y-17745D01*
X19792Y-17730D01*
X19863Y-17730D01*
X19892Y-17745D01*
X19906Y-17759D01*
X19920Y-17788D01*
X19920Y-17859D01*
X19906Y-17888D01*
X19892Y-17902D01*
X19863Y-17916D01*
X19792Y-17916D01*
X19763Y-17902D01*
X19749Y-17888D01*
X20816Y-17916D02*
X20716Y-17773D01*
X20644Y-17916D02*
X20644Y-17616D01*
X20758Y-17616D01*
X20787Y-17630D01*
X20801Y-17645D01*
X20816Y-17673D01*
X20816Y-17716D01*
X20801Y-17745D01*
X20787Y-17759D01*
X20758Y-17773D01*
X20644Y-17773D01*
X21073Y-17616D02*
X21016Y-17616D01*
X20987Y-17630D01*
X20973Y-17645D01*
X20944Y-17688D01*
X20930Y-17745D01*
X20930Y-17859D01*
X20944Y-17888D01*
X20958Y-17902D01*
X20987Y-17916D01*
X21044Y-17916D01*
X21073Y-17902D01*
X21087Y-17888D01*
X21101Y-17859D01*
X21101Y-17788D01*
X21087Y-17759D01*
X21073Y-17745D01*
X21044Y-17730D01*
X20987Y-17730D01*
X20958Y-17745D01*
X20944Y-17759D01*
X20930Y-17788D01*
X21997Y-17916D02*
X21897Y-17773D01*
X21825Y-17916D02*
X21825Y-17616D01*
X21940Y-17616D01*
X21968Y-17630D01*
X21982Y-17645D01*
X21997Y-17673D01*
X21997Y-17716D01*
X21982Y-17745D01*
X21968Y-17759D01*
X21940Y-17773D01*
X21825Y-17773D01*
X22097Y-17616D02*
X22297Y-17616D01*
X22168Y-17916D01*
X23178Y-17916D02*
X23078Y-17773D01*
X23006Y-17916D02*
X23006Y-17616D01*
X23121Y-17616D01*
X23149Y-17630D01*
X23164Y-17645D01*
X23178Y-17673D01*
X23178Y-17716D01*
X23164Y-17745D01*
X23149Y-17759D01*
X23121Y-17773D01*
X23006Y-17773D01*
X23349Y-17745D02*
X23321Y-17730D01*
X23306Y-17716D01*
X23292Y-17688D01*
X23292Y-17673D01*
X23306Y-17645D01*
X23321Y-17630D01*
X23349Y-17616D01*
X23406Y-17616D01*
X23435Y-17630D01*
X23449Y-17645D01*
X23464Y-17673D01*
X23464Y-17688D01*
X23449Y-17716D01*
X23435Y-17730D01*
X23406Y-17745D01*
X23349Y-17745D01*
X23321Y-17759D01*
X23306Y-17773D01*
X23292Y-17802D01*
X23292Y-17859D01*
X23306Y-17888D01*
X23321Y-17902D01*
X23349Y-17916D01*
X23406Y-17916D01*
X23435Y-17902D01*
X23449Y-17888D01*
X23464Y-17859D01*
X23464Y-17802D01*
X23449Y-17773D01*
X23435Y-17759D01*
X23406Y-17745D01*
X24359Y-17916D02*
X24259Y-17773D01*
X24188Y-17916D02*
X24188Y-17616D01*
X24302Y-17616D01*
X24330Y-17630D01*
X24345Y-17645D01*
X24359Y-17673D01*
X24359Y-17716D01*
X24345Y-17745D01*
X24330Y-17759D01*
X24302Y-17773D01*
X24188Y-17773D01*
X24502Y-17916D02*
X24559Y-17916D01*
X24588Y-17902D01*
X24602Y-17888D01*
X24630Y-17845D01*
X24645Y-17788D01*
X24645Y-17673D01*
X24630Y-17645D01*
X24616Y-17630D01*
X24588Y-17616D01*
X24530Y-17616D01*
X24502Y-17630D01*
X24488Y-17645D01*
X24473Y-17673D01*
X24473Y-17745D01*
X24488Y-17773D01*
X24502Y-17788D01*
X24530Y-17802D01*
X24588Y-17802D01*
X24616Y-17788D01*
X24630Y-17773D01*
X24645Y-17745D01*
X25397Y-17916D02*
X25297Y-17773D01*
X25226Y-17916D02*
X25226Y-17616D01*
X25340Y-17616D01*
X25369Y-17630D01*
X25383Y-17645D01*
X25397Y-17673D01*
X25397Y-17716D01*
X25383Y-17745D01*
X25369Y-17759D01*
X25340Y-17773D01*
X25226Y-17773D01*
X25683Y-17916D02*
X25511Y-17916D01*
X25597Y-17916D02*
X25597Y-17616D01*
X25569Y-17659D01*
X25540Y-17688D01*
X25511Y-17702D01*
X25869Y-17616D02*
X25897Y-17616D01*
X25926Y-17630D01*
X25940Y-17645D01*
X25954Y-17673D01*
X25969Y-17730D01*
X25969Y-17802D01*
X25954Y-17859D01*
X25940Y-17888D01*
X25926Y-17902D01*
X25897Y-17916D01*
X25869Y-17916D01*
X25840Y-17902D01*
X25826Y-17888D01*
X25811Y-17859D01*
X25797Y-17802D01*
X25797Y-17730D01*
X25811Y-17673D01*
X25826Y-17645D01*
X25840Y-17630D01*
X25869Y-17616D01*
X26578Y-17916D02*
X26478Y-17773D01*
X26407Y-17916D02*
X26407Y-17616D01*
X26521Y-17616D01*
X26550Y-17630D01*
X26564Y-17645D01*
X26578Y-17673D01*
X26578Y-17716D01*
X26564Y-17745D01*
X26550Y-17759D01*
X26521Y-17773D01*
X26407Y-17773D01*
X26864Y-17916D02*
X26693Y-17916D01*
X26778Y-17916D02*
X26778Y-17616D01*
X26750Y-17659D01*
X26721Y-17688D01*
X26693Y-17702D01*
X27150Y-17916D02*
X26978Y-17916D01*
X27064Y-17916D02*
X27064Y-17616D01*
X27035Y-17659D01*
X27007Y-17688D01*
X26978Y-17702D01*
X28744Y-18900D02*
X28644Y-18758D01*
X28572Y-18900D02*
X28572Y-18600D01*
X28687Y-18600D01*
X28715Y-18615D01*
X28729Y-18629D01*
X28744Y-18658D01*
X28744Y-18700D01*
X28729Y-18729D01*
X28715Y-18743D01*
X28687Y-18758D01*
X28572Y-18758D01*
X29029Y-18900D02*
X28858Y-18900D01*
X28944Y-18900D02*
X28944Y-18600D01*
X28915Y-18643D01*
X28887Y-18672D01*
X28858Y-18686D01*
X29144Y-18629D02*
X29158Y-18615D01*
X29187Y-18600D01*
X29258Y-18600D01*
X29287Y-18615D01*
X29301Y-18629D01*
X29315Y-18658D01*
X29315Y-18686D01*
X29301Y-18729D01*
X29129Y-18900D01*
X29315Y-18900D01*
X14910Y-17916D02*
X14810Y-17773D01*
X14739Y-17916D02*
X14739Y-17616D01*
X14853Y-17616D01*
X14882Y-17630D01*
X14896Y-17645D01*
X14910Y-17673D01*
X14910Y-17716D01*
X14896Y-17745D01*
X14882Y-17759D01*
X14853Y-17773D01*
X14739Y-17773D01*
X15196Y-17916D02*
X15024Y-17916D01*
X15110Y-17916D02*
X15110Y-17616D01*
X15082Y-17659D01*
X15053Y-17688D01*
X15024Y-17702D01*
X31106Y-18900D02*
X31006Y-18758D01*
X30934Y-18900D02*
X30934Y-18600D01*
X31049Y-18600D01*
X31077Y-18615D01*
X31092Y-18629D01*
X31106Y-18658D01*
X31106Y-18700D01*
X31092Y-18729D01*
X31077Y-18743D01*
X31049Y-18758D01*
X30934Y-18758D01*
X31392Y-18900D02*
X31220Y-18900D01*
X31306Y-18900D02*
X31306Y-18600D01*
X31277Y-18643D01*
X31249Y-18672D01*
X31220Y-18686D01*
X31649Y-18700D02*
X31649Y-18900D01*
X31577Y-18586D02*
X31506Y-18800D01*
X31692Y-18800D01*
X32287Y-18900D02*
X32187Y-18758D01*
X32116Y-18900D02*
X32116Y-18600D01*
X32230Y-18600D01*
X32258Y-18615D01*
X32273Y-18629D01*
X32287Y-18658D01*
X32287Y-18700D01*
X32273Y-18729D01*
X32258Y-18743D01*
X32230Y-18758D01*
X32116Y-18758D01*
X32573Y-18900D02*
X32401Y-18900D01*
X32487Y-18900D02*
X32487Y-18600D01*
X32458Y-18643D01*
X32430Y-18672D01*
X32401Y-18686D01*
X32844Y-18600D02*
X32701Y-18600D01*
X32687Y-18743D01*
X32701Y-18729D01*
X32730Y-18715D01*
X32801Y-18715D01*
X32830Y-18729D01*
X32844Y-18743D01*
X32858Y-18772D01*
X32858Y-18843D01*
X32844Y-18872D01*
X32830Y-18886D01*
X32801Y-18900D01*
X32730Y-18900D01*
X32701Y-18886D01*
X32687Y-18872D01*
X33468Y-18900D02*
X33368Y-18758D01*
X33297Y-18900D02*
X33297Y-18600D01*
X33411Y-18600D01*
X33439Y-18615D01*
X33454Y-18629D01*
X33468Y-18658D01*
X33468Y-18700D01*
X33454Y-18729D01*
X33439Y-18743D01*
X33411Y-18758D01*
X33297Y-18758D01*
X33754Y-18900D02*
X33582Y-18900D01*
X33668Y-18900D02*
X33668Y-18600D01*
X33639Y-18643D01*
X33611Y-18672D01*
X33582Y-18686D01*
X34011Y-18600D02*
X33954Y-18600D01*
X33925Y-18615D01*
X33911Y-18629D01*
X33882Y-18672D01*
X33868Y-18729D01*
X33868Y-18843D01*
X33882Y-18872D01*
X33897Y-18886D01*
X33925Y-18900D01*
X33982Y-18900D01*
X34011Y-18886D01*
X34025Y-18872D01*
X34039Y-18843D01*
X34039Y-18772D01*
X34025Y-18743D01*
X34011Y-18729D01*
X33982Y-18715D01*
X33925Y-18715D01*
X33897Y-18729D01*
X33882Y-18743D01*
X33868Y-18772D01*
X34649Y-18900D02*
X34549Y-18758D01*
X34478Y-18900D02*
X34478Y-18600D01*
X34592Y-18600D01*
X34621Y-18615D01*
X34635Y-18629D01*
X34649Y-18658D01*
X34649Y-18700D01*
X34635Y-18729D01*
X34621Y-18743D01*
X34592Y-18758D01*
X34478Y-18758D01*
X34935Y-18900D02*
X34763Y-18900D01*
X34849Y-18900D02*
X34849Y-18600D01*
X34821Y-18643D01*
X34792Y-18672D01*
X34763Y-18686D01*
X35035Y-18600D02*
X35235Y-18600D01*
X35106Y-18900D01*
X35830Y-18900D02*
X35730Y-18758D01*
X35659Y-18900D02*
X35659Y-18600D01*
X35773Y-18600D01*
X35802Y-18615D01*
X35816Y-18629D01*
X35830Y-18658D01*
X35830Y-18700D01*
X35816Y-18729D01*
X35802Y-18743D01*
X35773Y-18758D01*
X35659Y-18758D01*
X36116Y-18900D02*
X35945Y-18900D01*
X36030Y-18900D02*
X36030Y-18600D01*
X36002Y-18643D01*
X35973Y-18672D01*
X35945Y-18686D01*
X36287Y-18729D02*
X36259Y-18715D01*
X36245Y-18700D01*
X36230Y-18672D01*
X36230Y-18658D01*
X36245Y-18629D01*
X36259Y-18615D01*
X36287Y-18600D01*
X36345Y-18600D01*
X36373Y-18615D01*
X36387Y-18629D01*
X36402Y-18658D01*
X36402Y-18672D01*
X36387Y-18700D01*
X36373Y-18715D01*
X36345Y-18729D01*
X36287Y-18729D01*
X36259Y-18743D01*
X36245Y-18758D01*
X36230Y-18786D01*
X36230Y-18843D01*
X36245Y-18872D01*
X36259Y-18886D01*
X36287Y-18900D01*
X36345Y-18900D01*
X36373Y-18886D01*
X36387Y-18872D01*
X36402Y-18843D01*
X36402Y-18786D01*
X36387Y-18758D01*
X36373Y-18743D01*
X36345Y-18729D01*
X28744Y-22837D02*
X28644Y-22695D01*
X28572Y-22837D02*
X28572Y-22537D01*
X28687Y-22537D01*
X28715Y-22552D01*
X28729Y-22566D01*
X28744Y-22595D01*
X28744Y-22637D01*
X28729Y-22666D01*
X28715Y-22680D01*
X28687Y-22695D01*
X28572Y-22695D01*
X29029Y-22837D02*
X28858Y-22837D01*
X28944Y-22837D02*
X28944Y-22537D01*
X28915Y-22580D01*
X28887Y-22609D01*
X28858Y-22623D01*
X29172Y-22837D02*
X29229Y-22837D01*
X29258Y-22823D01*
X29272Y-22809D01*
X29301Y-22766D01*
X29315Y-22709D01*
X29315Y-22595D01*
X29301Y-22566D01*
X29287Y-22552D01*
X29258Y-22537D01*
X29201Y-22537D01*
X29172Y-22552D01*
X29158Y-22566D01*
X29144Y-22595D01*
X29144Y-22666D01*
X29158Y-22695D01*
X29172Y-22709D01*
X29201Y-22723D01*
X29258Y-22723D01*
X29287Y-22709D01*
X29301Y-22695D01*
X29315Y-22666D01*
X29925Y-22837D02*
X29825Y-22695D01*
X29753Y-22837D02*
X29753Y-22537D01*
X29868Y-22537D01*
X29896Y-22552D01*
X29910Y-22566D01*
X29925Y-22595D01*
X29925Y-22637D01*
X29910Y-22666D01*
X29896Y-22680D01*
X29868Y-22695D01*
X29753Y-22695D01*
X30039Y-22566D02*
X30053Y-22552D01*
X30082Y-22537D01*
X30153Y-22537D01*
X30182Y-22552D01*
X30196Y-22566D01*
X30210Y-22595D01*
X30210Y-22623D01*
X30196Y-22666D01*
X30025Y-22837D01*
X30210Y-22837D01*
X30396Y-22537D02*
X30425Y-22537D01*
X30453Y-22552D01*
X30468Y-22566D01*
X30482Y-22595D01*
X30496Y-22652D01*
X30496Y-22723D01*
X30482Y-22780D01*
X30468Y-22809D01*
X30453Y-22823D01*
X30425Y-22837D01*
X30396Y-22837D01*
X30368Y-22823D01*
X30353Y-22809D01*
X30339Y-22780D01*
X30325Y-22723D01*
X30325Y-22652D01*
X30339Y-22595D01*
X30353Y-22566D01*
X30368Y-22552D01*
X30396Y-22537D01*
X31106Y-22837D02*
X31006Y-22695D01*
X30934Y-22837D02*
X30934Y-22537D01*
X31049Y-22537D01*
X31077Y-22552D01*
X31092Y-22566D01*
X31106Y-22595D01*
X31106Y-22637D01*
X31092Y-22666D01*
X31077Y-22680D01*
X31049Y-22695D01*
X30934Y-22695D01*
X31220Y-22566D02*
X31234Y-22552D01*
X31263Y-22537D01*
X31334Y-22537D01*
X31363Y-22552D01*
X31377Y-22566D01*
X31392Y-22595D01*
X31392Y-22623D01*
X31377Y-22666D01*
X31206Y-22837D01*
X31392Y-22837D01*
X31677Y-22837D02*
X31506Y-22837D01*
X31592Y-22837D02*
X31592Y-22537D01*
X31563Y-22580D01*
X31534Y-22609D01*
X31506Y-22623D01*
X32287Y-22837D02*
X32187Y-22695D01*
X32116Y-22837D02*
X32116Y-22537D01*
X32230Y-22537D01*
X32258Y-22552D01*
X32273Y-22566D01*
X32287Y-22595D01*
X32287Y-22637D01*
X32273Y-22666D01*
X32258Y-22680D01*
X32230Y-22695D01*
X32116Y-22695D01*
X32401Y-22566D02*
X32416Y-22552D01*
X32444Y-22537D01*
X32516Y-22537D01*
X32544Y-22552D01*
X32558Y-22566D01*
X32573Y-22595D01*
X32573Y-22623D01*
X32558Y-22666D01*
X32387Y-22837D01*
X32573Y-22837D01*
X32687Y-22566D02*
X32701Y-22552D01*
X32730Y-22537D01*
X32801Y-22537D01*
X32830Y-22552D01*
X32844Y-22566D01*
X32858Y-22595D01*
X32858Y-22623D01*
X32844Y-22666D01*
X32673Y-22837D01*
X32858Y-22837D01*
X33468Y-22837D02*
X33368Y-22695D01*
X33297Y-22837D02*
X33297Y-22537D01*
X33411Y-22537D01*
X33439Y-22552D01*
X33454Y-22566D01*
X33468Y-22595D01*
X33468Y-22637D01*
X33454Y-22666D01*
X33439Y-22680D01*
X33411Y-22695D01*
X33297Y-22695D01*
X33582Y-22566D02*
X33597Y-22552D01*
X33625Y-22537D01*
X33697Y-22537D01*
X33725Y-22552D01*
X33739Y-22566D01*
X33754Y-22595D01*
X33754Y-22623D01*
X33739Y-22666D01*
X33568Y-22837D01*
X33754Y-22837D01*
X33854Y-22537D02*
X34039Y-22537D01*
X33939Y-22652D01*
X33982Y-22652D01*
X34011Y-22666D01*
X34025Y-22680D01*
X34039Y-22709D01*
X34039Y-22780D01*
X34025Y-22809D01*
X34011Y-22823D01*
X33982Y-22837D01*
X33897Y-22837D01*
X33868Y-22823D01*
X33854Y-22809D01*
X34649Y-22837D02*
X34549Y-22695D01*
X34478Y-22837D02*
X34478Y-22537D01*
X34592Y-22537D01*
X34621Y-22552D01*
X34635Y-22566D01*
X34649Y-22595D01*
X34649Y-22637D01*
X34635Y-22666D01*
X34621Y-22680D01*
X34592Y-22695D01*
X34478Y-22695D01*
X34763Y-22566D02*
X34778Y-22552D01*
X34806Y-22537D01*
X34878Y-22537D01*
X34906Y-22552D01*
X34921Y-22566D01*
X34935Y-22595D01*
X34935Y-22623D01*
X34921Y-22666D01*
X34749Y-22837D01*
X34935Y-22837D01*
X35192Y-22637D02*
X35192Y-22837D01*
X35121Y-22523D02*
X35049Y-22737D01*
X35235Y-22737D01*
X29925Y-18900D02*
X29825Y-18758D01*
X29753Y-18900D02*
X29753Y-18600D01*
X29868Y-18600D01*
X29896Y-18615D01*
X29910Y-18629D01*
X29925Y-18658D01*
X29925Y-18700D01*
X29910Y-18729D01*
X29896Y-18743D01*
X29868Y-18758D01*
X29753Y-18758D01*
X30210Y-18900D02*
X30039Y-18900D01*
X30125Y-18900D02*
X30125Y-18600D01*
X30096Y-18643D01*
X30068Y-18672D01*
X30039Y-18686D01*
X30310Y-18600D02*
X30496Y-18600D01*
X30396Y-18715D01*
X30439Y-18715D01*
X30468Y-18729D01*
X30482Y-18743D01*
X30496Y-18772D01*
X30496Y-18843D01*
X30482Y-18872D01*
X30468Y-18886D01*
X30439Y-18900D01*
X30353Y-18900D01*
X30325Y-18886D01*
X30310Y-18872D01*
G54D11*
X21555Y-13941D02*
X21555Y-13541D01*
X21707Y-13541D01*
X21745Y-13560D01*
X21764Y-13579D01*
X21783Y-13617D01*
X21783Y-13674D01*
X21764Y-13712D01*
X21745Y-13731D01*
X21707Y-13750D01*
X21555Y-13750D01*
X21936Y-13579D02*
X21955Y-13560D01*
X21993Y-13541D01*
X22088Y-13541D01*
X22126Y-13560D01*
X22145Y-13579D01*
X22164Y-13617D01*
X22164Y-13655D01*
X22145Y-13712D01*
X21917Y-13941D01*
X22164Y-13941D01*
X14468Y-13843D02*
X14468Y-13443D01*
X14620Y-13443D01*
X14659Y-13462D01*
X14678Y-13481D01*
X14697Y-13519D01*
X14697Y-13576D01*
X14678Y-13614D01*
X14659Y-13633D01*
X14620Y-13652D01*
X14468Y-13652D01*
X15078Y-13843D02*
X14849Y-13843D01*
X14963Y-13843D02*
X14963Y-13443D01*
X14925Y-13500D01*
X14887Y-13538D01*
X14849Y-13557D01*
X28293Y-11933D02*
X28293Y-11533D01*
X28446Y-11533D01*
X28484Y-11552D01*
X28503Y-11571D01*
X28522Y-11609D01*
X28522Y-11666D01*
X28503Y-11704D01*
X28484Y-11724D01*
X28446Y-11743D01*
X28293Y-11743D01*
X28903Y-11933D02*
X28674Y-11933D01*
X28789Y-11933D02*
X28789Y-11533D01*
X28750Y-11590D01*
X28712Y-11628D01*
X28674Y-11647D01*
X29150Y-11533D02*
X29189Y-11533D01*
X29227Y-11552D01*
X29246Y-11571D01*
X29265Y-11609D01*
X29284Y-11685D01*
X29284Y-11781D01*
X29265Y-11857D01*
X29246Y-11895D01*
X29227Y-11914D01*
X29189Y-11933D01*
X29150Y-11933D01*
X29112Y-11914D01*
X29093Y-11895D01*
X29074Y-11857D01*
X29055Y-11781D01*
X29055Y-11685D01*
X29074Y-11609D01*
X29093Y-11571D01*
X29112Y-11552D01*
X29150Y-11533D01*
M02*
