G04 (created by PCBNEW (2013-jul-07)-stable) date Tue 28 Apr 2015 09:29:23 AM PDT*
%MOIN*%
G04 Gerber Fmt 3.4, Leading zero omitted, Abs format*
%FSLAX34Y34*%
G01*
G70*
G90*
G04 APERTURE LIST*
%ADD10C,0.00590551*%
%ADD11C,0.0511811*%
%ADD12C,0.06*%
%ADD13R,0.06X0.06*%
%ADD14C,0.0629921*%
%ADD15C,0.0708661*%
%ADD16C,0.065*%
%ADD17C,0.13*%
%ADD18C,0.07*%
%ADD19C,0.125*%
%ADD20R,0.063X0.063*%
%ADD21C,0.063*%
%ADD22R,0.07X0.07*%
%ADD23C,0.0590551*%
%ADD24C,0.0492126*%
%ADD25C,0.15*%
G04 APERTURE END LIST*
G54D10*
G54D11*
X35728Y-28051D03*
X34940Y-28051D03*
X34153Y-28051D03*
X33366Y-28051D03*
X32578Y-28051D03*
X31791Y-28051D03*
X31003Y-28051D03*
X30216Y-28051D03*
X29429Y-28051D03*
X28641Y-28051D03*
X28641Y-36712D03*
X29429Y-36712D03*
X30216Y-36712D03*
X31003Y-36712D03*
X31791Y-36712D03*
X32578Y-36712D03*
X33366Y-36712D03*
X34153Y-36712D03*
X34940Y-36712D03*
X35728Y-36712D03*
G54D12*
X41594Y-31496D03*
X42594Y-31496D03*
X43594Y-31496D03*
X44594Y-31496D03*
X45594Y-31496D03*
X46594Y-31496D03*
X20550Y-27650D03*
X21550Y-27650D03*
X22550Y-27650D03*
X23550Y-27650D03*
G54D13*
X17807Y-35100D03*
G54D12*
X17807Y-36100D03*
X16807Y-35100D03*
X16807Y-36100D03*
G54D13*
X21920Y-35100D03*
G54D12*
X21920Y-36100D03*
G54D13*
X23818Y-35129D03*
G54D12*
X23818Y-36129D03*
G54D13*
X19815Y-35100D03*
G54D12*
X19815Y-36100D03*
X17700Y-27650D03*
X17700Y-28650D03*
X17700Y-29650D03*
X17700Y-30650D03*
X17700Y-31650D03*
X17700Y-32650D03*
G54D14*
X42066Y-35039D03*
X46122Y-35039D03*
G54D15*
X42066Y-33582D03*
X42070Y-36141D03*
X46122Y-33582D03*
X46122Y-36141D03*
G54D16*
X12700Y-23780D03*
X12700Y-22800D03*
X12700Y-21820D03*
X11400Y-21820D03*
X11400Y-22800D03*
X11400Y-23780D03*
X28618Y-26043D03*
X29618Y-26043D03*
X30618Y-26043D03*
X31618Y-26043D03*
X32618Y-26043D03*
X33618Y-26043D03*
X34618Y-26043D03*
X35618Y-26043D03*
G54D17*
X28618Y-14483D03*
X36618Y-14483D03*
G54D16*
X36618Y-26043D03*
G54D18*
X51000Y-19500D03*
X51000Y-20500D03*
X51000Y-21500D03*
X51000Y-22500D03*
X51000Y-23500D03*
X51000Y-24500D03*
X51000Y-25500D03*
X51000Y-26500D03*
G54D19*
X51030Y-17290D03*
X51030Y-28710D03*
X39410Y-17290D03*
X39410Y-28710D03*
G54D20*
X11500Y-15011D03*
G54D21*
X11500Y-16389D03*
G54D13*
X15000Y-35100D03*
G54D12*
X15000Y-36100D03*
G54D22*
X41450Y-13050D03*
G54D18*
X41450Y-12050D03*
X42450Y-13050D03*
X42450Y-12050D03*
X43450Y-13050D03*
X43450Y-12050D03*
X44450Y-13050D03*
X44450Y-12050D03*
X45450Y-13050D03*
X45450Y-12050D03*
G54D12*
X11450Y-25250D03*
X12450Y-25250D03*
X13450Y-25250D03*
X14450Y-25250D03*
X15450Y-25250D03*
X16450Y-25250D03*
X17450Y-25250D03*
X18450Y-25250D03*
X19450Y-25250D03*
X20450Y-25250D03*
X21450Y-25250D03*
X22450Y-25250D03*
X23450Y-25250D03*
X24450Y-25250D03*
X24450Y-24250D03*
X24450Y-23250D03*
X24450Y-22250D03*
X24450Y-21250D03*
X24450Y-20250D03*
X24450Y-19250D03*
X23450Y-19250D03*
X22450Y-19250D03*
X21450Y-19250D03*
X20450Y-19250D03*
X19450Y-19250D03*
X18450Y-19250D03*
X17450Y-19250D03*
X16450Y-19250D03*
X15450Y-19250D03*
X14450Y-19250D03*
X13450Y-19250D03*
X12450Y-19250D03*
X11450Y-19250D03*
X17450Y-22250D03*
X18450Y-22250D03*
X19450Y-22250D03*
X20450Y-22250D03*
X21450Y-22250D03*
X22450Y-22250D03*
X23450Y-22250D03*
X23450Y-21250D03*
X22450Y-21250D03*
X21450Y-21250D03*
X20450Y-21250D03*
X19450Y-21250D03*
X18450Y-21250D03*
X17450Y-21250D03*
X16450Y-20250D03*
X15450Y-20250D03*
X14450Y-20250D03*
X12450Y-20250D03*
G54D23*
X16141Y-15157D03*
X16141Y-17125D03*
X17322Y-15157D03*
X17322Y-17125D03*
X18503Y-15157D03*
X18503Y-17125D03*
X19685Y-15157D03*
X19685Y-17125D03*
X20866Y-15157D03*
X20866Y-17125D03*
X22047Y-15157D03*
X22047Y-17125D03*
X23228Y-15157D03*
X23228Y-17125D03*
X24409Y-15157D03*
X24409Y-17125D03*
X25590Y-15157D03*
X25590Y-17125D03*
X26771Y-15157D03*
X26771Y-17125D03*
X28937Y-16141D03*
X28937Y-18110D03*
X14960Y-15157D03*
X14960Y-17125D03*
X31299Y-16141D03*
X31299Y-18110D03*
X32480Y-16141D03*
X32480Y-18110D03*
X33661Y-16141D03*
X33661Y-18110D03*
X34842Y-16141D03*
X34842Y-18110D03*
X36023Y-16141D03*
X36023Y-18110D03*
X28937Y-20078D03*
X28937Y-22047D03*
X30118Y-20078D03*
X30118Y-22047D03*
X31299Y-20078D03*
X31299Y-22047D03*
X32480Y-20078D03*
X32480Y-22047D03*
X33661Y-20078D03*
X33661Y-22047D03*
X34842Y-20078D03*
X34842Y-22047D03*
X30118Y-16141D03*
X30118Y-18110D03*
G54D24*
X22539Y-12401D03*
X22539Y-11614D03*
X23326Y-12401D03*
X23326Y-11614D03*
X24114Y-12401D03*
X24114Y-11614D03*
X24901Y-12401D03*
X24901Y-11614D03*
X25688Y-12401D03*
X25688Y-11614D03*
X15452Y-12401D03*
X15452Y-11614D03*
X16240Y-12401D03*
X16240Y-11614D03*
X17027Y-12401D03*
X17027Y-11614D03*
X17814Y-12401D03*
X17814Y-11614D03*
X18602Y-12401D03*
X18602Y-11614D03*
G54D23*
X30452Y-11673D03*
X31437Y-11673D03*
X32421Y-11673D03*
X33405Y-11673D03*
X34389Y-11673D03*
G54D25*
X12500Y-12500D03*
X12500Y-35000D03*
X50000Y-12500D03*
X50000Y-35000D03*
M02*
