G04 (created by PCBNEW (2013-jul-07)-stable) date Sun 08 May 2016 08:08:29 PM PDT*
%MOIN*%
G04 Gerber Fmt 3.4, Leading zero omitted, Abs format*
%FSLAX34Y34*%
G01*
G70*
G90*
G04 APERTURE LIST*
%ADD10C,0.00590551*%
%ADD11C,0.06*%
%ADD12R,0.06X0.06*%
%ADD13C,0.0629921*%
%ADD14C,0.0708661*%
%ADD15C,0.065*%
%ADD16C,0.13*%
%ADD17C,0.07*%
%ADD18C,0.125*%
%ADD19R,0.063X0.063*%
%ADD20C,0.063*%
%ADD21R,0.07X0.07*%
%ADD22C,0.0492126*%
%ADD23C,0.15*%
%ADD24R,0.02X0.012*%
%ADD25C,0.0590551*%
%ADD26C,0.0511811*%
%ADD27R,0.055X0.035*%
%ADD28R,0.035X0.055*%
%ADD29R,0.0236X0.0394*%
G04 APERTURE END LIST*
G54D10*
G54D11*
X20550Y-27650D03*
X21550Y-27650D03*
X22550Y-27650D03*
X23550Y-27650D03*
G54D12*
X16650Y-35150D03*
G54D11*
X16650Y-36150D03*
X15650Y-35150D03*
X15650Y-36150D03*
G54D12*
X18670Y-35150D03*
G54D11*
X18670Y-36150D03*
G54D12*
X20618Y-35179D03*
G54D11*
X20618Y-36179D03*
X17700Y-27650D03*
X17700Y-28650D03*
X17700Y-29650D03*
X17700Y-30650D03*
X17700Y-31650D03*
X17700Y-32650D03*
G54D13*
X47578Y-32283D03*
X51633Y-32283D03*
G54D14*
X47578Y-30826D03*
X47582Y-33385D03*
X51633Y-30826D03*
X51633Y-33385D03*
G54D15*
X12700Y-23780D03*
X12700Y-22800D03*
X12700Y-21820D03*
X11400Y-21820D03*
X11400Y-22800D03*
X11400Y-23780D03*
X28618Y-26043D03*
X29618Y-26043D03*
X30618Y-26043D03*
X31618Y-26043D03*
X32618Y-26043D03*
X33618Y-26043D03*
X34618Y-26043D03*
X35618Y-26043D03*
G54D16*
X28618Y-14483D03*
X36618Y-14483D03*
G54D15*
X36618Y-26043D03*
G54D17*
X50950Y-18900D03*
X50950Y-19900D03*
X50950Y-20900D03*
X50950Y-21900D03*
X50950Y-22900D03*
X50950Y-23900D03*
X50950Y-24900D03*
X50950Y-25900D03*
G54D18*
X50980Y-16690D03*
X50980Y-28110D03*
X39360Y-16690D03*
X39360Y-28110D03*
G54D19*
X11500Y-15011D03*
G54D20*
X11500Y-16389D03*
G54D12*
X13800Y-35150D03*
G54D11*
X13800Y-36150D03*
G54D21*
X42400Y-12800D03*
G54D17*
X42400Y-11800D03*
X43400Y-12800D03*
X43400Y-11800D03*
X44400Y-12800D03*
X44400Y-11800D03*
X45400Y-12800D03*
X45400Y-11800D03*
X46400Y-12800D03*
X46400Y-11800D03*
G54D11*
X11450Y-25250D03*
X12450Y-25250D03*
X13450Y-25250D03*
X14450Y-25250D03*
X15450Y-25250D03*
X16450Y-25250D03*
X17450Y-25250D03*
X18450Y-25250D03*
X19450Y-25250D03*
X20450Y-25250D03*
X21450Y-25250D03*
X22450Y-25250D03*
X23450Y-25250D03*
X24450Y-25250D03*
X24450Y-24250D03*
X24450Y-23250D03*
X24450Y-22250D03*
X24450Y-21250D03*
X24450Y-20250D03*
X24450Y-19250D03*
X23450Y-19250D03*
X22450Y-19250D03*
X21450Y-19250D03*
X20450Y-19250D03*
X19450Y-19250D03*
X18450Y-19250D03*
X17450Y-19250D03*
X16450Y-19250D03*
X15450Y-19250D03*
X14450Y-19250D03*
X13450Y-19250D03*
X12450Y-19250D03*
X11450Y-19250D03*
X17450Y-22250D03*
X18450Y-22250D03*
X19450Y-22250D03*
X20450Y-22250D03*
X21450Y-22250D03*
X22450Y-22250D03*
X23450Y-22250D03*
X23450Y-21250D03*
X22450Y-21250D03*
X21450Y-21250D03*
X20450Y-21250D03*
X19450Y-21250D03*
X18450Y-21250D03*
X17450Y-21250D03*
X16450Y-20250D03*
X15450Y-20250D03*
X14450Y-20250D03*
X12450Y-20250D03*
G54D22*
X24125Y-12393D03*
X24125Y-11606D03*
X24912Y-12393D03*
X24912Y-11606D03*
X25700Y-12393D03*
X25700Y-11606D03*
X26487Y-12393D03*
X26487Y-11606D03*
X27274Y-12393D03*
X27274Y-11606D03*
X15925Y-12393D03*
X15925Y-11606D03*
X16712Y-12393D03*
X16712Y-11606D03*
X17500Y-12393D03*
X17500Y-11606D03*
X18287Y-12393D03*
X18287Y-11606D03*
X19074Y-12393D03*
X19074Y-11606D03*
G54D23*
X11500Y-11500D03*
X11500Y-36000D03*
X51000Y-11500D03*
X51000Y-36000D03*
G54D24*
X45150Y-30300D03*
X45150Y-30800D03*
X45950Y-30300D03*
X45150Y-30550D03*
X45950Y-30800D03*
G54D25*
X36460Y-11700D03*
X31539Y-11700D03*
X32523Y-11700D03*
X33507Y-11700D03*
X34492Y-11700D03*
X35476Y-11700D03*
G54D12*
X22850Y-36150D03*
G54D11*
X22850Y-35150D03*
X23850Y-36150D03*
X23850Y-35150D03*
G54D26*
X35743Y-27869D03*
X34955Y-27869D03*
X34168Y-27869D03*
X33381Y-27869D03*
X32593Y-27869D03*
X31806Y-27869D03*
X31018Y-27869D03*
X30231Y-27869D03*
X29444Y-27869D03*
X28656Y-27869D03*
X28656Y-36530D03*
X29444Y-36530D03*
X30231Y-36530D03*
X31018Y-36530D03*
X31806Y-36530D03*
X32593Y-36530D03*
X33381Y-36530D03*
X34168Y-36530D03*
X34955Y-36530D03*
X35743Y-36530D03*
G54D11*
X48750Y-27450D03*
X47750Y-27450D03*
X41750Y-27450D03*
X42750Y-27450D03*
X43750Y-27450D03*
X44750Y-27450D03*
X45750Y-27450D03*
X46750Y-27450D03*
G54D12*
X48031Y-35326D03*
G54D11*
X48031Y-36326D03*
G54D12*
X39913Y-36220D03*
G54D11*
X40913Y-36220D03*
X41913Y-36220D03*
X42913Y-36220D03*
X43913Y-36220D03*
X44913Y-36220D03*
X45913Y-36220D03*
G54D27*
X40050Y-30575D03*
X40050Y-31325D03*
X43750Y-30775D03*
X43750Y-31525D03*
G54D28*
X42075Y-30200D03*
X41325Y-30200D03*
G54D27*
X26600Y-31175D03*
X26600Y-30425D03*
X28500Y-30425D03*
X28500Y-31175D03*
G54D29*
X27044Y-32826D03*
X27556Y-32826D03*
X27300Y-33574D03*
G54D27*
X30400Y-18925D03*
X30400Y-19675D03*
G54D28*
X41725Y-17400D03*
X42475Y-17400D03*
X44225Y-17400D03*
X44975Y-17400D03*
G54D27*
X23400Y-16925D03*
X23400Y-17675D03*
X23400Y-15025D03*
X23400Y-15775D03*
X24800Y-16925D03*
X24800Y-17675D03*
X24800Y-15025D03*
X24800Y-15775D03*
X26200Y-16925D03*
X26200Y-17675D03*
X26200Y-15025D03*
X26200Y-15775D03*
X27600Y-18925D03*
X27600Y-19675D03*
X27600Y-16925D03*
X27600Y-17675D03*
X29000Y-18925D03*
X29000Y-19675D03*
X29000Y-16925D03*
X29000Y-17675D03*
X22000Y-15025D03*
X22000Y-15775D03*
X30400Y-16925D03*
X30400Y-17675D03*
X15000Y-16925D03*
X15000Y-17675D03*
X15000Y-15025D03*
X15000Y-15775D03*
X16400Y-16925D03*
X16400Y-17675D03*
X16400Y-15025D03*
X16400Y-15775D03*
X17800Y-16925D03*
X17800Y-17675D03*
X17800Y-15025D03*
X17800Y-15775D03*
X19200Y-16925D03*
X19200Y-17675D03*
X19200Y-15025D03*
X19200Y-15775D03*
X20600Y-16925D03*
X20600Y-17675D03*
X20600Y-15025D03*
X20600Y-15775D03*
X22000Y-16925D03*
X22000Y-17675D03*
M02*
