M48
;DRILL file {Pcbnew (2013-jul-07)-stable} date Sun 08 May 2016 08:08:35 PM PDT
;FORMAT={-:-/ absolute / inch / decimal}
FMAT,2
INCH,TZ
T1C0.025
T2C0.028
T3C0.035
T4C0.035
T5C0.039
T6C0.039
T7C0.040
T8C0.047
T9C0.098
T10C0.116
%
G90
G05
M72
T1
X1.5335Y-2.1035
X1.5416Y-1.8136
X1.5809Y-3.0956
X1.6316Y-3.1448
X1.8582Y-1.7363
X1.9482Y-1.6469
X1.9775Y-3.4856
X1.9856Y-1.7215
X1.9904Y-1.3223
X2.13Y-1.7215
X2.1441Y-2.0328
X2.181Y-3.6251
X2.2221Y-2.6181
X2.2566Y-1.5799
X2.2807Y-1.7376
X2.3526Y-2.3474
X2.394Y-1.5474
X2.5044Y-2.2878
X2.5505Y-1.9477
X2.5956Y-3.699
X2.6392Y-2.8005
X2.6505Y-2.1006
X2.6821Y-2.8409
X2.6822Y-1.8969
X2.7008Y-1.8
X2.7458Y-2.176
X2.7596Y-1.5609
X2.825Y-2.0039
X2.8481Y-1.2075
X4.1122Y-1.2961
X4.1504Y-2.0794
X4.2005Y-1.9248
X4.6774Y-3.08
T2
X2.8657Y-2.7869
X2.8657Y-3.6531
X2.9444Y-2.7869
X2.9444Y-3.6531
X3.0231Y-2.7869
X3.0231Y-3.6531
X3.1019Y-2.7869
X3.1019Y-3.6531
X3.1806Y-2.7869
X3.1806Y-3.6531
X3.2594Y-2.7869
X3.2594Y-3.6531
X3.3381Y-2.7869
X3.3381Y-3.6531
X3.4169Y-2.7869
X3.4169Y-3.6531
X3.4956Y-2.7869
X3.4956Y-3.6531
X3.5743Y-2.7869
X3.5743Y-3.6531
T3
X1.14Y-2.182
X1.14Y-2.28
X1.14Y-2.378
X1.27Y-2.182
X1.27Y-2.28
X1.27Y-2.378
T4
X1.5925Y-1.1606
X1.5925Y-1.2394
X1.6713Y-1.1606
X1.6713Y-1.2394
X1.75Y-1.1606
X1.75Y-1.2394
X1.8287Y-1.1606
X1.8287Y-1.2394
X1.9075Y-1.1606
X1.9075Y-1.2394
X2.4125Y-1.1606
X2.4125Y-1.2394
X2.4913Y-1.1606
X2.4913Y-1.2394
X2.57Y-1.1606
X2.57Y-1.2394
X2.6487Y-1.1606
X2.6487Y-1.2394
X2.7275Y-1.1606
X2.7275Y-1.2394
X3.1539Y-1.17
X3.2524Y-1.17
X3.3508Y-1.17
X3.4492Y-1.17
X3.5476Y-1.17
X3.6461Y-1.17
T5
X4.7579Y-3.2283
X5.1634Y-3.2283
T6
X1.15Y-1.5011
X1.15Y-1.6389
T7
X1.145Y-1.925
X1.145Y-2.525
X1.245Y-1.925
X1.245Y-2.025
X1.245Y-2.525
X1.345Y-1.925
X1.345Y-2.525
X1.38Y-3.515
X1.38Y-3.615
X1.445Y-1.925
X1.445Y-2.025
X1.445Y-2.525
X1.545Y-1.925
X1.545Y-2.025
X1.545Y-2.525
X1.565Y-3.515
X1.565Y-3.615
X1.645Y-1.925
X1.645Y-2.025
X1.645Y-2.525
X1.665Y-3.515
X1.665Y-3.615
X1.745Y-1.925
X1.745Y-2.125
X1.745Y-2.225
X1.745Y-2.525
X1.77Y-2.765
X1.77Y-2.865
X1.77Y-2.965
X1.77Y-3.065
X1.77Y-3.165
X1.77Y-3.265
X1.845Y-1.925
X1.845Y-2.125
X1.845Y-2.225
X1.845Y-2.525
X1.867Y-3.515
X1.867Y-3.615
X1.945Y-1.925
X1.945Y-2.125
X1.945Y-2.225
X1.945Y-2.525
X2.045Y-1.925
X2.045Y-2.125
X2.045Y-2.225
X2.045Y-2.525
X2.055Y-2.765
X2.0619Y-3.518
X2.0619Y-3.618
X2.145Y-1.925
X2.145Y-2.125
X2.145Y-2.225
X2.145Y-2.525
X2.155Y-2.765
X2.245Y-1.925
X2.245Y-2.125
X2.245Y-2.225
X2.245Y-2.525
X2.255Y-2.765
X2.285Y-3.515
X2.285Y-3.615
X2.345Y-1.925
X2.345Y-2.125
X2.345Y-2.225
X2.345Y-2.525
X2.355Y-2.765
X2.385Y-3.515
X2.385Y-3.615
X2.445Y-1.925
X2.445Y-2.025
X2.445Y-2.125
X2.445Y-2.225
X2.445Y-2.325
X2.445Y-2.425
X2.445Y-2.525
X2.8618Y-2.6043
X2.9618Y-2.6043
X3.0618Y-2.6043
X3.1618Y-2.6043
X3.2618Y-2.6043
X3.3618Y-2.6043
X3.4618Y-2.6043
X3.5618Y-2.6043
X3.6618Y-2.6043
X3.9913Y-3.622
X4.0913Y-3.622
X4.175Y-2.745
X4.1913Y-3.622
X4.24Y-1.18
X4.24Y-1.28
X4.275Y-2.745
X4.2913Y-3.622
X4.34Y-1.18
X4.34Y-1.28
X4.375Y-2.745
X4.3913Y-3.622
X4.44Y-1.18
X4.44Y-1.28
X4.475Y-2.745
X4.4913Y-3.622
X4.54Y-1.18
X4.54Y-1.28
X4.575Y-2.745
X4.5913Y-3.622
X4.64Y-1.18
X4.64Y-1.28
X4.675Y-2.745
X4.775Y-2.745
X4.8031Y-3.5327
X4.8031Y-3.6327
X4.875Y-2.745
X5.095Y-1.89
X5.095Y-1.99
X5.095Y-2.09
X5.095Y-2.19
X5.095Y-2.29
X5.095Y-2.39
X5.095Y-2.49
X5.095Y-2.59
T8
X4.7579Y-3.0827
X4.7583Y-3.3386
X5.1634Y-3.0827
X5.1634Y-3.3386
T9
X2.8618Y-1.4483
X3.6618Y-1.4483
X3.936Y-1.669
X3.936Y-2.811
X5.098Y-1.669
X5.098Y-2.811
T10
X1.15Y-1.15
X1.15Y-3.6
X5.1Y-1.15
X5.1Y-3.6
T0
M30
