G04 (created by PCBNEW (2013-jul-07)-stable) date Sun 08 May 2016 08:08:29 PM PDT*
%MOIN*%
G04 Gerber Fmt 3.4, Leading zero omitted, Abs format*
%FSLAX34Y34*%
G01*
G70*
G90*
G04 APERTURE LIST*
%ADD10C,0.00590551*%
%ADD11C,0.06*%
%ADD12R,0.06X0.06*%
%ADD13C,0.0629921*%
%ADD14C,0.0708661*%
%ADD15C,0.065*%
%ADD16C,0.13*%
%ADD17C,0.07*%
%ADD18C,0.125*%
%ADD19R,0.063X0.063*%
%ADD20C,0.063*%
%ADD21R,0.07X0.07*%
%ADD22C,0.0492126*%
%ADD23C,0.15*%
%ADD24R,0.02X0.012*%
%ADD25C,0.0590551*%
%ADD26C,0.0511811*%
%ADD27R,0.055X0.035*%
%ADD28R,0.035X0.055*%
%ADD29R,0.0236X0.0394*%
%ADD30C,0.035*%
%ADD31C,0.02*%
%ADD32C,0.01*%
%ADD33C,0.0119921*%
G04 APERTURE END LIST*
G54D10*
G54D11*
X20550Y-27650D03*
X21550Y-27650D03*
X22550Y-27650D03*
X23550Y-27650D03*
G54D12*
X16650Y-35150D03*
G54D11*
X16650Y-36150D03*
X15650Y-35150D03*
X15650Y-36150D03*
G54D12*
X18670Y-35150D03*
G54D11*
X18670Y-36150D03*
G54D12*
X20618Y-35179D03*
G54D11*
X20618Y-36179D03*
X17700Y-27650D03*
X17700Y-28650D03*
X17700Y-29650D03*
X17700Y-30650D03*
X17700Y-31650D03*
X17700Y-32650D03*
G54D13*
X47578Y-32283D03*
X51633Y-32283D03*
G54D14*
X47578Y-30826D03*
X47582Y-33385D03*
X51633Y-30826D03*
X51633Y-33385D03*
G54D15*
X12700Y-23780D03*
X12700Y-22800D03*
X12700Y-21820D03*
X11400Y-21820D03*
X11400Y-22800D03*
X11400Y-23780D03*
X28618Y-26043D03*
X29618Y-26043D03*
X30618Y-26043D03*
X31618Y-26043D03*
X32618Y-26043D03*
X33618Y-26043D03*
X34618Y-26043D03*
X35618Y-26043D03*
G54D16*
X28618Y-14483D03*
X36618Y-14483D03*
G54D15*
X36618Y-26043D03*
G54D17*
X50950Y-18900D03*
X50950Y-19900D03*
X50950Y-20900D03*
X50950Y-21900D03*
X50950Y-22900D03*
X50950Y-23900D03*
X50950Y-24900D03*
X50950Y-25900D03*
G54D18*
X50980Y-16690D03*
X50980Y-28110D03*
X39360Y-16690D03*
X39360Y-28110D03*
G54D19*
X11500Y-15011D03*
G54D20*
X11500Y-16389D03*
G54D12*
X13800Y-35150D03*
G54D11*
X13800Y-36150D03*
G54D21*
X42400Y-12800D03*
G54D17*
X42400Y-11800D03*
X43400Y-12800D03*
X43400Y-11800D03*
X44400Y-12800D03*
X44400Y-11800D03*
X45400Y-12800D03*
X45400Y-11800D03*
X46400Y-12800D03*
X46400Y-11800D03*
G54D11*
X11450Y-25250D03*
X12450Y-25250D03*
X13450Y-25250D03*
X14450Y-25250D03*
X15450Y-25250D03*
X16450Y-25250D03*
X17450Y-25250D03*
X18450Y-25250D03*
X19450Y-25250D03*
X20450Y-25250D03*
X21450Y-25250D03*
X22450Y-25250D03*
X23450Y-25250D03*
X24450Y-25250D03*
X24450Y-24250D03*
X24450Y-23250D03*
X24450Y-22250D03*
X24450Y-21250D03*
X24450Y-20250D03*
X24450Y-19250D03*
X23450Y-19250D03*
X22450Y-19250D03*
X21450Y-19250D03*
X20450Y-19250D03*
X19450Y-19250D03*
X18450Y-19250D03*
X17450Y-19250D03*
X16450Y-19250D03*
X15450Y-19250D03*
X14450Y-19250D03*
X13450Y-19250D03*
X12450Y-19250D03*
X11450Y-19250D03*
X17450Y-22250D03*
X18450Y-22250D03*
X19450Y-22250D03*
X20450Y-22250D03*
X21450Y-22250D03*
X22450Y-22250D03*
X23450Y-22250D03*
X23450Y-21250D03*
X22450Y-21250D03*
X21450Y-21250D03*
X20450Y-21250D03*
X19450Y-21250D03*
X18450Y-21250D03*
X17450Y-21250D03*
X16450Y-20250D03*
X15450Y-20250D03*
X14450Y-20250D03*
X12450Y-20250D03*
G54D22*
X24125Y-12393D03*
X24125Y-11606D03*
X24912Y-12393D03*
X24912Y-11606D03*
X25700Y-12393D03*
X25700Y-11606D03*
X26487Y-12393D03*
X26487Y-11606D03*
X27274Y-12393D03*
X27274Y-11606D03*
X15925Y-12393D03*
X15925Y-11606D03*
X16712Y-12393D03*
X16712Y-11606D03*
X17500Y-12393D03*
X17500Y-11606D03*
X18287Y-12393D03*
X18287Y-11606D03*
X19074Y-12393D03*
X19074Y-11606D03*
G54D23*
X11500Y-11500D03*
X11500Y-36000D03*
X51000Y-11500D03*
X51000Y-36000D03*
G54D24*
X45150Y-30300D03*
X45150Y-30800D03*
X45950Y-30300D03*
X45150Y-30550D03*
X45950Y-30800D03*
G54D25*
X36460Y-11700D03*
X31539Y-11700D03*
X32523Y-11700D03*
X33507Y-11700D03*
X34492Y-11700D03*
X35476Y-11700D03*
G54D12*
X22850Y-36150D03*
G54D11*
X22850Y-35150D03*
X23850Y-36150D03*
X23850Y-35150D03*
G54D26*
X35743Y-27869D03*
X34955Y-27869D03*
X34168Y-27869D03*
X33381Y-27869D03*
X32593Y-27869D03*
X31806Y-27869D03*
X31018Y-27869D03*
X30231Y-27869D03*
X29444Y-27869D03*
X28656Y-27869D03*
X28656Y-36530D03*
X29444Y-36530D03*
X30231Y-36530D03*
X31018Y-36530D03*
X31806Y-36530D03*
X32593Y-36530D03*
X33381Y-36530D03*
X34168Y-36530D03*
X34955Y-36530D03*
X35743Y-36530D03*
G54D11*
X48750Y-27450D03*
X47750Y-27450D03*
X41750Y-27450D03*
X42750Y-27450D03*
X43750Y-27450D03*
X44750Y-27450D03*
X45750Y-27450D03*
X46750Y-27450D03*
G54D12*
X48031Y-35326D03*
G54D11*
X48031Y-36326D03*
G54D12*
X39913Y-36220D03*
G54D11*
X40913Y-36220D03*
X41913Y-36220D03*
X42913Y-36220D03*
X43913Y-36220D03*
X44913Y-36220D03*
X45913Y-36220D03*
G54D27*
X40050Y-30575D03*
X40050Y-31325D03*
X43750Y-30775D03*
X43750Y-31525D03*
G54D28*
X42075Y-30200D03*
X41325Y-30200D03*
G54D27*
X26600Y-31175D03*
X26600Y-30425D03*
X28500Y-30425D03*
X28500Y-31175D03*
G54D29*
X27044Y-32826D03*
X27556Y-32826D03*
X27300Y-33574D03*
G54D27*
X30400Y-18925D03*
X30400Y-19675D03*
G54D28*
X41725Y-17400D03*
X42475Y-17400D03*
X44225Y-17400D03*
X44975Y-17400D03*
G54D27*
X23400Y-16925D03*
X23400Y-17675D03*
X23400Y-15025D03*
X23400Y-15775D03*
X24800Y-16925D03*
X24800Y-17675D03*
X24800Y-15025D03*
X24800Y-15775D03*
X26200Y-16925D03*
X26200Y-17675D03*
X26200Y-15025D03*
X26200Y-15775D03*
X27600Y-18925D03*
X27600Y-19675D03*
X27600Y-16925D03*
X27600Y-17675D03*
X29000Y-18925D03*
X29000Y-19675D03*
X29000Y-16925D03*
X29000Y-17675D03*
X22000Y-15025D03*
X22000Y-15775D03*
X30400Y-16925D03*
X30400Y-17675D03*
X15000Y-16925D03*
X15000Y-17675D03*
X15000Y-15025D03*
X15000Y-15775D03*
X16400Y-16925D03*
X16400Y-17675D03*
X16400Y-15025D03*
X16400Y-15775D03*
X17800Y-16925D03*
X17800Y-17675D03*
X17800Y-15025D03*
X17800Y-15775D03*
X19200Y-16925D03*
X19200Y-17675D03*
X19200Y-15025D03*
X19200Y-15775D03*
X20600Y-16925D03*
X20600Y-17675D03*
X20600Y-15025D03*
X20600Y-15775D03*
X22000Y-16925D03*
X22000Y-17675D03*
G54D30*
X21441Y-20327D03*
X15808Y-30955D03*
X21300Y-17214D03*
X19482Y-16468D03*
X15415Y-18136D03*
X22565Y-15799D03*
X26391Y-28004D03*
X25956Y-36990D03*
X15335Y-21034D03*
X23526Y-23473D03*
X25043Y-22878D03*
X25505Y-19476D03*
X27458Y-21760D03*
X26505Y-21006D03*
X41503Y-20794D03*
X41122Y-12960D03*
X42005Y-19247D03*
X19903Y-13222D03*
X28249Y-20038D03*
X22807Y-17375D03*
X19855Y-17214D03*
X18582Y-17362D03*
X27595Y-15609D03*
X28481Y-12074D03*
X27008Y-18000D03*
X26822Y-18969D03*
X23940Y-15473D03*
X22221Y-26180D03*
X16316Y-31448D03*
X26821Y-28408D03*
X46773Y-30800D03*
X21810Y-36250D03*
X19775Y-34855D03*
G54D31*
X15650Y-35150D02*
X16650Y-35150D01*
X27044Y-32825D02*
X26725Y-32825D01*
X26600Y-31175D02*
X26600Y-31550D01*
X26725Y-31676D02*
X26600Y-31550D01*
X26725Y-32825D02*
X26725Y-31676D01*
X16650Y-35150D02*
X17150Y-35150D01*
X24170Y-32825D02*
X22347Y-34648D01*
X26725Y-32825D02*
X24170Y-32825D01*
X22347Y-35647D02*
X22850Y-36150D01*
X22347Y-34648D02*
X22347Y-35647D01*
X17819Y-34480D02*
X17150Y-35150D01*
X22179Y-34480D02*
X17819Y-34480D01*
X22347Y-34648D02*
X22179Y-34480D01*
X17266Y-33933D02*
X23550Y-27650D01*
X16155Y-33933D02*
X17266Y-33933D01*
X15135Y-34953D02*
X16155Y-33933D01*
X15135Y-35635D02*
X15135Y-34953D01*
X15650Y-36150D02*
X15135Y-35635D01*
X45950Y-30300D02*
X45649Y-30300D01*
X43498Y-28148D02*
X45649Y-30300D01*
X42448Y-28148D02*
X43498Y-28148D01*
X41750Y-27450D02*
X42448Y-28148D01*
X47051Y-30300D02*
X45950Y-30300D01*
X47578Y-30826D02*
X47051Y-30300D01*
X24739Y-23539D02*
X24450Y-23250D01*
X34874Y-23539D02*
X24739Y-23539D01*
X37809Y-26474D02*
X34874Y-23539D01*
X39309Y-26474D02*
X37809Y-26474D01*
X40285Y-27450D02*
X39309Y-26474D01*
X41750Y-27450D02*
X40285Y-27450D01*
X29470Y-34814D02*
X37809Y-26474D01*
X27059Y-34814D02*
X29470Y-34814D01*
X24919Y-36954D02*
X27059Y-34814D01*
X17454Y-36954D02*
X24919Y-36954D01*
X16650Y-36150D02*
X17454Y-36954D01*
X47637Y-36720D02*
X48031Y-36326D01*
X40413Y-36720D02*
X47637Y-36720D01*
X39913Y-36220D02*
X40413Y-36720D01*
X51508Y-25458D02*
X50950Y-24900D01*
X51508Y-26414D02*
X51508Y-25458D01*
X49924Y-27998D02*
X51508Y-26414D01*
X49924Y-34433D02*
X49924Y-27998D01*
X48031Y-36326D02*
X49924Y-34433D01*
X19550Y-29650D02*
X17700Y-29650D01*
X21550Y-27650D02*
X19550Y-29650D01*
X12187Y-23780D02*
X12700Y-23780D01*
X10945Y-25021D02*
X12187Y-23780D01*
X10945Y-25462D02*
X10945Y-25021D01*
X15133Y-29650D02*
X10945Y-25462D01*
X17700Y-29650D02*
X15133Y-29650D01*
X11450Y-19976D02*
X11450Y-19250D01*
X12616Y-21142D02*
X11450Y-19976D01*
X12770Y-21142D02*
X12616Y-21142D01*
X13244Y-21616D02*
X12770Y-21142D01*
X13244Y-23235D02*
X13244Y-21616D01*
X12700Y-23780D02*
X13244Y-23235D01*
X20618Y-35179D02*
X21119Y-35179D01*
X21270Y-35179D02*
X21119Y-35179D01*
X22185Y-36095D02*
X21270Y-35179D01*
X22185Y-36371D02*
X22185Y-36095D01*
X22464Y-36650D02*
X22185Y-36371D01*
X23349Y-36650D02*
X22464Y-36650D01*
X23850Y-36150D02*
X23349Y-36650D01*
X23676Y-11944D02*
X24125Y-12393D01*
X23676Y-11416D02*
X23676Y-11944D01*
X24550Y-10541D02*
X23676Y-11416D01*
X30381Y-10541D02*
X24550Y-10541D01*
X31539Y-11700D02*
X30381Y-10541D01*
G54D32*
X13800Y-32964D02*
X13800Y-35150D01*
X15808Y-30955D02*
X13800Y-32964D01*
X24372Y-20327D02*
X21441Y-20327D01*
X24450Y-20250D02*
X24372Y-20327D01*
X20600Y-15025D02*
X20600Y-14699D01*
X20593Y-14699D02*
X20600Y-14699D01*
X18287Y-12393D02*
X20593Y-14699D01*
X20600Y-15775D02*
X20600Y-16925D01*
X21025Y-16940D02*
X21300Y-17214D01*
X21025Y-16925D02*
X21025Y-16940D01*
X20600Y-16925D02*
X21025Y-16925D01*
X17500Y-14399D02*
X17500Y-12393D01*
X17800Y-14699D02*
X17500Y-14399D01*
X17800Y-15025D02*
X17800Y-14699D01*
X17800Y-16925D02*
X17800Y-16599D01*
X17800Y-15775D02*
X17800Y-16100D01*
X17924Y-16474D02*
X17924Y-16468D01*
X17800Y-16599D02*
X17924Y-16474D01*
X17924Y-16225D02*
X17800Y-16100D01*
X17924Y-16468D02*
X17924Y-16225D01*
X17924Y-16468D02*
X19482Y-16468D01*
X16825Y-12506D02*
X16712Y-12393D01*
X16825Y-15268D02*
X16825Y-12506D01*
X16743Y-15350D02*
X16825Y-15268D01*
X15000Y-15350D02*
X16743Y-15350D01*
X15000Y-15025D02*
X15000Y-15350D01*
X11427Y-15775D02*
X13850Y-15775D01*
X11034Y-16168D02*
X11427Y-15775D01*
X11034Y-16611D02*
X11034Y-16168D01*
X11987Y-17564D02*
X11034Y-16611D01*
X11987Y-19438D02*
X11987Y-17564D01*
X12248Y-19700D02*
X11987Y-19438D01*
X12647Y-19700D02*
X12248Y-19700D01*
X12900Y-19447D02*
X12647Y-19700D01*
X12900Y-19153D02*
X12900Y-19447D01*
X13459Y-18594D02*
X12900Y-19153D01*
X17794Y-18594D02*
X13459Y-18594D01*
X18450Y-19250D02*
X17794Y-18594D01*
X13850Y-15775D02*
X15000Y-15775D01*
X14674Y-16599D02*
X15000Y-16599D01*
X13850Y-15775D02*
X14674Y-16599D01*
X15000Y-16925D02*
X15000Y-16599D01*
X29000Y-16925D02*
X29000Y-16599D01*
X26487Y-14041D02*
X26487Y-12393D01*
X29000Y-16553D02*
X26487Y-14041D01*
X29000Y-16599D02*
X29000Y-16553D01*
X29000Y-18925D02*
X29000Y-18599D01*
X29000Y-17675D02*
X29000Y-18599D01*
X17311Y-20111D02*
X16450Y-19250D01*
X21110Y-20111D02*
X17311Y-20111D01*
X21306Y-19914D02*
X21110Y-20111D01*
X23710Y-19914D02*
X21306Y-19914D01*
X23835Y-19790D02*
X23710Y-19914D01*
X25223Y-19790D02*
X23835Y-19790D01*
X25234Y-19801D02*
X25223Y-19790D01*
X25660Y-19801D02*
X25234Y-19801D01*
X26449Y-19012D02*
X25660Y-19801D01*
X26449Y-18871D02*
X26449Y-19012D01*
X26720Y-18599D02*
X26449Y-18871D01*
X29000Y-18599D02*
X26720Y-18599D01*
X26200Y-12893D02*
X25700Y-12393D01*
X26200Y-15025D02*
X26200Y-12893D01*
X26200Y-15775D02*
X26200Y-16925D01*
X26200Y-16925D02*
X26200Y-17250D01*
X26412Y-18136D02*
X15415Y-18136D01*
X26641Y-17907D02*
X26412Y-18136D01*
X26641Y-17447D02*
X26641Y-17907D01*
X26443Y-17250D02*
X26641Y-17447D01*
X26200Y-17250D02*
X26443Y-17250D01*
X25225Y-12706D02*
X24912Y-12393D01*
X25225Y-15268D02*
X25225Y-12706D01*
X25143Y-15350D02*
X25225Y-15268D01*
X24391Y-15350D02*
X25143Y-15350D01*
X24066Y-15025D02*
X24391Y-15350D01*
X23400Y-15025D02*
X24066Y-15025D01*
X23400Y-16925D02*
X23400Y-16599D01*
X23400Y-15799D02*
X22565Y-15799D01*
X23400Y-15775D02*
X23400Y-15799D01*
X23400Y-15799D02*
X23400Y-16599D01*
X28369Y-24795D02*
X29618Y-26043D01*
X21265Y-24795D02*
X28369Y-24795D01*
X20950Y-25110D02*
X21265Y-24795D01*
X20950Y-25405D02*
X20950Y-25110D01*
X20249Y-26106D02*
X20950Y-25405D01*
X15306Y-26106D02*
X20249Y-26106D01*
X14450Y-25250D02*
X15306Y-26106D01*
X31374Y-23799D02*
X33618Y-26043D01*
X20249Y-23799D02*
X31374Y-23799D01*
X18950Y-25098D02*
X20249Y-23799D01*
X18950Y-25398D02*
X18950Y-25098D01*
X18442Y-25905D02*
X18950Y-25398D01*
X15465Y-25905D02*
X18442Y-25905D01*
X14950Y-25390D02*
X15465Y-25905D01*
X14950Y-25105D02*
X14950Y-25390D01*
X14633Y-24789D02*
X14950Y-25105D01*
X13910Y-24789D02*
X14633Y-24789D01*
X13450Y-25250D02*
X13910Y-24789D01*
X24970Y-26583D02*
X26391Y-28004D01*
X13783Y-26583D02*
X24970Y-26583D01*
X12450Y-25250D02*
X13783Y-26583D01*
X43750Y-27450D02*
X42750Y-27450D01*
X45750Y-27450D02*
X44750Y-27450D01*
X40050Y-30575D02*
X40050Y-30412D01*
X39463Y-30999D02*
X39463Y-36114D01*
X40050Y-30412D02*
X39463Y-30999D01*
X48036Y-36983D02*
X51633Y-33385D01*
X39854Y-36983D02*
X48036Y-36983D01*
X39463Y-36591D02*
X39854Y-36983D01*
X39463Y-36114D02*
X39463Y-36591D01*
X40262Y-30200D02*
X40050Y-30412D01*
X41325Y-30200D02*
X40262Y-30200D01*
X26831Y-36114D02*
X25956Y-36990D01*
X39463Y-36114D02*
X26831Y-36114D01*
X20950Y-21750D02*
X21450Y-22250D01*
X16050Y-21750D02*
X20950Y-21750D01*
X15335Y-21034D02*
X16050Y-21750D01*
X46750Y-27450D02*
X47750Y-27450D01*
X50928Y-22878D02*
X50950Y-22900D01*
X25043Y-22878D02*
X50928Y-22878D01*
X15904Y-25704D02*
X15450Y-25250D01*
X17644Y-25704D02*
X15904Y-25704D01*
X17950Y-25398D02*
X17644Y-25704D01*
X17950Y-25099D02*
X17950Y-25398D01*
X19575Y-23473D02*
X17950Y-25099D01*
X23526Y-23473D02*
X19575Y-23473D01*
X50513Y-21336D02*
X50950Y-20900D01*
X26034Y-21336D02*
X50513Y-21336D01*
X24670Y-22700D02*
X26034Y-21336D01*
X19999Y-22700D02*
X24670Y-22700D01*
X17450Y-25250D02*
X19999Y-22700D01*
X24825Y-18797D02*
X25505Y-19476D01*
X23248Y-18797D02*
X24825Y-18797D01*
X22950Y-19095D02*
X23248Y-18797D01*
X22950Y-19411D02*
X22950Y-19095D01*
X22646Y-19714D02*
X22950Y-19411D01*
X21223Y-19714D02*
X22646Y-19714D01*
X21031Y-19907D02*
X21223Y-19714D01*
X17435Y-19907D02*
X21031Y-19907D01*
X16950Y-19421D02*
X17435Y-19907D01*
X16950Y-19100D02*
X16950Y-19421D01*
X16643Y-18794D02*
X16950Y-19100D01*
X15243Y-18794D02*
X16643Y-18794D01*
X14986Y-19052D02*
X15243Y-18794D01*
X14986Y-23786D02*
X14986Y-19052D01*
X16450Y-25250D02*
X14986Y-23786D01*
X27598Y-21900D02*
X50950Y-21900D01*
X27458Y-21760D02*
X27598Y-21900D01*
X25092Y-25250D02*
X24450Y-25250D01*
X28142Y-28300D02*
X25092Y-25250D01*
X32949Y-28300D02*
X28142Y-28300D01*
X33381Y-27869D02*
X32949Y-28300D01*
X35139Y-11053D02*
X34492Y-11700D01*
X44653Y-11053D02*
X35139Y-11053D01*
X45400Y-11800D02*
X44653Y-11053D01*
X46400Y-15350D02*
X46400Y-12800D01*
X50950Y-19900D02*
X46400Y-15350D01*
X33377Y-10846D02*
X32523Y-11700D01*
X46176Y-10846D02*
X33377Y-10846D01*
X46902Y-11571D02*
X46176Y-10846D01*
X46902Y-12297D02*
X46902Y-11571D01*
X46400Y-12800D02*
X46902Y-12297D01*
X44975Y-13375D02*
X44975Y-17400D01*
X44400Y-12800D02*
X44975Y-13375D01*
X44975Y-17400D02*
X44975Y-17825D01*
X42005Y-20794D02*
X44975Y-17825D01*
X41503Y-20794D02*
X42005Y-20794D01*
X41291Y-21006D02*
X26505Y-21006D01*
X41503Y-20794D02*
X41291Y-21006D01*
X42475Y-17400D02*
X42149Y-17400D01*
X42005Y-17825D02*
X42005Y-19247D01*
X41481Y-17825D02*
X42005Y-17825D01*
X41122Y-17466D02*
X41481Y-17825D01*
X41122Y-12960D02*
X41122Y-17466D01*
X42149Y-17680D02*
X42149Y-17400D01*
X42005Y-17825D02*
X42149Y-17680D01*
X19074Y-12393D02*
X19903Y-13222D01*
X42853Y-11253D02*
X43400Y-11800D01*
X36270Y-11253D02*
X42853Y-11253D01*
X35968Y-11554D02*
X36270Y-11253D01*
X35968Y-12038D02*
X35968Y-11554D01*
X31804Y-16202D02*
X35968Y-12038D01*
X31804Y-18184D02*
X31804Y-16202D01*
X30639Y-19349D02*
X31804Y-18184D01*
X27003Y-19349D02*
X30639Y-19349D01*
X24603Y-21750D02*
X27003Y-19349D01*
X22950Y-21750D02*
X24603Y-21750D01*
X22450Y-22250D02*
X22950Y-21750D01*
X44550Y-13950D02*
X43400Y-12800D01*
X44550Y-17757D02*
X44550Y-13950D01*
X42269Y-20038D02*
X44550Y-17757D01*
X28249Y-20038D02*
X42269Y-20038D01*
G54D31*
X44225Y-17400D02*
X43849Y-17400D01*
X42400Y-12800D02*
X42400Y-13350D01*
X42400Y-16894D02*
X42400Y-13350D01*
X43344Y-16894D02*
X42400Y-16894D01*
X43849Y-17400D02*
X43344Y-16894D01*
X42230Y-16894D02*
X41725Y-17400D01*
X42400Y-16894D02*
X42230Y-16894D01*
X23850Y-35150D02*
X22850Y-35150D01*
G54D32*
X22000Y-15025D02*
X22000Y-14699D01*
X22000Y-13969D02*
X22000Y-14699D01*
X19238Y-11208D02*
X22000Y-13969D01*
X18685Y-11208D02*
X19238Y-11208D01*
X18287Y-11606D02*
X18685Y-11208D01*
X22425Y-16993D02*
X22807Y-17375D01*
X22425Y-16925D02*
X22425Y-16993D01*
X22000Y-16925D02*
X22212Y-16925D01*
X22212Y-16925D02*
X22425Y-16925D01*
X22212Y-16312D02*
X22000Y-16100D01*
X22212Y-16925D02*
X22212Y-16312D01*
X22000Y-15775D02*
X22000Y-16100D01*
X18117Y-10988D02*
X17500Y-11606D01*
X19307Y-10988D02*
X18117Y-10988D01*
X22425Y-14106D02*
X19307Y-10988D01*
X22425Y-15281D02*
X22425Y-14106D01*
X22356Y-15350D02*
X22425Y-15281D01*
X19200Y-15350D02*
X22356Y-15350D01*
X19200Y-15025D02*
X19200Y-15350D01*
X19200Y-15775D02*
X19625Y-15775D01*
X19200Y-16925D02*
X19625Y-16925D01*
X19812Y-16738D02*
X19625Y-16925D01*
X19812Y-15961D02*
X19812Y-16738D01*
X19625Y-15775D02*
X19812Y-15961D01*
X19855Y-17155D02*
X19855Y-17214D01*
X19625Y-16925D02*
X19855Y-17155D01*
X16293Y-11187D02*
X16712Y-11606D01*
X15756Y-11187D02*
X16293Y-11187D01*
X15509Y-11434D02*
X15756Y-11187D01*
X15509Y-13809D02*
X15509Y-11434D01*
X16400Y-14699D02*
X15509Y-13809D01*
X16400Y-15025D02*
X16400Y-14699D01*
X16400Y-15775D02*
X16400Y-16925D01*
X16400Y-16925D02*
X16400Y-17250D01*
X18469Y-17250D02*
X18582Y-17362D01*
X16400Y-17250D02*
X18469Y-17250D01*
X30400Y-14453D02*
X30400Y-16925D01*
X28155Y-12209D02*
X30400Y-14453D01*
X28155Y-11922D02*
X28155Y-12209D01*
X27429Y-11196D02*
X28155Y-11922D01*
X26897Y-11196D02*
X27429Y-11196D01*
X26487Y-11606D02*
X26897Y-11196D01*
X30400Y-17675D02*
X30400Y-18925D01*
X28643Y-17349D02*
X30400Y-17349D01*
X27597Y-18396D02*
X28643Y-17349D01*
X19653Y-18396D02*
X27597Y-18396D01*
X18950Y-19099D02*
X19653Y-18396D01*
X18950Y-19399D02*
X18950Y-19099D01*
X18642Y-19706D02*
X18950Y-19399D01*
X17906Y-19706D02*
X18642Y-19706D01*
X17450Y-19250D02*
X17906Y-19706D01*
X30400Y-17675D02*
X30400Y-17349D01*
X27595Y-16595D02*
X27595Y-15609D01*
X27600Y-16599D02*
X27595Y-16595D01*
X26314Y-10991D02*
X25700Y-11606D01*
X27516Y-10991D02*
X26314Y-10991D01*
X28481Y-11956D02*
X27516Y-10991D01*
X28481Y-12074D02*
X28481Y-11956D01*
X27600Y-16925D02*
X27600Y-16599D01*
X26866Y-18925D02*
X26822Y-18969D01*
X27600Y-18925D02*
X26866Y-18925D01*
X15950Y-19750D02*
X15450Y-19250D01*
X16666Y-19750D02*
X15950Y-19750D01*
X17618Y-20701D02*
X16666Y-19750D01*
X25090Y-20701D02*
X17618Y-20701D01*
X26822Y-18969D02*
X25090Y-20701D01*
X27600Y-17675D02*
X27600Y-18000D01*
X27600Y-18000D02*
X27008Y-18000D01*
X24800Y-15025D02*
X24800Y-14699D01*
X25727Y-10791D02*
X24912Y-11606D01*
X27657Y-10791D02*
X25727Y-10791D01*
X29014Y-12148D02*
X27657Y-10791D01*
X31728Y-12148D02*
X29014Y-12148D01*
X31989Y-11888D02*
X31728Y-12148D01*
X31989Y-11497D02*
X31989Y-11888D01*
X30783Y-10291D02*
X31989Y-11497D01*
X24416Y-10291D02*
X30783Y-10291D01*
X23409Y-11299D02*
X24416Y-10291D01*
X23409Y-13309D02*
X23409Y-11299D01*
X24800Y-14699D02*
X23409Y-13309D01*
X24800Y-16925D02*
X24800Y-15775D01*
X24800Y-15775D02*
X24374Y-15775D01*
X24073Y-15473D02*
X23940Y-15473D01*
X24374Y-15775D02*
X24073Y-15473D01*
X33527Y-28509D02*
X34168Y-27869D01*
X28068Y-28509D02*
X33527Y-28509D01*
X25374Y-25815D02*
X28068Y-28509D01*
X23015Y-25815D02*
X25374Y-25815D01*
X22450Y-25250D02*
X23015Y-25815D01*
X21750Y-25250D02*
X21450Y-25250D01*
X22515Y-26015D02*
X21750Y-25250D01*
X25291Y-26015D02*
X22515Y-26015D01*
X27985Y-28710D02*
X25291Y-26015D01*
X34115Y-28710D02*
X27985Y-28710D01*
X34955Y-27869D02*
X34115Y-28710D01*
X22297Y-26257D02*
X22221Y-26180D01*
X25133Y-26257D02*
X22297Y-26257D01*
X28500Y-29623D02*
X25133Y-26257D01*
X28500Y-30425D02*
X28500Y-29623D01*
X14885Y-32879D02*
X16316Y-31448D01*
X14885Y-36027D02*
X14885Y-32879D01*
X16176Y-37319D02*
X14885Y-36027D01*
X32592Y-37319D02*
X16176Y-37319D01*
X33381Y-36530D02*
X32592Y-37319D01*
G54D33*
X45199Y-30849D02*
X45150Y-30800D01*
G54D31*
X49606Y-27243D02*
X50950Y-25900D01*
X49606Y-29597D02*
X49606Y-27243D01*
X47803Y-31400D02*
X49606Y-29597D01*
X45750Y-31400D02*
X47803Y-31400D01*
X45199Y-30849D02*
X45750Y-31400D01*
X24800Y-17675D02*
X26200Y-17675D01*
X22000Y-17675D02*
X22475Y-17675D01*
X20600Y-17675D02*
X22000Y-17675D01*
X24549Y-22250D02*
X24450Y-22250D01*
X27124Y-19675D02*
X24549Y-22250D01*
X27600Y-19675D02*
X27124Y-19675D01*
X27600Y-19675D02*
X28075Y-19675D01*
X28086Y-19663D02*
X28075Y-19675D01*
X28513Y-19663D02*
X28086Y-19663D01*
X28524Y-19675D02*
X28513Y-19663D01*
X29000Y-19675D02*
X28524Y-19675D01*
X20600Y-17675D02*
X20124Y-17675D01*
X19200Y-17675D02*
X20124Y-17675D01*
X29276Y-27249D02*
X28656Y-27869D01*
X33411Y-27249D02*
X29276Y-27249D01*
X34618Y-26043D02*
X33411Y-27249D01*
X24800Y-17675D02*
X24324Y-17675D01*
X23324Y-17750D02*
X23400Y-17675D01*
X22550Y-17750D02*
X23324Y-17750D01*
X22475Y-17675D02*
X22550Y-17750D01*
X23400Y-17675D02*
X24324Y-17675D01*
X18203Y-27146D02*
X17700Y-27650D01*
X22046Y-27146D02*
X18203Y-27146D01*
X22550Y-27650D02*
X22046Y-27146D01*
X13850Y-27650D02*
X11450Y-25250D01*
X17700Y-27650D02*
X13850Y-27650D01*
X15000Y-17675D02*
X16400Y-17675D01*
G54D32*
X44293Y-31525D02*
X43750Y-31525D01*
X45018Y-30800D02*
X44293Y-31525D01*
X45150Y-30800D02*
X45018Y-30800D01*
G54D31*
X40050Y-31325D02*
X40525Y-31325D01*
X40913Y-36220D02*
X40913Y-31525D01*
X43750Y-31525D02*
X40913Y-31525D01*
X40725Y-31525D02*
X40525Y-31325D01*
X40913Y-31525D02*
X40725Y-31525D01*
X12785Y-18914D02*
X12785Y-17675D01*
X12450Y-19250D02*
X12785Y-18914D01*
X15000Y-17675D02*
X12785Y-17675D01*
X12785Y-17675D02*
X11500Y-16389D01*
X26193Y-28408D02*
X26821Y-28408D01*
X24928Y-27143D02*
X26193Y-28408D01*
X23056Y-27143D02*
X24928Y-27143D01*
X22550Y-27650D02*
X23056Y-27143D01*
X29000Y-19675D02*
X30400Y-19675D01*
X33175Y-15185D02*
X36560Y-11800D01*
X33175Y-17375D02*
X33175Y-15185D01*
X30875Y-19675D02*
X33175Y-17375D01*
X36460Y-11700D02*
X36560Y-11800D01*
X36560Y-11800D02*
X42400Y-11800D01*
X30400Y-19675D02*
X30875Y-19675D01*
X17800Y-17675D02*
X16400Y-17675D01*
X19137Y-17737D02*
X19200Y-17675D01*
X18337Y-17737D02*
X19137Y-17737D01*
X18275Y-17675D02*
X18337Y-17737D01*
X17800Y-17675D02*
X18275Y-17675D01*
G54D32*
X19775Y-35156D02*
X19775Y-34855D01*
X20348Y-35729D02*
X19775Y-35156D01*
X21289Y-35729D02*
X20348Y-35729D01*
X21810Y-36250D02*
X21289Y-35729D01*
X45950Y-30800D02*
X46773Y-30800D01*
X44635Y-30550D02*
X45150Y-30550D01*
X44410Y-30775D02*
X44635Y-30550D01*
X43750Y-30775D02*
X44410Y-30775D01*
X42975Y-30775D02*
X42400Y-30200D01*
X43750Y-30775D02*
X42975Y-30775D01*
X42075Y-30200D02*
X42400Y-30200D01*
G54D31*
X12050Y-22150D02*
X12700Y-22800D01*
X12050Y-21213D02*
X12050Y-22150D01*
X10774Y-19937D02*
X12050Y-21213D01*
X10774Y-15736D02*
X10774Y-19937D01*
X11500Y-15010D02*
X10774Y-15736D01*
G54D32*
X27555Y-32444D02*
X28500Y-31500D01*
X27555Y-32825D02*
X27555Y-32444D01*
X28500Y-31175D02*
X28500Y-31337D01*
X28500Y-31337D02*
X28500Y-31500D01*
X27587Y-30425D02*
X26600Y-30425D01*
X28500Y-31337D02*
X27587Y-30425D01*
X44807Y-35326D02*
X48031Y-35326D01*
X43913Y-36220D02*
X44807Y-35326D01*
G54D31*
X30038Y-33574D02*
X35743Y-27869D01*
X27300Y-33574D02*
X30038Y-33574D01*
M02*
