G04 (created by PCBNEW (2013-jul-07)-stable) date Mon 24 Nov 2014 01:28:27 PM PST*
%MOIN*%
G04 Gerber Fmt 3.4, Leading zero omitted, Abs format*
%FSLAX34Y34*%
G01*
G70*
G90*
G04 APERTURE LIST*
%ADD10C,0.00590551*%
%ADD11C,0.012*%
G04 APERTURE END LIST*
G54D10*
G54D11*
X25599Y-23935D02*
X25685Y-23907D01*
X25828Y-23907D01*
X25885Y-23935D01*
X25914Y-23964D01*
X25942Y-24021D01*
X25942Y-24078D01*
X25914Y-24135D01*
X25885Y-24164D01*
X25828Y-24192D01*
X25714Y-24221D01*
X25657Y-24250D01*
X25628Y-24278D01*
X25599Y-24335D01*
X25599Y-24392D01*
X25628Y-24450D01*
X25657Y-24478D01*
X25714Y-24507D01*
X25857Y-24507D01*
X25942Y-24478D01*
X26457Y-23907D02*
X26457Y-24221D01*
X26428Y-24278D01*
X26371Y-24307D01*
X26257Y-24307D01*
X26199Y-24278D01*
X26457Y-23935D02*
X26399Y-23907D01*
X26257Y-23907D01*
X26199Y-23935D01*
X26171Y-23992D01*
X26171Y-24050D01*
X26199Y-24107D01*
X26257Y-24135D01*
X26399Y-24135D01*
X26457Y-24164D01*
X26657Y-24307D02*
X26885Y-24307D01*
X26742Y-23907D02*
X26742Y-24421D01*
X26771Y-24478D01*
X26828Y-24507D01*
X26885Y-24507D01*
X27314Y-23935D02*
X27257Y-23907D01*
X27142Y-23907D01*
X27085Y-23935D01*
X27057Y-23992D01*
X27057Y-24221D01*
X27085Y-24278D01*
X27142Y-24307D01*
X27257Y-24307D01*
X27314Y-24278D01*
X27342Y-24221D01*
X27342Y-24164D01*
X27057Y-24107D01*
X27857Y-23935D02*
X27799Y-23907D01*
X27685Y-23907D01*
X27628Y-23935D01*
X27599Y-23964D01*
X27571Y-24021D01*
X27571Y-24192D01*
X27599Y-24250D01*
X27628Y-24278D01*
X27685Y-24307D01*
X27799Y-24307D01*
X27857Y-24278D01*
X28371Y-23907D02*
X28371Y-24221D01*
X28342Y-24278D01*
X28285Y-24307D01*
X28171Y-24307D01*
X28114Y-24278D01*
X28371Y-23935D02*
X28314Y-23907D01*
X28171Y-23907D01*
X28114Y-23935D01*
X28085Y-23992D01*
X28085Y-24050D01*
X28114Y-24107D01*
X28171Y-24135D01*
X28314Y-24135D01*
X28371Y-24164D01*
X28628Y-23935D02*
X28685Y-23907D01*
X28799Y-23907D01*
X28857Y-23935D01*
X28885Y-23992D01*
X28885Y-24021D01*
X28857Y-24078D01*
X28799Y-24107D01*
X28714Y-24107D01*
X28657Y-24135D01*
X28628Y-24192D01*
X28628Y-24221D01*
X28657Y-24278D01*
X28714Y-24307D01*
X28799Y-24307D01*
X28857Y-24278D01*
X29057Y-24307D02*
X29285Y-24307D01*
X29142Y-24507D02*
X29142Y-23992D01*
X29171Y-23935D01*
X29228Y-23907D01*
X29285Y-23907D01*
X29914Y-24078D02*
X30199Y-24078D01*
X29857Y-23907D02*
X30057Y-24507D01*
X30257Y-23907D01*
X30457Y-23907D02*
X30457Y-24307D01*
X30457Y-24507D02*
X30428Y-24478D01*
X30457Y-24450D01*
X30485Y-24478D01*
X30457Y-24507D01*
X30457Y-24450D01*
X30742Y-23907D02*
X30742Y-24307D01*
X30742Y-24192D02*
X30771Y-24250D01*
X30799Y-24278D01*
X30857Y-24307D01*
X30914Y-24307D01*
X31571Y-23907D02*
X31571Y-24507D01*
X31800Y-24507D01*
X31857Y-24478D01*
X31885Y-24450D01*
X31914Y-24392D01*
X31914Y-24307D01*
X31885Y-24250D01*
X31857Y-24221D01*
X31800Y-24192D01*
X31571Y-24192D01*
X32171Y-23907D02*
X32171Y-24307D01*
X32171Y-24192D02*
X32200Y-24250D01*
X32228Y-24278D01*
X32285Y-24307D01*
X32342Y-24307D01*
X32628Y-23907D02*
X32571Y-23935D01*
X32542Y-23964D01*
X32514Y-24021D01*
X32514Y-24192D01*
X32542Y-24250D01*
X32571Y-24278D01*
X32628Y-24307D01*
X32714Y-24307D01*
X32771Y-24278D01*
X32800Y-24250D01*
X32828Y-24192D01*
X32828Y-24021D01*
X32800Y-23964D01*
X32771Y-23935D01*
X32714Y-23907D01*
X32628Y-23907D01*
X33000Y-24307D02*
X33228Y-24307D01*
X33085Y-24507D02*
X33085Y-23992D01*
X33114Y-23935D01*
X33171Y-23907D01*
X33228Y-23907D01*
X33514Y-23907D02*
X33457Y-23935D01*
X33428Y-23964D01*
X33400Y-24021D01*
X33400Y-24192D01*
X33428Y-24250D01*
X33457Y-24278D01*
X33514Y-24307D01*
X33600Y-24307D01*
X33657Y-24278D01*
X33685Y-24250D01*
X33714Y-24192D01*
X33714Y-24021D01*
X33685Y-23964D01*
X33657Y-23935D01*
X33600Y-23907D01*
X33514Y-23907D01*
X33885Y-24307D02*
X34114Y-24307D01*
X33971Y-24507D02*
X33971Y-23992D01*
X34000Y-23935D01*
X34057Y-23907D01*
X34114Y-23907D01*
X34257Y-24307D02*
X34399Y-23907D01*
X34542Y-24307D02*
X34399Y-23907D01*
X34342Y-23764D01*
X34314Y-23735D01*
X34257Y-23707D01*
X34771Y-24307D02*
X34771Y-23707D01*
X34771Y-24278D02*
X34828Y-24307D01*
X34942Y-24307D01*
X35000Y-24278D01*
X35028Y-24250D01*
X35057Y-24192D01*
X35057Y-24021D01*
X35028Y-23964D01*
X35000Y-23935D01*
X34942Y-23907D01*
X34828Y-23907D01*
X34771Y-23935D01*
X35542Y-23935D02*
X35485Y-23907D01*
X35371Y-23907D01*
X35314Y-23935D01*
X35285Y-23992D01*
X35285Y-24221D01*
X35314Y-24278D01*
X35371Y-24307D01*
X35485Y-24307D01*
X35542Y-24278D01*
X35571Y-24221D01*
X35571Y-24164D01*
X35285Y-24107D01*
X36200Y-24507D02*
X36400Y-23907D01*
X36600Y-24507D01*
X36914Y-24507D02*
X36971Y-24507D01*
X37028Y-24478D01*
X37057Y-24450D01*
X37085Y-24392D01*
X37114Y-24278D01*
X37114Y-24135D01*
X37085Y-24021D01*
X37057Y-23964D01*
X37028Y-23935D01*
X36971Y-23907D01*
X36914Y-23907D01*
X36857Y-23935D01*
X36828Y-23964D01*
X36800Y-24021D01*
X36771Y-24135D01*
X36771Y-24278D01*
X36800Y-24392D01*
X36828Y-24450D01*
X36857Y-24478D01*
X36914Y-24507D01*
X37371Y-23964D02*
X37400Y-23935D01*
X37371Y-23907D01*
X37342Y-23935D01*
X37371Y-23964D01*
X37371Y-23907D01*
X37971Y-23907D02*
X37628Y-23907D01*
X37800Y-23907D02*
X37800Y-24507D01*
X37742Y-24421D01*
X37685Y-24364D01*
X37628Y-24335D01*
X39028Y-23907D02*
X38828Y-24192D01*
X38685Y-23907D02*
X38685Y-24507D01*
X38914Y-24507D01*
X38971Y-24478D01*
X39000Y-24450D01*
X39028Y-24392D01*
X39028Y-24307D01*
X39000Y-24250D01*
X38971Y-24221D01*
X38914Y-24192D01*
X38685Y-24192D01*
X39600Y-23907D02*
X39257Y-23907D01*
X39428Y-23907D02*
X39428Y-24507D01*
X39371Y-24421D01*
X39314Y-24364D01*
X39257Y-24335D01*
X28857Y-23347D02*
X28971Y-22947D01*
X29085Y-23232D01*
X29200Y-22947D01*
X29314Y-23347D01*
X29485Y-23347D02*
X29600Y-22947D01*
X29714Y-23232D01*
X29828Y-22947D01*
X29942Y-23347D01*
X30114Y-23347D02*
X30228Y-22947D01*
X30342Y-23232D01*
X30457Y-22947D01*
X30571Y-23347D01*
X30800Y-23004D02*
X30828Y-22975D01*
X30800Y-22947D01*
X30771Y-22975D01*
X30800Y-23004D01*
X30800Y-22947D01*
X31085Y-22947D02*
X31085Y-23347D01*
X31085Y-23547D02*
X31057Y-23518D01*
X31085Y-23490D01*
X31114Y-23518D01*
X31085Y-23547D01*
X31085Y-23490D01*
X31457Y-22947D02*
X31400Y-22975D01*
X31371Y-23004D01*
X31342Y-23061D01*
X31342Y-23232D01*
X31371Y-23290D01*
X31400Y-23318D01*
X31457Y-23347D01*
X31542Y-23347D01*
X31600Y-23318D01*
X31628Y-23290D01*
X31657Y-23232D01*
X31657Y-23061D01*
X31628Y-23004D01*
X31600Y-22975D01*
X31542Y-22947D01*
X31457Y-22947D01*
X31914Y-22947D02*
X31914Y-23347D01*
X31914Y-23232D02*
X31942Y-23290D01*
X31971Y-23318D01*
X32028Y-23347D01*
X32085Y-23347D01*
X32371Y-22947D02*
X32314Y-22975D01*
X32285Y-23004D01*
X32257Y-23061D01*
X32257Y-23232D01*
X32285Y-23290D01*
X32314Y-23318D01*
X32371Y-23347D01*
X32457Y-23347D01*
X32514Y-23318D01*
X32542Y-23290D01*
X32571Y-23232D01*
X32571Y-23061D01*
X32542Y-23004D01*
X32514Y-22975D01*
X32457Y-22947D01*
X32371Y-22947D01*
X33085Y-22947D02*
X33085Y-23547D01*
X33085Y-22975D02*
X33028Y-22947D01*
X32914Y-22947D01*
X32857Y-22975D01*
X32828Y-23004D01*
X32800Y-23061D01*
X32800Y-23232D01*
X32828Y-23290D01*
X32857Y-23318D01*
X32914Y-23347D01*
X33028Y-23347D01*
X33085Y-23318D01*
X33600Y-22975D02*
X33542Y-22947D01*
X33428Y-22947D01*
X33371Y-22975D01*
X33342Y-23032D01*
X33342Y-23261D01*
X33371Y-23318D01*
X33428Y-23347D01*
X33542Y-23347D01*
X33600Y-23318D01*
X33628Y-23261D01*
X33628Y-23204D01*
X33342Y-23147D01*
X33971Y-22947D02*
X33914Y-22975D01*
X33885Y-23004D01*
X33857Y-23061D01*
X33857Y-23232D01*
X33885Y-23290D01*
X33914Y-23318D01*
X33971Y-23347D01*
X34057Y-23347D01*
X34114Y-23318D01*
X34142Y-23290D01*
X34171Y-23232D01*
X34171Y-23061D01*
X34142Y-23004D01*
X34114Y-22975D01*
X34057Y-22947D01*
X33971Y-22947D01*
X34428Y-23004D02*
X34457Y-22975D01*
X34428Y-22947D01*
X34400Y-22975D01*
X34428Y-23004D01*
X34428Y-22947D01*
X34971Y-22975D02*
X34914Y-22947D01*
X34799Y-22947D01*
X34742Y-22975D01*
X34714Y-23004D01*
X34685Y-23061D01*
X34685Y-23232D01*
X34714Y-23290D01*
X34742Y-23318D01*
X34799Y-23347D01*
X34914Y-23347D01*
X34971Y-23318D01*
X35314Y-22947D02*
X35257Y-22975D01*
X35228Y-23004D01*
X35200Y-23061D01*
X35200Y-23232D01*
X35228Y-23290D01*
X35257Y-23318D01*
X35314Y-23347D01*
X35400Y-23347D01*
X35457Y-23318D01*
X35485Y-23290D01*
X35514Y-23232D01*
X35514Y-23061D01*
X35485Y-23004D01*
X35457Y-22975D01*
X35400Y-22947D01*
X35314Y-22947D01*
X35771Y-22947D02*
X35771Y-23347D01*
X35771Y-23290D02*
X35800Y-23318D01*
X35857Y-23347D01*
X35942Y-23347D01*
X36000Y-23318D01*
X36028Y-23261D01*
X36028Y-22947D01*
X36028Y-23261D02*
X36057Y-23318D01*
X36114Y-23347D01*
X36200Y-23347D01*
X36257Y-23318D01*
X36285Y-23261D01*
X36285Y-22947D01*
M02*
