G04 (created by PCBNEW (2013-jul-07)-stable) date Wed 25 Feb 2015 12:47:53 PM PST*
%MOIN*%
G04 Gerber Fmt 3.4, Leading zero omitted, Abs format*
%FSLAX34Y34*%
G01*
G70*
G90*
G04 APERTURE LIST*
%ADD10C,0.00590551*%
%ADD11C,0.0511811*%
%ADD12C,0.06*%
%ADD13R,0.06X0.06*%
%ADD14C,0.0629921*%
%ADD15C,0.0708661*%
%ADD16C,0.065*%
%ADD17C,0.13*%
%ADD18C,0.07*%
%ADD19C,0.125*%
%ADD20R,0.063X0.063*%
%ADD21C,0.063*%
%ADD22C,0.14*%
%ADD23R,0.07X0.07*%
%ADD24C,0.0492126*%
%ADD25C,0.0590551*%
%ADD26C,0.035*%
%ADD27C,0.03*%
%ADD28C,0.01*%
G04 APERTURE END LIST*
G54D10*
G54D11*
X35433Y-27559D03*
X34645Y-27559D03*
X33858Y-27559D03*
X33070Y-27559D03*
X32283Y-27559D03*
X31496Y-27559D03*
X30708Y-27559D03*
X29921Y-27559D03*
X29133Y-27559D03*
X28346Y-27559D03*
X28346Y-36220D03*
X29133Y-36220D03*
X29921Y-36220D03*
X30708Y-36220D03*
X31496Y-36220D03*
X32283Y-36220D03*
X33070Y-36220D03*
X33858Y-36220D03*
X34645Y-36220D03*
X35433Y-36220D03*
G54D12*
X41594Y-31496D03*
X42594Y-31496D03*
X43594Y-31496D03*
X44594Y-31496D03*
X45594Y-31496D03*
X46594Y-31496D03*
X20550Y-27650D03*
X21550Y-27650D03*
X22550Y-27650D03*
X23550Y-27650D03*
G54D13*
X18300Y-35100D03*
G54D12*
X18300Y-36100D03*
X17300Y-35100D03*
X17300Y-36100D03*
G54D13*
X23200Y-35100D03*
G54D12*
X23200Y-36100D03*
G54D13*
X14850Y-11500D03*
G54D12*
X14850Y-12500D03*
G54D13*
X20800Y-35100D03*
G54D12*
X20800Y-36100D03*
X17700Y-27650D03*
X17700Y-28650D03*
X17700Y-29650D03*
X17700Y-30650D03*
X17700Y-31650D03*
X17700Y-32650D03*
G54D14*
X42066Y-35039D03*
X46122Y-35039D03*
G54D15*
X42066Y-33582D03*
X42070Y-36141D03*
X46122Y-33582D03*
X46122Y-36141D03*
G54D16*
X12700Y-23780D03*
X12700Y-22800D03*
X12700Y-21820D03*
X11400Y-21820D03*
X11400Y-22800D03*
X11400Y-23780D03*
X28677Y-24015D03*
X29677Y-24015D03*
X30677Y-24015D03*
X31677Y-24015D03*
X32677Y-24015D03*
X33677Y-24015D03*
X34677Y-24015D03*
X35677Y-24015D03*
G54D17*
X28677Y-12455D03*
X36677Y-12455D03*
G54D16*
X36677Y-24015D03*
G54D18*
X51000Y-19500D03*
X51000Y-20500D03*
X51000Y-21500D03*
X51000Y-22500D03*
X51000Y-23500D03*
X51000Y-24500D03*
X51000Y-25500D03*
X51000Y-26500D03*
G54D19*
X51030Y-17290D03*
X51030Y-28710D03*
X39410Y-17290D03*
X39410Y-28710D03*
G54D20*
X11500Y-15011D03*
G54D21*
X11500Y-16389D03*
G54D22*
X50000Y-35000D03*
X50000Y-12500D03*
X12500Y-35000D03*
X12500Y-12500D03*
G54D13*
X15000Y-35100D03*
G54D12*
X15000Y-36100D03*
G54D23*
X41450Y-13050D03*
G54D18*
X41450Y-12050D03*
X42450Y-13050D03*
X42450Y-12050D03*
X43450Y-13050D03*
X43450Y-12050D03*
X44450Y-13050D03*
X44450Y-12050D03*
X45450Y-13050D03*
X45450Y-12050D03*
G54D12*
X11450Y-25250D03*
X12450Y-25250D03*
X13450Y-25250D03*
X14450Y-25250D03*
X15450Y-25250D03*
X16450Y-25250D03*
X17450Y-25250D03*
X18450Y-25250D03*
X19450Y-25250D03*
X20450Y-25250D03*
X21450Y-25250D03*
X22450Y-25250D03*
X23450Y-25250D03*
X24450Y-25250D03*
X24450Y-24250D03*
X24450Y-23250D03*
X24450Y-22250D03*
X24450Y-21250D03*
X24450Y-20250D03*
X24450Y-19250D03*
X23450Y-19250D03*
X22450Y-19250D03*
X21450Y-19250D03*
X20450Y-19250D03*
X19450Y-19250D03*
X18450Y-19250D03*
X17450Y-19250D03*
X16450Y-19250D03*
X15450Y-19250D03*
X14450Y-19250D03*
X13450Y-19250D03*
X12450Y-19250D03*
X11450Y-19250D03*
X17450Y-22250D03*
X18450Y-22250D03*
X19450Y-22250D03*
X20450Y-22250D03*
X21450Y-22250D03*
X22450Y-22250D03*
X23450Y-22250D03*
X23450Y-21250D03*
X22450Y-21250D03*
X21450Y-21250D03*
X20450Y-21250D03*
X19450Y-21250D03*
X18450Y-21250D03*
X17450Y-21250D03*
X16450Y-20250D03*
X15450Y-20250D03*
X14450Y-20250D03*
X12450Y-20250D03*
G54D24*
X17375Y-12443D03*
X17375Y-11656D03*
X18162Y-12443D03*
X18162Y-11656D03*
X18950Y-12443D03*
X18950Y-11656D03*
X19737Y-12443D03*
X19737Y-11656D03*
X20524Y-12443D03*
X20524Y-11656D03*
X22925Y-12443D03*
X22925Y-11656D03*
X23712Y-12443D03*
X23712Y-11656D03*
X24500Y-12443D03*
X24500Y-11656D03*
X25287Y-12443D03*
X25287Y-11656D03*
X26074Y-12443D03*
X26074Y-11656D03*
G54D25*
X16141Y-15157D03*
X16141Y-17125D03*
X17322Y-15157D03*
X17322Y-17125D03*
X18503Y-15157D03*
X18503Y-17125D03*
X19685Y-15157D03*
X19685Y-17125D03*
X20866Y-15157D03*
X20866Y-17125D03*
X22047Y-15157D03*
X22047Y-17125D03*
X23228Y-15157D03*
X23228Y-17125D03*
X24409Y-15157D03*
X24409Y-17125D03*
X25590Y-15157D03*
X25590Y-17125D03*
X26771Y-15157D03*
X26771Y-17125D03*
X28346Y-13976D03*
X28346Y-15944D03*
X14960Y-15157D03*
X14960Y-17125D03*
X30708Y-13976D03*
X30708Y-15944D03*
X31889Y-13976D03*
X31889Y-15944D03*
X33070Y-13976D03*
X33070Y-15944D03*
X34251Y-13976D03*
X34251Y-15944D03*
X35433Y-13976D03*
X35433Y-15944D03*
X28346Y-17913D03*
X28346Y-19881D03*
X29527Y-17913D03*
X29527Y-19881D03*
X30708Y-17913D03*
X30708Y-19881D03*
X31889Y-17913D03*
X31889Y-19881D03*
X33070Y-17913D03*
X33070Y-19881D03*
X34251Y-17913D03*
X34251Y-19881D03*
X29527Y-13976D03*
X29527Y-15944D03*
G54D26*
X23142Y-28636D03*
X19318Y-20338D03*
X20964Y-14140D03*
X25086Y-18811D03*
X27424Y-17597D03*
X25049Y-19695D03*
X16115Y-24364D03*
X31231Y-24621D03*
X25133Y-30336D03*
X24604Y-29977D03*
X24639Y-29526D03*
X34346Y-20664D03*
X26583Y-11354D03*
X30201Y-24724D03*
X31830Y-25090D03*
G54D27*
X41450Y-13050D02*
X41450Y-13650D01*
X41450Y-21542D02*
X41450Y-13650D01*
X35433Y-27559D02*
X41450Y-21542D01*
X23550Y-28229D02*
X23550Y-27650D01*
X23142Y-28636D02*
X23550Y-28229D01*
G54D28*
X20349Y-27850D02*
X20550Y-27650D01*
X20349Y-35649D02*
X20349Y-27850D01*
X20800Y-36100D02*
X20349Y-35649D01*
G54D27*
X25892Y-24692D02*
X24450Y-23250D01*
X25892Y-34203D02*
X25892Y-24692D01*
X23432Y-36662D02*
X25892Y-34203D01*
X18862Y-36662D02*
X23432Y-36662D01*
X18300Y-36100D02*
X18862Y-36662D01*
X42689Y-32590D02*
X41594Y-31496D01*
X42689Y-33839D02*
X42689Y-32590D01*
X42325Y-34203D02*
X42689Y-33839D01*
X25892Y-34203D02*
X42325Y-34203D01*
X14850Y-11500D02*
X15400Y-11500D01*
X16856Y-11500D02*
X15400Y-11500D01*
X16856Y-11924D02*
X16856Y-11500D01*
X17375Y-12443D02*
X16856Y-11924D01*
X21215Y-10734D02*
X22925Y-12443D01*
X17591Y-10734D02*
X21215Y-10734D01*
X16856Y-11469D02*
X17591Y-10734D01*
X16856Y-11500D02*
X16856Y-11469D01*
X15400Y-13946D02*
X15400Y-11500D01*
X11450Y-17896D02*
X15400Y-13946D01*
X11450Y-19250D02*
X11450Y-17896D01*
G54D28*
X15000Y-27523D02*
X15000Y-35100D01*
X16950Y-25573D02*
X15000Y-27523D01*
X16950Y-24420D02*
X16950Y-25573D01*
X18999Y-22370D02*
X16950Y-24420D01*
X18999Y-20657D02*
X18999Y-22370D01*
X19318Y-20338D02*
X18999Y-20657D01*
X17322Y-16338D02*
X17322Y-17125D01*
X18503Y-15157D02*
X17322Y-16338D01*
X18950Y-18753D02*
X17322Y-17125D01*
X18950Y-19408D02*
X18950Y-18753D01*
X19355Y-19813D02*
X18950Y-19408D01*
X19536Y-19813D02*
X19355Y-19813D01*
X19843Y-20121D02*
X19536Y-19813D01*
X21578Y-20121D02*
X19843Y-20121D01*
X22450Y-19250D02*
X21578Y-20121D01*
X21029Y-14140D02*
X20964Y-14140D01*
X22047Y-15157D02*
X21029Y-14140D01*
X22047Y-17652D02*
X20450Y-19250D01*
X22047Y-17125D02*
X22047Y-17652D01*
X22047Y-16338D02*
X22047Y-17125D01*
X23228Y-15157D02*
X22047Y-16338D01*
X26771Y-17125D02*
X25086Y-18811D01*
X33070Y-13976D02*
X32156Y-14890D01*
X31889Y-15157D02*
X31889Y-15944D01*
X32156Y-14890D02*
X31889Y-15157D01*
X31299Y-14033D02*
X32156Y-14890D01*
X31299Y-13905D02*
X31299Y-14033D01*
X30915Y-13521D02*
X31299Y-13905D01*
X30530Y-13521D02*
X30915Y-13521D01*
X30118Y-13933D02*
X30530Y-13521D01*
X30118Y-14022D02*
X30118Y-13933D01*
X29716Y-14424D02*
X30118Y-14022D01*
X22400Y-14424D02*
X29716Y-14424D01*
X21786Y-13810D02*
X22400Y-14424D01*
X18033Y-13810D02*
X21786Y-13810D01*
X16644Y-15199D02*
X18033Y-13810D01*
X16644Y-19055D02*
X16644Y-15199D01*
X16450Y-19250D02*
X16644Y-19055D01*
X29527Y-18700D02*
X29527Y-17913D01*
X28346Y-19881D02*
X29527Y-18700D01*
X27553Y-17467D02*
X27424Y-17597D01*
X32625Y-17467D02*
X27553Y-17467D01*
X33070Y-17913D02*
X32625Y-17467D01*
X20800Y-35100D02*
X20800Y-34649D01*
X20900Y-21799D02*
X21450Y-21250D01*
X20263Y-21799D02*
X20900Y-21799D01*
X19997Y-22066D02*
X20263Y-21799D01*
X19997Y-23380D02*
X19997Y-22066D01*
X20950Y-24333D02*
X19997Y-23380D01*
X20950Y-26299D02*
X20950Y-24333D01*
X21025Y-26374D02*
X20950Y-26299D01*
X21025Y-34424D02*
X21025Y-26374D01*
X20800Y-34649D02*
X21025Y-34424D01*
X24945Y-19799D02*
X25049Y-19695D01*
X24200Y-19799D02*
X24945Y-19799D01*
X23402Y-20597D02*
X24200Y-19799D01*
X22102Y-20597D02*
X23402Y-20597D01*
X21450Y-21250D02*
X22102Y-20597D01*
X20041Y-20658D02*
X19450Y-21250D01*
X21678Y-20658D02*
X20041Y-20658D01*
X22078Y-20258D02*
X21678Y-20658D01*
X23106Y-20258D02*
X22078Y-20258D01*
X23999Y-19365D02*
X23106Y-20258D01*
X23999Y-19038D02*
X23999Y-19365D01*
X24738Y-18299D02*
X23999Y-19038D01*
X25058Y-18299D02*
X24738Y-18299D01*
X26110Y-17247D02*
X25058Y-18299D01*
X26110Y-17139D02*
X26110Y-17247D01*
X26680Y-16568D02*
X26110Y-17139D01*
X31907Y-16568D02*
X26680Y-16568D01*
X32409Y-16066D02*
X31907Y-16568D01*
X32409Y-15967D02*
X32409Y-16066D01*
X33661Y-14715D02*
X32409Y-15967D01*
X34170Y-14715D02*
X33661Y-14715D01*
X34842Y-14043D02*
X34170Y-14715D01*
X34842Y-13937D02*
X34842Y-14043D01*
X35263Y-13515D02*
X34842Y-13937D01*
X37109Y-13515D02*
X35263Y-13515D01*
X39076Y-11548D02*
X37109Y-13515D01*
X41948Y-11548D02*
X39076Y-11548D01*
X42450Y-12050D02*
X41948Y-11548D01*
X15680Y-24799D02*
X16115Y-24364D01*
X12900Y-24799D02*
X15680Y-24799D01*
X12450Y-25250D02*
X12900Y-24799D01*
X32071Y-24621D02*
X32677Y-24015D01*
X31231Y-24621D02*
X32071Y-24621D01*
X33792Y-33582D02*
X42066Y-33582D01*
X27461Y-27252D02*
X33792Y-33582D01*
X27461Y-25587D02*
X27461Y-27252D01*
X24624Y-22750D02*
X27461Y-25587D01*
X23950Y-22750D02*
X24624Y-22750D01*
X23450Y-22250D02*
X23950Y-22750D01*
X25164Y-30305D02*
X25133Y-30336D01*
X25164Y-27459D02*
X25164Y-30305D01*
X23950Y-26245D02*
X25164Y-27459D01*
X23950Y-24803D02*
X23950Y-26245D01*
X22450Y-23303D02*
X23950Y-24803D01*
X22450Y-22250D02*
X22450Y-23303D01*
X24604Y-29977D02*
X24604Y-29977D01*
X24650Y-29977D02*
X24604Y-29977D01*
X24964Y-29663D02*
X24650Y-29977D01*
X24964Y-27922D02*
X24964Y-29663D01*
X22950Y-25908D02*
X24964Y-27922D01*
X22950Y-24539D02*
X22950Y-25908D01*
X22150Y-23739D02*
X22950Y-24539D01*
X22150Y-22950D02*
X22150Y-23739D01*
X21450Y-22250D02*
X22150Y-22950D01*
X44594Y-33618D02*
X42070Y-36141D01*
X44594Y-31496D02*
X44594Y-33618D01*
X42732Y-36972D02*
X46122Y-33582D01*
X18532Y-36972D02*
X42732Y-36972D01*
X17800Y-36239D02*
X18532Y-36972D01*
X17800Y-34027D02*
X17800Y-36239D01*
X17037Y-33265D02*
X17800Y-34027D01*
X17037Y-26379D02*
X17037Y-33265D01*
X17999Y-25417D02*
X17037Y-26379D01*
X17999Y-23700D02*
X17999Y-25417D01*
X19450Y-22250D02*
X17999Y-23700D01*
X24639Y-28102D02*
X24639Y-29526D01*
X21950Y-25413D02*
X24639Y-28102D01*
X21950Y-23750D02*
X21950Y-25413D01*
X20450Y-22250D02*
X21950Y-23750D01*
X17243Y-26456D02*
X18450Y-25250D01*
X17243Y-32193D02*
X17243Y-26456D01*
X17700Y-32650D02*
X17243Y-32193D01*
X19847Y-25852D02*
X20450Y-25250D01*
X19847Y-29502D02*
X19847Y-25852D01*
X17700Y-31650D02*
X19847Y-29502D01*
X19450Y-28900D02*
X17700Y-30650D01*
X19450Y-25250D02*
X19450Y-28900D01*
X44976Y-11523D02*
X44450Y-12050D01*
X45639Y-11523D02*
X44976Y-11523D01*
X46295Y-12179D02*
X45639Y-11523D01*
X46295Y-14795D02*
X46295Y-12179D01*
X51000Y-19500D02*
X46295Y-14795D01*
X25463Y-32385D02*
X23200Y-34649D01*
X25463Y-25616D02*
X25463Y-32385D01*
X24597Y-24750D02*
X25463Y-25616D01*
X24294Y-24750D02*
X24597Y-24750D01*
X22989Y-23444D02*
X24294Y-24750D01*
X22989Y-22074D02*
X22989Y-23444D01*
X23263Y-21799D02*
X22989Y-22074D01*
X23900Y-21799D02*
X23263Y-21799D01*
X24450Y-21250D02*
X23900Y-21799D01*
X23200Y-35100D02*
X23200Y-34649D01*
X45450Y-14950D02*
X51000Y-20500D01*
X45450Y-13050D02*
X45450Y-14950D01*
X30849Y-20664D02*
X34346Y-20664D01*
X30118Y-19932D02*
X30849Y-20664D01*
X30118Y-19841D02*
X30118Y-19932D01*
X29700Y-19423D02*
X30118Y-19841D01*
X29328Y-19423D02*
X29700Y-19423D01*
X28866Y-19886D02*
X29328Y-19423D01*
X28866Y-19992D02*
X28866Y-19886D01*
X28060Y-20797D02*
X28866Y-19992D01*
X23902Y-20797D02*
X28060Y-20797D01*
X23450Y-21250D02*
X23902Y-20797D01*
X17910Y-21710D02*
X17450Y-21250D01*
X17910Y-22431D02*
X17910Y-21710D01*
X17636Y-22706D02*
X17910Y-22431D01*
X17245Y-22706D02*
X17636Y-22706D01*
X14950Y-20410D02*
X17245Y-22706D01*
X14950Y-20113D02*
X14950Y-20410D01*
X14636Y-19799D02*
X14950Y-20113D01*
X14363Y-19799D02*
X14636Y-19799D01*
X13999Y-19436D02*
X14363Y-19799D01*
X13999Y-16748D02*
X13999Y-19436D01*
X15496Y-15251D02*
X13999Y-16748D01*
X15496Y-14865D02*
X15496Y-15251D01*
X17210Y-13151D02*
X15496Y-14865D01*
X19817Y-13151D02*
X17210Y-13151D01*
X20524Y-12443D02*
X19817Y-13151D01*
X24914Y-13604D02*
X26074Y-12443D01*
X24914Y-13604D02*
X24914Y-13604D01*
X17043Y-13604D02*
X24914Y-13604D01*
X15696Y-14950D02*
X17043Y-13604D01*
X15696Y-15498D02*
X15696Y-14950D01*
X14503Y-16691D02*
X15696Y-15498D01*
X14503Y-17889D02*
X14503Y-16691D01*
X14950Y-18335D02*
X14503Y-17889D01*
X14950Y-19397D02*
X14950Y-18335D01*
X15252Y-19700D02*
X14950Y-19397D01*
X15561Y-19700D02*
X15252Y-19700D01*
X15950Y-20088D02*
X15561Y-19700D01*
X15950Y-20750D02*
X15950Y-20088D01*
X17450Y-22250D02*
X15950Y-20750D01*
G54D27*
X14850Y-13930D02*
X14850Y-12500D01*
X10896Y-17884D02*
X14850Y-13930D01*
X10896Y-19486D02*
X10896Y-17884D01*
X11659Y-20250D02*
X10896Y-19486D01*
X12450Y-20250D02*
X11659Y-20250D01*
G54D28*
X15999Y-18165D02*
X14960Y-17125D01*
X15999Y-19436D02*
X15999Y-18165D01*
X16324Y-19761D02*
X15999Y-19436D01*
X18924Y-19761D02*
X16324Y-19761D01*
X19176Y-20013D02*
X18924Y-19761D01*
X19453Y-20013D02*
X19176Y-20013D01*
X19764Y-20325D02*
X19453Y-20013D01*
X21728Y-20325D02*
X19764Y-20325D01*
X21995Y-20057D02*
X21728Y-20325D01*
X22642Y-20057D02*
X21995Y-20057D01*
X23450Y-19250D02*
X22642Y-20057D01*
X20866Y-15944D02*
X19685Y-17125D01*
X20866Y-15157D02*
X20866Y-15944D01*
X20993Y-19706D02*
X21450Y-19250D01*
X20265Y-19706D02*
X20993Y-19706D01*
X19950Y-19390D02*
X20265Y-19706D01*
X19950Y-17390D02*
X19950Y-19390D01*
X19685Y-17125D02*
X19950Y-17390D01*
X20106Y-19906D02*
X19450Y-19250D01*
X21430Y-19906D02*
X20106Y-19906D01*
X21900Y-19436D02*
X21430Y-19906D01*
X21900Y-18861D02*
X21900Y-19436D01*
X22573Y-18188D02*
X21900Y-18861D01*
X22573Y-17130D02*
X22573Y-18188D01*
X23038Y-16665D02*
X22573Y-17130D01*
X24409Y-16665D02*
X23038Y-16665D01*
X24409Y-16338D02*
X24409Y-16665D01*
X25590Y-15157D02*
X24409Y-16338D01*
X24409Y-16665D02*
X24409Y-17125D01*
X26583Y-11493D02*
X26583Y-11354D01*
X29066Y-13976D02*
X26583Y-11493D01*
X29527Y-13976D02*
X29066Y-13976D01*
X29527Y-15053D02*
X29527Y-15944D01*
X29632Y-15053D02*
X29527Y-15053D01*
X30708Y-13976D02*
X29632Y-15053D01*
X16856Y-18656D02*
X17450Y-19250D01*
X16856Y-16262D02*
X16856Y-18656D01*
X17775Y-15343D02*
X16856Y-16262D01*
X17775Y-15245D02*
X17775Y-15343D01*
X18315Y-14705D02*
X17775Y-15245D01*
X21047Y-14705D02*
X18315Y-14705D01*
X21601Y-15259D02*
X21047Y-14705D01*
X21601Y-15353D02*
X21601Y-15259D01*
X21879Y-15631D02*
X21601Y-15353D01*
X22221Y-15631D02*
X21879Y-15631D01*
X22637Y-15214D02*
X22221Y-15631D01*
X22637Y-15092D02*
X22637Y-15214D01*
X23018Y-14712D02*
X22637Y-15092D01*
X29186Y-14712D02*
X23018Y-14712D01*
X29527Y-15053D02*
X29186Y-14712D01*
X34251Y-15157D02*
X34251Y-15944D01*
X35433Y-13976D02*
X34251Y-15157D01*
X30708Y-19094D02*
X30708Y-19881D01*
X31889Y-17913D02*
X30708Y-19094D01*
X33818Y-27559D02*
X33858Y-27559D01*
X31205Y-24946D02*
X33818Y-27559D01*
X30422Y-24946D02*
X31205Y-24946D01*
X30201Y-24724D02*
X30422Y-24946D01*
X32177Y-25090D02*
X31830Y-25090D01*
X34645Y-27559D02*
X32177Y-25090D01*
G54D27*
X17700Y-28650D02*
X17700Y-27650D01*
X23777Y-17675D02*
X23228Y-17125D01*
X25041Y-17675D02*
X23777Y-17675D01*
X25590Y-17125D02*
X25041Y-17675D01*
X29527Y-19881D02*
X27159Y-22250D01*
X27159Y-22250D02*
X24450Y-22250D01*
X28346Y-25180D02*
X28346Y-27559D01*
X27159Y-23993D02*
X28346Y-25180D01*
X27159Y-22250D02*
X27159Y-23993D01*
X47149Y-35114D02*
X46122Y-36141D01*
X47149Y-30939D02*
X47149Y-35114D01*
X31726Y-30939D02*
X47149Y-30939D01*
X28346Y-27559D02*
X31726Y-30939D01*
X51000Y-27089D02*
X51000Y-26500D01*
X47149Y-30939D02*
X51000Y-27089D01*
X17874Y-11156D02*
X17375Y-11656D01*
X20025Y-11156D02*
X17874Y-11156D01*
X20524Y-11656D02*
X20025Y-11156D01*
X23424Y-11156D02*
X22925Y-11656D01*
X25575Y-11156D02*
X23424Y-11156D01*
X26074Y-11656D02*
X25575Y-11156D01*
X33630Y-16504D02*
X33690Y-16504D01*
X33070Y-15944D02*
X33630Y-16504D01*
X32451Y-19320D02*
X31889Y-19881D01*
X33690Y-19320D02*
X32451Y-19320D01*
X34251Y-19881D02*
X33690Y-19320D01*
X33690Y-19320D02*
X33690Y-16504D01*
X12282Y-24417D02*
X11450Y-25250D01*
X12877Y-24417D02*
X12282Y-24417D01*
X13279Y-24014D02*
X12877Y-24417D01*
X13279Y-20079D02*
X13279Y-24014D01*
X12450Y-19250D02*
X13279Y-20079D01*
X22550Y-35450D02*
X22550Y-27650D01*
X23200Y-36100D02*
X22550Y-35450D01*
X26771Y-15944D02*
X25590Y-17125D01*
X28346Y-15944D02*
X26771Y-15944D01*
X34771Y-20401D02*
X34251Y-19881D01*
X34771Y-23920D02*
X34771Y-20401D01*
X34677Y-24015D02*
X34771Y-23920D01*
X34873Y-16504D02*
X35433Y-15944D01*
X33690Y-16504D02*
X34873Y-16504D01*
X39327Y-12050D02*
X41450Y-12050D01*
X35433Y-15944D02*
X39327Y-12050D01*
G54D28*
X12195Y-22295D02*
X12700Y-22800D01*
X12195Y-21222D02*
X12195Y-22295D01*
X10596Y-19623D02*
X12195Y-21222D01*
X10596Y-16379D02*
X10596Y-19623D01*
X11500Y-15476D02*
X10596Y-16379D01*
X11500Y-15010D02*
X11500Y-15476D01*
M02*
