G04 (created by PCBNEW (2013-jul-07)-stable) date Wed 25 Feb 2015 12:47:53 PM PST*
%MOIN*%
G04 Gerber Fmt 3.4, Leading zero omitted, Abs format*
%FSLAX34Y34*%
G01*
G70*
G90*
G04 APERTURE LIST*
%ADD10C,0.00590551*%
%ADD11C,0.0511811*%
%ADD12C,0.06*%
%ADD13R,0.06X0.06*%
%ADD14C,0.0629921*%
%ADD15C,0.0708661*%
%ADD16C,0.065*%
%ADD17C,0.13*%
%ADD18C,0.07*%
%ADD19C,0.125*%
%ADD20R,0.063X0.063*%
%ADD21C,0.063*%
%ADD22C,0.14*%
%ADD23R,0.07X0.07*%
%ADD24C,0.0492126*%
%ADD25C,0.0590551*%
G04 APERTURE END LIST*
G54D10*
G54D11*
X35433Y-27559D03*
X34645Y-27559D03*
X33858Y-27559D03*
X33070Y-27559D03*
X32283Y-27559D03*
X31496Y-27559D03*
X30708Y-27559D03*
X29921Y-27559D03*
X29133Y-27559D03*
X28346Y-27559D03*
X28346Y-36220D03*
X29133Y-36220D03*
X29921Y-36220D03*
X30708Y-36220D03*
X31496Y-36220D03*
X32283Y-36220D03*
X33070Y-36220D03*
X33858Y-36220D03*
X34645Y-36220D03*
X35433Y-36220D03*
G54D12*
X41594Y-31496D03*
X42594Y-31496D03*
X43594Y-31496D03*
X44594Y-31496D03*
X45594Y-31496D03*
X46594Y-31496D03*
X20550Y-27650D03*
X21550Y-27650D03*
X22550Y-27650D03*
X23550Y-27650D03*
G54D13*
X18300Y-35100D03*
G54D12*
X18300Y-36100D03*
X17300Y-35100D03*
X17300Y-36100D03*
G54D13*
X23200Y-35100D03*
G54D12*
X23200Y-36100D03*
G54D13*
X14850Y-11500D03*
G54D12*
X14850Y-12500D03*
G54D13*
X20800Y-35100D03*
G54D12*
X20800Y-36100D03*
X17700Y-27650D03*
X17700Y-28650D03*
X17700Y-29650D03*
X17700Y-30650D03*
X17700Y-31650D03*
X17700Y-32650D03*
G54D14*
X42066Y-35039D03*
X46122Y-35039D03*
G54D15*
X42066Y-33582D03*
X42070Y-36141D03*
X46122Y-33582D03*
X46122Y-36141D03*
G54D16*
X12700Y-23780D03*
X12700Y-22800D03*
X12700Y-21820D03*
X11400Y-21820D03*
X11400Y-22800D03*
X11400Y-23780D03*
X28677Y-24015D03*
X29677Y-24015D03*
X30677Y-24015D03*
X31677Y-24015D03*
X32677Y-24015D03*
X33677Y-24015D03*
X34677Y-24015D03*
X35677Y-24015D03*
G54D17*
X28677Y-12455D03*
X36677Y-12455D03*
G54D16*
X36677Y-24015D03*
G54D18*
X51000Y-19500D03*
X51000Y-20500D03*
X51000Y-21500D03*
X51000Y-22500D03*
X51000Y-23500D03*
X51000Y-24500D03*
X51000Y-25500D03*
X51000Y-26500D03*
G54D19*
X51030Y-17290D03*
X51030Y-28710D03*
X39410Y-17290D03*
X39410Y-28710D03*
G54D20*
X11500Y-15011D03*
G54D21*
X11500Y-16389D03*
G54D22*
X50000Y-35000D03*
X50000Y-12500D03*
X12500Y-35000D03*
X12500Y-12500D03*
G54D13*
X15000Y-35100D03*
G54D12*
X15000Y-36100D03*
G54D23*
X41450Y-13050D03*
G54D18*
X41450Y-12050D03*
X42450Y-13050D03*
X42450Y-12050D03*
X43450Y-13050D03*
X43450Y-12050D03*
X44450Y-13050D03*
X44450Y-12050D03*
X45450Y-13050D03*
X45450Y-12050D03*
G54D12*
X11450Y-25250D03*
X12450Y-25250D03*
X13450Y-25250D03*
X14450Y-25250D03*
X15450Y-25250D03*
X16450Y-25250D03*
X17450Y-25250D03*
X18450Y-25250D03*
X19450Y-25250D03*
X20450Y-25250D03*
X21450Y-25250D03*
X22450Y-25250D03*
X23450Y-25250D03*
X24450Y-25250D03*
X24450Y-24250D03*
X24450Y-23250D03*
X24450Y-22250D03*
X24450Y-21250D03*
X24450Y-20250D03*
X24450Y-19250D03*
X23450Y-19250D03*
X22450Y-19250D03*
X21450Y-19250D03*
X20450Y-19250D03*
X19450Y-19250D03*
X18450Y-19250D03*
X17450Y-19250D03*
X16450Y-19250D03*
X15450Y-19250D03*
X14450Y-19250D03*
X13450Y-19250D03*
X12450Y-19250D03*
X11450Y-19250D03*
X17450Y-22250D03*
X18450Y-22250D03*
X19450Y-22250D03*
X20450Y-22250D03*
X21450Y-22250D03*
X22450Y-22250D03*
X23450Y-22250D03*
X23450Y-21250D03*
X22450Y-21250D03*
X21450Y-21250D03*
X20450Y-21250D03*
X19450Y-21250D03*
X18450Y-21250D03*
X17450Y-21250D03*
X16450Y-20250D03*
X15450Y-20250D03*
X14450Y-20250D03*
X12450Y-20250D03*
G54D24*
X17375Y-12443D03*
X17375Y-11656D03*
X18162Y-12443D03*
X18162Y-11656D03*
X18950Y-12443D03*
X18950Y-11656D03*
X19737Y-12443D03*
X19737Y-11656D03*
X20524Y-12443D03*
X20524Y-11656D03*
X22925Y-12443D03*
X22925Y-11656D03*
X23712Y-12443D03*
X23712Y-11656D03*
X24500Y-12443D03*
X24500Y-11656D03*
X25287Y-12443D03*
X25287Y-11656D03*
X26074Y-12443D03*
X26074Y-11656D03*
G54D25*
X16141Y-15157D03*
X16141Y-17125D03*
X17322Y-15157D03*
X17322Y-17125D03*
X18503Y-15157D03*
X18503Y-17125D03*
X19685Y-15157D03*
X19685Y-17125D03*
X20866Y-15157D03*
X20866Y-17125D03*
X22047Y-15157D03*
X22047Y-17125D03*
X23228Y-15157D03*
X23228Y-17125D03*
X24409Y-15157D03*
X24409Y-17125D03*
X25590Y-15157D03*
X25590Y-17125D03*
X26771Y-15157D03*
X26771Y-17125D03*
X28346Y-13976D03*
X28346Y-15944D03*
X14960Y-15157D03*
X14960Y-17125D03*
X30708Y-13976D03*
X30708Y-15944D03*
X31889Y-13976D03*
X31889Y-15944D03*
X33070Y-13976D03*
X33070Y-15944D03*
X34251Y-13976D03*
X34251Y-15944D03*
X35433Y-13976D03*
X35433Y-15944D03*
X28346Y-17913D03*
X28346Y-19881D03*
X29527Y-17913D03*
X29527Y-19881D03*
X30708Y-17913D03*
X30708Y-19881D03*
X31889Y-17913D03*
X31889Y-19881D03*
X33070Y-17913D03*
X33070Y-19881D03*
X34251Y-17913D03*
X34251Y-19881D03*
X29527Y-13976D03*
X29527Y-15944D03*
M02*
