G04 (created by PCBNEW (2013-jul-07)-stable) date Thu 18 Jun 2015 05:15:43 PM PDT*
%MOIN*%
G04 Gerber Fmt 3.4, Leading zero omitted, Abs format*
%FSLAX34Y34*%
G01*
G70*
G90*
G04 APERTURE LIST*
%ADD10C,0.00590551*%
%ADD11C,0.033*%
%ADD12R,0.06X0.06*%
%ADD13C,0.06*%
%ADD14C,0.055*%
%ADD15C,0.0492126*%
%ADD16C,0.15*%
G04 APERTURE END LIST*
G54D10*
G54D11*
X53250Y-31500D03*
X53750Y-31500D03*
X54250Y-31500D03*
G54D12*
X27500Y-30000D03*
G54D13*
X28500Y-30000D03*
X29500Y-30000D03*
X30500Y-30000D03*
X31500Y-30000D03*
X32500Y-30000D03*
G54D12*
X44000Y-30000D03*
G54D13*
X45000Y-30000D03*
X46000Y-30000D03*
X47000Y-30000D03*
X48000Y-30000D03*
X49000Y-30000D03*
G54D12*
X60500Y-30000D03*
G54D13*
X61500Y-30000D03*
X62500Y-30000D03*
X63500Y-30000D03*
X64500Y-30000D03*
X65500Y-30000D03*
G54D14*
X27500Y-32000D03*
X28500Y-32000D03*
X27500Y-34000D03*
X28500Y-34000D03*
X44000Y-32000D03*
X45000Y-32000D03*
X44000Y-34000D03*
X45000Y-34000D03*
X53250Y-34250D03*
X54250Y-34250D03*
X60500Y-32000D03*
X61500Y-32000D03*
X60500Y-34000D03*
X61500Y-34000D03*
G54D15*
X17893Y-30425D03*
X17106Y-30425D03*
X17893Y-31212D03*
X17106Y-31212D03*
X17893Y-32000D03*
X17106Y-32000D03*
X17893Y-32787D03*
X17106Y-32787D03*
X17893Y-33574D03*
X17106Y-33574D03*
G54D16*
X72000Y-29500D03*
X72000Y-34500D03*
X21000Y-29500D03*
X21000Y-34500D03*
M02*
