G04 (created by PCBNEW (2013-jul-07)-stable) date Wed 10 Jun 2015 05:24:05 PM PDT*
%MOIN*%
G04 Gerber Fmt 3.4, Leading zero omitted, Abs format*
%FSLAX34Y34*%
G01*
G70*
G90*
G04 APERTURE LIST*
%ADD10C,0.00590551*%
%ADD11C,0.008*%
%ADD12C,0.012*%
G04 APERTURE END LIST*
G54D10*
G54D11*
X61552Y-29142D02*
X61609Y-29161D01*
X61704Y-29161D01*
X61742Y-29142D01*
X61761Y-29123D01*
X61780Y-29085D01*
X61780Y-29047D01*
X61761Y-29009D01*
X61742Y-28990D01*
X61704Y-28971D01*
X61628Y-28952D01*
X61590Y-28933D01*
X61571Y-28914D01*
X61552Y-28876D01*
X61552Y-28838D01*
X61571Y-28800D01*
X61590Y-28780D01*
X61628Y-28761D01*
X61723Y-28761D01*
X61780Y-28780D01*
X61952Y-28952D02*
X62085Y-28952D01*
X62142Y-29161D02*
X61952Y-29161D01*
X61952Y-28761D01*
X62142Y-28761D01*
X62314Y-29161D02*
X62314Y-28761D01*
X62542Y-29161D01*
X62542Y-28761D01*
X62714Y-29142D02*
X62771Y-29161D01*
X62866Y-29161D01*
X62904Y-29142D01*
X62923Y-29123D01*
X62942Y-29085D01*
X62942Y-29047D01*
X62923Y-29009D01*
X62904Y-28990D01*
X62866Y-28971D01*
X62790Y-28952D01*
X62752Y-28933D01*
X62733Y-28914D01*
X62714Y-28876D01*
X62714Y-28838D01*
X62733Y-28800D01*
X62752Y-28780D01*
X62790Y-28761D01*
X62885Y-28761D01*
X62942Y-28780D01*
X63190Y-28761D02*
X63266Y-28761D01*
X63304Y-28780D01*
X63342Y-28819D01*
X63361Y-28895D01*
X63361Y-29028D01*
X63342Y-29104D01*
X63304Y-29142D01*
X63266Y-29161D01*
X63190Y-29161D01*
X63152Y-29142D01*
X63114Y-29104D01*
X63095Y-29028D01*
X63095Y-28895D01*
X63114Y-28819D01*
X63152Y-28780D01*
X63190Y-28761D01*
X63761Y-29161D02*
X63628Y-28971D01*
X63533Y-29161D02*
X63533Y-28761D01*
X63685Y-28761D01*
X63723Y-28780D01*
X63742Y-28800D01*
X63761Y-28838D01*
X63761Y-28895D01*
X63742Y-28933D01*
X63723Y-28952D01*
X63685Y-28971D01*
X63533Y-28971D01*
X64200Y-28761D02*
X64447Y-28761D01*
X64314Y-28914D01*
X64371Y-28914D01*
X64409Y-28933D01*
X64428Y-28952D01*
X64447Y-28990D01*
X64447Y-29085D01*
X64428Y-29123D01*
X64409Y-29142D01*
X64371Y-29161D01*
X64257Y-29161D01*
X64219Y-29142D01*
X64200Y-29123D01*
X45052Y-29142D02*
X45109Y-29161D01*
X45204Y-29161D01*
X45242Y-29142D01*
X45261Y-29123D01*
X45280Y-29085D01*
X45280Y-29047D01*
X45261Y-29009D01*
X45242Y-28990D01*
X45204Y-28971D01*
X45128Y-28952D01*
X45090Y-28933D01*
X45071Y-28914D01*
X45052Y-28876D01*
X45052Y-28838D01*
X45071Y-28800D01*
X45090Y-28780D01*
X45128Y-28761D01*
X45223Y-28761D01*
X45280Y-28780D01*
X45452Y-28952D02*
X45585Y-28952D01*
X45642Y-29161D02*
X45452Y-29161D01*
X45452Y-28761D01*
X45642Y-28761D01*
X45814Y-29161D02*
X45814Y-28761D01*
X46042Y-29161D01*
X46042Y-28761D01*
X46214Y-29142D02*
X46271Y-29161D01*
X46366Y-29161D01*
X46404Y-29142D01*
X46423Y-29123D01*
X46442Y-29085D01*
X46442Y-29047D01*
X46423Y-29009D01*
X46404Y-28990D01*
X46366Y-28971D01*
X46290Y-28952D01*
X46252Y-28933D01*
X46233Y-28914D01*
X46214Y-28876D01*
X46214Y-28838D01*
X46233Y-28800D01*
X46252Y-28780D01*
X46290Y-28761D01*
X46385Y-28761D01*
X46442Y-28780D01*
X46690Y-28761D02*
X46766Y-28761D01*
X46804Y-28780D01*
X46842Y-28819D01*
X46861Y-28895D01*
X46861Y-29028D01*
X46842Y-29104D01*
X46804Y-29142D01*
X46766Y-29161D01*
X46690Y-29161D01*
X46652Y-29142D01*
X46614Y-29104D01*
X46595Y-29028D01*
X46595Y-28895D01*
X46614Y-28819D01*
X46652Y-28780D01*
X46690Y-28761D01*
X47261Y-29161D02*
X47128Y-28971D01*
X47033Y-29161D02*
X47033Y-28761D01*
X47185Y-28761D01*
X47223Y-28780D01*
X47242Y-28800D01*
X47261Y-28838D01*
X47261Y-28895D01*
X47242Y-28933D01*
X47223Y-28952D01*
X47185Y-28971D01*
X47033Y-28971D01*
X47719Y-28800D02*
X47738Y-28780D01*
X47776Y-28761D01*
X47871Y-28761D01*
X47909Y-28780D01*
X47928Y-28800D01*
X47947Y-28838D01*
X47947Y-28876D01*
X47928Y-28933D01*
X47700Y-29161D01*
X47947Y-29161D01*
X28552Y-29142D02*
X28609Y-29161D01*
X28704Y-29161D01*
X28742Y-29142D01*
X28761Y-29123D01*
X28780Y-29085D01*
X28780Y-29047D01*
X28761Y-29009D01*
X28742Y-28990D01*
X28704Y-28971D01*
X28628Y-28952D01*
X28590Y-28933D01*
X28571Y-28914D01*
X28552Y-28876D01*
X28552Y-28838D01*
X28571Y-28800D01*
X28590Y-28780D01*
X28628Y-28761D01*
X28723Y-28761D01*
X28780Y-28780D01*
X28952Y-28952D02*
X29085Y-28952D01*
X29142Y-29161D02*
X28952Y-29161D01*
X28952Y-28761D01*
X29142Y-28761D01*
X29314Y-29161D02*
X29314Y-28761D01*
X29542Y-29161D01*
X29542Y-28761D01*
X29714Y-29142D02*
X29771Y-29161D01*
X29866Y-29161D01*
X29904Y-29142D01*
X29923Y-29123D01*
X29942Y-29085D01*
X29942Y-29047D01*
X29923Y-29009D01*
X29904Y-28990D01*
X29866Y-28971D01*
X29790Y-28952D01*
X29752Y-28933D01*
X29733Y-28914D01*
X29714Y-28876D01*
X29714Y-28838D01*
X29733Y-28800D01*
X29752Y-28780D01*
X29790Y-28761D01*
X29885Y-28761D01*
X29942Y-28780D01*
X30190Y-28761D02*
X30266Y-28761D01*
X30304Y-28780D01*
X30342Y-28819D01*
X30361Y-28895D01*
X30361Y-29028D01*
X30342Y-29104D01*
X30304Y-29142D01*
X30266Y-29161D01*
X30190Y-29161D01*
X30152Y-29142D01*
X30114Y-29104D01*
X30095Y-29028D01*
X30095Y-28895D01*
X30114Y-28819D01*
X30152Y-28780D01*
X30190Y-28761D01*
X30761Y-29161D02*
X30628Y-28971D01*
X30533Y-29161D02*
X30533Y-28761D01*
X30685Y-28761D01*
X30723Y-28780D01*
X30742Y-28800D01*
X30761Y-28838D01*
X30761Y-28895D01*
X30742Y-28933D01*
X30723Y-28952D01*
X30685Y-28971D01*
X30533Y-28971D01*
X31447Y-29161D02*
X31219Y-29161D01*
X31333Y-29161D02*
X31333Y-28761D01*
X31295Y-28819D01*
X31257Y-28857D01*
X31219Y-28876D01*
G54D10*
X54750Y-31500D02*
G75*
G03X53750Y-30500I-1000J0D01*
G74*
G01*
X53750Y-30500D02*
G75*
G03X52750Y-31500I0J-1000D01*
G74*
G01*
X53150Y-32000D02*
X52750Y-31500D01*
X54350Y-32000D02*
X54750Y-31500D01*
X53150Y-32000D02*
X54350Y-32000D01*
G54D12*
X27000Y-30500D02*
X27000Y-29500D01*
X27000Y-29500D02*
X33000Y-29500D01*
X33000Y-29500D02*
X33000Y-30500D01*
X33000Y-30500D02*
X27000Y-30500D01*
X28000Y-30500D02*
X28000Y-29500D01*
X43500Y-30500D02*
X43500Y-29500D01*
X43500Y-29500D02*
X49500Y-29500D01*
X49500Y-29500D02*
X49500Y-30500D01*
X49500Y-30500D02*
X43500Y-30500D01*
X44500Y-30500D02*
X44500Y-29500D01*
X60000Y-30500D02*
X60000Y-29500D01*
X60000Y-29500D02*
X66000Y-29500D01*
X66000Y-29500D02*
X66000Y-30500D01*
X66000Y-30500D02*
X60000Y-30500D01*
X61000Y-30500D02*
X61000Y-29500D01*
X27020Y-31500D02*
X29000Y-31500D01*
X29000Y-31500D02*
X29000Y-32500D01*
X29000Y-32500D02*
X27000Y-32500D01*
X27000Y-32500D02*
X27000Y-31500D01*
X27000Y-31750D02*
X27250Y-31500D01*
X27020Y-33500D02*
X29000Y-33500D01*
X29000Y-33500D02*
X29000Y-34500D01*
X29000Y-34500D02*
X27000Y-34500D01*
X27000Y-34500D02*
X27000Y-33500D01*
X27000Y-33750D02*
X27250Y-33500D01*
X43520Y-31500D02*
X45500Y-31500D01*
X45500Y-31500D02*
X45500Y-32500D01*
X45500Y-32500D02*
X43500Y-32500D01*
X43500Y-32500D02*
X43500Y-31500D01*
X43500Y-31750D02*
X43750Y-31500D01*
X43520Y-33500D02*
X45500Y-33500D01*
X45500Y-33500D02*
X45500Y-34500D01*
X45500Y-34500D02*
X43500Y-34500D01*
X43500Y-34500D02*
X43500Y-33500D01*
X43500Y-33750D02*
X43750Y-33500D01*
X52770Y-33750D02*
X54750Y-33750D01*
X54750Y-33750D02*
X54750Y-34750D01*
X54750Y-34750D02*
X52750Y-34750D01*
X52750Y-34750D02*
X52750Y-33750D01*
X52750Y-34000D02*
X53000Y-33750D01*
X60020Y-31500D02*
X62000Y-31500D01*
X62000Y-31500D02*
X62000Y-32500D01*
X62000Y-32500D02*
X60000Y-32500D01*
X60000Y-32500D02*
X60000Y-31500D01*
X60000Y-31750D02*
X60250Y-31500D01*
X60020Y-33500D02*
X62000Y-33500D01*
X62000Y-33500D02*
X62000Y-34500D01*
X62000Y-34500D02*
X60000Y-34500D01*
X60000Y-34500D02*
X60000Y-33500D01*
X60000Y-33750D02*
X60250Y-33500D01*
G54D10*
X53450Y-32265D02*
X53450Y-32584D01*
X53468Y-32621D01*
X53487Y-32640D01*
X53525Y-32659D01*
X53600Y-32659D01*
X53637Y-32640D01*
X53656Y-32621D01*
X53675Y-32584D01*
X53675Y-32265D01*
X54068Y-32659D02*
X53843Y-32659D01*
X53956Y-32659D02*
X53956Y-32265D01*
X53918Y-32321D01*
X53881Y-32359D01*
X53843Y-32378D01*
X52840Y-29865D02*
X53065Y-29865D01*
X52953Y-30259D02*
X52953Y-29865D01*
X53196Y-30259D02*
X53196Y-29865D01*
X53328Y-30146D01*
X53459Y-29865D01*
X53459Y-30259D01*
X53646Y-30259D02*
X53646Y-29865D01*
X53796Y-29865D01*
X53834Y-29884D01*
X53853Y-29903D01*
X53871Y-29940D01*
X53871Y-29996D01*
X53853Y-30034D01*
X53834Y-30053D01*
X53796Y-30071D01*
X53646Y-30071D01*
X54003Y-29865D02*
X54246Y-29865D01*
X54115Y-30015D01*
X54171Y-30015D01*
X54209Y-30034D01*
X54228Y-30053D01*
X54246Y-30090D01*
X54246Y-30184D01*
X54228Y-30221D01*
X54209Y-30240D01*
X54171Y-30259D01*
X54059Y-30259D01*
X54021Y-30240D01*
X54003Y-30221D01*
X54584Y-29865D02*
X54509Y-29865D01*
X54471Y-29884D01*
X54453Y-29903D01*
X54415Y-29959D01*
X54396Y-30034D01*
X54396Y-30184D01*
X54415Y-30221D01*
X54434Y-30240D01*
X54471Y-30259D01*
X54546Y-30259D01*
X54584Y-30240D01*
X54603Y-30221D01*
X54621Y-30184D01*
X54621Y-30090D01*
X54603Y-30053D01*
X54584Y-30034D01*
X54546Y-30015D01*
X54471Y-30015D01*
X54434Y-30034D01*
X54415Y-30053D01*
X54396Y-30090D01*
G54D11*
X26204Y-30161D02*
X26204Y-29761D01*
X26357Y-29761D01*
X26395Y-29780D01*
X26414Y-29800D01*
X26433Y-29838D01*
X26433Y-29895D01*
X26414Y-29933D01*
X26395Y-29952D01*
X26357Y-29971D01*
X26204Y-29971D01*
X26585Y-29800D02*
X26604Y-29780D01*
X26642Y-29761D01*
X26738Y-29761D01*
X26776Y-29780D01*
X26795Y-29800D01*
X26814Y-29838D01*
X26814Y-29876D01*
X26795Y-29933D01*
X26566Y-30161D01*
X26814Y-30161D01*
X42704Y-30161D02*
X42704Y-29761D01*
X42857Y-29761D01*
X42895Y-29780D01*
X42914Y-29800D01*
X42933Y-29838D01*
X42933Y-29895D01*
X42914Y-29933D01*
X42895Y-29952D01*
X42857Y-29971D01*
X42704Y-29971D01*
X43066Y-29761D02*
X43314Y-29761D01*
X43180Y-29914D01*
X43238Y-29914D01*
X43276Y-29933D01*
X43295Y-29952D01*
X43314Y-29990D01*
X43314Y-30085D01*
X43295Y-30123D01*
X43276Y-30142D01*
X43238Y-30161D01*
X43123Y-30161D01*
X43085Y-30142D01*
X43066Y-30123D01*
X59204Y-30161D02*
X59204Y-29761D01*
X59357Y-29761D01*
X59395Y-29780D01*
X59414Y-29800D01*
X59433Y-29838D01*
X59433Y-29895D01*
X59414Y-29933D01*
X59395Y-29952D01*
X59357Y-29971D01*
X59204Y-29971D01*
X59776Y-29895D02*
X59776Y-30161D01*
X59680Y-29742D02*
X59585Y-30028D01*
X59833Y-30028D01*
X26433Y-32123D02*
X26414Y-32142D01*
X26357Y-32161D01*
X26319Y-32161D01*
X26261Y-32142D01*
X26223Y-32104D01*
X26204Y-32066D01*
X26185Y-31990D01*
X26185Y-31933D01*
X26204Y-31857D01*
X26223Y-31819D01*
X26261Y-31780D01*
X26319Y-31761D01*
X26357Y-31761D01*
X26414Y-31780D01*
X26433Y-31800D01*
X26814Y-32161D02*
X26585Y-32161D01*
X26700Y-32161D02*
X26700Y-31761D01*
X26661Y-31819D01*
X26623Y-31857D01*
X26585Y-31876D01*
X26433Y-34123D02*
X26414Y-34142D01*
X26357Y-34161D01*
X26319Y-34161D01*
X26261Y-34142D01*
X26223Y-34104D01*
X26204Y-34066D01*
X26185Y-33990D01*
X26185Y-33933D01*
X26204Y-33857D01*
X26223Y-33819D01*
X26261Y-33780D01*
X26319Y-33761D01*
X26357Y-33761D01*
X26414Y-33780D01*
X26433Y-33800D01*
X26585Y-33800D02*
X26604Y-33780D01*
X26642Y-33761D01*
X26738Y-33761D01*
X26776Y-33780D01*
X26795Y-33800D01*
X26814Y-33838D01*
X26814Y-33876D01*
X26795Y-33933D01*
X26566Y-34161D01*
X26814Y-34161D01*
X42933Y-32123D02*
X42914Y-32142D01*
X42857Y-32161D01*
X42819Y-32161D01*
X42761Y-32142D01*
X42723Y-32104D01*
X42704Y-32066D01*
X42685Y-31990D01*
X42685Y-31933D01*
X42704Y-31857D01*
X42723Y-31819D01*
X42761Y-31780D01*
X42819Y-31761D01*
X42857Y-31761D01*
X42914Y-31780D01*
X42933Y-31800D01*
X43066Y-31761D02*
X43314Y-31761D01*
X43180Y-31914D01*
X43238Y-31914D01*
X43276Y-31933D01*
X43295Y-31952D01*
X43314Y-31990D01*
X43314Y-32085D01*
X43295Y-32123D01*
X43276Y-32142D01*
X43238Y-32161D01*
X43123Y-32161D01*
X43085Y-32142D01*
X43066Y-32123D01*
X42933Y-34123D02*
X42914Y-34142D01*
X42857Y-34161D01*
X42819Y-34161D01*
X42761Y-34142D01*
X42723Y-34104D01*
X42704Y-34066D01*
X42685Y-33990D01*
X42685Y-33933D01*
X42704Y-33857D01*
X42723Y-33819D01*
X42761Y-33780D01*
X42819Y-33761D01*
X42857Y-33761D01*
X42914Y-33780D01*
X42933Y-33800D01*
X43276Y-33895D02*
X43276Y-34161D01*
X43180Y-33742D02*
X43085Y-34028D01*
X43333Y-34028D01*
X53783Y-33473D02*
X53764Y-33492D01*
X53707Y-33511D01*
X53669Y-33511D01*
X53611Y-33492D01*
X53573Y-33454D01*
X53554Y-33416D01*
X53535Y-33340D01*
X53535Y-33283D01*
X53554Y-33207D01*
X53573Y-33169D01*
X53611Y-33130D01*
X53669Y-33111D01*
X53707Y-33111D01*
X53764Y-33130D01*
X53783Y-33150D01*
X54145Y-33111D02*
X53954Y-33111D01*
X53935Y-33302D01*
X53954Y-33283D01*
X53992Y-33264D01*
X54088Y-33264D01*
X54126Y-33283D01*
X54145Y-33302D01*
X54164Y-33340D01*
X54164Y-33435D01*
X54145Y-33473D01*
X54126Y-33492D01*
X54088Y-33511D01*
X53992Y-33511D01*
X53954Y-33492D01*
X53935Y-33473D01*
X59433Y-32123D02*
X59414Y-32142D01*
X59357Y-32161D01*
X59319Y-32161D01*
X59261Y-32142D01*
X59223Y-32104D01*
X59204Y-32066D01*
X59185Y-31990D01*
X59185Y-31933D01*
X59204Y-31857D01*
X59223Y-31819D01*
X59261Y-31780D01*
X59319Y-31761D01*
X59357Y-31761D01*
X59414Y-31780D01*
X59433Y-31800D01*
X59776Y-31761D02*
X59700Y-31761D01*
X59661Y-31780D01*
X59642Y-31800D01*
X59604Y-31857D01*
X59585Y-31933D01*
X59585Y-32085D01*
X59604Y-32123D01*
X59623Y-32142D01*
X59661Y-32161D01*
X59738Y-32161D01*
X59776Y-32142D01*
X59795Y-32123D01*
X59814Y-32085D01*
X59814Y-31990D01*
X59795Y-31952D01*
X59776Y-31933D01*
X59738Y-31914D01*
X59661Y-31914D01*
X59623Y-31933D01*
X59604Y-31952D01*
X59585Y-31990D01*
X59433Y-34123D02*
X59414Y-34142D01*
X59357Y-34161D01*
X59319Y-34161D01*
X59261Y-34142D01*
X59223Y-34104D01*
X59204Y-34066D01*
X59185Y-33990D01*
X59185Y-33933D01*
X59204Y-33857D01*
X59223Y-33819D01*
X59261Y-33780D01*
X59319Y-33761D01*
X59357Y-33761D01*
X59414Y-33780D01*
X59433Y-33800D01*
X59566Y-33761D02*
X59833Y-33761D01*
X59661Y-34161D01*
M02*
