M48
;DRILL file {Pcbnew (2013-jul-07)-stable} date Wed 10 Jun 2015 05:24:12 PM PDT
;FORMAT={-:-/ absolute / inch / decimal}
FMAT,2
INCH,TZ
T1C0.020
T2C0.032
T3C0.035
T4C0.040
T5C0.116
%
G90
G05
M72
T1
X5.325Y-3.15
X5.375Y-3.15
X5.425Y-3.15
T2
X2.75Y-3.2
X2.75Y-3.4
X2.85Y-3.2
X2.85Y-3.4
X4.4Y-3.2
X4.4Y-3.4
X4.5Y-3.2
X4.5Y-3.4
X5.325Y-3.425
X5.425Y-3.425
X6.05Y-3.2
X6.05Y-3.4
X6.15Y-3.2
X6.15Y-3.4
T3
X1.7106Y-3.0425
X1.7106Y-3.1213
X1.7106Y-3.2
X1.7106Y-3.2787
X1.7106Y-3.3575
X1.7894Y-3.0425
X1.7894Y-3.1213
X1.7894Y-3.2
X1.7894Y-3.2787
X1.7894Y-3.3575
T4
X2.75Y-3.
X2.85Y-3.
X2.95Y-3.
X3.05Y-3.
X3.15Y-3.
X3.25Y-3.
X4.4Y-3.
X4.5Y-3.
X4.6Y-3.
X4.7Y-3.
X4.8Y-3.
X4.9Y-3.
X6.05Y-3.
X6.15Y-3.
X6.25Y-3.
X6.35Y-3.
X6.45Y-3.
X6.55Y-3.
T5
X2.1Y-2.95
X2.1Y-3.45
X7.2Y-2.95
X7.2Y-3.45
T0
M30
