G04 (created by PCBNEW (2013-jul-07)-stable) date Wed 10 Jun 2015 05:24:05 PM PDT*
%MOIN*%
G04 Gerber Fmt 3.4, Leading zero omitted, Abs format*
%FSLAX34Y34*%
G01*
G70*
G90*
G04 APERTURE LIST*
%ADD10C,0.00590551*%
%ADD11C,0.033*%
%ADD12R,0.06X0.06*%
%ADD13C,0.06*%
%ADD14C,0.055*%
%ADD15C,0.0492126*%
%ADD16C,0.15*%
%ADD17C,0.015*%
G04 APERTURE END LIST*
G54D10*
G54D11*
X53250Y-31500D03*
X53750Y-31500D03*
X54250Y-31500D03*
G54D12*
X27500Y-30000D03*
G54D13*
X28500Y-30000D03*
X29500Y-30000D03*
X30500Y-30000D03*
X31500Y-30000D03*
X32500Y-30000D03*
G54D12*
X44000Y-30000D03*
G54D13*
X45000Y-30000D03*
X46000Y-30000D03*
X47000Y-30000D03*
X48000Y-30000D03*
X49000Y-30000D03*
G54D12*
X60500Y-30000D03*
G54D13*
X61500Y-30000D03*
X62500Y-30000D03*
X63500Y-30000D03*
X64500Y-30000D03*
X65500Y-30000D03*
G54D14*
X27500Y-32000D03*
X28500Y-32000D03*
X27500Y-34000D03*
X28500Y-34000D03*
X44000Y-32000D03*
X45000Y-32000D03*
X44000Y-34000D03*
X45000Y-34000D03*
X53250Y-34250D03*
X54250Y-34250D03*
X60500Y-32000D03*
X61500Y-32000D03*
X60500Y-34000D03*
X61500Y-34000D03*
G54D15*
X17893Y-30425D03*
X17106Y-30425D03*
X17893Y-31212D03*
X17106Y-31212D03*
X17893Y-32000D03*
X17106Y-32000D03*
X17893Y-32787D03*
X17106Y-32787D03*
X17893Y-33574D03*
X17106Y-33574D03*
G54D16*
X72000Y-29500D03*
X72000Y-34500D03*
X21000Y-29500D03*
X21000Y-34500D03*
G54D17*
X46812Y-31187D02*
X48000Y-30000D01*
X18705Y-31187D02*
X46812Y-31187D01*
X17893Y-32000D02*
X18705Y-31187D01*
X64005Y-29505D02*
X64500Y-30000D01*
X42348Y-29505D02*
X64005Y-29505D01*
X40917Y-30937D02*
X42348Y-29505D01*
X18168Y-30937D02*
X40917Y-30937D01*
X17893Y-31212D02*
X18168Y-30937D01*
X52757Y-32492D02*
X53750Y-31500D01*
X18975Y-32492D02*
X52757Y-32492D01*
X17893Y-33574D02*
X18975Y-32492D01*
X44500Y-31500D02*
X53250Y-31500D01*
X44000Y-32000D02*
X44500Y-31500D01*
X60293Y-32206D02*
X60500Y-32000D01*
X60293Y-33793D02*
X60293Y-32206D01*
X53706Y-33793D02*
X60293Y-33793D01*
X53250Y-34250D02*
X53706Y-33793D01*
X60293Y-33793D02*
X60500Y-34000D01*
X26599Y-30425D02*
X27024Y-30000D01*
X17893Y-30425D02*
X26599Y-30425D01*
X27500Y-30000D02*
X27024Y-30000D01*
X52750Y-30000D02*
X54250Y-31500D01*
X49000Y-30000D02*
X52750Y-30000D01*
X16674Y-30856D02*
X17106Y-30425D01*
X16674Y-33143D02*
X16674Y-30856D01*
X17106Y-33574D02*
X16674Y-33143D01*
X17553Y-34022D02*
X17106Y-33574D01*
X18703Y-34022D02*
X17553Y-34022D01*
X19178Y-33547D02*
X18703Y-34022D01*
X28047Y-33547D02*
X19178Y-33547D01*
X28500Y-34000D02*
X28047Y-33547D01*
M02*
