999
dxfrw 0.5.10
0
SECTION
2
HEADER
9
$ACADVER
1
AC1021
9
$HANDSEED
5
20000
9
$DWGCODEPAGE
3
ANSI_1252
9
$INSBASE
10
0
20
0
30
0
9
$EXTMIN
10
-0.5
20
-1.625
30
0
9
$EXTMAX
10
3.5
20
3.125
30
0
9
$LIMMIN
10
0
20
0
9
$LIMMAX
10
420
20
297
9
$ORTHOMODE
70
0
9
$LTSCALE
40
1
9
$TEXTSTYLE
7
STANDARD
9
$CLAYER
8
boundary
9
$DIMASZ
40
0.1
9
$DIMLFAC
40
1
9
$DIMSCALE
40
1
9
$DIMEXO
40
0.025
9
$DIMEXE
40
0.05
9
$DIMTXT
40
0.1
9
$DIMTSZ
40
0
9
$DIMAUNIT
70
0
9
$DIMADEC
70
2
9
$DIMLUNIT
70
2
9
$DIMSTYLE
2
STANDARD
9
$DIMGAP
40
0.025
9
$DIMTIH
70
0
9
$LUNITS
70
2
9
$LUPREC
70
4
9
$AUNITS
70
0
9
$AUPREC
70
2
9
$SPLINESEGS
70
8
9
$GRIDMODE
70
1
9
$SNAPSTYLE
70
0
9
$GRIDUNIT
10
0
20
0
9
$PINSBASE
10
0
20
0
30
0
9
$PLIMMIN
10
0
20
0
9
$PLIMMAX
10
8.26771653543
20
11.6929133858
9
$INSUNITS
70
1
9
$PSVPSCALE
40
1
0
ENDSEC
0
SECTION
2
CLASSES
0
ENDSEC
0
SECTION
2
TABLES
0
TABLE
2
VPORT
5
8
330
0
100
AcDbSymbolTable
70
1
0
VPORT
5
31
330
2
100
AcDbSymbolTableRecord
100
AcDbViewportTableRecord
2
*ACTIVE
70
0
10
0
20
0
11
1
21
1
12
4.89502576686
22
0.884007348732
13
0
23
0
14
10
24
10
15
10
25
10
16
0
26
0
36
1
17
0
27
0
37
0
40
6.70262288292
41
1.81102362205
42
50
43
0
44
0
50
0
51
0
71
0
72
100
73
1
74
3
75
0
76
1
77
0
78
0
281
0
65
1
110
0
120
0
130
0
111
1
121
0
131
0
112
0
122
1
132
0
79
0
146
0
348
10020
60
7
61
5
292
1
282
1
141
0
142
0
63
250
421
3358443
0
ENDTAB
0
TABLE
2
LTYPE
5
5
330
0
100
AcDbSymbolTable
70
4
0
LTYPE
5
14
330
5
100
AcDbSymbolTableRecord
100
AcDbLinetypeTableRecord
2
ByBlock
70
0
3

72
65
73
0
40
0
0
LTYPE
5
15
330
5
100
AcDbSymbolTableRecord
100
AcDbLinetypeTableRecord
2
ByLayer
70
0
3

72
65
73
0
40
0
0
LTYPE
5
16
330
5
100
AcDbSymbolTableRecord
100
AcDbLinetypeTableRecord
2
Continuous
70
0
3
Solid line
72
65
73
0
40
0
0
LTYPE
5
32
330
5
100
AcDbSymbolTableRecord
100
AcDbLinetypeTableRecord
2
DOT
70
0
3
Dot . . . . . . . . . . . . . . . . . . . . . .
72
65
73
2
40
6.35
49
0
74
0
49
-6.35
74
0
0
LTYPE
5
33
330
5
100
AcDbSymbolTableRecord
100
AcDbLinetypeTableRecord
2
DOT2
70
0
3
Dot (.5x) .....................................
72
65
73
2
40
3.175
49
0
74
0
49
-3.175
74
0
0
LTYPE
5
34
330
5
100
AcDbSymbolTableRecord
100
AcDbLinetypeTableRecord
2
DOTX2
70
0
3
Dot (2x) .  .  .  .  .  .  .  .  .  .  .  .  .
72
65
73
2
40
12.7
49
0
74
0
49
-12.7
74
0
0
LTYPE
5
35
330
5
100
AcDbSymbolTableRecord
100
AcDbLinetypeTableRecord
2
DASHED
70
0
3
Dot . . . . . . . . . . . . . . . . . . . . . .
72
65
73
2
40
19.05
49
12.7
74
0
49
-6.35
74
0
0
LTYPE
5
36
330
5
100
AcDbSymbolTableRecord
100
AcDbLinetypeTableRecord
2
DASHED2
70
0
3
Dashed (.5x) _ _ _ _ _ _ _ _ _ _ _ _ _ _ _ _ _
72
65
73
2
40
9.525
49
6.35
74
0
49
-3.175
74
0
0
LTYPE
5
37
330
5
100
AcDbSymbolTableRecord
100
AcDbLinetypeTableRecord
2
DASHEDX2
70
0
3
Dashed (2x) ____  ____  ____  ____  ____  ___
72
65
73
2
40
38.1
49
25.4
74
0
49
-12.7
74
0
0
LTYPE
5
38
330
5
100
AcDbSymbolTableRecord
100
AcDbLinetypeTableRecord
2
DASHDOT
70
0
3
Dash dot __ . __ . __ . __ . __ . __ . __ . __
72
65
73
4
40
25.4
49
12.7
74
0
49
-6.35
74
0
49
0
74
0
49
-6.35
74
0
0
LTYPE
5
39
330
5
100
AcDbSymbolTableRecord
100
AcDbLinetypeTableRecord
2
DASHDOT2
70
0
3
Dash dot (.5x) _._._._._._._._._._._._._._._.
72
65
73
4
40
12.7
49
6.35
74
0
49
-3.175
74
0
49
0
74
0
49
-3.175
74
0
0
LTYPE
5
3A
330
5
100
AcDbSymbolTableRecord
100
AcDbLinetypeTableRecord
2
DASHDOTX2
70
0
3
Dash dot (2x) ____  .  ____  .  ____  .  ___
72
65
73
4
40
50.8
49
25.4
74
0
49
-12.7
74
0
49
0
74
0
49
-12.7
74
0
0
LTYPE
5
3B
330
5
100
AcDbSymbolTableRecord
100
AcDbLinetypeTableRecord
2
DIVIDE
70
0
3
Divide ____ . . ____ . . ____ . . ____ . . ____
72
65
73
6
40
31.75
49
12.7
74
0
49
-6.35
74
0
49
0
74
0
49
-6.35
74
0
49
0
74
0
49
-6.35
74
0
0
LTYPE
5
3C
330
5
100
AcDbSymbolTableRecord
100
AcDbLinetypeTableRecord
2
DIVIDE2
70
0
3
Divide (.5x) __..__..__..__..__..__..__..__.._
72
65
73
6
40
15.875
49
6.35
74
0
49
-3.175
74
0
49
0
74
0
49
-3.175
74
0
49
0
74
0
49
-3.175
74
0
0
LTYPE
5
3D
330
5
100
AcDbSymbolTableRecord
100
AcDbLinetypeTableRecord
2
DIVIDEX2
70
0
3
Divide (2x) ________  .  .  ________  .  .  _
72
65
73
6
40
63.5
49
25.4
74
0
49
-12.7
74
0
49
0
74
0
49
-12.7
74
0
49
0
74
0
49
-12.7
74
0
0
LTYPE
5
3E
330
5
100
AcDbSymbolTableRecord
100
AcDbLinetypeTableRecord
2
BORDER
70
0
3
Border __ __ . __ __ . __ __ . __ __ . __ __ .
72
65
73
6
40
44.45
49
12.7
74
0
49
-6.35
74
0
49
12.7
74
0
49
-6.35
74
0
49
0
74
0
49
-6.35
74
0
0
LTYPE
5
3F
330
5
100
AcDbSymbolTableRecord
100
AcDbLinetypeTableRecord
2
BORDER2
70
0
3
Border (.5x) __.__.__.__.__.__.__.__.__.__.__.
72
65
73
6
40
22.225
49
6.35
74
0
49
-3.175
74
0
49
6.35
74
0
49
-3.175
74
0
49
0
74
0
49
-3.175
74
0
0
LTYPE
5
40
330
5
100
AcDbSymbolTableRecord
100
AcDbLinetypeTableRecord
2
BORDERX2
70
0
3
Border (2x) ____  ____  .  ____  ____  .  ___
72
65
73
6
40
88.9
49
25.4
74
0
49
-12.7
74
0
49
25.4
74
0
49
-12.7
74
0
49
0
74
0
49
-12.7
74
0
0
LTYPE
5
41
330
5
100
AcDbSymbolTableRecord
100
AcDbLinetypeTableRecord
2
CENTER
70
0
3
Center ____ _ ____ _ ____ _ ____ _ ____ _ ____
72
65
73
4
40
50.8
49
31.75
74
0
49
-6.35
74
0
49
6.35
74
0
49
-6.35
74
0
0
LTYPE
5
42
330
5
100
AcDbSymbolTableRecord
100
AcDbLinetypeTableRecord
2
CENTER2
70
0
3
Center (.5x) ___ _ ___ _ ___ _ ___ _ ___ _ ___
72
65
73
4
40
28.575
49
19.05
74
0
49
-3.175
74
0
49
3.175
74
0
49
-3.175
74
0
0
LTYPE
5
43
330
5
100
AcDbSymbolTableRecord
100
AcDbLinetypeTableRecord
2
CENTERX2
70
0
3
Center (2x) ________  __  ________  __  _____
72
65
73
4
40
101.6
49
63.5
74
0
49
-12.7
74
0
49
12.7
74
0
49
-12.7
74
0
0
ENDTAB
0
TABLE
2
LAYER
5
2
330
0
100
AcDbSymbolTable
70
1
0
LAYER
5
10
330
2
100
AcDbSymbolTableRecord
100
AcDbLayerTableRecord
2
0
70
0
62
7
6
CONTINUOUS
370
0
390
F
0
LAYER
5
44
330
2
100
AcDbSymbolTableRecord
100
AcDbLayerTableRecord
2
boundary
70
0
62
5
6
CONTINUOUS
370
0
390
F
0
LAYER
5
45
330
2
100
AcDbSymbolTableRecord
100
AcDbLayerTableRecord
2
bend
70
0
62
2
6
CONTINUOUS
370
0
390
F
0
LAYER
5
46
330
2
100
AcDbSymbolTableRecord
100
AcDbLayerTableRecord
2
scratch
70
1
62
7
6
CONTINUOUS
370
0
390
F
0
LAYER
5
47
330
2
100
AcDbSymbolTableRecord
100
AcDbLayerTableRecord
2
10-32_through_hole
70
0
62
3
6
CONTINUOUS
370
0
390
F
0
LAYER
5
48
330
2
100
AcDbSymbolTableRecord
100
AcDbLayerTableRecord
2
M3_through_hole
70
0
62
4
6
CONTINUOUS
370
0
390
F
0
LAYER
5
49
330
2
100
AcDbSymbolTableRecord
100
AcDbLayerTableRecord
2
dimension
70
0
62
253
420
10526884
6
CONTINUOUS
370
0
390
F
0
ENDTAB
0
TABLE
2
STYLE
5
3
330
0
100
AcDbSymbolTable
70
3
0
STYLE
5
4A
330
2
100
AcDbSymbolTableRecord
100
AcDbTextStyleTableRecord
2
Standard
70
0
40
0
41
1
50
0
71
0
42
1
3
txt
4

0
ENDTAB
0
TABLE
2
VIEW
5
6
330
0
100
AcDbSymbolTable
70
0
0
ENDTAB
0
TABLE
2
UCS
5
7
330
0
100
AcDbSymbolTable
70
0
0
ENDTAB
0
TABLE
2
APPID
5
9
330
0
100
AcDbSymbolTable
70
1
0
APPID
5
12
330
9
100
AcDbSymbolTableRecord
100
AcDbRegAppTableRecord
2
ACAD
70
0
0
ENDTAB
0
TABLE
2
DIMSTYLE
5
A
330
0
100
AcDbSymbolTable
70
1
100
AcDbDimStyleTable
71
1
0
DIMSTYLE
105
4B
330
A
100
AcDbSymbolTableRecord
100
AcDbDimStyleTableRecord
2
Standard
70
0
40
1
41
0.1
42
0.025
43
0.38
44
0.05
45
0
46
0
47
0
48
0
140
0.1
141
0.09
142
0
143
25.4
144
1
145
0
146
1
147
0.025
148
0
71
0
72
0
73
0
74
1
75
0
76
0
77
0
78
0
79
0
170
0
171
2
172
0
173
0
174
0
175
0
176
0
177
0
178
0
179
0
271
4
272
4
273
2
274
2
275
0
276
0
277
2
278
46
279
0
280
0
281
0
282
0
283
1
284
0
285
0
286
0
288
0
289
3
340
Standard
341

371
-2
372
-2
0
ENDTAB
0
TABLE
2
BLOCK_RECORD
5
1
330
0
100
AcDbSymbolTable
70
2
0
BLOCK_RECORD
5
1F
330
1
100
AcDbSymbolTableRecord
100
AcDbBlockTableRecord
2
*Model_Space
70
0
280
1
281
0
0
BLOCK_RECORD
5
1E
330
1
100
AcDbSymbolTableRecord
100
AcDbBlockTableRecord
2
*Paper_Space
70
0
280
1
281
0
0
BLOCK_RECORD
5
4C
330
1
100
AcDbSymbolTableRecord
100
AcDbBlockTableRecord
2
*D1
70
0
280
1
281
0
0
BLOCK_RECORD
5
4F
330
1
100
AcDbSymbolTableRecord
100
AcDbBlockTableRecord
2
*D2
70
0
280
1
281
0
0
ENDTAB
0
ENDSEC
0
SECTION
2
BLOCKS
0
BLOCK
5
20
330
1F
100
AcDbEntity
8
0
100
AcDbBlockBegin
2
*Model_Space
70
0
10
0
20
0
30
0
3
*Model_Space
1

0
ENDBLK
5
21
330
1F
100
AcDbEntity
8
0
100
AcDbBlockEnd
0
BLOCK
5
1C
330
1B
100
AcDbEntity
8
0
100
AcDbBlockBegin
2
*Paper_Space
70
0
10
0
20
0
30
0
3
*Paper_Space
1

0
ENDBLK
5
1D
330
1F
100
AcDbEntity
8
0
100
AcDbBlockEnd
0
BLOCK
5
4D
330
4C
100
AcDbEntity
8
0
100
AcDbBlockBegin
2
*D1
70
1
10
0
20
0
3
*D1
1

0
LINE
5
52
100
AcDbEntity
8
dimension
6
CONTINUOUS
62
7
370
0
100
AcDbLine
10
0.63386
20
2.6
11
2.36614
21
2.6
0
SOLID
5
53
100
AcDbEntity
8
dimension
6
CONTINUOUS
62
7
370
0
100
AcDbTrace
10
0.63386
20
2.6
30
0
11
0.73386
21
2.61665138631
31
0
12
0.73386
22
2.58334861369
32
0
13
0.73386
23
2.58334861369
33
0
0
SOLID
5
54
100
AcDbEntity
8
dimension
6
CONTINUOUS
62
7
370
0
100
AcDbTrace
10
2.36614
20
2.6
30
0
11
2.26614
21
2.58334861369
31
0
12
2.26614
22
2.61665138631
32
0
13
2.26614
23
2.61665138631
33
0
0
MTEXT
5
55
100
AcDbEntity
8
dimension
6
CONTINUOUS
62
7
370
0
100
AcDbMText
10
1.5
20
2.675
30
0
40
0.1
41
0.366666666667
71
5
72
1
1
1.7323
7
standard
210
0
220
0
230
1
50
0
73
2
44
1
0
LINE
5
56
100
AcDbEntity
8
dimension
6
CONTINUOUS
62
7
370
0
100
AcDbLine
10
0.63386
20
2.142126
11
0.63386
21
2.65
0
LINE
5
57
100
AcDbEntity
8
dimension
6
CONTINUOUS
62
7
370
0
100
AcDbLine
10
2.36614
20
2.142125984
11
2.36614
21
2.65
0
ENDBLK
5
4E
330
4C
100
AcDbEntity
8
0
100
AcDbBlockEnd
0
BLOCK
5
50
330
4F
100
AcDbEntity
8
0
100
AcDbBlockBegin
2
*D2
70
1
10
0
20
0
3
*D2
1

0
LINE
5
58
100
AcDbEntity
8
dimension
6
CONTINUOUS
62
7
370
0
100
AcDbLine
10
2.7
20
2.117125984
11
2.7
21
1.132874
0
SOLID
5
59
100
AcDbEntity
8
dimension
6
CONTINUOUS
62
7
370
0
100
AcDbTrace
10
2.7
20
2.117125984
30
0
11
2.71665138631
21
2.017125984
31
0
12
2.68334861369
22
2.017125984
32
0
13
2.68334861369
23
2.017125984
33
0
0
SOLID
5
5A
100
AcDbEntity
8
dimension
6
CONTINUOUS
62
7
370
0
100
AcDbTrace
10
2.7
20
1.132874
30
0
11
2.68334861369
21
1.232874
31
0
12
2.71665138631
22
1.232874
32
0
13
2.71665138631
23
1.232874
33
0
0
MTEXT
5
5B
100
AcDbEntity
8
dimension
6
CONTINUOUS
62
7
370
0
100
AcDbMText
10
2.625
20
1.624999992
30
0
40
0.1
41
0.4
71
5
72
1
1
0.9843
7
standard
210
0
220
0
230
1
50
90
73
2
44
1
0
LINE
5
5C
100
AcDbEntity
8
dimension
6
CONTINUOUS
62
7
370
0
100
AcDbLine
10
2.39114
20
2.117125984
11
2.75
21
2.117125984
0
LINE
5
5D
100
AcDbEntity
8
dimension
6
CONTINUOUS
62
7
370
0
100
AcDbLine
10
2.39114
20
1.132874
11
2.75
21
1.132874
0
ENDBLK
5
51
330
4F
100
AcDbEntity
8
0
100
AcDbBlockEnd
0
ENDSEC
0
SECTION
2
ENTITIES
0
LINE
5
5E
100
AcDbEntity
8
bend
6
ByLayer
62
256
370
-1
100
AcDbLine
10
-0.5
20
-1.38777878078e-16
11
3.5
21
-1.38777878078e-16
0
LINE
5
5F
100
AcDbEntity
8
scratch
6
ByLayer
62
256
370
-1
100
AcDbLine
10
0
20
-0.125
11
0
21
0.125
0
LINE
5
60
100
AcDbEntity
8
scratch
6
ByLayer
62
256
370
-1
100
AcDbLine
10
3
20
-0.125
11
3
21
0.125
0
LINE
5
61
100
AcDbEntity
8
scratch
6
ByLayer
62
256
370
-1
100
AcDbLine
10
0
20
-0.125
11
3
21
-0.125
0
LINE
5
62
100
AcDbEntity
8
scratch
6
ByLayer
62
256
370
-1
100
AcDbLine
10
0
20
0.125
11
3
21
0.125
0
LINE
5
63
100
AcDbEntity
8
scratch
6
ByLayer
62
256
370
-1
100
AcDbLine
10
1.5
20
-0.125
11
0.5
21
-0.125
0
LINE
5
64
100
AcDbEntity
8
scratch
6
ByLayer
62
256
370
-1
100
AcDbLine
10
1.5
20
-0.125
11
2.5
21
-0.125
0
LINE
5
65
100
AcDbEntity
8
scratch
6
ByLayer
62
256
370
-1
100
AcDbLine
10
0.5
20
-0.125
11
0.5
21
-0.875
0
LINE
5
66
100
AcDbEntity
8
scratch
6
ByLayer
62
256
370
-1
100
AcDbLine
10
2.5
20
-0.125
11
2.5
21
-0.875
0
CIRCLE
5
67
100
AcDbEntity
8
10-32_through_hole
6
ByLayer
62
256
370
-1
100
AcDbCircle
10
0.5
20
-0.875
40
0.105
0
CIRCLE
5
68
100
AcDbEntity
8
10-32_through_hole
6
ByLayer
62
256
370
-1
100
AcDbCircle
10
2.5
20
-0.875
40
0.105
0
LINE
5
69
100
AcDbEntity
8
scratch
6
ByLayer
62
256
370
-1
100
AcDbLine
10
1.5
20
0.125
11
1.5
21
1.625
0
LINE
5
6A
100
AcDbEntity
8
scratch
6
ByLayer
62
256
370
-1
100
AcDbLine
10
1.5
20
1.625
11
2.36614
21
1.625
0
LINE
5
6B
100
AcDbEntity
8
scratch
6
ByLayer
62
256
370
-1
100
AcDbLine
10
1.5
20
1.625
11
0.63386
21
1.625
0
LINE
5
6C
100
AcDbEntity
8
scratch
6
ByLayer
62
256
370
-1
100
AcDbLine
10
2.36614
20
1.625
11
2.36614
21
2.117125984
0
LINE
5
6D
100
AcDbEntity
8
scratch
6
ByLayer
62
256
370
-1
100
AcDbLine
10
0.63386
20
1.625
11
0.63386
21
2.117126
0
LINE
5
6E
100
AcDbEntity
8
scratch
6
ByLayer
62
256
370
-1
100
AcDbLine
10
0.63386
20
1.625
11
0.63386
21
1.132874
0
LINE
5
6F
100
AcDbEntity
8
scratch
6
ByLayer
62
256
370
-1
100
AcDbLine
10
2.36614
20
1.625
11
2.36614
21
1.132874
0
CIRCLE
5
70
100
AcDbEntity
8
M3_through_hole
6
ByLayer
62
256
370
-1
100
AcDbCircle
10
0.63386
20
2.117126
40
0.07
0
CIRCLE
5
71
100
AcDbEntity
8
M3_through_hole
6
ByLayer
62
256
370
-1
100
AcDbCircle
10
2.36614
20
2.117125984
40
0.07
0
CIRCLE
5
72
100
AcDbEntity
8
M3_through_hole
6
ByLayer
62
256
370
-1
100
AcDbCircle
10
2.36614
20
1.132874
40
0.07
0
CIRCLE
5
73
100
AcDbEntity
8
M3_through_hole
6
ByLayer
62
256
370
-1
100
AcDbCircle
10
0.63386
20
1.132874
40
0.07
0
DIMENSION
5
74
100
AcDbEntity
8
dimension
6
ByLayer
62
256
370
-1
100
AcDbDimension
2
*D1
10
2.36614
20
2.6
30
0
11
1.5
21
2.675
31
0
70
32
71
5
3
Standard
53
0
210
0
220
0
230
1
100
AcDbAlignedDimension
13
0.63386
23
2.117126
33
0
14
2.36614
24
2.117125984
34
0
100
AcDbRotatedDimension
0
DIMENSION
5
75
100
AcDbEntity
8
dimension
6
ByLayer
62
256
370
-1
100
AcDbDimension
2
*D2
10
2.7
20
1.132874
30
0
11
2.625
21
1.624999992
31
0
70
32
71
5
3
Standard
53
0
210
0
220
0
230
1
100
AcDbAlignedDimension
13
2.36614
23
2.117125984
33
0
14
2.36614
24
1.132874
34
0
50
90
100
AcDbRotatedDimension
0
ARC
5
76
100
AcDbEntity
8
boundary
6
ByLayer
62
256
370
-1
100
AcDbCircle
10
0.125
20
3
40
0.125
100
AcDbArc
50
90
51
180
0
ARC
5
77
100
AcDbEntity
8
boundary
6
ByLayer
62
256
370
-1
100
AcDbCircle
10
2.875
20
3
40
0.125
100
AcDbArc
50
0
51
90
0
ARC
5
78
100
AcDbEntity
8
boundary
6
ByLayer
62
256
370
-1
100
AcDbCircle
10
0.125
20
-1.5
40
0.125
100
AcDbArc
50
180
51
270
0
ARC
5
79
100
AcDbEntity
8
boundary
6
ByLayer
62
256
370
-1
100
AcDbCircle
10
2.875
20
-1.5
40
0.125
100
AcDbArc
50
270
51
0
0
LINE
5
7A
100
AcDbEntity
8
boundary
6
ByLayer
62
256
370
-1
100
AcDbLine
10
2.875
20
3.125
11
0.125
21
3.125
0
LINE
5
7B
100
AcDbEntity
8
boundary
6
ByLayer
62
256
370
-1
100
AcDbLine
10
-0
20
3
11
0
21
-1.5
0
LINE
5
7C
100
AcDbEntity
8
boundary
6
ByLayer
62
256
370
-1
100
AcDbLine
10
2.875
20
-1.625
11
0.125
21
-1.625
0
LINE
5
7D
100
AcDbEntity
8
boundary
6
ByLayer
62
256
370
-1
100
AcDbLine
10
3
20
-1.5
11
3
21
3
0
LINE
5
7E
100
AcDbEntity
8
scratch
6
ByLayer
62
256
370
-1
100
AcDbLine
10
0
20
-1.5
11
0
21
-1.625
0
LINE
5
7F
100
AcDbEntity
8
scratch
6
ByLayer
62
256
370
-1
100
AcDbLine
10
0.125
20
-1.625
11
0
21
-1.625
0
LINE
5
80
100
AcDbEntity
8
scratch
6
ByLayer
62
256
370
-1
100
AcDbLine
10
3
20
3.125
11
2.875
21
3.125
0
LINE
5
81
100
AcDbEntity
8
scratch
6
ByLayer
62
256
370
-1
100
AcDbLine
10
3
20
3
11
3
21
3.125
0
LINE
5
82
100
AcDbEntity
8
scratch
6
ByLayer
62
256
370
-1
100
AcDbLine
10
0.125
20
3.125
11
0
21
3.125
0
LINE
5
83
100
AcDbEntity
8
scratch
6
ByLayer
62
256
370
-1
100
AcDbLine
10
0
20
3.125
11
-0
21
3
0
LINE
5
84
100
AcDbEntity
8
scratch
6
ByLayer
62
256
370
-1
100
AcDbLine
10
3
20
-1.625
11
2.875
21
-1.625
0
LINE
5
85
100
AcDbEntity
8
scratch
6
ByLayer
62
256
370
-1
100
AcDbLine
10
3
20
-1.625
11
3
21
-1.5
0
ENDSEC
0
SECTION
2
OBJECTS
0
DICTIONARY
5
C
330
0
100
AcDbDictionary
281
1
3
ACAD_GROUP
350
D
0
DICTIONARY
5
D
330
C
100
AcDbDictionary
281
1
0
ENDSEC
0
EOF
