999
dxfrw 0.5.10
0
SECTION
2
HEADER
9
$ACADVER
1
AC1021
9
$HANDSEED
5
20000
9
$DWGCODEPAGE
3
ANSI_1252
9
$INSBASE
10
0
20
0
30
0
9
$EXTMIN
10
0.234418
20
-1.33325693155
30
0
9
$EXTMAX
10
6.98325693155
20
3.54936041667
30
0
9
$LIMMIN
10
0
20
0
9
$LIMMAX
10
420
20
297
9
$ORTHOMODE
70
0
9
$LTSCALE
40
1
9
$TEXTSTYLE
7
STANDARD
9
$CLAYER
8
0
9
$DIMASZ
40
0.5
9
$DIMLFAC
40
1
9
$DIMSCALE
40
1
9
$DIMEXO
40
0.025
9
$DIMEXE
40
0.05
9
$DIMTXT
40
0.5
9
$DIMTSZ
40
0
9
$DIMAUNIT
70
0
9
$DIMADEC
70
2
9
$DIMLUNIT
70
2
9
$DIMSTYLE
2
Standard
9
$DIMGAP
40
0.025
9
$DIMTIH
70
0
9
$LUNITS
70
2
9
$LUPREC
70
4
9
$AUNITS
70
0
9
$AUPREC
70
2
9
$SPLINESEGS
70
8
9
$GRIDMODE
70
1
9
$SNAPSTYLE
70
0
9
$GRIDUNIT
10
0
20
0
9
$PINSBASE
10
0
20
0
30
0
9
$PLIMMIN
10
0
20
0
9
$PLIMMAX
10
0.0128149858
20
0.018124043
9
$INSUNITS
70
1
9
$PSVPSCALE
40
1
0
ENDSEC
0
SECTION
2
CLASSES
0
ENDSEC
0
SECTION
2
TABLES
0
TABLE
2
VPORT
5
8
330
0
100
AcDbSymbolTable
70
1
0
VPORT
5
31
330
2
100
AcDbSymbolTableRecord
100
AcDbViewportTableRecord
2
*ACTIVE
70
0
10
0
20
0
11
1
21
1
12
5.14730704183
22
1.89849774213
13
0
23
0
14
10
24
10
15
10
25
10
16
0
26
0
36
1
17
0
27
0
37
0
40
6.14290989173
41
1.81102362205
42
50
43
0
44
0
50
0
51
0
71
0
72
100
73
1
74
3
75
0
76
1
77
0
78
0
281
0
65
1
110
0
120
0
130
0
111
1
121
0
131
0
112
0
122
1
132
0
79
0
146
0
348
10020
60
7
61
5
292
1
282
1
141
0
142
0
63
250
421
3358443
0
ENDTAB
0
TABLE
2
LTYPE
5
5
330
0
100
AcDbSymbolTable
70
4
0
LTYPE
5
14
330
5
100
AcDbSymbolTableRecord
100
AcDbLinetypeTableRecord
2
ByBlock
70
0
3

72
65
73
0
40
0
0
LTYPE
5
15
330
5
100
AcDbSymbolTableRecord
100
AcDbLinetypeTableRecord
2
ByLayer
70
0
3

72
65
73
0
40
0
0
LTYPE
5
16
330
5
100
AcDbSymbolTableRecord
100
AcDbLinetypeTableRecord
2
Continuous
70
0
3
Solid line
72
65
73
0
40
0
0
LTYPE
5
32
330
5
100
AcDbSymbolTableRecord
100
AcDbLinetypeTableRecord
2
DOT
70
0
3
Dot . . . . . . . . . . . . . . . . . . . . . .
72
65
73
2
40
6.35
49
0
74
0
49
-6.35
74
0
0
LTYPE
5
33
330
5
100
AcDbSymbolTableRecord
100
AcDbLinetypeTableRecord
2
DOT2
70
0
3
Dot (.5x) .....................................
72
65
73
2
40
3.175
49
0
74
0
49
-3.175
74
0
0
LTYPE
5
34
330
5
100
AcDbSymbolTableRecord
100
AcDbLinetypeTableRecord
2
DOTX2
70
0
3
Dot (2x) .  .  .  .  .  .  .  .  .  .  .  .  .
72
65
73
2
40
12.7
49
0
74
0
49
-12.7
74
0
0
LTYPE
5
35
330
5
100
AcDbSymbolTableRecord
100
AcDbLinetypeTableRecord
2
DASHED
70
0
3
Dot . . . . . . . . . . . . . . . . . . . . . .
72
65
73
2
40
19.05
49
12.7
74
0
49
-6.35
74
0
0
LTYPE
5
36
330
5
100
AcDbSymbolTableRecord
100
AcDbLinetypeTableRecord
2
DASHED2
70
0
3
Dashed (.5x) _ _ _ _ _ _ _ _ _ _ _ _ _ _ _ _ _
72
65
73
2
40
9.525
49
6.35
74
0
49
-3.175
74
0
0
LTYPE
5
37
330
5
100
AcDbSymbolTableRecord
100
AcDbLinetypeTableRecord
2
DASHEDX2
70
0
3
Dashed (2x) ____  ____  ____  ____  ____  ___
72
65
73
2
40
38.1
49
25.4
74
0
49
-12.7
74
0
0
LTYPE
5
38
330
5
100
AcDbSymbolTableRecord
100
AcDbLinetypeTableRecord
2
DASHDOT
70
0
3
Dash dot __ . __ . __ . __ . __ . __ . __ . __
72
65
73
4
40
25.4
49
12.7
74
0
49
-6.35
74
0
49
0
74
0
49
-6.35
74
0
0
LTYPE
5
39
330
5
100
AcDbSymbolTableRecord
100
AcDbLinetypeTableRecord
2
DASHDOT2
70
0
3
Dash dot (.5x) _._._._._._._._._._._._._._._.
72
65
73
4
40
12.7
49
6.35
74
0
49
-3.175
74
0
49
0
74
0
49
-3.175
74
0
0
LTYPE
5
3A
330
5
100
AcDbSymbolTableRecord
100
AcDbLinetypeTableRecord
2
DASHDOTX2
70
0
3
Dash dot (2x) ____  .  ____  .  ____  .  ___
72
65
73
4
40
50.8
49
25.4
74
0
49
-12.7
74
0
49
0
74
0
49
-12.7
74
0
0
LTYPE
5
3B
330
5
100
AcDbSymbolTableRecord
100
AcDbLinetypeTableRecord
2
DIVIDE
70
0
3
Divide ____ . . ____ . . ____ . . ____ . . ____
72
65
73
6
40
31.75
49
12.7
74
0
49
-6.35
74
0
49
0
74
0
49
-6.35
74
0
49
0
74
0
49
-6.35
74
0
0
LTYPE
5
3C
330
5
100
AcDbSymbolTableRecord
100
AcDbLinetypeTableRecord
2
DIVIDE2
70
0
3
Divide (.5x) __..__..__..__..__..__..__..__.._
72
65
73
6
40
15.875
49
6.35
74
0
49
-3.175
74
0
49
0
74
0
49
-3.175
74
0
49
0
74
0
49
-3.175
74
0
0
LTYPE
5
3D
330
5
100
AcDbSymbolTableRecord
100
AcDbLinetypeTableRecord
2
DIVIDEX2
70
0
3
Divide (2x) ________  .  .  ________  .  .  _
72
65
73
6
40
63.5
49
25.4
74
0
49
-12.7
74
0
49
0
74
0
49
-12.7
74
0
49
0
74
0
49
-12.7
74
0
0
LTYPE
5
3E
330
5
100
AcDbSymbolTableRecord
100
AcDbLinetypeTableRecord
2
BORDER
70
0
3
Border __ __ . __ __ . __ __ . __ __ . __ __ .
72
65
73
6
40
44.45
49
12.7
74
0
49
-6.35
74
0
49
12.7
74
0
49
-6.35
74
0
49
0
74
0
49
-6.35
74
0
0
LTYPE
5
3F
330
5
100
AcDbSymbolTableRecord
100
AcDbLinetypeTableRecord
2
BORDER2
70
0
3
Border (.5x) __.__.__.__.__.__.__.__.__.__.__.
72
65
73
6
40
22.225
49
6.35
74
0
49
-3.175
74
0
49
6.35
74
0
49
-3.175
74
0
49
0
74
0
49
-3.175
74
0
0
LTYPE
5
40
330
5
100
AcDbSymbolTableRecord
100
AcDbLinetypeTableRecord
2
BORDERX2
70
0
3
Border (2x) ____  ____  .  ____  ____  .  ___
72
65
73
6
40
88.9
49
25.4
74
0
49
-12.7
74
0
49
25.4
74
0
49
-12.7
74
0
49
0
74
0
49
-12.7
74
0
0
LTYPE
5
41
330
5
100
AcDbSymbolTableRecord
100
AcDbLinetypeTableRecord
2
CENTER
70
0
3
Center ____ _ ____ _ ____ _ ____ _ ____ _ ____
72
65
73
4
40
50.8
49
31.75
74
0
49
-6.35
74
0
49
6.35
74
0
49
-6.35
74
0
0
LTYPE
5
42
330
5
100
AcDbSymbolTableRecord
100
AcDbLinetypeTableRecord
2
CENTER2
70
0
3
Center (.5x) ___ _ ___ _ ___ _ ___ _ ___ _ ___
72
65
73
4
40
28.575
49
19.05
74
0
49
-3.175
74
0
49
3.175
74
0
49
-3.175
74
0
0
LTYPE
5
43
330
5
100
AcDbSymbolTableRecord
100
AcDbLinetypeTableRecord
2
CENTERX2
70
0
3
Center (2x) ________  __  ________  __  _____
72
65
73
4
40
101.6
49
63.5
74
0
49
-12.7
74
0
49
12.7
74
0
49
-12.7
74
0
0
ENDTAB
0
TABLE
2
LAYER
5
2
330
0
100
AcDbSymbolTable
70
1
0
LAYER
5
10
330
2
100
AcDbSymbolTableRecord
100
AcDbLayerTableRecord
2
0
70
0
62
7
6
CONTINUOUS
370
-3
390
F
0
ENDTAB
0
TABLE
2
STYLE
5
3
330
0
100
AcDbSymbolTable
70
3
0
STYLE
5
44
330
2
100
AcDbSymbolTableRecord
100
AcDbTextStyleTableRecord
2
Standard
70
0
40
0
41
1
50
0
71
0
42
1
3
txt
4

0
ENDTAB
0
TABLE
2
VIEW
5
6
330
0
100
AcDbSymbolTable
70
0
0
ENDTAB
0
TABLE
2
UCS
5
7
330
0
100
AcDbSymbolTable
70
0
0
ENDTAB
0
TABLE
2
APPID
5
9
330
0
100
AcDbSymbolTable
70
1
0
APPID
5
12
330
9
100
AcDbSymbolTableRecord
100
AcDbRegAppTableRecord
2
ACAD
70
0
0
ENDTAB
0
TABLE
2
DIMSTYLE
5
A
330
0
100
AcDbSymbolTable
70
1
100
AcDbDimStyleTable
71
1
0
DIMSTYLE
105
45
330
A
100
AcDbSymbolTableRecord
100
AcDbDimStyleTableRecord
2
Standard
70
0
40
1
41
0.5
42
0.025
43
0.38
44
0.05
45
0
46
0
47
0
48
0
140
0.5
141
0.09
142
0
143
25.4
144
1
145
0
146
1
147
0.025
148
0
71
0
72
0
73
0
74
1
75
0
76
0
77
0
78
0
79
0
170
0
171
2
172
0
173
0
174
0
175
0
176
0
177
0
178
0
179
0
271
4
272
4
273
2
274
2
275
0
276
0
277
2
278
46
279
0
280
0
281
0
282
0
283
1
284
0
285
0
286
0
288
0
289
3
340
Standard
341

371
-2
372
-2
0
ENDTAB
0
TABLE
2
BLOCK_RECORD
5
1
330
0
100
AcDbSymbolTable
70
2
0
BLOCK_RECORD
5
1F
330
1
100
AcDbSymbolTableRecord
100
AcDbBlockTableRecord
2
*Model_Space
70
0
280
1
281
0
0
BLOCK_RECORD
5
1E
330
1
100
AcDbSymbolTableRecord
100
AcDbBlockTableRecord
2
*Paper_Space
70
0
280
1
281
0
0
ENDTAB
0
ENDSEC
0
SECTION
2
BLOCKS
0
BLOCK
5
20
330
1F
100
AcDbEntity
8
0
100
AcDbBlockBegin
2
*Model_Space
70
0
10
0
20
0
30
0
3
*Model_Space
1

0
ENDBLK
5
21
330
1F
100
AcDbEntity
8
0
100
AcDbBlockEnd
0
BLOCK
5
1C
330
1B
100
AcDbEntity
8
0
100
AcDbBlockBegin
2
*Paper_Space
70
0
10
0
20
0
30
0
3
*Paper_Space
1

0
ENDBLK
5
1D
330
1F
100
AcDbEntity
8
0
100
AcDbBlockEnd
0
ENDSEC
0
SECTION
2
ENTITIES
0
SPLINE
5
46
100
AcDbEntity
8
0
6
ByLayer
62
7
370
-1
100
AcDbSpline
210
0
220
0
230
1
70
8
71
3
72
8
73
4
74
0
42
1e-07
43
1e-07
40
0
40
0
40
0
40
0
40
1
40
1
40
1
40
1
10
4.05951625
20
2.032715
30
0
10
4.05951625
20
2.05474125
30
0
10
4.02647625
20
2.05474125
30
0
10
4.02647625
20
2.032715
30
0
0
SPLINE
5
47
100
AcDbEntity
8
0
6
ByLayer
62
7
370
-1
100
AcDbSpline
210
0
220
0
230
1
70
8
71
3
72
8
73
4
74
0
42
1e-07
43
1e-07
40
0
40
0
40
0
40
0
40
1
40
1
40
1
40
1
10
4.02647625
20
2.032715
30
0
10
4.02647625
20
2.0107425
30
0
10
4.05951625
20
2.0107425
30
0
10
4.05951625
20
2.032715
30
0
0
SPLINE
5
48
100
AcDbEntity
8
0
6
ByLayer
62
7
370
-1
100
AcDbSpline
210
0
220
0
230
1
70
8
71
3
72
8
73
4
74
0
42
1e-07
43
1e-07
40
0
40
0
40
0
40
0
40
1
40
1
40
1
40
1
10
4.10948375
20
2.032715
30
0
10
4.10948375
20
2.05474125
30
0
10
4.0764975
20
2.05474125
30
0
10
4.0764975
20
2.032715
30
0
0
SPLINE
5
49
100
AcDbEntity
8
0
6
ByLayer
62
7
370
-1
100
AcDbSpline
210
0
220
0
230
1
70
8
71
3
72
8
73
4
74
0
42
1e-07
43
1e-07
40
0
40
0
40
0
40
0
40
1
40
1
40
1
40
1
10
4.0764975
20
2.032715
30
0
10
4.0764975
20
2.0107425
30
0
10
4.10948375
20
2.0107425
30
0
10
4.10948375
20
2.032715
30
0
0
SPLINE
5
4A
100
AcDbEntity
8
0
6
ByLayer
62
7
370
-1
100
AcDbSpline
210
0
220
0
230
1
70
8
71
3
72
8
73
4
74
0
42
1e-07
43
1e-07
40
0
40
0
40
0
40
0
40
1
40
1
40
1
40
1
10
4.159505
20
2.032715
30
0
10
4.159505
20
2.05474125
30
0
10
4.12651875
20
2.05474125
30
0
10
4.12651875
20
2.032715
30
0
0
SPLINE
5
4B
100
AcDbEntity
8
0
6
ByLayer
62
7
370
-1
100
AcDbSpline
210
0
220
0
230
1
70
8
71
3
72
8
73
4
74
0
42
1e-07
43
1e-07
40
0
40
0
40
0
40
0
40
1
40
1
40
1
40
1
10
4.12651875
20
2.032715
30
0
10
4.12651875
20
2.0107425
30
0
10
4.159505
20
2.0107425
30
0
10
4.159505
20
2.032715
30
0
0
SPLINE
5
4C
100
AcDbEntity
8
0
6
ByLayer
62
7
370
-1
100
AcDbSpline
210
0
220
0
230
1
70
8
71
3
72
8
73
4
74
0
42
1e-07
43
1e-07
40
0
40
0
40
0
40
0
40
1
40
1
40
1
40
1
10
1.59798125
20
2.18272625
30
0
10
1.59798125
20
2.22271
30
0
10
1.5379775
20
2.22271
30
0
10
1.5379775
20
2.18272625
30
0
0
SPLINE
5
4D
100
AcDbEntity
8
0
6
ByLayer
62
7
370
-1
100
AcDbSpline
210
0
220
0
230
1
70
8
71
3
72
8
73
4
74
0
42
1e-07
43
1e-07
40
0
40
0
40
0
40
0
40
1
40
1
40
1
40
1
10
1.5379775
20
2.18272625
30
0
10
1.5379775
20
2.14274125
30
0
10
1.59798125
20
2.14274125
30
0
10
1.59798125
20
2.18272625
30
0
0
SPLINE
5
4E
100
AcDbEntity
8
0
6
ByLayer
62
7
370
-1
100
AcDbSpline
210
0
220
0
230
1
70
8
71
3
72
8
73
4
74
0
42
1e-07
43
1e-07
40
0
40
0
40
0
40
0
40
1
40
1
40
1
40
1
10
1.698025
20
2.18272625
30
0
10
1.698025
20
2.22271
30
0
10
1.63802125
20
2.22271
30
0
10
1.63802125
20
2.18272625
30
0
0
SPLINE
5
4F
100
AcDbEntity
8
0
6
ByLayer
62
7
370
-1
100
AcDbSpline
210
0
220
0
230
1
70
8
71
3
72
8
73
4
74
0
42
1e-07
43
1e-07
40
0
40
0
40
0
40
0
40
1
40
1
40
1
40
1
10
1.63802125
20
2.18272625
30
0
10
1.63802125
20
2.14274125
30
0
10
1.698025
20
2.14274125
30
0
10
1.698025
20
2.18272625
30
0
0
SPLINE
5
50
100
AcDbEntity
8
0
6
ByLayer
62
7
370
-1
100
AcDbSpline
210
0
220
0
230
1
70
8
71
3
72
8
73
4
74
0
42
1e-07
43
1e-07
40
0
40
0
40
0
40
0
40
1
40
1
40
1
40
1
10
1.79801375
20
2.18272625
30
0
10
1.79801375
20
2.22271
30
0
10
1.73801
20
2.22271
30
0
10
1.73801
20
2.18272625
30
0
0
SPLINE
5
51
100
AcDbEntity
8
0
6
ByLayer
62
7
370
-1
100
AcDbSpline
210
0
220
0
230
1
70
8
71
3
72
8
73
4
74
0
42
1e-07
43
1e-07
40
0
40
0
40
0
40
0
40
1
40
1
40
1
40
1
10
1.73801
20
2.18272625
30
0
10
1.73801
20
2.14274125
30
0
10
1.79801375
20
2.14274125
30
0
10
1.79801375
20
2.18272625
30
0
0
SPLINE
5
52
100
AcDbEntity
8
0
6
ByLayer
62
7
370
-1
100
AcDbSpline
210
0
220
0
230
1
70
8
71
3
72
8
73
4
74
0
42
1e-07
43
1e-07
40
0
40
0
40
0
40
0
40
1
40
1
40
1
40
1
10
1.89800375
20
2.18272625
30
0
10
1.89800375
20
2.22271
30
0
10
1.83799875
20
2.22271
30
0
10
1.83799875
20
2.18272625
30
0
0
SPLINE
5
53
100
AcDbEntity
8
0
6
ByLayer
62
7
370
-1
100
AcDbSpline
210
0
220
0
230
1
70
8
71
3
72
8
73
4
74
0
42
1e-07
43
1e-07
40
0
40
0
40
0
40
0
40
1
40
1
40
1
40
1
10
1.83799875
20
2.18272625
30
0
10
1.83799875
20
2.14274125
30
0
10
1.89800375
20
2.14274125
30
0
10
1.89800375
20
2.18272625
30
0
0
SPLINE
5
54
100
AcDbEntity
8
0
6
ByLayer
62
7
370
-1
100
AcDbSpline
210
0
220
0
230
1
70
8
71
3
72
8
73
4
74
0
42
1e-07
43
1e-07
40
0
40
0
40
0
40
0
40
1
40
1
40
1
40
1
10
1.9979925
20
2.18272625
30
0
10
1.9979925
20
2.22271
30
0
10
1.93798875
20
2.22271
30
0
10
1.93798875
20
2.18272625
30
0
0
SPLINE
5
55
100
AcDbEntity
8
0
6
ByLayer
62
7
370
-1
100
AcDbSpline
210
0
220
0
230
1
70
8
71
3
72
8
73
4
74
0
42
1e-07
43
1e-07
40
0
40
0
40
0
40
0
40
1
40
1
40
1
40
1
10
1.93798875
20
2.18272625
30
0
10
1.93798875
20
2.14274125
30
0
10
1.9979925
20
2.14274125
30
0
10
1.9979925
20
2.18272625
30
0
0
LWPOLYLINE
5
56
100
AcDbEntity
8
0
6
ByLayer
62
7
370
-1
100
AcDbPolyline
90
5
70
0
43
0
10
1.43798875
20
2.15272375
10
1.4979925
20
2.15272375
10
1.4979925
20
2.2127275
10
1.43798875
20
2.2127275
10
1.43798875
20
2.15272375
0
SPLINE
5
57
100
AcDbEntity
8
0
6
ByLayer
62
7
370
-1
100
AcDbSpline
210
0
220
0
230
1
70
8
71
3
72
8
73
4
74
0
42
1e-07
43
1e-07
40
0
40
0
40
0
40
0
40
1
40
1
40
1
40
1
10
3.2479925
20
2.18272625
30
0
10
3.2479925
20
2.22271
30
0
10
3.18798875
20
2.22271
30
0
10
3.18798875
20
2.18272625
30
0
0
SPLINE
5
58
100
AcDbEntity
8
0
6
ByLayer
62
7
370
-1
100
AcDbSpline
210
0
220
0
230
1
70
8
71
3
72
8
73
4
74
0
42
1e-07
43
1e-07
40
0
40
0
40
0
40
0
40
1
40
1
40
1
40
1
10
3.18798875
20
2.18272625
30
0
10
3.18798875
20
2.14274125
30
0
10
3.2479925
20
2.14274125
30
0
10
3.2479925
20
2.18272625
30
0
0
SPLINE
5
59
100
AcDbEntity
8
0
6
ByLayer
62
7
370
-1
100
AcDbSpline
210
0
220
0
230
1
70
8
71
3
72
8
73
4
74
0
42
1e-07
43
1e-07
40
0
40
0
40
0
40
0
40
1
40
1
40
1
40
1
10
3.34798125
20
2.18272625
30
0
10
3.34798125
20
2.22271
30
0
10
3.2879775
20
2.22271
30
0
10
3.2879775
20
2.18272625
30
0
0
SPLINE
5
5A
100
AcDbEntity
8
0
6
ByLayer
62
7
370
-1
100
AcDbSpline
210
0
220
0
230
1
70
8
71
3
72
8
73
4
74
0
42
1e-07
43
1e-07
40
0
40
0
40
0
40
0
40
1
40
1
40
1
40
1
10
3.2879775
20
2.18272625
30
0
10
3.2879775
20
2.14274125
30
0
10
3.34798125
20
2.14274125
30
0
10
3.34798125
20
2.18272625
30
0
0
SPLINE
5
5B
100
AcDbEntity
8
0
6
ByLayer
62
7
370
-1
100
AcDbSpline
210
0
220
0
230
1
70
8
71
3
72
8
73
4
74
0
42
1e-07
43
1e-07
40
0
40
0
40
0
40
0
40
1
40
1
40
1
40
1
10
3.448025
20
2.18272625
30
0
10
3.448025
20
2.22271
30
0
10
3.38802125
20
2.22271
30
0
10
3.38802125
20
2.18272625
30
0
0
SPLINE
5
5C
100
AcDbEntity
8
0
6
ByLayer
62
7
370
-1
100
AcDbSpline
210
0
220
0
230
1
70
8
71
3
72
8
73
4
74
0
42
1e-07
43
1e-07
40
0
40
0
40
0
40
0
40
1
40
1
40
1
40
1
10
3.38802125
20
2.18272625
30
0
10
3.38802125
20
2.14274125
30
0
10
3.448025
20
2.14274125
30
0
10
3.448025
20
2.18272625
30
0
0
SPLINE
5
5D
100
AcDbEntity
8
0
6
ByLayer
62
7
370
-1
100
AcDbSpline
210
0
220
0
230
1
70
8
71
3
72
8
73
4
74
0
42
1e-07
43
1e-07
40
0
40
0
40
0
40
0
40
1
40
1
40
1
40
1
10
3.54801375
20
2.18272625
30
0
10
3.54801375
20
2.22271
30
0
10
3.48801
20
2.22271
30
0
10
3.48801
20
2.18272625
30
0
0
SPLINE
5
5E
100
AcDbEntity
8
0
6
ByLayer
62
7
370
-1
100
AcDbSpline
210
0
220
0
230
1
70
8
71
3
72
8
73
4
74
0
42
1e-07
43
1e-07
40
0
40
0
40
0
40
0
40
1
40
1
40
1
40
1
10
3.48801
20
2.18272625
30
0
10
3.48801
20
2.14274125
30
0
10
3.54801375
20
2.14274125
30
0
10
3.54801375
20
2.18272625
30
0
0
SPLINE
5
5F
100
AcDbEntity
8
0
6
ByLayer
62
7
370
-1
100
AcDbSpline
210
0
220
0
230
1
70
8
71
3
72
8
73
4
74
0
42
1e-07
43
1e-07
40
0
40
0
40
0
40
0
40
1
40
1
40
1
40
1
10
3.64800375
20
2.18272625
30
0
10
3.64800375
20
2.22271
30
0
10
3.58799875
20
2.22271
30
0
10
3.58799875
20
2.18272625
30
0
0
SPLINE
5
60
100
AcDbEntity
8
0
6
ByLayer
62
7
370
-1
100
AcDbSpline
210
0
220
0
230
1
70
8
71
3
72
8
73
4
74
0
42
1e-07
43
1e-07
40
0
40
0
40
0
40
0
40
1
40
1
40
1
40
1
10
3.58799875
20
2.18272625
30
0
10
3.58799875
20
2.14274125
30
0
10
3.64800375
20
2.14274125
30
0
10
3.64800375
20
2.18272625
30
0
0
LWPOLYLINE
5
61
100
AcDbEntity
8
0
6
ByLayer
62
7
370
-1
100
AcDbPolyline
90
5
70
0
43
0
10
3.08799875
20
2.15272375
10
3.14800375
20
2.15272375
10
3.14800375
20
2.2127275
10
3.08799875
20
2.2127275
10
3.08799875
20
2.15272375
0
SPLINE
5
62
100
AcDbEntity
8
0
6
ByLayer
62
7
370
-1
100
AcDbSpline
210
0
220
0
230
1
70
8
71
3
72
8
73
4
74
0
42
1e-07
43
1e-07
40
0
40
0
40
0
40
0
40
1
40
1
40
1
40
1
10
4.89800375
20
2.18272625
30
0
10
4.89800375
20
2.22271
30
0
10
4.83799875
20
2.22271
30
0
10
4.83799875
20
2.18272625
30
0
0
SPLINE
5
63
100
AcDbEntity
8
0
6
ByLayer
62
7
370
-1
100
AcDbSpline
210
0
220
0
230
1
70
8
71
3
72
8
73
4
74
0
42
1e-07
43
1e-07
40
0
40
0
40
0
40
0
40
1
40
1
40
1
40
1
10
4.83799875
20
2.18272625
30
0
10
4.83799875
20
2.14274125
30
0
10
4.89800375
20
2.14274125
30
0
10
4.89800375
20
2.18272625
30
0
0
SPLINE
5
64
100
AcDbEntity
8
0
6
ByLayer
62
7
370
-1
100
AcDbSpline
210
0
220
0
230
1
70
8
71
3
72
8
73
4
74
0
42
1e-07
43
1e-07
40
0
40
0
40
0
40
0
40
1
40
1
40
1
40
1
10
4.9979925
20
2.18272625
30
0
10
4.9979925
20
2.22271
30
0
10
4.93798875
20
2.22271
30
0
10
4.93798875
20
2.18272625
30
0
0
SPLINE
5
65
100
AcDbEntity
8
0
6
ByLayer
62
7
370
-1
100
AcDbSpline
210
0
220
0
230
1
70
8
71
3
72
8
73
4
74
0
42
1e-07
43
1e-07
40
0
40
0
40
0
40
0
40
1
40
1
40
1
40
1
10
4.93798875
20
2.18272625
30
0
10
4.93798875
20
2.14274125
30
0
10
4.9979925
20
2.14274125
30
0
10
4.9979925
20
2.18272625
30
0
0
SPLINE
5
66
100
AcDbEntity
8
0
6
ByLayer
62
7
370
-1
100
AcDbSpline
210
0
220
0
230
1
70
8
71
3
72
8
73
4
74
0
42
1e-07
43
1e-07
40
0
40
0
40
0
40
0
40
1
40
1
40
1
40
1
10
5.09798125
20
2.18272625
30
0
10
5.09798125
20
2.22271
30
0
10
5.0379775
20
2.22271
30
0
10
5.0379775
20
2.18272625
30
0
0
SPLINE
5
67
100
AcDbEntity
8
0
6
ByLayer
62
7
370
-1
100
AcDbSpline
210
0
220
0
230
1
70
8
71
3
72
8
73
4
74
0
42
1e-07
43
1e-07
40
0
40
0
40
0
40
0
40
1
40
1
40
1
40
1
10
5.0379775
20
2.18272625
30
0
10
5.0379775
20
2.14274125
30
0
10
5.09798125
20
2.14274125
30
0
10
5.09798125
20
2.18272625
30
0
0
SPLINE
5
68
100
AcDbEntity
8
0
6
ByLayer
62
7
370
-1
100
AcDbSpline
210
0
220
0
230
1
70
8
71
3
72
8
73
4
74
0
42
1e-07
43
1e-07
40
0
40
0
40
0
40
0
40
1
40
1
40
1
40
1
10
5.198025
20
2.18272625
30
0
10
5.198025
20
2.22271
30
0
10
5.13802125
20
2.22271
30
0
10
5.13802125
20
2.18272625
30
0
0
SPLINE
5
69
100
AcDbEntity
8
0
6
ByLayer
62
7
370
-1
100
AcDbSpline
210
0
220
0
230
1
70
8
71
3
72
8
73
4
74
0
42
1e-07
43
1e-07
40
0
40
0
40
0
40
0
40
1
40
1
40
1
40
1
10
5.13802125
20
2.18272625
30
0
10
5.13802125
20
2.14274125
30
0
10
5.198025
20
2.14274125
30
0
10
5.198025
20
2.18272625
30
0
0
SPLINE
5
6A
100
AcDbEntity
8
0
6
ByLayer
62
7
370
-1
100
AcDbSpline
210
0
220
0
230
1
70
8
71
3
72
8
73
4
74
0
42
1e-07
43
1e-07
40
0
40
0
40
0
40
0
40
1
40
1
40
1
40
1
10
5.29801375
20
2.18272625
30
0
10
5.29801375
20
2.22271
30
0
10
5.23801
20
2.22271
30
0
10
5.23801
20
2.18272625
30
0
0
SPLINE
5
6B
100
AcDbEntity
8
0
6
ByLayer
62
7
370
-1
100
AcDbSpline
210
0
220
0
230
1
70
8
71
3
72
8
73
4
74
0
42
1e-07
43
1e-07
40
0
40
0
40
0
40
0
40
1
40
1
40
1
40
1
10
5.23801
20
2.18272625
30
0
10
5.23801
20
2.14274125
30
0
10
5.29801375
20
2.14274125
30
0
10
5.29801375
20
2.18272625
30
0
0
SPLINE
5
6C
100
AcDbEntity
8
0
6
ByLayer
62
7
370
-1
100
AcDbSpline
210
0
220
0
230
1
70
8
71
3
72
8
73
4
74
0
42
1e-07
43
1e-07
40
0
40
0
40
0
40
0
40
1
40
1
40
1
40
1
10
1.4954975
20
1.98269375
30
0
10
1.4954975
20
2.01936875
30
0
10
1.44048375
20
2.01936875
30
0
10
1.44048375
20
1.98269375
30
0
0
SPLINE
5
6D
100
AcDbEntity
8
0
6
ByLayer
62
7
370
-1
100
AcDbSpline
210
0
220
0
230
1
70
8
71
3
72
8
73
4
74
0
42
1e-07
43
1e-07
40
0
40
0
40
0
40
0
40
1
40
1
40
1
40
1
10
1.44048375
20
1.98269375
30
0
10
1.44048375
20
1.9460725
30
0
10
1.4954975
20
1.9460725
30
0
10
1.4954975
20
1.98269375
30
0
0
SPLINE
5
6E
100
AcDbEntity
8
0
6
ByLayer
62
7
370
-1
100
AcDbSpline
210
0
220
0
230
1
70
8
71
3
72
8
73
4
74
0
42
1e-07
43
1e-07
40
0
40
0
40
0
40
0
40
1
40
1
40
1
40
1
10
1.59548625
20
1.98269375
30
0
10
1.59548625
20
2.01936875
30
0
10
1.5404725
20
2.01936875
30
0
10
1.5404725
20
1.98269375
30
0
0
SPLINE
5
6F
100
AcDbEntity
8
0
6
ByLayer
62
7
370
-1
100
AcDbSpline
210
0
220
0
230
1
70
8
71
3
72
8
73
4
74
0
42
1e-07
43
1e-07
40
0
40
0
40
0
40
0
40
1
40
1
40
1
40
1
10
1.5404725
20
1.98269375
30
0
10
1.5404725
20
1.9460725
30
0
10
1.59548625
20
1.9460725
30
0
10
1.59548625
20
1.98269375
30
0
0
SPLINE
5
70
100
AcDbEntity
8
0
6
ByLayer
62
7
370
-1
100
AcDbSpline
210
0
220
0
230
1
70
8
71
3
72
8
73
4
74
0
42
1e-07
43
1e-07
40
0
40
0
40
0
40
0
40
1
40
1
40
1
40
1
10
1.4954975
20
1.782715
30
0
10
1.4954975
20
1.81939
30
0
10
1.44048375
20
1.81939
30
0
10
1.44048375
20
1.782715
30
0
0
SPLINE
5
71
100
AcDbEntity
8
0
6
ByLayer
62
7
370
-1
100
AcDbSpline
210
0
220
0
230
1
70
8
71
3
72
8
73
4
74
0
42
1e-07
43
1e-07
40
0
40
0
40
0
40
0
40
1
40
1
40
1
40
1
10
1.44048375
20
1.782715
30
0
10
1.44048375
20
1.74604
30
0
10
1.4954975
20
1.74604
30
0
10
1.4954975
20
1.782715
30
0
0
SPLINE
5
72
100
AcDbEntity
8
0
6
ByLayer
62
7
370
-1
100
AcDbSpline
210
0
220
0
230
1
70
8
71
3
72
8
73
4
74
0
42
1e-07
43
1e-07
40
0
40
0
40
0
40
0
40
1
40
1
40
1
40
1
10
1.59548625
20
1.782715
30
0
10
1.59548625
20
1.81939
30
0
10
1.5404725
20
1.81939
30
0
10
1.5404725
20
1.782715
30
0
0
SPLINE
5
73
100
AcDbEntity
8
0
6
ByLayer
62
7
370
-1
100
AcDbSpline
210
0
220
0
230
1
70
8
71
3
72
8
73
4
74
0
42
1e-07
43
1e-07
40
0
40
0
40
0
40
0
40
1
40
1
40
1
40
1
10
1.5404725
20
1.782715
30
0
10
1.5404725
20
1.74604
30
0
10
1.59548625
20
1.74604
30
0
10
1.59548625
20
1.782715
30
0
0
SPLINE
5
74
100
AcDbEntity
8
0
6
ByLayer
62
7
370
-1
100
AcDbSpline
210
0
220
0
230
1
70
8
71
3
72
8
73
4
74
0
42
1e-07
43
1e-07
40
0
40
0
40
0
40
0
40
1
40
1
40
1
40
1
10
3.1455075
20
1.98269375
30
0
10
3.1455075
20
2.01936875
30
0
10
3.090495
20
2.01936875
30
0
10
3.090495
20
1.98269375
30
0
0
SPLINE
5
75
100
AcDbEntity
8
0
6
ByLayer
62
7
370
-1
100
AcDbSpline
210
0
220
0
230
1
70
8
71
3
72
8
73
4
74
0
42
1e-07
43
1e-07
40
0
40
0
40
0
40
0
40
1
40
1
40
1
40
1
10
3.090495
20
1.98269375
30
0
10
3.090495
20
1.9460725
30
0
10
3.1455075
20
1.9460725
30
0
10
3.1455075
20
1.98269375
30
0
0
SPLINE
5
76
100
AcDbEntity
8
0
6
ByLayer
62
7
370
-1
100
AcDbSpline
210
0
220
0
230
1
70
8
71
3
72
8
73
4
74
0
42
1e-07
43
1e-07
40
0
40
0
40
0
40
0
40
1
40
1
40
1
40
1
10
3.2454975
20
1.98269375
30
0
10
3.2454975
20
2.01936875
30
0
10
3.19048375
20
2.01936875
30
0
10
3.19048375
20
1.98269375
30
0
0
SPLINE
5
77
100
AcDbEntity
8
0
6
ByLayer
62
7
370
-1
100
AcDbSpline
210
0
220
0
230
1
70
8
71
3
72
8
73
4
74
0
42
1e-07
43
1e-07
40
0
40
0
40
0
40
0
40
1
40
1
40
1
40
1
10
3.19048375
20
1.98269375
30
0
10
3.19048375
20
1.9460725
30
0
10
3.2454975
20
1.9460725
30
0
10
3.2454975
20
1.98269375
30
0
0
SPLINE
5
78
100
AcDbEntity
8
0
6
ByLayer
62
7
370
-1
100
AcDbSpline
210
0
220
0
230
1
70
8
71
3
72
8
73
4
74
0
42
1e-07
43
1e-07
40
0
40
0
40
0
40
0
40
1
40
1
40
1
40
1
10
3.1455075
20
1.782715
30
0
10
3.1455075
20
1.81939
30
0
10
3.090495
20
1.81939
30
0
10
3.090495
20
1.782715
30
0
0
SPLINE
5
79
100
AcDbEntity
8
0
6
ByLayer
62
7
370
-1
100
AcDbSpline
210
0
220
0
230
1
70
8
71
3
72
8
73
4
74
0
42
1e-07
43
1e-07
40
0
40
0
40
0
40
0
40
1
40
1
40
1
40
1
10
3.090495
20
1.782715
30
0
10
3.090495
20
1.74604
30
0
10
3.1455075
20
1.74604
30
0
10
3.1455075
20
1.782715
30
0
0
SPLINE
5
7A
100
AcDbEntity
8
0
6
ByLayer
62
7
370
-1
100
AcDbSpline
210
0
220
0
230
1
70
8
71
3
72
8
73
4
74
0
42
1e-07
43
1e-07
40
0
40
0
40
0
40
0
40
1
40
1
40
1
40
1
10
3.2454975
20
1.782715
30
0
10
3.2454975
20
1.81939
30
0
10
3.19048375
20
1.81939
30
0
10
3.19048375
20
1.782715
30
0
0
SPLINE
5
7B
100
AcDbEntity
8
0
6
ByLayer
62
7
370
-1
100
AcDbSpline
210
0
220
0
230
1
70
8
71
3
72
8
73
4
74
0
42
1e-07
43
1e-07
40
0
40
0
40
0
40
0
40
1
40
1
40
1
40
1
10
3.19048375
20
1.782715
30
0
10
3.19048375
20
1.74604
30
0
10
3.2454975
20
1.74604
30
0
10
3.2454975
20
1.782715
30
0
0
SPLINE
5
7C
100
AcDbEntity
8
0
6
ByLayer
62
7
370
-1
100
AcDbSpline
210
0
220
0
230
1
70
8
71
3
72
8
73
4
74
0
42
1e-07
43
1e-07
40
0
40
0
40
0
40
0
40
1
40
1
40
1
40
1
10
4.070475
20
1.75770375
30
0
10
4.070475
20
1.79437875
30
0
10
4.01551625
20
1.79437875
30
0
10
4.01551625
20
1.75770375
30
0
0
SPLINE
5
7D
100
AcDbEntity
8
0
6
ByLayer
62
7
370
-1
100
AcDbSpline
210
0
220
0
230
1
70
8
71
3
72
8
73
4
74
0
42
1e-07
43
1e-07
40
0
40
0
40
0
40
0
40
1
40
1
40
1
40
1
10
4.01551625
20
1.75770375
30
0
10
4.01551625
20
1.72102875
30
0
10
4.070475
20
1.72102875
30
0
10
4.070475
20
1.75770375
30
0
0
SPLINE
5
7E
100
AcDbEntity
8
0
6
ByLayer
62
7
370
-1
100
AcDbSpline
210
0
220
0
230
1
70
8
71
3
72
8
73
4
74
0
42
1e-07
43
1e-07
40
0
40
0
40
0
40
0
40
1
40
1
40
1
40
1
10
4.17051875
20
1.75770375
30
0
10
4.17051875
20
1.79437875
30
0
10
4.11550625
20
1.79437875
30
0
10
4.11550625
20
1.75770375
30
0
0
SPLINE
5
7F
100
AcDbEntity
8
0
6
ByLayer
62
7
370
-1
100
AcDbSpline
210
0
220
0
230
1
70
8
71
3
72
8
73
4
74
0
42
1e-07
43
1e-07
40
0
40
0
40
0
40
0
40
1
40
1
40
1
40
1
10
4.11550625
20
1.75770375
30
0
10
4.11550625
20
1.72102875
30
0
10
4.17051875
20
1.72102875
30
0
10
4.17051875
20
1.75770375
30
0
0
SPLINE
5
80
100
AcDbEntity
8
0
6
ByLayer
62
7
370
-1
100
AcDbSpline
210
0
220
0
230
1
70
8
71
3
72
8
73
4
74
0
42
1e-07
43
1e-07
40
0
40
0
40
0
40
0
40
1
40
1
40
1
40
1
10
4.79551875
20
1.98269375
30
0
10
4.79551875
20
2.01936875
30
0
10
4.74050625
20
2.01936875
30
0
10
4.74050625
20
1.98269375
30
0
0
SPLINE
5
81
100
AcDbEntity
8
0
6
ByLayer
62
7
370
-1
100
AcDbSpline
210
0
220
0
230
1
70
8
71
3
72
8
73
4
74
0
42
1e-07
43
1e-07
40
0
40
0
40
0
40
0
40
1
40
1
40
1
40
1
10
4.74050625
20
1.98269375
30
0
10
4.74050625
20
1.9460725
30
0
10
4.79551875
20
1.9460725
30
0
10
4.79551875
20
1.98269375
30
0
0
SPLINE
5
82
100
AcDbEntity
8
0
6
ByLayer
62
7
370
-1
100
AcDbSpline
210
0
220
0
230
1
70
8
71
3
72
8
73
4
74
0
42
1e-07
43
1e-07
40
0
40
0
40
0
40
0
40
1
40
1
40
1
40
1
10
4.8955075
20
1.98269375
30
0
10
4.8955075
20
2.01936875
30
0
10
4.840495
20
2.01936875
30
0
10
4.840495
20
1.98269375
30
0
0
SPLINE
5
83
100
AcDbEntity
8
0
6
ByLayer
62
7
370
-1
100
AcDbSpline
210
0
220
0
230
1
70
8
71
3
72
8
73
4
74
0
42
1e-07
43
1e-07
40
0
40
0
40
0
40
0
40
1
40
1
40
1
40
1
10
4.840495
20
1.98269375
30
0
10
4.840495
20
1.9460725
30
0
10
4.8955075
20
1.9460725
30
0
10
4.8955075
20
1.98269375
30
0
0
SPLINE
5
84
100
AcDbEntity
8
0
6
ByLayer
62
7
370
-1
100
AcDbSpline
210
0
220
0
230
1
70
8
71
3
72
8
73
4
74
0
42
1e-07
43
1e-07
40
0
40
0
40
0
40
0
40
1
40
1
40
1
40
1
10
4.79551875
20
1.782715
30
0
10
4.79551875
20
1.81939
30
0
10
4.74050625
20
1.81939
30
0
10
4.74050625
20
1.782715
30
0
0
SPLINE
5
85
100
AcDbEntity
8
0
6
ByLayer
62
7
370
-1
100
AcDbSpline
210
0
220
0
230
1
70
8
71
3
72
8
73
4
74
0
42
1e-07
43
1e-07
40
0
40
0
40
0
40
0
40
1
40
1
40
1
40
1
10
4.74050625
20
1.782715
30
0
10
4.74050625
20
1.74604
30
0
10
4.79551875
20
1.74604
30
0
10
4.79551875
20
1.782715
30
0
0
SPLINE
5
86
100
AcDbEntity
8
0
6
ByLayer
62
7
370
-1
100
AcDbSpline
210
0
220
0
230
1
70
8
71
3
72
8
73
4
74
0
42
1e-07
43
1e-07
40
0
40
0
40
0
40
0
40
1
40
1
40
1
40
1
10
4.8955075
20
1.782715
30
0
10
4.8955075
20
1.81939
30
0
10
4.840495
20
1.81939
30
0
10
4.840495
20
1.782715
30
0
0
SPLINE
5
87
100
AcDbEntity
8
0
6
ByLayer
62
7
370
-1
100
AcDbSpline
210
0
220
0
230
1
70
8
71
3
72
8
73
4
74
0
42
1e-07
43
1e-07
40
0
40
0
40
0
40
0
40
1
40
1
40
1
40
1
10
4.840495
20
1.782715
30
0
10
4.840495
20
1.74604
30
0
10
4.8955075
20
1.74604
30
0
10
4.8955075
20
1.782715
30
0
0
SPLINE
5
88
100
AcDbEntity
8
0
6
ByLayer
62
7
370
-1
100
AcDbSpline
210
0
220
0
230
1
70
8
71
3
72
8
73
4
74
0
42
1e-07
43
1e-07
40
0
40
0
40
0
40
0
40
1
40
1
40
1
40
1
10
0.53190125
20
2.14019125
30
0
10
0.53190125
20
2.17301375
30
0
10
0.48269375
20
2.17301375
30
0
10
0.48269375
20
2.14019125
30
0
0
SPLINE
5
89
100
AcDbEntity
8
0
6
ByLayer
62
7
370
-1
100
AcDbSpline
210
0
220
0
230
1
70
8
71
3
72
8
73
4
74
0
42
1e-07
43
1e-07
40
0
40
0
40
0
40
0
40
1
40
1
40
1
40
1
10
0.48269375
20
2.14019125
30
0
10
0.48269375
20
2.1074225
30
0
10
0.53190125
20
2.1074225
30
0
10
0.53190125
20
2.14019125
30
0
0
SPLINE
5
8A
100
AcDbEntity
8
0
6
ByLayer
62
7
370
-1
100
AcDbSpline
210
0
220
0
230
1
70
8
71
3
72
8
73
4
74
0
42
1e-07
43
1e-07
40
0
40
0
40
0
40
0
40
1
40
1
40
1
40
1
10
0.45317875
20
2.14019125
30
0
10
0.45317875
20
2.17301375
30
0
10
0.40397125
20
2.17301375
30
0
10
0.40397125
20
2.14019125
30
0
0
SPLINE
5
8B
100
AcDbEntity
8
0
6
ByLayer
62
7
370
-1
100
AcDbSpline
210
0
220
0
230
1
70
8
71
3
72
8
73
4
74
0
42
1e-07
43
1e-07
40
0
40
0
40
0
40
0
40
1
40
1
40
1
40
1
10
0.40397125
20
2.14019125
30
0
10
0.40397125
20
2.1074225
30
0
10
0.45317875
20
2.1074225
30
0
10
0.45317875
20
2.14019125
30
0
0
SPLINE
5
8C
100
AcDbEntity
8
0
6
ByLayer
62
7
370
-1
100
AcDbSpline
210
0
220
0
230
1
70
8
71
3
72
8
73
4
74
0
42
1e-07
43
1e-07
40
0
40
0
40
0
40
0
40
1
40
1
40
1
40
1
10
0.53190125
20
2.06152375
30
0
10
0.53190125
20
2.09434625
30
0
10
0.48269375
20
2.09434625
30
0
10
0.48269375
20
2.06152375
30
0
0
SPLINE
5
8D
100
AcDbEntity
8
0
6
ByLayer
62
7
370
-1
100
AcDbSpline
210
0
220
0
230
1
70
8
71
3
72
8
73
4
74
0
42
1e-07
43
1e-07
40
0
40
0
40
0
40
0
40
1
40
1
40
1
40
1
10
0.48269375
20
2.06152375
30
0
10
0.48269375
20
2.0287
30
0
10
0.53190125
20
2.0287
30
0
10
0.53190125
20
2.06152375
30
0
0
SPLINE
5
8E
100
AcDbEntity
8
0
6
ByLayer
62
7
370
-1
100
AcDbSpline
210
0
220
0
230
1
70
8
71
3
72
8
73
4
74
0
42
1e-07
43
1e-07
40
0
40
0
40
0
40
0
40
1
40
1
40
1
40
1
10
0.45317875
20
2.06152375
30
0
10
0.45317875
20
2.09434625
30
0
10
0.40397125
20
2.09434625
30
0
10
0.40397125
20
2.06152375
30
0
0
SPLINE
5
8F
100
AcDbEntity
8
0
6
ByLayer
62
7
370
-1
100
AcDbSpline
210
0
220
0
230
1
70
8
71
3
72
8
73
4
74
0
42
1e-07
43
1e-07
40
0
40
0
40
0
40
0
40
1
40
1
40
1
40
1
10
0.40397125
20
2.06152375
30
0
10
0.40397125
20
2.0287
30
0
10
0.45317875
20
2.0287
30
0
10
0.45317875
20
2.06152375
30
0
0
SPLINE
5
90
100
AcDbEntity
8
0
6
ByLayer
62
7
370
-1
100
AcDbSpline
210
0
220
0
230
1
70
8
71
3
72
8
73
4
74
0
42
1e-07
43
1e-07
40
0
40
0
40
0
40
0
40
1
40
1
40
1
40
1
10
0.53190125
20
1.98269375
30
0
10
0.53190125
20
2.01551625
30
0
10
0.48269375
20
2.01551625
30
0
10
0.48269375
20
1.98269375
30
0
0
SPLINE
5
91
100
AcDbEntity
8
0
6
ByLayer
62
7
370
-1
100
AcDbSpline
210
0
220
0
230
1
70
8
71
3
72
8
73
4
74
0
42
1e-07
43
1e-07
40
0
40
0
40
0
40
0
40
1
40
1
40
1
40
1
10
0.48269375
20
1.98269375
30
0
10
0.48269375
20
1.94992375
30
0
10
0.53190125
20
1.94992375
30
0
10
0.53190125
20
1.98269375
30
0
0
SPLINE
5
92
100
AcDbEntity
8
0
6
ByLayer
62
7
370
-1
100
AcDbSpline
210
0
220
0
230
1
70
8
71
3
72
8
73
4
74
0
42
1e-07
43
1e-07
40
0
40
0
40
0
40
0
40
1
40
1
40
1
40
1
10
0.45317875
20
1.98269375
30
0
10
0.45317875
20
2.01551625
30
0
10
0.40397125
20
2.01551625
30
0
10
0.40397125
20
1.98269375
30
0
0
SPLINE
5
93
100
AcDbEntity
8
0
6
ByLayer
62
7
370
-1
100
AcDbSpline
210
0
220
0
230
1
70
8
71
3
72
8
73
4
74
0
42
1e-07
43
1e-07
40
0
40
0
40
0
40
0
40
1
40
1
40
1
40
1
10
0.40397125
20
1.98269375
30
0
10
0.40397125
20
1.94992375
30
0
10
0.45317875
20
1.94992375
30
0
10
0.45317875
20
1.98269375
30
0
0
SPLINE
5
94
100
AcDbEntity
8
0
6
ByLayer
62
7
370
-1
100
AcDbSpline
210
0
220
0
230
1
70
8
71
3
72
8
73
4
74
0
42
1e-07
43
1e-07
40
0
40
0
40
0
40
0
40
1
40
1
40
1
40
1
10
0.53190125
20
1.904025
30
0
10
0.53190125
20
1.93684875
30
0
10
0.48269375
20
1.93684875
30
0
10
0.48269375
20
1.904025
30
0
0
SPLINE
5
95
100
AcDbEntity
8
0
6
ByLayer
62
7
370
-1
100
AcDbSpline
210
0
220
0
230
1
70
8
71
3
72
8
73
4
74
0
42
1e-07
43
1e-07
40
0
40
0
40
0
40
0
40
1
40
1
40
1
40
1
10
0.48269375
20
1.904025
30
0
10
0.48269375
20
1.8712025
30
0
10
0.53190125
20
1.8712025
30
0
10
0.53190125
20
1.904025
30
0
0
SPLINE
5
96
100
AcDbEntity
8
0
6
ByLayer
62
7
370
-1
100
AcDbSpline
210
0
220
0
230
1
70
8
71
3
72
8
73
4
74
0
42
1e-07
43
1e-07
40
0
40
0
40
0
40
0
40
1
40
1
40
1
40
1
10
0.45317875
20
1.904025
30
0
10
0.45317875
20
1.93684875
30
0
10
0.40397125
20
1.93684875
30
0
10
0.40397125
20
1.904025
30
0
0
SPLINE
5
97
100
AcDbEntity
8
0
6
ByLayer
62
7
370
-1
100
AcDbSpline
210
0
220
0
230
1
70
8
71
3
72
8
73
4
74
0
42
1e-07
43
1e-07
40
0
40
0
40
0
40
0
40
1
40
1
40
1
40
1
10
0.40397125
20
1.904025
30
0
10
0.40397125
20
1.8712025
30
0
10
0.45317875
20
1.8712025
30
0
10
0.45317875
20
1.904025
30
0
0
SPLINE
5
98
100
AcDbEntity
8
0
6
ByLayer
62
7
370
-1
100
AcDbSpline
210
0
220
0
230
1
70
8
71
3
72
8
73
4
74
0
42
1e-07
43
1e-07
40
0
40
0
40
0
40
0
40
1
40
1
40
1
40
1
10
0.53190125
20
1.82530375
30
0
10
0.53190125
20
1.8581275
30
0
10
0.48269375
20
1.8581275
30
0
10
0.48269375
20
1.82530375
30
0
0
SPLINE
5
99
100
AcDbEntity
8
0
6
ByLayer
62
7
370
-1
100
AcDbSpline
210
0
220
0
230
1
70
8
71
3
72
8
73
4
74
0
42
1e-07
43
1e-07
40
0
40
0
40
0
40
0
40
1
40
1
40
1
40
1
10
0.48269375
20
1.82530375
30
0
10
0.48269375
20
1.792535
30
0
10
0.53190125
20
1.792535
30
0
10
0.53190125
20
1.82530375
30
0
0
SPLINE
5
9A
100
AcDbEntity
8
0
6
ByLayer
62
7
370
-1
100
AcDbSpline
210
0
220
0
230
1
70
8
71
3
72
8
73
4
74
0
42
1e-07
43
1e-07
40
0
40
0
40
0
40
0
40
1
40
1
40
1
40
1
10
0.45317875
20
1.82530375
30
0
10
0.45317875
20
1.8581275
30
0
10
0.40397125
20
1.8581275
30
0
10
0.40397125
20
1.82530375
30
0
0
SPLINE
5
9B
100
AcDbEntity
8
0
6
ByLayer
62
7
370
-1
100
AcDbSpline
210
0
220
0
230
1
70
8
71
3
72
8
73
4
74
0
42
1e-07
43
1e-07
40
0
40
0
40
0
40
0
40
1
40
1
40
1
40
1
10
0.40397125
20
1.82530375
30
0
10
0.40397125
20
1.792535
30
0
10
0.45317875
20
1.792535
30
0
10
0.45317875
20
1.82530375
30
0
0
SPLINE
5
9C
100
AcDbEntity
8
0
6
ByLayer
62
7
370
-1
100
AcDbSpline
210
0
220
0
230
1
70
8
71
3
72
8
73
4
74
0
42
1e-07
43
1e-07
40
0
40
0
40
0
40
0
40
1
40
1
40
1
40
1
10
5.99300125
20
2.23269375
30
0
10
5.99300125
20
2.33273625
30
0
10
5.84299
20
2.33273625
30
0
10
5.84299
20
2.23269375
30
0
0
SPLINE
5
9D
100
AcDbEntity
8
0
6
ByLayer
62
7
370
-1
100
AcDbSpline
210
0
220
0
230
1
70
8
71
3
72
8
73
4
74
0
42
1e-07
43
1e-07
40
0
40
0
40
0
40
0
40
1
40
1
40
1
40
1
10
5.84299
20
2.23269375
30
0
10
5.84299
20
2.13270375
30
0
10
5.99300125
20
2.13270375
30
0
10
5.99300125
20
2.23269375
30
0
0
SPLINE
5
9E
100
AcDbEntity
8
0
6
ByLayer
62
7
370
-1
100
AcDbSpline
210
0
220
0
230
1
70
8
71
3
72
8
73
4
74
0
42
1e-07
43
1e-07
40
0
40
0
40
0
40
0
40
1
40
1
40
1
40
1
10
5.99300125
20
1.73269375
30
0
10
5.99300125
20
1.83273625
30
0
10
5.84299
20
1.83273625
30
0
10
5.84299
20
1.73269375
30
0
0
SPLINE
5
9F
100
AcDbEntity
8
0
6
ByLayer
62
7
370
-1
100
AcDbSpline
210
0
220
0
230
1
70
8
71
3
72
8
73
4
74
0
42
1e-07
43
1e-07
40
0
40
0
40
0
40
0
40
1
40
1
40
1
40
1
10
5.84299
20
1.73269375
30
0
10
5.84299
20
1.63270375
30
0
10
5.99300125
20
1.63270375
30
0
10
5.99300125
20
1.73269375
30
0
0
SPLINE
5
A0
100
AcDbEntity
8
0
6
ByLayer
62
7
370
-1
100
AcDbSpline
210
0
220
0
230
1
70
8
71
3
72
8
73
4
74
0
42
1e-07
43
1e-07
40
0
40
0
40
0
40
0
40
1
40
1
40
1
40
1
10
0.8930125
20
2.23269375
30
0
10
0.8930125
20
2.33273625
30
0
10
0.74300125
20
2.33273625
30
0
10
0.74300125
20
2.23269375
30
0
0
SPLINE
5
A1
100
AcDbEntity
8
0
6
ByLayer
62
7
370
-1
100
AcDbSpline
210
0
220
0
230
1
70
8
71
3
72
8
73
4
74
0
42
1e-07
43
1e-07
40
0
40
0
40
0
40
0
40
1
40
1
40
1
40
1
10
0.74300125
20
2.23269375
30
0
10
0.74300125
20
2.13270375
30
0
10
0.8930125
20
2.13270375
30
0
10
0.8930125
20
2.23269375
30
0
0
SPLINE
5
A2
100
AcDbEntity
8
0
6
ByLayer
62
7
370
-1
100
AcDbSpline
210
0
220
0
230
1
70
8
71
3
72
8
73
4
74
0
42
1e-07
43
1e-07
40
0
40
0
40
0
40
0
40
1
40
1
40
1
40
1
10
0.8930125
20
1.73269375
30
0
10
0.8930125
20
1.83273625
30
0
10
0.74300125
20
1.83273625
30
0
10
0.74300125
20
1.73269375
30
0
0
SPLINE
5
A3
100
AcDbEntity
8
0
6
ByLayer
62
7
370
-1
100
AcDbSpline
210
0
220
0
230
1
70
8
71
3
72
8
73
4
74
0
42
1e-07
43
1e-07
40
0
40
0
40
0
40
0
40
1
40
1
40
1
40
1
10
0.74300125
20
1.73269375
30
0
10
0.74300125
20
1.63270375
30
0
10
0.8930125
20
1.63270375
30
0
10
0.8930125
20
1.73269375
30
0
0
LWPOLYLINE
5
A4
100
AcDbEntity
8
0
6
ByLayer
62
7
370
-1
100
AcDbPolyline
90
5
70
0
43
0
10
4.73801
20
2.15272375
10
4.79801375
20
2.15272375
10
4.79801375
20
2.2127275
10
4.73801
20
2.2127275
10
4.73801
20
2.15272375
0
LWPOLYLINE
5
A5
100
AcDbEntity
8
0
6
ByLayer
62
2
370
-1
100
AcDbPolyline
90
2
70
0
43
0
10
0.9257275
20
1.904025
10
0.50732375
20
1.904025
0
LWPOLYLINE
5
A6
100
AcDbEntity
8
0
6
ByLayer
62
2
370
-1
100
AcDbPolyline
90
2
70
0
43
0
10
1.27728875
20
2.2556425
10
0.9257275
20
1.904025
0
LWPOLYLINE
5
A7
100
AcDbEntity
8
0
6
ByLayer
62
2
370
-1
100
AcDbPolyline
90
2
70
0
43
0
10
1.795085
20
2.2556425
10
1.27728875
20
2.2556425
0
LWPOLYLINE
5
A8
100
AcDbEntity
8
0
6
ByLayer
62
2
370
-1
100
AcDbPolyline
90
2
70
0
43
0
10
1.86800125
20
2.18272625
10
1.795085
20
2.2556425
0
LWPOLYLINE
5
A9
100
AcDbEntity
8
0
6
ByLayer
62
2
370
-1
100
AcDbPolyline
90
2
70
0
43
0
10
4.7680125
20
1.98269375
10
4.7680125
20
2.18272625
0
LWPOLYLINE
5
AA
100
AcDbEntity
8
0
6
ByLayer
62
2
370
-1
100
AcDbPolyline
90
2
70
0
43
0
10
3.11800125
20
1.98269375
10
3.11800125
20
2.18272625
0
LWPOLYLINE
5
AB
100
AcDbEntity
8
0
6
ByLayer
62
2
370
-1
100
AcDbPolyline
90
2
70
0
43
0
10
4.0430225
20
2.032715
10
4.0430225
20
1.75770375
0
LWPOLYLINE
5
AC
100
AcDbEntity
8
0
6
ByLayer
62
2
370
-1
100
AcDbPolyline
90
3
70
0
43
0
10
1.46799
20
1.782715
10
1.46799
20
1.98269375
10
1.46799
20
2.18272625
0
LWPOLYLINE
5
AD
100
AcDbEntity
8
0
6
ByLayer
62
2
370
-1
100
AcDbPolyline
90
2
70
0
43
0
10
3.0729175
20
1.73773875
10
3.11800125
20
1.782715
0
LWPOLYLINE
5
AE
100
AcDbEntity
8
0
6
ByLayer
62
2
370
-1
100
AcDbPolyline
90
2
70
0
43
0
10
1.51302125
20
1.73773875
10
3.0729175
20
1.73773875
0
LWPOLYLINE
5
AF
100
AcDbEntity
8
0
6
ByLayer
62
2
370
-1
100
AcDbPolyline
90
2
70
0
43
0
10
1.46799
20
1.782715
10
1.51302125
20
1.73773875
0
LWPOLYLINE
5
B0
100
AcDbEntity
8
0
6
ByLayer
62
2
370
-1
100
AcDbPolyline
90
2
70
0
43
0
10
3.11800125
20
1.782715
10
3.11800125
20
1.98269375
0
LWPOLYLINE
5
B1
100
AcDbEntity
8
0
6
ByLayer
62
2
370
-1
100
AcDbPolyline
90
2
70
0
43
0
10
1.6201175
20
2.23063125
10
1.6680225
20
2.18272625
0
LWPOLYLINE
5
B2
100
AcDbEntity
8
0
6
ByLayer
62
2
370
-1
100
AcDbPolyline
90
2
70
0
43
0
10
1.39198125
20
2.23063125
10
1.6201175
20
2.23063125
0
LWPOLYLINE
5
B3
100
AcDbEntity
8
0
6
ByLayer
62
2
370
-1
100
AcDbPolyline
90
2
70
0
43
0
10
1.02880875
20
1.86740375
10
1.39198125
20
2.23063125
0
LWPOLYLINE
5
B4
100
AcDbEntity
8
0
6
ByLayer
62
2
370
-1
100
AcDbPolyline
90
2
70
0
43
0
10
0.7970925
20
1.86740375
10
1.02880875
20
1.86740375
0
LWPOLYLINE
5
B5
100
AcDbEntity
8
0
6
ByLayer
62
2
370
-1
100
AcDbPolyline
90
2
70
0
43
0
10
0.7120225
20
1.78222625
10
0.7970925
20
1.86740375
0
LWPOLYLINE
5
B6
100
AcDbEntity
8
0
6
ByLayer
62
2
370
-1
100
AcDbPolyline
90
2
70
0
43
0
10
0.40961375
20
1.78222625
10
0.7120225
20
1.78222625
0
LWPOLYLINE
5
B7
100
AcDbEntity
8
0
6
ByLayer
62
2
370
-1
100
AcDbPolyline
90
2
70
0
43
0
10
0.38368125
20
1.808105
10
0.40961375
20
1.78222625
0
LWPOLYLINE
5
B8
100
AcDbEntity
8
0
6
ByLayer
62
2
370
-1
100
AcDbPolyline
90
2
70
0
43
0
10
0.38368125
20
1.85910375
10
0.38368125
20
1.808105
0
LWPOLYLINE
5
B9
100
AcDbEntity
8
0
6
ByLayer
62
2
370
-1
100
AcDbPolyline
90
2
70
0
43
0
10
0.4286025
20
1.904025
10
0.38368125
20
1.85910375
0
LWPOLYLINE
5
BA
100
AcDbEntity
8
0
6
ByLayer
62
2
370
-1
100
AcDbPolyline
90
2
70
0
43
0
10
3.3930125
20
2.2578125
10
3.31798
20
2.18272625
0
LWPOLYLINE
5
BB
100
AcDbEntity
8
0
6
ByLayer
62
2
370
-1
100
AcDbPolyline
90
2
70
0
43
0
10
3.6131175
20
2.2578125
10
3.3930125
20
2.2578125
0
LWPOLYLINE
5
BC
100
AcDbEntity
8
0
6
ByLayer
62
2
370
-1
100
AcDbPolyline
90
2
70
0
43
0
10
3.66650375
20
2.20431875
10
3.6131175
20
2.2578125
0
LWPOLYLINE
5
BD
100
AcDbEntity
8
0
6
ByLayer
62
2
370
-1
100
AcDbPolyline
90
2
70
0
43
0
10
3.66650375
20
2.16270625
10
3.66650375
20
2.20431875
0
LWPOLYLINE
5
BE
100
AcDbEntity
8
0
6
ByLayer
62
2
370
-1
100
AcDbPolyline
90
2
70
0
43
0
10
3.14398875
20
1.6401375
10
3.66650375
20
2.16270625
0
LWPOLYLINE
5
BF
100
AcDbEntity
8
0
6
ByLayer
62
2
370
-1
100
AcDbPolyline
90
2
70
0
43
0
10
0.51627625
20
1.6401375
10
3.14398875
20
1.6401375
0
LWPOLYLINE
5
C0
100
AcDbEntity
8
0
6
ByLayer
62
2
370
-1
100
AcDbPolyline
90
2
70
0
43
0
10
0.35872375
20
1.7977975
10
0.51627625
20
1.6401375
0
LWPOLYLINE
5
C1
100
AcDbEntity
8
0
6
ByLayer
62
2
370
-1
100
AcDbPolyline
90
2
70
0
43
0
10
0.35872375
20
1.91292375
10
0.35872375
20
1.7977975
0
LWPOLYLINE
5
C2
100
AcDbEntity
8
0
6
ByLayer
62
2
370
-1
100
AcDbPolyline
90
2
70
0
43
0
10
0.4286025
20
1.98269375
10
0.35872375
20
1.91292375
0
LWPOLYLINE
5
C3
100
AcDbEntity
8
0
6
ByLayer
62
2
370
-1
100
AcDbPolyline
90
2
70
0
43
0
10
4.82411
20
2.32660625
10
4.96799
20
2.18272625
0
LWPOLYLINE
5
C4
100
AcDbEntity
8
0
6
ByLayer
62
2
370
-1
100
AcDbPolyline
90
2
70
0
43
0
10
0.5550125
20
2.32660625
10
4.82411
20
2.32660625
0
LWPOLYLINE
5
C5
100
AcDbEntity
8
0
6
ByLayer
62
2
370
-1
100
AcDbPolyline
90
2
70
0
43
0
10
0.38557875
20
2.15722625
10
0.5550125
20
2.32660625
0
LWPOLYLINE
5
C6
100
AcDbEntity
8
0
6
ByLayer
62
2
370
-1
100
AcDbPolyline
90
2
70
0
43
0
10
0.38557875
20
2.1044925
10
0.38557875
20
2.15722625
0
LWPOLYLINE
5
C7
100
AcDbEntity
8
0
6
ByLayer
62
2
370
-1
100
AcDbPolyline
90
2
70
0
43
0
10
0.4286025
20
2.06152375
10
0.38557875
20
2.1044925
0
LWPOLYLINE
5
C8
100
AcDbEntity
8
0
6
ByLayer
62
2
370
-1
100
AcDbPolyline
90
2
70
0
43
0
10
3.21799
20
1.98269375
10
3.21799
20
1.782715
0
LWPOLYLINE
5
C9
100
AcDbEntity
8
0
6
ByLayer
62
2
370
-1
100
AcDbPolyline
90
2
70
0
43
0
10
3.465495
20
2.23030625
10
3.4180225
20
2.18272625
0
LWPOLYLINE
5
CA
100
AcDbEntity
8
0
6
ByLayer
62
2
370
-1
100
AcDbPolyline
90
2
70
0
43
0
10
3.57042125
20
2.23030625
10
3.465495
20
2.23030625
0
LWPOLYLINE
5
CB
100
AcDbEntity
8
0
6
ByLayer
62
2
370
-1
100
AcDbPolyline
90
2
70
0
43
0
10
3.61800125
20
2.18272625
10
3.57042125
20
2.23030625
0
LWPOLYLINE
5
CC
100
AcDbEntity
8
0
6
ByLayer
62
2
370
-1
100
AcDbPolyline
90
2
70
0
43
0
10
2.01551625
20
2.23030625
10
1.96799
20
2.18272625
0
LWPOLYLINE
5
CD
100
AcDbEntity
8
0
6
ByLayer
62
2
370
-1
100
AcDbPolyline
90
2
70
0
43
0
10
3.17041
20
2.23030625
10
2.01551625
20
2.23030625
0
LWPOLYLINE
5
CE
100
AcDbEntity
8
0
6
ByLayer
62
2
370
-1
100
AcDbPolyline
90
2
70
0
43
0
10
3.21799
20
2.18272625
10
3.17041
20
2.23030625
0
LWPOLYLINE
5
CF
100
AcDbEntity
8
0
6
ByLayer
62
2
370
-1
100
AcDbPolyline
90
2
70
0
43
0
10
3.368815
20
2.13362625
10
3.4180225
20
2.18272625
0
LWPOLYLINE
5
D0
100
AcDbEntity
8
0
6
ByLayer
62
2
370
-1
100
AcDbPolyline
90
2
70
0
43
0
10
3.21799
20
2.13362625
10
3.368815
20
2.13362625
0
LWPOLYLINE
5
D1
100
AcDbEntity
8
0
6
ByLayer
62
2
370
-1
100
AcDbPolyline
90
3
70
0
43
0
10
3.21799
20
2.18272625
10
3.21799
20
2.13362625
10
3.21799
20
1.98269375
0
LWPOLYLINE
5
D2
100
AcDbEntity
8
0
6
ByLayer
62
2
370
-1
100
AcDbPolyline
90
2
70
0
43
0
10
1.56798
20
1.98269375
10
1.56798
20
1.782715
0
LWPOLYLINE
5
D3
100
AcDbEntity
8
0
6
ByLayer
62
2
370
-1
100
AcDbPolyline
90
3
70
0
43
0
10
1.56798
20
1.98269375
10
1.56798
20
2.13449375
10
1.56798
20
2.18272625
0
LWPOLYLINE
5
D4
100
AcDbEntity
8
0
6
ByLayer
62
2
370
-1
100
AcDbPolyline
90
3
70
0
43
0
10
4.1430125
20
2.032715
10
4.1430125
20
1.84570375
10
4.1430125
20
1.75770375
0
LWPOLYLINE
5
D5
100
AcDbEntity
8
0
6
ByLayer
62
2
370
-1
100
AcDbPolyline
90
2
70
0
43
0
10
4.86800125
20
1.84570375
10
4.1430125
20
1.84570375
0
LWPOLYLINE
5
D6
100
AcDbEntity
8
0
6
ByLayer
62
2
370
-1
100
AcDbPolyline
90
2
70
0
43
0
10
4.86800125
20
1.782715
10
4.86800125
20
1.84570375
0
LWPOLYLINE
5
D7
100
AcDbEntity
8
0
6
ByLayer
62
2
370
-1
100
AcDbPolyline
90
2
70
0
43
0
10
1.7197275
20
2.13449375
10
1.7680125
20
2.18272625
0
LWPOLYLINE
5
D8
100
AcDbEntity
8
0
6
ByLayer
62
2
370
-1
100
AcDbPolyline
90
2
70
0
43
0
10
1.56798
20
2.13449375
10
1.7197275
20
2.13449375
0
LWPOLYLINE
5
D9
100
AcDbEntity
8
0
6
ByLayer
62
2
370
-1
100
AcDbPolyline
90
2
70
0
43
0
10
1.9201925
20
2.1350375
10
1.96799
20
2.18272625
0
LWPOLYLINE
5
DA
100
AcDbEntity
8
0
6
ByLayer
62
2
370
-1
100
AcDbPolyline
90
2
70
0
43
0
10
1.81570125
20
2.1350375
10
1.9201925
20
2.1350375
0
LWPOLYLINE
5
DB
100
AcDbEntity
8
0
6
ByLayer
62
2
370
-1
100
AcDbPolyline
90
2
70
0
43
0
10
1.7680125
20
2.18272625
10
1.81570125
20
2.1350375
0
LWPOLYLINE
5
DC
100
AcDbEntity
8
0
6
ByLayer
62
2
370
-1
100
AcDbPolyline
90
2
70
0
43
0
10
4.86800125
20
1.84570375
10
4.86800125
20
1.98269375
0
LWPOLYLINE
5
DD
100
AcDbEntity
8
0
6
ByLayer
62
2
370
-1
100
AcDbPolyline
90
2
70
0
43
0
10
5.11550625
20
2.23030625
10
5.06798
20
2.18272625
0
LWPOLYLINE
5
DE
100
AcDbEntity
8
0
6
ByLayer
62
2
370
-1
100
AcDbPolyline
90
2
70
0
43
0
10
5.2203775
20
2.23030625
10
5.11550625
20
2.23030625
0
LWPOLYLINE
5
DF
100
AcDbEntity
8
0
6
ByLayer
62
2
370
-1
100
AcDbPolyline
90
2
70
0
43
0
10
5.2680125
20
2.18272625
10
5.2203775
20
2.23030625
0
LWPOLYLINE
5
E0
100
AcDbEntity
8
0
6
ByLayer
62
2
370
-1
100
AcDbPolyline
90
2
70
0
43
0
10
5.01991125
20
2.13471125
10
4.86800125
20
2.13471125
0
LWPOLYLINE
5
E1
100
AcDbEntity
8
0
6
ByLayer
62
2
370
-1
100
AcDbPolyline
90
2
70
0
43
0
10
5.06798
20
2.18272625
10
5.01991125
20
2.13471125
0
SPLINE
5
E2
100
AcDbEntity
8
0
6
ByLayer
62
7
370
-1
100
AcDbSpline
210
0
220
0
230
1
70
8
71
3
72
8
73
4
74
0
42
1e-07
43
1e-07
40
0
40
0
40
0
40
0
40
1
40
1
40
1
40
1
10
4.05951625
20
2.032715
30
0
10
4.05951625
20
2.05474125
30
0
10
4.02647625
20
2.05474125
30
0
10
4.02647625
20
2.032715
30
0
0
SPLINE
5
E3
100
AcDbEntity
8
0
6
ByLayer
62
7
370
-1
100
AcDbSpline
210
0
220
0
230
1
70
8
71
3
72
8
73
4
74
0
42
1e-07
43
1e-07
40
0
40
0
40
0
40
0
40
1
40
1
40
1
40
1
10
4.02647625
20
2.032715
30
0
10
4.02647625
20
2.0107425
30
0
10
4.05951625
20
2.0107425
30
0
10
4.05951625
20
2.032715
30
0
0
SPLINE
5
E4
100
AcDbEntity
8
0
6
ByLayer
62
7
370
-1
100
AcDbSpline
210
0
220
0
230
1
70
8
71
3
72
8
73
4
74
0
42
1e-07
43
1e-07
40
0
40
0
40
0
40
0
40
1
40
1
40
1
40
1
10
4.10948375
20
2.032715
30
0
10
4.10948375
20
2.05474125
30
0
10
4.0764975
20
2.05474125
30
0
10
4.0764975
20
2.032715
30
0
0
SPLINE
5
E5
100
AcDbEntity
8
0
6
ByLayer
62
7
370
-1
100
AcDbSpline
210
0
220
0
230
1
70
8
71
3
72
8
73
4
74
0
42
1e-07
43
1e-07
40
0
40
0
40
0
40
0
40
1
40
1
40
1
40
1
10
4.0764975
20
2.032715
30
0
10
4.0764975
20
2.0107425
30
0
10
4.10948375
20
2.0107425
30
0
10
4.10948375
20
2.032715
30
0
0
SPLINE
5
E6
100
AcDbEntity
8
0
6
ByLayer
62
7
370
-1
100
AcDbSpline
210
0
220
0
230
1
70
8
71
3
72
8
73
4
74
0
42
1e-07
43
1e-07
40
0
40
0
40
0
40
0
40
1
40
1
40
1
40
1
10
4.159505
20
2.032715
30
0
10
4.159505
20
2.05474125
30
0
10
4.12651875
20
2.05474125
30
0
10
4.12651875
20
2.032715
30
0
0
SPLINE
5
E7
100
AcDbEntity
8
0
6
ByLayer
62
7
370
-1
100
AcDbSpline
210
0
220
0
230
1
70
8
71
3
72
8
73
4
74
0
42
1e-07
43
1e-07
40
0
40
0
40
0
40
0
40
1
40
1
40
1
40
1
10
4.12651875
20
2.032715
30
0
10
4.12651875
20
2.0107425
30
0
10
4.159505
20
2.0107425
30
0
10
4.159505
20
2.032715
30
0
0
LWPOLYLINE
5
E8
100
AcDbEntity
8
0
6
ByLayer
62
2
370
-1
100
AcDbPolyline
90
3
70
0
43
0
10
4.86800125
20
1.98269375
10
4.86800125
20
2.13471125
10
4.86800125
20
2.18272625
0
SPLINE
5
E9
100
AcDbEntity
8
0
6
ByLayer
62
7
370
-1
100
AcDbSpline
210
0
220
0
230
1
70
8
71
3
72
8
73
4
74
0
42
1e-07
43
1e-07
40
0
40
0
40
0
40
0
40
1
40
1
40
1
40
1
10
1.59798125
20
2.18272625
30
0
10
1.59798125
20
2.22271
30
0
10
1.5379775
20
2.22271
30
0
10
1.5379775
20
2.18272625
30
0
0
SPLINE
5
EA
100
AcDbEntity
8
0
6
ByLayer
62
7
370
-1
100
AcDbSpline
210
0
220
0
230
1
70
8
71
3
72
8
73
4
74
0
42
1e-07
43
1e-07
40
0
40
0
40
0
40
0
40
1
40
1
40
1
40
1
10
1.5379775
20
2.18272625
30
0
10
1.5379775
20
2.14274125
30
0
10
1.59798125
20
2.14274125
30
0
10
1.59798125
20
2.18272625
30
0
0
SPLINE
5
EB
100
AcDbEntity
8
0
6
ByLayer
62
7
370
-1
100
AcDbSpline
210
0
220
0
230
1
70
8
71
3
72
8
73
4
74
0
42
1e-07
43
1e-07
40
0
40
0
40
0
40
0
40
1
40
1
40
1
40
1
10
1.698025
20
2.18272625
30
0
10
1.698025
20
2.22271
30
0
10
1.63802125
20
2.22271
30
0
10
1.63802125
20
2.18272625
30
0
0
SPLINE
5
EC
100
AcDbEntity
8
0
6
ByLayer
62
7
370
-1
100
AcDbSpline
210
0
220
0
230
1
70
8
71
3
72
8
73
4
74
0
42
1e-07
43
1e-07
40
0
40
0
40
0
40
0
40
1
40
1
40
1
40
1
10
1.63802125
20
2.18272625
30
0
10
1.63802125
20
2.14274125
30
0
10
1.698025
20
2.14274125
30
0
10
1.698025
20
2.18272625
30
0
0
SPLINE
5
ED
100
AcDbEntity
8
0
6
ByLayer
62
7
370
-1
100
AcDbSpline
210
0
220
0
230
1
70
8
71
3
72
8
73
4
74
0
42
1e-07
43
1e-07
40
0
40
0
40
0
40
0
40
1
40
1
40
1
40
1
10
1.79801375
20
2.18272625
30
0
10
1.79801375
20
2.22271
30
0
10
1.73801
20
2.22271
30
0
10
1.73801
20
2.18272625
30
0
0
SPLINE
5
EE
100
AcDbEntity
8
0
6
ByLayer
62
7
370
-1
100
AcDbSpline
210
0
220
0
230
1
70
8
71
3
72
8
73
4
74
0
42
1e-07
43
1e-07
40
0
40
0
40
0
40
0
40
1
40
1
40
1
40
1
10
1.73801
20
2.18272625
30
0
10
1.73801
20
2.14274125
30
0
10
1.79801375
20
2.14274125
30
0
10
1.79801375
20
2.18272625
30
0
0
SPLINE
5
EF
100
AcDbEntity
8
0
6
ByLayer
62
7
370
-1
100
AcDbSpline
210
0
220
0
230
1
70
8
71
3
72
8
73
4
74
0
42
1e-07
43
1e-07
40
0
40
0
40
0
40
0
40
1
40
1
40
1
40
1
10
1.89800375
20
2.18272625
30
0
10
1.89800375
20
2.22271
30
0
10
1.83799875
20
2.22271
30
0
10
1.83799875
20
2.18272625
30
0
0
SPLINE
5
F0
100
AcDbEntity
8
0
6
ByLayer
62
7
370
-1
100
AcDbSpline
210
0
220
0
230
1
70
8
71
3
72
8
73
4
74
0
42
1e-07
43
1e-07
40
0
40
0
40
0
40
0
40
1
40
1
40
1
40
1
10
1.83799875
20
2.18272625
30
0
10
1.83799875
20
2.14274125
30
0
10
1.89800375
20
2.14274125
30
0
10
1.89800375
20
2.18272625
30
0
0
SPLINE
5
F1
100
AcDbEntity
8
0
6
ByLayer
62
7
370
-1
100
AcDbSpline
210
0
220
0
230
1
70
8
71
3
72
8
73
4
74
0
42
1e-07
43
1e-07
40
0
40
0
40
0
40
0
40
1
40
1
40
1
40
1
10
1.9979925
20
2.18272625
30
0
10
1.9979925
20
2.22271
30
0
10
1.93798875
20
2.22271
30
0
10
1.93798875
20
2.18272625
30
0
0
SPLINE
5
F2
100
AcDbEntity
8
0
6
ByLayer
62
7
370
-1
100
AcDbSpline
210
0
220
0
230
1
70
8
71
3
72
8
73
4
74
0
42
1e-07
43
1e-07
40
0
40
0
40
0
40
0
40
1
40
1
40
1
40
1
10
1.93798875
20
2.18272625
30
0
10
1.93798875
20
2.14274125
30
0
10
1.9979925
20
2.14274125
30
0
10
1.9979925
20
2.18272625
30
0
0
LWPOLYLINE
5
F3
100
AcDbEntity
8
0
6
ByLayer
62
7
370
-1
100
AcDbPolyline
90
5
70
0
43
0
10
1.43798875
20
2.15272375
10
1.4979925
20
2.15272375
10
1.4979925
20
2.2127275
10
1.43798875
20
2.2127275
10
1.43798875
20
2.15272375
0
SPLINE
5
F4
100
AcDbEntity
8
0
6
ByLayer
62
7
370
-1
100
AcDbSpline
210
0
220
0
230
1
70
8
71
3
72
8
73
4
74
0
42
1e-07
43
1e-07
40
0
40
0
40
0
40
0
40
1
40
1
40
1
40
1
10
3.2479925
20
2.18272625
30
0
10
3.2479925
20
2.22271
30
0
10
3.18798875
20
2.22271
30
0
10
3.18798875
20
2.18272625
30
0
0
SPLINE
5
F5
100
AcDbEntity
8
0
6
ByLayer
62
7
370
-1
100
AcDbSpline
210
0
220
0
230
1
70
8
71
3
72
8
73
4
74
0
42
1e-07
43
1e-07
40
0
40
0
40
0
40
0
40
1
40
1
40
1
40
1
10
3.18798875
20
2.18272625
30
0
10
3.18798875
20
2.14274125
30
0
10
3.2479925
20
2.14274125
30
0
10
3.2479925
20
2.18272625
30
0
0
SPLINE
5
F6
100
AcDbEntity
8
0
6
ByLayer
62
7
370
-1
100
AcDbSpline
210
0
220
0
230
1
70
8
71
3
72
8
73
4
74
0
42
1e-07
43
1e-07
40
0
40
0
40
0
40
0
40
1
40
1
40
1
40
1
10
3.34798125
20
2.18272625
30
0
10
3.34798125
20
2.22271
30
0
10
3.2879775
20
2.22271
30
0
10
3.2879775
20
2.18272625
30
0
0
SPLINE
5
F7
100
AcDbEntity
8
0
6
ByLayer
62
7
370
-1
100
AcDbSpline
210
0
220
0
230
1
70
8
71
3
72
8
73
4
74
0
42
1e-07
43
1e-07
40
0
40
0
40
0
40
0
40
1
40
1
40
1
40
1
10
3.2879775
20
2.18272625
30
0
10
3.2879775
20
2.14274125
30
0
10
3.34798125
20
2.14274125
30
0
10
3.34798125
20
2.18272625
30
0
0
SPLINE
5
F8
100
AcDbEntity
8
0
6
ByLayer
62
7
370
-1
100
AcDbSpline
210
0
220
0
230
1
70
8
71
3
72
8
73
4
74
0
42
1e-07
43
1e-07
40
0
40
0
40
0
40
0
40
1
40
1
40
1
40
1
10
3.448025
20
2.18272625
30
0
10
3.448025
20
2.22271
30
0
10
3.38802125
20
2.22271
30
0
10
3.38802125
20
2.18272625
30
0
0
SPLINE
5
F9
100
AcDbEntity
8
0
6
ByLayer
62
7
370
-1
100
AcDbSpline
210
0
220
0
230
1
70
8
71
3
72
8
73
4
74
0
42
1e-07
43
1e-07
40
0
40
0
40
0
40
0
40
1
40
1
40
1
40
1
10
3.38802125
20
2.18272625
30
0
10
3.38802125
20
2.14274125
30
0
10
3.448025
20
2.14274125
30
0
10
3.448025
20
2.18272625
30
0
0
SPLINE
5
FA
100
AcDbEntity
8
0
6
ByLayer
62
7
370
-1
100
AcDbSpline
210
0
220
0
230
1
70
8
71
3
72
8
73
4
74
0
42
1e-07
43
1e-07
40
0
40
0
40
0
40
0
40
1
40
1
40
1
40
1
10
3.54801375
20
2.18272625
30
0
10
3.54801375
20
2.22271
30
0
10
3.48801
20
2.22271
30
0
10
3.48801
20
2.18272625
30
0
0
SPLINE
5
FB
100
AcDbEntity
8
0
6
ByLayer
62
7
370
-1
100
AcDbSpline
210
0
220
0
230
1
70
8
71
3
72
8
73
4
74
0
42
1e-07
43
1e-07
40
0
40
0
40
0
40
0
40
1
40
1
40
1
40
1
10
3.48801
20
2.18272625
30
0
10
3.48801
20
2.14274125
30
0
10
3.54801375
20
2.14274125
30
0
10
3.54801375
20
2.18272625
30
0
0
SPLINE
5
FC
100
AcDbEntity
8
0
6
ByLayer
62
7
370
-1
100
AcDbSpline
210
0
220
0
230
1
70
8
71
3
72
8
73
4
74
0
42
1e-07
43
1e-07
40
0
40
0
40
0
40
0
40
1
40
1
40
1
40
1
10
3.64800375
20
2.18272625
30
0
10
3.64800375
20
2.22271
30
0
10
3.58799875
20
2.22271
30
0
10
3.58799875
20
2.18272625
30
0
0
SPLINE
5
FD
100
AcDbEntity
8
0
6
ByLayer
62
7
370
-1
100
AcDbSpline
210
0
220
0
230
1
70
8
71
3
72
8
73
4
74
0
42
1e-07
43
1e-07
40
0
40
0
40
0
40
0
40
1
40
1
40
1
40
1
10
3.58799875
20
2.18272625
30
0
10
3.58799875
20
2.14274125
30
0
10
3.64800375
20
2.14274125
30
0
10
3.64800375
20
2.18272625
30
0
0
LWPOLYLINE
5
FE
100
AcDbEntity
8
0
6
ByLayer
62
7
370
-1
100
AcDbPolyline
90
5
70
0
43
0
10
3.08799875
20
2.15272375
10
3.14800375
20
2.15272375
10
3.14800375
20
2.2127275
10
3.08799875
20
2.2127275
10
3.08799875
20
2.15272375
0
SPLINE
5
FF
100
AcDbEntity
8
0
6
ByLayer
62
7
370
-1
100
AcDbSpline
210
0
220
0
230
1
70
8
71
3
72
8
73
4
74
0
42
1e-07
43
1e-07
40
0
40
0
40
0
40
0
40
1
40
1
40
1
40
1
10
4.89800375
20
2.18272625
30
0
10
4.89800375
20
2.22271
30
0
10
4.83799875
20
2.22271
30
0
10
4.83799875
20
2.18272625
30
0
0
SPLINE
5
100
100
AcDbEntity
8
0
6
ByLayer
62
7
370
-1
100
AcDbSpline
210
0
220
0
230
1
70
8
71
3
72
8
73
4
74
0
42
1e-07
43
1e-07
40
0
40
0
40
0
40
0
40
1
40
1
40
1
40
1
10
4.83799875
20
2.18272625
30
0
10
4.83799875
20
2.14274125
30
0
10
4.89800375
20
2.14274125
30
0
10
4.89800375
20
2.18272625
30
0
0
SPLINE
5
101
100
AcDbEntity
8
0
6
ByLayer
62
7
370
-1
100
AcDbSpline
210
0
220
0
230
1
70
8
71
3
72
8
73
4
74
0
42
1e-07
43
1e-07
40
0
40
0
40
0
40
0
40
1
40
1
40
1
40
1
10
4.9979925
20
2.18272625
30
0
10
4.9979925
20
2.22271
30
0
10
4.93798875
20
2.22271
30
0
10
4.93798875
20
2.18272625
30
0
0
SPLINE
5
102
100
AcDbEntity
8
0
6
ByLayer
62
7
370
-1
100
AcDbSpline
210
0
220
0
230
1
70
8
71
3
72
8
73
4
74
0
42
1e-07
43
1e-07
40
0
40
0
40
0
40
0
40
1
40
1
40
1
40
1
10
4.93798875
20
2.18272625
30
0
10
4.93798875
20
2.14274125
30
0
10
4.9979925
20
2.14274125
30
0
10
4.9979925
20
2.18272625
30
0
0
SPLINE
5
103
100
AcDbEntity
8
0
6
ByLayer
62
7
370
-1
100
AcDbSpline
210
0
220
0
230
1
70
8
71
3
72
8
73
4
74
0
42
1e-07
43
1e-07
40
0
40
0
40
0
40
0
40
1
40
1
40
1
40
1
10
5.09798125
20
2.18272625
30
0
10
5.09798125
20
2.22271
30
0
10
5.0379775
20
2.22271
30
0
10
5.0379775
20
2.18272625
30
0
0
SPLINE
5
104
100
AcDbEntity
8
0
6
ByLayer
62
7
370
-1
100
AcDbSpline
210
0
220
0
230
1
70
8
71
3
72
8
73
4
74
0
42
1e-07
43
1e-07
40
0
40
0
40
0
40
0
40
1
40
1
40
1
40
1
10
5.0379775
20
2.18272625
30
0
10
5.0379775
20
2.14274125
30
0
10
5.09798125
20
2.14274125
30
0
10
5.09798125
20
2.18272625
30
0
0
SPLINE
5
105
100
AcDbEntity
8
0
6
ByLayer
62
7
370
-1
100
AcDbSpline
210
0
220
0
230
1
70
8
71
3
72
8
73
4
74
0
42
1e-07
43
1e-07
40
0
40
0
40
0
40
0
40
1
40
1
40
1
40
1
10
5.198025
20
2.18272625
30
0
10
5.198025
20
2.22271
30
0
10
5.13802125
20
2.22271
30
0
10
5.13802125
20
2.18272625
30
0
0
SPLINE
5
106
100
AcDbEntity
8
0
6
ByLayer
62
7
370
-1
100
AcDbSpline
210
0
220
0
230
1
70
8
71
3
72
8
73
4
74
0
42
1e-07
43
1e-07
40
0
40
0
40
0
40
0
40
1
40
1
40
1
40
1
10
5.13802125
20
2.18272625
30
0
10
5.13802125
20
2.14274125
30
0
10
5.198025
20
2.14274125
30
0
10
5.198025
20
2.18272625
30
0
0
SPLINE
5
107
100
AcDbEntity
8
0
6
ByLayer
62
7
370
-1
100
AcDbSpline
210
0
220
0
230
1
70
8
71
3
72
8
73
4
74
0
42
1e-07
43
1e-07
40
0
40
0
40
0
40
0
40
1
40
1
40
1
40
1
10
5.29801375
20
2.18272625
30
0
10
5.29801375
20
2.22271
30
0
10
5.23801
20
2.22271
30
0
10
5.23801
20
2.18272625
30
0
0
SPLINE
5
108
100
AcDbEntity
8
0
6
ByLayer
62
7
370
-1
100
AcDbSpline
210
0
220
0
230
1
70
8
71
3
72
8
73
4
74
0
42
1e-07
43
1e-07
40
0
40
0
40
0
40
0
40
1
40
1
40
1
40
1
10
5.23801
20
2.18272625
30
0
10
5.23801
20
2.14274125
30
0
10
5.29801375
20
2.14274125
30
0
10
5.29801375
20
2.18272625
30
0
0
SPLINE
5
109
100
AcDbEntity
8
0
6
ByLayer
62
7
370
-1
100
AcDbSpline
210
0
220
0
230
1
70
8
71
3
72
8
73
4
74
0
42
1e-07
43
1e-07
40
0
40
0
40
0
40
0
40
1
40
1
40
1
40
1
10
1.4954975
20
1.98269375
30
0
10
1.4954975
20
2.01936875
30
0
10
1.44048375
20
2.01936875
30
0
10
1.44048375
20
1.98269375
30
0
0
SPLINE
5
10A
100
AcDbEntity
8
0
6
ByLayer
62
7
370
-1
100
AcDbSpline
210
0
220
0
230
1
70
8
71
3
72
8
73
4
74
0
42
1e-07
43
1e-07
40
0
40
0
40
0
40
0
40
1
40
1
40
1
40
1
10
1.44048375
20
1.98269375
30
0
10
1.44048375
20
1.9460725
30
0
10
1.4954975
20
1.9460725
30
0
10
1.4954975
20
1.98269375
30
0
0
SPLINE
5
10B
100
AcDbEntity
8
0
6
ByLayer
62
7
370
-1
100
AcDbSpline
210
0
220
0
230
1
70
8
71
3
72
8
73
4
74
0
42
1e-07
43
1e-07
40
0
40
0
40
0
40
0
40
1
40
1
40
1
40
1
10
1.59548625
20
1.98269375
30
0
10
1.59548625
20
2.01936875
30
0
10
1.5404725
20
2.01936875
30
0
10
1.5404725
20
1.98269375
30
0
0
SPLINE
5
10C
100
AcDbEntity
8
0
6
ByLayer
62
7
370
-1
100
AcDbSpline
210
0
220
0
230
1
70
8
71
3
72
8
73
4
74
0
42
1e-07
43
1e-07
40
0
40
0
40
0
40
0
40
1
40
1
40
1
40
1
10
1.5404725
20
1.98269375
30
0
10
1.5404725
20
1.9460725
30
0
10
1.59548625
20
1.9460725
30
0
10
1.59548625
20
1.98269375
30
0
0
SPLINE
5
10D
100
AcDbEntity
8
0
6
ByLayer
62
7
370
-1
100
AcDbSpline
210
0
220
0
230
1
70
8
71
3
72
8
73
4
74
0
42
1e-07
43
1e-07
40
0
40
0
40
0
40
0
40
1
40
1
40
1
40
1
10
1.4954975
20
1.782715
30
0
10
1.4954975
20
1.81939
30
0
10
1.44048375
20
1.81939
30
0
10
1.44048375
20
1.782715
30
0
0
SPLINE
5
10E
100
AcDbEntity
8
0
6
ByLayer
62
7
370
-1
100
AcDbSpline
210
0
220
0
230
1
70
8
71
3
72
8
73
4
74
0
42
1e-07
43
1e-07
40
0
40
0
40
0
40
0
40
1
40
1
40
1
40
1
10
1.44048375
20
1.782715
30
0
10
1.44048375
20
1.74604
30
0
10
1.4954975
20
1.74604
30
0
10
1.4954975
20
1.782715
30
0
0
SPLINE
5
10F
100
AcDbEntity
8
0
6
ByLayer
62
7
370
-1
100
AcDbSpline
210
0
220
0
230
1
70
8
71
3
72
8
73
4
74
0
42
1e-07
43
1e-07
40
0
40
0
40
0
40
0
40
1
40
1
40
1
40
1
10
1.59548625
20
1.782715
30
0
10
1.59548625
20
1.81939
30
0
10
1.5404725
20
1.81939
30
0
10
1.5404725
20
1.782715
30
0
0
SPLINE
5
110
100
AcDbEntity
8
0
6
ByLayer
62
7
370
-1
100
AcDbSpline
210
0
220
0
230
1
70
8
71
3
72
8
73
4
74
0
42
1e-07
43
1e-07
40
0
40
0
40
0
40
0
40
1
40
1
40
1
40
1
10
1.5404725
20
1.782715
30
0
10
1.5404725
20
1.74604
30
0
10
1.59548625
20
1.74604
30
0
10
1.59548625
20
1.782715
30
0
0
SPLINE
5
111
100
AcDbEntity
8
0
6
ByLayer
62
7
370
-1
100
AcDbSpline
210
0
220
0
230
1
70
8
71
3
72
8
73
4
74
0
42
1e-07
43
1e-07
40
0
40
0
40
0
40
0
40
1
40
1
40
1
40
1
10
3.1455075
20
1.98269375
30
0
10
3.1455075
20
2.01936875
30
0
10
3.090495
20
2.01936875
30
0
10
3.090495
20
1.98269375
30
0
0
SPLINE
5
112
100
AcDbEntity
8
0
6
ByLayer
62
7
370
-1
100
AcDbSpline
210
0
220
0
230
1
70
8
71
3
72
8
73
4
74
0
42
1e-07
43
1e-07
40
0
40
0
40
0
40
0
40
1
40
1
40
1
40
1
10
3.090495
20
1.98269375
30
0
10
3.090495
20
1.9460725
30
0
10
3.1455075
20
1.9460725
30
0
10
3.1455075
20
1.98269375
30
0
0
SPLINE
5
113
100
AcDbEntity
8
0
6
ByLayer
62
7
370
-1
100
AcDbSpline
210
0
220
0
230
1
70
8
71
3
72
8
73
4
74
0
42
1e-07
43
1e-07
40
0
40
0
40
0
40
0
40
1
40
1
40
1
40
1
10
3.2454975
20
1.98269375
30
0
10
3.2454975
20
2.01936875
30
0
10
3.19048375
20
2.01936875
30
0
10
3.19048375
20
1.98269375
30
0
0
SPLINE
5
114
100
AcDbEntity
8
0
6
ByLayer
62
7
370
-1
100
AcDbSpline
210
0
220
0
230
1
70
8
71
3
72
8
73
4
74
0
42
1e-07
43
1e-07
40
0
40
0
40
0
40
0
40
1
40
1
40
1
40
1
10
3.19048375
20
1.98269375
30
0
10
3.19048375
20
1.9460725
30
0
10
3.2454975
20
1.9460725
30
0
10
3.2454975
20
1.98269375
30
0
0
SPLINE
5
115
100
AcDbEntity
8
0
6
ByLayer
62
7
370
-1
100
AcDbSpline
210
0
220
0
230
1
70
8
71
3
72
8
73
4
74
0
42
1e-07
43
1e-07
40
0
40
0
40
0
40
0
40
1
40
1
40
1
40
1
10
3.1455075
20
1.782715
30
0
10
3.1455075
20
1.81939
30
0
10
3.090495
20
1.81939
30
0
10
3.090495
20
1.782715
30
0
0
SPLINE
5
116
100
AcDbEntity
8
0
6
ByLayer
62
7
370
-1
100
AcDbSpline
210
0
220
0
230
1
70
8
71
3
72
8
73
4
74
0
42
1e-07
43
1e-07
40
0
40
0
40
0
40
0
40
1
40
1
40
1
40
1
10
3.090495
20
1.782715
30
0
10
3.090495
20
1.74604
30
0
10
3.1455075
20
1.74604
30
0
10
3.1455075
20
1.782715
30
0
0
SPLINE
5
117
100
AcDbEntity
8
0
6
ByLayer
62
7
370
-1
100
AcDbSpline
210
0
220
0
230
1
70
8
71
3
72
8
73
4
74
0
42
1e-07
43
1e-07
40
0
40
0
40
0
40
0
40
1
40
1
40
1
40
1
10
3.2454975
20
1.782715
30
0
10
3.2454975
20
1.81939
30
0
10
3.19048375
20
1.81939
30
0
10
3.19048375
20
1.782715
30
0
0
SPLINE
5
118
100
AcDbEntity
8
0
6
ByLayer
62
7
370
-1
100
AcDbSpline
210
0
220
0
230
1
70
8
71
3
72
8
73
4
74
0
42
1e-07
43
1e-07
40
0
40
0
40
0
40
0
40
1
40
1
40
1
40
1
10
3.19048375
20
1.782715
30
0
10
3.19048375
20
1.74604
30
0
10
3.2454975
20
1.74604
30
0
10
3.2454975
20
1.782715
30
0
0
SPLINE
5
119
100
AcDbEntity
8
0
6
ByLayer
62
7
370
-1
100
AcDbSpline
210
0
220
0
230
1
70
8
71
3
72
8
73
4
74
0
42
1e-07
43
1e-07
40
0
40
0
40
0
40
0
40
1
40
1
40
1
40
1
10
4.070475
20
1.75770375
30
0
10
4.070475
20
1.79437875
30
0
10
4.01551625
20
1.79437875
30
0
10
4.01551625
20
1.75770375
30
0
0
SPLINE
5
11A
100
AcDbEntity
8
0
6
ByLayer
62
7
370
-1
100
AcDbSpline
210
0
220
0
230
1
70
8
71
3
72
8
73
4
74
0
42
1e-07
43
1e-07
40
0
40
0
40
0
40
0
40
1
40
1
40
1
40
1
10
4.01551625
20
1.75770375
30
0
10
4.01551625
20
1.72102875
30
0
10
4.070475
20
1.72102875
30
0
10
4.070475
20
1.75770375
30
0
0
SPLINE
5
11B
100
AcDbEntity
8
0
6
ByLayer
62
7
370
-1
100
AcDbSpline
210
0
220
0
230
1
70
8
71
3
72
8
73
4
74
0
42
1e-07
43
1e-07
40
0
40
0
40
0
40
0
40
1
40
1
40
1
40
1
10
4.17051875
20
1.75770375
30
0
10
4.17051875
20
1.79437875
30
0
10
4.11550625
20
1.79437875
30
0
10
4.11550625
20
1.75770375
30
0
0
SPLINE
5
11C
100
AcDbEntity
8
0
6
ByLayer
62
7
370
-1
100
AcDbSpline
210
0
220
0
230
1
70
8
71
3
72
8
73
4
74
0
42
1e-07
43
1e-07
40
0
40
0
40
0
40
0
40
1
40
1
40
1
40
1
10
4.11550625
20
1.75770375
30
0
10
4.11550625
20
1.72102875
30
0
10
4.17051875
20
1.72102875
30
0
10
4.17051875
20
1.75770375
30
0
0
SPLINE
5
11D
100
AcDbEntity
8
0
6
ByLayer
62
7
370
-1
100
AcDbSpline
210
0
220
0
230
1
70
8
71
3
72
8
73
4
74
0
42
1e-07
43
1e-07
40
0
40
0
40
0
40
0
40
1
40
1
40
1
40
1
10
4.79551875
20
1.98269375
30
0
10
4.79551875
20
2.01936875
30
0
10
4.74050625
20
2.01936875
30
0
10
4.74050625
20
1.98269375
30
0
0
SPLINE
5
11E
100
AcDbEntity
8
0
6
ByLayer
62
7
370
-1
100
AcDbSpline
210
0
220
0
230
1
70
8
71
3
72
8
73
4
74
0
42
1e-07
43
1e-07
40
0
40
0
40
0
40
0
40
1
40
1
40
1
40
1
10
4.74050625
20
1.98269375
30
0
10
4.74050625
20
1.9460725
30
0
10
4.79551875
20
1.9460725
30
0
10
4.79551875
20
1.98269375
30
0
0
SPLINE
5
11F
100
AcDbEntity
8
0
6
ByLayer
62
7
370
-1
100
AcDbSpline
210
0
220
0
230
1
70
8
71
3
72
8
73
4
74
0
42
1e-07
43
1e-07
40
0
40
0
40
0
40
0
40
1
40
1
40
1
40
1
10
4.8955075
20
1.98269375
30
0
10
4.8955075
20
2.01936875
30
0
10
4.840495
20
2.01936875
30
0
10
4.840495
20
1.98269375
30
0
0
SPLINE
5
120
100
AcDbEntity
8
0
6
ByLayer
62
7
370
-1
100
AcDbSpline
210
0
220
0
230
1
70
8
71
3
72
8
73
4
74
0
42
1e-07
43
1e-07
40
0
40
0
40
0
40
0
40
1
40
1
40
1
40
1
10
4.840495
20
1.98269375
30
0
10
4.840495
20
1.9460725
30
0
10
4.8955075
20
1.9460725
30
0
10
4.8955075
20
1.98269375
30
0
0
SPLINE
5
121
100
AcDbEntity
8
0
6
ByLayer
62
7
370
-1
100
AcDbSpline
210
0
220
0
230
1
70
8
71
3
72
8
73
4
74
0
42
1e-07
43
1e-07
40
0
40
0
40
0
40
0
40
1
40
1
40
1
40
1
10
4.79551875
20
1.782715
30
0
10
4.79551875
20
1.81939
30
0
10
4.74050625
20
1.81939
30
0
10
4.74050625
20
1.782715
30
0
0
SPLINE
5
122
100
AcDbEntity
8
0
6
ByLayer
62
7
370
-1
100
AcDbSpline
210
0
220
0
230
1
70
8
71
3
72
8
73
4
74
0
42
1e-07
43
1e-07
40
0
40
0
40
0
40
0
40
1
40
1
40
1
40
1
10
4.74050625
20
1.782715
30
0
10
4.74050625
20
1.74604
30
0
10
4.79551875
20
1.74604
30
0
10
4.79551875
20
1.782715
30
0
0
SPLINE
5
123
100
AcDbEntity
8
0
6
ByLayer
62
7
370
-1
100
AcDbSpline
210
0
220
0
230
1
70
8
71
3
72
8
73
4
74
0
42
1e-07
43
1e-07
40
0
40
0
40
0
40
0
40
1
40
1
40
1
40
1
10
4.8955075
20
1.782715
30
0
10
4.8955075
20
1.81939
30
0
10
4.840495
20
1.81939
30
0
10
4.840495
20
1.782715
30
0
0
SPLINE
5
124
100
AcDbEntity
8
0
6
ByLayer
62
7
370
-1
100
AcDbSpline
210
0
220
0
230
1
70
8
71
3
72
8
73
4
74
0
42
1e-07
43
1e-07
40
0
40
0
40
0
40
0
40
1
40
1
40
1
40
1
10
4.840495
20
1.782715
30
0
10
4.840495
20
1.74604
30
0
10
4.8955075
20
1.74604
30
0
10
4.8955075
20
1.782715
30
0
0
SPLINE
5
125
100
AcDbEntity
8
0
6
ByLayer
62
7
370
-1
100
AcDbSpline
210
0
220
0
230
1
70
8
71
3
72
8
73
4
74
0
42
1e-07
43
1e-07
40
0
40
0
40
0
40
0
40
1
40
1
40
1
40
1
10
0.53190125
20
2.14019125
30
0
10
0.53190125
20
2.17301375
30
0
10
0.48269375
20
2.17301375
30
0
10
0.48269375
20
2.14019125
30
0
0
SPLINE
5
126
100
AcDbEntity
8
0
6
ByLayer
62
7
370
-1
100
AcDbSpline
210
0
220
0
230
1
70
8
71
3
72
8
73
4
74
0
42
1e-07
43
1e-07
40
0
40
0
40
0
40
0
40
1
40
1
40
1
40
1
10
0.48269375
20
2.14019125
30
0
10
0.48269375
20
2.1074225
30
0
10
0.53190125
20
2.1074225
30
0
10
0.53190125
20
2.14019125
30
0
0
SPLINE
5
127
100
AcDbEntity
8
0
6
ByLayer
62
7
370
-1
100
AcDbSpline
210
0
220
0
230
1
70
8
71
3
72
8
73
4
74
0
42
1e-07
43
1e-07
40
0
40
0
40
0
40
0
40
1
40
1
40
1
40
1
10
0.45317875
20
2.14019125
30
0
10
0.45317875
20
2.17301375
30
0
10
0.40397125
20
2.17301375
30
0
10
0.40397125
20
2.14019125
30
0
0
SPLINE
5
128
100
AcDbEntity
8
0
6
ByLayer
62
7
370
-1
100
AcDbSpline
210
0
220
0
230
1
70
8
71
3
72
8
73
4
74
0
42
1e-07
43
1e-07
40
0
40
0
40
0
40
0
40
1
40
1
40
1
40
1
10
0.40397125
20
2.14019125
30
0
10
0.40397125
20
2.1074225
30
0
10
0.45317875
20
2.1074225
30
0
10
0.45317875
20
2.14019125
30
0
0
SPLINE
5
129
100
AcDbEntity
8
0
6
ByLayer
62
7
370
-1
100
AcDbSpline
210
0
220
0
230
1
70
8
71
3
72
8
73
4
74
0
42
1e-07
43
1e-07
40
0
40
0
40
0
40
0
40
1
40
1
40
1
40
1
10
0.53190125
20
2.06152375
30
0
10
0.53190125
20
2.09434625
30
0
10
0.48269375
20
2.09434625
30
0
10
0.48269375
20
2.06152375
30
0
0
SPLINE
5
12A
100
AcDbEntity
8
0
6
ByLayer
62
7
370
-1
100
AcDbSpline
210
0
220
0
230
1
70
8
71
3
72
8
73
4
74
0
42
1e-07
43
1e-07
40
0
40
0
40
0
40
0
40
1
40
1
40
1
40
1
10
0.48269375
20
2.06152375
30
0
10
0.48269375
20
2.0287
30
0
10
0.53190125
20
2.0287
30
0
10
0.53190125
20
2.06152375
30
0
0
SPLINE
5
12B
100
AcDbEntity
8
0
6
ByLayer
62
7
370
-1
100
AcDbSpline
210
0
220
0
230
1
70
8
71
3
72
8
73
4
74
0
42
1e-07
43
1e-07
40
0
40
0
40
0
40
0
40
1
40
1
40
1
40
1
10
0.45317875
20
2.06152375
30
0
10
0.45317875
20
2.09434625
30
0
10
0.40397125
20
2.09434625
30
0
10
0.40397125
20
2.06152375
30
0
0
SPLINE
5
12C
100
AcDbEntity
8
0
6
ByLayer
62
7
370
-1
100
AcDbSpline
210
0
220
0
230
1
70
8
71
3
72
8
73
4
74
0
42
1e-07
43
1e-07
40
0
40
0
40
0
40
0
40
1
40
1
40
1
40
1
10
0.40397125
20
2.06152375
30
0
10
0.40397125
20
2.0287
30
0
10
0.45317875
20
2.0287
30
0
10
0.45317875
20
2.06152375
30
0
0
SPLINE
5
12D
100
AcDbEntity
8
0
6
ByLayer
62
7
370
-1
100
AcDbSpline
210
0
220
0
230
1
70
8
71
3
72
8
73
4
74
0
42
1e-07
43
1e-07
40
0
40
0
40
0
40
0
40
1
40
1
40
1
40
1
10
0.53190125
20
1.98269375
30
0
10
0.53190125
20
2.01551625
30
0
10
0.48269375
20
2.01551625
30
0
10
0.48269375
20
1.98269375
30
0
0
SPLINE
5
12E
100
AcDbEntity
8
0
6
ByLayer
62
7
370
-1
100
AcDbSpline
210
0
220
0
230
1
70
8
71
3
72
8
73
4
74
0
42
1e-07
43
1e-07
40
0
40
0
40
0
40
0
40
1
40
1
40
1
40
1
10
0.48269375
20
1.98269375
30
0
10
0.48269375
20
1.94992375
30
0
10
0.53190125
20
1.94992375
30
0
10
0.53190125
20
1.98269375
30
0
0
SPLINE
5
12F
100
AcDbEntity
8
0
6
ByLayer
62
7
370
-1
100
AcDbSpline
210
0
220
0
230
1
70
8
71
3
72
8
73
4
74
0
42
1e-07
43
1e-07
40
0
40
0
40
0
40
0
40
1
40
1
40
1
40
1
10
0.45317875
20
1.98269375
30
0
10
0.45317875
20
2.01551625
30
0
10
0.40397125
20
2.01551625
30
0
10
0.40397125
20
1.98269375
30
0
0
SPLINE
5
130
100
AcDbEntity
8
0
6
ByLayer
62
7
370
-1
100
AcDbSpline
210
0
220
0
230
1
70
8
71
3
72
8
73
4
74
0
42
1e-07
43
1e-07
40
0
40
0
40
0
40
0
40
1
40
1
40
1
40
1
10
0.40397125
20
1.98269375
30
0
10
0.40397125
20
1.94992375
30
0
10
0.45317875
20
1.94992375
30
0
10
0.45317875
20
1.98269375
30
0
0
SPLINE
5
131
100
AcDbEntity
8
0
6
ByLayer
62
7
370
-1
100
AcDbSpline
210
0
220
0
230
1
70
8
71
3
72
8
73
4
74
0
42
1e-07
43
1e-07
40
0
40
0
40
0
40
0
40
1
40
1
40
1
40
1
10
0.53190125
20
1.904025
30
0
10
0.53190125
20
1.93684875
30
0
10
0.48269375
20
1.93684875
30
0
10
0.48269375
20
1.904025
30
0
0
SPLINE
5
132
100
AcDbEntity
8
0
6
ByLayer
62
7
370
-1
100
AcDbSpline
210
0
220
0
230
1
70
8
71
3
72
8
73
4
74
0
42
1e-07
43
1e-07
40
0
40
0
40
0
40
0
40
1
40
1
40
1
40
1
10
0.48269375
20
1.904025
30
0
10
0.48269375
20
1.8712025
30
0
10
0.53190125
20
1.8712025
30
0
10
0.53190125
20
1.904025
30
0
0
SPLINE
5
133
100
AcDbEntity
8
0
6
ByLayer
62
7
370
-1
100
AcDbSpline
210
0
220
0
230
1
70
8
71
3
72
8
73
4
74
0
42
1e-07
43
1e-07
40
0
40
0
40
0
40
0
40
1
40
1
40
1
40
1
10
0.45317875
20
1.904025
30
0
10
0.45317875
20
1.93684875
30
0
10
0.40397125
20
1.93684875
30
0
10
0.40397125
20
1.904025
30
0
0
SPLINE
5
134
100
AcDbEntity
8
0
6
ByLayer
62
7
370
-1
100
AcDbSpline
210
0
220
0
230
1
70
8
71
3
72
8
73
4
74
0
42
1e-07
43
1e-07
40
0
40
0
40
0
40
0
40
1
40
1
40
1
40
1
10
0.40397125
20
1.904025
30
0
10
0.40397125
20
1.8712025
30
0
10
0.45317875
20
1.8712025
30
0
10
0.45317875
20
1.904025
30
0
0
SPLINE
5
135
100
AcDbEntity
8
0
6
ByLayer
62
7
370
-1
100
AcDbSpline
210
0
220
0
230
1
70
8
71
3
72
8
73
4
74
0
42
1e-07
43
1e-07
40
0
40
0
40
0
40
0
40
1
40
1
40
1
40
1
10
0.53190125
20
1.82530375
30
0
10
0.53190125
20
1.8581275
30
0
10
0.48269375
20
1.8581275
30
0
10
0.48269375
20
1.82530375
30
0
0
SPLINE
5
136
100
AcDbEntity
8
0
6
ByLayer
62
7
370
-1
100
AcDbSpline
210
0
220
0
230
1
70
8
71
3
72
8
73
4
74
0
42
1e-07
43
1e-07
40
0
40
0
40
0
40
0
40
1
40
1
40
1
40
1
10
0.48269375
20
1.82530375
30
0
10
0.48269375
20
1.792535
30
0
10
0.53190125
20
1.792535
30
0
10
0.53190125
20
1.82530375
30
0
0
SPLINE
5
137
100
AcDbEntity
8
0
6
ByLayer
62
7
370
-1
100
AcDbSpline
210
0
220
0
230
1
70
8
71
3
72
8
73
4
74
0
42
1e-07
43
1e-07
40
0
40
0
40
0
40
0
40
1
40
1
40
1
40
1
10
0.45317875
20
1.82530375
30
0
10
0.45317875
20
1.8581275
30
0
10
0.40397125
20
1.8581275
30
0
10
0.40397125
20
1.82530375
30
0
0
SPLINE
5
138
100
AcDbEntity
8
0
6
ByLayer
62
7
370
-1
100
AcDbSpline
210
0
220
0
230
1
70
8
71
3
72
8
73
4
74
0
42
1e-07
43
1e-07
40
0
40
0
40
0
40
0
40
1
40
1
40
1
40
1
10
0.40397125
20
1.82530375
30
0
10
0.40397125
20
1.792535
30
0
10
0.45317875
20
1.792535
30
0
10
0.45317875
20
1.82530375
30
0
0
SPLINE
5
139
100
AcDbEntity
8
0
6
ByLayer
62
7
370
-1
100
AcDbSpline
210
0
220
0
230
1
70
8
71
3
72
8
73
4
74
0
42
1e-07
43
1e-07
40
0
40
0
40
0
40
0
40
1
40
1
40
1
40
1
10
5.99300125
20
2.23269375
30
0
10
5.99300125
20
2.33273625
30
0
10
5.84299
20
2.33273625
30
0
10
5.84299
20
2.23269375
30
0
0
SPLINE
5
13A
100
AcDbEntity
8
0
6
ByLayer
62
7
370
-1
100
AcDbSpline
210
0
220
0
230
1
70
8
71
3
72
8
73
4
74
0
42
1e-07
43
1e-07
40
0
40
0
40
0
40
0
40
1
40
1
40
1
40
1
10
5.84299
20
2.23269375
30
0
10
5.84299
20
2.13270375
30
0
10
5.99300125
20
2.13270375
30
0
10
5.99300125
20
2.23269375
30
0
0
SPLINE
5
13B
100
AcDbEntity
8
0
6
ByLayer
62
7
370
-1
100
AcDbSpline
210
0
220
0
230
1
70
8
71
3
72
8
73
4
74
0
42
1e-07
43
1e-07
40
0
40
0
40
0
40
0
40
1
40
1
40
1
40
1
10
5.99300125
20
1.73269375
30
0
10
5.99300125
20
1.83273625
30
0
10
5.84299
20
1.83273625
30
0
10
5.84299
20
1.73269375
30
0
0
SPLINE
5
13C
100
AcDbEntity
8
0
6
ByLayer
62
7
370
-1
100
AcDbSpline
210
0
220
0
230
1
70
8
71
3
72
8
73
4
74
0
42
1e-07
43
1e-07
40
0
40
0
40
0
40
0
40
1
40
1
40
1
40
1
10
5.84299
20
1.73269375
30
0
10
5.84299
20
1.63270375
30
0
10
5.99300125
20
1.63270375
30
0
10
5.99300125
20
1.73269375
30
0
0
SPLINE
5
13D
100
AcDbEntity
8
0
6
ByLayer
62
7
370
-1
100
AcDbSpline
210
0
220
0
230
1
70
8
71
3
72
8
73
4
74
0
42
1e-07
43
1e-07
40
0
40
0
40
0
40
0
40
1
40
1
40
1
40
1
10
0.8930125
20
2.23269375
30
0
10
0.8930125
20
2.33273625
30
0
10
0.74300125
20
2.33273625
30
0
10
0.74300125
20
2.23269375
30
0
0
SPLINE
5
13E
100
AcDbEntity
8
0
6
ByLayer
62
7
370
-1
100
AcDbSpline
210
0
220
0
230
1
70
8
71
3
72
8
73
4
74
0
42
1e-07
43
1e-07
40
0
40
0
40
0
40
0
40
1
40
1
40
1
40
1
10
0.74300125
20
2.23269375
30
0
10
0.74300125
20
2.13270375
30
0
10
0.8930125
20
2.13270375
30
0
10
0.8930125
20
2.23269375
30
0
0
SPLINE
5
13F
100
AcDbEntity
8
0
6
ByLayer
62
7
370
-1
100
AcDbSpline
210
0
220
0
230
1
70
8
71
3
72
8
73
4
74
0
42
1e-07
43
1e-07
40
0
40
0
40
0
40
0
40
1
40
1
40
1
40
1
10
0.8930125
20
1.73269375
30
0
10
0.8930125
20
1.83273625
30
0
10
0.74300125
20
1.83273625
30
0
10
0.74300125
20
1.73269375
30
0
0
SPLINE
5
140
100
AcDbEntity
8
0
6
ByLayer
62
7
370
-1
100
AcDbSpline
210
0
220
0
230
1
70
8
71
3
72
8
73
4
74
0
42
1e-07
43
1e-07
40
0
40
0
40
0
40
0
40
1
40
1
40
1
40
1
10
0.74300125
20
1.73269375
30
0
10
0.74300125
20
1.63270375
30
0
10
0.8930125
20
1.63270375
30
0
10
0.8930125
20
1.73269375
30
0
0
LWPOLYLINE
5
141
100
AcDbEntity
8
0
6
ByLayer
62
7
370
-1
100
AcDbPolyline
90
5
70
0
43
0
10
4.73801
20
2.15272375
10
4.79801375
20
2.15272375
10
4.79801375
20
2.2127275
10
4.73801
20
2.2127275
10
4.73801
20
2.15272375
0
LWPOLYLINE
5
142
100
AcDbEntity
8
0
6
ByLayer
62
2
370
-1
100
AcDbPolyline
90
20
70
0
43
0
10
5.9656025
20
1.96853375
10
5.9599075
20
1.96663375
10
5.95030375
20
1.96663375
10
5.94650625
20
1.96853375
10
5.9446075
20
1.9704325
10
5.9427075
20
1.97422875
10
5.9427075
20
1.9780275
10
5.9446075
20
1.981825
10
5.94650625
20
1.98372375
10
5.95030375
20
1.98562375
10
5.95789875
20
1.9875225
10
5.96180625
20
1.98942
10
5.96370375
20
1.99131875
10
5.9656025
20
1.9951175
10
5.9656025
20
1.998915
10
5.96370375
20
2.0027125
10
5.96180625
20
2.00472
10
5.95789875
20
2.00661875
10
5.948405
20
2.00661875
10
5.9427075
20
2.00472
0
LWPOLYLINE
5
143
100
AcDbEntity
8
0
6
ByLayer
62
2
370
-1
100
AcDbPolyline
90
6
70
0
43
0
10
5.90842
20
1.96663375
10
5.90842
20
1.9875225
10
5.91031875
20
1.99131875
10
5.9141175
20
1.99321875
10
5.92182125
20
1.99321875
10
5.9256175
20
1.99131875
0
LWPOLYLINE
5
144
100
AcDbEntity
8
0
6
ByLayer
62
2
370
-1
100
AcDbPolyline
90
10
70
0
43
0
10
5.90842
20
1.96853375
10
5.9122175
20
1.96663375
10
5.92182125
20
1.96663375
10
5.9256175
20
1.96853375
10
5.9275175
20
1.97233125
10
5.9275175
20
1.97612875
10
5.9256175
20
1.97992625
10
5.92182125
20
1.981825
10
5.9122175
20
1.981825
10
5.90842
20
1.98372375
0
LWPOLYLINE
5
145
100
AcDbEntity
8
0
6
ByLayer
62
2
370
-1
100
AcDbPolyline
90
2
70
0
43
0
10
5.89507375
20
1.99321875
10
5.8798825
20
1.99321875
0
LWPOLYLINE
5
146
100
AcDbEntity
8
0
6
ByLayer
62
2
370
-1
100
AcDbPolyline
90
5
70
0
43
0
10
5.8893775
20
1.96663375
10
5.8893775
20
2.00081375
10
5.8874775
20
2.00472
10
5.88368125
20
2.00661875
10
5.8798825
20
2.00661875
0
LWPOLYLINE
5
147
100
AcDbEntity
8
0
6
ByLayer
62
2
370
-1
100
AcDbPolyline
90
13
70
0
43
0
10
5.85129125
20
1.96853375
10
5.85508875
20
1.96663375
10
5.86268375
20
1.96663375
10
5.8664825
20
1.96853375
10
5.86838125
20
1.97233125
10
5.86838125
20
1.9875225
10
5.8664825
20
1.99131875
10
5.86268375
20
1.99321875
10
5.85508875
20
1.99321875
10
5.85129125
20
1.99131875
10
5.8493925
20
1.9875225
10
5.8493925
20
1.98372375
10
5.86838125
20
1.97992625
0
LWPOLYLINE
5
148
100
AcDbEntity
8
0
6
ByLayer
62
2
370
-1
100
AcDbPolyline
90
12
70
0
43
0
10
5.81510375
20
1.96853375
10
5.8189025
20
1.96663375
10
5.8264975
20
1.96663375
10
5.830295
20
1.96853375
10
5.83219375
20
1.9704325
10
5.8340925
20
1.97422875
10
5.8340925
20
1.98562375
10
5.83219375
20
1.98942
10
5.830295
20
1.99131875
10
5.8264975
20
1.99321875
10
5.8189025
20
1.99321875
10
5.81510375
20
1.99131875
0
LWPOLYLINE
5
149
100
AcDbEntity
8
0
6
ByLayer
62
2
370
-1
100
AcDbPolyline
90
6
70
0
43
0
10
5.78081625
20
1.96663375
10
5.78081625
20
1.9875225
10
5.782715
20
1.99131875
10
5.7865125
20
1.99321875
10
5.7941075
20
1.99321875
10
5.79790625
20
1.99131875
0
LWPOLYLINE
5
14A
100
AcDbEntity
8
0
6
ByLayer
62
2
370
-1
100
AcDbPolyline
90
10
70
0
43
0
10
5.78081625
20
1.96853375
10
5.78461375
20
1.96663375
10
5.7941075
20
1.96663375
10
5.79790625
20
1.96853375
10
5.7999125
20
1.97233125
10
5.7999125
20
1.97612875
10
5.79790625
20
1.97992625
10
5.7941075
20
1.981825
10
5.78461375
20
1.981825
10
5.78081625
20
1.98372375
0
LWPOLYLINE
5
14B
100
AcDbEntity
8
0
6
ByLayer
62
2
370
-1
100
AcDbPolyline
90
16
70
0
43
0
10
5.76372625
20
1.96853375
10
5.75987375
20
1.96663375
10
5.75222375
20
1.96663375
10
5.7484275
20
1.96853375
10
5.74647375
20
1.97233125
10
5.74647375
20
1.97422875
10
5.7484275
20
1.9780275
10
5.75222375
20
1.97992625
10
5.75792125
20
1.97992625
10
5.7617725
20
1.981825
10
5.76372625
20
1.98562375
10
5.76372625
20
1.9875225
10
5.7617725
20
1.99131875
10
5.75792125
20
1.99321875
10
5.75222375
20
1.99321875
10
5.7484275
20
1.99131875
0
LWPOLYLINE
5
14C
100
AcDbEntity
8
0
6
ByLayer
62
2
370
-1
100
AcDbPolyline
90
2
70
0
43
0
10
5.73508
20
1.99321875
10
5.71988875
20
1.99321875
0
LWPOLYLINE
5
14D
100
AcDbEntity
8
0
6
ByLayer
62
2
370
-1
100
AcDbPolyline
90
5
70
0
43
0
10
5.72938375
20
2.00661875
10
5.72938375
20
1.97233125
10
5.727485
20
1.96853375
10
5.7236875
20
1.96663375
10
5.71988875
20
1.96663375
0
LWPOLYLINE
5
14E
100
AcDbEntity
8
0
6
ByLayer
62
2
370
-1
100
AcDbPolyline
90
2
70
0
43
0
10
5.67800625
20
1.9780275
10
5.6589075
20
1.9780275
0
LWPOLYLINE
5
14F
100
AcDbEntity
8
0
6
ByLayer
62
2
370
-1
100
AcDbPolyline
90
3
70
0
43
0
10
5.6818025
20
1.96663375
10
5.6684025
20
2.00661875
10
5.65511125
20
1.96663375
0
LWPOLYLINE
5
150
100
AcDbEntity
8
0
6
ByLayer
62
2
370
-1
100
AcDbPolyline
90
2
70
0
43
0
10
5.64181875
20
1.96663375
10
5.64181875
20
1.99321875
0
LWPOLYLINE
5
151
100
AcDbEntity
8
0
6
ByLayer
62
2
370
-1
100
AcDbPolyline
90
6
70
0
43
0
10
5.64181875
20
2.00661875
10
5.6437175
20
2.00472
10
5.64181875
20
2.0027125
10
5.63992
20
2.00472
10
5.64181875
20
2.00661875
10
5.64181875
20
2.0027125
0
LWPOLYLINE
5
152
100
AcDbEntity
8
0
6
ByLayer
62
2
370
-1
100
AcDbPolyline
90
2
70
0
43
0
10
5.62272125
20
1.96663375
10
5.62272125
20
1.99321875
0
LWPOLYLINE
5
153
100
AcDbEntity
8
0
6
ByLayer
62
2
370
-1
100
AcDbPolyline
90
5
70
0
43
0
10
5.62272125
20
1.98562375
10
5.6208225
20
1.98942
10
5.61892375
20
1.99131875
10
5.61512625
20
1.99321875
10
5.61127375
20
1.99321875
0
LWPOLYLINE
5
154
100
AcDbEntity
8
0
6
ByLayer
62
2
370
-1
100
AcDbPolyline
90
2
70
0
43
0
10
5.56749125
20
1.96663375
10
5.56749125
20
2.00661875
0
LWPOLYLINE
5
155
100
AcDbEntity
8
0
6
ByLayer
62
2
370
-1
100
AcDbPolyline
90
20
70
0
43
0
10
5.5502925
20
1.96853375
10
5.54459625
20
1.96663375
10
5.5351025
20
1.96663375
10
5.53130375
20
1.96853375
10
5.529405
20
1.9704325
10
5.52750625
20
1.97422875
10
5.52750625
20
1.9780275
10
5.529405
20
1.981825
10
5.53130375
20
1.98372375
10
5.5351025
20
1.98562375
10
5.5426975
20
1.9875225
10
5.546495
20
1.98942
10
5.54839375
20
1.99131875
10
5.5502925
20
1.9951175
10
5.5502925
20
1.998915
10
5.54839375
20
2.0027125
10
5.546495
20
2.00472
10
5.5426975
20
2.00661875
10
5.5332025
20
2.00661875
10
5.52750625
20
2.00472
0
LWPOLYLINE
5
156
100
AcDbEntity
8
0
6
ByLayer
62
2
370
-1
100
AcDbPolyline
90
19
70
0
43
0
10
5.49701625
20
1.9875225
10
5.49131875
20
1.98562375
10
5.48942125
20
1.98372375
10
5.4875225
20
1.97992625
10
5.4875225
20
1.97422875
10
5.48942125
20
1.9704325
10
5.49131875
20
1.96853375
10
5.4951175
20
1.96663375
10
5.5103075
20
1.96663375
10
5.5103075
20
2.00661875
10
5.49701625
20
2.00661875
10
5.4932175
20
2.00472
10
5.49131875
20
2.0027125
10
5.48942125
20
1.998915
10
5.48942125
20
1.9951175
10
5.49131875
20
1.99131875
10
5.4932175
20
1.98942
10
5.49701625
20
1.9875225
10
5.5103075
20
1.9875225
0
LWPOLYLINE
5
157
100
AcDbEntity
8
0
6
ByLayer
62
2
370
-1
100
AcDbPolyline
90
2
70
0
43
0
10
5.44178625
20
1.9780275
10
5.42268875
20
1.9780275
0
LWPOLYLINE
5
158
100
AcDbEntity
8
0
6
ByLayer
62
2
370
-1
100
AcDbPolyline
90
3
70
0
43
0
10
5.44558375
20
1.96663375
10
5.4321825
20
2.00661875
10
5.41889125
20
1.96663375
0
LWPOLYLINE
5
159
100
AcDbEntity
8
0
6
ByLayer
62
2
370
-1
100
AcDbPolyline
90
2
70
0
43
0
10
5.38840125
20
1.96663375
10
5.38840125
20
2.00661875
0
LWPOLYLINE
5
15A
100
AcDbEntity
8
0
6
ByLayer
62
2
370
-1
100
AcDbPolyline
90
12
70
0
43
0
10
5.38840125
20
1.96853375
10
5.3921975
20
1.96663375
10
5.3999025
20
1.96663375
10
5.4037
20
1.96853375
10
5.40559875
20
1.9704325
10
5.4074975
20
1.97422875
10
5.4074975
20
1.98562375
10
5.40559875
20
1.98942
10
5.4037
20
1.99131875
10
5.3999025
20
1.99321875
10
5.3921975
20
1.99321875
10
5.38840125
20
1.99131875
0
LWPOLYLINE
5
15B
100
AcDbEntity
8
0
6
ByLayer
62
2
370
-1
100
AcDbPolyline
90
6
70
0
43
0
10
5.35221375
20
1.96663375
10
5.35221375
20
1.9875225
10
5.3541125
20
1.99131875
10
5.35801875
20
1.99321875
10
5.36561375
20
1.99321875
10
5.3694125
20
1.99131875
0
LWPOLYLINE
5
15C
100
AcDbEntity
8
0
6
ByLayer
62
2
370
-1
100
AcDbPolyline
90
10
70
0
43
0
10
5.35221375
20
1.96853375
10
5.35601125
20
1.96663375
10
5.36561375
20
1.96663375
10
5.3694125
20
1.96853375
10
5.37131125
20
1.97233125
10
5.37131125
20
1.97612875
10
5.3694125
20
1.97992625
10
5.36561375
20
1.981825
10
5.35601125
20
1.981825
10
5.35221375
20
1.98372375
0
LWPOLYLINE
5
15D
100
AcDbEntity
8
0
6
ByLayer
62
2
370
-1
100
AcDbPolyline
90
2
70
0
43
0
10
5.333225
20
1.99321875
10
5.333225
20
1.95323375
0
LWPOLYLINE
5
15E
100
AcDbEntity
8
0
6
ByLayer
62
2
370
-1
100
AcDbPolyline
90
12
70
0
43
0
10
5.333225
20
1.99131875
10
5.3294275
20
1.99321875
10
5.3217775
20
1.99321875
10
5.31798
20
1.99131875
10
5.31602625
20
1.98942
10
5.3140725
20
1.98562375
10
5.3140725
20
1.97422875
10
5.31602625
20
1.9704325
10
5.31798
20
1.96853375
10
5.3217775
20
1.96663375
10
5.3294275
20
1.96663375
10
5.333225
20
1.96853375
0
LWPOLYLINE
5
15F
100
AcDbEntity
8
0
6
ByLayer
62
2
370
-1
100
AcDbPolyline
90
2
70
0
43
0
10
5.30268
20
1.99321875
10
5.28748875
20
1.99321875
0
LWPOLYLINE
5
160
100
AcDbEntity
8
0
6
ByLayer
62
2
370
-1
100
AcDbPolyline
90
5
70
0
43
0
10
5.2969825
20
2.00661875
10
5.2969825
20
1.97233125
10
5.295085
20
1.96853375
10
5.2912875
20
1.96663375
10
5.28748875
20
1.96663375
0
LWPOLYLINE
5
161
100
AcDbEntity
8
0
6
ByLayer
62
2
370
-1
100
AcDbPolyline
90
17
70
0
43
0
10
5.2683925
20
1.96663375
10
5.27219
20
1.96853375
10
5.27408875
20
1.9704325
10
5.2759875
20
1.97422875
10
5.2759875
20
1.98562375
10
5.27408875
20
1.98942
10
5.27219
20
1.99131875
10
5.2683925
20
1.99321875
10
5.262695
20
1.99321875
10
5.2588975
20
1.99131875
10
5.25699875
20
1.98942
10
5.2551
20
1.98562375
10
5.2551
20
1.97422875
10
5.25699875
20
1.9704325
10
5.2588975
20
1.96853375
10
5.262695
20
1.96663375
10
5.2683925
20
1.96663375
0
LWPOLYLINE
5
162
100
AcDbEntity
8
0
6
ByLayer
62
2
370
-1
100
AcDbPolyline
90
2
70
0
43
0
10
5.23801
20
1.96663375
10
5.23801
20
1.99321875
0
LWPOLYLINE
5
163
100
AcDbEntity
8
0
6
ByLayer
62
2
370
-1
100
AcDbPolyline
90
5
70
0
43
0
10
5.23801
20
1.98562375
10
5.2360025
20
1.98942
10
5.23410375
20
1.99131875
10
5.23030625
20
1.99321875
10
5.2265075
20
1.99321875
0
LWPOLYLINE
5
164
100
AcDbEntity
8
0
6
ByLayer
62
2
370
-1
100
AcDbPolyline
90
3
70
0
43
0
10
5.1884225
20
2.00661875
10
5.17507625
20
1.96663375
10
5.16178375
20
2.00661875
0
LWPOLYLINE
5
165
100
AcDbEntity
8
0
6
ByLayer
62
2
370
-1
100
AcDbPolyline
90
21
70
0
43
0
10
5.1407875
20
2.00661875
10
5.13699
20
2.00661875
10
5.1331925
20
2.00472
10
5.1312925
20
2.0027125
10
5.129395
20
1.998915
10
5.12749625
20
1.99131875
10
5.12749625
20
1.981825
10
5.129395
20
1.97422875
10
5.1312925
20
1.9704325
10
5.1331925
20
1.96853375
10
5.13699
20
1.96663375
10
5.1407875
20
1.96663375
10
5.144585
20
1.96853375
10
5.14648375
20
1.9704325
10
5.1483825
20
1.97422875
10
5.1502825
20
1.981825
10
5.1502825
20
1.99131875
10
5.1483825
20
1.998915
10
5.14648375
20
2.0027125
10
5.144585
20
2.00472
10
5.1407875
20
2.00661875
0
LWPOLYLINE
5
166
100
AcDbEntity
8
0
6
ByLayer
62
2
370
-1
100
AcDbPolyline
90
6
70
0
43
0
10
5.1102975
20
1.9704325
10
5.1083975
20
1.96853375
10
5.1102975
20
1.96663375
10
5.11219625
20
1.96853375
10
5.1102975
20
1.9704325
10
5.1102975
20
1.96663375
0
LWPOLYLINE
5
167
100
AcDbEntity
8
0
6
ByLayer
62
2
370
-1
100
AcDbPolyline
90
2
70
0
43
0
10
5.0703125
20
1.96663375
10
5.0932075
20
1.96663375
0
LWPOLYLINE
5
168
100
AcDbEntity
8
0
6
ByLayer
62
2
370
-1
100
AcDbPolyline
90
5
70
0
43
0
10
5.08181375
20
1.96663375
10
5.08181375
20
2.00661875
10
5.0856125
20
2.00081375
10
5.08941
20
1.99701625
10
5.0932075
20
1.9951175
0
LWPOLYLINE
5
169
100
AcDbEntity
8
0
6
ByLayer
62
2
370
-1
100
AcDbPolyline
90
5
70
0
43
0
10
5.76752375
20
1.92919875
10
5.75987375
20
1.902615
10
5.75222375
20
1.92160375
10
5.744575
20
1.902615
10
5.73697875
20
1.92919875
0
LWPOLYLINE
5
16A
100
AcDbEntity
8
0
6
ByLayer
62
2
370
-1
100
AcDbPolyline
90
5
70
0
43
0
10
5.72558625
20
1.92919875
10
5.71799
20
1.902615
10
5.71028625
20
1.92160375
10
5.70269125
20
1.902615
10
5.695095
20
1.92919875
0
LWPOLYLINE
5
16B
100
AcDbEntity
8
0
6
ByLayer
62
2
370
-1
100
AcDbPolyline
90
5
70
0
43
0
10
5.6837025
20
1.92919875
10
5.6759975
20
1.902615
10
5.6684025
20
1.92160375
10
5.6608075
20
1.902615
10
5.6532125
20
1.92919875
0
LWPOLYLINE
5
16C
100
AcDbEntity
8
0
6
ByLayer
62
2
370
-1
100
AcDbPolyline
90
6
70
0
43
0
10
5.63802125
20
1.90641375
10
5.6360125
20
1.90451375
10
5.63802125
20
1.902615
10
5.63992
20
1.90451375
10
5.63802125
20
1.90641375
10
5.63802125
20
1.902615
0
LWPOLYLINE
5
16D
100
AcDbEntity
8
0
6
ByLayer
62
2
370
-1
100
AcDbPolyline
90
2
70
0
43
0
10
5.61892375
20
1.902615
10
5.61892375
20
1.92919875
0
LWPOLYLINE
5
16E
100
AcDbEntity
8
0
6
ByLayer
62
2
370
-1
100
AcDbPolyline
90
6
70
0
43
0
10
5.61892375
20
1.9426
10
5.6208225
20
1.94070125
10
5.61892375
20
1.93869375
10
5.617025
20
1.94070125
10
5.61892375
20
1.9426
10
5.61892375
20
1.93869375
0
LWPOLYLINE
5
16F
100
AcDbEntity
8
0
6
ByLayer
62
2
370
-1
100
AcDbPolyline
90
17
70
0
43
0
10
5.59407625
20
1.902615
10
5.5978725
20
1.90451375
10
5.59988125
20
1.90641375
10
5.60178
20
1.91021
10
5.60178
20
1.92160375
10
5.59988125
20
1.92540125
10
5.5978725
20
1.9273
10
5.59407625
20
1.92919875
10
5.58837875
20
1.92919875
10
5.58458125
20
1.9273
10
5.5826825
20
1.92540125
10
5.5807825
20
1.92160375
10
5.5807825
20
1.91021
10
5.5826825
20
1.90641375
10
5.58458125
20
1.90451375
10
5.58837875
20
1.902615
10
5.59407625
20
1.902615
0
LWPOLYLINE
5
170
100
AcDbEntity
8
0
6
ByLayer
62
2
370
-1
100
AcDbPolyline
90
2
70
0
43
0
10
5.56369375
20
1.902615
10
5.56369375
20
1.92919875
0
LWPOLYLINE
5
171
100
AcDbEntity
8
0
6
ByLayer
62
2
370
-1
100
AcDbPolyline
90
5
70
0
43
0
10
5.56369375
20
1.92160375
10
5.561795
20
1.92540125
10
5.55989625
20
1.9273
10
5.55599
20
1.92919875
10
5.5521925
20
1.92919875
0
LWPOLYLINE
5
172
100
AcDbEntity
8
0
6
ByLayer
62
2
370
-1
100
AcDbPolyline
90
17
70
0
43
0
10
5.5332025
20
1.902615
10
5.53700125
20
1.90451375
10
5.5389
20
1.90641375
10
5.54079875
20
1.91021
10
5.54079875
20
1.92160375
10
5.5389
20
1.92540125
10
5.53700125
20
1.9273
10
5.5332025
20
1.92919875
10
5.52750625
20
1.92919875
10
5.52370875
20
1.9273
10
5.52181
20
1.92540125
10
5.51991125
20
1.92160375
10
5.51991125
20
1.91021
10
5.52181
20
1.90641375
10
5.52370875
20
1.90451375
10
5.52750625
20
1.902615
10
5.5332025
20
1.902615
0
LWPOLYLINE
5
173
100
AcDbEntity
8
0
6
ByLayer
62
2
370
-1
100
AcDbPolyline
90
2
70
0
43
0
10
5.4856225
20
1.902615
10
5.4856225
20
1.9426
0
LWPOLYLINE
5
174
100
AcDbEntity
8
0
6
ByLayer
62
2
370
-1
100
AcDbPolyline
90
12
70
0
43
0
10
5.4856225
20
1.90451375
10
5.48942125
20
1.902615
10
5.49701625
20
1.902615
10
5.50081375
20
1.90451375
10
5.5027125
20
1.90641375
10
5.5046125
20
1.91021
10
5.5046125
20
1.92160375
10
5.5027125
20
1.92540125
10
5.50081375
20
1.9273
10
5.49701625
20
1.92919875
10
5.48942125
20
1.92919875
10
5.4856225
20
1.9273
0
LWPOLYLINE
5
175
100
AcDbEntity
8
0
6
ByLayer
62
2
370
-1
100
AcDbPolyline
90
13
70
0
43
0
10
5.45128
20
1.90451375
10
5.4550775
20
1.902615
10
5.46267375
20
1.902615
10
5.46652625
20
1.90451375
10
5.46842375
20
1.90831125
10
5.46842375
20
1.9235025
10
5.46652625
20
1.9273
10
5.46267375
20
1.92919875
10
5.4550775
20
1.92919875
10
5.45128
20
1.9273
10
5.44938125
20
1.9235025
10
5.44938125
20
1.919705
10
5.46842375
20
1.9159075
0
LWPOLYLINE
5
176
100
AcDbEntity
8
0
6
ByLayer
62
2
370
-1
100
AcDbPolyline
90
17
70
0
43
0
10
5.4264875
20
1.902615
10
5.43028375
20
1.90451375
10
5.4321825
20
1.90641375
10
5.4340825
20
1.91021
10
5.4340825
20
1.92160375
10
5.4321825
20
1.92540125
10
5.43028375
20
1.9273
10
5.4264875
20
1.92919875
10
5.42079
20
1.92919875
10
5.4169925
20
1.9273
10
5.4150925
20
1.92540125
10
5.41319375
20
1.92160375
10
5.41319375
20
1.91021
10
5.4150925
20
1.90641375
10
5.4169925
20
1.90451375
10
5.42079
20
1.902615
10
5.4264875
20
1.902615
0
LWPOLYLINE
5
177
100
AcDbEntity
8
0
6
ByLayer
62
2
370
-1
100
AcDbPolyline
90
6
70
0
43
0
10
5.39599625
20
1.90641375
10
5.3940975
20
1.90451375
10
5.39599625
20
1.902615
10
5.3980025
20
1.90451375
10
5.39599625
20
1.90641375
10
5.39599625
20
1.902615
0
LWPOLYLINE
5
178
100
AcDbEntity
8
0
6
ByLayer
62
2
370
-1
100
AcDbPolyline
90
12
70
0
43
0
10
5.3599175
20
1.90451375
10
5.363715
20
1.902615
10
5.37131125
20
1.902615
10
5.3751075
20
1.90451375
10
5.3770075
20
1.90641375
10
5.37890625
20
1.91021
10
5.37890625
20
1.92160375
10
5.3770075
20
1.92540125
10
5.3751075
20
1.9273
10
5.37131125
20
1.92919875
10
5.363715
20
1.92919875
10
5.3599175
20
1.9273
0
LWPOLYLINE
5
179
100
AcDbEntity
8
0
6
ByLayer
62
2
370
-1
100
AcDbPolyline
90
17
70
0
43
0
10
5.3370225
20
1.902615
10
5.34082
20
1.90451375
10
5.34271875
20
1.90641375
10
5.3446175
20
1.91021
10
5.3446175
20
1.92160375
10
5.34271875
20
1.92540125
10
5.34082
20
1.9273
10
5.3370225
20
1.92919875
10
5.33132625
20
1.92919875
10
5.32747375
20
1.9273
10
5.325575
20
1.92540125
10
5.32367625
20
1.92160375
10
5.32367625
20
1.91021
10
5.325575
20
1.90641375
10
5.32747375
20
1.90451375
10
5.33132625
20
1.902615
10
5.3370225
20
1.902615
0
LWPOLYLINE
5
17A
100
AcDbEntity
8
0
6
ByLayer
62
2
370
-1
100
AcDbPolyline
90
2
70
0
43
0
10
5.3064775
20
1.902615
10
5.3064775
20
1.92919875
0
LWPOLYLINE
5
17B
100
AcDbEntity
8
0
6
ByLayer
62
2
370
-1
100
AcDbPolyline
90
7
70
0
43
0
10
5.3064775
20
1.92540125
10
5.30457875
20
1.9273
10
5.30078125
20
1.92919875
10
5.295085
20
1.92919875
10
5.2912875
20
1.9273
10
5.2893875
20
1.9235025
10
5.2893875
20
1.902615
0
LWPOLYLINE
5
17C
100
AcDbEntity
8
0
6
ByLayer
62
2
370
-1
100
AcDbPolyline
90
7
70
0
43
0
10
5.2893875
20
1.9235025
10
5.28748875
20
1.9273
10
5.28369125
20
1.92919875
10
5.277995
20
1.92919875
10
5.27408875
20
1.9273
10
5.27219
20
1.9235025
10
5.27219
20
1.902615
0
LWPOLYLINE
5
17D
100
AcDbEntity
8
0
6
ByLayer
62
2
370
-1
100
AcDbPolyline
90
2
70
0
43
0
10
0.34201375
20
1.6481125
10
0.5939125
20
1.6481125
0
LWPOLYLINE
5
17E
100
AcDbEntity
8
0
6
ByLayer
62
2
370
-1
100
AcDbPolyline
90
2
70
0
43
0
10
0.5939125
20
1.73079375
10
0.5939125
20
1.6481125
0
LWPOLYLINE
5
17F
100
AcDbEntity
8
0
6
ByLayer
62
2
370
-1
100
AcDbPolyline
90
2
70
0
43
0
10
0.34201375
20
1.73079375
10
0.34201375
20
1.6481125
0
LWPOLYLINE
5
180
100
AcDbEntity
8
0
6
ByLayer
62
2
370
-1
100
AcDbPolyline
90
4
70
0
43
0
10
0.5939125
20
2.2347
10
0.5939125
20
2.3174375
10
0.34201375
20
2.3174375
10
0.34201375
20
2.2347
0
LWPOLYLINE
5
181
100
AcDbEntity
8
0
6
ByLayer
62
2
370
-1
100
AcDbPolyline
90
4
70
0
43
0
10
0.6136075
20
2.14019125
10
0.64908875
20
2.16780625
10
0.64908875
20
2.11273875
10
0.6136075
20
2.14019125
0
LWPOLYLINE
5
182
100
AcDbEntity
8
0
6
ByLayer
62
2
370
-1
100
AcDbPolyline
90
5
70
0
43
0
10
0.34201375
20
2.2347
10
0.5939125
20
2.2347
10
0.5939125
20
1.73079375
10
0.34201375
20
1.73079375
10
0.34201375
20
2.2347
0
LWPOLYLINE
5
183
100
AcDbEntity
8
0
6
ByLayer
62
2
370
-1
100
AcDbPolyline
90
11
70
0
43
0
10
0.659125
20
1.71229375
10
0.61908625
20
1.71229375
10
0.61908625
20
1.69699375
10
0.620985
20
1.69319625
10
0.6229925
20
1.69129875
10
0.62679
20
1.68939875
10
0.6324875
20
1.68939875
10
0.636285
20
1.69129875
10
0.63818375
20
1.69319625
10
0.6400825
20
1.69699375
10
0.6400825
20
1.71229375
0
LWPOLYLINE
5
184
100
AcDbEntity
8
0
6
ByLayer
62
2
370
-1
100
AcDbPolyline
90
2
70
0
43
0
10
0.659125
20
1.65131375
10
0.659125
20
1.67420875
0
LWPOLYLINE
5
185
100
AcDbEntity
8
0
6
ByLayer
62
2
370
-1
100
AcDbPolyline
90
5
70
0
43
0
10
0.659125
20
1.66270625
10
0.61908625
20
1.66270625
10
0.62489125
20
1.6666125
10
0.62868875
20
1.67041
10
0.6305875
20
1.67420875
0
LWPOLYLINE
5
186
100
AcDbEntity
8
0
6
ByLayer
62
4
370
-1
100
AcDbPolyline
90
2
70
0
43
0
10
4.2479925
20
0.58273625
10
5.7879775
20
0.58273625
0
LWPOLYLINE
5
187
100
AcDbEntity
8
0
6
ByLayer
62
4
370
-1
100
AcDbPolyline
90
2
70
0
43
0
10
5.7879775
20
2.34271875
10
5.7879775
20
0.58273625
0
LWPOLYLINE
5
188
100
AcDbEntity
8
0
6
ByLayer
62
4
370
-1
100
AcDbPolyline
90
2
70
0
43
0
10
5.0180125
20
2.34271875
10
5.7879775
20
2.34271875
0
LWPOLYLINE
5
189
100
AcDbEntity
8
0
6
ByLayer
62
4
370
-1
100
AcDbPolyline
90
2
70
0
43
0
10
4.2479925
20
2.34271875
10
4.2479925
20
0.58273625
0
LWPOLYLINE
5
18A
100
AcDbEntity
8
0
6
ByLayer
62
4
370
-1
100
AcDbPolyline
90
2
70
0
43
0
10
5.0180125
20
2.34271875
10
4.2479925
20
2.34271875
0
LWPOLYLINE
5
18B
100
AcDbEntity
8
0
6
ByLayer
62
4
370
-1
100
AcDbPolyline
90
2
70
0
43
0
10
2.5979825
20
0.58273625
10
4.13802125
20
0.58273625
0
LWPOLYLINE
5
18C
100
AcDbEntity
8
0
6
ByLayer
62
4
370
-1
100
AcDbPolyline
90
2
70
0
43
0
10
4.13802125
20
2.34271875
10
4.13802125
20
0.58273625
0
LWPOLYLINE
5
18D
100
AcDbEntity
8
0
6
ByLayer
62
4
370
-1
100
AcDbPolyline
90
2
70
0
43
0
10
2.5979825
20
2.34271875
10
2.5979825
20
0.58273625
0
LWPOLYLINE
5
18E
100
AcDbEntity
8
0
6
ByLayer
62
4
370
-1
100
AcDbPolyline
90
2
70
0
43
0
10
3.37798375
20
2.34271875
10
4.13802125
20
2.34271875
0
LWPOLYLINE
5
18F
100
AcDbEntity
8
0
6
ByLayer
62
4
370
-1
100
AcDbPolyline
90
2
70
0
43
0
10
3.37798375
20
2.34271875
10
2.5979825
20
2.34271875
0
LWPOLYLINE
5
190
100
AcDbEntity
8
0
6
ByLayer
62
4
370
-1
100
AcDbPolyline
90
2
70
0
43
0
10
2.48801
20
2.34271875
10
2.48801
20
0.58273625
0
LWPOLYLINE
5
191
100
AcDbEntity
8
0
6
ByLayer
62
4
370
-1
100
AcDbPolyline
90
2
70
0
43
0
10
0.948025
20
2.34271875
10
0.948025
20
0.58273625
0
LWPOLYLINE
5
192
100
AcDbEntity
8
0
6
ByLayer
62
4
370
-1
100
AcDbPolyline
90
2
70
0
43
0
10
2.48801
20
2.34271875
10
0.948025
20
2.34271875
0
LWPOLYLINE
5
193
100
AcDbEntity
8
0
6
ByLayer
62
4
370
-1
100
AcDbPolyline
90
2
70
0
43
0
10
0.948025
20
0.58273625
10
0.948025
20
0.59271875
0
LWPOLYLINE
5
194
100
AcDbEntity
8
0
6
ByLayer
62
4
370
-1
100
AcDbPolyline
90
2
70
0
43
0
10
2.48801
20
0.58273625
10
0.948025
20
0.58273625
0
LWPOLYLINE
5
195
100
AcDbEntity
8
0
6
ByLayer
62
3
370
-1
100
AcDbPolyline
90
2
70
0
43
0
10
0.2930225
20
1.60769375
10
6.0430225
20
1.60769375
0
LWPOLYLINE
5
196
100
AcDbEntity
8
0
6
ByLayer
62
3
370
-1
100
AcDbPolyline
90
3
70
0
43
0
10
0.2930225
20
2.35769375
10
6.0430225
20
2.35769375
10
6.0430225
20
1.60769375
0
SPLINE
5
197
100
AcDbEntity
8
0
6
ByLayer
62
7
370
-1
100
AcDbSpline
210
0
220
0
230
1
70
8
71
3
72
8
73
4
74
0
42
1e-07
43
1e-07
40
0
40
0
40
0
40
0
40
1
40
1
40
1
40
1
10
4.05951625
20
2.032715
30
0
10
4.05951625
20
2.05474125
30
0
10
4.02647625
20
2.05474125
30
0
10
4.02647625
20
2.032715
30
0
0
SPLINE
5
198
100
AcDbEntity
8
0
6
ByLayer
62
7
370
-1
100
AcDbSpline
210
0
220
0
230
1
70
8
71
3
72
8
73
4
74
0
42
1e-07
43
1e-07
40
0
40
0
40
0
40
0
40
1
40
1
40
1
40
1
10
4.02647625
20
2.032715
30
0
10
4.02647625
20
2.0107425
30
0
10
4.05951625
20
2.0107425
30
0
10
4.05951625
20
2.032715
30
0
0
SPLINE
5
199
100
AcDbEntity
8
0
6
ByLayer
62
7
370
-1
100
AcDbSpline
210
0
220
0
230
1
70
8
71
3
72
8
73
4
74
0
42
1e-07
43
1e-07
40
0
40
0
40
0
40
0
40
1
40
1
40
1
40
1
10
4.10948375
20
2.032715
30
0
10
4.10948375
20
2.05474125
30
0
10
4.0764975
20
2.05474125
30
0
10
4.0764975
20
2.032715
30
0
0
SPLINE
5
19A
100
AcDbEntity
8
0
6
ByLayer
62
7
370
-1
100
AcDbSpline
210
0
220
0
230
1
70
8
71
3
72
8
73
4
74
0
42
1e-07
43
1e-07
40
0
40
0
40
0
40
0
40
1
40
1
40
1
40
1
10
4.0764975
20
2.032715
30
0
10
4.0764975
20
2.0107425
30
0
10
4.10948375
20
2.0107425
30
0
10
4.10948375
20
2.032715
30
0
0
SPLINE
5
19B
100
AcDbEntity
8
0
6
ByLayer
62
7
370
-1
100
AcDbSpline
210
0
220
0
230
1
70
8
71
3
72
8
73
4
74
0
42
1e-07
43
1e-07
40
0
40
0
40
0
40
0
40
1
40
1
40
1
40
1
10
4.159505
20
2.032715
30
0
10
4.159505
20
2.05474125
30
0
10
4.12651875
20
2.05474125
30
0
10
4.12651875
20
2.032715
30
0
0
SPLINE
5
19C
100
AcDbEntity
8
0
6
ByLayer
62
7
370
-1
100
AcDbSpline
210
0
220
0
230
1
70
8
71
3
72
8
73
4
74
0
42
1e-07
43
1e-07
40
0
40
0
40
0
40
0
40
1
40
1
40
1
40
1
10
4.12651875
20
2.032715
30
0
10
4.12651875
20
2.0107425
30
0
10
4.159505
20
2.0107425
30
0
10
4.159505
20
2.032715
30
0
0
LWPOLYLINE
5
19D
100
AcDbEntity
8
0
6
ByLayer
62
3
370
-1
100
AcDbPolyline
90
2
70
0
43
0
10
0.2930225
20
2.35769375
10
0.2930225
20
1.60769375
0
SPLINE
5
19E
100
AcDbEntity
8
0
6
ByLayer
62
7
370
-1
100
AcDbSpline
210
0
220
0
230
1
70
8
71
3
72
8
73
4
74
0
42
1e-07
43
1e-07
40
0
40
0
40
0
40
0
40
1
40
1
40
1
40
1
10
1.59798125
20
2.18272625
30
0
10
1.59798125
20
2.22271
30
0
10
1.5379775
20
2.22271
30
0
10
1.5379775
20
2.18272625
30
0
0
SPLINE
5
19F
100
AcDbEntity
8
0
6
ByLayer
62
7
370
-1
100
AcDbSpline
210
0
220
0
230
1
70
8
71
3
72
8
73
4
74
0
42
1e-07
43
1e-07
40
0
40
0
40
0
40
0
40
1
40
1
40
1
40
1
10
1.5379775
20
2.18272625
30
0
10
1.5379775
20
2.14274125
30
0
10
1.59798125
20
2.14274125
30
0
10
1.59798125
20
2.18272625
30
0
0
SPLINE
5
1A0
100
AcDbEntity
8
0
6
ByLayer
62
7
370
-1
100
AcDbSpline
210
0
220
0
230
1
70
8
71
3
72
8
73
4
74
0
42
1e-07
43
1e-07
40
0
40
0
40
0
40
0
40
1
40
1
40
1
40
1
10
1.698025
20
2.18272625
30
0
10
1.698025
20
2.22271
30
0
10
1.63802125
20
2.22271
30
0
10
1.63802125
20
2.18272625
30
0
0
SPLINE
5
1A1
100
AcDbEntity
8
0
6
ByLayer
62
7
370
-1
100
AcDbSpline
210
0
220
0
230
1
70
8
71
3
72
8
73
4
74
0
42
1e-07
43
1e-07
40
0
40
0
40
0
40
0
40
1
40
1
40
1
40
1
10
1.63802125
20
2.18272625
30
0
10
1.63802125
20
2.14274125
30
0
10
1.698025
20
2.14274125
30
0
10
1.698025
20
2.18272625
30
0
0
SPLINE
5
1A2
100
AcDbEntity
8
0
6
ByLayer
62
7
370
-1
100
AcDbSpline
210
0
220
0
230
1
70
8
71
3
72
8
73
4
74
0
42
1e-07
43
1e-07
40
0
40
0
40
0
40
0
40
1
40
1
40
1
40
1
10
1.79801375
20
2.18272625
30
0
10
1.79801375
20
2.22271
30
0
10
1.73801
20
2.22271
30
0
10
1.73801
20
2.18272625
30
0
0
SPLINE
5
1A3
100
AcDbEntity
8
0
6
ByLayer
62
7
370
-1
100
AcDbSpline
210
0
220
0
230
1
70
8
71
3
72
8
73
4
74
0
42
1e-07
43
1e-07
40
0
40
0
40
0
40
0
40
1
40
1
40
1
40
1
10
1.73801
20
2.18272625
30
0
10
1.73801
20
2.14274125
30
0
10
1.79801375
20
2.14274125
30
0
10
1.79801375
20
2.18272625
30
0
0
SPLINE
5
1A4
100
AcDbEntity
8
0
6
ByLayer
62
7
370
-1
100
AcDbSpline
210
0
220
0
230
1
70
8
71
3
72
8
73
4
74
0
42
1e-07
43
1e-07
40
0
40
0
40
0
40
0
40
1
40
1
40
1
40
1
10
1.89800375
20
2.18272625
30
0
10
1.89800375
20
2.22271
30
0
10
1.83799875
20
2.22271
30
0
10
1.83799875
20
2.18272625
30
0
0
SPLINE
5
1A5
100
AcDbEntity
8
0
6
ByLayer
62
7
370
-1
100
AcDbSpline
210
0
220
0
230
1
70
8
71
3
72
8
73
4
74
0
42
1e-07
43
1e-07
40
0
40
0
40
0
40
0
40
1
40
1
40
1
40
1
10
1.83799875
20
2.18272625
30
0
10
1.83799875
20
2.14274125
30
0
10
1.89800375
20
2.14274125
30
0
10
1.89800375
20
2.18272625
30
0
0
SPLINE
5
1A6
100
AcDbEntity
8
0
6
ByLayer
62
7
370
-1
100
AcDbSpline
210
0
220
0
230
1
70
8
71
3
72
8
73
4
74
0
42
1e-07
43
1e-07
40
0
40
0
40
0
40
0
40
1
40
1
40
1
40
1
10
1.9979925
20
2.18272625
30
0
10
1.9979925
20
2.22271
30
0
10
1.93798875
20
2.22271
30
0
10
1.93798875
20
2.18272625
30
0
0
SPLINE
5
1A7
100
AcDbEntity
8
0
6
ByLayer
62
7
370
-1
100
AcDbSpline
210
0
220
0
230
1
70
8
71
3
72
8
73
4
74
0
42
1e-07
43
1e-07
40
0
40
0
40
0
40
0
40
1
40
1
40
1
40
1
10
1.93798875
20
2.18272625
30
0
10
1.93798875
20
2.14274125
30
0
10
1.9979925
20
2.14274125
30
0
10
1.9979925
20
2.18272625
30
0
0
LWPOLYLINE
5
1A8
100
AcDbEntity
8
0
6
ByLayer
62
7
370
-1
100
AcDbPolyline
90
5
70
0
43
0
10
1.43798875
20
2.15272375
10
1.4979925
20
2.15272375
10
1.4979925
20
2.2127275
10
1.43798875
20
2.2127275
10
1.43798875
20
2.15272375
0
SPLINE
5
1A9
100
AcDbEntity
8
0
6
ByLayer
62
7
370
-1
100
AcDbSpline
210
0
220
0
230
1
70
8
71
3
72
8
73
4
74
0
42
1e-07
43
1e-07
40
0
40
0
40
0
40
0
40
1
40
1
40
1
40
1
10
3.2479925
20
2.18272625
30
0
10
3.2479925
20
2.22271
30
0
10
3.18798875
20
2.22271
30
0
10
3.18798875
20
2.18272625
30
0
0
SPLINE
5
1AA
100
AcDbEntity
8
0
6
ByLayer
62
7
370
-1
100
AcDbSpline
210
0
220
0
230
1
70
8
71
3
72
8
73
4
74
0
42
1e-07
43
1e-07
40
0
40
0
40
0
40
0
40
1
40
1
40
1
40
1
10
3.18798875
20
2.18272625
30
0
10
3.18798875
20
2.14274125
30
0
10
3.2479925
20
2.14274125
30
0
10
3.2479925
20
2.18272625
30
0
0
SPLINE
5
1AB
100
AcDbEntity
8
0
6
ByLayer
62
7
370
-1
100
AcDbSpline
210
0
220
0
230
1
70
8
71
3
72
8
73
4
74
0
42
1e-07
43
1e-07
40
0
40
0
40
0
40
0
40
1
40
1
40
1
40
1
10
3.34798125
20
2.18272625
30
0
10
3.34798125
20
2.22271
30
0
10
3.2879775
20
2.22271
30
0
10
3.2879775
20
2.18272625
30
0
0
SPLINE
5
1AC
100
AcDbEntity
8
0
6
ByLayer
62
7
370
-1
100
AcDbSpline
210
0
220
0
230
1
70
8
71
3
72
8
73
4
74
0
42
1e-07
43
1e-07
40
0
40
0
40
0
40
0
40
1
40
1
40
1
40
1
10
3.2879775
20
2.18272625
30
0
10
3.2879775
20
2.14274125
30
0
10
3.34798125
20
2.14274125
30
0
10
3.34798125
20
2.18272625
30
0
0
SPLINE
5
1AD
100
AcDbEntity
8
0
6
ByLayer
62
7
370
-1
100
AcDbSpline
210
0
220
0
230
1
70
8
71
3
72
8
73
4
74
0
42
1e-07
43
1e-07
40
0
40
0
40
0
40
0
40
1
40
1
40
1
40
1
10
3.448025
20
2.18272625
30
0
10
3.448025
20
2.22271
30
0
10
3.38802125
20
2.22271
30
0
10
3.38802125
20
2.18272625
30
0
0
SPLINE
5
1AE
100
AcDbEntity
8
0
6
ByLayer
62
7
370
-1
100
AcDbSpline
210
0
220
0
230
1
70
8
71
3
72
8
73
4
74
0
42
1e-07
43
1e-07
40
0
40
0
40
0
40
0
40
1
40
1
40
1
40
1
10
3.38802125
20
2.18272625
30
0
10
3.38802125
20
2.14274125
30
0
10
3.448025
20
2.14274125
30
0
10
3.448025
20
2.18272625
30
0
0
SPLINE
5
1AF
100
AcDbEntity
8
0
6
ByLayer
62
7
370
-1
100
AcDbSpline
210
0
220
0
230
1
70
8
71
3
72
8
73
4
74
0
42
1e-07
43
1e-07
40
0
40
0
40
0
40
0
40
1
40
1
40
1
40
1
10
3.54801375
20
2.18272625
30
0
10
3.54801375
20
2.22271
30
0
10
3.48801
20
2.22271
30
0
10
3.48801
20
2.18272625
30
0
0
SPLINE
5
1B0
100
AcDbEntity
8
0
6
ByLayer
62
7
370
-1
100
AcDbSpline
210
0
220
0
230
1
70
8
71
3
72
8
73
4
74
0
42
1e-07
43
1e-07
40
0
40
0
40
0
40
0
40
1
40
1
40
1
40
1
10
3.48801
20
2.18272625
30
0
10
3.48801
20
2.14274125
30
0
10
3.54801375
20
2.14274125
30
0
10
3.54801375
20
2.18272625
30
0
0
SPLINE
5
1B1
100
AcDbEntity
8
0
6
ByLayer
62
7
370
-1
100
AcDbSpline
210
0
220
0
230
1
70
8
71
3
72
8
73
4
74
0
42
1e-07
43
1e-07
40
0
40
0
40
0
40
0
40
1
40
1
40
1
40
1
10
3.64800375
20
2.18272625
30
0
10
3.64800375
20
2.22271
30
0
10
3.58799875
20
2.22271
30
0
10
3.58799875
20
2.18272625
30
0
0
SPLINE
5
1B2
100
AcDbEntity
8
0
6
ByLayer
62
7
370
-1
100
AcDbSpline
210
0
220
0
230
1
70
8
71
3
72
8
73
4
74
0
42
1e-07
43
1e-07
40
0
40
0
40
0
40
0
40
1
40
1
40
1
40
1
10
3.58799875
20
2.18272625
30
0
10
3.58799875
20
2.14274125
30
0
10
3.64800375
20
2.14274125
30
0
10
3.64800375
20
2.18272625
30
0
0
LWPOLYLINE
5
1B3
100
AcDbEntity
8
0
6
ByLayer
62
7
370
-1
100
AcDbPolyline
90
5
70
0
43
0
10
3.08799875
20
2.15272375
10
3.14800375
20
2.15272375
10
3.14800375
20
2.2127275
10
3.08799875
20
2.2127275
10
3.08799875
20
2.15272375
0
SPLINE
5
1B4
100
AcDbEntity
8
0
6
ByLayer
62
7
370
-1
100
AcDbSpline
210
0
220
0
230
1
70
8
71
3
72
8
73
4
74
0
42
1e-07
43
1e-07
40
0
40
0
40
0
40
0
40
1
40
1
40
1
40
1
10
4.89800375
20
2.18272625
30
0
10
4.89800375
20
2.22271
30
0
10
4.83799875
20
2.22271
30
0
10
4.83799875
20
2.18272625
30
0
0
SPLINE
5
1B5
100
AcDbEntity
8
0
6
ByLayer
62
7
370
-1
100
AcDbSpline
210
0
220
0
230
1
70
8
71
3
72
8
73
4
74
0
42
1e-07
43
1e-07
40
0
40
0
40
0
40
0
40
1
40
1
40
1
40
1
10
4.83799875
20
2.18272625
30
0
10
4.83799875
20
2.14274125
30
0
10
4.89800375
20
2.14274125
30
0
10
4.89800375
20
2.18272625
30
0
0
SPLINE
5
1B6
100
AcDbEntity
8
0
6
ByLayer
62
7
370
-1
100
AcDbSpline
210
0
220
0
230
1
70
8
71
3
72
8
73
4
74
0
42
1e-07
43
1e-07
40
0
40
0
40
0
40
0
40
1
40
1
40
1
40
1
10
4.9979925
20
2.18272625
30
0
10
4.9979925
20
2.22271
30
0
10
4.93798875
20
2.22271
30
0
10
4.93798875
20
2.18272625
30
0
0
SPLINE
5
1B7
100
AcDbEntity
8
0
6
ByLayer
62
7
370
-1
100
AcDbSpline
210
0
220
0
230
1
70
8
71
3
72
8
73
4
74
0
42
1e-07
43
1e-07
40
0
40
0
40
0
40
0
40
1
40
1
40
1
40
1
10
4.93798875
20
2.18272625
30
0
10
4.93798875
20
2.14274125
30
0
10
4.9979925
20
2.14274125
30
0
10
4.9979925
20
2.18272625
30
0
0
SPLINE
5
1B8
100
AcDbEntity
8
0
6
ByLayer
62
7
370
-1
100
AcDbSpline
210
0
220
0
230
1
70
8
71
3
72
8
73
4
74
0
42
1e-07
43
1e-07
40
0
40
0
40
0
40
0
40
1
40
1
40
1
40
1
10
5.09798125
20
2.18272625
30
0
10
5.09798125
20
2.22271
30
0
10
5.0379775
20
2.22271
30
0
10
5.0379775
20
2.18272625
30
0
0
SPLINE
5
1B9
100
AcDbEntity
8
0
6
ByLayer
62
7
370
-1
100
AcDbSpline
210
0
220
0
230
1
70
8
71
3
72
8
73
4
74
0
42
1e-07
43
1e-07
40
0
40
0
40
0
40
0
40
1
40
1
40
1
40
1
10
5.0379775
20
2.18272625
30
0
10
5.0379775
20
2.14274125
30
0
10
5.09798125
20
2.14274125
30
0
10
5.09798125
20
2.18272625
30
0
0
SPLINE
5
1BA
100
AcDbEntity
8
0
6
ByLayer
62
7
370
-1
100
AcDbSpline
210
0
220
0
230
1
70
8
71
3
72
8
73
4
74
0
42
1e-07
43
1e-07
40
0
40
0
40
0
40
0
40
1
40
1
40
1
40
1
10
5.198025
20
2.18272625
30
0
10
5.198025
20
2.22271
30
0
10
5.13802125
20
2.22271
30
0
10
5.13802125
20
2.18272625
30
0
0
SPLINE
5
1BB
100
AcDbEntity
8
0
6
ByLayer
62
7
370
-1
100
AcDbSpline
210
0
220
0
230
1
70
8
71
3
72
8
73
4
74
0
42
1e-07
43
1e-07
40
0
40
0
40
0
40
0
40
1
40
1
40
1
40
1
10
5.13802125
20
2.18272625
30
0
10
5.13802125
20
2.14274125
30
0
10
5.198025
20
2.14274125
30
0
10
5.198025
20
2.18272625
30
0
0
SPLINE
5
1BC
100
AcDbEntity
8
0
6
ByLayer
62
7
370
-1
100
AcDbSpline
210
0
220
0
230
1
70
8
71
3
72
8
73
4
74
0
42
1e-07
43
1e-07
40
0
40
0
40
0
40
0
40
1
40
1
40
1
40
1
10
5.29801375
20
2.18272625
30
0
10
5.29801375
20
2.22271
30
0
10
5.23801
20
2.22271
30
0
10
5.23801
20
2.18272625
30
0
0
SPLINE
5
1BD
100
AcDbEntity
8
0
6
ByLayer
62
7
370
-1
100
AcDbSpline
210
0
220
0
230
1
70
8
71
3
72
8
73
4
74
0
42
1e-07
43
1e-07
40
0
40
0
40
0
40
0
40
1
40
1
40
1
40
1
10
5.23801
20
2.18272625
30
0
10
5.23801
20
2.14274125
30
0
10
5.29801375
20
2.14274125
30
0
10
5.29801375
20
2.18272625
30
0
0
SPLINE
5
1BE
100
AcDbEntity
8
0
6
ByLayer
62
7
370
-1
100
AcDbSpline
210
0
220
0
230
1
70
8
71
3
72
8
73
4
74
0
42
1e-07
43
1e-07
40
0
40
0
40
0
40
0
40
1
40
1
40
1
40
1
10
1.4954975
20
1.98269375
30
0
10
1.4954975
20
2.01936875
30
0
10
1.44048375
20
2.01936875
30
0
10
1.44048375
20
1.98269375
30
0
0
SPLINE
5
1BF
100
AcDbEntity
8
0
6
ByLayer
62
7
370
-1
100
AcDbSpline
210
0
220
0
230
1
70
8
71
3
72
8
73
4
74
0
42
1e-07
43
1e-07
40
0
40
0
40
0
40
0
40
1
40
1
40
1
40
1
10
1.44048375
20
1.98269375
30
0
10
1.44048375
20
1.9460725
30
0
10
1.4954975
20
1.9460725
30
0
10
1.4954975
20
1.98269375
30
0
0
SPLINE
5
1C0
100
AcDbEntity
8
0
6
ByLayer
62
7
370
-1
100
AcDbSpline
210
0
220
0
230
1
70
8
71
3
72
8
73
4
74
0
42
1e-07
43
1e-07
40
0
40
0
40
0
40
0
40
1
40
1
40
1
40
1
10
1.59548625
20
1.98269375
30
0
10
1.59548625
20
2.01936875
30
0
10
1.5404725
20
2.01936875
30
0
10
1.5404725
20
1.98269375
30
0
0
SPLINE
5
1C1
100
AcDbEntity
8
0
6
ByLayer
62
7
370
-1
100
AcDbSpline
210
0
220
0
230
1
70
8
71
3
72
8
73
4
74
0
42
1e-07
43
1e-07
40
0
40
0
40
0
40
0
40
1
40
1
40
1
40
1
10
1.5404725
20
1.98269375
30
0
10
1.5404725
20
1.9460725
30
0
10
1.59548625
20
1.9460725
30
0
10
1.59548625
20
1.98269375
30
0
0
SPLINE
5
1C2
100
AcDbEntity
8
0
6
ByLayer
62
7
370
-1
100
AcDbSpline
210
0
220
0
230
1
70
8
71
3
72
8
73
4
74
0
42
1e-07
43
1e-07
40
0
40
0
40
0
40
0
40
1
40
1
40
1
40
1
10
1.4954975
20
1.782715
30
0
10
1.4954975
20
1.81939
30
0
10
1.44048375
20
1.81939
30
0
10
1.44048375
20
1.782715
30
0
0
SPLINE
5
1C3
100
AcDbEntity
8
0
6
ByLayer
62
7
370
-1
100
AcDbSpline
210
0
220
0
230
1
70
8
71
3
72
8
73
4
74
0
42
1e-07
43
1e-07
40
0
40
0
40
0
40
0
40
1
40
1
40
1
40
1
10
1.44048375
20
1.782715
30
0
10
1.44048375
20
1.74604
30
0
10
1.4954975
20
1.74604
30
0
10
1.4954975
20
1.782715
30
0
0
SPLINE
5
1C4
100
AcDbEntity
8
0
6
ByLayer
62
7
370
-1
100
AcDbSpline
210
0
220
0
230
1
70
8
71
3
72
8
73
4
74
0
42
1e-07
43
1e-07
40
0
40
0
40
0
40
0
40
1
40
1
40
1
40
1
10
1.59548625
20
1.782715
30
0
10
1.59548625
20
1.81939
30
0
10
1.5404725
20
1.81939
30
0
10
1.5404725
20
1.782715
30
0
0
SPLINE
5
1C5
100
AcDbEntity
8
0
6
ByLayer
62
7
370
-1
100
AcDbSpline
210
0
220
0
230
1
70
8
71
3
72
8
73
4
74
0
42
1e-07
43
1e-07
40
0
40
0
40
0
40
0
40
1
40
1
40
1
40
1
10
1.5404725
20
1.782715
30
0
10
1.5404725
20
1.74604
30
0
10
1.59548625
20
1.74604
30
0
10
1.59548625
20
1.782715
30
0
0
SPLINE
5
1C6
100
AcDbEntity
8
0
6
ByLayer
62
7
370
-1
100
AcDbSpline
210
0
220
0
230
1
70
8
71
3
72
8
73
4
74
0
42
1e-07
43
1e-07
40
0
40
0
40
0
40
0
40
1
40
1
40
1
40
1
10
3.1455075
20
1.98269375
30
0
10
3.1455075
20
2.01936875
30
0
10
3.090495
20
2.01936875
30
0
10
3.090495
20
1.98269375
30
0
0
SPLINE
5
1C7
100
AcDbEntity
8
0
6
ByLayer
62
7
370
-1
100
AcDbSpline
210
0
220
0
230
1
70
8
71
3
72
8
73
4
74
0
42
1e-07
43
1e-07
40
0
40
0
40
0
40
0
40
1
40
1
40
1
40
1
10
3.090495
20
1.98269375
30
0
10
3.090495
20
1.9460725
30
0
10
3.1455075
20
1.9460725
30
0
10
3.1455075
20
1.98269375
30
0
0
SPLINE
5
1C8
100
AcDbEntity
8
0
6
ByLayer
62
7
370
-1
100
AcDbSpline
210
0
220
0
230
1
70
8
71
3
72
8
73
4
74
0
42
1e-07
43
1e-07
40
0
40
0
40
0
40
0
40
1
40
1
40
1
40
1
10
3.2454975
20
1.98269375
30
0
10
3.2454975
20
2.01936875
30
0
10
3.19048375
20
2.01936875
30
0
10
3.19048375
20
1.98269375
30
0
0
SPLINE
5
1C9
100
AcDbEntity
8
0
6
ByLayer
62
7
370
-1
100
AcDbSpline
210
0
220
0
230
1
70
8
71
3
72
8
73
4
74
0
42
1e-07
43
1e-07
40
0
40
0
40
0
40
0
40
1
40
1
40
1
40
1
10
3.19048375
20
1.98269375
30
0
10
3.19048375
20
1.9460725
30
0
10
3.2454975
20
1.9460725
30
0
10
3.2454975
20
1.98269375
30
0
0
SPLINE
5
1CA
100
AcDbEntity
8
0
6
ByLayer
62
7
370
-1
100
AcDbSpline
210
0
220
0
230
1
70
8
71
3
72
8
73
4
74
0
42
1e-07
43
1e-07
40
0
40
0
40
0
40
0
40
1
40
1
40
1
40
1
10
3.1455075
20
1.782715
30
0
10
3.1455075
20
1.81939
30
0
10
3.090495
20
1.81939
30
0
10
3.090495
20
1.782715
30
0
0
SPLINE
5
1CB
100
AcDbEntity
8
0
6
ByLayer
62
7
370
-1
100
AcDbSpline
210
0
220
0
230
1
70
8
71
3
72
8
73
4
74
0
42
1e-07
43
1e-07
40
0
40
0
40
0
40
0
40
1
40
1
40
1
40
1
10
3.090495
20
1.782715
30
0
10
3.090495
20
1.74604
30
0
10
3.1455075
20
1.74604
30
0
10
3.1455075
20
1.782715
30
0
0
SPLINE
5
1CC
100
AcDbEntity
8
0
6
ByLayer
62
7
370
-1
100
AcDbSpline
210
0
220
0
230
1
70
8
71
3
72
8
73
4
74
0
42
1e-07
43
1e-07
40
0
40
0
40
0
40
0
40
1
40
1
40
1
40
1
10
3.2454975
20
1.782715
30
0
10
3.2454975
20
1.81939
30
0
10
3.19048375
20
1.81939
30
0
10
3.19048375
20
1.782715
30
0
0
SPLINE
5
1CD
100
AcDbEntity
8
0
6
ByLayer
62
7
370
-1
100
AcDbSpline
210
0
220
0
230
1
70
8
71
3
72
8
73
4
74
0
42
1e-07
43
1e-07
40
0
40
0
40
0
40
0
40
1
40
1
40
1
40
1
10
3.19048375
20
1.782715
30
0
10
3.19048375
20
1.74604
30
0
10
3.2454975
20
1.74604
30
0
10
3.2454975
20
1.782715
30
0
0
SPLINE
5
1CE
100
AcDbEntity
8
0
6
ByLayer
62
7
370
-1
100
AcDbSpline
210
0
220
0
230
1
70
8
71
3
72
8
73
4
74
0
42
1e-07
43
1e-07
40
0
40
0
40
0
40
0
40
1
40
1
40
1
40
1
10
4.070475
20
1.75770375
30
0
10
4.070475
20
1.79437875
30
0
10
4.01551625
20
1.79437875
30
0
10
4.01551625
20
1.75770375
30
0
0
SPLINE
5
1CF
100
AcDbEntity
8
0
6
ByLayer
62
7
370
-1
100
AcDbSpline
210
0
220
0
230
1
70
8
71
3
72
8
73
4
74
0
42
1e-07
43
1e-07
40
0
40
0
40
0
40
0
40
1
40
1
40
1
40
1
10
4.01551625
20
1.75770375
30
0
10
4.01551625
20
1.72102875
30
0
10
4.070475
20
1.72102875
30
0
10
4.070475
20
1.75770375
30
0
0
SPLINE
5
1D0
100
AcDbEntity
8
0
6
ByLayer
62
7
370
-1
100
AcDbSpline
210
0
220
0
230
1
70
8
71
3
72
8
73
4
74
0
42
1e-07
43
1e-07
40
0
40
0
40
0
40
0
40
1
40
1
40
1
40
1
10
4.17051875
20
1.75770375
30
0
10
4.17051875
20
1.79437875
30
0
10
4.11550625
20
1.79437875
30
0
10
4.11550625
20
1.75770375
30
0
0
SPLINE
5
1D1
100
AcDbEntity
8
0
6
ByLayer
62
7
370
-1
100
AcDbSpline
210
0
220
0
230
1
70
8
71
3
72
8
73
4
74
0
42
1e-07
43
1e-07
40
0
40
0
40
0
40
0
40
1
40
1
40
1
40
1
10
4.11550625
20
1.75770375
30
0
10
4.11550625
20
1.72102875
30
0
10
4.17051875
20
1.72102875
30
0
10
4.17051875
20
1.75770375
30
0
0
SPLINE
5
1D2
100
AcDbEntity
8
0
6
ByLayer
62
7
370
-1
100
AcDbSpline
210
0
220
0
230
1
70
8
71
3
72
8
73
4
74
0
42
1e-07
43
1e-07
40
0
40
0
40
0
40
0
40
1
40
1
40
1
40
1
10
4.79551875
20
1.98269375
30
0
10
4.79551875
20
2.01936875
30
0
10
4.74050625
20
2.01936875
30
0
10
4.74050625
20
1.98269375
30
0
0
SPLINE
5
1D3
100
AcDbEntity
8
0
6
ByLayer
62
7
370
-1
100
AcDbSpline
210
0
220
0
230
1
70
8
71
3
72
8
73
4
74
0
42
1e-07
43
1e-07
40
0
40
0
40
0
40
0
40
1
40
1
40
1
40
1
10
4.74050625
20
1.98269375
30
0
10
4.74050625
20
1.9460725
30
0
10
4.79551875
20
1.9460725
30
0
10
4.79551875
20
1.98269375
30
0
0
SPLINE
5
1D4
100
AcDbEntity
8
0
6
ByLayer
62
7
370
-1
100
AcDbSpline
210
0
220
0
230
1
70
8
71
3
72
8
73
4
74
0
42
1e-07
43
1e-07
40
0
40
0
40
0
40
0
40
1
40
1
40
1
40
1
10
4.8955075
20
1.98269375
30
0
10
4.8955075
20
2.01936875
30
0
10
4.840495
20
2.01936875
30
0
10
4.840495
20
1.98269375
30
0
0
SPLINE
5
1D5
100
AcDbEntity
8
0
6
ByLayer
62
7
370
-1
100
AcDbSpline
210
0
220
0
230
1
70
8
71
3
72
8
73
4
74
0
42
1e-07
43
1e-07
40
0
40
0
40
0
40
0
40
1
40
1
40
1
40
1
10
4.840495
20
1.98269375
30
0
10
4.840495
20
1.9460725
30
0
10
4.8955075
20
1.9460725
30
0
10
4.8955075
20
1.98269375
30
0
0
SPLINE
5
1D6
100
AcDbEntity
8
0
6
ByLayer
62
7
370
-1
100
AcDbSpline
210
0
220
0
230
1
70
8
71
3
72
8
73
4
74
0
42
1e-07
43
1e-07
40
0
40
0
40
0
40
0
40
1
40
1
40
1
40
1
10
4.79551875
20
1.782715
30
0
10
4.79551875
20
1.81939
30
0
10
4.74050625
20
1.81939
30
0
10
4.74050625
20
1.782715
30
0
0
SPLINE
5
1D7
100
AcDbEntity
8
0
6
ByLayer
62
7
370
-1
100
AcDbSpline
210
0
220
0
230
1
70
8
71
3
72
8
73
4
74
0
42
1e-07
43
1e-07
40
0
40
0
40
0
40
0
40
1
40
1
40
1
40
1
10
4.74050625
20
1.782715
30
0
10
4.74050625
20
1.74604
30
0
10
4.79551875
20
1.74604
30
0
10
4.79551875
20
1.782715
30
0
0
SPLINE
5
1D8
100
AcDbEntity
8
0
6
ByLayer
62
7
370
-1
100
AcDbSpline
210
0
220
0
230
1
70
8
71
3
72
8
73
4
74
0
42
1e-07
43
1e-07
40
0
40
0
40
0
40
0
40
1
40
1
40
1
40
1
10
4.8955075
20
1.782715
30
0
10
4.8955075
20
1.81939
30
0
10
4.840495
20
1.81939
30
0
10
4.840495
20
1.782715
30
0
0
SPLINE
5
1D9
100
AcDbEntity
8
0
6
ByLayer
62
7
370
-1
100
AcDbSpline
210
0
220
0
230
1
70
8
71
3
72
8
73
4
74
0
42
1e-07
43
1e-07
40
0
40
0
40
0
40
0
40
1
40
1
40
1
40
1
10
4.840495
20
1.782715
30
0
10
4.840495
20
1.74604
30
0
10
4.8955075
20
1.74604
30
0
10
4.8955075
20
1.782715
30
0
0
SPLINE
5
1DA
100
AcDbEntity
8
0
6
ByLayer
62
7
370
-1
100
AcDbSpline
210
0
220
0
230
1
70
8
71
3
72
8
73
4
74
0
42
1e-07
43
1e-07
40
0
40
0
40
0
40
0
40
1
40
1
40
1
40
1
10
0.53190125
20
2.14019125
30
0
10
0.53190125
20
2.17301375
30
0
10
0.48269375
20
2.17301375
30
0
10
0.48269375
20
2.14019125
30
0
0
SPLINE
5
1DB
100
AcDbEntity
8
0
6
ByLayer
62
7
370
-1
100
AcDbSpline
210
0
220
0
230
1
70
8
71
3
72
8
73
4
74
0
42
1e-07
43
1e-07
40
0
40
0
40
0
40
0
40
1
40
1
40
1
40
1
10
0.48269375
20
2.14019125
30
0
10
0.48269375
20
2.1074225
30
0
10
0.53190125
20
2.1074225
30
0
10
0.53190125
20
2.14019125
30
0
0
SPLINE
5
1DC
100
AcDbEntity
8
0
6
ByLayer
62
7
370
-1
100
AcDbSpline
210
0
220
0
230
1
70
8
71
3
72
8
73
4
74
0
42
1e-07
43
1e-07
40
0
40
0
40
0
40
0
40
1
40
1
40
1
40
1
10
0.45317875
20
2.14019125
30
0
10
0.45317875
20
2.17301375
30
0
10
0.40397125
20
2.17301375
30
0
10
0.40397125
20
2.14019125
30
0
0
SPLINE
5
1DD
100
AcDbEntity
8
0
6
ByLayer
62
7
370
-1
100
AcDbSpline
210
0
220
0
230
1
70
8
71
3
72
8
73
4
74
0
42
1e-07
43
1e-07
40
0
40
0
40
0
40
0
40
1
40
1
40
1
40
1
10
0.40397125
20
2.14019125
30
0
10
0.40397125
20
2.1074225
30
0
10
0.45317875
20
2.1074225
30
0
10
0.45317875
20
2.14019125
30
0
0
SPLINE
5
1DE
100
AcDbEntity
8
0
6
ByLayer
62
7
370
-1
100
AcDbSpline
210
0
220
0
230
1
70
8
71
3
72
8
73
4
74
0
42
1e-07
43
1e-07
40
0
40
0
40
0
40
0
40
1
40
1
40
1
40
1
10
0.53190125
20
2.06152375
30
0
10
0.53190125
20
2.09434625
30
0
10
0.48269375
20
2.09434625
30
0
10
0.48269375
20
2.06152375
30
0
0
SPLINE
5
1DF
100
AcDbEntity
8
0
6
ByLayer
62
7
370
-1
100
AcDbSpline
210
0
220
0
230
1
70
8
71
3
72
8
73
4
74
0
42
1e-07
43
1e-07
40
0
40
0
40
0
40
0
40
1
40
1
40
1
40
1
10
0.48269375
20
2.06152375
30
0
10
0.48269375
20
2.0287
30
0
10
0.53190125
20
2.0287
30
0
10
0.53190125
20
2.06152375
30
0
0
SPLINE
5
1E0
100
AcDbEntity
8
0
6
ByLayer
62
7
370
-1
100
AcDbSpline
210
0
220
0
230
1
70
8
71
3
72
8
73
4
74
0
42
1e-07
43
1e-07
40
0
40
0
40
0
40
0
40
1
40
1
40
1
40
1
10
0.45317875
20
2.06152375
30
0
10
0.45317875
20
2.09434625
30
0
10
0.40397125
20
2.09434625
30
0
10
0.40397125
20
2.06152375
30
0
0
SPLINE
5
1E1
100
AcDbEntity
8
0
6
ByLayer
62
7
370
-1
100
AcDbSpline
210
0
220
0
230
1
70
8
71
3
72
8
73
4
74
0
42
1e-07
43
1e-07
40
0
40
0
40
0
40
0
40
1
40
1
40
1
40
1
10
0.40397125
20
2.06152375
30
0
10
0.40397125
20
2.0287
30
0
10
0.45317875
20
2.0287
30
0
10
0.45317875
20
2.06152375
30
0
0
SPLINE
5
1E2
100
AcDbEntity
8
0
6
ByLayer
62
7
370
-1
100
AcDbSpline
210
0
220
0
230
1
70
8
71
3
72
8
73
4
74
0
42
1e-07
43
1e-07
40
0
40
0
40
0
40
0
40
1
40
1
40
1
40
1
10
0.53190125
20
1.98269375
30
0
10
0.53190125
20
2.01551625
30
0
10
0.48269375
20
2.01551625
30
0
10
0.48269375
20
1.98269375
30
0
0
SPLINE
5
1E3
100
AcDbEntity
8
0
6
ByLayer
62
7
370
-1
100
AcDbSpline
210
0
220
0
230
1
70
8
71
3
72
8
73
4
74
0
42
1e-07
43
1e-07
40
0
40
0
40
0
40
0
40
1
40
1
40
1
40
1
10
0.48269375
20
1.98269375
30
0
10
0.48269375
20
1.94992375
30
0
10
0.53190125
20
1.94992375
30
0
10
0.53190125
20
1.98269375
30
0
0
SPLINE
5
1E4
100
AcDbEntity
8
0
6
ByLayer
62
7
370
-1
100
AcDbSpline
210
0
220
0
230
1
70
8
71
3
72
8
73
4
74
0
42
1e-07
43
1e-07
40
0
40
0
40
0
40
0
40
1
40
1
40
1
40
1
10
0.45317875
20
1.98269375
30
0
10
0.45317875
20
2.01551625
30
0
10
0.40397125
20
2.01551625
30
0
10
0.40397125
20
1.98269375
30
0
0
SPLINE
5
1E5
100
AcDbEntity
8
0
6
ByLayer
62
7
370
-1
100
AcDbSpline
210
0
220
0
230
1
70
8
71
3
72
8
73
4
74
0
42
1e-07
43
1e-07
40
0
40
0
40
0
40
0
40
1
40
1
40
1
40
1
10
0.40397125
20
1.98269375
30
0
10
0.40397125
20
1.94992375
30
0
10
0.45317875
20
1.94992375
30
0
10
0.45317875
20
1.98269375
30
0
0
SPLINE
5
1E6
100
AcDbEntity
8
0
6
ByLayer
62
7
370
-1
100
AcDbSpline
210
0
220
0
230
1
70
8
71
3
72
8
73
4
74
0
42
1e-07
43
1e-07
40
0
40
0
40
0
40
0
40
1
40
1
40
1
40
1
10
0.53190125
20
1.904025
30
0
10
0.53190125
20
1.93684875
30
0
10
0.48269375
20
1.93684875
30
0
10
0.48269375
20
1.904025
30
0
0
SPLINE
5
1E7
100
AcDbEntity
8
0
6
ByLayer
62
7
370
-1
100
AcDbSpline
210
0
220
0
230
1
70
8
71
3
72
8
73
4
74
0
42
1e-07
43
1e-07
40
0
40
0
40
0
40
0
40
1
40
1
40
1
40
1
10
0.48269375
20
1.904025
30
0
10
0.48269375
20
1.8712025
30
0
10
0.53190125
20
1.8712025
30
0
10
0.53190125
20
1.904025
30
0
0
SPLINE
5
1E8
100
AcDbEntity
8
0
6
ByLayer
62
7
370
-1
100
AcDbSpline
210
0
220
0
230
1
70
8
71
3
72
8
73
4
74
0
42
1e-07
43
1e-07
40
0
40
0
40
0
40
0
40
1
40
1
40
1
40
1
10
0.45317875
20
1.904025
30
0
10
0.45317875
20
1.93684875
30
0
10
0.40397125
20
1.93684875
30
0
10
0.40397125
20
1.904025
30
0
0
SPLINE
5
1E9
100
AcDbEntity
8
0
6
ByLayer
62
7
370
-1
100
AcDbSpline
210
0
220
0
230
1
70
8
71
3
72
8
73
4
74
0
42
1e-07
43
1e-07
40
0
40
0
40
0
40
0
40
1
40
1
40
1
40
1
10
0.40397125
20
1.904025
30
0
10
0.40397125
20
1.8712025
30
0
10
0.45317875
20
1.8712025
30
0
10
0.45317875
20
1.904025
30
0
0
SPLINE
5
1EA
100
AcDbEntity
8
0
6
ByLayer
62
7
370
-1
100
AcDbSpline
210
0
220
0
230
1
70
8
71
3
72
8
73
4
74
0
42
1e-07
43
1e-07
40
0
40
0
40
0
40
0
40
1
40
1
40
1
40
1
10
0.53190125
20
1.82530375
30
0
10
0.53190125
20
1.8581275
30
0
10
0.48269375
20
1.8581275
30
0
10
0.48269375
20
1.82530375
30
0
0
SPLINE
5
1EB
100
AcDbEntity
8
0
6
ByLayer
62
7
370
-1
100
AcDbSpline
210
0
220
0
230
1
70
8
71
3
72
8
73
4
74
0
42
1e-07
43
1e-07
40
0
40
0
40
0
40
0
40
1
40
1
40
1
40
1
10
0.48269375
20
1.82530375
30
0
10
0.48269375
20
1.792535
30
0
10
0.53190125
20
1.792535
30
0
10
0.53190125
20
1.82530375
30
0
0
SPLINE
5
1EC
100
AcDbEntity
8
0
6
ByLayer
62
7
370
-1
100
AcDbSpline
210
0
220
0
230
1
70
8
71
3
72
8
73
4
74
0
42
1e-07
43
1e-07
40
0
40
0
40
0
40
0
40
1
40
1
40
1
40
1
10
0.45317875
20
1.82530375
30
0
10
0.45317875
20
1.8581275
30
0
10
0.40397125
20
1.8581275
30
0
10
0.40397125
20
1.82530375
30
0
0
SPLINE
5
1ED
100
AcDbEntity
8
0
6
ByLayer
62
7
370
-1
100
AcDbSpline
210
0
220
0
230
1
70
8
71
3
72
8
73
4
74
0
42
1e-07
43
1e-07
40
0
40
0
40
0
40
0
40
1
40
1
40
1
40
1
10
0.40397125
20
1.82530375
30
0
10
0.40397125
20
1.792535
30
0
10
0.45317875
20
1.792535
30
0
10
0.45317875
20
1.82530375
30
0
0
SPLINE
5
1EE
100
AcDbEntity
8
0
6
ByLayer
62
7
370
-1
100
AcDbSpline
210
0
220
0
230
1
70
8
71
3
72
8
73
4
74
0
42
1e-07
43
1e-07
40
0
40
0
40
0
40
0
40
1
40
1
40
1
40
1
10
5.99300125
20
2.23269375
30
0
10
5.99300125
20
2.33273625
30
0
10
5.84299
20
2.33273625
30
0
10
5.84299
20
2.23269375
30
0
0
SPLINE
5
1EF
100
AcDbEntity
8
0
6
ByLayer
62
7
370
-1
100
AcDbSpline
210
0
220
0
230
1
70
8
71
3
72
8
73
4
74
0
42
1e-07
43
1e-07
40
0
40
0
40
0
40
0
40
1
40
1
40
1
40
1
10
5.84299
20
2.23269375
30
0
10
5.84299
20
2.13270375
30
0
10
5.99300125
20
2.13270375
30
0
10
5.99300125
20
2.23269375
30
0
0
SPLINE
5
1F0
100
AcDbEntity
8
0
6
ByLayer
62
7
370
-1
100
AcDbSpline
210
0
220
0
230
1
70
8
71
3
72
8
73
4
74
0
42
1e-07
43
1e-07
40
0
40
0
40
0
40
0
40
1
40
1
40
1
40
1
10
5.99300125
20
1.73269375
30
0
10
5.99300125
20
1.83273625
30
0
10
5.84299
20
1.83273625
30
0
10
5.84299
20
1.73269375
30
0
0
SPLINE
5
1F1
100
AcDbEntity
8
0
6
ByLayer
62
7
370
-1
100
AcDbSpline
210
0
220
0
230
1
70
8
71
3
72
8
73
4
74
0
42
1e-07
43
1e-07
40
0
40
0
40
0
40
0
40
1
40
1
40
1
40
1
10
5.84299
20
1.73269375
30
0
10
5.84299
20
1.63270375
30
0
10
5.99300125
20
1.63270375
30
0
10
5.99300125
20
1.73269375
30
0
0
SPLINE
5
1F2
100
AcDbEntity
8
0
6
ByLayer
62
7
370
-1
100
AcDbSpline
210
0
220
0
230
1
70
8
71
3
72
8
73
4
74
0
42
1e-07
43
1e-07
40
0
40
0
40
0
40
0
40
1
40
1
40
1
40
1
10
0.8930125
20
2.23269375
30
0
10
0.8930125
20
2.33273625
30
0
10
0.74300125
20
2.33273625
30
0
10
0.74300125
20
2.23269375
30
0
0
SPLINE
5
1F3
100
AcDbEntity
8
0
6
ByLayer
62
7
370
-1
100
AcDbSpline
210
0
220
0
230
1
70
8
71
3
72
8
73
4
74
0
42
1e-07
43
1e-07
40
0
40
0
40
0
40
0
40
1
40
1
40
1
40
1
10
0.74300125
20
2.23269375
30
0
10
0.74300125
20
2.13270375
30
0
10
0.8930125
20
2.13270375
30
0
10
0.8930125
20
2.23269375
30
0
0
SPLINE
5
1F4
100
AcDbEntity
8
0
6
ByLayer
62
7
370
-1
100
AcDbSpline
210
0
220
0
230
1
70
8
71
3
72
8
73
4
74
0
42
1e-07
43
1e-07
40
0
40
0
40
0
40
0
40
1
40
1
40
1
40
1
10
0.8930125
20
1.73269375
30
0
10
0.8930125
20
1.83273625
30
0
10
0.74300125
20
1.83273625
30
0
10
0.74300125
20
1.73269375
30
0
0
SPLINE
5
1F5
100
AcDbEntity
8
0
6
ByLayer
62
7
370
-1
100
AcDbSpline
210
0
220
0
230
1
70
8
71
3
72
8
73
4
74
0
42
1e-07
43
1e-07
40
0
40
0
40
0
40
0
40
1
40
1
40
1
40
1
10
0.74300125
20
1.73269375
30
0
10
0.74300125
20
1.63270375
30
0
10
0.8930125
20
1.63270375
30
0
10
0.8930125
20
1.73269375
30
0
0
LWPOLYLINE
5
1F6
100
AcDbEntity
8
0
6
ByLayer
62
7
370
-1
100
AcDbPolyline
90
5
70
0
43
0
10
4.73801
20
2.15272375
10
4.79801375
20
2.15272375
10
4.79801375
20
2.2127275
10
4.73801
20
2.2127275
10
4.73801
20
2.15272375
0
LWPOLYLINE
5
1F7
100
AcDbEntity
8
0
6
ByLayer
62
6
370
-1
100
AcDbPolyline
90
2
70
0
43
0
10
3.3991975
20
2.06401875
10
3.5180125
20
2.18272625
0
LWPOLYLINE
5
1F8
100
AcDbEntity
8
0
6
ByLayer
62
6
370
-1
100
AcDbPolyline
90
2
70
0
43
0
10
0.5884875
20
2.06401875
10
3.3991975
20
2.06401875
0
LWPOLYLINE
5
1F9
100
AcDbEntity
8
0
6
ByLayer
62
6
370
-1
100
AcDbPolyline
90
2
70
0
43
0
10
0.50732375
20
1.98269375
10
0.5884875
20
2.06401875
0
LWPOLYLINE
5
1FA
100
AcDbEntity
8
0
6
ByLayer
62
6
370
-1
100
AcDbPolyline
90
2
70
0
43
0
10
5.11849
20
2.232205
10
5.1680225
20
2.18272625
0
LWPOLYLINE
5
1FB
100
AcDbEntity
8
0
6
ByLayer
62
6
370
-1
100
AcDbPolyline
90
2
70
0
43
0
10
2.95279875
20
2.232205
10
5.11849
20
2.232205
0
LWPOLYLINE
5
1FC
100
AcDbEntity
8
0
6
ByLayer
62
6
370
-1
100
AcDbPolyline
90
2
70
0
43
0
10
2.80967875
20
2.08903
10
2.95279875
20
2.232205
0
LWPOLYLINE
5
1FD
100
AcDbEntity
8
0
6
ByLayer
62
6
370
-1
100
AcDbPolyline
90
2
70
0
43
0
10
0.53477625
20
2.08903
10
2.80967875
20
2.08903
0
LWPOLYLINE
5
1FE
100
AcDbEntity
8
0
6
ByLayer
62
6
370
-1
100
AcDbPolyline
90
2
70
0
43
0
10
0.50732375
20
2.06152375
10
0.53477625
20
2.08903
0
LWPOLYLINE
5
1FF
100
AcDbEntity
8
0
6
ByLayer
62
6
370
-1
100
AcDbPolyline
90
2
70
0
43
0
10
3.9937075
20
1.93353875
10
4.09299
20
2.032715
0
LWPOLYLINE
5
200
100
AcDbEntity
8
0
6
ByLayer
62
6
370
-1
100
AcDbPolyline
90
2
70
0
43
0
10
0.61550625
20
1.93353875
10
3.9937075
20
1.93353875
0
LWPOLYLINE
5
201
100
AcDbEntity
8
0
6
ByLayer
62
6
370
-1
100
AcDbPolyline
90
2
70
0
43
0
10
0.50732375
20
1.82530375
10
0.61550625
20
1.93353875
0
LWPOLYLINE
5
202
100
AcDbEntity
8
0
6
ByLayer
62
6
370
-1
100
AcDbPolyline
90
2
70
0
43
0
10
3.1680225
20
2.032715
10
4.0430225
20
2.032715
0
LWPOLYLINE
5
203
100
AcDbEntity
8
0
6
ByLayer
62
6
370
-1
100
AcDbPolyline
90
2
70
0
43
0
10
3.11800125
20
1.98269375
10
3.1680225
20
2.032715
0
LWPOLYLINE
5
204
100
AcDbEntity
8
0
6
ByLayer
62
6
370
-1
100
AcDbPolyline
90
2
70
0
43
0
10
4.7472875
20
1.96213125
10
4.7680125
20
1.98269375
0
LWPOLYLINE
5
205
100
AcDbEntity
8
0
6
ByLayer
62
6
370
-1
100
AcDbPolyline
90
2
70
0
43
0
10
4.7472875
20
1.80343875
10
4.7472875
20
1.96213125
0
LWPOLYLINE
5
206
100
AcDbEntity
8
0
6
ByLayer
62
6
370
-1
100
AcDbPolyline
90
2
70
0
43
0
10
4.08859625
20
1.80343875
10
4.7472875
20
1.80343875
0
LWPOLYLINE
5
207
100
AcDbEntity
8
0
6
ByLayer
62
6
370
-1
100
AcDbPolyline
90
2
70
0
43
0
10
4.0430225
20
1.75770375
10
4.08859625
20
1.80343875
0
LWPOLYLINE
5
208
100
AcDbEntity
8
0
6
ByLayer
62
6
370
-1
100
AcDbPolyline
90
2
70
0
43
0
10
4.7472875
20
1.80343875
10
4.7680125
20
1.782715
0
LWPOLYLINE
5
209
100
AcDbEntity
8
0
6
ByLayer
62
6
370
-1
100
AcDbPolyline
90
2
70
0
43
0
10
1.377875
20
2.14019125
10
1.42041
20
2.18272625
0
LWPOLYLINE
5
20A
100
AcDbEntity
8
0
6
ByLayer
62
6
370
-1
100
AcDbPolyline
90
2
70
0
43
0
10
0.50732375
20
2.14019125
10
1.377875
20
2.14019125
0
LWPOLYLINE
5
20B
100
AcDbEntity
8
0
6
ByLayer
62
6
370
-1
100
AcDbPolyline
90
2
70
0
43
0
10
1.46799
20
2.18272625
10
1.42041
20
2.18272625
0
LWPOLYLINE
5
20C
100
AcDbEntity
8
0
6
ByLayer
62
6
370
-1
100
AcDbPolyline
90
2
70
0
43
0
10
3.99300125
20
2.18272625
10
4.1430125
20
2.032715
0
LWPOLYLINE
5
20D
100
AcDbEntity
8
0
6
ByLayer
62
6
370
-1
100
AcDbPolyline
90
2
70
0
43
0
10
3.61800125
20
2.18272625
10
3.99300125
20
2.18272625
0
LWPOLYLINE
5
20E
100
AcDbEntity
8
0
6
ByLayer
62
6
370
-1
100
AcDbPolyline
90
2
70
0
43
0
10
0.3854175
20
2.09711375
10
0.4286025
20
2.14019125
0
LWPOLYLINE
5
20F
100
AcDbEntity
8
0
6
ByLayer
62
6
370
-1
100
AcDbPolyline
90
2
70
0
43
0
10
0.3854175
20
1.868435
10
0.3854175
20
2.09711375
0
LWPOLYLINE
5
210
100
AcDbEntity
8
0
6
ByLayer
62
6
370
-1
100
AcDbPolyline
90
2
70
0
43
0
10
0.4286025
20
1.82530375
10
0.3854175
20
1.868435
0
LWPOLYLINE
5
211
100
AcDbEntity
8
0
6
ByLayer
62
6
370
-1
100
AcDbPolyline
90
2
70
0
43
0
10
0.4733075
20
1.78049
10
0.4286025
20
1.82530375
0
LWPOLYLINE
5
212
100
AcDbEntity
8
0
6
ByLayer
62
6
370
-1
100
AcDbPolyline
90
2
70
0
43
0
10
0.588325
20
1.78049
10
0.4733075
20
1.78049
0
LWPOLYLINE
5
213
100
AcDbEntity
8
0
6
ByLayer
62
6
370
-1
100
AcDbPolyline
90
2
70
0
43
0
10
0.63579625
20
1.82801625
10
0.588325
20
1.78049
0
LWPOLYLINE
5
214
100
AcDbEntity
8
0
6
ByLayer
62
6
370
-1
100
AcDbPolyline
90
2
70
0
43
0
10
1.5226775
20
1.82801625
10
0.63579625
20
1.82801625
0
SPLINE
5
215
100
AcDbEntity
8
0
6
ByLayer
62
7
370
-1
100
AcDbSpline
210
0
220
0
230
1
70
8
71
3
72
8
73
4
74
0
42
1e-07
43
1e-07
40
0
40
0
40
0
40
0
40
1
40
1
40
1
40
1
10
4.05951625
20
2.032715
30
0
10
4.05951625
20
2.05474125
30
0
10
4.02647625
20
2.05474125
30
0
10
4.02647625
20
2.032715
30
0
0
SPLINE
5
216
100
AcDbEntity
8
0
6
ByLayer
62
7
370
-1
100
AcDbSpline
210
0
220
0
230
1
70
8
71
3
72
8
73
4
74
0
42
1e-07
43
1e-07
40
0
40
0
40
0
40
0
40
1
40
1
40
1
40
1
10
4.02647625
20
2.032715
30
0
10
4.02647625
20
2.0107425
30
0
10
4.05951625
20
2.0107425
30
0
10
4.05951625
20
2.032715
30
0
0
SPLINE
5
217
100
AcDbEntity
8
0
6
ByLayer
62
7
370
-1
100
AcDbSpline
210
0
220
0
230
1
70
8
71
3
72
8
73
4
74
0
42
1e-07
43
1e-07
40
0
40
0
40
0
40
0
40
1
40
1
40
1
40
1
10
4.10948375
20
2.032715
30
0
10
4.10948375
20
2.05474125
30
0
10
4.0764975
20
2.05474125
30
0
10
4.0764975
20
2.032715
30
0
0
SPLINE
5
218
100
AcDbEntity
8
0
6
ByLayer
62
7
370
-1
100
AcDbSpline
210
0
220
0
230
1
70
8
71
3
72
8
73
4
74
0
42
1e-07
43
1e-07
40
0
40
0
40
0
40
0
40
1
40
1
40
1
40
1
10
4.0764975
20
2.032715
30
0
10
4.0764975
20
2.0107425
30
0
10
4.10948375
20
2.0107425
30
0
10
4.10948375
20
2.032715
30
0
0
SPLINE
5
219
100
AcDbEntity
8
0
6
ByLayer
62
7
370
-1
100
AcDbSpline
210
0
220
0
230
1
70
8
71
3
72
8
73
4
74
0
42
1e-07
43
1e-07
40
0
40
0
40
0
40
0
40
1
40
1
40
1
40
1
10
4.159505
20
2.032715
30
0
10
4.159505
20
2.05474125
30
0
10
4.12651875
20
2.05474125
30
0
10
4.12651875
20
2.032715
30
0
0
SPLINE
5
21A
100
AcDbEntity
8
0
6
ByLayer
62
7
370
-1
100
AcDbSpline
210
0
220
0
230
1
70
8
71
3
72
8
73
4
74
0
42
1e-07
43
1e-07
40
0
40
0
40
0
40
0
40
1
40
1
40
1
40
1
10
4.12651875
20
2.032715
30
0
10
4.12651875
20
2.0107425
30
0
10
4.159505
20
2.0107425
30
0
10
4.159505
20
2.032715
30
0
0
LWPOLYLINE
5
21B
100
AcDbEntity
8
0
6
ByLayer
62
6
370
-1
100
AcDbPolyline
90
2
70
0
43
0
10
1.56798
20
1.782715
10
1.5226775
20
1.82801625
0
SPLINE
5
21C
100
AcDbEntity
8
0
6
ByLayer
62
7
370
-1
100
AcDbSpline
210
0
220
0
230
1
70
8
71
3
72
8
73
4
74
0
42
1e-07
43
1e-07
40
0
40
0
40
0
40
0
40
1
40
1
40
1
40
1
10
1.59798125
20
2.18272625
30
0
10
1.59798125
20
2.22271
30
0
10
1.5379775
20
2.22271
30
0
10
1.5379775
20
2.18272625
30
0
0
SPLINE
5
21D
100
AcDbEntity
8
0
6
ByLayer
62
7
370
-1
100
AcDbSpline
210
0
220
0
230
1
70
8
71
3
72
8
73
4
74
0
42
1e-07
43
1e-07
40
0
40
0
40
0
40
0
40
1
40
1
40
1
40
1
10
1.5379775
20
2.18272625
30
0
10
1.5379775
20
2.14274125
30
0
10
1.59798125
20
2.14274125
30
0
10
1.59798125
20
2.18272625
30
0
0
SPLINE
5
21E
100
AcDbEntity
8
0
6
ByLayer
62
7
370
-1
100
AcDbSpline
210
0
220
0
230
1
70
8
71
3
72
8
73
4
74
0
42
1e-07
43
1e-07
40
0
40
0
40
0
40
0
40
1
40
1
40
1
40
1
10
1.698025
20
2.18272625
30
0
10
1.698025
20
2.22271
30
0
10
1.63802125
20
2.22271
30
0
10
1.63802125
20
2.18272625
30
0
0
SPLINE
5
21F
100
AcDbEntity
8
0
6
ByLayer
62
7
370
-1
100
AcDbSpline
210
0
220
0
230
1
70
8
71
3
72
8
73
4
74
0
42
1e-07
43
1e-07
40
0
40
0
40
0
40
0
40
1
40
1
40
1
40
1
10
1.63802125
20
2.18272625
30
0
10
1.63802125
20
2.14274125
30
0
10
1.698025
20
2.14274125
30
0
10
1.698025
20
2.18272625
30
0
0
SPLINE
5
220
100
AcDbEntity
8
0
6
ByLayer
62
7
370
-1
100
AcDbSpline
210
0
220
0
230
1
70
8
71
3
72
8
73
4
74
0
42
1e-07
43
1e-07
40
0
40
0
40
0
40
0
40
1
40
1
40
1
40
1
10
1.79801375
20
2.18272625
30
0
10
1.79801375
20
2.22271
30
0
10
1.73801
20
2.22271
30
0
10
1.73801
20
2.18272625
30
0
0
SPLINE
5
221
100
AcDbEntity
8
0
6
ByLayer
62
7
370
-1
100
AcDbSpline
210
0
220
0
230
1
70
8
71
3
72
8
73
4
74
0
42
1e-07
43
1e-07
40
0
40
0
40
0
40
0
40
1
40
1
40
1
40
1
10
1.73801
20
2.18272625
30
0
10
1.73801
20
2.14274125
30
0
10
1.79801375
20
2.14274125
30
0
10
1.79801375
20
2.18272625
30
0
0
SPLINE
5
222
100
AcDbEntity
8
0
6
ByLayer
62
7
370
-1
100
AcDbSpline
210
0
220
0
230
1
70
8
71
3
72
8
73
4
74
0
42
1e-07
43
1e-07
40
0
40
0
40
0
40
0
40
1
40
1
40
1
40
1
10
1.89800375
20
2.18272625
30
0
10
1.89800375
20
2.22271
30
0
10
1.83799875
20
2.22271
30
0
10
1.83799875
20
2.18272625
30
0
0
SPLINE
5
223
100
AcDbEntity
8
0
6
ByLayer
62
7
370
-1
100
AcDbSpline
210
0
220
0
230
1
70
8
71
3
72
8
73
4
74
0
42
1e-07
43
1e-07
40
0
40
0
40
0
40
0
40
1
40
1
40
1
40
1
10
1.83799875
20
2.18272625
30
0
10
1.83799875
20
2.14274125
30
0
10
1.89800375
20
2.14274125
30
0
10
1.89800375
20
2.18272625
30
0
0
SPLINE
5
224
100
AcDbEntity
8
0
6
ByLayer
62
7
370
-1
100
AcDbSpline
210
0
220
0
230
1
70
8
71
3
72
8
73
4
74
0
42
1e-07
43
1e-07
40
0
40
0
40
0
40
0
40
1
40
1
40
1
40
1
10
1.9979925
20
2.18272625
30
0
10
1.9979925
20
2.22271
30
0
10
1.93798875
20
2.22271
30
0
10
1.93798875
20
2.18272625
30
0
0
SPLINE
5
225
100
AcDbEntity
8
0
6
ByLayer
62
7
370
-1
100
AcDbSpline
210
0
220
0
230
1
70
8
71
3
72
8
73
4
74
0
42
1e-07
43
1e-07
40
0
40
0
40
0
40
0
40
1
40
1
40
1
40
1
10
1.93798875
20
2.18272625
30
0
10
1.93798875
20
2.14274125
30
0
10
1.9979925
20
2.14274125
30
0
10
1.9979925
20
2.18272625
30
0
0
LWPOLYLINE
5
226
100
AcDbEntity
8
0
6
ByLayer
62
7
370
-1
100
AcDbPolyline
90
5
70
0
43
0
10
1.43798875
20
2.15272375
10
1.4979925
20
2.15272375
10
1.4979925
20
2.2127275
10
1.43798875
20
2.2127275
10
1.43798875
20
2.15272375
0
SPLINE
5
227
100
AcDbEntity
8
0
6
ByLayer
62
7
370
-1
100
AcDbSpline
210
0
220
0
230
1
70
8
71
3
72
8
73
4
74
0
42
1e-07
43
1e-07
40
0
40
0
40
0
40
0
40
1
40
1
40
1
40
1
10
3.2479925
20
2.18272625
30
0
10
3.2479925
20
2.22271
30
0
10
3.18798875
20
2.22271
30
0
10
3.18798875
20
2.18272625
30
0
0
SPLINE
5
228
100
AcDbEntity
8
0
6
ByLayer
62
7
370
-1
100
AcDbSpline
210
0
220
0
230
1
70
8
71
3
72
8
73
4
74
0
42
1e-07
43
1e-07
40
0
40
0
40
0
40
0
40
1
40
1
40
1
40
1
10
3.18798875
20
2.18272625
30
0
10
3.18798875
20
2.14274125
30
0
10
3.2479925
20
2.14274125
30
0
10
3.2479925
20
2.18272625
30
0
0
SPLINE
5
229
100
AcDbEntity
8
0
6
ByLayer
62
7
370
-1
100
AcDbSpline
210
0
220
0
230
1
70
8
71
3
72
8
73
4
74
0
42
1e-07
43
1e-07
40
0
40
0
40
0
40
0
40
1
40
1
40
1
40
1
10
3.34798125
20
2.18272625
30
0
10
3.34798125
20
2.22271
30
0
10
3.2879775
20
2.22271
30
0
10
3.2879775
20
2.18272625
30
0
0
SPLINE
5
22A
100
AcDbEntity
8
0
6
ByLayer
62
7
370
-1
100
AcDbSpline
210
0
220
0
230
1
70
8
71
3
72
8
73
4
74
0
42
1e-07
43
1e-07
40
0
40
0
40
0
40
0
40
1
40
1
40
1
40
1
10
3.2879775
20
2.18272625
30
0
10
3.2879775
20
2.14274125
30
0
10
3.34798125
20
2.14274125
30
0
10
3.34798125
20
2.18272625
30
0
0
SPLINE
5
22B
100
AcDbEntity
8
0
6
ByLayer
62
7
370
-1
100
AcDbSpline
210
0
220
0
230
1
70
8
71
3
72
8
73
4
74
0
42
1e-07
43
1e-07
40
0
40
0
40
0
40
0
40
1
40
1
40
1
40
1
10
3.448025
20
2.18272625
30
0
10
3.448025
20
2.22271
30
0
10
3.38802125
20
2.22271
30
0
10
3.38802125
20
2.18272625
30
0
0
SPLINE
5
22C
100
AcDbEntity
8
0
6
ByLayer
62
7
370
-1
100
AcDbSpline
210
0
220
0
230
1
70
8
71
3
72
8
73
4
74
0
42
1e-07
43
1e-07
40
0
40
0
40
0
40
0
40
1
40
1
40
1
40
1
10
3.38802125
20
2.18272625
30
0
10
3.38802125
20
2.14274125
30
0
10
3.448025
20
2.14274125
30
0
10
3.448025
20
2.18272625
30
0
0
SPLINE
5
22D
100
AcDbEntity
8
0
6
ByLayer
62
7
370
-1
100
AcDbSpline
210
0
220
0
230
1
70
8
71
3
72
8
73
4
74
0
42
1e-07
43
1e-07
40
0
40
0
40
0
40
0
40
1
40
1
40
1
40
1
10
3.54801375
20
2.18272625
30
0
10
3.54801375
20
2.22271
30
0
10
3.48801
20
2.22271
30
0
10
3.48801
20
2.18272625
30
0
0
SPLINE
5
22E
100
AcDbEntity
8
0
6
ByLayer
62
7
370
-1
100
AcDbSpline
210
0
220
0
230
1
70
8
71
3
72
8
73
4
74
0
42
1e-07
43
1e-07
40
0
40
0
40
0
40
0
40
1
40
1
40
1
40
1
10
3.48801
20
2.18272625
30
0
10
3.48801
20
2.14274125
30
0
10
3.54801375
20
2.14274125
30
0
10
3.54801375
20
2.18272625
30
0
0
SPLINE
5
22F
100
AcDbEntity
8
0
6
ByLayer
62
7
370
-1
100
AcDbSpline
210
0
220
0
230
1
70
8
71
3
72
8
73
4
74
0
42
1e-07
43
1e-07
40
0
40
0
40
0
40
0
40
1
40
1
40
1
40
1
10
3.64800375
20
2.18272625
30
0
10
3.64800375
20
2.22271
30
0
10
3.58799875
20
2.22271
30
0
10
3.58799875
20
2.18272625
30
0
0
SPLINE
5
230
100
AcDbEntity
8
0
6
ByLayer
62
7
370
-1
100
AcDbSpline
210
0
220
0
230
1
70
8
71
3
72
8
73
4
74
0
42
1e-07
43
1e-07
40
0
40
0
40
0
40
0
40
1
40
1
40
1
40
1
10
3.58799875
20
2.18272625
30
0
10
3.58799875
20
2.14274125
30
0
10
3.64800375
20
2.14274125
30
0
10
3.64800375
20
2.18272625
30
0
0
LWPOLYLINE
5
231
100
AcDbEntity
8
0
6
ByLayer
62
7
370
-1
100
AcDbPolyline
90
5
70
0
43
0
10
3.08799875
20
2.15272375
10
3.14800375
20
2.15272375
10
3.14800375
20
2.2127275
10
3.08799875
20
2.2127275
10
3.08799875
20
2.15272375
0
SPLINE
5
232
100
AcDbEntity
8
0
6
ByLayer
62
7
370
-1
100
AcDbSpline
210
0
220
0
230
1
70
8
71
3
72
8
73
4
74
0
42
1e-07
43
1e-07
40
0
40
0
40
0
40
0
40
1
40
1
40
1
40
1
10
4.89800375
20
2.18272625
30
0
10
4.89800375
20
2.22271
30
0
10
4.83799875
20
2.22271
30
0
10
4.83799875
20
2.18272625
30
0
0
SPLINE
5
233
100
AcDbEntity
8
0
6
ByLayer
62
7
370
-1
100
AcDbSpline
210
0
220
0
230
1
70
8
71
3
72
8
73
4
74
0
42
1e-07
43
1e-07
40
0
40
0
40
0
40
0
40
1
40
1
40
1
40
1
10
4.83799875
20
2.18272625
30
0
10
4.83799875
20
2.14274125
30
0
10
4.89800375
20
2.14274125
30
0
10
4.89800375
20
2.18272625
30
0
0
SPLINE
5
234
100
AcDbEntity
8
0
6
ByLayer
62
7
370
-1
100
AcDbSpline
210
0
220
0
230
1
70
8
71
3
72
8
73
4
74
0
42
1e-07
43
1e-07
40
0
40
0
40
0
40
0
40
1
40
1
40
1
40
1
10
4.9979925
20
2.18272625
30
0
10
4.9979925
20
2.22271
30
0
10
4.93798875
20
2.22271
30
0
10
4.93798875
20
2.18272625
30
0
0
SPLINE
5
235
100
AcDbEntity
8
0
6
ByLayer
62
7
370
-1
100
AcDbSpline
210
0
220
0
230
1
70
8
71
3
72
8
73
4
74
0
42
1e-07
43
1e-07
40
0
40
0
40
0
40
0
40
1
40
1
40
1
40
1
10
4.93798875
20
2.18272625
30
0
10
4.93798875
20
2.14274125
30
0
10
4.9979925
20
2.14274125
30
0
10
4.9979925
20
2.18272625
30
0
0
SPLINE
5
236
100
AcDbEntity
8
0
6
ByLayer
62
7
370
-1
100
AcDbSpline
210
0
220
0
230
1
70
8
71
3
72
8
73
4
74
0
42
1e-07
43
1e-07
40
0
40
0
40
0
40
0
40
1
40
1
40
1
40
1
10
5.09798125
20
2.18272625
30
0
10
5.09798125
20
2.22271
30
0
10
5.0379775
20
2.22271
30
0
10
5.0379775
20
2.18272625
30
0
0
SPLINE
5
237
100
AcDbEntity
8
0
6
ByLayer
62
7
370
-1
100
AcDbSpline
210
0
220
0
230
1
70
8
71
3
72
8
73
4
74
0
42
1e-07
43
1e-07
40
0
40
0
40
0
40
0
40
1
40
1
40
1
40
1
10
5.0379775
20
2.18272625
30
0
10
5.0379775
20
2.14274125
30
0
10
5.09798125
20
2.14274125
30
0
10
5.09798125
20
2.18272625
30
0
0
SPLINE
5
238
100
AcDbEntity
8
0
6
ByLayer
62
7
370
-1
100
AcDbSpline
210
0
220
0
230
1
70
8
71
3
72
8
73
4
74
0
42
1e-07
43
1e-07
40
0
40
0
40
0
40
0
40
1
40
1
40
1
40
1
10
5.198025
20
2.18272625
30
0
10
5.198025
20
2.22271
30
0
10
5.13802125
20
2.22271
30
0
10
5.13802125
20
2.18272625
30
0
0
SPLINE
5
239
100
AcDbEntity
8
0
6
ByLayer
62
7
370
-1
100
AcDbSpline
210
0
220
0
230
1
70
8
71
3
72
8
73
4
74
0
42
1e-07
43
1e-07
40
0
40
0
40
0
40
0
40
1
40
1
40
1
40
1
10
5.13802125
20
2.18272625
30
0
10
5.13802125
20
2.14274125
30
0
10
5.198025
20
2.14274125
30
0
10
5.198025
20
2.18272625
30
0
0
SPLINE
5
23A
100
AcDbEntity
8
0
6
ByLayer
62
7
370
-1
100
AcDbSpline
210
0
220
0
230
1
70
8
71
3
72
8
73
4
74
0
42
1e-07
43
1e-07
40
0
40
0
40
0
40
0
40
1
40
1
40
1
40
1
10
5.29801375
20
2.18272625
30
0
10
5.29801375
20
2.22271
30
0
10
5.23801
20
2.22271
30
0
10
5.23801
20
2.18272625
30
0
0
SPLINE
5
23B
100
AcDbEntity
8
0
6
ByLayer
62
7
370
-1
100
AcDbSpline
210
0
220
0
230
1
70
8
71
3
72
8
73
4
74
0
42
1e-07
43
1e-07
40
0
40
0
40
0
40
0
40
1
40
1
40
1
40
1
10
5.23801
20
2.18272625
30
0
10
5.23801
20
2.14274125
30
0
10
5.29801375
20
2.14274125
30
0
10
5.29801375
20
2.18272625
30
0
0
SPLINE
5
23C
100
AcDbEntity
8
0
6
ByLayer
62
7
370
-1
100
AcDbSpline
210
0
220
0
230
1
70
8
71
3
72
8
73
4
74
0
42
1e-07
43
1e-07
40
0
40
0
40
0
40
0
40
1
40
1
40
1
40
1
10
1.4954975
20
1.98269375
30
0
10
1.4954975
20
2.01936875
30
0
10
1.44048375
20
2.01936875
30
0
10
1.44048375
20
1.98269375
30
0
0
SPLINE
5
23D
100
AcDbEntity
8
0
6
ByLayer
62
7
370
-1
100
AcDbSpline
210
0
220
0
230
1
70
8
71
3
72
8
73
4
74
0
42
1e-07
43
1e-07
40
0
40
0
40
0
40
0
40
1
40
1
40
1
40
1
10
1.44048375
20
1.98269375
30
0
10
1.44048375
20
1.9460725
30
0
10
1.4954975
20
1.9460725
30
0
10
1.4954975
20
1.98269375
30
0
0
SPLINE
5
23E
100
AcDbEntity
8
0
6
ByLayer
62
7
370
-1
100
AcDbSpline
210
0
220
0
230
1
70
8
71
3
72
8
73
4
74
0
42
1e-07
43
1e-07
40
0
40
0
40
0
40
0
40
1
40
1
40
1
40
1
10
1.59548625
20
1.98269375
30
0
10
1.59548625
20
2.01936875
30
0
10
1.5404725
20
2.01936875
30
0
10
1.5404725
20
1.98269375
30
0
0
SPLINE
5
23F
100
AcDbEntity
8
0
6
ByLayer
62
7
370
-1
100
AcDbSpline
210
0
220
0
230
1
70
8
71
3
72
8
73
4
74
0
42
1e-07
43
1e-07
40
0
40
0
40
0
40
0
40
1
40
1
40
1
40
1
10
1.5404725
20
1.98269375
30
0
10
1.5404725
20
1.9460725
30
0
10
1.59548625
20
1.9460725
30
0
10
1.59548625
20
1.98269375
30
0
0
SPLINE
5
240
100
AcDbEntity
8
0
6
ByLayer
62
7
370
-1
100
AcDbSpline
210
0
220
0
230
1
70
8
71
3
72
8
73
4
74
0
42
1e-07
43
1e-07
40
0
40
0
40
0
40
0
40
1
40
1
40
1
40
1
10
1.4954975
20
1.782715
30
0
10
1.4954975
20
1.81939
30
0
10
1.44048375
20
1.81939
30
0
10
1.44048375
20
1.782715
30
0
0
SPLINE
5
241
100
AcDbEntity
8
0
6
ByLayer
62
7
370
-1
100
AcDbSpline
210
0
220
0
230
1
70
8
71
3
72
8
73
4
74
0
42
1e-07
43
1e-07
40
0
40
0
40
0
40
0
40
1
40
1
40
1
40
1
10
1.44048375
20
1.782715
30
0
10
1.44048375
20
1.74604
30
0
10
1.4954975
20
1.74604
30
0
10
1.4954975
20
1.782715
30
0
0
SPLINE
5
242
100
AcDbEntity
8
0
6
ByLayer
62
7
370
-1
100
AcDbSpline
210
0
220
0
230
1
70
8
71
3
72
8
73
4
74
0
42
1e-07
43
1e-07
40
0
40
0
40
0
40
0
40
1
40
1
40
1
40
1
10
1.59548625
20
1.782715
30
0
10
1.59548625
20
1.81939
30
0
10
1.5404725
20
1.81939
30
0
10
1.5404725
20
1.782715
30
0
0
SPLINE
5
243
100
AcDbEntity
8
0
6
ByLayer
62
7
370
-1
100
AcDbSpline
210
0
220
0
230
1
70
8
71
3
72
8
73
4
74
0
42
1e-07
43
1e-07
40
0
40
0
40
0
40
0
40
1
40
1
40
1
40
1
10
1.5404725
20
1.782715
30
0
10
1.5404725
20
1.74604
30
0
10
1.59548625
20
1.74604
30
0
10
1.59548625
20
1.782715
30
0
0
SPLINE
5
244
100
AcDbEntity
8
0
6
ByLayer
62
7
370
-1
100
AcDbSpline
210
0
220
0
230
1
70
8
71
3
72
8
73
4
74
0
42
1e-07
43
1e-07
40
0
40
0
40
0
40
0
40
1
40
1
40
1
40
1
10
3.1455075
20
1.98269375
30
0
10
3.1455075
20
2.01936875
30
0
10
3.090495
20
2.01936875
30
0
10
3.090495
20
1.98269375
30
0
0
SPLINE
5
245
100
AcDbEntity
8
0
6
ByLayer
62
7
370
-1
100
AcDbSpline
210
0
220
0
230
1
70
8
71
3
72
8
73
4
74
0
42
1e-07
43
1e-07
40
0
40
0
40
0
40
0
40
1
40
1
40
1
40
1
10
3.090495
20
1.98269375
30
0
10
3.090495
20
1.9460725
30
0
10
3.1455075
20
1.9460725
30
0
10
3.1455075
20
1.98269375
30
0
0
SPLINE
5
246
100
AcDbEntity
8
0
6
ByLayer
62
7
370
-1
100
AcDbSpline
210
0
220
0
230
1
70
8
71
3
72
8
73
4
74
0
42
1e-07
43
1e-07
40
0
40
0
40
0
40
0
40
1
40
1
40
1
40
1
10
3.2454975
20
1.98269375
30
0
10
3.2454975
20
2.01936875
30
0
10
3.19048375
20
2.01936875
30
0
10
3.19048375
20
1.98269375
30
0
0
SPLINE
5
247
100
AcDbEntity
8
0
6
ByLayer
62
7
370
-1
100
AcDbSpline
210
0
220
0
230
1
70
8
71
3
72
8
73
4
74
0
42
1e-07
43
1e-07
40
0
40
0
40
0
40
0
40
1
40
1
40
1
40
1
10
3.19048375
20
1.98269375
30
0
10
3.19048375
20
1.9460725
30
0
10
3.2454975
20
1.9460725
30
0
10
3.2454975
20
1.98269375
30
0
0
SPLINE
5
248
100
AcDbEntity
8
0
6
ByLayer
62
7
370
-1
100
AcDbSpline
210
0
220
0
230
1
70
8
71
3
72
8
73
4
74
0
42
1e-07
43
1e-07
40
0
40
0
40
0
40
0
40
1
40
1
40
1
40
1
10
3.1455075
20
1.782715
30
0
10
3.1455075
20
1.81939
30
0
10
3.090495
20
1.81939
30
0
10
3.090495
20
1.782715
30
0
0
SPLINE
5
249
100
AcDbEntity
8
0
6
ByLayer
62
7
370
-1
100
AcDbSpline
210
0
220
0
230
1
70
8
71
3
72
8
73
4
74
0
42
1e-07
43
1e-07
40
0
40
0
40
0
40
0
40
1
40
1
40
1
40
1
10
3.090495
20
1.782715
30
0
10
3.090495
20
1.74604
30
0
10
3.1455075
20
1.74604
30
0
10
3.1455075
20
1.782715
30
0
0
SPLINE
5
24A
100
AcDbEntity
8
0
6
ByLayer
62
7
370
-1
100
AcDbSpline
210
0
220
0
230
1
70
8
71
3
72
8
73
4
74
0
42
1e-07
43
1e-07
40
0
40
0
40
0
40
0
40
1
40
1
40
1
40
1
10
3.2454975
20
1.782715
30
0
10
3.2454975
20
1.81939
30
0
10
3.19048375
20
1.81939
30
0
10
3.19048375
20
1.782715
30
0
0
SPLINE
5
24B
100
AcDbEntity
8
0
6
ByLayer
62
7
370
-1
100
AcDbSpline
210
0
220
0
230
1
70
8
71
3
72
8
73
4
74
0
42
1e-07
43
1e-07
40
0
40
0
40
0
40
0
40
1
40
1
40
1
40
1
10
3.19048375
20
1.782715
30
0
10
3.19048375
20
1.74604
30
0
10
3.2454975
20
1.74604
30
0
10
3.2454975
20
1.782715
30
0
0
SPLINE
5
24C
100
AcDbEntity
8
0
6
ByLayer
62
7
370
-1
100
AcDbSpline
210
0
220
0
230
1
70
8
71
3
72
8
73
4
74
0
42
1e-07
43
1e-07
40
0
40
0
40
0
40
0
40
1
40
1
40
1
40
1
10
4.070475
20
1.75770375
30
0
10
4.070475
20
1.79437875
30
0
10
4.01551625
20
1.79437875
30
0
10
4.01551625
20
1.75770375
30
0
0
SPLINE
5
24D
100
AcDbEntity
8
0
6
ByLayer
62
7
370
-1
100
AcDbSpline
210
0
220
0
230
1
70
8
71
3
72
8
73
4
74
0
42
1e-07
43
1e-07
40
0
40
0
40
0
40
0
40
1
40
1
40
1
40
1
10
4.01551625
20
1.75770375
30
0
10
4.01551625
20
1.72102875
30
0
10
4.070475
20
1.72102875
30
0
10
4.070475
20
1.75770375
30
0
0
SPLINE
5
24E
100
AcDbEntity
8
0
6
ByLayer
62
7
370
-1
100
AcDbSpline
210
0
220
0
230
1
70
8
71
3
72
8
73
4
74
0
42
1e-07
43
1e-07
40
0
40
0
40
0
40
0
40
1
40
1
40
1
40
1
10
4.17051875
20
1.75770375
30
0
10
4.17051875
20
1.79437875
30
0
10
4.11550625
20
1.79437875
30
0
10
4.11550625
20
1.75770375
30
0
0
SPLINE
5
24F
100
AcDbEntity
8
0
6
ByLayer
62
7
370
-1
100
AcDbSpline
210
0
220
0
230
1
70
8
71
3
72
8
73
4
74
0
42
1e-07
43
1e-07
40
0
40
0
40
0
40
0
40
1
40
1
40
1
40
1
10
4.11550625
20
1.75770375
30
0
10
4.11550625
20
1.72102875
30
0
10
4.17051875
20
1.72102875
30
0
10
4.17051875
20
1.75770375
30
0
0
SPLINE
5
250
100
AcDbEntity
8
0
6
ByLayer
62
7
370
-1
100
AcDbSpline
210
0
220
0
230
1
70
8
71
3
72
8
73
4
74
0
42
1e-07
43
1e-07
40
0
40
0
40
0
40
0
40
1
40
1
40
1
40
1
10
4.79551875
20
1.98269375
30
0
10
4.79551875
20
2.01936875
30
0
10
4.74050625
20
2.01936875
30
0
10
4.74050625
20
1.98269375
30
0
0
SPLINE
5
251
100
AcDbEntity
8
0
6
ByLayer
62
7
370
-1
100
AcDbSpline
210
0
220
0
230
1
70
8
71
3
72
8
73
4
74
0
42
1e-07
43
1e-07
40
0
40
0
40
0
40
0
40
1
40
1
40
1
40
1
10
4.74050625
20
1.98269375
30
0
10
4.74050625
20
1.9460725
30
0
10
4.79551875
20
1.9460725
30
0
10
4.79551875
20
1.98269375
30
0
0
SPLINE
5
252
100
AcDbEntity
8
0
6
ByLayer
62
7
370
-1
100
AcDbSpline
210
0
220
0
230
1
70
8
71
3
72
8
73
4
74
0
42
1e-07
43
1e-07
40
0
40
0
40
0
40
0
40
1
40
1
40
1
40
1
10
4.8955075
20
1.98269375
30
0
10
4.8955075
20
2.01936875
30
0
10
4.840495
20
2.01936875
30
0
10
4.840495
20
1.98269375
30
0
0
SPLINE
5
253
100
AcDbEntity
8
0
6
ByLayer
62
7
370
-1
100
AcDbSpline
210
0
220
0
230
1
70
8
71
3
72
8
73
4
74
0
42
1e-07
43
1e-07
40
0
40
0
40
0
40
0
40
1
40
1
40
1
40
1
10
4.840495
20
1.98269375
30
0
10
4.840495
20
1.9460725
30
0
10
4.8955075
20
1.9460725
30
0
10
4.8955075
20
1.98269375
30
0
0
SPLINE
5
254
100
AcDbEntity
8
0
6
ByLayer
62
7
370
-1
100
AcDbSpline
210
0
220
0
230
1
70
8
71
3
72
8
73
4
74
0
42
1e-07
43
1e-07
40
0
40
0
40
0
40
0
40
1
40
1
40
1
40
1
10
4.79551875
20
1.782715
30
0
10
4.79551875
20
1.81939
30
0
10
4.74050625
20
1.81939
30
0
10
4.74050625
20
1.782715
30
0
0
SPLINE
5
255
100
AcDbEntity
8
0
6
ByLayer
62
7
370
-1
100
AcDbSpline
210
0
220
0
230
1
70
8
71
3
72
8
73
4
74
0
42
1e-07
43
1e-07
40
0
40
0
40
0
40
0
40
1
40
1
40
1
40
1
10
4.74050625
20
1.782715
30
0
10
4.74050625
20
1.74604
30
0
10
4.79551875
20
1.74604
30
0
10
4.79551875
20
1.782715
30
0
0
SPLINE
5
256
100
AcDbEntity
8
0
6
ByLayer
62
7
370
-1
100
AcDbSpline
210
0
220
0
230
1
70
8
71
3
72
8
73
4
74
0
42
1e-07
43
1e-07
40
0
40
0
40
0
40
0
40
1
40
1
40
1
40
1
10
4.8955075
20
1.782715
30
0
10
4.8955075
20
1.81939
30
0
10
4.840495
20
1.81939
30
0
10
4.840495
20
1.782715
30
0
0
SPLINE
5
257
100
AcDbEntity
8
0
6
ByLayer
62
7
370
-1
100
AcDbSpline
210
0
220
0
230
1
70
8
71
3
72
8
73
4
74
0
42
1e-07
43
1e-07
40
0
40
0
40
0
40
0
40
1
40
1
40
1
40
1
10
4.840495
20
1.782715
30
0
10
4.840495
20
1.74604
30
0
10
4.8955075
20
1.74604
30
0
10
4.8955075
20
1.782715
30
0
0
SPLINE
5
258
100
AcDbEntity
8
0
6
ByLayer
62
7
370
-1
100
AcDbSpline
210
0
220
0
230
1
70
8
71
3
72
8
73
4
74
0
42
1e-07
43
1e-07
40
0
40
0
40
0
40
0
40
1
40
1
40
1
40
1
10
0.53190125
20
2.14019125
30
0
10
0.53190125
20
2.17301375
30
0
10
0.48269375
20
2.17301375
30
0
10
0.48269375
20
2.14019125
30
0
0
SPLINE
5
259
100
AcDbEntity
8
0
6
ByLayer
62
7
370
-1
100
AcDbSpline
210
0
220
0
230
1
70
8
71
3
72
8
73
4
74
0
42
1e-07
43
1e-07
40
0
40
0
40
0
40
0
40
1
40
1
40
1
40
1
10
0.48269375
20
2.14019125
30
0
10
0.48269375
20
2.1074225
30
0
10
0.53190125
20
2.1074225
30
0
10
0.53190125
20
2.14019125
30
0
0
SPLINE
5
25A
100
AcDbEntity
8
0
6
ByLayer
62
7
370
-1
100
AcDbSpline
210
0
220
0
230
1
70
8
71
3
72
8
73
4
74
0
42
1e-07
43
1e-07
40
0
40
0
40
0
40
0
40
1
40
1
40
1
40
1
10
0.45317875
20
2.14019125
30
0
10
0.45317875
20
2.17301375
30
0
10
0.40397125
20
2.17301375
30
0
10
0.40397125
20
2.14019125
30
0
0
SPLINE
5
25B
100
AcDbEntity
8
0
6
ByLayer
62
7
370
-1
100
AcDbSpline
210
0
220
0
230
1
70
8
71
3
72
8
73
4
74
0
42
1e-07
43
1e-07
40
0
40
0
40
0
40
0
40
1
40
1
40
1
40
1
10
0.40397125
20
2.14019125
30
0
10
0.40397125
20
2.1074225
30
0
10
0.45317875
20
2.1074225
30
0
10
0.45317875
20
2.14019125
30
0
0
SPLINE
5
25C
100
AcDbEntity
8
0
6
ByLayer
62
7
370
-1
100
AcDbSpline
210
0
220
0
230
1
70
8
71
3
72
8
73
4
74
0
42
1e-07
43
1e-07
40
0
40
0
40
0
40
0
40
1
40
1
40
1
40
1
10
0.53190125
20
2.06152375
30
0
10
0.53190125
20
2.09434625
30
0
10
0.48269375
20
2.09434625
30
0
10
0.48269375
20
2.06152375
30
0
0
SPLINE
5
25D
100
AcDbEntity
8
0
6
ByLayer
62
7
370
-1
100
AcDbSpline
210
0
220
0
230
1
70
8
71
3
72
8
73
4
74
0
42
1e-07
43
1e-07
40
0
40
0
40
0
40
0
40
1
40
1
40
1
40
1
10
0.48269375
20
2.06152375
30
0
10
0.48269375
20
2.0287
30
0
10
0.53190125
20
2.0287
30
0
10
0.53190125
20
2.06152375
30
0
0
SPLINE
5
25E
100
AcDbEntity
8
0
6
ByLayer
62
7
370
-1
100
AcDbSpline
210
0
220
0
230
1
70
8
71
3
72
8
73
4
74
0
42
1e-07
43
1e-07
40
0
40
0
40
0
40
0
40
1
40
1
40
1
40
1
10
0.45317875
20
2.06152375
30
0
10
0.45317875
20
2.09434625
30
0
10
0.40397125
20
2.09434625
30
0
10
0.40397125
20
2.06152375
30
0
0
SPLINE
5
25F
100
AcDbEntity
8
0
6
ByLayer
62
7
370
-1
100
AcDbSpline
210
0
220
0
230
1
70
8
71
3
72
8
73
4
74
0
42
1e-07
43
1e-07
40
0
40
0
40
0
40
0
40
1
40
1
40
1
40
1
10
0.40397125
20
2.06152375
30
0
10
0.40397125
20
2.0287
30
0
10
0.45317875
20
2.0287
30
0
10
0.45317875
20
2.06152375
30
0
0
SPLINE
5
260
100
AcDbEntity
8
0
6
ByLayer
62
7
370
-1
100
AcDbSpline
210
0
220
0
230
1
70
8
71
3
72
8
73
4
74
0
42
1e-07
43
1e-07
40
0
40
0
40
0
40
0
40
1
40
1
40
1
40
1
10
0.53190125
20
1.98269375
30
0
10
0.53190125
20
2.01551625
30
0
10
0.48269375
20
2.01551625
30
0
10
0.48269375
20
1.98269375
30
0
0
SPLINE
5
261
100
AcDbEntity
8
0
6
ByLayer
62
7
370
-1
100
AcDbSpline
210
0
220
0
230
1
70
8
71
3
72
8
73
4
74
0
42
1e-07
43
1e-07
40
0
40
0
40
0
40
0
40
1
40
1
40
1
40
1
10
0.48269375
20
1.98269375
30
0
10
0.48269375
20
1.94992375
30
0
10
0.53190125
20
1.94992375
30
0
10
0.53190125
20
1.98269375
30
0
0
SPLINE
5
262
100
AcDbEntity
8
0
6
ByLayer
62
7
370
-1
100
AcDbSpline
210
0
220
0
230
1
70
8
71
3
72
8
73
4
74
0
42
1e-07
43
1e-07
40
0
40
0
40
0
40
0
40
1
40
1
40
1
40
1
10
0.45317875
20
1.98269375
30
0
10
0.45317875
20
2.01551625
30
0
10
0.40397125
20
2.01551625
30
0
10
0.40397125
20
1.98269375
30
0
0
SPLINE
5
263
100
AcDbEntity
8
0
6
ByLayer
62
7
370
-1
100
AcDbSpline
210
0
220
0
230
1
70
8
71
3
72
8
73
4
74
0
42
1e-07
43
1e-07
40
0
40
0
40
0
40
0
40
1
40
1
40
1
40
1
10
0.40397125
20
1.98269375
30
0
10
0.40397125
20
1.94992375
30
0
10
0.45317875
20
1.94992375
30
0
10
0.45317875
20
1.98269375
30
0
0
SPLINE
5
264
100
AcDbEntity
8
0
6
ByLayer
62
7
370
-1
100
AcDbSpline
210
0
220
0
230
1
70
8
71
3
72
8
73
4
74
0
42
1e-07
43
1e-07
40
0
40
0
40
0
40
0
40
1
40
1
40
1
40
1
10
0.53190125
20
1.904025
30
0
10
0.53190125
20
1.93684875
30
0
10
0.48269375
20
1.93684875
30
0
10
0.48269375
20
1.904025
30
0
0
SPLINE
5
265
100
AcDbEntity
8
0
6
ByLayer
62
7
370
-1
100
AcDbSpline
210
0
220
0
230
1
70
8
71
3
72
8
73
4
74
0
42
1e-07
43
1e-07
40
0
40
0
40
0
40
0
40
1
40
1
40
1
40
1
10
0.48269375
20
1.904025
30
0
10
0.48269375
20
1.8712025
30
0
10
0.53190125
20
1.8712025
30
0
10
0.53190125
20
1.904025
30
0
0
SPLINE
5
266
100
AcDbEntity
8
0
6
ByLayer
62
7
370
-1
100
AcDbSpline
210
0
220
0
230
1
70
8
71
3
72
8
73
4
74
0
42
1e-07
43
1e-07
40
0
40
0
40
0
40
0
40
1
40
1
40
1
40
1
10
0.45317875
20
1.904025
30
0
10
0.45317875
20
1.93684875
30
0
10
0.40397125
20
1.93684875
30
0
10
0.40397125
20
1.904025
30
0
0
SPLINE
5
267
100
AcDbEntity
8
0
6
ByLayer
62
7
370
-1
100
AcDbSpline
210
0
220
0
230
1
70
8
71
3
72
8
73
4
74
0
42
1e-07
43
1e-07
40
0
40
0
40
0
40
0
40
1
40
1
40
1
40
1
10
0.40397125
20
1.904025
30
0
10
0.40397125
20
1.8712025
30
0
10
0.45317875
20
1.8712025
30
0
10
0.45317875
20
1.904025
30
0
0
SPLINE
5
268
100
AcDbEntity
8
0
6
ByLayer
62
7
370
-1
100
AcDbSpline
210
0
220
0
230
1
70
8
71
3
72
8
73
4
74
0
42
1e-07
43
1e-07
40
0
40
0
40
0
40
0
40
1
40
1
40
1
40
1
10
0.53190125
20
1.82530375
30
0
10
0.53190125
20
1.8581275
30
0
10
0.48269375
20
1.8581275
30
0
10
0.48269375
20
1.82530375
30
0
0
SPLINE
5
269
100
AcDbEntity
8
0
6
ByLayer
62
7
370
-1
100
AcDbSpline
210
0
220
0
230
1
70
8
71
3
72
8
73
4
74
0
42
1e-07
43
1e-07
40
0
40
0
40
0
40
0
40
1
40
1
40
1
40
1
10
0.48269375
20
1.82530375
30
0
10
0.48269375
20
1.792535
30
0
10
0.53190125
20
1.792535
30
0
10
0.53190125
20
1.82530375
30
0
0
SPLINE
5
26A
100
AcDbEntity
8
0
6
ByLayer
62
7
370
-1
100
AcDbSpline
210
0
220
0
230
1
70
8
71
3
72
8
73
4
74
0
42
1e-07
43
1e-07
40
0
40
0
40
0
40
0
40
1
40
1
40
1
40
1
10
0.45317875
20
1.82530375
30
0
10
0.45317875
20
1.8581275
30
0
10
0.40397125
20
1.8581275
30
0
10
0.40397125
20
1.82530375
30
0
0
SPLINE
5
26B
100
AcDbEntity
8
0
6
ByLayer
62
7
370
-1
100
AcDbSpline
210
0
220
0
230
1
70
8
71
3
72
8
73
4
74
0
42
1e-07
43
1e-07
40
0
40
0
40
0
40
0
40
1
40
1
40
1
40
1
10
0.40397125
20
1.82530375
30
0
10
0.40397125
20
1.792535
30
0
10
0.45317875
20
1.792535
30
0
10
0.45317875
20
1.82530375
30
0
0
SPLINE
5
26C
100
AcDbEntity
8
0
6
ByLayer
62
7
370
-1
100
AcDbSpline
210
0
220
0
230
1
70
8
71
3
72
8
73
4
74
0
42
1e-07
43
1e-07
40
0
40
0
40
0
40
0
40
1
40
1
40
1
40
1
10
5.99300125
20
2.23269375
30
0
10
5.99300125
20
2.33273625
30
0
10
5.84299
20
2.33273625
30
0
10
5.84299
20
2.23269375
30
0
0
SPLINE
5
26D
100
AcDbEntity
8
0
6
ByLayer
62
7
370
-1
100
AcDbSpline
210
0
220
0
230
1
70
8
71
3
72
8
73
4
74
0
42
1e-07
43
1e-07
40
0
40
0
40
0
40
0
40
1
40
1
40
1
40
1
10
5.84299
20
2.23269375
30
0
10
5.84299
20
2.13270375
30
0
10
5.99300125
20
2.13270375
30
0
10
5.99300125
20
2.23269375
30
0
0
SPLINE
5
26E
100
AcDbEntity
8
0
6
ByLayer
62
7
370
-1
100
AcDbSpline
210
0
220
0
230
1
70
8
71
3
72
8
73
4
74
0
42
1e-07
43
1e-07
40
0
40
0
40
0
40
0
40
1
40
1
40
1
40
1
10
5.99300125
20
1.73269375
30
0
10
5.99300125
20
1.83273625
30
0
10
5.84299
20
1.83273625
30
0
10
5.84299
20
1.73269375
30
0
0
SPLINE
5
26F
100
AcDbEntity
8
0
6
ByLayer
62
7
370
-1
100
AcDbSpline
210
0
220
0
230
1
70
8
71
3
72
8
73
4
74
0
42
1e-07
43
1e-07
40
0
40
0
40
0
40
0
40
1
40
1
40
1
40
1
10
5.84299
20
1.73269375
30
0
10
5.84299
20
1.63270375
30
0
10
5.99300125
20
1.63270375
30
0
10
5.99300125
20
1.73269375
30
0
0
SPLINE
5
270
100
AcDbEntity
8
0
6
ByLayer
62
7
370
-1
100
AcDbSpline
210
0
220
0
230
1
70
8
71
3
72
8
73
4
74
0
42
1e-07
43
1e-07
40
0
40
0
40
0
40
0
40
1
40
1
40
1
40
1
10
0.8930125
20
2.23269375
30
0
10
0.8930125
20
2.33273625
30
0
10
0.74300125
20
2.33273625
30
0
10
0.74300125
20
2.23269375
30
0
0
SPLINE
5
271
100
AcDbEntity
8
0
6
ByLayer
62
7
370
-1
100
AcDbSpline
210
0
220
0
230
1
70
8
71
3
72
8
73
4
74
0
42
1e-07
43
1e-07
40
0
40
0
40
0
40
0
40
1
40
1
40
1
40
1
10
0.74300125
20
2.23269375
30
0
10
0.74300125
20
2.13270375
30
0
10
0.8930125
20
2.13270375
30
0
10
0.8930125
20
2.23269375
30
0
0
SPLINE
5
272
100
AcDbEntity
8
0
6
ByLayer
62
7
370
-1
100
AcDbSpline
210
0
220
0
230
1
70
8
71
3
72
8
73
4
74
0
42
1e-07
43
1e-07
40
0
40
0
40
0
40
0
40
1
40
1
40
1
40
1
10
0.8930125
20
1.73269375
30
0
10
0.8930125
20
1.83273625
30
0
10
0.74300125
20
1.83273625
30
0
10
0.74300125
20
1.73269375
30
0
0
SPLINE
5
273
100
AcDbEntity
8
0
6
ByLayer
62
7
370
-1
100
AcDbSpline
210
0
220
0
230
1
70
8
71
3
72
8
73
4
74
0
42
1e-07
43
1e-07
40
0
40
0
40
0
40
0
40
1
40
1
40
1
40
1
10
0.74300125
20
1.73269375
30
0
10
0.74300125
20
1.63270375
30
0
10
0.8930125
20
1.63270375
30
0
10
0.8930125
20
1.73269375
30
0
0
LWPOLYLINE
5
274
100
AcDbEntity
8
0
6
ByLayer
62
7
370
-1
100
AcDbPolyline
90
5
70
0
43
0
10
4.73801
20
2.15272375
10
4.79801375
20
2.15272375
10
4.79801375
20
2.2127275
10
4.73801
20
2.2127275
10
4.73801
20
2.15272375
0
LWPOLYLINE
5
275
100
AcDbEntity
8
0
6
ByLayer
62
5
370
-1
100
AcDbPolyline
90
20
70
0
43
0
10
4.87321
20
2.2685
10
4.87890625
20
2.26660125
10
4.88840125
20
2.26660125
10
4.8921975
20
2.2685
10
4.8940975
20
2.27039875
10
4.89599625
20
2.2741975
10
4.89599625
20
2.277995
10
4.8940975
20
2.2817925
10
4.8921975
20
2.28369125
10
4.88840125
20
2.28559
10
4.880805
20
2.28754375
10
4.8770075
20
2.2894425
10
4.8751075
20
2.29134125
10
4.87321
20
2.29513875
10
4.87321
20
2.29893625
10
4.8751075
20
2.30273375
10
4.8770075
20
2.3047425
10
4.880805
20
2.30664
10
4.89029875
20
2.30664
10
4.89599625
20
2.3047425
0
LWPOLYLINE
5
276
100
AcDbEntity
8
0
6
ByLayer
62
5
370
-1
100
AcDbPolyline
90
2
70
0
43
0
10
4.91319375
20
2.28754375
10
4.9264875
20
2.28754375
0
LWPOLYLINE
5
277
100
AcDbEntity
8
0
6
ByLayer
62
5
370
-1
100
AcDbPolyline
90
4
70
0
43
0
10
4.9321825
20
2.26660125
10
4.91319375
20
2.26660125
10
4.91319375
20
2.30664
10
4.9321825
20
2.30664
0
LWPOLYLINE
5
278
100
AcDbEntity
8
0
6
ByLayer
62
5
370
-1
100
AcDbPolyline
90
4
70
0
43
0
10
4.94938125
20
2.26660125
10
4.94938125
20
2.30664
10
4.9722225
20
2.26660125
10
4.9722225
20
2.30664
0
LWPOLYLINE
5
279
100
AcDbEntity
8
0
6
ByLayer
62
5
370
-1
100
AcDbPolyline
90
20
70
0
43
0
10
4.98942125
20
2.2685
10
4.9951175
20
2.26660125
10
5.0046125
20
2.26660125
10
5.00840875
20
2.2685
10
5.0103075
20
2.27039875
10
5.0122075
20
2.2741975
10
5.0122075
20
2.277995
10
5.0103075
20
2.2817925
10
5.00840875
20
2.28369125
10
5.0046125
20
2.28559
10
4.99701625
20
2.28754375
10
4.9932175
20
2.2894425
10
4.99131875
20
2.29134125
10
4.98942125
20
2.29513875
10
4.98942125
20
2.29893625
10
4.99131875
20
2.30273375
10
4.9932175
20
2.3047425
10
4.99701625
20
2.30664
10
5.00651
20
2.30664
10
5.0122075
20
2.3047425
0
LWPOLYLINE
5
27A
100
AcDbEntity
8
0
6
ByLayer
62
5
370
-1
100
AcDbPolyline
90
17
70
0
43
0
10
5.03700125
20
2.30664
10
5.04459625
20
2.30664
10
5.04839375
20
2.3047425
10
5.0521925
20
2.300835
10
5.05409125
20
2.29324
10
5.05409125
20
2.27989375
10
5.0521925
20
2.27229875
10
5.04839375
20
2.2685
10
5.04459625
20
2.26660125
10
5.03700125
20
2.26660125
10
5.0332025
20
2.2685
10
5.029405
20
2.27229875
10
5.02750625
20
2.27989375
10
5.02750625
20
2.29324
10
5.029405
20
2.300835
10
5.0332025
20
2.3047425
10
5.03700125
20
2.30664
0
LWPOLYLINE
5
27B
100
AcDbEntity
8
0
6
ByLayer
62
5
370
-1
100
AcDbPolyline
90
2
70
0
43
0
10
5.09407625
20
2.26660125
10
5.0807825
20
2.28559
0
LWPOLYLINE
5
27C
100
AcDbEntity
8
0
6
ByLayer
62
5
370
-1
100
AcDbPolyline
90
11
70
0
43
0
10
5.07128875
20
2.26660125
10
5.07128875
20
2.30664
10
5.08648
20
2.30664
10
5.0902775
20
2.3047425
10
5.0921775
20
2.30273375
10
5.09407625
20
2.29893625
10
5.09407625
20
2.29324
10
5.0921775
20
2.2894425
10
5.0902775
20
2.28754375
10
5.08648
20
2.28559
10
5.07128875
20
2.28559
0
LWPOLYLINE
5
27D
100
AcDbEntity
8
0
6
ByLayer
62
5
370
-1
100
AcDbPolyline
90
14
70
0
43
0
10
5.13802125
20
2.30664
10
5.16270625
20
2.30664
10
5.14941375
20
2.29134125
10
5.15511125
20
2.29134125
10
5.1589075
20
2.2894425
10
5.1608075
20
2.28754375
10
5.16270625
20
2.28369125
10
5.16270625
20
2.2741975
10
5.1608075
20
2.27039875
10
5.1589075
20
2.2685
10
5.15511125
20
2.26660125
10
5.1437175
20
2.26660125
10
5.13992
20
2.2685
10
5.13802125
20
2.27039875
0
LWPOLYLINE
5
27E
100
AcDbEntity
8
0
6
ByLayer
62
5
370
-1
100
AcDbPolyline
90
20
70
0
43
0
10
3.22319875
20
2.2685
10
3.228895
20
2.26660125
10
3.23839
20
2.26660125
10
3.2421875
20
2.2685
10
3.24408625
20
2.27039875
10
3.245985
20
2.2741975
10
3.245985
20
2.277995
10
3.24408625
20
2.2817925
10
3.2421875
20
2.28369125
10
3.23839
20
2.28559
10
3.23079375
20
2.28754375
10
3.2269975
20
2.2894425
10
3.2250975
20
2.29134125
10
3.22319875
20
2.29513875
10
3.22319875
20
2.29893625
10
3.2250975
20
2.30273375
10
3.2269975
20
2.3047425
10
3.23079375
20
2.30664
10
3.24028875
20
2.30664
10
3.245985
20
2.3047425
0
LWPOLYLINE
5
27F
100
AcDbEntity
8
0
6
ByLayer
62
5
370
-1
100
AcDbPolyline
90
2
70
0
43
0
10
3.26318375
20
2.28754375
10
3.27647625
20
2.28754375
0
LWPOLYLINE
5
280
100
AcDbEntity
8
0
6
ByLayer
62
5
370
-1
100
AcDbPolyline
90
4
70
0
43
0
10
3.2822275
20
2.26660125
10
3.26318375
20
2.26660125
10
3.26318375
20
2.30664
10
3.2822275
20
2.30664
0
LWPOLYLINE
5
281
100
AcDbEntity
8
0
6
ByLayer
62
5
370
-1
100
AcDbPolyline
90
4
70
0
43
0
10
3.299425
20
2.26660125
10
3.299425
20
2.30664
10
3.32221125
20
2.26660125
10
3.32221125
20
2.30664
0
LWPOLYLINE
5
282
100
AcDbEntity
8
0
6
ByLayer
62
5
370
-1
100
AcDbPolyline
90
20
70
0
43
0
10
3.33941
20
2.2685
10
3.34510625
20
2.26660125
10
3.35460125
20
2.26660125
10
3.3583975
20
2.2685
10
3.3602975
20
2.27039875
10
3.36219625
20
2.2741975
10
3.36219625
20
2.277995
10
3.3602975
20
2.2817925
10
3.3583975
20
2.28369125
10
3.35460125
20
2.28559
10
3.347005
20
2.28754375
10
3.3432075
20
2.2894425
10
3.34130875
20
2.29134125
10
3.33941
20
2.29513875
10
3.33941
20
2.29893625
10
3.34130875
20
2.30273375
10
3.3432075
20
2.3047425
10
3.347005
20
2.30664
10
3.3565
20
2.30664
10
3.36219625
20
2.3047425
0
LWPOLYLINE
5
283
100
AcDbEntity
8
0
6
ByLayer
62
5
370
-1
100
AcDbPolyline
90
17
70
0
43
0
10
3.38699
20
2.30664
10
3.394585
20
2.30664
10
3.3983825
20
2.3047425
10
3.40218125
20
2.300835
10
3.40408
20
2.29324
10
3.40408
20
2.27989375
10
3.40218125
20
2.27229875
10
3.3983825
20
2.2685
10
3.394585
20
2.26660125
10
3.38699
20
2.26660125
10
3.3831925
20
2.2685
10
3.379395
20
2.27229875
10
3.37749625
20
2.27989375
10
3.37749625
20
2.29324
10
3.379395
20
2.300835
10
3.3831925
20
2.3047425
10
3.38699
20
2.30664
0
LWPOLYLINE
5
284
100
AcDbEntity
8
0
6
ByLayer
62
5
370
-1
100
AcDbPolyline
90
2
70
0
43
0
10
3.44411875
20
2.26660125
10
3.4308275
20
2.28559
0
LWPOLYLINE
5
285
100
AcDbEntity
8
0
6
ByLayer
62
5
370
-1
100
AcDbPolyline
90
11
70
0
43
0
10
3.4212775
20
2.26660125
10
3.4212775
20
2.30664
10
3.4365225
20
2.30664
10
3.44032125
20
2.3047425
10
3.44222
20
2.30273375
10
3.44411875
20
2.29893625
10
3.44411875
20
2.29324
10
3.44222
20
2.2894425
10
3.44032125
20
2.28754375
10
3.4365225
20
2.28559
10
3.4212775
20
2.28559
0
LWPOLYLINE
5
286
100
AcDbEntity
8
0
6
ByLayer
62
5
370
-1
100
AcDbPolyline
90
11
70
0
43
0
10
3.48990875
20
2.30273375
10
3.4918075
20
2.3047425
10
3.495605
20
2.30664
10
3.5051
20
2.30664
10
3.5088975
20
2.3047425
10
3.51079625
20
2.30273375
10
3.512695
20
2.29893625
10
3.512695
20
2.29513875
10
3.51079625
20
2.2894425
10
3.48801
20
2.26660125
10
3.512695
20
2.26660125
0
LWPOLYLINE
5
287
100
AcDbEntity
8
0
6
ByLayer
62
5
370
-1
100
AcDbPolyline
90
20
70
0
43
0
10
1.5731875
20
2.2685
10
1.578885
20
2.26660125
10
1.58837875
20
2.26660125
10
1.5921775
20
2.2685
10
1.59407625
20
2.27039875
10
1.59597375
20
2.2741975
10
1.59597375
20
2.277995
10
1.59407625
20
2.2817925
10
1.5921775
20
2.28369125
10
1.58837875
20
2.28559
10
1.5807825
20
2.28754375
10
1.57698625
20
2.2894425
10
1.5750875
20
2.29134125
10
1.5731875
20
2.29513875
10
1.5731875
20
2.29893625
10
1.5750875
20
2.30273375
10
1.57698625
20
2.3047425
10
1.5807825
20
2.30664
10
1.5902775
20
2.30664
10
1.59597375
20
2.3047425
0
LWPOLYLINE
5
288
100
AcDbEntity
8
0
6
ByLayer
62
5
370
-1
100
AcDbPolyline
90
2
70
0
43
0
10
1.6132275
20
2.28754375
10
1.62651875
20
2.28754375
0
LWPOLYLINE
5
289
100
AcDbEntity
8
0
6
ByLayer
62
5
370
-1
100
AcDbPolyline
90
4
70
0
43
0
10
1.63221625
20
2.26660125
10
1.6132275
20
2.26660125
10
1.6132275
20
2.30664
10
1.63221625
20
2.30664
0
LWPOLYLINE
5
28A
100
AcDbEntity
8
0
6
ByLayer
62
5
370
-1
100
AcDbPolyline
90
4
70
0
43
0
10
1.64941375
20
2.26660125
10
1.64941375
20
2.30664
10
1.67220125
20
2.26660125
10
1.67220125
20
2.30664
0
LWPOLYLINE
5
28B
100
AcDbEntity
8
0
6
ByLayer
62
5
370
-1
100
AcDbPolyline
90
20
70
0
43
0
10
1.68939875
20
2.2685
10
1.695095
20
2.26660125
10
1.70459
20
2.26660125
10
1.7083875
20
2.2685
10
1.71028625
20
2.27039875
10
1.712185
20
2.2741975
10
1.712185
20
2.277995
10
1.71028625
20
2.2817925
10
1.7083875
20
2.28369125
10
1.70459
20
2.28559
10
1.69699375
20
2.28754375
10
1.6931975
20
2.2894425
10
1.6912975
20
2.29134125
10
1.68939875
20
2.29513875
10
1.68939875
20
2.29893625
10
1.6912975
20
2.30273375
10
1.6931975
20
2.3047425
10
1.69699375
20
2.30664
10
1.70648875
20
2.30664
10
1.712185
20
2.3047425
0
LWPOLYLINE
5
28C
100
AcDbEntity
8
0
6
ByLayer
62
5
370
-1
100
AcDbPolyline
90
17
70
0
43
0
10
1.73697875
20
2.30664
10
1.744575
20
2.30664
10
1.7484275
20
2.3047425
10
1.75222375
20
2.300835
10
1.7541225
20
2.29324
10
1.7541225
20
2.27989375
10
1.75222375
20
2.27229875
10
1.7484275
20
2.2685
10
1.744575
20
2.26660125
10
1.73697875
20
2.26660125
10
1.73318125
20
2.2685
10
1.72938375
20
2.27229875
10
1.727485
20
2.27989375
10
1.727485
20
2.29324
10
1.72938375
20
2.300835
10
1.73318125
20
2.3047425
10
1.73697875
20
2.30664
0
LWPOLYLINE
5
28D
100
AcDbEntity
8
0
6
ByLayer
62
5
370
-1
100
AcDbPolyline
90
2
70
0
43
0
10
1.7941075
20
2.26660125
10
1.78081625
20
2.28559
0
LWPOLYLINE
5
28E
100
AcDbEntity
8
0
6
ByLayer
62
5
370
-1
100
AcDbPolyline
90
11
70
0
43
0
10
1.7713225
20
2.26660125
10
1.7713225
20
2.30664
10
1.7865125
20
2.30664
10
1.79031
20
2.3047425
10
1.79220875
20
2.30273375
10
1.7941075
20
2.29893625
10
1.7941075
20
2.29324
10
1.79220875
20
2.2894425
10
1.79031
20
2.28754375
10
1.7865125
20
2.28559
10
1.7713225
20
2.28559
0
LWPOLYLINE
5
28F
100
AcDbEntity
8
0
6
ByLayer
62
5
370
-1
100
AcDbPolyline
90
2
70
0
43
0
10
1.86268375
20
2.26660125
10
1.8398975
20
2.26660125
0
SPLINE
5
290
100
AcDbEntity
8
0
6
ByLayer
62
5
370
-1
100
AcDbSpline
210
0
220
0
230
1
70
8
71
3
72
8
73
4
74
0
42
1e-07
43
1e-07
40
0
40
0
40
0
40
0
40
1
40
1
40
1
40
1
10
4.19298
20
2.032715
30
0
10
4.19298
20
2.087945
30
0
10
4.14822
20
2.13270375
30
0
10
4.09299
20
2.13270375
30
0
0
SPLINE
5
291
100
AcDbEntity
8
0
6
ByLayer
62
5
370
-1
100
AcDbSpline
210
0
220
0
230
1
70
8
71
3
72
8
73
4
74
0
42
1e-07
43
1e-07
40
0
40
0
40
0
40
0
40
1
40
1
40
1
40
1
10
4.09299
20
2.13270375
30
0
10
4.03776
20
2.13270375
30
0
10
3.99300125
20
2.087945
30
0
10
3.99300125
20
2.032715
30
0
0
LWPOLYLINE
5
292
100
AcDbEntity
8
0
6
ByLayer
62
5
370
-1
100
AcDbPolyline
90
5
70
0
43
0
10
1.85129125
20
2.26660125
10
1.85129125
20
2.30664
10
1.8474925
20
2.300835
10
1.84369625
20
2.29703875
10
1.8398975
20
2.29513875
0
LWPOLYLINE
5
293
100
AcDbEntity
8
0
6
ByLayer
62
5
370
-1
100
AcDbPolyline
90
2
70
0
43
0
10
4.03298625
20
1.98269375
10
3.99300125
20
2.032715
0
LWPOLYLINE
5
294
100
AcDbEntity
8
0
6
ByLayer
62
5
370
-1
100
AcDbPolyline
90
2
70
0
43
0
10
4.152995
20
1.98269375
10
4.19298
20
2.032715
0
LWPOLYLINE
5
295
100
AcDbEntity
8
0
6
ByLayer
62
5
370
-1
100
AcDbPolyline
90
2
70
0
43
0
10
4.03298625
20
1.98269375
10
4.152995
20
1.98269375
0
LWPOLYLINE
5
296
100
AcDbEntity
8
0
6
ByLayer
62
5
370
-1
100
AcDbPolyline
90
5
70
0
43
0
10
1.4180225
20
2.13270375
10
1.4180225
20
2.23269375
10
2.0180125
20
2.23269375
10
2.0180125
20
2.13270375
10
1.4180225
20
2.13270375
0
LWPOLYLINE
5
297
100
AcDbEntity
8
0
6
ByLayer
62
5
370
-1
100
AcDbPolyline
90
2
70
0
43
0
10
1.5180125
20
2.13270375
10
1.5180125
20
2.23269375
0
LWPOLYLINE
5
298
100
AcDbEntity
8
0
6
ByLayer
62
5
370
-1
100
AcDbPolyline
90
5
70
0
43
0
10
3.06798
20
2.13270375
10
3.06798
20
2.23269375
10
3.6680225
20
2.23269375
10
3.6680225
20
2.13270375
10
3.06798
20
2.13270375
0
LWPOLYLINE
5
299
100
AcDbEntity
8
0
6
ByLayer
62
5
370
-1
100
AcDbPolyline
90
2
70
0
43
0
10
3.1680225
20
2.13270375
10
3.1680225
20
2.23269375
0
LWPOLYLINE
5
29A
100
AcDbEntity
8
0
6
ByLayer
62
5
370
-1
100
AcDbPolyline
90
5
70
0
43
0
10
4.71799
20
2.13270375
10
4.71799
20
2.23269375
10
5.31798
20
2.23269375
10
5.31798
20
2.13270375
10
4.71799
20
2.13270375
0
LWPOLYLINE
5
29B
100
AcDbEntity
8
0
6
ByLayer
62
5
370
-1
100
AcDbPolyline
90
2
70
0
43
0
10
4.81798
20
2.13270375
10
4.81798
20
2.23269375
0
LWPOLYLINE
5
29C
100
AcDbEntity
8
0
6
ByLayer
62
5
370
-1
100
AcDbPolyline
90
5
70
0
43
0
10
1.41997625
20
2.032715
10
1.61800125
20
2.032715
10
1.61800125
20
1.93272625
10
1.4180225
20
1.93272625
10
1.4180225
20
2.032715
0
LWPOLYLINE
5
29D
100
AcDbEntity
8
0
6
ByLayer
62
5
370
-1
100
AcDbPolyline
90
2
70
0
43
0
10
1.4180225
20
2.00770375
10
1.44298
20
2.032715
0
LWPOLYLINE
5
29E
100
AcDbEntity
8
0
6
ByLayer
62
5
370
-1
100
AcDbPolyline
90
5
70
0
43
0
10
1.41997625
20
1.83273625
10
1.61800125
20
1.83273625
10
1.61800125
20
1.73269375
10
1.4180225
20
1.73269375
10
1.4180225
20
1.83273625
0
LWPOLYLINE
5
29F
100
AcDbEntity
8
0
6
ByLayer
62
5
370
-1
100
AcDbPolyline
90
2
70
0
43
0
10
1.4180225
20
1.80772625
10
1.44298
20
1.83273625
0
LWPOLYLINE
5
2A0
100
AcDbEntity
8
0
6
ByLayer
62
5
370
-1
100
AcDbPolyline
90
5
70
0
43
0
10
3.0699875
20
2.032715
10
3.2680125
20
2.032715
10
3.2680125
20
1.93272625
10
3.06798
20
1.93272625
10
3.06798
20
2.032715
0
LWPOLYLINE
5
2A1
100
AcDbEntity
8
0
6
ByLayer
62
5
370
-1
100
AcDbPolyline
90
2
70
0
43
0
10
3.06798
20
2.00770375
10
3.09299
20
2.032715
0
LWPOLYLINE
5
2A2
100
AcDbEntity
8
0
6
ByLayer
62
5
370
-1
100
AcDbPolyline
90
5
70
0
43
0
10
3.0699875
20
1.83273625
10
3.2680125
20
1.83273625
10
3.2680125
20
1.73269375
10
3.06798
20
1.73269375
10
3.06798
20
1.83273625
0
LWPOLYLINE
5
2A3
100
AcDbEntity
8
0
6
ByLayer
62
5
370
-1
100
AcDbPolyline
90
2
70
0
43
0
10
3.06798
20
1.80772625
10
3.09299
20
1.83273625
0
LWPOLYLINE
5
2A4
100
AcDbEntity
8
0
6
ByLayer
62
5
370
-1
100
AcDbPolyline
90
5
70
0
43
0
10
3.99500875
20
1.80772625
10
4.19298
20
1.80772625
10
4.19298
20
1.70773625
10
3.99300125
20
1.70773625
10
3.99300125
20
1.80772625
0
LWPOLYLINE
5
2A5
100
AcDbEntity
8
0
6
ByLayer
62
5
370
-1
100
AcDbPolyline
90
2
70
0
43
0
10
3.99300125
20
1.782715
10
4.0180125
20
1.80772625
0
LWPOLYLINE
5
2A6
100
AcDbEntity
8
0
6
ByLayer
62
5
370
-1
100
AcDbPolyline
90
5
70
0
43
0
10
4.7199975
20
2.032715
10
4.9180225
20
2.032715
10
4.9180225
20
1.93272625
10
4.71799
20
1.93272625
10
4.71799
20
2.032715
0
LWPOLYLINE
5
2A7
100
AcDbEntity
8
0
6
ByLayer
62
5
370
-1
100
AcDbPolyline
90
2
70
0
43
0
10
4.71799
20
2.00770375
10
4.74300125
20
2.032715
0
LWPOLYLINE
5
2A8
100
AcDbEntity
8
0
6
ByLayer
62
5
370
-1
100
AcDbPolyline
90
5
70
0
43
0
10
4.7199975
20
1.83273625
10
4.9180225
20
1.83273625
10
4.9180225
20
1.73269375
10
4.71799
20
1.73269375
10
4.71799
20
1.83273625
0
LWPOLYLINE
5
2A9
100
AcDbEntity
8
0
6
ByLayer
62
5
370
-1
100
AcDbPolyline
90
2
70
0
43
0
10
4.71799
20
1.80772625
10
4.74300125
20
1.83273625
0
LWPOLYLINE
5
2AA
100
AcDbEntity
8
0
6
ByLayer
62
5
370
-1
100
AcDbPolyline
90
10
70
0
43
0
10
4.0629875
20
1.9562175
10
4.0629875
20
1.92431625
10
4.06477875
20
1.9206275
10
4.0666775
20
1.91872875
10
4.070475
20
1.91682875
10
4.07801625
20
1.91682875
10
4.08170625
20
1.91872875
10
4.083605
20
1.9206275
10
4.0855025
20
1.92431625
10
4.0855025
20
1.9562175
0
LWPOLYLINE
5
2AB
100
AcDbEntity
8
0
6
ByLayer
62
5
370
-1
100
AcDbPolyline
90
2
70
0
43
0
10
4.1247825
20
1.91682875
10
4.1023225
20
1.91682875
0
LWPOLYLINE
5
2AC
100
AcDbEntity
8
0
6
ByLayer
62
5
370
-1
100
AcDbPolyline
90
5
70
0
43
0
10
4.1136075
20
1.91682875
10
4.1136075
20
1.9562175
10
4.10980875
20
1.95062875
10
4.10612
20
1.94683125
10
4.1023225
20
1.94493375
0
LWPOLYLINE
5
2AD
100
AcDbEntity
8
0
6
ByLayer
62
5
370
-1
100
AcDbPolyline
90
2
70
0
43
0
10
4.0020075
20
2.196235
10
4.0245225
20
2.196235
0
LWPOLYLINE
5
2AE
100
AcDbEntity
8
0
6
ByLayer
62
5
370
-1
100
AcDbPolyline
90
2
70
0
43
0
10
4.0132925
20
2.1567925
10
4.0132925
20
2.196235
0
LWPOLYLINE
5
2AF
100
AcDbEntity
8
0
6
ByLayer
62
5
370
-1
100
AcDbPolyline
90
5
70
0
43
0
10
4.0375975
20
2.1567925
10
4.0375975
20
2.196235
10
4.05078125
20
2.16813125
10
4.06391125
20
2.196235
10
4.06391125
20
2.1567925
0
LWPOLYLINE
5
2B0
100
AcDbEntity
8
0
6
ByLayer
62
5
370
-1
100
AcDbPolyline
90
11
70
0
43
0
10
4.08257375
20
2.1567925
10
4.08257375
20
2.196235
10
4.0976025
20
2.196235
10
4.1014
20
2.19433625
10
4.10329875
20
2.1924375
10
4.10508875
20
2.18869375
10
4.10508875
20
2.183105
10
4.10329875
20
2.17930875
10
4.1014
20
2.17740875
10
4.0976025
20
2.17561875
10
4.08257375
20
2.17561875
0
LWPOLYLINE
5
2B1
100
AcDbEntity
8
0
6
ByLayer
62
5
370
-1
100
AcDbPolyline
90
14
70
0
43
0
10
4.1183275
20
2.196235
10
4.1425775
20
2.196235
10
4.1295025
20
2.18120625
10
4.13509125
20
2.18120625
10
4.13888875
20
2.17930875
10
4.1407875
20
2.17740875
10
4.1425775
20
2.17371875
10
4.1425775
20
2.16433375
10
4.1407875
20
2.16059
10
4.13888875
20
2.15869125
10
4.13509125
20
2.1567925
10
4.123915
20
2.1567925
10
4.1201175
20
2.15869125
10
4.1183275
20
2.16059
0
LWPOLYLINE
5
2B2
100
AcDbEntity
8
0
6
ByLayer
62
5
370
-1
100
AcDbPolyline
90
22
70
0
43
0
10
4.1763775
20
2.196235
10
4.16889125
20
2.196235
10
4.1650925
20
2.19433625
10
4.1633025
20
2.1924375
10
4.159505
20
2.186795
10
4.15760625
20
2.17930875
10
4.15760625
20
2.16433375
10
4.159505
20
2.16059
10
4.16140375
20
2.15869125
10
4.1650925
20
2.1567925
10
4.17258
20
2.1567925
10
4.1763775
20
2.15869125
10
4.1782775
20
2.16059
10
4.1801225
20
2.16433375
10
4.1801225
20
2.17371875
10
4.1782775
20
2.17740875
10
4.1763775
20
2.17930875
10
4.17258
20
2.18120625
10
4.1650925
20
2.18120625
10
4.16140375
20
2.17930875
10
4.159505
20
2.17740875
10
4.15760625
20
2.17371875
0
LWPOLYLINE
5
2B3
100
AcDbEntity
8
0
6
ByLayer
62
5
370
-1
100
AcDbPolyline
90
11
70
0
43
0
10
1.33837875
20
2.1666125
10
1.33837875
20
2.2065975
10
1.3536775
20
2.2065975
10
1.35747625
20
2.20469875
10
1.359375
20
2.20269125
10
1.36127375
20
2.19889375
10
1.36127375
20
2.19319625
10
1.359375
20
2.18939875
10
1.35747625
20
2.1875
10
1.3536775
20
2.18560125
10
1.33837875
20
2.18560125
0
LWPOLYLINE
5
2B4
100
AcDbEntity
8
0
6
ByLayer
62
5
370
-1
100
AcDbPolyline
90
11
70
0
43
0
10
1.37651875
20
2.20269125
10
1.3784175
20
2.20469875
10
1.38221625
20
2.2065975
10
1.39181875
20
2.2065975
10
1.39561625
20
2.20469875
10
1.397515
20
2.20269125
10
1.39941375
20
2.19889375
10
1.39941375
20
2.195095
10
1.397515
20
2.18939875
10
1.37462
20
2.1666125
10
1.39941375
20
2.1666125
0
LWPOLYLINE
5
2B5
100
AcDbEntity
8
0
6
ByLayer
62
5
370
-1
100
AcDbPolyline
90
11
70
0
43
0
10
2.98839
20
2.1666125
10
2.98839
20
2.2065975
10
3.00368875
20
2.2065975
10
3.0074875
20
2.20469875
10
3.00938625
20
2.20269125
10
3.011285
20
2.19889375
10
3.011285
20
2.19319625
10
3.00938625
20
2.18939875
10
3.0074875
20
2.1875
10
3.00368875
20
2.18560125
10
2.98839
20
2.18560125
0
LWPOLYLINE
5
2B6
100
AcDbEntity
8
0
6
ByLayer
62
5
370
-1
100
AcDbPolyline
90
14
70
0
43
0
10
3.0245775
20
2.2065975
10
3.049425
20
2.2065975
10
3.03602375
20
2.19129875
10
3.041775
20
2.19129875
10
3.0455725
20
2.18939875
10
3.04752625
20
2.1875
10
3.049425
20
2.1837025
10
3.049425
20
2.17420875
10
3.04752625
20
2.17041
10
3.0455725
20
2.16851125
10
3.041775
20
2.1666125
10
3.0302725
20
2.1666125
10
3.02647625
20
2.16851125
10
3.0245775
20
2.17041
0
LWPOLYLINE
5
2B7
100
AcDbEntity
8
0
6
ByLayer
62
5
370
-1
100
AcDbPolyline
90
11
70
0
43
0
10
4.63840125
20
2.1666125
10
4.63840125
20
2.2065975
10
4.6537
20
2.2065975
10
4.6574975
20
2.20469875
10
4.6593975
20
2.20269125
10
4.66129625
20
2.19889375
10
4.66129625
20
2.19319625
10
4.6593975
20
2.18939875
10
4.6574975
20
2.1875
10
4.6537
20
2.18560125
10
4.63840125
20
2.18560125
0
LWPOLYLINE
5
2B8
100
AcDbEntity
8
0
6
ByLayer
62
5
370
-1
100
AcDbPolyline
90
2
70
0
43
0
10
4.69558375
20
2.19319625
10
4.69558375
20
2.1666125
0
LWPOLYLINE
5
2B9
100
AcDbEntity
8
0
6
ByLayer
62
5
370
-1
100
AcDbPolyline
90
3
70
0
43
0
10
4.68598125
20
2.20849625
10
4.6764875
20
2.17990375
10
4.70128
20
2.17990375
0
LWPOLYLINE
5
2BA
100
AcDbEntity
8
0
6
ByLayer
62
5
370
-1
100
AcDbPolyline
90
16
70
0
43
0
10
1.36127375
20
1.9704325
10
1.359375
20
1.96853375
10
1.3536775
20
1.96663375
10
1.34988125
20
1.96663375
10
1.34407625
20
1.96853375
10
1.3402775
20
1.97233125
10
1.33837875
20
1.97612875
10
1.33648
20
1.98372375
10
1.33648
20
1.98942
10
1.33837875
20
1.99701625
10
1.3402775
20
2.00081375
10
1.34407625
20
2.00472
10
1.34988125
20
2.00661875
10
1.3536775
20
2.00661875
10
1.359375
20
2.00472
10
1.36127375
20
2.0027125
0
LWPOLYLINE
5
2BB
100
AcDbEntity
8
0
6
ByLayer
62
5
370
-1
100
AcDbPolyline
90
2
70
0
43
0
10
1.39941375
20
1.96663375
10
1.37651875
20
1.96663375
0
LWPOLYLINE
5
2BC
100
AcDbEntity
8
0
6
ByLayer
62
5
370
-1
100
AcDbPolyline
90
5
70
0
43
0
10
1.38802125
20
1.96663375
10
1.38802125
20
2.00661875
10
1.384115
20
2.00081375
10
1.3803175
20
1.99701625
10
1.37651875
20
1.9951175
0
LWPOLYLINE
5
2BD
100
AcDbEntity
8
0
6
ByLayer
62
5
370
-1
100
AcDbPolyline
90
16
70
0
43
0
10
1.36127375
20
1.77039875
10
1.359375
20
1.7685
10
1.3536775
20
1.76660125
10
1.34988125
20
1.76660125
10
1.34407625
20
1.7685
10
1.3402775
20
1.77229875
10
1.33837875
20
1.77609625
10
1.33648
20
1.78369125
10
1.33648
20
1.7894425
10
1.33837875
20
1.79703875
10
1.3402775
20
1.800835
10
1.34407625
20
1.8047425
10
1.34988125
20
1.80664
10
1.3536775
20
1.80664
10
1.359375
20
1.8047425
10
1.36127375
20
1.80273375
0
LWPOLYLINE
5
2BE
100
AcDbEntity
8
0
6
ByLayer
62
5
370
-1
100
AcDbPolyline
90
11
70
0
43
0
10
1.37651875
20
1.80273375
10
1.3784175
20
1.8047425
10
1.38221625
20
1.80664
10
1.39181875
20
1.80664
10
1.39561625
20
1.8047425
10
1.397515
20
1.80273375
10
1.39941375
20
1.79893625
10
1.39941375
20
1.79513875
10
1.397515
20
1.7894425
10
1.37462
20
1.76660125
10
1.39941375
20
1.76660125
0
LWPOLYLINE
5
2BF
100
AcDbEntity
8
0
6
ByLayer
62
5
370
-1
100
AcDbPolyline
90
16
70
0
43
0
10
3.011285
20
1.9704325
10
3.00938625
20
1.96853375
10
3.00368875
20
1.96663375
10
2.99989125
20
1.96663375
10
2.99408625
20
1.96853375
10
2.99028875
20
1.97233125
10
2.98839
20
1.97612875
10
2.98649125
20
1.98372375
10
2.98649125
20
1.98942
10
2.98839
20
1.99701625
10
2.99028875
20
2.00081375
10
2.99408625
20
2.00472
10
2.99989125
20
2.00661875
10
3.00368875
20
2.00661875
10
3.00938625
20
2.00472
10
3.011285
20
2.0027125
0
LWPOLYLINE
5
2C0
100
AcDbEntity
8
0
6
ByLayer
62
5
370
-1
100
AcDbPolyline
90
14
70
0
43
0
10
3.0245775
20
2.00661875
10
3.049425
20
2.00661875
10
3.03602375
20
1.99131875
10
3.041775
20
1.99131875
10
3.0455725
20
1.98942
10
3.04752625
20
1.9875225
10
3.049425
20
1.98372375
10
3.049425
20
1.97422875
10
3.04752625
20
1.9704325
10
3.0455725
20
1.96853375
10
3.041775
20
1.96663375
10
3.0302725
20
1.96663375
10
3.02647625
20
1.96853375
10
3.0245775
20
1.9704325
0
LWPOLYLINE
5
2C1
100
AcDbEntity
8
0
6
ByLayer
62
5
370
-1
100
AcDbPolyline
90
16
70
0
43
0
10
3.011285
20
1.77039875
10
3.00938625
20
1.7685
10
3.00368875
20
1.76660125
10
2.99989125
20
1.76660125
10
2.99408625
20
1.7685
10
2.99028875
20
1.77229875
10
2.98839
20
1.77609625
10
2.98649125
20
1.78369125
10
2.98649125
20
1.7894425
10
2.98839
20
1.79703875
10
2.99028875
20
1.800835
10
2.99408625
20
1.8047425
10
2.99989125
20
1.80664
10
3.00368875
20
1.80664
10
3.00938625
20
1.8047425
10
3.011285
20
1.80273375
0
LWPOLYLINE
5
2C2
100
AcDbEntity
8
0
6
ByLayer
62
5
370
-1
100
AcDbPolyline
90
2
70
0
43
0
10
3.0455725
20
1.79324
10
3.0455725
20
1.76660125
0
LWPOLYLINE
5
2C3
100
AcDbEntity
8
0
6
ByLayer
62
5
370
-1
100
AcDbPolyline
90
3
70
0
43
0
10
3.03602375
20
1.80853875
10
3.02647625
20
1.77989375
10
3.05132375
20
1.77989375
0
LWPOLYLINE
5
2C4
100
AcDbEntity
8
0
6
ByLayer
62
5
370
-1
100
AcDbPolyline
90
16
70
0
43
0
10
4.0963
20
1.835395
10
4.09440125
20
1.83349625
10
4.08870375
20
1.8315975
10
4.0849075
20
1.8315975
10
4.0791025
20
1.83349625
10
4.07530375
20
1.83729375
10
4.073405
20
1.84109125
10
4.07150625
20
1.84874125
10
4.07150625
20
1.85443875
10
4.073405
20
1.86203375
10
4.07530375
20
1.86583125
10
4.0791025
20
1.8697375
10
4.0849075
20
1.87163625
10
4.08870375
20
1.87163625
10
4.09440125
20
1.8697375
10
4.0963
20
1.86773
0
LWPOLYLINE
5
2C5
100
AcDbEntity
8
0
6
ByLayer
62
5
370
-1
100
AcDbPolyline
90
16
70
0
43
0
10
4.1324875
20
1.87163625
10
4.11339
20
1.87163625
10
4.11149125
20
1.85253875
10
4.11339
20
1.85443875
10
4.1171875
20
1.8563375
10
4.12679
20
1.8563375
10
4.1305875
20
1.85443875
10
4.1324875
20
1.85253875
10
4.13438625
20
1.84874125
10
4.13438625
20
1.83919375
10
4.1324875
20
1.835395
10
4.1305875
20
1.83349625
10
4.12679
20
1.8315975
10
4.1171875
20
1.8315975
10
4.11339
20
1.83349625
10
4.11149125
20
1.835395
0
LWPOLYLINE
5
2C6
100
AcDbEntity
8
0
6
ByLayer
62
5
370
-1
100
AcDbPolyline
90
16
70
0
43
0
10
4.66129625
20
1.9704325
10
4.6593975
20
1.96853375
10
4.6537
20
1.96663375
10
4.6499025
20
1.96663375
10
4.6440975
20
1.96853375
10
4.64029875
20
1.97233125
10
4.63840125
20
1.97612875
10
4.6365025
20
1.98372375
10
4.6365025
20
1.98942
10
4.63840125
20
1.99701625
10
4.64029875
20
2.00081375
10
4.6440975
20
2.00472
10
4.6499025
20
2.00661875
10
4.6537
20
2.00661875
10
4.6593975
20
2.00472
10
4.66129625
20
2.0027125
0
LWPOLYLINE
5
2C7
100
AcDbEntity
8
0
6
ByLayer
62
5
370
-1
100
AcDbPolyline
90
22
70
0
43
0
10
4.69558375
20
2.00661875
10
4.6879875
20
2.00661875
10
4.6840825
20
2.00472
10
4.6821825
20
2.0027125
10
4.678385
20
1.99701625
10
4.6764875
20
1.98942
10
4.6764875
20
1.97422875
10
4.678385
20
1.9704325
10
4.68028375
20
1.96853375
10
4.6840825
20
1.96663375
10
4.69178625
20
1.96663375
10
4.69558375
20
1.96853375
10
4.6974825
20
1.9704325
10
4.69938125
20
1.97422875
10
4.69938125
20
1.98372375
10
4.6974825
20
1.9875225
10
4.69558375
20
1.98942
10
4.69178625
20
1.99131875
10
4.6840825
20
1.99131875
10
4.68028375
20
1.98942
10
4.678385
20
1.9875225
10
4.6764875
20
1.98372375
0
LWPOLYLINE
5
2C8
100
AcDbEntity
8
0
6
ByLayer
62
5
370
-1
100
AcDbPolyline
90
16
70
0
43
0
10
4.66129625
20
1.77039875
10
4.6593975
20
1.7685
10
4.6537
20
1.76660125
10
4.6499025
20
1.76660125
10
4.6440975
20
1.7685
10
4.64029875
20
1.77229875
10
4.63840125
20
1.77609625
10
4.6365025
20
1.78369125
10
4.6365025
20
1.7894425
10
4.63840125
20
1.79703875
10
4.64029875
20
1.800835
10
4.6440975
20
1.8047425
10
4.6499025
20
1.80664
10
4.6537
20
1.80664
10
4.6593975
20
1.8047425
10
4.66129625
20
1.80273375
0
LWPOLYLINE
5
2C9
100
AcDbEntity
8
0
6
ByLayer
62
5
370
-1
100
AcDbPolyline
90
3
70
0
43
0
10
4.6745875
20
1.80664
10
4.70128
20
1.80664
10
4.6840825
20
1.76660125
0
ENDSEC
0
SECTION
2
OBJECTS
0
DICTIONARY
5
C
330
0
100
AcDbDictionary
281
1
3
ACAD_GROUP
350
D
0
DICTIONARY
5
D
330
C
100
AcDbDictionary
281
1
0
ENDSEC
0
EOF
