G04 (created by PCBNEW (2013-jul-07)-stable) date Wed 25 Feb 2015 12:47:53 PM PST*
%MOIN*%
G04 Gerber Fmt 3.4, Leading zero omitted, Abs format*
%FSLAX34Y34*%
G01*
G70*
G90*
G04 APERTURE LIST*
%ADD10C,0.00590551*%
%ADD11C,0.0511811*%
%ADD12C,0.06*%
%ADD13R,0.06X0.06*%
%ADD14C,0.0629921*%
%ADD15C,0.0708661*%
%ADD16C,0.065*%
%ADD17C,0.13*%
%ADD18C,0.07*%
%ADD19C,0.125*%
%ADD20R,0.063X0.063*%
%ADD21C,0.063*%
%ADD22C,0.14*%
%ADD23R,0.07X0.07*%
%ADD24C,0.0492126*%
%ADD25C,0.0590551*%
%ADD26C,0.035*%
%ADD27C,0.03*%
%ADD28C,0.01*%
G04 APERTURE END LIST*
G54D10*
G54D11*
X35433Y-27559D03*
X34645Y-27559D03*
X33858Y-27559D03*
X33070Y-27559D03*
X32283Y-27559D03*
X31496Y-27559D03*
X30708Y-27559D03*
X29921Y-27559D03*
X29133Y-27559D03*
X28346Y-27559D03*
X28346Y-36220D03*
X29133Y-36220D03*
X29921Y-36220D03*
X30708Y-36220D03*
X31496Y-36220D03*
X32283Y-36220D03*
X33070Y-36220D03*
X33858Y-36220D03*
X34645Y-36220D03*
X35433Y-36220D03*
G54D12*
X41594Y-31496D03*
X42594Y-31496D03*
X43594Y-31496D03*
X44594Y-31496D03*
X45594Y-31496D03*
X46594Y-31496D03*
X20550Y-27650D03*
X21550Y-27650D03*
X22550Y-27650D03*
X23550Y-27650D03*
G54D13*
X18300Y-35100D03*
G54D12*
X18300Y-36100D03*
X17300Y-35100D03*
X17300Y-36100D03*
G54D13*
X23200Y-35100D03*
G54D12*
X23200Y-36100D03*
G54D13*
X14850Y-11500D03*
G54D12*
X14850Y-12500D03*
G54D13*
X20800Y-35100D03*
G54D12*
X20800Y-36100D03*
X17700Y-27650D03*
X17700Y-28650D03*
X17700Y-29650D03*
X17700Y-30650D03*
X17700Y-31650D03*
X17700Y-32650D03*
G54D14*
X42066Y-35039D03*
X46122Y-35039D03*
G54D15*
X42066Y-33582D03*
X42070Y-36141D03*
X46122Y-33582D03*
X46122Y-36141D03*
G54D16*
X12700Y-23780D03*
X12700Y-22800D03*
X12700Y-21820D03*
X11400Y-21820D03*
X11400Y-22800D03*
X11400Y-23780D03*
X28677Y-24015D03*
X29677Y-24015D03*
X30677Y-24015D03*
X31677Y-24015D03*
X32677Y-24015D03*
X33677Y-24015D03*
X34677Y-24015D03*
X35677Y-24015D03*
G54D17*
X28677Y-12455D03*
X36677Y-12455D03*
G54D16*
X36677Y-24015D03*
G54D18*
X51000Y-19500D03*
X51000Y-20500D03*
X51000Y-21500D03*
X51000Y-22500D03*
X51000Y-23500D03*
X51000Y-24500D03*
X51000Y-25500D03*
X51000Y-26500D03*
G54D19*
X51030Y-17290D03*
X51030Y-28710D03*
X39410Y-17290D03*
X39410Y-28710D03*
G54D20*
X11500Y-15011D03*
G54D21*
X11500Y-16389D03*
G54D22*
X50000Y-35000D03*
X50000Y-12500D03*
X12500Y-35000D03*
X12500Y-12500D03*
G54D13*
X15000Y-35100D03*
G54D12*
X15000Y-36100D03*
G54D23*
X41450Y-13050D03*
G54D18*
X41450Y-12050D03*
X42450Y-13050D03*
X42450Y-12050D03*
X43450Y-13050D03*
X43450Y-12050D03*
X44450Y-13050D03*
X44450Y-12050D03*
X45450Y-13050D03*
X45450Y-12050D03*
G54D12*
X11450Y-25250D03*
X12450Y-25250D03*
X13450Y-25250D03*
X14450Y-25250D03*
X15450Y-25250D03*
X16450Y-25250D03*
X17450Y-25250D03*
X18450Y-25250D03*
X19450Y-25250D03*
X20450Y-25250D03*
X21450Y-25250D03*
X22450Y-25250D03*
X23450Y-25250D03*
X24450Y-25250D03*
X24450Y-24250D03*
X24450Y-23250D03*
X24450Y-22250D03*
X24450Y-21250D03*
X24450Y-20250D03*
X24450Y-19250D03*
X23450Y-19250D03*
X22450Y-19250D03*
X21450Y-19250D03*
X20450Y-19250D03*
X19450Y-19250D03*
X18450Y-19250D03*
X17450Y-19250D03*
X16450Y-19250D03*
X15450Y-19250D03*
X14450Y-19250D03*
X13450Y-19250D03*
X12450Y-19250D03*
X11450Y-19250D03*
X17450Y-22250D03*
X18450Y-22250D03*
X19450Y-22250D03*
X20450Y-22250D03*
X21450Y-22250D03*
X22450Y-22250D03*
X23450Y-22250D03*
X23450Y-21250D03*
X22450Y-21250D03*
X21450Y-21250D03*
X20450Y-21250D03*
X19450Y-21250D03*
X18450Y-21250D03*
X17450Y-21250D03*
X16450Y-20250D03*
X15450Y-20250D03*
X14450Y-20250D03*
X12450Y-20250D03*
G54D24*
X17375Y-12443D03*
X17375Y-11656D03*
X18162Y-12443D03*
X18162Y-11656D03*
X18950Y-12443D03*
X18950Y-11656D03*
X19737Y-12443D03*
X19737Y-11656D03*
X20524Y-12443D03*
X20524Y-11656D03*
X22925Y-12443D03*
X22925Y-11656D03*
X23712Y-12443D03*
X23712Y-11656D03*
X24500Y-12443D03*
X24500Y-11656D03*
X25287Y-12443D03*
X25287Y-11656D03*
X26074Y-12443D03*
X26074Y-11656D03*
G54D25*
X16141Y-15157D03*
X16141Y-17125D03*
X17322Y-15157D03*
X17322Y-17125D03*
X18503Y-15157D03*
X18503Y-17125D03*
X19685Y-15157D03*
X19685Y-17125D03*
X20866Y-15157D03*
X20866Y-17125D03*
X22047Y-15157D03*
X22047Y-17125D03*
X23228Y-15157D03*
X23228Y-17125D03*
X24409Y-15157D03*
X24409Y-17125D03*
X25590Y-15157D03*
X25590Y-17125D03*
X26771Y-15157D03*
X26771Y-17125D03*
X28346Y-13976D03*
X28346Y-15944D03*
X14960Y-15157D03*
X14960Y-17125D03*
X30708Y-13976D03*
X30708Y-15944D03*
X31889Y-13976D03*
X31889Y-15944D03*
X33070Y-13976D03*
X33070Y-15944D03*
X34251Y-13976D03*
X34251Y-15944D03*
X35433Y-13976D03*
X35433Y-15944D03*
X28346Y-17913D03*
X28346Y-19881D03*
X29527Y-17913D03*
X29527Y-19881D03*
X30708Y-17913D03*
X30708Y-19881D03*
X31889Y-17913D03*
X31889Y-19881D03*
X33070Y-17913D03*
X33070Y-19881D03*
X34251Y-17913D03*
X34251Y-19881D03*
X29527Y-13976D03*
X29527Y-15944D03*
G54D26*
X23142Y-28636D03*
X19318Y-20338D03*
X20964Y-14140D03*
X25086Y-18811D03*
X27424Y-17597D03*
X25049Y-19695D03*
X16115Y-24364D03*
X31231Y-24621D03*
X25133Y-30336D03*
X24604Y-29977D03*
X24639Y-29526D03*
X34346Y-20664D03*
X26583Y-11354D03*
X30201Y-24724D03*
X31830Y-25090D03*
G54D27*
X17300Y-35100D02*
X18300Y-35100D01*
X18300Y-35100D02*
X18850Y-35100D01*
X18850Y-34714D02*
X18850Y-35100D01*
X24463Y-29101D02*
X18850Y-34714D01*
X33890Y-29101D02*
X24463Y-29101D01*
X35433Y-27559D02*
X33890Y-29101D01*
X22957Y-28636D02*
X23142Y-28636D01*
X16743Y-34850D02*
X22957Y-28636D01*
X16743Y-35543D02*
X16743Y-34850D01*
X17300Y-36100D02*
X16743Y-35543D01*
X12050Y-23130D02*
X12463Y-23543D01*
X12050Y-20875D02*
X12050Y-23130D01*
X11450Y-20275D02*
X12050Y-20875D01*
X11450Y-19250D02*
X11450Y-20275D01*
X12463Y-23543D02*
X12700Y-23780D01*
X15050Y-29650D02*
X17700Y-29650D01*
X10899Y-25498D02*
X15050Y-29650D01*
X10899Y-25021D02*
X10899Y-25498D01*
X11379Y-24540D02*
X10899Y-25021D01*
X11467Y-24540D02*
X11379Y-24540D01*
X12463Y-23543D02*
X11467Y-24540D01*
X19550Y-29650D02*
X21550Y-27650D01*
X17700Y-29650D02*
X19550Y-29650D01*
X37040Y-25500D02*
X35677Y-24136D01*
X51000Y-25500D02*
X37040Y-25500D01*
X32760Y-27052D02*
X35677Y-24136D01*
X26653Y-27052D02*
X32760Y-27052D01*
X25506Y-28200D02*
X26653Y-27052D01*
X22100Y-28200D02*
X25506Y-28200D01*
X21550Y-27650D02*
X22100Y-28200D01*
X35677Y-24136D02*
X35677Y-24015D01*
G54D28*
X19407Y-20250D02*
X19318Y-20338D01*
X24450Y-20250D02*
X19407Y-20250D01*
X21208Y-13915D02*
X19737Y-12443D01*
X26171Y-13915D02*
X21208Y-13915D01*
X27237Y-14980D02*
X26171Y-13915D01*
X27237Y-15345D02*
X27237Y-14980D01*
X26977Y-15604D02*
X27237Y-15345D01*
X17769Y-15604D02*
X26977Y-15604D01*
X17322Y-15157D02*
X17769Y-15604D01*
X20646Y-14140D02*
X20964Y-14140D01*
X18950Y-12443D02*
X20646Y-14140D01*
X20207Y-14488D02*
X18162Y-12443D01*
X26102Y-14488D02*
X20207Y-14488D01*
X26771Y-15157D02*
X26102Y-14488D01*
X27700Y-16196D02*
X26771Y-17125D01*
X27700Y-14621D02*
X27700Y-16196D01*
X28346Y-13976D02*
X27700Y-14621D01*
X25067Y-18791D02*
X25086Y-18811D01*
X18908Y-18791D02*
X25067Y-18791D01*
X18450Y-19250D02*
X18908Y-18791D01*
X26156Y-13312D02*
X25287Y-12443D01*
X31226Y-13312D02*
X26156Y-13312D01*
X31889Y-13976D02*
X31226Y-13312D01*
X25569Y-13512D02*
X24500Y-12443D01*
X28515Y-13512D02*
X25569Y-13512D01*
X28796Y-13793D02*
X28515Y-13512D01*
X28796Y-14217D02*
X28796Y-13793D01*
X27901Y-15112D02*
X28796Y-14217D01*
X27901Y-17467D02*
X27901Y-15112D01*
X28346Y-17913D02*
X27901Y-17467D01*
X15423Y-18276D02*
X14450Y-19250D01*
X26405Y-18276D02*
X15423Y-18276D01*
X26500Y-18371D02*
X26405Y-18276D01*
X29069Y-18371D02*
X26500Y-18371D01*
X29527Y-17913D02*
X29069Y-18371D01*
X26608Y-17597D02*
X27424Y-17597D01*
X26319Y-17308D02*
X26608Y-17597D01*
X26319Y-16575D02*
X26319Y-17308D01*
X27462Y-15432D02*
X26319Y-16575D01*
X27462Y-14922D02*
X27462Y-15432D01*
X26252Y-13713D02*
X27462Y-14922D01*
X24981Y-13713D02*
X26252Y-13713D01*
X23712Y-12443D02*
X24981Y-13713D01*
X33070Y-19094D02*
X33070Y-19881D01*
X34251Y-17913D02*
X33070Y-19094D01*
X32250Y-20702D02*
X33070Y-19881D01*
X16902Y-20702D02*
X32250Y-20702D01*
X16450Y-20250D02*
X16902Y-20702D01*
X44733Y-11333D02*
X45450Y-12050D01*
X40973Y-11333D02*
X44733Y-11333D01*
X35013Y-17293D02*
X40973Y-11333D01*
X34238Y-17293D02*
X35013Y-17293D01*
X33661Y-17870D02*
X34238Y-17293D01*
X33661Y-17962D02*
X33661Y-17870D01*
X32590Y-19033D02*
X33661Y-17962D01*
X27450Y-19033D02*
X32590Y-19033D01*
X26788Y-19695D02*
X27450Y-19033D01*
X25049Y-19695D02*
X26788Y-19695D01*
X20900Y-21700D02*
X20450Y-21250D01*
X21561Y-21700D02*
X20900Y-21700D01*
X21999Y-22138D02*
X21561Y-21700D01*
X21999Y-22444D02*
X21999Y-22138D01*
X22267Y-22711D02*
X21999Y-22444D01*
X31839Y-22711D02*
X22267Y-22711D01*
X34212Y-20339D02*
X31839Y-22711D01*
X34424Y-20339D02*
X34212Y-20339D01*
X40784Y-13979D02*
X34424Y-20339D01*
X41520Y-13979D02*
X40784Y-13979D01*
X42450Y-13050D02*
X41520Y-13979D01*
X29201Y-24491D02*
X29677Y-24015D01*
X27541Y-24491D02*
X29201Y-24491D01*
X26840Y-23790D02*
X27541Y-24491D01*
X15909Y-23790D02*
X26840Y-23790D01*
X14450Y-25250D02*
X15909Y-23790D01*
X31387Y-26305D02*
X33677Y-24015D01*
X25327Y-26305D02*
X31387Y-26305D01*
X25131Y-26501D02*
X25327Y-26305D01*
X23791Y-26501D02*
X25131Y-26501D01*
X23596Y-26305D02*
X23791Y-26501D01*
X17869Y-26305D02*
X23596Y-26305D01*
X16950Y-25386D02*
X17869Y-26305D01*
X16950Y-25104D02*
X16950Y-25386D01*
X16626Y-24781D02*
X16950Y-25104D01*
X15250Y-24781D02*
X16626Y-24781D01*
X14950Y-25081D02*
X15250Y-24781D01*
X14950Y-25419D02*
X14950Y-25081D01*
X14668Y-25701D02*
X14950Y-25419D01*
X13901Y-25701D02*
X14668Y-25701D01*
X13450Y-25250D02*
X13901Y-25701D01*
X30351Y-25500D02*
X31231Y-24621D01*
X24900Y-25500D02*
X30351Y-25500D01*
X24700Y-25700D02*
X24900Y-25500D01*
X24263Y-25700D02*
X24700Y-25700D01*
X23950Y-25387D02*
X24263Y-25700D01*
X23950Y-25106D02*
X23950Y-25387D01*
X23643Y-24799D02*
X23950Y-25106D01*
X23223Y-24799D02*
X23643Y-24799D01*
X22950Y-25073D02*
X23223Y-24799D01*
X22950Y-25411D02*
X22950Y-25073D01*
X22661Y-25700D02*
X22950Y-25411D01*
X22228Y-25700D02*
X22661Y-25700D01*
X21950Y-25421D02*
X22228Y-25700D01*
X21950Y-25102D02*
X21950Y-25421D01*
X21211Y-24364D02*
X21950Y-25102D01*
X16115Y-24364D02*
X21211Y-24364D01*
X42594Y-33055D02*
X42594Y-31496D01*
X42066Y-33582D02*
X42594Y-33055D01*
X43594Y-32774D02*
X43594Y-31496D01*
X41698Y-34670D02*
X43594Y-32774D01*
X41698Y-34670D02*
X42066Y-35039D01*
X37363Y-30336D02*
X41698Y-34670D01*
X25133Y-30336D02*
X37363Y-30336D01*
X43076Y-29977D02*
X44594Y-31496D01*
X24604Y-29977D02*
X43076Y-29977D01*
X46594Y-33110D02*
X46594Y-31496D01*
X46122Y-33582D02*
X46594Y-33110D01*
X45594Y-34511D02*
X45594Y-31496D01*
X46122Y-35039D02*
X45594Y-34511D01*
X43625Y-29526D02*
X45594Y-31496D01*
X24639Y-29526D02*
X43625Y-29526D01*
X35509Y-23500D02*
X51000Y-23500D01*
X35177Y-23832D02*
X35509Y-23500D01*
X35177Y-24212D02*
X35177Y-23832D01*
X32683Y-26706D02*
X35177Y-24212D01*
X25492Y-26706D02*
X32683Y-26706D01*
X25297Y-26901D02*
X25492Y-26706D01*
X23626Y-26901D02*
X25297Y-26901D01*
X23430Y-26706D02*
X23626Y-26901D01*
X16906Y-26706D02*
X23430Y-26706D01*
X15450Y-25250D02*
X16906Y-26706D01*
X35507Y-21500D02*
X51000Y-21500D01*
X33177Y-23830D02*
X35507Y-21500D01*
X33177Y-24211D02*
X33177Y-23830D01*
X31287Y-26101D02*
X33177Y-24211D01*
X25248Y-26101D02*
X31287Y-26101D01*
X25048Y-26301D02*
X25248Y-26101D01*
X23874Y-26301D02*
X25048Y-26301D01*
X23674Y-26101D02*
X23874Y-26301D01*
X18301Y-26101D02*
X23674Y-26101D01*
X17450Y-25250D02*
X18301Y-26101D01*
X35518Y-22500D02*
X51000Y-22500D01*
X34177Y-23841D02*
X35518Y-22500D01*
X34177Y-24206D02*
X34177Y-23841D01*
X31877Y-26505D02*
X34177Y-24206D01*
X25409Y-26505D02*
X31877Y-26505D01*
X25214Y-26701D02*
X25409Y-26505D01*
X23708Y-26701D02*
X25214Y-26701D01*
X23513Y-26505D02*
X23708Y-26701D01*
X17705Y-26505D02*
X23513Y-26505D01*
X16450Y-25250D02*
X17705Y-26505D01*
X24450Y-25249D02*
X24450Y-25250D01*
X30142Y-25249D02*
X24450Y-25249D01*
X31177Y-24215D02*
X30142Y-25249D01*
X31177Y-23831D02*
X31177Y-24215D01*
X33621Y-21387D02*
X31177Y-23831D01*
X34187Y-21387D02*
X33621Y-21387D01*
X39147Y-16427D02*
X34187Y-21387D01*
X41072Y-16427D02*
X39147Y-16427D01*
X44450Y-13050D02*
X41072Y-16427D01*
X36520Y-19500D02*
X51000Y-19500D01*
X32177Y-23842D02*
X36520Y-19500D01*
X32177Y-24212D02*
X32177Y-23842D01*
X30688Y-25700D02*
X32177Y-24212D01*
X25083Y-25700D02*
X30688Y-25700D01*
X24882Y-25900D02*
X25083Y-25700D01*
X24100Y-25900D02*
X24882Y-25900D01*
X23450Y-25250D02*
X24100Y-25900D01*
X26037Y-19250D02*
X24450Y-19250D01*
X26453Y-18833D02*
X26037Y-19250D01*
X31611Y-18833D02*
X26453Y-18833D01*
X32409Y-18035D02*
X31611Y-18833D01*
X32409Y-17928D02*
X32409Y-18035D01*
X33360Y-16977D02*
X32409Y-17928D01*
X35046Y-16977D02*
X33360Y-16977D01*
X40890Y-11133D02*
X35046Y-16977D01*
X45241Y-11133D02*
X40890Y-11133D01*
X45972Y-11863D02*
X45241Y-11133D01*
X45972Y-12527D02*
X45972Y-11863D01*
X45450Y-13050D02*
X45972Y-12527D01*
X41813Y-14686D02*
X43450Y-13050D01*
X40383Y-14686D02*
X41813Y-14686D01*
X34404Y-20664D02*
X40383Y-14686D01*
X34346Y-20664D02*
X34404Y-20664D01*
X42933Y-11533D02*
X43450Y-12050D01*
X41252Y-11533D02*
X42933Y-11533D01*
X40376Y-12410D02*
X41252Y-11533D01*
X40376Y-12487D02*
X40376Y-12410D01*
X33793Y-19069D02*
X40376Y-12487D01*
X33793Y-19798D02*
X33793Y-19069D01*
X31877Y-21715D02*
X33793Y-19798D01*
X22915Y-21715D02*
X31877Y-21715D01*
X22450Y-21250D02*
X22915Y-21715D01*
X16093Y-14024D02*
X14960Y-15157D01*
X16093Y-11793D02*
X16093Y-14024D01*
X17056Y-10829D02*
X16093Y-11793D01*
X18910Y-10829D02*
X17056Y-10829D01*
X19737Y-11656D02*
X18910Y-10829D01*
X16141Y-15944D02*
X16141Y-15157D01*
X14960Y-17125D02*
X16141Y-15944D01*
X18323Y-11029D02*
X18950Y-11656D01*
X17139Y-11029D02*
X18323Y-11029D01*
X16754Y-11415D02*
X17139Y-11029D01*
X16754Y-12668D02*
X16754Y-11415D01*
X19243Y-15157D02*
X16754Y-12668D01*
X19685Y-15157D02*
X19243Y-15157D01*
X17744Y-11238D02*
X18162Y-11656D01*
X17218Y-11238D02*
X17744Y-11238D01*
X16961Y-11495D02*
X17218Y-11238D01*
X16961Y-12592D02*
X16961Y-11495D01*
X19081Y-14712D02*
X16961Y-12592D01*
X23964Y-14712D02*
X19081Y-14712D01*
X24409Y-15157D02*
X23964Y-14712D01*
X26473Y-11244D02*
X26583Y-11354D01*
X25699Y-11244D02*
X26473Y-11244D01*
X25287Y-11656D02*
X25699Y-11244D01*
X25138Y-11017D02*
X24500Y-11656D01*
X31293Y-11017D02*
X25138Y-11017D01*
X34251Y-13976D02*
X31293Y-11017D01*
X16223Y-18476D02*
X15450Y-19250D01*
X26322Y-18476D02*
X16223Y-18476D01*
X26417Y-18571D02*
X26322Y-18476D01*
X30685Y-18571D02*
X26417Y-18571D01*
X31299Y-17958D02*
X30685Y-18571D01*
X31299Y-17866D02*
X31299Y-17958D01*
X32467Y-16697D02*
X31299Y-17866D01*
X33499Y-16697D02*
X32467Y-16697D01*
X34251Y-15944D02*
X33499Y-16697D01*
X32124Y-16497D02*
X30708Y-17913D01*
X33157Y-16497D02*
X32124Y-16497D01*
X33661Y-15993D02*
X33157Y-16497D01*
X33661Y-15896D02*
X33661Y-15993D01*
X34698Y-14859D02*
X33661Y-15896D01*
X34698Y-13778D02*
X34698Y-14859D01*
X31738Y-10817D02*
X34698Y-13778D01*
X24551Y-10817D02*
X31738Y-10817D01*
X23712Y-11656D02*
X24551Y-10817D01*
X30263Y-20327D02*
X30708Y-19881D01*
X25221Y-20327D02*
X30263Y-20327D01*
X24675Y-19781D02*
X25221Y-20327D01*
X15918Y-19781D02*
X24675Y-19781D01*
X15450Y-20250D02*
X15918Y-19781D01*
X23100Y-24599D02*
X22450Y-25250D01*
X23958Y-24599D02*
X23100Y-24599D01*
X24083Y-24724D02*
X23958Y-24599D01*
X30201Y-24724D02*
X24083Y-24724D01*
X31020Y-25901D02*
X31830Y-25090D01*
X25165Y-25901D02*
X31020Y-25901D01*
X24965Y-26101D02*
X25165Y-25901D01*
X23957Y-26101D02*
X24965Y-26101D01*
X23757Y-25901D02*
X23957Y-26101D01*
X22101Y-25901D02*
X23757Y-25901D01*
X21450Y-25250D02*
X22101Y-25901D01*
G54D27*
X22925Y-11656D02*
X20524Y-11656D01*
X15595Y-17672D02*
X12783Y-17672D01*
X16141Y-17125D02*
X15595Y-17672D01*
X12783Y-18916D02*
X12783Y-17672D01*
X12450Y-19250D02*
X12783Y-18916D01*
X12783Y-17672D02*
X11500Y-16389D01*
X15556Y-36656D02*
X15000Y-36100D01*
X22643Y-36656D02*
X15556Y-36656D01*
X23200Y-36100D02*
X22643Y-36656D01*
X16688Y-16578D02*
X16141Y-17125D01*
X17956Y-16578D02*
X16688Y-16578D01*
X18503Y-17125D02*
X17956Y-16578D01*
X13850Y-27650D02*
X17700Y-27650D01*
X11450Y-25250D02*
X13850Y-27650D01*
X21997Y-27097D02*
X22550Y-27650D01*
X18252Y-27097D02*
X21997Y-27097D01*
X17700Y-27650D02*
X18252Y-27097D01*
X28893Y-15397D02*
X28346Y-15944D01*
X30161Y-15397D02*
X28893Y-15397D01*
X30708Y-15944D02*
X30161Y-15397D01*
X31262Y-15390D02*
X32435Y-15390D01*
X30708Y-15944D02*
X31262Y-15390D01*
X32516Y-15390D02*
X33070Y-15944D01*
X32435Y-15390D02*
X32516Y-15390D01*
X26215Y-11796D02*
X26074Y-11656D01*
X27692Y-11796D02*
X26215Y-11796D01*
X27935Y-11554D02*
X27692Y-11796D01*
X30239Y-11554D02*
X27935Y-11554D01*
X32435Y-13750D02*
X30239Y-11554D01*
X32435Y-15390D02*
X32435Y-13750D01*
X19049Y-17671D02*
X18503Y-17125D01*
X20320Y-17671D02*
X19049Y-17671D01*
X20866Y-17125D02*
X20320Y-17671D01*
X21414Y-17674D02*
X20866Y-17125D01*
X22679Y-17674D02*
X21414Y-17674D01*
X23228Y-17125D02*
X22679Y-17674D01*
X30074Y-19335D02*
X29527Y-19881D01*
X31342Y-19335D02*
X30074Y-19335D01*
X31889Y-19881D02*
X31342Y-19335D01*
M02*
