999
dxfrw 0.5.11
0
SECTION
2
HEADER
9
$ACADVER
1
AC1021
9
$HANDSEED
5
20000
9
$DWGCODEPAGE
3
ANSI_1252
9
$INSBASE
10
0
20
0
30
0
9
$EXTMIN
10
-5.96875
20
-6.85
30
0
9
$EXTMAX
10
7.05
20
7.275
30
0
9
$LIMMIN
10
0
20
0
9
$LIMMAX
10
420
20
297
9
$ORTHOMODE
70
0
9
$LTSCALE
40
1
9
$TEXTSTYLE
7
STANDARD
9
$CLAYER
8
4-40_insert_hole
9
$DIMASZ
40
0.25
9
$DIMLFAC
40
1
9
$DIMSCALE
40
1
9
$DIMEXO
40
0.025
9
$DIMEXE
40
0.05
9
$DIMTXT
40
0.25
9
$DIMTSZ
40
0
9
$DIMAUNIT
70
0
9
$DIMADEC
70
2
9
$DIMLUNIT
70
2
9
$DIMSTYLE
2
STANDARD
9
$DIMGAP
40
0.025
9
$DIMTIH
70
0
9
$LUNITS
70
2
9
$LUPREC
70
4
9
$AUNITS
70
0
9
$AUPREC
70
2
9
$SPLINESEGS
70
8
9
$GRIDMODE
70
1
9
$SNAPSTYLE
70
0
9
$GRIDUNIT
10
0
20
0
9
$PINSBASE
10
0
20
0
30
0
9
$PLIMMIN
10
0
20
0
9
$PLIMMAX
10
4.7721774e-11
20
6.7492118e-11
9
$INSUNITS
70
1
9
$PSVPSCALE
40
1
0
ENDSEC
0
SECTION
2
CLASSES
0
ENDSEC
0
SECTION
2
TABLES
0
TABLE
2
VPORT
5
8
330
0
100
AcDbSymbolTable
70
1
0
VPORT
5
31
330
2
100
AcDbSymbolTableRecord
100
AcDbViewportTableRecord
2
*ACTIVE
70
0
10
0
20
0
11
1
21
1
12
6.61789895448
22
4.35812857978
13
0
23
0
14
10
24
10
15
10
25
10
16
0
26
0
36
1
17
0
27
0
37
0
40
22.5654213131
41
1.31330472103
42
50
43
0
44
0
50
0
51
0
71
0
72
100
73
1
74
3
75
0
76
1
77
0
78
0
281
0
65
1
110
0
120
0
130
0
111
1
121
0
131
0
112
0
122
1
132
0
79
0
146
0
348
10020
60
7
61
5
292
1
282
1
141
0
142
0
63
250
421
3358443
0
ENDTAB
0
TABLE
2
LTYPE
5
5
330
0
100
AcDbSymbolTable
70
4
0
LTYPE
5
14
330
5
100
AcDbSymbolTableRecord
100
AcDbLinetypeTableRecord
2
ByBlock
70
0
3

72
65
73
0
40
0
0
LTYPE
5
15
330
5
100
AcDbSymbolTableRecord
100
AcDbLinetypeTableRecord
2
ByLayer
70
0
3

72
65
73
0
40
0
0
LTYPE
5
16
330
5
100
AcDbSymbolTableRecord
100
AcDbLinetypeTableRecord
2
Continuous
70
0
3
Solid line
72
65
73
0
40
0
0
LTYPE
5
32
330
5
100
AcDbSymbolTableRecord
100
AcDbLinetypeTableRecord
2
DOT
70
0
3
Dot . . . . . . . . . . . . . . . . . . . . . .
72
65
73
2
40
6.35
49
0
74
0
49
-6.35
74
0
0
LTYPE
5
33
330
5
100
AcDbSymbolTableRecord
100
AcDbLinetypeTableRecord
2
DOT2
70
0
3
Dot (.5x) .....................................
72
65
73
2
40
3.175
49
0
74
0
49
-3.175
74
0
0
LTYPE
5
34
330
5
100
AcDbSymbolTableRecord
100
AcDbLinetypeTableRecord
2
DOTX2
70
0
3
Dot (2x) .  .  .  .  .  .  .  .  .  .  .  .  .
72
65
73
2
40
12.7
49
0
74
0
49
-12.7
74
0
0
LTYPE
5
35
330
5
100
AcDbSymbolTableRecord
100
AcDbLinetypeTableRecord
2
DASHED
70
0
3
Dot . . . . . . . . . . . . . . . . . . . . . .
72
65
73
2
40
19.05
49
12.7
74
0
49
-6.35
74
0
0
LTYPE
5
36
330
5
100
AcDbSymbolTableRecord
100
AcDbLinetypeTableRecord
2
DASHED2
70
0
3
Dashed (.5x) _ _ _ _ _ _ _ _ _ _ _ _ _ _ _ _ _
72
65
73
2
40
9.525
49
6.35
74
0
49
-3.175
74
0
0
LTYPE
5
37
330
5
100
AcDbSymbolTableRecord
100
AcDbLinetypeTableRecord
2
DASHEDX2
70
0
3
Dashed (2x) ____  ____  ____  ____  ____  ___
72
65
73
2
40
38.1
49
25.4
74
0
49
-12.7
74
0
0
LTYPE
5
38
330
5
100
AcDbSymbolTableRecord
100
AcDbLinetypeTableRecord
2
DASHDOT
70
0
3
Dash dot __ . __ . __ . __ . __ . __ . __ . __
72
65
73
4
40
25.4
49
12.7
74
0
49
-6.35
74
0
49
0
74
0
49
-6.35
74
0
0
LTYPE
5
39
330
5
100
AcDbSymbolTableRecord
100
AcDbLinetypeTableRecord
2
DASHDOT2
70
0
3
Dash dot (.5x) _._._._._._._._._._._._._._._.
72
65
73
4
40
12.7
49
6.35
74
0
49
-3.175
74
0
49
0
74
0
49
-3.175
74
0
0
LTYPE
5
3A
330
5
100
AcDbSymbolTableRecord
100
AcDbLinetypeTableRecord
2
DASHDOTX2
70
0
3
Dash dot (2x) ____  .  ____  .  ____  .  ___
72
65
73
4
40
50.8
49
25.4
74
0
49
-12.7
74
0
49
0
74
0
49
-12.7
74
0
0
LTYPE
5
3B
330
5
100
AcDbSymbolTableRecord
100
AcDbLinetypeTableRecord
2
DIVIDE
70
0
3
Divide ____ . . ____ . . ____ . . ____ . . ____
72
65
73
6
40
31.75
49
12.7
74
0
49
-6.35
74
0
49
0
74
0
49
-6.35
74
0
49
0
74
0
49
-6.35
74
0
0
LTYPE
5
3C
330
5
100
AcDbSymbolTableRecord
100
AcDbLinetypeTableRecord
2
DIVIDE2
70
0
3
Divide (.5x) __..__..__..__..__..__..__..__.._
72
65
73
6
40
15.875
49
6.35
74
0
49
-3.175
74
0
49
0
74
0
49
-3.175
74
0
49
0
74
0
49
-3.175
74
0
0
LTYPE
5
3D
330
5
100
AcDbSymbolTableRecord
100
AcDbLinetypeTableRecord
2
DIVIDEX2
70
0
3
Divide (2x) ________  .  .  ________  .  .  _
72
65
73
6
40
63.5
49
25.4
74
0
49
-12.7
74
0
49
0
74
0
49
-12.7
74
0
49
0
74
0
49
-12.7
74
0
0
LTYPE
5
3E
330
5
100
AcDbSymbolTableRecord
100
AcDbLinetypeTableRecord
2
BORDER
70
0
3
Border __ __ . __ __ . __ __ . __ __ . __ __ .
72
65
73
6
40
44.45
49
12.7
74
0
49
-6.35
74
0
49
12.7
74
0
49
-6.35
74
0
49
0
74
0
49
-6.35
74
0
0
LTYPE
5
3F
330
5
100
AcDbSymbolTableRecord
100
AcDbLinetypeTableRecord
2
BORDER2
70
0
3
Border (.5x) __.__.__.__.__.__.__.__.__.__.__.
72
65
73
6
40
22.225
49
6.35
74
0
49
-3.175
74
0
49
6.35
74
0
49
-3.175
74
0
49
0
74
0
49
-3.175
74
0
0
LTYPE
5
40
330
5
100
AcDbSymbolTableRecord
100
AcDbLinetypeTableRecord
2
BORDERX2
70
0
3
Border (2x) ____  ____  .  ____  ____  .  ___
72
65
73
6
40
88.9
49
25.4
74
0
49
-12.7
74
0
49
25.4
74
0
49
-12.7
74
0
49
0
74
0
49
-12.7
74
0
0
LTYPE
5
41
330
5
100
AcDbSymbolTableRecord
100
AcDbLinetypeTableRecord
2
CENTER
70
0
3
Center ____ _ ____ _ ____ _ ____ _ ____ _ ____
72
65
73
4
40
50.8
49
31.75
74
0
49
-6.35
74
0
49
6.35
74
0
49
-6.35
74
0
0
LTYPE
5
42
330
5
100
AcDbSymbolTableRecord
100
AcDbLinetypeTableRecord
2
CENTER2
70
0
3
Center (.5x) ___ _ ___ _ ___ _ ___ _ ___ _ ___
72
65
73
4
40
28.575
49
19.05
74
0
49
-3.175
74
0
49
3.175
74
0
49
-3.175
74
0
0
LTYPE
5
43
330
5
100
AcDbSymbolTableRecord
100
AcDbLinetypeTableRecord
2
CENTERX2
70
0
3
Center (2x) ________  __  ________  __  _____
72
65
73
4
40
101.6
49
63.5
74
0
49
-12.7
74
0
49
12.7
74
0
49
-12.7
74
0
0
ENDTAB
0
TABLE
2
LAYER
5
2
330
0
100
AcDbSymbolTable
70
1
0
LAYER
5
10
330
2
100
AcDbSymbolTableRecord
100
AcDbLayerTableRecord
2
0
70
0
62
7
6
CONTINUOUS
370
0
390
F
0
LAYER
5
44
330
2
100
AcDbSymbolTableRecord
100
AcDbLayerTableRecord
2
10-32_insert_hole
70
0
62
6
6
CONTINUOUS
370
0
390
F
0
LAYER
5
45
330
2
100
AcDbSymbolTableRecord
100
AcDbLayerTableRecord
2
10-32_through_hole
70
0
62
2
6
CONTINUOUS
370
0
390
F
0
LAYER
5
46
330
2
100
AcDbSymbolTableRecord
100
AcDbLayerTableRecord
2
4-40_insert_hole
70
0
62
4
6
CONTINUOUS
370
0
390
F
0
LAYER
5
47
330
2
100
AcDbSymbolTableRecord
100
AcDbLayerTableRecord
2
boundary
70
0
62
5
6
CONTINUOUS
370
0
390
F
0
LAYER
5
48
330
2
100
AcDbSymbolTableRecord
100
AcDbLayerTableRecord
2
dimension
70
0
62
7
6
CONTINUOUS
370
0
390
F
0
LAYER
5
49
330
2
100
AcDbSymbolTableRecord
100
AcDbLayerTableRecord
2
midlines
70
0
62
253
420
10526884
6
DASHED2
370
0
390
F
0
LAYER
5
4A
330
2
100
AcDbSymbolTableRecord
100
AcDbLayerTableRecord
2
scratch
70
0
62
7
6
CONTINUOUS
370
0
390
F
0
ENDTAB
0
TABLE
2
STYLE
5
3
330
0
100
AcDbSymbolTable
70
3
0
STYLE
5
4B
330
2
100
AcDbSymbolTableRecord
100
AcDbTextStyleTableRecord
2
Standard
70
0
40
0
41
1
50
0
71
0
42
1
3
txt
4

0
ENDTAB
0
TABLE
2
VIEW
5
6
330
0
100
AcDbSymbolTable
70
0
0
ENDTAB
0
TABLE
2
UCS
5
7
330
0
100
AcDbSymbolTable
70
0
0
ENDTAB
0
TABLE
2
APPID
5
9
330
0
100
AcDbSymbolTable
70
1
0
APPID
5
12
330
9
100
AcDbSymbolTableRecord
100
AcDbRegAppTableRecord
2
ACAD
70
0
0
ENDTAB
0
TABLE
2
DIMSTYLE
5
A
330
0
100
AcDbSymbolTable
70
1
100
AcDbDimStyleTable
71
1
0
DIMSTYLE
105
4C
330
A
100
AcDbSymbolTableRecord
100
AcDbDimStyleTableRecord
2
Standard
70
0
40
1
41
0.25
42
0.025
43
0.38
44
0.05
45
0
46
0
47
0
48
0
140
0.25
141
0.09
142
0
143
25.4
144
1
145
0
146
1
147
0.025
148
0
71
0
72
0
73
0
74
1
75
0
76
0
77
0
78
0
79
0
170
0
171
2
172
0
173
0
174
0
175
0
176
0
177
0
178
0
179
0
271
4
272
4
273
2
274
2
275
0
276
0
277
2
278
46
279
0
280
0
281
0
282
0
283
1
284
0
285
0
286
0
288
0
289
3
340
Standard
341

371
-2
372
-2
0
ENDTAB
0
TABLE
2
BLOCK_RECORD
5
1
330
0
100
AcDbSymbolTable
70
2
0
BLOCK_RECORD
5
1F
330
1
100
AcDbSymbolTableRecord
100
AcDbBlockTableRecord
2
*Model_Space
70
0
280
1
281
0
0
BLOCK_RECORD
5
1E
330
1
100
AcDbSymbolTableRecord
100
AcDbBlockTableRecord
2
*Paper_Space
70
0
280
1
281
0
0
BLOCK_RECORD
5
4D
330
1
100
AcDbSymbolTableRecord
100
AcDbBlockTableRecord
2
*D2
70
0
280
1
281
0
0
BLOCK_RECORD
5
50
330
1
100
AcDbSymbolTableRecord
100
AcDbBlockTableRecord
2
*D3
70
0
280
1
281
0
0
BLOCK_RECORD
5
53
330
1
100
AcDbSymbolTableRecord
100
AcDbBlockTableRecord
2
*D4
70
0
280
1
281
0
0
BLOCK_RECORD
5
56
330
1
100
AcDbSymbolTableRecord
100
AcDbBlockTableRecord
2
*D1
70
0
280
1
281
0
0
ENDTAB
0
ENDSEC
0
SECTION
2
BLOCKS
0
BLOCK
5
20
330
1F
100
AcDbEntity
8
0
100
AcDbBlockBegin
2
*Model_Space
70
0
10
0
20
0
30
0
3
*Model_Space
1

0
ENDBLK
5
21
330
1F
100
AcDbEntity
8
0
100
AcDbBlockEnd
0
BLOCK
5
1C
330
1B
100
AcDbEntity
8
0
100
AcDbBlockBegin
2
*Paper_Space
70
0
10
0
20
0
30
0
3
*Paper_Space
1

0
ENDBLK
5
1D
330
1F
100
AcDbEntity
8
0
100
AcDbBlockEnd
0
BLOCK
5
4E
330
4D
100
AcDbEntity
8
0
100
AcDbBlockBegin
2
*D2
70
1
10
0
20
0
3
*D2
1

0
LINE
5
59
100
AcDbEntity
8
dimension
6
CONTINUOUS
62
7
370
0
100
AcDbLine
10
-4.923
20
7
11
4.923
21
7
0
SOLID
5
5A
100
AcDbEntity
8
dimension
6
CONTINUOUS
62
7
370
0
100
AcDbTrace
10
-4.923
20
7
30
0
11
-4.673
21
7.04162846578
31
0
12
-4.673
22
6.95837153422
32
0
13
-4.673
23
6.95837153422
33
0
0
SOLID
5
5B
100
AcDbEntity
8
dimension
6
CONTINUOUS
62
7
370
0
100
AcDbTrace
10
4.923
20
7
30
0
11
4.673
21
6.95837153422
31
0
12
4.673
22
7.04162846578
32
0
13
4.673
23
7.04162846578
33
0
0
MTEXT
5
5C
100
AcDbEntity
8
dimension
6
CONTINUOUS
62
7
370
0
100
AcDbMText
10
9.18485099361e-18
20
7.15
30
0
40
0.25
41
0.805555555556
71
5
72
1
1
9.846
7
standard
210
0
220
0
230
1
50
0
73
2
44
1
0
LINE
5
5D
100
AcDbEntity
8
dimension
6
CONTINUOUS
62
7
370
0
100
AcDbLine
10
-4.923
20
4.948
11
-4.923
21
7.05
0
LINE
5
5E
100
AcDbEntity
8
dimension
6
CONTINUOUS
62
7
370
0
100
AcDbLine
10
4.923
20
4.948
11
4.923
21
7.05
0
ENDBLK
5
4F
330
4D
100
AcDbEntity
8
0
100
AcDbBlockEnd
0
BLOCK
5
51
330
50
100
AcDbEntity
8
0
100
AcDbBlockBegin
2
*D3
70
1
10
0
20
0
3
*D3
1

0
LINE
5
5F
100
AcDbEntity
8
dimension
6
CONTINUOUS
62
7
370
0
100
AcDbLine
10
-3.875
20
-6.8
11
3.875
21
-6.8
0
SOLID
5
60
100
AcDbEntity
8
dimension
6
CONTINUOUS
62
7
370
0
100
AcDbTrace
10
-3.875
20
-6.8
30
0
11
-3.625
21
-6.75837153422
31
0
12
-3.625
22
-6.84162846578
32
0
13
-3.625
23
-6.84162846578
33
0
0
SOLID
5
61
100
AcDbEntity
8
dimension
6
CONTINUOUS
62
7
370
0
100
AcDbTrace
10
3.875
20
-6.8
30
0
11
3.625
21
-6.84162846578
31
0
12
3.625
22
-6.75837153422
32
0
13
3.625
23
-6.75837153422
33
0
0
MTEXT
5
62
100
AcDbEntity
8
dimension
6
CONTINUOUS
62
7
370
0
100
AcDbMText
10
9.18485099361e-18
20
-6.65
30
0
40
0.25
41
0.583333333333
71
5
72
1
1
7.75
7
standard
210
0
220
0
230
1
50
0
73
2
44
1
0
LINE
5
63
100
AcDbEntity
8
dimension
6
CONTINUOUS
62
7
370
0
100
AcDbLine
10
-3.875
20
-5.99375
11
-3.875
21
-6.85
0
LINE
5
64
100
AcDbEntity
8
dimension
6
CONTINUOUS
62
7
370
0
100
AcDbLine
10
3.875
20
-5.99375
11
3.875
21
-6.85
0
ENDBLK
5
52
330
50
100
AcDbEntity
8
0
100
AcDbBlockEnd
0
BLOCK
5
54
330
53
100
AcDbEntity
8
0
100
AcDbBlockBegin
2
*D4
70
1
10
0
20
0
3
*D4
1

0
LINE
5
65
100
AcDbEntity
8
dimension
6
CONTINUOUS
62
7
370
0
100
AcDbLine
10
-3.4
20
-2.46875
11
-3.4
21
-5.96875
0
SOLID
5
66
100
AcDbEntity
8
dimension
6
CONTINUOUS
62
7
370
0
100
AcDbTrace
10
-3.4
20
-2.46875
30
0
11
-3.35837153422
21
-2.71875
31
0
12
-3.44162846578
22
-2.71875
32
0
13
-3.44162846578
23
-2.71875
33
0
0
SOLID
5
67
100
AcDbEntity
8
dimension
6
CONTINUOUS
62
7
370
0
100
AcDbTrace
10
-3.4
20
-5.96875
30
0
11
-3.44162846578
21
-5.71875
31
0
12
-3.35837153422
22
-5.71875
32
0
13
-3.35837153422
23
-5.71875
33
0
0
MTEXT
5
68
100
AcDbEntity
8
dimension
6
CONTINUOUS
62
7
370
0
100
AcDbMText
10
-3.55
20
-4.21875
30
0
40
0.25
41
0.388888888889
71
5
72
1
1
3.5
7
standard
210
0
220
0
230
1
50
90
73
2
44
1
0
LINE
5
69
100
AcDbEntity
8
dimension
6
CONTINUOUS
62
7
370
0
100
AcDbLine
10
-3.85
20
-2.46875
11
-3.35
21
-2.46875
0
LINE
5
6A
100
AcDbEntity
8
dimension
6
CONTINUOUS
62
7
370
0
100
AcDbLine
10
-3.85
20
-5.96875
11
-3.35
21
-5.96875
0
ENDBLK
5
55
330
53
100
AcDbEntity
8
0
100
AcDbBlockEnd
0
BLOCK
5
57
330
56
100
AcDbEntity
8
0
100
AcDbBlockBegin
2
*D1
70
1
10
0
20
0
3
*D1
1

0
LINE
5
6B
100
AcDbEntity
8
dimension
6
CONTINUOUS
62
7
370
0
100
AcDbLine
10
7
20
4.923
11
7
21
-4.923
0
SOLID
5
6C
100
AcDbEntity
8
dimension
6
CONTINUOUS
62
7
370
0
100
AcDbTrace
10
7
20
4.923
30
0
11
7.04162846578
21
4.673
31
0
12
6.95837153422
22
4.673
32
0
13
6.95837153422
23
4.673
33
0
0
SOLID
5
6D
100
AcDbEntity
8
dimension
6
CONTINUOUS
62
7
370
0
100
AcDbTrace
10
7
20
-4.923
30
0
11
6.95837153422
21
-4.673
31
0
12
7.04162846578
22
-4.673
32
0
13
7.04162846578
23
-4.673
33
0
0
MTEXT
5
6E
100
AcDbEntity
8
dimension
6
CONTINUOUS
62
7
370
0
100
AcDbMText
10
6.85
20
1.83697019872e-17
30
0
40
0.25
41
0.805555555556
71
5
72
1
1
9.846
7
standard
210
0
220
0
230
1
50
90
73
2
44
1
0
LINE
5
6F
100
AcDbEntity
8
dimension
6
CONTINUOUS
62
7
370
0
100
AcDbLine
10
4.948
20
4.923
11
7.05
21
4.923
0
LINE
5
70
100
AcDbEntity
8
dimension
6
CONTINUOUS
62
7
370
0
100
AcDbLine
10
4.948
20
-4.923
11
7.05
21
-4.923
0
ENDBLK
5
58
330
56
100
AcDbEntity
8
0
100
AcDbBlockEnd
0
ENDSEC
0
SECTION
2
ENTITIES
0
LINE
5
71
100
AcDbEntity
8
midlines
6
ByLayer
62
256
370
-1
100
AcDbLine
10
-5.96875
20
0
11
5.96875
21
0
0
LINE
5
72
100
AcDbEntity
8
midlines
6
ByLayer
62
256
370
-1
100
AcDbLine
10
0
20
5.96875
11
0
21
-5.96875
0
CIRCLE
5
73
100
AcDbEntity
8
10-32_through_hole
6
ByLayer
62
256
370
-1
100
AcDbCircle
10
4.923
20
4.923
40
0.1
0
CIRCLE
5
74
100
AcDbEntity
8
10-32_through_hole
6
ByLayer
62
256
370
-1
100
AcDbCircle
10
-4.923
20
4.923
40
0.1
0
CIRCLE
5
75
100
AcDbEntity
8
10-32_through_hole
6
ByLayer
62
256
370
-1
100
AcDbCircle
10
4.923
20
-4.923
40
0.1
0
CIRCLE
5
76
100
AcDbEntity
8
10-32_through_hole
6
ByLayer
62
256
370
-1
100
AcDbCircle
10
-4.923
20
-4.923
40
0.1
0
DIMENSION
5
77
100
AcDbEntity
8
dimension
6
ByLayer
62
256
370
-1
100
AcDbDimension
2
*D1
10
7
20
-4.923
30
0
11
6.85
21
1.83697019872e-17
31
0
70
32
71
5
72
0
3
Standard
53
0
210
0
220
0
230
1
100
AcDbAlignedDimension
13
4.923
23
4.923
33
0
14
4.923
24
-4.923
34
0
50
90
100
AcDbRotatedDimension
0
DIMENSION
5
78
100
AcDbEntity
8
dimension
6
ByLayer
62
256
370
-1
100
AcDbDimension
2
*D2
10
4.923
20
7
30
0
11
9.18485099361e-18
21
7.15
31
0
70
32
71
5
72
0
3
Standard
53
0
210
0
220
0
230
1
100
AcDbAlignedDimension
13
-4.923
23
4.923
33
0
14
4.923
24
4.923
34
0
100
AcDbRotatedDimension
0
ARC
5
79
100
AcDbEntity
8
boundary
6
ByLayer
62
256
370
-1
100
AcDbCircle
10
-5.84375
20
5.84375
40
0.125
100
AcDbArc
50
90
51
180
0
ARC
5
7A
100
AcDbEntity
8
boundary
6
ByLayer
62
256
370
-1
100
AcDbCircle
10
5.84375
20
5.84375
40
0.125
100
AcDbArc
50
0
51
90
0
ARC
5
7B
100
AcDbEntity
8
boundary
6
ByLayer
62
256
370
-1
100
AcDbCircle
10
-5.84375
20
-5.84375
40
0.125
100
AcDbArc
50
180
51
270
0
ARC
5
7C
100
AcDbEntity
8
boundary
6
ByLayer
62
256
370
-1
100
AcDbCircle
10
5.84375
20
-5.84375
40
0.125
100
AcDbArc
50
270
51
0
0
LINE
5
7D
100
AcDbEntity
8
boundary
6
ByLayer
62
256
370
-1
100
AcDbLine
10
5.96875
20
-5.84375
11
5.96875
21
5.84375
0
LINE
5
7E
100
AcDbEntity
8
boundary
6
ByLayer
62
256
370
-1
100
AcDbLine
10
5.84375
20
5.96875
11
-5.84375
21
5.96875
0
LINE
5
7F
100
AcDbEntity
8
boundary
6
ByLayer
62
256
370
-1
100
AcDbLine
10
-5.96875
20
5.84375
11
-5.96875
21
-5.84375
0
LINE
5
80
100
AcDbEntity
8
scratch
6
ByLayer
62
256
370
-1
100
AcDbLine
10
5.84375
20
-5.96875
11
5.96875
21
-5.96875
0
LINE
5
81
100
AcDbEntity
8
scratch
6
ByLayer
62
256
370
-1
100
AcDbLine
10
5.96875
20
-5.96875
11
5.96875
21
-5.84375
0
LINE
5
82
100
AcDbEntity
8
scratch
6
ByLayer
62
256
370
-1
100
AcDbLine
10
5.96875
20
5.84375
11
5.96875
21
5.96875
0
LINE
5
83
100
AcDbEntity
8
scratch
6
ByLayer
62
256
370
-1
100
AcDbLine
10
5.96875
20
5.96875
11
5.84375
21
5.96875
0
LINE
5
84
100
AcDbEntity
8
scratch
6
ByLayer
62
256
370
-1
100
AcDbLine
10
-5.84375
20
5.96875
11
-5.96875
21
5.96875
0
LINE
5
85
100
AcDbEntity
8
scratch
6
ByLayer
62
256
370
-1
100
AcDbLine
10
-5.96875
20
5.96875
11
-5.96875
21
5.84375
0
LINE
5
86
100
AcDbEntity
8
scratch
6
ByLayer
62
256
370
-1
100
AcDbLine
10
-5.96875
20
-5.96875
11
-5.84375
21
-5.96875
0
LINE
5
87
100
AcDbEntity
8
scratch
6
ByLayer
62
256
370
-1
100
AcDbLine
10
-5.96875
20
-5.84375
11
-5.96875
21
-5.96875
0
LINE
5
88
100
AcDbEntity
8
boundary
6
ByLayer
62
256
370
-1
100
AcDbLine
10
-3.875
20
-2.46875
11
3.875
21
-2.46875
0
ARC
5
89
100
AcDbEntity
8
boundary
6
ByLayer
62
256
370
-1
100
AcDbCircle
10
-4
20
-5.84375
40
0.125
100
AcDbArc
50
270
51
0
0
ARC
5
8A
100
AcDbEntity
8
boundary
6
ByLayer
62
256
370
-1
100
AcDbCircle
10
4
20
-5.84375
40
0.125
100
AcDbArc
50
180
51
270
0
LINE
5
8B
100
AcDbEntity
8
boundary
6
ByLayer
62
256
370
-1
100
AcDbLine
10
-5.84375
20
-5.96875
11
-4
21
-5.96875
0
LINE
5
8C
100
AcDbEntity
8
boundary
6
ByLayer
62
256
370
-1
100
AcDbLine
10
-3.875
20
-5.84375
11
-3.875
21
-2.46875
0
LINE
5
8D
100
AcDbEntity
8
boundary
6
ByLayer
62
256
370
-1
100
AcDbLine
10
4
20
-5.96875
11
5.84375
21
-5.96875
0
LINE
5
8E
100
AcDbEntity
8
boundary
6
ByLayer
62
256
370
-1
100
AcDbLine
10
3.875
20
-5.84375
11
3.875
21
-2.46875
0
LINE
5
8F
100
AcDbEntity
8
scratch
6
ByLayer
62
256
370
-1
100
AcDbLine
10
-4
20
-5.96875
11
-3.875
21
-5.96875
0
LINE
5
90
100
AcDbEntity
8
scratch
6
ByLayer
62
256
370
-1
100
AcDbLine
10
-3.875
20
-5.96875
11
-3.875
21
-5.84375
0
LINE
5
91
100
AcDbEntity
8
scratch
6
ByLayer
62
256
370
-1
100
AcDbLine
10
3.875
20
-5.96875
11
4
21
-5.96875
0
LINE
5
92
100
AcDbEntity
8
scratch
6
ByLayer
62
256
370
-1
100
AcDbLine
10
3.875
20
-5.96875
11
3.875
21
-5.84375
0
CIRCLE
5
93
100
AcDbEntity
8
4-40_insert_hole
6
ByLayer
62
256
370
-1
100
AcDbCircle
10
-1.225
20
5.46875
40
0.079
0
CIRCLE
5
94
100
AcDbEntity
8
4-40_insert_hole
6
ByLayer
62
256
370
-1
100
AcDbCircle
10
1.225
20
5.46875
40
0.079
0
CIRCLE
5
95
100
AcDbEntity
8
4-40_insert_hole
6
ByLayer
62
256
370
-1
100
AcDbCircle
10
-1.225
20
1.51875
40
0.079
0
CIRCLE
5
96
100
AcDbEntity
8
4-40_insert_hole
6
ByLayer
62
256
370
-1
100
AcDbCircle
10
1.225
20
1.51875
40
0.079
0
CIRCLE
5
97
100
AcDbEntity
8
4-40_insert_hole
6
ByLayer
62
256
370
-1
100
AcDbCircle
10
2.225
20
5.46875
40
0.079
0
CIRCLE
5
98
100
AcDbEntity
8
4-40_insert_hole
6
ByLayer
62
256
370
-1
100
AcDbCircle
10
4.15413
20
5.46875
40
0.079
0
CIRCLE
5
99
100
AcDbEntity
8
4-40_insert_hole
6
ByLayer
62
256
370
-1
100
AcDbCircle
10
4.15413
20
3.18529
40
0.079
0
CIRCLE
5
9A
100
AcDbEntity
8
4-40_insert_hole
6
ByLayer
62
256
370
-1
100
AcDbCircle
10
2.225
20
3.18529
40
0.079
0
CIRCLE
5
9B
100
AcDbEntity
8
4-40_insert_hole
6
ByLayer
62
256
370
-1
100
AcDbCircle
10
-5.21875
20
-1
40
0.079
0
CIRCLE
5
9C
100
AcDbEntity
8
4-40_insert_hole
6
ByLayer
62
256
370
-1
100
AcDbCircle
10
-3.41875
20
-1
40
0.079
0
CIRCLE
5
9D
100
AcDbEntity
8
10-32_insert_hole
6
ByLayer
62
256
370
-1
100
AcDbCircle
10
-2
20
-1
40
0.13625
0
CIRCLE
5
9E
100
AcDbEntity
8
10-32_insert_hole
6
ByLayer
62
256
370
-1
100
AcDbCircle
10
0
20
-1
40
0.13625
0
CIRCLE
5
9F
100
AcDbEntity
8
10-32_insert_hole
6
ByLayer
62
256
370
-1
100
AcDbCircle
10
2
20
-1
40
0.13625
0
CIRCLE
5
A0
100
AcDbEntity
8
10-32_insert_hole
6
ByLayer
62
256
370
-1
100
AcDbCircle
10
4
20
-1
40
0.13625
0
CIRCLE
5
A1
100
AcDbEntity
8
10-32_insert_hole
6
ByLayer
62
256
370
-1
100
AcDbCircle
10
5
20
-2
40
0.13625
0
CIRCLE
5
A2
100
AcDbEntity
8
10-32_insert_hole
6
ByLayer
62
256
370
-1
100
AcDbCircle
10
5
20
-4
40
0.13625
0
CIRCLE
5
A3
100
AcDbEntity
8
10-32_insert_hole
6
ByLayer
62
256
370
-1
100
AcDbCircle
10
-5
20
1.5
40
0.13625
0
CIRCLE
5
A4
100
AcDbEntity
8
10-32_insert_hole
6
ByLayer
62
256
370
-1
100
AcDbCircle
10
-3
20
1.5
40
0.13625
0
CIRCLE
5
A5
100
AcDbEntity
8
4-40_insert_hole
6
ByLayer
62
256
370
-1
100
AcDbCircle
10
5
20
-5.55111512313e-17
40
0.079
0
CIRCLE
5
A6
100
AcDbEntity
8
4-40_insert_hole
6
ByLayer
62
256
370
-1
100
AcDbCircle
10
5
20
1.5
40
0.079
0
CIRCLE
5
A7
100
AcDbEntity
8
10-32_insert_hole
6
ByLayer
62
256
370
-1
100
AcDbCircle
10
-3
20
4
40
0.13625
0
DIMENSION
5
A8
100
AcDbEntity
8
dimension
6
ByLayer
62
256
370
-1
100
AcDbDimension
2
*D3
10
3.875
20
-6.8
30
0
11
9.18485099361e-18
21
-6.65
31
0
70
32
71
5
72
0
3
Standard
53
0
210
0
220
0
230
1
100
AcDbAlignedDimension
13
-3.875
23
-5.96875
33
0
14
3.875
24
-5.96875
34
0
100
AcDbRotatedDimension
0
DIMENSION
5
A9
100
AcDbEntity
8
dimension
6
ByLayer
62
256
370
-1
100
AcDbDimension
2
*D4
10
-3.4
20
-5.96875
30
0
11
-3.55
21
-4.21875
31
0
70
32
71
5
72
0
3
Standard
53
0
210
0
220
0
230
1
100
AcDbAlignedDimension
13
-3.875
23
-2.46875
33
0
14
-3.875
24
-5.96875
34
0
50
90
100
AcDbRotatedDimension
0
ENDSEC
0
SECTION
2
OBJECTS
0
DICTIONARY
5
C
330
0
100
AcDbDictionary
281
1
3
ACAD_GROUP
350
D
0
DICTIONARY
5
D
330
C
100
AcDbDictionary
281
1
0
ENDSEC
0
EOF
