M48
;DRILL file {Pcbnew (2013-jul-07)-stable} date Tue 28 Apr 2015 09:29:26 AM PDT
;FORMAT={-:-/ absolute / inch / decimal}
FMAT,2
INCH,TZ
T1C0.025
T2C0.028
T3C0.035
T4C0.035
T5C0.039
T6C0.039
T7C0.040
T8C0.047
T9C0.098
T10C0.116
%
G90
G05
M72
T1
X1.7172Y-1.3748
X1.7498Y-1.4073
X1.9317Y-2.3064
X2.1582Y-2.3477
X2.4565Y-2.7549
X2.6777Y-1.9717
X2.7676Y-2.8904
X2.799Y-1.549
X2.855Y-3.1499
X2.8988Y-2.8992
X3.5138Y-2.4225
X3.9804Y-2.4836
T2
X2.8642Y-2.8051
X2.8642Y-3.6713
X2.9429Y-2.8051
X2.9429Y-3.6713
X3.0217Y-2.8051
X3.0217Y-3.6713
X3.1004Y-2.8051
X3.1004Y-3.6713
X3.1791Y-2.8051
X3.1791Y-3.6713
X3.2579Y-2.8051
X3.2579Y-3.6713
X3.3366Y-2.8051
X3.3366Y-3.6713
X3.4154Y-2.8051
X3.4154Y-3.6713
X3.4941Y-2.8051
X3.4941Y-3.6713
X3.5728Y-2.8051
X3.5728Y-3.6713
T3
X1.14Y-2.182
X1.14Y-2.28
X1.14Y-2.378
X1.27Y-2.182
X1.27Y-2.28
X1.27Y-2.378
T4
X1.5453Y-1.1614
X1.5453Y-1.2402
X1.624Y-1.1614
X1.624Y-1.2402
X1.7028Y-1.1614
X1.7028Y-1.2402
X1.7815Y-1.1614
X1.7815Y-1.2402
X1.8602Y-1.1614
X1.8602Y-1.2402
X2.2539Y-1.1614
X2.2539Y-1.2402
X2.3327Y-1.1614
X2.3327Y-1.2402
X2.4114Y-1.1614
X2.4114Y-1.2402
X2.4902Y-1.1614
X2.4902Y-1.2402
X2.5689Y-1.1614
X2.5689Y-1.2402
X3.0453Y-1.1673
X3.1437Y-1.1673
X3.2421Y-1.1673
X3.3406Y-1.1673
X3.439Y-1.1673
T5
X1.4961Y-1.5157
X1.4961Y-1.7126
X1.6142Y-1.5157
X1.6142Y-1.7126
X1.7323Y-1.5157
X1.7323Y-1.7126
X1.8504Y-1.5157
X1.8504Y-1.7126
X1.9685Y-1.5157
X1.9685Y-1.7126
X2.0866Y-1.5157
X2.0866Y-1.7126
X2.2047Y-1.5157
X2.2047Y-1.7126
X2.3228Y-1.5157
X2.3228Y-1.7126
X2.4409Y-1.5157
X2.4409Y-1.7126
X2.5591Y-1.5157
X2.5591Y-1.7126
X2.6772Y-1.5157
X2.6772Y-1.7126
X2.8937Y-1.6142
X2.8937Y-1.811
X2.8937Y-2.0079
X2.8937Y-2.2047
X3.0118Y-1.6142
X3.0118Y-1.811
X3.0118Y-2.0079
X3.0118Y-2.2047
X3.1299Y-1.6142
X3.1299Y-1.811
X3.1299Y-2.0079
X3.1299Y-2.2047
X3.248Y-1.6142
X3.248Y-1.811
X3.248Y-2.0079
X3.248Y-2.2047
X3.3661Y-1.6142
X3.3661Y-1.811
X3.3661Y-2.0079
X3.3661Y-2.2047
X3.4843Y-1.6142
X3.4843Y-1.811
X3.4843Y-2.0079
X3.4843Y-2.2047
X3.6024Y-1.6142
X3.6024Y-1.811
X4.2067Y-3.5039
X4.6122Y-3.5039
T6
X1.15Y-1.5011
X1.15Y-1.6389
T7
X1.145Y-1.925
X1.145Y-2.525
X1.245Y-1.925
X1.245Y-2.025
X1.245Y-2.525
X1.345Y-1.925
X1.345Y-2.525
X1.445Y-1.925
X1.445Y-2.025
X1.445Y-2.525
X1.5Y-3.51
X1.5Y-3.61
X1.545Y-1.925
X1.545Y-2.025
X1.545Y-2.525
X1.645Y-1.925
X1.645Y-2.025
X1.645Y-2.525
X1.6808Y-3.51
X1.6808Y-3.61
X1.745Y-1.925
X1.745Y-2.125
X1.745Y-2.225
X1.745Y-2.525
X1.77Y-2.765
X1.77Y-2.865
X1.77Y-2.965
X1.77Y-3.065
X1.77Y-3.165
X1.77Y-3.265
X1.7808Y-3.51
X1.7808Y-3.61
X1.845Y-1.925
X1.845Y-2.125
X1.845Y-2.225
X1.845Y-2.525
X1.945Y-1.925
X1.945Y-2.125
X1.945Y-2.225
X1.945Y-2.525
X1.9816Y-3.51
X1.9816Y-3.61
X2.045Y-1.925
X2.045Y-2.125
X2.045Y-2.225
X2.045Y-2.525
X2.055Y-2.765
X2.145Y-1.925
X2.145Y-2.125
X2.145Y-2.225
X2.145Y-2.525
X2.155Y-2.765
X2.192Y-3.51
X2.192Y-3.61
X2.245Y-1.925
X2.245Y-2.125
X2.245Y-2.225
X2.245Y-2.525
X2.255Y-2.765
X2.345Y-1.925
X2.345Y-2.125
X2.345Y-2.225
X2.345Y-2.525
X2.355Y-2.765
X2.3819Y-3.513
X2.3819Y-3.613
X2.445Y-1.925
X2.445Y-2.025
X2.445Y-2.125
X2.445Y-2.225
X2.445Y-2.325
X2.445Y-2.425
X2.445Y-2.525
X2.8618Y-2.6043
X2.9618Y-2.6043
X3.0618Y-2.6043
X3.1618Y-2.6043
X3.2618Y-2.6043
X3.3618Y-2.6043
X3.4618Y-2.6043
X3.5618Y-2.6043
X3.6618Y-2.6043
X4.145Y-1.205
X4.145Y-1.305
X4.1594Y-3.1496
X4.245Y-1.205
X4.245Y-1.305
X4.2594Y-3.1496
X4.345Y-1.205
X4.345Y-1.305
X4.3594Y-3.1496
X4.445Y-1.205
X4.445Y-1.305
X4.4594Y-3.1496
X4.545Y-1.205
X4.545Y-1.305
X4.5594Y-3.1496
X4.6594Y-3.1496
X5.1Y-1.95
X5.1Y-2.05
X5.1Y-2.15
X5.1Y-2.25
X5.1Y-2.35
X5.1Y-2.45
X5.1Y-2.55
X5.1Y-2.65
T8
X4.2067Y-3.3583
X4.2071Y-3.6142
X4.6122Y-3.3583
X4.6122Y-3.6142
T9
X2.8618Y-1.4483
X3.6618Y-1.4483
X3.941Y-1.729
X3.941Y-2.871
X5.103Y-1.729
X5.103Y-2.871
T10
X1.25Y-1.25
X1.25Y-3.5
X5.Y-1.25
X5.Y-3.5
T0
M30
