G04 (created by PCBNEW (2013-jul-07)-stable) date Tue 28 Apr 2015 09:29:23 AM PDT*
%MOIN*%
G04 Gerber Fmt 3.4, Leading zero omitted, Abs format*
%FSLAX34Y34*%
G01*
G70*
G90*
G04 APERTURE LIST*
%ADD10C,0.00590551*%
%ADD11C,0.0511811*%
%ADD12C,0.06*%
%ADD13R,0.06X0.06*%
%ADD14C,0.0629921*%
%ADD15C,0.0708661*%
%ADD16C,0.065*%
%ADD17C,0.13*%
%ADD18C,0.07*%
%ADD19C,0.125*%
%ADD20R,0.063X0.063*%
%ADD21C,0.063*%
%ADD22R,0.07X0.07*%
%ADD23C,0.0590551*%
%ADD24C,0.0492126*%
%ADD25C,0.15*%
%ADD26C,0.035*%
%ADD27C,0.03*%
%ADD28C,0.01*%
G04 APERTURE END LIST*
G54D10*
G54D11*
X35728Y-28051D03*
X34940Y-28051D03*
X34153Y-28051D03*
X33366Y-28051D03*
X32578Y-28051D03*
X31791Y-28051D03*
X31003Y-28051D03*
X30216Y-28051D03*
X29429Y-28051D03*
X28641Y-28051D03*
X28641Y-36712D03*
X29429Y-36712D03*
X30216Y-36712D03*
X31003Y-36712D03*
X31791Y-36712D03*
X32578Y-36712D03*
X33366Y-36712D03*
X34153Y-36712D03*
X34940Y-36712D03*
X35728Y-36712D03*
G54D12*
X41594Y-31496D03*
X42594Y-31496D03*
X43594Y-31496D03*
X44594Y-31496D03*
X45594Y-31496D03*
X46594Y-31496D03*
X20550Y-27650D03*
X21550Y-27650D03*
X22550Y-27650D03*
X23550Y-27650D03*
G54D13*
X17807Y-35100D03*
G54D12*
X17807Y-36100D03*
X16807Y-35100D03*
X16807Y-36100D03*
G54D13*
X21920Y-35100D03*
G54D12*
X21920Y-36100D03*
G54D13*
X23818Y-35129D03*
G54D12*
X23818Y-36129D03*
G54D13*
X19815Y-35100D03*
G54D12*
X19815Y-36100D03*
X17700Y-27650D03*
X17700Y-28650D03*
X17700Y-29650D03*
X17700Y-30650D03*
X17700Y-31650D03*
X17700Y-32650D03*
G54D14*
X42066Y-35039D03*
X46122Y-35039D03*
G54D15*
X42066Y-33582D03*
X42070Y-36141D03*
X46122Y-33582D03*
X46122Y-36141D03*
G54D16*
X12700Y-23780D03*
X12700Y-22800D03*
X12700Y-21820D03*
X11400Y-21820D03*
X11400Y-22800D03*
X11400Y-23780D03*
X28618Y-26043D03*
X29618Y-26043D03*
X30618Y-26043D03*
X31618Y-26043D03*
X32618Y-26043D03*
X33618Y-26043D03*
X34618Y-26043D03*
X35618Y-26043D03*
G54D17*
X28618Y-14483D03*
X36618Y-14483D03*
G54D16*
X36618Y-26043D03*
G54D18*
X51000Y-19500D03*
X51000Y-20500D03*
X51000Y-21500D03*
X51000Y-22500D03*
X51000Y-23500D03*
X51000Y-24500D03*
X51000Y-25500D03*
X51000Y-26500D03*
G54D19*
X51030Y-17290D03*
X51030Y-28710D03*
X39410Y-17290D03*
X39410Y-28710D03*
G54D20*
X11500Y-15011D03*
G54D21*
X11500Y-16389D03*
G54D13*
X15000Y-35100D03*
G54D12*
X15000Y-36100D03*
G54D22*
X41450Y-13050D03*
G54D18*
X41450Y-12050D03*
X42450Y-13050D03*
X42450Y-12050D03*
X43450Y-13050D03*
X43450Y-12050D03*
X44450Y-13050D03*
X44450Y-12050D03*
X45450Y-13050D03*
X45450Y-12050D03*
G54D12*
X11450Y-25250D03*
X12450Y-25250D03*
X13450Y-25250D03*
X14450Y-25250D03*
X15450Y-25250D03*
X16450Y-25250D03*
X17450Y-25250D03*
X18450Y-25250D03*
X19450Y-25250D03*
X20450Y-25250D03*
X21450Y-25250D03*
X22450Y-25250D03*
X23450Y-25250D03*
X24450Y-25250D03*
X24450Y-24250D03*
X24450Y-23250D03*
X24450Y-22250D03*
X24450Y-21250D03*
X24450Y-20250D03*
X24450Y-19250D03*
X23450Y-19250D03*
X22450Y-19250D03*
X21450Y-19250D03*
X20450Y-19250D03*
X19450Y-19250D03*
X18450Y-19250D03*
X17450Y-19250D03*
X16450Y-19250D03*
X15450Y-19250D03*
X14450Y-19250D03*
X13450Y-19250D03*
X12450Y-19250D03*
X11450Y-19250D03*
X17450Y-22250D03*
X18450Y-22250D03*
X19450Y-22250D03*
X20450Y-22250D03*
X21450Y-22250D03*
X22450Y-22250D03*
X23450Y-22250D03*
X23450Y-21250D03*
X22450Y-21250D03*
X21450Y-21250D03*
X20450Y-21250D03*
X19450Y-21250D03*
X18450Y-21250D03*
X17450Y-21250D03*
X16450Y-20250D03*
X15450Y-20250D03*
X14450Y-20250D03*
X12450Y-20250D03*
G54D23*
X16141Y-15157D03*
X16141Y-17125D03*
X17322Y-15157D03*
X17322Y-17125D03*
X18503Y-15157D03*
X18503Y-17125D03*
X19685Y-15157D03*
X19685Y-17125D03*
X20866Y-15157D03*
X20866Y-17125D03*
X22047Y-15157D03*
X22047Y-17125D03*
X23228Y-15157D03*
X23228Y-17125D03*
X24409Y-15157D03*
X24409Y-17125D03*
X25590Y-15157D03*
X25590Y-17125D03*
X26771Y-15157D03*
X26771Y-17125D03*
X28937Y-16141D03*
X28937Y-18110D03*
X14960Y-15157D03*
X14960Y-17125D03*
X31299Y-16141D03*
X31299Y-18110D03*
X32480Y-16141D03*
X32480Y-18110D03*
X33661Y-16141D03*
X33661Y-18110D03*
X34842Y-16141D03*
X34842Y-18110D03*
X36023Y-16141D03*
X36023Y-18110D03*
X28937Y-20078D03*
X28937Y-22047D03*
X30118Y-20078D03*
X30118Y-22047D03*
X31299Y-20078D03*
X31299Y-22047D03*
X32480Y-20078D03*
X32480Y-22047D03*
X33661Y-20078D03*
X33661Y-22047D03*
X34842Y-20078D03*
X34842Y-22047D03*
X30118Y-16141D03*
X30118Y-18110D03*
G54D24*
X22539Y-12401D03*
X22539Y-11614D03*
X23326Y-12401D03*
X23326Y-11614D03*
X24114Y-12401D03*
X24114Y-11614D03*
X24901Y-12401D03*
X24901Y-11614D03*
X25688Y-12401D03*
X25688Y-11614D03*
X15452Y-12401D03*
X15452Y-11614D03*
X16240Y-12401D03*
X16240Y-11614D03*
X17027Y-12401D03*
X17027Y-11614D03*
X17814Y-12401D03*
X17814Y-11614D03*
X18602Y-12401D03*
X18602Y-11614D03*
G54D23*
X30452Y-11673D03*
X31437Y-11673D03*
X32421Y-11673D03*
X33405Y-11673D03*
X34389Y-11673D03*
G54D25*
X12500Y-12500D03*
X12500Y-35000D03*
X50000Y-12500D03*
X50000Y-35000D03*
G54D26*
X27675Y-28903D03*
X17498Y-14073D03*
X17171Y-13747D03*
X27989Y-15489D03*
X19316Y-23064D03*
X28550Y-31498D03*
X39804Y-24836D03*
X28988Y-28992D03*
X26776Y-19716D03*
X21582Y-23477D03*
X24565Y-27549D03*
X35137Y-24224D03*
G54D27*
X16807Y-35100D02*
X17807Y-35100D01*
X17807Y-35100D02*
X18357Y-35100D01*
X35217Y-28562D02*
X35728Y-28051D01*
X28008Y-28562D02*
X35217Y-28562D01*
X27896Y-28451D02*
X28008Y-28562D01*
X24924Y-28451D02*
X27896Y-28451D01*
X18357Y-35017D02*
X24924Y-28451D01*
X18357Y-35100D02*
X18357Y-35017D01*
X25038Y-28903D02*
X27675Y-28903D01*
X18953Y-34988D02*
X25038Y-28903D01*
X18953Y-35071D02*
X18953Y-34988D01*
X17924Y-36100D02*
X18953Y-35071D01*
X17807Y-36100D02*
X17924Y-36100D01*
X19550Y-29650D02*
X17700Y-29650D01*
X21550Y-27650D02*
X19550Y-29650D01*
X15050Y-29650D02*
X17700Y-29650D01*
X10899Y-25498D02*
X15050Y-29650D01*
X10899Y-25021D02*
X10899Y-25498D01*
X11379Y-24540D02*
X10899Y-25021D01*
X11939Y-24540D02*
X11379Y-24540D01*
X12700Y-23780D02*
X11939Y-24540D01*
X22043Y-12897D02*
X22539Y-12401D01*
X15948Y-12897D02*
X22043Y-12897D01*
X15452Y-12401D02*
X15948Y-12897D01*
X23035Y-12897D02*
X22539Y-12401D01*
X31196Y-12897D02*
X23035Y-12897D01*
X32421Y-11673D02*
X31196Y-12897D01*
X49827Y-26672D02*
X36247Y-26672D01*
X51000Y-25500D02*
X49827Y-26672D01*
X36247Y-26672D02*
X35618Y-26043D01*
X23818Y-35129D02*
X24369Y-35129D01*
X24369Y-35079D02*
X24369Y-35129D01*
X30258Y-29189D02*
X24369Y-35079D01*
X35326Y-29189D02*
X30258Y-29189D01*
X36247Y-28268D02*
X35326Y-29189D01*
X36247Y-26672D02*
X36247Y-28268D01*
G54D28*
X17322Y-16338D02*
X17322Y-17125D01*
X18503Y-15157D02*
X17322Y-16338D01*
X20962Y-14073D02*
X17498Y-14073D01*
X22047Y-15157D02*
X20962Y-14073D01*
X25362Y-13747D02*
X17171Y-13747D01*
X26771Y-15157D02*
X25362Y-13747D01*
X27755Y-16141D02*
X26771Y-17125D01*
X28937Y-16141D02*
X27755Y-16141D01*
X31828Y-15489D02*
X27989Y-15489D01*
X32480Y-16141D02*
X31828Y-15489D01*
X33661Y-16141D02*
X32086Y-17716D01*
X32480Y-18110D02*
X32086Y-17716D01*
X17139Y-18560D02*
X16450Y-19250D01*
X29121Y-18560D02*
X17139Y-18560D01*
X29527Y-18154D02*
X29121Y-18560D01*
X29527Y-18070D02*
X29527Y-18154D01*
X29940Y-17657D02*
X29527Y-18070D01*
X32027Y-17657D02*
X29940Y-17657D01*
X32086Y-17716D02*
X32027Y-17657D01*
X14450Y-19543D02*
X14450Y-19250D01*
X13993Y-19999D02*
X14450Y-19543D01*
X13993Y-20431D02*
X13993Y-19999D01*
X16962Y-23400D02*
X13993Y-20431D01*
X20547Y-23400D02*
X16962Y-23400D01*
X20856Y-23090D02*
X20547Y-23400D01*
X23266Y-23090D02*
X20856Y-23090D01*
X23950Y-22406D02*
X23266Y-23090D01*
X23950Y-22113D02*
X23950Y-22406D01*
X24263Y-21799D02*
X23950Y-22113D01*
X28689Y-21799D02*
X24263Y-21799D01*
X28937Y-22047D02*
X28689Y-21799D01*
X34842Y-20078D02*
X33267Y-21653D01*
X33661Y-22047D02*
X33267Y-21653D01*
X32202Y-20587D02*
X33267Y-21653D01*
X25533Y-20587D02*
X32202Y-20587D01*
X24742Y-19796D02*
X25533Y-20587D01*
X23245Y-19796D02*
X24742Y-19796D01*
X22792Y-20250D02*
X23245Y-19796D01*
X16450Y-20250D02*
X22792Y-20250D01*
X46561Y-13161D02*
X45450Y-12050D01*
X46561Y-14052D02*
X46561Y-13161D01*
X51504Y-18995D02*
X46561Y-14052D01*
X51504Y-27124D02*
X51504Y-18995D01*
X49745Y-28884D02*
X51504Y-27124D01*
X49745Y-28981D02*
X49745Y-28884D01*
X43146Y-35580D02*
X49745Y-28981D01*
X20746Y-35580D02*
X43146Y-35580D01*
X20265Y-35100D02*
X20746Y-35580D01*
X19815Y-35100D02*
X20265Y-35100D01*
X20276Y-23064D02*
X19316Y-23064D01*
X20964Y-22376D02*
X20276Y-23064D01*
X20964Y-21735D02*
X20964Y-22376D01*
X21450Y-21250D02*
X20964Y-21735D01*
X15104Y-24595D02*
X14450Y-25250D01*
X17466Y-24595D02*
X15104Y-24595D01*
X17950Y-25078D02*
X17466Y-24595D01*
X17950Y-25426D02*
X17950Y-25078D01*
X18223Y-25700D02*
X17950Y-25426D01*
X24650Y-25700D02*
X18223Y-25700D01*
X24788Y-25561D02*
X24650Y-25700D01*
X29136Y-25561D02*
X24788Y-25561D01*
X29618Y-26043D02*
X29136Y-25561D01*
X14900Y-26700D02*
X13450Y-25250D01*
X24440Y-26700D02*
X14900Y-26700D01*
X25081Y-27341D02*
X24440Y-26700D01*
X32319Y-27341D02*
X25081Y-27341D01*
X33618Y-26043D02*
X32319Y-27341D01*
X31719Y-26941D02*
X32618Y-26043D01*
X27534Y-26941D02*
X31719Y-26941D01*
X26893Y-26300D02*
X27534Y-26941D01*
X16837Y-26300D02*
X26893Y-26300D01*
X15950Y-25412D02*
X16837Y-26300D01*
X15950Y-25084D02*
X15950Y-25412D01*
X15660Y-24795D02*
X15950Y-25084D01*
X15263Y-24795D02*
X15660Y-24795D01*
X14950Y-25108D02*
X15263Y-24795D01*
X14950Y-25386D02*
X14950Y-25108D01*
X14626Y-25710D02*
X14950Y-25386D01*
X14269Y-25710D02*
X14626Y-25710D01*
X13950Y-25390D02*
X14269Y-25710D01*
X13950Y-25101D02*
X13950Y-25390D01*
X13644Y-24795D02*
X13950Y-25101D01*
X12904Y-24795D02*
X13644Y-24795D01*
X12450Y-25250D02*
X12904Y-24795D01*
X46129Y-31030D02*
X46594Y-31496D01*
X29018Y-31030D02*
X46129Y-31030D01*
X28550Y-31498D02*
X29018Y-31030D01*
X16700Y-26500D02*
X15450Y-25250D01*
X24523Y-26500D02*
X16700Y-26500D01*
X25164Y-27141D02*
X24523Y-26500D01*
X32193Y-27141D02*
X25164Y-27141D01*
X33118Y-26217D02*
X32193Y-27141D01*
X33118Y-25852D02*
X33118Y-26217D01*
X33402Y-25568D02*
X33118Y-25852D01*
X48931Y-25568D02*
X33402Y-25568D01*
X51000Y-23500D02*
X48931Y-25568D01*
X18100Y-25900D02*
X17450Y-25250D01*
X27618Y-25900D02*
X18100Y-25900D01*
X28239Y-26521D02*
X27618Y-25900D01*
X29814Y-26521D02*
X28239Y-26521D01*
X30118Y-26217D02*
X29814Y-26521D01*
X30118Y-25852D02*
X30118Y-26217D01*
X30808Y-25161D02*
X30118Y-25852D01*
X47338Y-25161D02*
X30808Y-25161D01*
X51000Y-21500D02*
X47338Y-25161D01*
X17300Y-26100D02*
X16450Y-25250D01*
X27194Y-26100D02*
X17300Y-26100D01*
X27835Y-26741D02*
X27194Y-26100D01*
X30594Y-26741D02*
X27835Y-26741D01*
X31118Y-26217D02*
X30594Y-26741D01*
X31118Y-25840D02*
X31118Y-26217D01*
X31596Y-25361D02*
X31118Y-25840D01*
X48138Y-25361D02*
X31596Y-25361D01*
X51000Y-22500D02*
X48138Y-25361D01*
X24738Y-24961D02*
X24450Y-25250D01*
X39679Y-24961D02*
X24738Y-24961D01*
X39804Y-24836D02*
X39679Y-24961D01*
X23950Y-24750D02*
X23450Y-25250D01*
X39430Y-24750D02*
X23950Y-24750D01*
X44680Y-19500D02*
X39430Y-24750D01*
X51000Y-19500D02*
X44680Y-19500D01*
X21920Y-35100D02*
X22370Y-35100D01*
X28988Y-28992D02*
X28988Y-28992D01*
X28478Y-28992D02*
X28988Y-28992D01*
X22370Y-35100D02*
X28478Y-28992D01*
X41949Y-13550D02*
X42450Y-13050D01*
X35282Y-13550D02*
X41949Y-13550D01*
X33405Y-11673D02*
X35282Y-13550D01*
X41624Y-11224D02*
X42450Y-12050D01*
X31885Y-11224D02*
X41624Y-11224D01*
X31437Y-11673D02*
X31885Y-11224D01*
X38928Y-19571D02*
X45450Y-13050D01*
X27381Y-19571D02*
X38928Y-19571D01*
X26911Y-20041D02*
X27381Y-19571D01*
X26642Y-20041D02*
X26911Y-20041D01*
X25850Y-19250D02*
X26642Y-20041D01*
X24450Y-19250D02*
X25850Y-19250D01*
X27257Y-19235D02*
X26776Y-19716D01*
X33167Y-19235D02*
X27257Y-19235D01*
X34251Y-18151D02*
X33167Y-19235D01*
X34251Y-18060D02*
X34251Y-18151D01*
X35186Y-17125D02*
X34251Y-18060D01*
X36807Y-17125D02*
X35186Y-17125D01*
X39919Y-14013D02*
X36807Y-17125D01*
X42486Y-14013D02*
X39919Y-14013D01*
X43450Y-13050D02*
X42486Y-14013D01*
X21426Y-23632D02*
X21582Y-23477D01*
X16912Y-23632D02*
X21426Y-23632D01*
X13793Y-20514D02*
X16912Y-23632D01*
X13793Y-19817D02*
X13793Y-20514D01*
X13993Y-19616D02*
X13793Y-19817D01*
X13993Y-11931D02*
X13993Y-19616D01*
X15319Y-10605D02*
X13993Y-11931D01*
X42005Y-10605D02*
X15319Y-10605D01*
X43450Y-12050D02*
X42005Y-10605D01*
X26090Y-12000D02*
X25688Y-12401D01*
X26090Y-11437D02*
X26090Y-12000D01*
X25459Y-10805D02*
X26090Y-11437D01*
X15401Y-10805D02*
X25459Y-10805D01*
X14302Y-11905D02*
X15401Y-10805D01*
X14302Y-17935D02*
X14302Y-11905D01*
X14950Y-18582D02*
X14302Y-17935D01*
X14950Y-20413D02*
X14950Y-18582D01*
X16786Y-22250D02*
X14950Y-20413D01*
X17450Y-22250D02*
X16786Y-22250D01*
X17411Y-11210D02*
X17814Y-11614D01*
X15289Y-11210D02*
X17411Y-11210D01*
X14960Y-11539D02*
X15289Y-11210D01*
X14960Y-15157D02*
X14960Y-11539D01*
X16141Y-15944D02*
X14960Y-17125D01*
X16141Y-15157D02*
X16141Y-15944D01*
X22992Y-19707D02*
X23450Y-19250D01*
X16271Y-19707D02*
X22992Y-19707D01*
X15999Y-19436D02*
X16271Y-19707D01*
X15999Y-18165D02*
X15999Y-19436D01*
X14960Y-17125D02*
X15999Y-18165D01*
X20866Y-15944D02*
X19685Y-17125D01*
X20866Y-15157D02*
X20866Y-15944D01*
X17939Y-18760D02*
X17450Y-19250D01*
X29467Y-18760D02*
X17939Y-18760D01*
X30118Y-18110D02*
X29467Y-18760D01*
X33298Y-13416D02*
X36023Y-16141D01*
X17043Y-13416D02*
X33298Y-13416D01*
X15551Y-14908D02*
X17043Y-13416D01*
X15551Y-15322D02*
X15551Y-14908D01*
X14503Y-16370D02*
X15551Y-15322D01*
X14503Y-17521D02*
X14503Y-16370D01*
X15450Y-18468D02*
X14503Y-17521D01*
X15450Y-19250D02*
X15450Y-18468D01*
X15999Y-20799D02*
X15450Y-20250D01*
X30051Y-20799D02*
X15999Y-20799D01*
X31299Y-22047D02*
X30051Y-20799D01*
X33651Y-27549D02*
X34153Y-28051D01*
X24565Y-27549D02*
X33651Y-27549D01*
X34692Y-23779D02*
X35137Y-24224D01*
X22920Y-23779D02*
X34692Y-23779D01*
X21450Y-25250D02*
X22920Y-23779D01*
G54D27*
X18602Y-11614D02*
X22539Y-11614D01*
X12450Y-17339D02*
X11500Y-16389D01*
X12450Y-19250D02*
X12450Y-17339D01*
X13850Y-27650D02*
X17700Y-27650D01*
X11450Y-25250D02*
X13850Y-27650D01*
X21999Y-27099D02*
X22550Y-27650D01*
X18250Y-27099D02*
X21999Y-27099D01*
X17700Y-27650D02*
X18250Y-27099D01*
X16691Y-17675D02*
X16141Y-17125D01*
X17954Y-17675D02*
X16691Y-17675D01*
X18503Y-17125D02*
X17954Y-17675D01*
X23040Y-11112D02*
X22539Y-11614D01*
X25187Y-11112D02*
X23040Y-11112D01*
X25688Y-11614D02*
X25187Y-11112D01*
X21413Y-16578D02*
X20866Y-17125D01*
X22681Y-16578D02*
X21413Y-16578D01*
X23228Y-17125D02*
X22681Y-16578D01*
X24792Y-22592D02*
X24450Y-22250D01*
X29572Y-22592D02*
X24792Y-22592D01*
X30118Y-22047D02*
X29572Y-22592D01*
X26574Y-18110D02*
X28937Y-18110D01*
X25590Y-17125D02*
X26574Y-18110D01*
X33114Y-18657D02*
X33661Y-18110D01*
X31846Y-18657D02*
X33114Y-18657D01*
X31299Y-18110D02*
X31846Y-18657D01*
X34284Y-22605D02*
X34842Y-22047D01*
X33038Y-22605D02*
X34284Y-22605D01*
X32480Y-22047D02*
X33038Y-22605D01*
X21363Y-36656D02*
X21920Y-36100D01*
X15556Y-36656D02*
X21363Y-36656D01*
X15000Y-36100D02*
X15556Y-36656D01*
X23106Y-28206D02*
X22550Y-27650D01*
X24003Y-28206D02*
X23106Y-28206D01*
X24158Y-28051D02*
X24003Y-28206D01*
X28641Y-28051D02*
X24158Y-28051D01*
G54D28*
X11919Y-22019D02*
X12700Y-22800D01*
X11919Y-18379D02*
X11919Y-22019D01*
X11024Y-17485D02*
X11919Y-18379D01*
X11024Y-15951D02*
X11024Y-17485D01*
X11500Y-15476D02*
X11024Y-15951D01*
X11500Y-15010D02*
X11500Y-15476D01*
M02*
