G04 (created by PCBNEW (2013-jul-07)-stable) date Thu 18 Jun 2015 05:10:42 PM PDT*
%MOIN*%
G04 Gerber Fmt 3.4, Leading zero omitted, Abs format*
%FSLAX34Y34*%
G01*
G70*
G90*
G04 APERTURE LIST*
%ADD10C,0.00590551*%
%ADD11C,0.06*%
%ADD12R,0.06X0.06*%
%ADD13C,0.0629921*%
%ADD14C,0.0708661*%
%ADD15C,0.065*%
%ADD16C,0.13*%
%ADD17C,0.07*%
%ADD18C,0.125*%
%ADD19R,0.063X0.063*%
%ADD20C,0.063*%
%ADD21R,0.07X0.07*%
%ADD22C,0.0590551*%
%ADD23C,0.0492126*%
%ADD24C,0.15*%
%ADD25R,0.02X0.012*%
%ADD26C,0.055*%
%ADD27C,0.0511811*%
%ADD28C,0.035*%
%ADD29C,0.03*%
%ADD30C,0.01*%
G04 APERTURE END LIST*
G54D10*
G54D11*
X20550Y-27650D03*
X21550Y-27650D03*
X22550Y-27650D03*
X23550Y-27650D03*
G54D12*
X16650Y-35150D03*
G54D11*
X16650Y-36150D03*
X15650Y-35150D03*
X15650Y-36150D03*
G54D12*
X18670Y-35150D03*
G54D11*
X18670Y-36150D03*
G54D12*
X20618Y-35179D03*
G54D11*
X20618Y-36179D03*
X17700Y-27650D03*
X17700Y-28650D03*
X17700Y-29650D03*
X17700Y-30650D03*
X17700Y-31650D03*
X17700Y-32650D03*
G54D13*
X44722Y-35750D03*
X48777Y-35750D03*
G54D14*
X44722Y-34293D03*
X44726Y-36852D03*
X48777Y-34293D03*
X48777Y-36852D03*
G54D15*
X12700Y-23780D03*
X12700Y-22800D03*
X12700Y-21820D03*
X11400Y-21820D03*
X11400Y-22800D03*
X11400Y-23780D03*
X28618Y-26043D03*
X29618Y-26043D03*
X30618Y-26043D03*
X31618Y-26043D03*
X32618Y-26043D03*
X33618Y-26043D03*
X34618Y-26043D03*
X35618Y-26043D03*
G54D16*
X28618Y-14483D03*
X36618Y-14483D03*
G54D15*
X36618Y-26043D03*
G54D17*
X50950Y-18900D03*
X50950Y-19900D03*
X50950Y-20900D03*
X50950Y-21900D03*
X50950Y-22900D03*
X50950Y-23900D03*
X50950Y-24900D03*
X50950Y-25900D03*
G54D18*
X50980Y-16690D03*
X50980Y-28110D03*
X39360Y-16690D03*
X39360Y-28110D03*
G54D19*
X11500Y-15011D03*
G54D20*
X11500Y-16389D03*
G54D12*
X13800Y-35150D03*
G54D11*
X13800Y-36150D03*
G54D21*
X43400Y-12800D03*
G54D17*
X43400Y-11800D03*
X44400Y-12800D03*
X44400Y-11800D03*
X45400Y-12800D03*
X45400Y-11800D03*
X46400Y-12800D03*
X46400Y-11800D03*
X47400Y-12800D03*
X47400Y-11800D03*
G54D11*
X11450Y-25250D03*
X12450Y-25250D03*
X13450Y-25250D03*
X14450Y-25250D03*
X15450Y-25250D03*
X16450Y-25250D03*
X17450Y-25250D03*
X18450Y-25250D03*
X19450Y-25250D03*
X20450Y-25250D03*
X21450Y-25250D03*
X22450Y-25250D03*
X23450Y-25250D03*
X24450Y-25250D03*
X24450Y-24250D03*
X24450Y-23250D03*
X24450Y-22250D03*
X24450Y-21250D03*
X24450Y-20250D03*
X24450Y-19250D03*
X23450Y-19250D03*
X22450Y-19250D03*
X21450Y-19250D03*
X20450Y-19250D03*
X19450Y-19250D03*
X18450Y-19250D03*
X17450Y-19250D03*
X16450Y-19250D03*
X15450Y-19250D03*
X14450Y-19250D03*
X13450Y-19250D03*
X12450Y-19250D03*
X11450Y-19250D03*
X17450Y-22250D03*
X18450Y-22250D03*
X19450Y-22250D03*
X20450Y-22250D03*
X21450Y-22250D03*
X22450Y-22250D03*
X23450Y-22250D03*
X23450Y-21250D03*
X22450Y-21250D03*
X21450Y-21250D03*
X20450Y-21250D03*
X19450Y-21250D03*
X18450Y-21250D03*
X17450Y-21250D03*
X16450Y-20250D03*
X15450Y-20250D03*
X14450Y-20250D03*
X12450Y-20250D03*
G54D22*
X16141Y-15157D03*
X16141Y-17125D03*
X17322Y-15157D03*
X17322Y-17125D03*
X18503Y-15157D03*
X18503Y-17125D03*
X19685Y-15157D03*
X19685Y-17125D03*
X20866Y-15157D03*
X20866Y-17125D03*
X22047Y-15157D03*
X22047Y-17125D03*
X23228Y-15157D03*
X23228Y-17125D03*
X24409Y-15157D03*
X24409Y-17125D03*
X25590Y-15157D03*
X25590Y-17125D03*
X26771Y-15157D03*
X26771Y-17125D03*
X28937Y-16141D03*
X28937Y-18110D03*
X14960Y-15157D03*
X14960Y-17125D03*
X31299Y-16141D03*
X31299Y-18110D03*
X32480Y-16141D03*
X32480Y-18110D03*
X33661Y-16141D03*
X33661Y-18110D03*
X34842Y-16141D03*
X34842Y-18110D03*
X36023Y-16141D03*
X36023Y-18110D03*
X28937Y-20078D03*
X28937Y-22047D03*
X30118Y-20078D03*
X30118Y-22047D03*
X31299Y-20078D03*
X31299Y-22047D03*
X32480Y-20078D03*
X32480Y-22047D03*
X33661Y-20078D03*
X33661Y-22047D03*
X34842Y-20078D03*
X34842Y-22047D03*
X30118Y-16141D03*
X30118Y-18110D03*
G54D23*
X22125Y-12393D03*
X22125Y-11606D03*
X22912Y-12393D03*
X22912Y-11606D03*
X23700Y-12393D03*
X23700Y-11606D03*
X24487Y-12393D03*
X24487Y-11606D03*
X25274Y-12393D03*
X25274Y-11606D03*
X14925Y-12393D03*
X14925Y-11606D03*
X15712Y-12393D03*
X15712Y-11606D03*
X16500Y-12393D03*
X16500Y-11606D03*
X17287Y-12393D03*
X17287Y-11606D03*
X18074Y-12393D03*
X18074Y-11606D03*
G54D24*
X11500Y-11500D03*
X11500Y-36000D03*
X51000Y-11500D03*
X51000Y-36000D03*
G54D22*
X33169Y-14074D03*
X35137Y-14074D03*
X32086Y-14074D03*
X30118Y-14074D03*
G54D25*
X41750Y-32975D03*
X41750Y-33475D03*
X42550Y-32975D03*
X41750Y-33225D03*
X42550Y-33475D03*
G54D22*
X47984Y-32000D03*
X46015Y-32000D03*
X46015Y-30500D03*
X47984Y-30500D03*
X28431Y-11700D03*
X29415Y-11700D03*
X30400Y-11700D03*
X31384Y-11700D03*
X32368Y-11700D03*
X39760Y-11700D03*
X34839Y-11700D03*
X35823Y-11700D03*
X36807Y-11700D03*
X37792Y-11700D03*
X38776Y-11700D03*
G54D26*
X40550Y-36150D03*
X41550Y-36150D03*
G54D22*
X43065Y-16900D03*
X45034Y-16900D03*
X43065Y-18500D03*
X45034Y-18500D03*
G54D12*
X22850Y-36150D03*
G54D11*
X22850Y-35150D03*
X23850Y-36150D03*
X23850Y-35150D03*
G54D27*
X35743Y-27869D03*
X34955Y-27869D03*
X34168Y-27869D03*
X33381Y-27869D03*
X32593Y-27869D03*
X31806Y-27869D03*
X31018Y-27869D03*
X30231Y-27869D03*
X29444Y-27869D03*
X28656Y-27869D03*
X28656Y-36530D03*
X29444Y-36530D03*
X30231Y-36530D03*
X31018Y-36530D03*
X31806Y-36530D03*
X32593Y-36530D03*
X33381Y-36530D03*
X34168Y-36530D03*
X34955Y-36530D03*
X35743Y-36530D03*
G54D11*
X48750Y-27450D03*
X47750Y-27450D03*
X41750Y-27450D03*
X42750Y-27450D03*
X43750Y-27450D03*
X44750Y-27450D03*
X45750Y-27450D03*
X46750Y-27450D03*
G54D28*
X15921Y-28360D03*
X26488Y-28589D03*
X17643Y-33836D03*
X20361Y-13566D03*
X25099Y-13435D03*
X27584Y-25386D03*
X20950Y-25714D03*
X30680Y-14551D03*
X31205Y-34455D03*
X31358Y-25250D03*
X25807Y-28798D03*
X23776Y-18108D03*
X27481Y-19164D03*
X25491Y-22288D03*
X43001Y-14513D03*
X24998Y-21809D03*
X42759Y-21230D03*
X29462Y-19629D03*
X27245Y-29129D03*
X18977Y-14210D03*
X27753Y-15745D03*
X24481Y-27400D03*
X24754Y-28307D03*
X25212Y-20891D03*
X42485Y-32000D03*
X40141Y-32899D03*
G54D29*
X23400Y-36700D02*
X22850Y-36150D01*
X26912Y-36700D02*
X23400Y-36700D01*
X35743Y-27869D02*
X26912Y-36700D01*
X22850Y-36150D02*
X22299Y-36150D01*
X18238Y-36738D02*
X16650Y-35150D01*
X21711Y-36738D02*
X18238Y-36738D01*
X22299Y-36150D02*
X21711Y-36738D01*
X16650Y-35150D02*
X15650Y-35150D01*
G54D30*
X42550Y-32975D02*
X42843Y-32975D01*
X42843Y-32975D02*
X44161Y-34293D01*
G54D29*
X37659Y-23359D02*
X41750Y-27450D01*
X24559Y-23359D02*
X37659Y-23359D01*
X24450Y-23250D02*
X24559Y-23359D01*
X44722Y-34293D02*
X44161Y-34293D01*
X17643Y-37143D02*
X16650Y-36150D01*
X41311Y-37143D02*
X17643Y-37143D01*
X44161Y-34293D02*
X41311Y-37143D01*
X19550Y-29650D02*
X21550Y-27650D01*
X17700Y-29650D02*
X19550Y-29650D01*
X33169Y-14074D02*
X32086Y-14074D01*
X13780Y-28360D02*
X15921Y-28360D01*
X10897Y-25477D02*
X13780Y-28360D01*
X10897Y-25024D02*
X10897Y-25477D01*
X11279Y-24642D02*
X10897Y-25024D01*
X11837Y-24642D02*
X11279Y-24642D01*
X12700Y-23780D02*
X11837Y-24642D01*
G54D30*
X20308Y-33836D02*
X17643Y-33836D01*
X25672Y-28472D02*
X20308Y-33836D01*
X26371Y-28472D02*
X25672Y-28472D01*
X26488Y-28589D02*
X26371Y-28472D01*
X21747Y-18547D02*
X22450Y-19250D01*
X18744Y-18547D02*
X21747Y-18547D01*
X17322Y-17125D02*
X18744Y-18547D01*
X19797Y-13002D02*
X20361Y-13566D01*
X17109Y-13002D02*
X19797Y-13002D01*
X16500Y-12393D02*
X17109Y-13002D01*
X25574Y-13960D02*
X26771Y-15157D01*
X19810Y-13960D02*
X25574Y-13960D01*
X19052Y-13202D02*
X19810Y-13960D01*
X16521Y-13202D02*
X19052Y-13202D01*
X15712Y-12393D02*
X16521Y-13202D01*
X27551Y-17125D02*
X26771Y-17125D01*
X28536Y-16141D02*
X27551Y-17125D01*
X28937Y-16141D02*
X28536Y-16141D01*
X18911Y-19711D02*
X18450Y-19250D01*
X23636Y-19711D02*
X18911Y-19711D01*
X23947Y-19401D02*
X23636Y-19711D01*
X23947Y-19102D02*
X23947Y-19401D01*
X24516Y-18533D02*
X23947Y-19102D01*
X25364Y-18533D02*
X24516Y-18533D01*
X26771Y-17125D02*
X25364Y-18533D01*
X24994Y-12900D02*
X24487Y-12393D01*
X29863Y-12900D02*
X24994Y-12900D01*
X32480Y-15517D02*
X29863Y-12900D01*
X32480Y-16141D02*
X32480Y-15517D01*
X32480Y-17322D02*
X32480Y-18110D01*
X33661Y-16141D02*
X32480Y-17322D01*
X17111Y-19911D02*
X16450Y-19250D01*
X24128Y-19911D02*
X17111Y-19911D01*
X24337Y-19702D02*
X24128Y-19911D01*
X25744Y-19702D02*
X24337Y-19702D01*
X26807Y-18639D02*
X25744Y-19702D01*
X31951Y-18639D02*
X26807Y-18639D01*
X32480Y-18110D02*
X31951Y-18639D01*
X24741Y-13435D02*
X25099Y-13435D01*
X23700Y-12393D02*
X24741Y-13435D01*
X27256Y-25714D02*
X20950Y-25714D01*
X27584Y-25386D02*
X27256Y-25714D01*
X30680Y-14551D02*
X30680Y-14551D01*
X30680Y-14007D02*
X30680Y-14551D01*
X30302Y-13629D02*
X30680Y-14007D01*
X25365Y-13629D02*
X30302Y-13629D01*
X25234Y-13760D02*
X25365Y-13629D01*
X24279Y-13760D02*
X25234Y-13760D01*
X22912Y-12393D02*
X24279Y-13760D01*
X34397Y-20524D02*
X34842Y-20078D01*
X26145Y-20524D02*
X34397Y-20524D01*
X25442Y-21227D02*
X26145Y-20524D01*
X25066Y-21227D02*
X25442Y-21227D01*
X24639Y-20799D02*
X25066Y-21227D01*
X24200Y-20799D02*
X24639Y-20799D01*
X23650Y-20250D02*
X24200Y-20799D01*
X16450Y-20250D02*
X23650Y-20250D01*
X29137Y-26524D02*
X29618Y-26043D01*
X27545Y-26524D02*
X29137Y-26524D01*
X27061Y-26039D02*
X27545Y-26524D01*
X18568Y-26039D02*
X27061Y-26039D01*
X17950Y-25421D02*
X18568Y-26039D01*
X17950Y-25103D02*
X17950Y-25421D01*
X17646Y-24799D02*
X17950Y-25103D01*
X14900Y-24799D02*
X17646Y-24799D01*
X14450Y-25250D02*
X14900Y-24799D01*
X31373Y-23798D02*
X33618Y-26043D01*
X14901Y-23798D02*
X31373Y-23798D01*
X13450Y-25250D02*
X14901Y-23798D01*
X12910Y-25710D02*
X12450Y-25250D01*
X13628Y-25710D02*
X12910Y-25710D01*
X13950Y-25388D02*
X13628Y-25710D01*
X13950Y-25106D02*
X13950Y-25388D01*
X14462Y-24593D02*
X13950Y-25106D01*
X18165Y-24593D02*
X14462Y-24593D01*
X18366Y-24793D02*
X18165Y-24593D01*
X31368Y-24793D02*
X18366Y-24793D01*
X32618Y-26043D02*
X31368Y-24793D01*
X43750Y-27450D02*
X42750Y-27450D01*
X45750Y-27450D02*
X44750Y-27450D01*
X47984Y-32000D02*
X47984Y-32652D01*
X47984Y-36059D02*
X48777Y-36852D01*
X47984Y-32652D02*
X47984Y-36059D01*
X33096Y-32564D02*
X31205Y-34455D01*
X43177Y-32564D02*
X33096Y-32564D01*
X43265Y-32652D02*
X43177Y-32564D01*
X47984Y-32652D02*
X43265Y-32652D01*
X16847Y-26647D02*
X15450Y-25250D01*
X24189Y-26647D02*
X16847Y-26647D01*
X24731Y-27190D02*
X24189Y-26647D01*
X39973Y-27190D02*
X24731Y-27190D01*
X41088Y-28305D02*
X39973Y-27190D01*
X45531Y-28305D02*
X41088Y-28305D01*
X46200Y-27636D02*
X45531Y-28305D01*
X46200Y-27348D02*
X46200Y-27636D01*
X50648Y-22900D02*
X46200Y-27348D01*
X50950Y-22900D02*
X50648Y-22900D01*
X18447Y-26247D02*
X17450Y-25250D01*
X24659Y-26247D02*
X18447Y-26247D01*
X25136Y-26724D02*
X24659Y-26247D01*
X40324Y-26724D02*
X25136Y-26724D01*
X41504Y-27904D02*
X40324Y-26724D01*
X41943Y-27904D02*
X41504Y-27904D01*
X42250Y-27598D02*
X41943Y-27904D01*
X42250Y-27310D02*
X42250Y-27598D01*
X48660Y-20900D02*
X42250Y-27310D01*
X50950Y-20900D02*
X48660Y-20900D01*
X17647Y-26447D02*
X16450Y-25250D01*
X24272Y-26447D02*
X17647Y-26447D01*
X24814Y-26990D02*
X24272Y-26447D01*
X40056Y-26990D02*
X24814Y-26990D01*
X41171Y-28105D02*
X40056Y-26990D01*
X43746Y-28105D02*
X41171Y-28105D01*
X44250Y-27601D02*
X43746Y-28105D01*
X44250Y-27312D02*
X44250Y-27601D01*
X49662Y-21900D02*
X44250Y-27312D01*
X50950Y-21900D02*
X49662Y-21900D01*
X45870Y-13329D02*
X46400Y-12800D01*
X38437Y-13329D02*
X45870Y-13329D01*
X36807Y-11700D02*
X38437Y-13329D01*
X24638Y-25061D02*
X24450Y-25250D01*
X31169Y-25061D02*
X24638Y-25061D01*
X31358Y-25250D02*
X31169Y-25061D01*
X38245Y-11246D02*
X37792Y-11700D01*
X45846Y-11246D02*
X38245Y-11246D01*
X46400Y-11800D02*
X45846Y-11246D01*
X32822Y-32364D02*
X28656Y-36530D01*
X43277Y-32364D02*
X32822Y-32364D01*
X43360Y-32447D02*
X43277Y-32364D01*
X46802Y-32447D02*
X43360Y-32447D01*
X49892Y-29356D02*
X46802Y-32447D01*
X50831Y-29356D02*
X49892Y-29356D01*
X51760Y-28428D02*
X50831Y-29356D01*
X51760Y-19710D02*
X51760Y-28428D01*
X50950Y-18900D02*
X51760Y-19710D01*
X18997Y-22702D02*
X19450Y-22250D01*
X17245Y-22702D02*
X18997Y-22702D01*
X14950Y-20407D02*
X17245Y-22702D01*
X14950Y-20113D02*
X14950Y-20407D01*
X14636Y-19799D02*
X14950Y-20113D01*
X14363Y-19799D02*
X14636Y-19799D01*
X13905Y-19342D02*
X14363Y-19799D01*
X13905Y-17835D02*
X13905Y-19342D01*
X13711Y-17641D02*
X13905Y-17835D01*
X13711Y-11690D02*
X13711Y-17641D01*
X15003Y-10398D02*
X13711Y-11690D01*
X36136Y-10398D02*
X15003Y-10398D01*
X37300Y-11562D02*
X36136Y-10398D01*
X37300Y-11869D02*
X37300Y-11562D01*
X37578Y-12147D02*
X37300Y-11869D01*
X38328Y-12147D02*
X37578Y-12147D01*
X38776Y-11700D02*
X38328Y-12147D01*
X19455Y-35150D02*
X18670Y-35150D01*
X25807Y-28798D02*
X19455Y-35150D01*
X32307Y-12623D02*
X31384Y-11700D01*
X33686Y-12623D02*
X32307Y-12623D01*
X35137Y-14074D02*
X33686Y-12623D01*
X19999Y-20799D02*
X20450Y-21250D01*
X16329Y-20799D02*
X19999Y-20799D01*
X15950Y-20420D02*
X16329Y-20799D01*
X15950Y-20113D02*
X15950Y-20420D01*
X15636Y-19799D02*
X15950Y-20113D01*
X15363Y-19799D02*
X15636Y-19799D01*
X14999Y-19436D02*
X15363Y-19799D01*
X14999Y-18646D02*
X14999Y-19436D01*
X13911Y-17558D02*
X14999Y-18646D01*
X13911Y-11773D02*
X13911Y-17558D01*
X15086Y-10598D02*
X13911Y-11773D01*
X30282Y-10598D02*
X15086Y-10598D01*
X31384Y-11700D02*
X30282Y-10598D01*
X25260Y-18108D02*
X23776Y-18108D01*
X26181Y-17187D02*
X25260Y-18108D01*
X26181Y-17060D02*
X26181Y-17187D01*
X26561Y-16680D02*
X26181Y-17060D01*
X27554Y-16680D02*
X26561Y-16680D01*
X30118Y-14116D02*
X27554Y-16680D01*
X30118Y-14074D02*
X30118Y-14116D01*
X35823Y-13529D02*
X35823Y-11700D01*
X46670Y-13529D02*
X47400Y-12800D01*
X35823Y-13529D02*
X46670Y-13529D01*
X25772Y-19250D02*
X24450Y-19250D01*
X27851Y-17171D02*
X25772Y-19250D01*
X32080Y-17171D02*
X27851Y-17171D01*
X33071Y-16180D02*
X32080Y-17171D01*
X33071Y-16091D02*
X33071Y-16180D01*
X33491Y-15672D02*
X33071Y-16091D01*
X33831Y-15672D02*
X33491Y-15672D01*
X34251Y-16093D02*
X33831Y-15672D01*
X34251Y-16185D02*
X34251Y-16093D01*
X34665Y-16598D02*
X34251Y-16185D01*
X36197Y-16598D02*
X34665Y-16598D01*
X36493Y-16302D02*
X36197Y-16598D01*
X36493Y-15960D02*
X36493Y-16302D01*
X35808Y-15275D02*
X36493Y-15960D01*
X35808Y-13545D02*
X35808Y-15275D01*
X35823Y-13529D02*
X35808Y-13545D01*
X37683Y-19164D02*
X27481Y-19164D01*
X39148Y-17700D02*
X37683Y-19164D01*
X44234Y-17700D02*
X39148Y-17700D01*
X45034Y-16900D02*
X44234Y-17700D01*
X22903Y-21703D02*
X22450Y-21250D01*
X24644Y-21703D02*
X22903Y-21703D01*
X24863Y-21484D02*
X24644Y-21703D01*
X27236Y-21484D02*
X24863Y-21484D01*
X27755Y-20964D02*
X27236Y-21484D01*
X42564Y-20964D02*
X27755Y-20964D01*
X45029Y-18500D02*
X42564Y-20964D01*
X45034Y-18500D02*
X45029Y-18500D01*
X43290Y-14513D02*
X43001Y-14513D01*
X45504Y-16727D02*
X43290Y-14513D01*
X45504Y-18954D02*
X45504Y-16727D01*
X42893Y-21565D02*
X45504Y-18954D01*
X28775Y-21565D02*
X42893Y-21565D01*
X28051Y-22288D02*
X28775Y-21565D01*
X25491Y-22288D02*
X28051Y-22288D01*
X28422Y-21230D02*
X42759Y-21230D01*
X27842Y-21809D02*
X28422Y-21230D01*
X24998Y-21809D02*
X27842Y-21809D01*
X23850Y-35150D02*
X22850Y-35150D01*
X41936Y-19629D02*
X29462Y-19629D01*
X43065Y-18500D02*
X41936Y-19629D01*
X27245Y-31754D02*
X23850Y-35150D01*
X27245Y-29129D02*
X27245Y-31754D01*
X15907Y-14210D02*
X18977Y-14210D01*
X14960Y-15157D02*
X15907Y-14210D01*
X17791Y-15752D02*
X16334Y-15752D01*
X19094Y-17055D02*
X17791Y-15752D01*
X19094Y-17184D02*
X19094Y-17055D01*
X19745Y-17835D02*
X19094Y-17184D01*
X22035Y-17835D02*
X19745Y-17835D01*
X23450Y-19250D02*
X22035Y-17835D01*
X14960Y-17125D02*
X16334Y-15752D01*
X16334Y-15350D02*
X16141Y-15157D01*
X16334Y-15752D02*
X16334Y-15350D01*
X19685Y-16338D02*
X19685Y-17125D01*
X20866Y-15157D02*
X19685Y-16338D01*
X25136Y-15611D02*
X21324Y-15611D01*
X25590Y-15157D02*
X25136Y-15611D01*
X20419Y-16516D02*
X21324Y-15611D01*
X20419Y-17332D02*
X20419Y-16516D01*
X20675Y-17588D02*
X20419Y-17332D01*
X23946Y-17588D02*
X20675Y-17588D01*
X24409Y-17125D02*
X23946Y-17588D01*
X19086Y-19250D02*
X19450Y-19250D01*
X17408Y-17571D02*
X19086Y-19250D01*
X14773Y-17571D02*
X17408Y-17571D01*
X14511Y-17309D02*
X14773Y-17571D01*
X14511Y-16245D02*
X14511Y-17309D01*
X15551Y-15205D02*
X14511Y-16245D01*
X15551Y-15108D02*
X15551Y-15205D01*
X15963Y-14696D02*
X15551Y-15108D01*
X21050Y-14696D02*
X15963Y-14696D01*
X21324Y-14969D02*
X21050Y-14696D01*
X21324Y-15611D02*
X21324Y-14969D01*
X26719Y-15745D02*
X27753Y-15745D01*
X26181Y-15207D02*
X26719Y-15745D01*
X26181Y-15088D02*
X26181Y-15207D01*
X25472Y-14379D02*
X26181Y-15088D01*
X19798Y-14379D02*
X25472Y-14379D01*
X19296Y-13877D02*
X19798Y-14379D01*
X15602Y-13877D02*
X19296Y-13877D01*
X14311Y-15167D02*
X15602Y-13877D01*
X14311Y-17392D02*
X14311Y-15167D01*
X15091Y-18172D02*
X14311Y-17392D01*
X16372Y-18172D02*
X15091Y-18172D01*
X17450Y-19250D02*
X16372Y-18172D01*
X24104Y-11202D02*
X23700Y-11606D01*
X28568Y-11202D02*
X24104Y-11202D01*
X28923Y-11557D02*
X28568Y-11202D01*
X28923Y-11838D02*
X28923Y-11557D01*
X29384Y-12298D02*
X28923Y-11838D01*
X29654Y-12298D02*
X29384Y-12298D01*
X32640Y-15284D02*
X29654Y-12298D01*
X33984Y-15284D02*
X32640Y-15284D01*
X34842Y-16141D02*
X33984Y-15284D01*
X15450Y-18813D02*
X15450Y-19250D01*
X14111Y-17475D02*
X15450Y-18813D01*
X14111Y-11855D02*
X14111Y-17475D01*
X15168Y-10798D02*
X14111Y-11855D01*
X29170Y-10798D02*
X15168Y-10798D01*
X29861Y-11489D02*
X29170Y-10798D01*
X29861Y-11797D02*
X29861Y-11489D01*
X31128Y-13065D02*
X29861Y-11797D01*
X32947Y-13065D02*
X31128Y-13065D01*
X36023Y-16141D02*
X32947Y-13065D01*
X16973Y-21773D02*
X15450Y-20250D01*
X21618Y-21773D02*
X16973Y-21773D01*
X21900Y-22054D02*
X21618Y-21773D01*
X21900Y-22359D02*
X21900Y-22054D01*
X22324Y-22783D02*
X21900Y-22359D01*
X24673Y-22783D02*
X22324Y-22783D01*
X24909Y-23019D02*
X24673Y-22783D01*
X30326Y-23019D02*
X24909Y-23019D01*
X31299Y-22047D02*
X30326Y-23019D01*
X33699Y-27400D02*
X24481Y-27400D01*
X34168Y-27869D02*
X33699Y-27400D01*
X24797Y-28264D02*
X24754Y-28307D01*
X28477Y-28264D02*
X24797Y-28264D01*
X28503Y-28290D02*
X28477Y-28264D01*
X34534Y-28290D02*
X28503Y-28290D01*
X34955Y-27869D02*
X34534Y-28290D01*
X27264Y-18839D02*
X25212Y-20891D01*
X35953Y-18839D02*
X27264Y-18839D01*
X40947Y-13845D02*
X35953Y-18839D01*
X47091Y-13845D02*
X40947Y-13845D01*
X47900Y-13036D02*
X47091Y-13845D01*
X47900Y-12300D02*
X47900Y-13036D01*
X47400Y-11800D02*
X47900Y-12300D01*
X41750Y-33475D02*
X41625Y-33475D01*
X41550Y-33550D02*
X41550Y-36150D01*
X41625Y-33475D02*
X41550Y-33550D01*
G54D29*
X39860Y-11800D02*
X43400Y-11800D01*
X39760Y-11700D02*
X39860Y-11800D01*
X17956Y-16578D02*
X18503Y-17125D01*
X16688Y-16578D02*
X17956Y-16578D01*
X16141Y-17125D02*
X16688Y-16578D01*
X23773Y-16580D02*
X23228Y-17125D01*
X25045Y-16580D02*
X23773Y-16580D01*
X25590Y-17125D02*
X25045Y-16580D01*
X21412Y-16579D02*
X20866Y-17125D01*
X22681Y-16579D02*
X21412Y-16579D01*
X23228Y-17125D02*
X22681Y-16579D01*
X33025Y-22592D02*
X32480Y-22047D01*
X34297Y-22592D02*
X33025Y-22592D01*
X34842Y-22047D02*
X34297Y-22592D01*
X13850Y-27650D02*
X11450Y-25250D01*
X17700Y-27650D02*
X13850Y-27650D01*
X24564Y-22250D02*
X24450Y-22250D01*
X25028Y-22714D02*
X24564Y-22250D01*
X29451Y-22714D02*
X25028Y-22714D01*
X30118Y-22047D02*
X29451Y-22714D01*
X23104Y-28204D02*
X22550Y-27650D01*
X23907Y-28204D02*
X23104Y-28204D01*
X24242Y-27869D02*
X23907Y-28204D01*
X28656Y-27869D02*
X24242Y-27869D01*
X21999Y-27099D02*
X22550Y-27650D01*
X18250Y-27099D02*
X21999Y-27099D01*
X17700Y-27650D02*
X18250Y-27099D01*
X42485Y-32000D02*
X46015Y-32000D01*
X50950Y-26539D02*
X50950Y-25900D01*
X46015Y-31473D02*
X50950Y-26539D01*
X46015Y-32000D02*
X46015Y-31473D01*
X12450Y-17339D02*
X11500Y-16389D01*
X12450Y-19250D02*
X12450Y-17339D01*
X22125Y-11606D02*
X18074Y-11606D01*
X15427Y-11104D02*
X14925Y-11606D01*
X17572Y-11104D02*
X15427Y-11104D01*
X18074Y-11606D02*
X17572Y-11104D01*
X28337Y-11606D02*
X28431Y-11700D01*
X25274Y-11606D02*
X28337Y-11606D01*
X15350Y-34599D02*
X17146Y-34599D01*
X13800Y-36150D02*
X15350Y-34599D01*
X17146Y-29203D02*
X17146Y-34599D01*
X17700Y-28650D02*
X17146Y-29203D01*
X17146Y-34625D02*
X18670Y-36150D01*
X17146Y-34599D02*
X17146Y-34625D01*
G54D30*
X42550Y-33475D02*
X42299Y-33475D01*
X40275Y-32764D02*
X40141Y-32899D01*
X41948Y-32764D02*
X40275Y-32764D01*
X42056Y-32873D02*
X41948Y-32764D01*
X42056Y-33232D02*
X42056Y-32873D01*
X42299Y-33475D02*
X42056Y-33232D01*
X40550Y-34174D02*
X41499Y-33225D01*
X40550Y-36150D02*
X40550Y-34174D01*
X41750Y-33225D02*
X41499Y-33225D01*
X11945Y-22045D02*
X12700Y-22800D01*
X11945Y-18406D02*
X11945Y-22045D01*
X11025Y-17486D02*
X11945Y-18406D01*
X11025Y-15950D02*
X11025Y-17486D01*
X11500Y-15476D02*
X11025Y-15950D01*
X11500Y-15010D02*
X11500Y-15476D01*
M02*
