G04 (created by PCBNEW (2013-jul-07)-stable) date Wed 10 Jun 2015 05:30:31 PM PDT*
%MOIN*%
G04 Gerber Fmt 3.4, Leading zero omitted, Abs format*
%FSLAX34Y34*%
G01*
G70*
G90*
G04 APERTURE LIST*
%ADD10C,0.00590551*%
%ADD11C,0.012*%
G04 APERTURE END LIST*
G54D10*
G54D11*
X47935Y-29500D02*
X47907Y-29414D01*
X47907Y-29271D01*
X47935Y-29214D01*
X47964Y-29185D01*
X48021Y-29157D01*
X48078Y-29157D01*
X48135Y-29185D01*
X48164Y-29214D01*
X48192Y-29271D01*
X48221Y-29385D01*
X48250Y-29442D01*
X48278Y-29471D01*
X48335Y-29500D01*
X48392Y-29500D01*
X48450Y-29471D01*
X48478Y-29442D01*
X48507Y-29385D01*
X48507Y-29242D01*
X48478Y-29157D01*
X47907Y-28642D02*
X48221Y-28642D01*
X48278Y-28671D01*
X48307Y-28728D01*
X48307Y-28842D01*
X48278Y-28900D01*
X47935Y-28642D02*
X47907Y-28700D01*
X47907Y-28842D01*
X47935Y-28900D01*
X47992Y-28928D01*
X48050Y-28928D01*
X48107Y-28900D01*
X48135Y-28842D01*
X48135Y-28700D01*
X48164Y-28642D01*
X48307Y-28442D02*
X48307Y-28214D01*
X47907Y-28357D02*
X48421Y-28357D01*
X48478Y-28328D01*
X48507Y-28271D01*
X48507Y-28214D01*
X47935Y-27785D02*
X47907Y-27842D01*
X47907Y-27957D01*
X47935Y-28014D01*
X47992Y-28042D01*
X48221Y-28042D01*
X48278Y-28014D01*
X48307Y-27957D01*
X48307Y-27842D01*
X48278Y-27785D01*
X48221Y-27757D01*
X48164Y-27757D01*
X48107Y-28042D01*
X47935Y-27242D02*
X47907Y-27300D01*
X47907Y-27414D01*
X47935Y-27471D01*
X47964Y-27500D01*
X48021Y-27528D01*
X48192Y-27528D01*
X48250Y-27500D01*
X48278Y-27471D01*
X48307Y-27414D01*
X48307Y-27300D01*
X48278Y-27242D01*
X47907Y-26728D02*
X48221Y-26728D01*
X48278Y-26757D01*
X48307Y-26814D01*
X48307Y-26928D01*
X48278Y-26985D01*
X47935Y-26728D02*
X47907Y-26785D01*
X47907Y-26928D01*
X47935Y-26985D01*
X47992Y-27014D01*
X48050Y-27014D01*
X48107Y-26985D01*
X48135Y-26928D01*
X48135Y-26785D01*
X48164Y-26728D01*
X47935Y-26471D02*
X47907Y-26414D01*
X47907Y-26300D01*
X47935Y-26242D01*
X47992Y-26214D01*
X48021Y-26214D01*
X48078Y-26242D01*
X48107Y-26300D01*
X48107Y-26385D01*
X48135Y-26442D01*
X48192Y-26471D01*
X48221Y-26471D01*
X48278Y-26442D01*
X48307Y-26385D01*
X48307Y-26300D01*
X48278Y-26242D01*
X48307Y-26042D02*
X48307Y-25814D01*
X48507Y-25957D02*
X47992Y-25957D01*
X47935Y-25928D01*
X47907Y-25871D01*
X47907Y-25814D01*
X48078Y-25185D02*
X48078Y-24900D01*
X47907Y-25242D02*
X48507Y-25042D01*
X47907Y-24842D01*
X47907Y-24642D02*
X48307Y-24642D01*
X48507Y-24642D02*
X48478Y-24671D01*
X48450Y-24642D01*
X48478Y-24614D01*
X48507Y-24642D01*
X48450Y-24642D01*
X47907Y-24357D02*
X48307Y-24357D01*
X48192Y-24357D02*
X48250Y-24328D01*
X48278Y-24300D01*
X48307Y-24242D01*
X48307Y-24185D01*
X47907Y-23528D02*
X48507Y-23528D01*
X48507Y-23300D01*
X48478Y-23242D01*
X48450Y-23214D01*
X48392Y-23185D01*
X48307Y-23185D01*
X48250Y-23214D01*
X48221Y-23242D01*
X48192Y-23300D01*
X48192Y-23528D01*
X47907Y-22928D02*
X48307Y-22928D01*
X48192Y-22928D02*
X48250Y-22900D01*
X48278Y-22871D01*
X48307Y-22814D01*
X48307Y-22757D01*
X47907Y-22471D02*
X47935Y-22528D01*
X47964Y-22557D01*
X48021Y-22585D01*
X48192Y-22585D01*
X48250Y-22557D01*
X48278Y-22528D01*
X48307Y-22471D01*
X48307Y-22385D01*
X48278Y-22328D01*
X48250Y-22300D01*
X48192Y-22271D01*
X48021Y-22271D01*
X47964Y-22300D01*
X47935Y-22328D01*
X47907Y-22385D01*
X47907Y-22471D01*
X48307Y-22100D02*
X48307Y-21871D01*
X48507Y-22014D02*
X47992Y-22014D01*
X47935Y-21985D01*
X47907Y-21928D01*
X47907Y-21871D01*
X47907Y-21585D02*
X47935Y-21642D01*
X47964Y-21671D01*
X48021Y-21700D01*
X48192Y-21700D01*
X48250Y-21671D01*
X48278Y-21642D01*
X48307Y-21585D01*
X48307Y-21500D01*
X48278Y-21442D01*
X48250Y-21414D01*
X48192Y-21385D01*
X48021Y-21385D01*
X47964Y-21414D01*
X47935Y-21442D01*
X47907Y-21500D01*
X47907Y-21585D01*
X48307Y-21214D02*
X48307Y-20985D01*
X48507Y-21128D02*
X47992Y-21128D01*
X47935Y-21100D01*
X47907Y-21042D01*
X47907Y-20985D01*
X48307Y-20842D02*
X47907Y-20700D01*
X48307Y-20557D02*
X47907Y-20700D01*
X47764Y-20757D01*
X47735Y-20785D01*
X47707Y-20842D01*
X48307Y-20328D02*
X47707Y-20328D01*
X48278Y-20328D02*
X48307Y-20271D01*
X48307Y-20157D01*
X48278Y-20100D01*
X48250Y-20071D01*
X48192Y-20042D01*
X48021Y-20042D01*
X47964Y-20071D01*
X47935Y-20100D01*
X47907Y-20157D01*
X47907Y-20271D01*
X47935Y-20328D01*
X47935Y-19557D02*
X47907Y-19614D01*
X47907Y-19728D01*
X47935Y-19785D01*
X47992Y-19814D01*
X48221Y-19814D01*
X48278Y-19785D01*
X48307Y-19728D01*
X48307Y-19614D01*
X48278Y-19557D01*
X48221Y-19528D01*
X48164Y-19528D01*
X48107Y-19814D01*
X48507Y-18900D02*
X47907Y-18700D01*
X48507Y-18500D01*
X48507Y-18185D02*
X48507Y-18128D01*
X48478Y-18071D01*
X48450Y-18042D01*
X48392Y-18014D01*
X48278Y-17985D01*
X48135Y-17985D01*
X48021Y-18014D01*
X47964Y-18042D01*
X47935Y-18071D01*
X47907Y-18128D01*
X47907Y-18185D01*
X47935Y-18242D01*
X47964Y-18271D01*
X48021Y-18300D01*
X48135Y-18328D01*
X48278Y-18328D01*
X48392Y-18300D01*
X48450Y-18271D01*
X48478Y-18242D01*
X48507Y-18185D01*
X47964Y-17728D02*
X47935Y-17699D01*
X47907Y-17728D01*
X47935Y-17757D01*
X47964Y-17728D01*
X47907Y-17728D01*
X47907Y-17128D02*
X47907Y-17471D01*
X47907Y-17300D02*
X48507Y-17300D01*
X48421Y-17357D01*
X48364Y-17414D01*
X48335Y-17471D01*
X47907Y-16071D02*
X48192Y-16271D01*
X47907Y-16414D02*
X48507Y-16414D01*
X48507Y-16185D01*
X48478Y-16128D01*
X48450Y-16099D01*
X48392Y-16071D01*
X48307Y-16071D01*
X48250Y-16099D01*
X48221Y-16128D01*
X48192Y-16185D01*
X48192Y-16414D01*
X48507Y-15871D02*
X48507Y-15499D01*
X48278Y-15699D01*
X48278Y-15614D01*
X48250Y-15557D01*
X48221Y-15528D01*
X48164Y-15499D01*
X48021Y-15499D01*
X47964Y-15528D01*
X47935Y-15557D01*
X47907Y-15614D01*
X47907Y-15785D01*
X47935Y-15842D01*
X47964Y-15871D01*
X47347Y-26242D02*
X46947Y-26128D01*
X47232Y-26014D01*
X46947Y-25899D01*
X47347Y-25785D01*
X47347Y-25614D02*
X46947Y-25499D01*
X47232Y-25385D01*
X46947Y-25271D01*
X47347Y-25157D01*
X47347Y-24985D02*
X46947Y-24871D01*
X47232Y-24757D01*
X46947Y-24642D01*
X47347Y-24528D01*
X47004Y-24300D02*
X46975Y-24271D01*
X46947Y-24300D01*
X46975Y-24328D01*
X47004Y-24300D01*
X46947Y-24300D01*
X46947Y-24014D02*
X47347Y-24014D01*
X47547Y-24014D02*
X47518Y-24042D01*
X47490Y-24014D01*
X47518Y-23985D01*
X47547Y-24014D01*
X47490Y-24014D01*
X46947Y-23642D02*
X46975Y-23700D01*
X47004Y-23728D01*
X47061Y-23757D01*
X47232Y-23757D01*
X47290Y-23728D01*
X47318Y-23700D01*
X47347Y-23642D01*
X47347Y-23557D01*
X47318Y-23500D01*
X47290Y-23471D01*
X47232Y-23442D01*
X47061Y-23442D01*
X47004Y-23471D01*
X46975Y-23500D01*
X46947Y-23557D01*
X46947Y-23642D01*
X46947Y-23185D02*
X47347Y-23185D01*
X47232Y-23185D02*
X47290Y-23157D01*
X47318Y-23128D01*
X47347Y-23071D01*
X47347Y-23014D01*
X46947Y-22728D02*
X46975Y-22785D01*
X47004Y-22814D01*
X47061Y-22842D01*
X47232Y-22842D01*
X47290Y-22814D01*
X47318Y-22785D01*
X47347Y-22728D01*
X47347Y-22642D01*
X47318Y-22585D01*
X47290Y-22557D01*
X47232Y-22528D01*
X47061Y-22528D01*
X47004Y-22557D01*
X46975Y-22585D01*
X46947Y-22642D01*
X46947Y-22728D01*
X46947Y-22014D02*
X47547Y-22014D01*
X46975Y-22014D02*
X46947Y-22071D01*
X46947Y-22185D01*
X46975Y-22242D01*
X47004Y-22271D01*
X47061Y-22300D01*
X47232Y-22300D01*
X47290Y-22271D01*
X47318Y-22242D01*
X47347Y-22185D01*
X47347Y-22071D01*
X47318Y-22014D01*
X46975Y-21500D02*
X46947Y-21557D01*
X46947Y-21671D01*
X46975Y-21728D01*
X47032Y-21757D01*
X47261Y-21757D01*
X47318Y-21728D01*
X47347Y-21671D01*
X47347Y-21557D01*
X47318Y-21500D01*
X47261Y-21471D01*
X47204Y-21471D01*
X47147Y-21757D01*
X46947Y-21128D02*
X46975Y-21185D01*
X47004Y-21214D01*
X47061Y-21242D01*
X47232Y-21242D01*
X47290Y-21214D01*
X47318Y-21185D01*
X47347Y-21128D01*
X47347Y-21042D01*
X47318Y-20985D01*
X47290Y-20957D01*
X47232Y-20928D01*
X47061Y-20928D01*
X47004Y-20957D01*
X46975Y-20985D01*
X46947Y-21042D01*
X46947Y-21128D01*
X47004Y-20671D02*
X46975Y-20642D01*
X46947Y-20671D01*
X46975Y-20700D01*
X47004Y-20671D01*
X46947Y-20671D01*
X46975Y-20128D02*
X46947Y-20185D01*
X46947Y-20300D01*
X46975Y-20357D01*
X47004Y-20385D01*
X47061Y-20414D01*
X47232Y-20414D01*
X47290Y-20385D01*
X47318Y-20357D01*
X47347Y-20300D01*
X47347Y-20185D01*
X47318Y-20128D01*
X46947Y-19785D02*
X46975Y-19842D01*
X47004Y-19871D01*
X47061Y-19900D01*
X47232Y-19900D01*
X47290Y-19871D01*
X47318Y-19842D01*
X47347Y-19785D01*
X47347Y-19700D01*
X47318Y-19642D01*
X47290Y-19614D01*
X47232Y-19585D01*
X47061Y-19585D01*
X47004Y-19614D01*
X46975Y-19642D01*
X46947Y-19700D01*
X46947Y-19785D01*
X46947Y-19328D02*
X47347Y-19328D01*
X47290Y-19328D02*
X47318Y-19300D01*
X47347Y-19242D01*
X47347Y-19157D01*
X47318Y-19100D01*
X47261Y-19071D01*
X46947Y-19071D01*
X47261Y-19071D02*
X47318Y-19042D01*
X47347Y-18985D01*
X47347Y-18900D01*
X47318Y-18842D01*
X47261Y-18814D01*
X46947Y-18814D01*
M02*
