M48
;DRILL file {Pcbnew (2013-jul-07)-stable} date Thu 18 Jun 2015 05:10:47 PM PDT
;FORMAT={-:-/ absolute / inch / decimal}
FMAT,2
INCH,TZ
T1C0.025
T2C0.028
T3C0.032
T4C0.035
T5C0.035
T6C0.039
T7C0.039
T8C0.040
T9C0.047
T10C0.098
T11C0.116
%
G90
G05
M72
T1
X1.5922Y-2.836
X1.7643Y-3.3837
X1.8977Y-1.421
X2.0362Y-1.3567
X2.095Y-2.5715
X2.3777Y-1.8109
X2.4482Y-2.74
X2.4754Y-2.8308
X2.4998Y-2.1809
X2.51Y-1.3435
X2.5213Y-2.0891
X2.5491Y-2.2289
X2.5807Y-2.8798
X2.6488Y-2.859
X2.7246Y-2.9129
X2.7481Y-1.9165
X2.7585Y-2.5387
X2.7753Y-1.5746
X2.9463Y-1.963
X3.0681Y-1.4551
X3.1206Y-3.4456
X3.1358Y-2.525
X4.0141Y-3.2899
X4.2485Y-3.2
X4.2759Y-2.123
X4.3001Y-1.4513
T2
X2.8657Y-2.7869
X2.8657Y-3.6531
X2.9444Y-2.7869
X2.9444Y-3.6531
X3.0231Y-2.7869
X3.0231Y-3.6531
X3.1019Y-2.7869
X3.1019Y-3.6531
X3.1806Y-2.7869
X3.1806Y-3.6531
X3.2594Y-2.7869
X3.2594Y-3.6531
X3.3381Y-2.7869
X3.3381Y-3.6531
X3.4169Y-2.7869
X3.4169Y-3.6531
X3.4956Y-2.7869
X3.4956Y-3.6531
X3.5743Y-2.7869
X3.5743Y-3.6531
T3
X4.055Y-3.615
X4.155Y-3.615
T4
X1.14Y-2.182
X1.14Y-2.28
X1.14Y-2.378
X1.27Y-2.182
X1.27Y-2.28
X1.27Y-2.378
T5
X1.4925Y-1.1606
X1.4925Y-1.2394
X1.5713Y-1.1606
X1.5713Y-1.2394
X1.65Y-1.1606
X1.65Y-1.2394
X1.7287Y-1.1606
X1.7287Y-1.2394
X1.8075Y-1.1606
X1.8075Y-1.2394
X2.2125Y-1.1606
X2.2125Y-1.2394
X2.2913Y-1.1606
X2.2913Y-1.2394
X2.37Y-1.1606
X2.37Y-1.2394
X2.4487Y-1.1606
X2.4487Y-1.2394
X2.5275Y-1.1606
X2.5275Y-1.2394
X2.8431Y-1.17
X2.9416Y-1.17
X3.04Y-1.17
X3.1384Y-1.17
X3.2369Y-1.17
X3.4839Y-1.17
X3.5824Y-1.17
X3.6808Y-1.17
X3.7792Y-1.17
X3.8776Y-1.17
X3.9761Y-1.17
T6
X1.4961Y-1.5157
X1.4961Y-1.7126
X1.6142Y-1.5157
X1.6142Y-1.7126
X1.7323Y-1.5157
X1.7323Y-1.7126
X1.8504Y-1.5157
X1.8504Y-1.7126
X1.9685Y-1.5157
X1.9685Y-1.7126
X2.0866Y-1.5157
X2.0866Y-1.7126
X2.2047Y-1.5157
X2.2047Y-1.7126
X2.3228Y-1.5157
X2.3228Y-1.7126
X2.4409Y-1.5157
X2.4409Y-1.7126
X2.5591Y-1.5157
X2.5591Y-1.7126
X2.6772Y-1.5157
X2.6772Y-1.7126
X2.8937Y-1.6142
X2.8937Y-1.811
X2.8937Y-2.0079
X2.8937Y-2.2047
X3.0118Y-1.4075
X3.0118Y-1.6142
X3.0118Y-1.811
X3.0118Y-2.0079
X3.0118Y-2.2047
X3.1299Y-1.6142
X3.1299Y-1.811
X3.1299Y-2.0079
X3.1299Y-2.2047
X3.2087Y-1.4075
X3.248Y-1.6142
X3.248Y-1.811
X3.248Y-2.0079
X3.248Y-2.2047
X3.3169Y-1.4075
X3.3661Y-1.6142
X3.3661Y-1.811
X3.3661Y-2.0079
X3.3661Y-2.2047
X3.4843Y-1.6142
X3.4843Y-1.811
X3.4843Y-2.0079
X3.4843Y-2.2047
X3.5138Y-1.4075
X3.6024Y-1.6142
X3.6024Y-1.811
X4.3066Y-1.69
X4.3066Y-1.85
X4.4722Y-3.575
X4.5034Y-1.69
X4.5034Y-1.85
X4.6016Y-3.05
X4.6016Y-3.2
X4.7984Y-3.05
X4.7984Y-3.2
X4.8778Y-3.575
T7
X1.15Y-1.5011
X1.15Y-1.6389
T8
X1.145Y-1.925
X1.145Y-2.525
X1.245Y-1.925
X1.245Y-2.025
X1.245Y-2.525
X1.345Y-1.925
X1.345Y-2.525
X1.38Y-3.515
X1.38Y-3.615
X1.445Y-1.925
X1.445Y-2.025
X1.445Y-2.525
X1.545Y-1.925
X1.545Y-2.025
X1.545Y-2.525
X1.565Y-3.515
X1.565Y-3.615
X1.645Y-1.925
X1.645Y-2.025
X1.645Y-2.525
X1.665Y-3.515
X1.665Y-3.615
X1.745Y-1.925
X1.745Y-2.125
X1.745Y-2.225
X1.745Y-2.525
X1.77Y-2.765
X1.77Y-2.865
X1.77Y-2.965
X1.77Y-3.065
X1.77Y-3.165
X1.77Y-3.265
X1.845Y-1.925
X1.845Y-2.125
X1.845Y-2.225
X1.845Y-2.525
X1.867Y-3.515
X1.867Y-3.615
X1.945Y-1.925
X1.945Y-2.125
X1.945Y-2.225
X1.945Y-2.525
X2.045Y-1.925
X2.045Y-2.125
X2.045Y-2.225
X2.045Y-2.525
X2.055Y-2.765
X2.0619Y-3.518
X2.0619Y-3.618
X2.145Y-1.925
X2.145Y-2.125
X2.145Y-2.225
X2.145Y-2.525
X2.155Y-2.765
X2.245Y-1.925
X2.245Y-2.125
X2.245Y-2.225
X2.245Y-2.525
X2.255Y-2.765
X2.285Y-3.515
X2.285Y-3.615
X2.345Y-1.925
X2.345Y-2.125
X2.345Y-2.225
X2.345Y-2.525
X2.355Y-2.765
X2.385Y-3.515
X2.385Y-3.615
X2.445Y-1.925
X2.445Y-2.025
X2.445Y-2.125
X2.445Y-2.225
X2.445Y-2.325
X2.445Y-2.425
X2.445Y-2.525
X2.8618Y-2.6043
X2.9618Y-2.6043
X3.0618Y-2.6043
X3.1618Y-2.6043
X3.2618Y-2.6043
X3.3618Y-2.6043
X3.4618Y-2.6043
X3.5618Y-2.6043
X3.6618Y-2.6043
X4.175Y-2.745
X4.275Y-2.745
X4.34Y-1.18
X4.34Y-1.28
X4.375Y-2.745
X4.44Y-1.18
X4.44Y-1.28
X4.475Y-2.745
X4.54Y-1.18
X4.54Y-1.28
X4.575Y-2.745
X4.64Y-1.18
X4.64Y-1.28
X4.675Y-2.745
X4.74Y-1.18
X4.74Y-1.28
X4.775Y-2.745
X4.875Y-2.745
X5.095Y-1.89
X5.095Y-1.99
X5.095Y-2.09
X5.095Y-2.19
X5.095Y-2.29
X5.095Y-2.39
X5.095Y-2.49
X5.095Y-2.59
T9
X4.4722Y-3.4293
X4.4726Y-3.6852
X4.8778Y-3.4293
X4.8778Y-3.6852
T10
X2.8618Y-1.4483
X3.6618Y-1.4483
X3.936Y-1.669
X3.936Y-2.811
X5.098Y-1.669
X5.098Y-2.811
T11
X1.15Y-1.15
X1.15Y-3.6
X5.1Y-1.15
X5.1Y-3.6
T0
M30
