G04 (created by PCBNEW (2013-jul-07)-stable) date Wed 10 Jun 2015 05:30:31 PM PDT*
%MOIN*%
G04 Gerber Fmt 3.4, Leading zero omitted, Abs format*
%FSLAX34Y34*%
G01*
G70*
G90*
G04 APERTURE LIST*
%ADD10C,0.00590551*%
%ADD11C,0.0511811*%
%ADD12C,0.06*%
%ADD13R,0.06X0.06*%
%ADD14C,0.0629921*%
%ADD15C,0.0708661*%
%ADD16C,0.065*%
%ADD17C,0.13*%
%ADD18C,0.07*%
%ADD19C,0.125*%
%ADD20R,0.063X0.063*%
%ADD21C,0.063*%
%ADD22R,0.07X0.07*%
%ADD23C,0.0590551*%
%ADD24C,0.0492126*%
%ADD25C,0.15*%
%ADD26R,0.02X0.012*%
%ADD27C,0.055*%
%ADD28C,0.035*%
%ADD29C,0.03*%
%ADD30C,0.01*%
%ADD31C,0.0119921*%
G04 APERTURE END LIST*
G54D10*
G54D11*
X35728Y-28051D03*
X34940Y-28051D03*
X34153Y-28051D03*
X33366Y-28051D03*
X32578Y-28051D03*
X31791Y-28051D03*
X31003Y-28051D03*
X30216Y-28051D03*
X29429Y-28051D03*
X28641Y-28051D03*
X28641Y-36712D03*
X29429Y-36712D03*
X30216Y-36712D03*
X31003Y-36712D03*
X31791Y-36712D03*
X32578Y-36712D03*
X33366Y-36712D03*
X34153Y-36712D03*
X34940Y-36712D03*
X35728Y-36712D03*
G54D12*
X20550Y-27650D03*
X21550Y-27650D03*
X22550Y-27650D03*
X23550Y-27650D03*
G54D13*
X18300Y-35100D03*
G54D12*
X18300Y-36100D03*
X17300Y-35100D03*
X17300Y-36100D03*
G54D13*
X20620Y-35100D03*
G54D12*
X20620Y-36100D03*
G54D13*
X22718Y-35129D03*
G54D12*
X22718Y-36129D03*
X17700Y-27650D03*
X17700Y-28650D03*
X17700Y-29650D03*
X17700Y-30650D03*
X17700Y-31650D03*
X17700Y-32650D03*
G54D14*
X40222Y-35050D03*
X44277Y-35050D03*
G54D15*
X40222Y-33593D03*
X40226Y-36152D03*
X44277Y-33593D03*
X44277Y-36152D03*
G54D16*
X12700Y-23780D03*
X12700Y-22800D03*
X12700Y-21820D03*
X11400Y-21820D03*
X11400Y-22800D03*
X11400Y-23780D03*
X28618Y-26043D03*
X29618Y-26043D03*
X30618Y-26043D03*
X31618Y-26043D03*
X32618Y-26043D03*
X33618Y-26043D03*
X34618Y-26043D03*
X35618Y-26043D03*
G54D17*
X28618Y-14483D03*
X36618Y-14483D03*
G54D16*
X36618Y-26043D03*
G54D18*
X51000Y-19500D03*
X51000Y-20500D03*
X51000Y-21500D03*
X51000Y-22500D03*
X51000Y-23500D03*
X51000Y-24500D03*
X51000Y-25500D03*
X51000Y-26500D03*
G54D19*
X51030Y-17290D03*
X51030Y-28710D03*
X39410Y-17290D03*
X39410Y-28710D03*
G54D20*
X11500Y-15011D03*
G54D21*
X11500Y-16389D03*
G54D13*
X15000Y-35100D03*
G54D12*
X15000Y-36100D03*
G54D22*
X43400Y-12800D03*
G54D18*
X43400Y-11800D03*
X44400Y-12800D03*
X44400Y-11800D03*
X45400Y-12800D03*
X45400Y-11800D03*
X46400Y-12800D03*
X46400Y-11800D03*
X47400Y-12800D03*
X47400Y-11800D03*
G54D12*
X11450Y-25250D03*
X12450Y-25250D03*
X13450Y-25250D03*
X14450Y-25250D03*
X15450Y-25250D03*
X16450Y-25250D03*
X17450Y-25250D03*
X18450Y-25250D03*
X19450Y-25250D03*
X20450Y-25250D03*
X21450Y-25250D03*
X22450Y-25250D03*
X23450Y-25250D03*
X24450Y-25250D03*
X24450Y-24250D03*
X24450Y-23250D03*
X24450Y-22250D03*
X24450Y-21250D03*
X24450Y-20250D03*
X24450Y-19250D03*
X23450Y-19250D03*
X22450Y-19250D03*
X21450Y-19250D03*
X20450Y-19250D03*
X19450Y-19250D03*
X18450Y-19250D03*
X17450Y-19250D03*
X16450Y-19250D03*
X15450Y-19250D03*
X14450Y-19250D03*
X13450Y-19250D03*
X12450Y-19250D03*
X11450Y-19250D03*
X17450Y-22250D03*
X18450Y-22250D03*
X19450Y-22250D03*
X20450Y-22250D03*
X21450Y-22250D03*
X22450Y-22250D03*
X23450Y-22250D03*
X23450Y-21250D03*
X22450Y-21250D03*
X21450Y-21250D03*
X20450Y-21250D03*
X19450Y-21250D03*
X18450Y-21250D03*
X17450Y-21250D03*
X16450Y-20250D03*
X15450Y-20250D03*
X14450Y-20250D03*
X12450Y-20250D03*
G54D23*
X16141Y-15157D03*
X16141Y-17125D03*
X17322Y-15157D03*
X17322Y-17125D03*
X18503Y-15157D03*
X18503Y-17125D03*
X19685Y-15157D03*
X19685Y-17125D03*
X20866Y-15157D03*
X20866Y-17125D03*
X22047Y-15157D03*
X22047Y-17125D03*
X23228Y-15157D03*
X23228Y-17125D03*
X24409Y-15157D03*
X24409Y-17125D03*
X25590Y-15157D03*
X25590Y-17125D03*
X26771Y-15157D03*
X26771Y-17125D03*
X28937Y-16141D03*
X28937Y-18110D03*
X14960Y-15157D03*
X14960Y-17125D03*
X31299Y-16141D03*
X31299Y-18110D03*
X32480Y-16141D03*
X32480Y-18110D03*
X33661Y-16141D03*
X33661Y-18110D03*
X34842Y-16141D03*
X34842Y-18110D03*
X36023Y-16141D03*
X36023Y-18110D03*
X28937Y-20078D03*
X28937Y-22047D03*
X30118Y-20078D03*
X30118Y-22047D03*
X31299Y-20078D03*
X31299Y-22047D03*
X32480Y-20078D03*
X32480Y-22047D03*
X33661Y-20078D03*
X33661Y-22047D03*
X34842Y-20078D03*
X34842Y-22047D03*
X30118Y-16141D03*
X30118Y-18110D03*
G54D24*
X22125Y-12393D03*
X22125Y-11606D03*
X22912Y-12393D03*
X22912Y-11606D03*
X23700Y-12393D03*
X23700Y-11606D03*
X24487Y-12393D03*
X24487Y-11606D03*
X25274Y-12393D03*
X25274Y-11606D03*
X14925Y-12393D03*
X14925Y-11606D03*
X15712Y-12393D03*
X15712Y-11606D03*
X16500Y-12393D03*
X16500Y-11606D03*
X17287Y-12393D03*
X17287Y-11606D03*
X18074Y-12393D03*
X18074Y-11606D03*
G54D25*
X11500Y-11500D03*
X11500Y-36000D03*
X51000Y-11500D03*
X51000Y-36000D03*
G54D23*
X33169Y-14074D03*
X35137Y-14074D03*
X32086Y-14074D03*
X30118Y-14074D03*
G54D26*
X47250Y-33500D03*
X47250Y-33000D03*
X46450Y-33500D03*
X47250Y-33250D03*
X46450Y-33000D03*
G54D23*
X45865Y-36200D03*
X47834Y-36200D03*
X47834Y-34900D03*
X45865Y-34900D03*
G54D12*
X48450Y-31350D03*
X47450Y-31350D03*
X41450Y-31350D03*
X42450Y-31350D03*
X43450Y-31350D03*
X44450Y-31350D03*
X45450Y-31350D03*
X46450Y-31350D03*
G54D23*
X28431Y-11700D03*
X29415Y-11700D03*
X30400Y-11700D03*
X31384Y-11700D03*
X32368Y-11700D03*
X39760Y-11700D03*
X34839Y-11700D03*
X35823Y-11700D03*
X36807Y-11700D03*
X37792Y-11700D03*
X38776Y-11700D03*
G54D27*
X50100Y-33500D03*
X50100Y-32500D03*
G54D28*
X22046Y-32490D03*
X19679Y-12789D03*
X25686Y-14545D03*
X25954Y-30229D03*
X17819Y-26152D03*
X26400Y-27665D03*
X38164Y-17572D03*
X23692Y-15863D03*
X25062Y-15537D03*
X41468Y-12678D03*
X25907Y-13092D03*
X19286Y-13813D03*
X35894Y-20386D03*
X18093Y-13472D03*
X36818Y-18230D03*
X16835Y-33686D03*
G54D29*
X18300Y-35100D02*
X17300Y-35100D01*
X24732Y-29804D02*
X22046Y-32490D01*
X33975Y-29804D02*
X24732Y-29804D01*
X35728Y-28051D02*
X33975Y-29804D01*
X45641Y-33500D02*
X46450Y-33500D01*
X44444Y-32302D02*
X45641Y-33500D01*
X42402Y-32302D02*
X44444Y-32302D01*
X41450Y-31350D02*
X42402Y-32302D01*
X51603Y-26103D02*
X51000Y-25500D01*
X51603Y-26761D02*
X51603Y-26103D01*
X51263Y-27102D02*
X51603Y-26761D01*
X36677Y-27102D02*
X51263Y-27102D01*
X35618Y-26043D02*
X36677Y-27102D01*
X22718Y-35129D02*
X22718Y-34579D01*
X19550Y-31410D02*
X19550Y-29650D01*
X22718Y-34579D02*
X19550Y-31410D01*
X17700Y-29650D02*
X19550Y-29650D01*
X19550Y-29650D02*
X21550Y-27650D01*
X15063Y-29650D02*
X17700Y-29650D01*
X10880Y-25466D02*
X15063Y-29650D01*
X10880Y-25038D02*
X10880Y-25466D01*
X11291Y-24627D02*
X10880Y-25038D01*
X11852Y-24627D02*
X11291Y-24627D01*
X12700Y-23780D02*
X11852Y-24627D01*
X33169Y-14074D02*
X32086Y-14074D01*
X22621Y-12889D02*
X22125Y-12393D01*
X25508Y-12889D02*
X22621Y-12889D01*
X26090Y-12307D02*
X25508Y-12889D01*
X29792Y-12307D02*
X26090Y-12307D01*
X30400Y-11700D02*
X29792Y-12307D01*
G54D30*
X16896Y-12789D02*
X19679Y-12789D01*
X16500Y-12393D02*
X16896Y-12789D01*
X16313Y-12994D02*
X15712Y-12393D01*
X18075Y-12994D02*
X16313Y-12994D01*
X18418Y-13338D02*
X18075Y-12994D01*
X18418Y-13409D02*
X18418Y-13338D01*
X19174Y-14166D02*
X18418Y-13409D01*
X25780Y-14166D02*
X19174Y-14166D01*
X26771Y-15157D02*
X25780Y-14166D01*
X27952Y-17125D02*
X28937Y-16141D01*
X26771Y-17125D02*
X27952Y-17125D01*
X18911Y-19711D02*
X18450Y-19250D01*
X21638Y-19711D02*
X18911Y-19711D01*
X21950Y-19400D02*
X21638Y-19711D01*
X21950Y-19099D02*
X21950Y-19400D01*
X22857Y-18192D02*
X21950Y-19099D01*
X25705Y-18192D02*
X22857Y-18192D01*
X26771Y-17125D02*
X25705Y-18192D01*
X17187Y-18512D02*
X16450Y-19250D01*
X19904Y-18512D02*
X17187Y-18512D01*
X20845Y-17571D02*
X19904Y-18512D01*
X23443Y-17571D02*
X20845Y-17571D01*
X23680Y-17334D02*
X23443Y-17571D01*
X23680Y-17192D02*
X23680Y-17334D01*
X24193Y-16679D02*
X23680Y-17192D01*
X27561Y-16679D02*
X24193Y-16679D01*
X29447Y-14793D02*
X27561Y-16679D01*
X29447Y-13811D02*
X29447Y-14793D01*
X29838Y-13420D02*
X29447Y-13811D01*
X30459Y-13420D02*
X29838Y-13420D01*
X33180Y-16141D02*
X30459Y-13420D01*
X33661Y-16141D02*
X33180Y-16141D01*
X16128Y-17571D02*
X14450Y-19250D01*
X18724Y-17571D02*
X16128Y-17571D01*
X19094Y-17201D02*
X18724Y-17571D01*
X19094Y-16386D02*
X19094Y-17201D01*
X20137Y-15343D02*
X19094Y-16386D01*
X20137Y-15240D02*
X20137Y-15343D01*
X20677Y-14700D02*
X20137Y-15240D01*
X21063Y-14700D02*
X20677Y-14700D01*
X21456Y-15093D02*
X21063Y-14700D01*
X21456Y-15221D02*
X21456Y-15093D01*
X21838Y-15602D02*
X21456Y-15221D01*
X22232Y-15602D02*
X21838Y-15602D01*
X22729Y-15105D02*
X22232Y-15602D01*
X22729Y-15026D02*
X22729Y-15105D01*
X23210Y-14545D02*
X22729Y-15026D01*
X25686Y-14545D02*
X23210Y-14545D01*
X16685Y-20485D02*
X16450Y-20250D01*
X20342Y-20485D02*
X16685Y-20485D01*
X20950Y-21092D02*
X20342Y-20485D01*
X20950Y-21386D02*
X20950Y-21092D01*
X21263Y-21700D02*
X20950Y-21386D01*
X21536Y-21700D02*
X21263Y-21700D01*
X21900Y-22063D02*
X21536Y-21700D01*
X21900Y-22342D02*
X21900Y-22063D01*
X22260Y-22702D02*
X21900Y-22342D01*
X25522Y-22702D02*
X22260Y-22702D01*
X26624Y-21600D02*
X25522Y-22702D01*
X33214Y-21600D02*
X26624Y-21600D01*
X33661Y-22047D02*
X33214Y-21600D01*
X15506Y-24193D02*
X14450Y-25250D01*
X23441Y-24193D02*
X15506Y-24193D01*
X23964Y-24716D02*
X23441Y-24193D01*
X28291Y-24716D02*
X23964Y-24716D01*
X29618Y-26043D02*
X28291Y-24716D01*
X32523Y-27137D02*
X33618Y-26043D01*
X27994Y-27137D02*
X32523Y-27137D01*
X27796Y-26940D02*
X27994Y-27137D01*
X24893Y-26940D02*
X27796Y-26940D01*
X23886Y-25932D02*
X24893Y-26940D01*
X23475Y-25932D02*
X23886Y-25932D01*
X22950Y-25406D02*
X23475Y-25932D01*
X22950Y-25113D02*
X22950Y-25406D01*
X22430Y-24593D02*
X22950Y-25113D01*
X18449Y-24593D02*
X22430Y-24593D01*
X17950Y-25093D02*
X18449Y-24593D01*
X17950Y-25386D02*
X17950Y-25093D01*
X17401Y-25935D02*
X17950Y-25386D01*
X14135Y-25935D02*
X17401Y-25935D01*
X13450Y-25250D02*
X14135Y-25935D01*
X31923Y-26737D02*
X32618Y-26043D01*
X28160Y-26737D02*
X31923Y-26737D01*
X27960Y-26537D02*
X28160Y-26737D01*
X25069Y-26537D02*
X27960Y-26537D01*
X23901Y-25369D02*
X25069Y-26537D01*
X23901Y-25051D02*
X23901Y-25369D01*
X23242Y-24393D02*
X23901Y-25051D01*
X17649Y-24393D02*
X23242Y-24393D01*
X16950Y-25093D02*
X17649Y-24393D01*
X16950Y-25386D02*
X16950Y-25093D01*
X16617Y-25718D02*
X16950Y-25386D01*
X14282Y-25718D02*
X16617Y-25718D01*
X13950Y-25386D02*
X14282Y-25718D01*
X13950Y-25111D02*
X13950Y-25386D01*
X13621Y-24783D02*
X13950Y-25111D01*
X12916Y-24783D02*
X13621Y-24783D01*
X12450Y-25250D02*
X12916Y-24783D01*
X43450Y-31350D02*
X42450Y-31350D01*
X45450Y-31350D02*
X44450Y-31350D01*
X38354Y-30229D02*
X44277Y-36152D01*
X25954Y-30229D02*
X38354Y-30229D01*
X46450Y-31350D02*
X47450Y-31350D01*
X47450Y-31350D02*
X48450Y-31350D01*
X24717Y-27665D02*
X26400Y-27665D01*
X23661Y-26609D02*
X24717Y-27665D01*
X18276Y-26609D02*
X23661Y-26609D01*
X17819Y-26152D02*
X18276Y-26609D01*
X41120Y-18079D02*
X46400Y-12800D01*
X38687Y-18079D02*
X41120Y-18079D01*
X38180Y-17572D02*
X38687Y-18079D01*
X38164Y-17572D02*
X38180Y-17572D01*
X27055Y-25250D02*
X24450Y-25250D01*
X28343Y-26537D02*
X27055Y-25250D01*
X29811Y-26537D02*
X28343Y-26537D01*
X30118Y-26231D02*
X29811Y-26537D01*
X30118Y-25837D02*
X30118Y-26231D01*
X30542Y-25412D02*
X30118Y-25837D01*
X32113Y-25412D02*
X30542Y-25412D01*
X38687Y-18838D02*
X32113Y-25412D01*
X38687Y-18079D02*
X38687Y-18838D01*
X39451Y-19500D02*
X51000Y-19500D01*
X33118Y-25833D02*
X39451Y-19500D01*
X33118Y-26226D02*
X33118Y-25833D01*
X32406Y-26937D02*
X33118Y-26226D01*
X28077Y-26937D02*
X32406Y-26937D01*
X27879Y-26740D02*
X28077Y-26937D01*
X24988Y-26740D02*
X27879Y-26740D01*
X23498Y-25250D02*
X24988Y-26740D01*
X23450Y-25250D02*
X23498Y-25250D01*
X45849Y-11249D02*
X46400Y-11800D01*
X38242Y-11249D02*
X45849Y-11249D01*
X37792Y-11700D02*
X38242Y-11249D01*
X38319Y-12157D02*
X38776Y-11700D01*
X37605Y-12157D02*
X38319Y-12157D01*
X37300Y-11851D02*
X37605Y-12157D01*
X37300Y-11552D02*
X37300Y-11851D01*
X36767Y-11020D02*
X37300Y-11552D01*
X34600Y-11020D02*
X36767Y-11020D01*
X32729Y-12891D02*
X34600Y-11020D01*
X28790Y-12891D02*
X32729Y-12891D01*
X27522Y-14158D02*
X28790Y-12891D01*
X27522Y-15337D02*
X27522Y-14158D01*
X26996Y-15863D02*
X27522Y-15337D01*
X23692Y-15863D02*
X26996Y-15863D01*
X25127Y-15602D02*
X25062Y-15537D01*
X26974Y-15602D02*
X25127Y-15602D01*
X27322Y-15254D02*
X26974Y-15602D01*
X27322Y-14064D02*
X27322Y-15254D01*
X28779Y-12608D02*
X27322Y-14064D01*
X30476Y-12608D02*
X28779Y-12608D01*
X31384Y-11700D02*
X30476Y-12608D01*
X22365Y-20334D02*
X21450Y-21250D01*
X23038Y-20334D02*
X22365Y-20334D01*
X23950Y-19422D02*
X23038Y-20334D01*
X23950Y-19091D02*
X23950Y-19422D01*
X24266Y-18775D02*
X23950Y-19091D01*
X27394Y-18775D02*
X24266Y-18775D01*
X29115Y-17055D02*
X27394Y-18775D01*
X29840Y-17055D02*
X29115Y-17055D01*
X30573Y-16321D02*
X29840Y-17055D01*
X30573Y-14530D02*
X30573Y-16321D01*
X30118Y-14074D02*
X30573Y-14530D01*
X29612Y-19250D02*
X24450Y-19250D01*
X30708Y-18154D02*
X29612Y-19250D01*
X30708Y-18061D02*
X30708Y-18154D01*
X32025Y-16744D02*
X30708Y-18061D01*
X33694Y-16744D02*
X32025Y-16744D01*
X34252Y-16186D02*
X33694Y-16744D01*
X34252Y-13271D02*
X34252Y-16186D01*
X35823Y-11700D02*
X34252Y-13271D01*
X23900Y-20799D02*
X23450Y-21250D01*
X34777Y-20799D02*
X23900Y-20799D01*
X37792Y-17785D02*
X34777Y-20799D01*
X37792Y-17485D02*
X37792Y-17785D01*
X41670Y-13607D02*
X37792Y-17485D01*
X44592Y-13607D02*
X41670Y-13607D01*
X45400Y-12800D02*
X44592Y-13607D01*
X23950Y-19750D02*
X22450Y-21250D01*
X24783Y-19750D02*
X23950Y-19750D01*
X24900Y-19633D02*
X24783Y-19750D01*
X31851Y-19633D02*
X24900Y-19633D01*
X32052Y-19433D02*
X31851Y-19633D01*
X35332Y-19433D02*
X32052Y-19433D01*
X36492Y-18272D02*
X35332Y-19433D01*
X36492Y-18051D02*
X36492Y-18272D01*
X41468Y-13075D02*
X36492Y-18051D01*
X41468Y-12678D02*
X41468Y-13075D01*
X25186Y-13813D02*
X19286Y-13813D01*
X25907Y-13092D02*
X25186Y-13813D01*
X18999Y-21700D02*
X19450Y-21250D01*
X15181Y-21700D02*
X18999Y-21700D01*
X13231Y-19750D02*
X15181Y-21700D01*
X12313Y-19750D02*
X13231Y-19750D01*
X11999Y-19436D02*
X12313Y-19750D01*
X11999Y-18846D02*
X11999Y-19436D01*
X11012Y-17858D02*
X11999Y-18846D01*
X11012Y-14644D02*
X11012Y-17858D01*
X14871Y-10784D02*
X11012Y-14644D01*
X46384Y-10784D02*
X14871Y-10784D01*
X47400Y-11800D02*
X46384Y-10784D01*
X22999Y-21700D02*
X22450Y-22250D01*
X25274Y-21700D02*
X22999Y-21700D01*
X25686Y-21288D02*
X25274Y-21700D01*
X34992Y-21288D02*
X25686Y-21288D01*
X35894Y-20386D02*
X34992Y-21288D01*
G54D29*
X20186Y-33597D02*
X22718Y-36129D01*
X17864Y-33597D02*
X20186Y-33597D01*
X10458Y-26192D02*
X17864Y-33597D01*
X10458Y-21920D02*
X10458Y-26192D01*
X12129Y-20250D02*
X10458Y-21920D01*
X12450Y-20250D02*
X12129Y-20250D01*
G54D30*
X16645Y-13472D02*
X14960Y-15157D01*
X18093Y-13472D02*
X16645Y-13472D01*
X22565Y-20134D02*
X23450Y-19250D01*
X17790Y-20134D02*
X22565Y-20134D01*
X17356Y-19700D02*
X17790Y-20134D01*
X14242Y-19700D02*
X17356Y-19700D01*
X13999Y-19457D02*
X14242Y-19700D01*
X13999Y-18086D02*
X13999Y-19457D01*
X14960Y-17125D02*
X13999Y-18086D01*
X19685Y-16338D02*
X19685Y-17125D01*
X20866Y-15157D02*
X19685Y-16338D01*
X23543Y-17992D02*
X24409Y-17125D01*
X20707Y-17992D02*
X23543Y-17992D01*
X19450Y-19250D02*
X20707Y-17992D01*
X31299Y-16929D02*
X31299Y-16141D01*
X30118Y-18110D02*
X31299Y-16929D01*
X18134Y-19934D02*
X17450Y-19250D01*
X22403Y-19934D02*
X18134Y-19934D01*
X22950Y-19387D02*
X22403Y-19934D01*
X22950Y-19112D02*
X22950Y-19387D01*
X23511Y-18550D02*
X22950Y-19112D01*
X27180Y-18550D02*
X23511Y-18550D01*
X29670Y-16061D02*
X27180Y-18550D01*
X29670Y-13871D02*
X29670Y-16061D01*
X29921Y-13620D02*
X29670Y-13871D01*
X30304Y-13620D02*
X29921Y-13620D01*
X31299Y-14615D02*
X30304Y-13620D01*
X31299Y-16141D02*
X31299Y-14615D01*
X34842Y-17322D02*
X34842Y-18110D01*
X36023Y-16141D02*
X34842Y-17322D01*
X16881Y-17818D02*
X15450Y-19250D01*
X19626Y-17818D02*
X16881Y-17818D01*
X20275Y-17169D02*
X19626Y-17818D01*
X20275Y-17077D02*
X20275Y-17169D01*
X21164Y-16188D02*
X20275Y-17077D01*
X26954Y-16188D02*
X21164Y-16188D01*
X27816Y-15326D02*
X26954Y-16188D01*
X27816Y-14148D02*
X27816Y-15326D01*
X28759Y-13204D02*
X27816Y-14148D01*
X32699Y-13204D02*
X28759Y-13204D01*
X34668Y-11235D02*
X32699Y-13204D01*
X36015Y-11235D02*
X34668Y-11235D01*
X36280Y-11501D02*
X36015Y-11235D01*
X36280Y-11933D02*
X36280Y-11501D01*
X35817Y-12397D02*
X36280Y-11933D01*
X35817Y-15935D02*
X35817Y-12397D01*
X36023Y-16141D02*
X35817Y-15935D01*
X31789Y-20078D02*
X31299Y-20078D01*
X32235Y-19633D02*
X31789Y-20078D01*
X35415Y-19633D02*
X32235Y-19633D01*
X36818Y-18230D02*
X35415Y-19633D01*
X15916Y-20716D02*
X15450Y-20250D01*
X19562Y-20716D02*
X15916Y-20716D01*
X19950Y-21104D02*
X19562Y-20716D01*
X19950Y-21386D02*
X19950Y-21104D01*
X20263Y-21700D02*
X19950Y-21386D01*
X20536Y-21700D02*
X20263Y-21700D01*
X20900Y-22063D02*
X20536Y-21700D01*
X20900Y-22362D02*
X20900Y-22063D01*
X22250Y-23712D02*
X20900Y-22362D01*
X29633Y-23712D02*
X22250Y-23712D01*
X31299Y-22047D02*
X29633Y-23712D01*
X33640Y-27538D02*
X34153Y-28051D01*
X27828Y-27538D02*
X33640Y-27538D01*
X27630Y-27340D02*
X27828Y-27538D01*
X24678Y-27340D02*
X27630Y-27340D01*
X23698Y-26361D02*
X24678Y-27340D01*
X21912Y-26361D02*
X23698Y-26361D01*
X20986Y-25434D02*
X21912Y-26361D01*
X20986Y-25046D02*
X20986Y-25434D01*
X21239Y-24793D02*
X20986Y-25046D01*
X21993Y-24793D02*
X21239Y-24793D01*
X22450Y-25250D02*
X21993Y-24793D01*
X34227Y-27337D02*
X34940Y-28051D01*
X27911Y-27337D02*
X34227Y-27337D01*
X27713Y-27140D02*
X27911Y-27337D01*
X24810Y-27140D02*
X27713Y-27140D01*
X23831Y-26161D02*
X24810Y-27140D01*
X22361Y-26161D02*
X23831Y-26161D01*
X21450Y-25250D02*
X22361Y-26161D01*
G54D29*
X25368Y-11700D02*
X25274Y-11606D01*
X28431Y-11700D02*
X25368Y-11700D01*
X22621Y-11110D02*
X22125Y-11606D01*
X24778Y-11110D02*
X22621Y-11110D01*
X25274Y-11606D02*
X24778Y-11110D01*
X17700Y-28650D02*
X17700Y-27650D01*
X39760Y-11800D02*
X43400Y-11800D01*
X39760Y-11800D02*
X39760Y-11700D01*
X13850Y-27650D02*
X11450Y-25250D01*
X17700Y-27650D02*
X13850Y-27650D01*
X33115Y-18655D02*
X33661Y-18110D01*
X31844Y-18655D02*
X33115Y-18655D01*
X31299Y-18110D02*
X31844Y-18655D01*
X35477Y-18656D02*
X36023Y-18110D01*
X34207Y-18656D02*
X35477Y-18656D01*
X33661Y-18110D02*
X34207Y-18656D01*
X21999Y-27099D02*
X22550Y-27650D01*
X18250Y-27099D02*
X21999Y-27099D01*
X17700Y-27650D02*
X18250Y-27099D01*
X28479Y-28213D02*
X28641Y-28051D01*
X23113Y-28213D02*
X28479Y-28213D01*
X22550Y-27650D02*
X23113Y-28213D01*
X36023Y-18095D02*
X36023Y-18110D01*
X39760Y-14358D02*
X36023Y-18095D01*
X39760Y-11800D02*
X39760Y-14358D01*
X33027Y-22594D02*
X32480Y-22047D01*
X34295Y-22594D02*
X33027Y-22594D01*
X34842Y-22047D02*
X34295Y-22594D01*
X47750Y-32500D02*
X47403Y-32846D01*
X50100Y-32500D02*
X47750Y-32500D01*
G54D31*
X47403Y-32846D02*
X47250Y-33000D01*
G54D29*
X35193Y-25468D02*
X34618Y-26043D01*
X49968Y-25468D02*
X35193Y-25468D01*
X51000Y-26500D02*
X49968Y-25468D01*
X18074Y-11606D02*
X22125Y-11606D01*
X15556Y-36656D02*
X15000Y-36100D01*
X20063Y-36656D02*
X15556Y-36656D01*
X20620Y-36100D02*
X20063Y-36656D01*
X22680Y-16577D02*
X23228Y-17125D01*
X21414Y-16577D02*
X22680Y-16577D01*
X20866Y-17125D02*
X21414Y-16577D01*
X16687Y-16580D02*
X16141Y-17125D01*
X17958Y-16580D02*
X16687Y-16580D01*
X18503Y-17125D02*
X17958Y-16580D01*
X12553Y-19146D02*
X12553Y-17442D01*
X12450Y-19250D02*
X12553Y-19146D01*
X12553Y-17442D02*
X11500Y-16389D01*
X15427Y-11103D02*
X14925Y-11606D01*
X17572Y-11103D02*
X15427Y-11103D01*
X18074Y-11606D02*
X17572Y-11103D01*
X14412Y-12118D02*
X14412Y-16560D01*
X14925Y-11606D02*
X14412Y-12118D01*
X15576Y-16560D02*
X14412Y-16560D01*
X16141Y-17125D02*
X15576Y-16560D01*
X13435Y-16560D02*
X12553Y-17442D01*
X14412Y-16560D02*
X13435Y-16560D01*
G54D30*
X46450Y-33000D02*
X46700Y-33000D01*
X16835Y-35288D02*
X16835Y-33686D01*
X17131Y-35583D02*
X16835Y-35288D01*
X21404Y-35583D02*
X17131Y-35583D01*
X22956Y-37136D02*
X21404Y-35583D01*
X44021Y-37136D02*
X22956Y-37136D01*
X44823Y-36334D02*
X44021Y-37136D01*
X44823Y-35287D02*
X44823Y-36334D01*
X45900Y-34209D02*
X44823Y-35287D01*
X46189Y-34209D02*
X45900Y-34209D01*
X46759Y-33639D02*
X46189Y-34209D01*
X46759Y-33058D02*
X46759Y-33639D01*
X46700Y-33000D02*
X46759Y-33058D01*
X47250Y-33250D02*
X47500Y-33250D01*
X47918Y-33500D02*
X47834Y-33584D01*
X50100Y-33500D02*
X47918Y-33500D01*
X47834Y-34900D02*
X47834Y-33584D01*
X47834Y-33584D02*
X47500Y-33250D01*
M02*
