M48
;DRILL file {Pcbnew (2013-jul-07)-stable} date Wed 10 Jun 2015 05:30:35 PM PDT
;FORMAT={-:-/ absolute / inch / decimal}
FMAT,2
INCH,TZ
T1C0.025
T2C0.028
T3C0.032
T4C0.035
T5C0.035
T6C0.039
T7C0.039
T8C0.040
T9C0.047
T10C0.098
T11C0.116
%
G90
G05
M72
T1
X1.6836Y-3.3687
X1.782Y-2.6153
X1.8093Y-1.3473
X1.9286Y-1.3813
X1.968Y-1.279
X2.2046Y-3.2491
X2.3692Y-1.5863
X2.5062Y-1.5538
X2.5686Y-1.4546
X2.5907Y-1.3093
X2.5955Y-3.0229
X2.64Y-2.7666
X3.5895Y-2.0387
X3.6818Y-1.823
X3.8165Y-1.7573
X4.1469Y-1.2679
T2
X2.8642Y-2.8051
X2.8642Y-3.6713
X2.9429Y-2.8051
X2.9429Y-3.6713
X3.0217Y-2.8051
X3.0217Y-3.6713
X3.1004Y-2.8051
X3.1004Y-3.6713
X3.1791Y-2.8051
X3.1791Y-3.6713
X3.2579Y-2.8051
X3.2579Y-3.6713
X3.3366Y-2.8051
X3.3366Y-3.6713
X3.4154Y-2.8051
X3.4154Y-3.6713
X3.4941Y-2.8051
X3.4941Y-3.6713
X3.5728Y-2.8051
X3.5728Y-3.6713
T3
X5.01Y-3.25
X5.01Y-3.35
T4
X1.14Y-2.182
X1.14Y-2.28
X1.14Y-2.378
X1.27Y-2.182
X1.27Y-2.28
X1.27Y-2.378
T5
X1.4925Y-1.1606
X1.4925Y-1.2394
X1.5713Y-1.1606
X1.5713Y-1.2394
X1.65Y-1.1606
X1.65Y-1.2394
X1.7287Y-1.1606
X1.7287Y-1.2394
X1.8075Y-1.1606
X1.8075Y-1.2394
X2.2125Y-1.1606
X2.2125Y-1.2394
X2.2913Y-1.1606
X2.2913Y-1.2394
X2.37Y-1.1606
X2.37Y-1.2394
X2.4487Y-1.1606
X2.4487Y-1.2394
X2.5275Y-1.1606
X2.5275Y-1.2394
X2.8431Y-1.17
X2.9416Y-1.17
X3.04Y-1.17
X3.1384Y-1.17
X3.2369Y-1.17
X3.4839Y-1.17
X3.5824Y-1.17
X3.6808Y-1.17
X3.7792Y-1.17
X3.8776Y-1.17
X3.9761Y-1.17
T6
X1.4961Y-1.5157
X1.4961Y-1.7126
X1.6142Y-1.5157
X1.6142Y-1.7126
X1.7323Y-1.5157
X1.7323Y-1.7126
X1.8504Y-1.5157
X1.8504Y-1.7126
X1.9685Y-1.5157
X1.9685Y-1.7126
X2.0866Y-1.5157
X2.0866Y-1.7126
X2.2047Y-1.5157
X2.2047Y-1.7126
X2.3228Y-1.5157
X2.3228Y-1.7126
X2.4409Y-1.5157
X2.4409Y-1.7126
X2.5591Y-1.5157
X2.5591Y-1.7126
X2.6772Y-1.5157
X2.6772Y-1.7126
X2.8937Y-1.6142
X2.8937Y-1.811
X2.8937Y-2.0079
X2.8937Y-2.2047
X3.0118Y-1.4075
X3.0118Y-1.6142
X3.0118Y-1.811
X3.0118Y-2.0079
X3.0118Y-2.2047
X3.1299Y-1.6142
X3.1299Y-1.811
X3.1299Y-2.0079
X3.1299Y-2.2047
X3.2087Y-1.4075
X3.248Y-1.6142
X3.248Y-1.811
X3.248Y-2.0079
X3.248Y-2.2047
X3.3169Y-1.4075
X3.3661Y-1.6142
X3.3661Y-1.811
X3.3661Y-2.0079
X3.3661Y-2.2047
X3.4843Y-1.6142
X3.4843Y-1.811
X3.4843Y-2.0079
X3.4843Y-2.2047
X3.5138Y-1.4075
X3.6024Y-1.6142
X3.6024Y-1.811
X4.0222Y-3.505
X4.4278Y-3.505
X4.5866Y-3.49
X4.5866Y-3.62
X4.7834Y-3.49
X4.7834Y-3.62
T7
X1.15Y-1.5011
X1.15Y-1.6389
T8
X1.145Y-1.925
X1.145Y-2.525
X1.245Y-1.925
X1.245Y-2.025
X1.245Y-2.525
X1.345Y-1.925
X1.345Y-2.525
X1.445Y-1.925
X1.445Y-2.025
X1.445Y-2.525
X1.5Y-3.51
X1.5Y-3.61
X1.545Y-1.925
X1.545Y-2.025
X1.545Y-2.525
X1.645Y-1.925
X1.645Y-2.025
X1.645Y-2.525
X1.73Y-3.51
X1.73Y-3.61
X1.745Y-1.925
X1.745Y-2.125
X1.745Y-2.225
X1.745Y-2.525
X1.77Y-2.765
X1.77Y-2.865
X1.77Y-2.965
X1.77Y-3.065
X1.77Y-3.165
X1.77Y-3.265
X1.83Y-3.51
X1.83Y-3.61
X1.845Y-1.925
X1.845Y-2.125
X1.845Y-2.225
X1.845Y-2.525
X1.945Y-1.925
X1.945Y-2.125
X1.945Y-2.225
X1.945Y-2.525
X2.045Y-1.925
X2.045Y-2.125
X2.045Y-2.225
X2.045Y-2.525
X2.055Y-2.765
X2.062Y-3.51
X2.062Y-3.61
X2.145Y-1.925
X2.145Y-2.125
X2.145Y-2.225
X2.145Y-2.525
X2.155Y-2.765
X2.245Y-1.925
X2.245Y-2.125
X2.245Y-2.225
X2.245Y-2.525
X2.255Y-2.765
X2.2719Y-3.513
X2.2719Y-3.613
X2.345Y-1.925
X2.345Y-2.125
X2.345Y-2.225
X2.345Y-2.525
X2.355Y-2.765
X2.445Y-1.925
X2.445Y-2.025
X2.445Y-2.125
X2.445Y-2.225
X2.445Y-2.325
X2.445Y-2.425
X2.445Y-2.525
X2.8618Y-2.6043
X2.9618Y-2.6043
X3.0618Y-2.6043
X3.1618Y-2.6043
X3.2618Y-2.6043
X3.3618Y-2.6043
X3.4618Y-2.6043
X3.5618Y-2.6043
X3.6618Y-2.6043
X4.145Y-3.135
X4.245Y-3.135
X4.34Y-1.18
X4.34Y-1.28
X4.345Y-3.135
X4.44Y-1.18
X4.44Y-1.28
X4.445Y-3.135
X4.54Y-1.18
X4.54Y-1.28
X4.545Y-3.135
X4.64Y-1.18
X4.64Y-1.28
X4.645Y-3.135
X4.74Y-1.18
X4.74Y-1.28
X4.745Y-3.135
X4.845Y-3.135
X5.1Y-1.95
X5.1Y-2.05
X5.1Y-2.15
X5.1Y-2.25
X5.1Y-2.35
X5.1Y-2.45
X5.1Y-2.55
X5.1Y-2.65
T9
X4.0222Y-3.3593
X4.0226Y-3.6152
X4.4278Y-3.3593
X4.4278Y-3.6152
T10
X2.8618Y-1.4483
X3.6618Y-1.4483
X3.941Y-1.729
X3.941Y-2.871
X5.103Y-1.729
X5.103Y-2.871
T11
X1.15Y-1.15
X1.15Y-3.6
X5.1Y-1.15
X5.1Y-3.6
T0
M30
