G04 (created by PCBNEW (2013-jul-07)-stable) date Thu 18 Jun 2015 05:10:42 PM PDT*
%MOIN*%
G04 Gerber Fmt 3.4, Leading zero omitted, Abs format*
%FSLAX34Y34*%
G01*
G70*
G90*
G04 APERTURE LIST*
%ADD10C,0.00590551*%
%ADD11C,0.06*%
%ADD12R,0.06X0.06*%
%ADD13C,0.0629921*%
%ADD14C,0.0708661*%
%ADD15C,0.065*%
%ADD16C,0.13*%
%ADD17C,0.07*%
%ADD18C,0.125*%
%ADD19R,0.063X0.063*%
%ADD20C,0.063*%
%ADD21R,0.07X0.07*%
%ADD22C,0.0590551*%
%ADD23C,0.0492126*%
%ADD24C,0.15*%
%ADD25C,0.055*%
%ADD26C,0.0511811*%
%ADD27C,0.035*%
%ADD28C,0.03*%
%ADD29C,0.01*%
G04 APERTURE END LIST*
G54D10*
G54D11*
X20550Y-27650D03*
X21550Y-27650D03*
X22550Y-27650D03*
X23550Y-27650D03*
G54D12*
X16650Y-35150D03*
G54D11*
X16650Y-36150D03*
X15650Y-35150D03*
X15650Y-36150D03*
G54D12*
X18670Y-35150D03*
G54D11*
X18670Y-36150D03*
G54D12*
X20618Y-35179D03*
G54D11*
X20618Y-36179D03*
X17700Y-27650D03*
X17700Y-28650D03*
X17700Y-29650D03*
X17700Y-30650D03*
X17700Y-31650D03*
X17700Y-32650D03*
G54D13*
X44722Y-35750D03*
X48777Y-35750D03*
G54D14*
X44722Y-34293D03*
X44726Y-36852D03*
X48777Y-34293D03*
X48777Y-36852D03*
G54D15*
X12700Y-23780D03*
X12700Y-22800D03*
X12700Y-21820D03*
X11400Y-21820D03*
X11400Y-22800D03*
X11400Y-23780D03*
X28618Y-26043D03*
X29618Y-26043D03*
X30618Y-26043D03*
X31618Y-26043D03*
X32618Y-26043D03*
X33618Y-26043D03*
X34618Y-26043D03*
X35618Y-26043D03*
G54D16*
X28618Y-14483D03*
X36618Y-14483D03*
G54D15*
X36618Y-26043D03*
G54D17*
X50950Y-18900D03*
X50950Y-19900D03*
X50950Y-20900D03*
X50950Y-21900D03*
X50950Y-22900D03*
X50950Y-23900D03*
X50950Y-24900D03*
X50950Y-25900D03*
G54D18*
X50980Y-16690D03*
X50980Y-28110D03*
X39360Y-16690D03*
X39360Y-28110D03*
G54D19*
X11500Y-15011D03*
G54D20*
X11500Y-16389D03*
G54D12*
X13800Y-35150D03*
G54D11*
X13800Y-36150D03*
G54D21*
X43400Y-12800D03*
G54D17*
X43400Y-11800D03*
X44400Y-12800D03*
X44400Y-11800D03*
X45400Y-12800D03*
X45400Y-11800D03*
X46400Y-12800D03*
X46400Y-11800D03*
X47400Y-12800D03*
X47400Y-11800D03*
G54D11*
X11450Y-25250D03*
X12450Y-25250D03*
X13450Y-25250D03*
X14450Y-25250D03*
X15450Y-25250D03*
X16450Y-25250D03*
X17450Y-25250D03*
X18450Y-25250D03*
X19450Y-25250D03*
X20450Y-25250D03*
X21450Y-25250D03*
X22450Y-25250D03*
X23450Y-25250D03*
X24450Y-25250D03*
X24450Y-24250D03*
X24450Y-23250D03*
X24450Y-22250D03*
X24450Y-21250D03*
X24450Y-20250D03*
X24450Y-19250D03*
X23450Y-19250D03*
X22450Y-19250D03*
X21450Y-19250D03*
X20450Y-19250D03*
X19450Y-19250D03*
X18450Y-19250D03*
X17450Y-19250D03*
X16450Y-19250D03*
X15450Y-19250D03*
X14450Y-19250D03*
X13450Y-19250D03*
X12450Y-19250D03*
X11450Y-19250D03*
X17450Y-22250D03*
X18450Y-22250D03*
X19450Y-22250D03*
X20450Y-22250D03*
X21450Y-22250D03*
X22450Y-22250D03*
X23450Y-22250D03*
X23450Y-21250D03*
X22450Y-21250D03*
X21450Y-21250D03*
X20450Y-21250D03*
X19450Y-21250D03*
X18450Y-21250D03*
X17450Y-21250D03*
X16450Y-20250D03*
X15450Y-20250D03*
X14450Y-20250D03*
X12450Y-20250D03*
G54D22*
X16141Y-15157D03*
X16141Y-17125D03*
X17322Y-15157D03*
X17322Y-17125D03*
X18503Y-15157D03*
X18503Y-17125D03*
X19685Y-15157D03*
X19685Y-17125D03*
X20866Y-15157D03*
X20866Y-17125D03*
X22047Y-15157D03*
X22047Y-17125D03*
X23228Y-15157D03*
X23228Y-17125D03*
X24409Y-15157D03*
X24409Y-17125D03*
X25590Y-15157D03*
X25590Y-17125D03*
X26771Y-15157D03*
X26771Y-17125D03*
X28937Y-16141D03*
X28937Y-18110D03*
X14960Y-15157D03*
X14960Y-17125D03*
X31299Y-16141D03*
X31299Y-18110D03*
X32480Y-16141D03*
X32480Y-18110D03*
X33661Y-16141D03*
X33661Y-18110D03*
X34842Y-16141D03*
X34842Y-18110D03*
X36023Y-16141D03*
X36023Y-18110D03*
X28937Y-20078D03*
X28937Y-22047D03*
X30118Y-20078D03*
X30118Y-22047D03*
X31299Y-20078D03*
X31299Y-22047D03*
X32480Y-20078D03*
X32480Y-22047D03*
X33661Y-20078D03*
X33661Y-22047D03*
X34842Y-20078D03*
X34842Y-22047D03*
X30118Y-16141D03*
X30118Y-18110D03*
G54D23*
X22125Y-12393D03*
X22125Y-11606D03*
X22912Y-12393D03*
X22912Y-11606D03*
X23700Y-12393D03*
X23700Y-11606D03*
X24487Y-12393D03*
X24487Y-11606D03*
X25274Y-12393D03*
X25274Y-11606D03*
X14925Y-12393D03*
X14925Y-11606D03*
X15712Y-12393D03*
X15712Y-11606D03*
X16500Y-12393D03*
X16500Y-11606D03*
X17287Y-12393D03*
X17287Y-11606D03*
X18074Y-12393D03*
X18074Y-11606D03*
G54D24*
X11500Y-11500D03*
X11500Y-36000D03*
X51000Y-11500D03*
X51000Y-36000D03*
G54D22*
X33169Y-14074D03*
X35137Y-14074D03*
X32086Y-14074D03*
X30118Y-14074D03*
X47984Y-32000D03*
X46015Y-32000D03*
X46015Y-30500D03*
X47984Y-30500D03*
X28431Y-11700D03*
X29415Y-11700D03*
X30400Y-11700D03*
X31384Y-11700D03*
X32368Y-11700D03*
X39760Y-11700D03*
X34839Y-11700D03*
X35823Y-11700D03*
X36807Y-11700D03*
X37792Y-11700D03*
X38776Y-11700D03*
G54D25*
X40550Y-36150D03*
X41550Y-36150D03*
G54D22*
X43065Y-16900D03*
X45034Y-16900D03*
X43065Y-18500D03*
X45034Y-18500D03*
G54D12*
X22850Y-36150D03*
G54D11*
X22850Y-35150D03*
X23850Y-36150D03*
X23850Y-35150D03*
G54D26*
X35743Y-27869D03*
X34955Y-27869D03*
X34168Y-27869D03*
X33381Y-27869D03*
X32593Y-27869D03*
X31806Y-27869D03*
X31018Y-27869D03*
X30231Y-27869D03*
X29444Y-27869D03*
X28656Y-27869D03*
X28656Y-36530D03*
X29444Y-36530D03*
X30231Y-36530D03*
X31018Y-36530D03*
X31806Y-36530D03*
X32593Y-36530D03*
X33381Y-36530D03*
X34168Y-36530D03*
X34955Y-36530D03*
X35743Y-36530D03*
G54D11*
X48750Y-27450D03*
X47750Y-27450D03*
X41750Y-27450D03*
X42750Y-27450D03*
X43750Y-27450D03*
X44750Y-27450D03*
X45750Y-27450D03*
X46750Y-27450D03*
G54D27*
X15921Y-28360D03*
X26488Y-28589D03*
X17643Y-33836D03*
X20361Y-13566D03*
X25099Y-13435D03*
X27584Y-25386D03*
X20950Y-25714D03*
X30680Y-14551D03*
X31205Y-34455D03*
X31358Y-25250D03*
X25807Y-28798D03*
X23776Y-18108D03*
X27481Y-19164D03*
X25491Y-22288D03*
X43001Y-14513D03*
X24998Y-21809D03*
X42759Y-21230D03*
X29462Y-19629D03*
X27245Y-29129D03*
X18977Y-14210D03*
X27753Y-15745D03*
X24481Y-27400D03*
X24754Y-28307D03*
X25212Y-20891D03*
X42485Y-32000D03*
X40141Y-32899D03*
G54D28*
X16606Y-37106D02*
X15650Y-36150D01*
X23689Y-37106D02*
X16606Y-37106D01*
X24402Y-36394D02*
X23689Y-37106D01*
X24402Y-28927D02*
X24402Y-36394D01*
X23550Y-28075D02*
X24402Y-28927D01*
X23550Y-27650D02*
X23550Y-28075D01*
X44722Y-30422D02*
X44722Y-34293D01*
X41750Y-27450D02*
X44722Y-30422D01*
X20618Y-35179D02*
X21169Y-35179D01*
X23293Y-36706D02*
X23850Y-36150D01*
X22424Y-36706D02*
X23293Y-36706D01*
X21169Y-35450D02*
X22424Y-36706D01*
X21169Y-35179D02*
X21169Y-35450D01*
X20618Y-35179D02*
X20618Y-34629D01*
X20618Y-28581D02*
X21550Y-27650D01*
X20618Y-34629D02*
X20618Y-28581D01*
X17211Y-29650D02*
X17700Y-29650D01*
X15921Y-28360D02*
X17211Y-29650D01*
X34839Y-12404D02*
X34839Y-11700D01*
X33169Y-14074D02*
X34839Y-12404D01*
X43850Y-24900D02*
X40306Y-21355D01*
X50950Y-24900D02*
X43850Y-24900D01*
X40306Y-11461D02*
X40306Y-21355D01*
X39985Y-11141D02*
X40306Y-11461D01*
X35397Y-11141D02*
X39985Y-11141D01*
X34839Y-11700D02*
X35397Y-11141D01*
X40306Y-21355D02*
X35618Y-26043D01*
X32086Y-13386D02*
X30400Y-11700D01*
X32086Y-14074D02*
X32086Y-13386D01*
X22329Y-10691D02*
X21617Y-11403D01*
X29391Y-10691D02*
X22329Y-10691D01*
X30400Y-11700D02*
X29391Y-10691D01*
X21617Y-11885D02*
X22125Y-12393D01*
X21617Y-11403D02*
X21617Y-11885D01*
X20710Y-10497D02*
X21617Y-11403D01*
X15328Y-10497D02*
X20710Y-10497D01*
X14411Y-11414D02*
X15328Y-10497D01*
X14411Y-11879D02*
X14411Y-11414D01*
X14925Y-12393D02*
X14411Y-11879D01*
X11450Y-20275D02*
X11450Y-19250D01*
X12050Y-20875D02*
X11450Y-20275D01*
X12050Y-23130D02*
X12050Y-20875D01*
X12700Y-23780D02*
X12050Y-23130D01*
X12706Y-14612D02*
X14925Y-12393D01*
X12706Y-17993D02*
X12706Y-14612D01*
X11450Y-19250D02*
X12706Y-17993D01*
G54D29*
X15563Y-33836D02*
X14250Y-35150D01*
X17643Y-33836D02*
X15563Y-33836D01*
X13800Y-35150D02*
X14250Y-35150D01*
X26488Y-21684D02*
X26488Y-28589D01*
X25053Y-20250D02*
X26488Y-21684D01*
X24450Y-20250D02*
X25053Y-20250D01*
X17322Y-12429D02*
X17322Y-15157D01*
X17287Y-12393D02*
X17322Y-12429D01*
X18503Y-15944D02*
X17322Y-17125D01*
X18503Y-15157D02*
X18503Y-15944D01*
X21952Y-15157D02*
X22047Y-15157D01*
X20361Y-13566D02*
X21952Y-15157D01*
X20450Y-18723D02*
X20450Y-19250D01*
X22047Y-17125D02*
X20450Y-18723D01*
X23228Y-15944D02*
X22047Y-17125D01*
X23228Y-15157D02*
X23228Y-15944D01*
X27285Y-18427D02*
X28937Y-20078D01*
X26251Y-18427D02*
X27285Y-18427D01*
X25099Y-17276D02*
X26251Y-18427D01*
X25099Y-13435D02*
X25099Y-17276D01*
X28937Y-21259D02*
X28937Y-22047D01*
X30118Y-20078D02*
X28937Y-21259D01*
X27584Y-23399D02*
X27584Y-25386D01*
X28937Y-22047D02*
X27584Y-23399D01*
X14950Y-19750D02*
X14450Y-19250D01*
X14950Y-20388D02*
X14950Y-19750D01*
X17311Y-22750D02*
X14950Y-20388D01*
X18614Y-22750D02*
X17311Y-22750D01*
X20950Y-25085D02*
X18614Y-22750D01*
X20950Y-25714D02*
X20950Y-25085D01*
X31954Y-18371D02*
X33661Y-20078D01*
X31954Y-15824D02*
X31954Y-18371D01*
X30680Y-14551D02*
X31954Y-15824D01*
X33661Y-21259D02*
X33661Y-22047D01*
X34842Y-20078D02*
X33661Y-21259D01*
X45241Y-35231D02*
X44722Y-35750D01*
X45241Y-28941D02*
X45241Y-35231D01*
X43750Y-27450D02*
X45241Y-28941D01*
X46468Y-35109D02*
X44726Y-36852D01*
X46468Y-28168D02*
X46468Y-35109D01*
X45750Y-27450D02*
X46468Y-28168D01*
X48777Y-27477D02*
X48777Y-34293D01*
X48750Y-27450D02*
X48777Y-27477D01*
X47984Y-30500D02*
X47984Y-32000D01*
X31002Y-34455D02*
X31205Y-34455D01*
X25481Y-28935D02*
X31002Y-34455D01*
X25481Y-26998D02*
X25481Y-28935D01*
X23950Y-25466D02*
X25481Y-26998D01*
X23950Y-24750D02*
X23950Y-25466D01*
X21450Y-22250D02*
X23950Y-24750D01*
X47537Y-34509D02*
X48777Y-35750D01*
X47537Y-27450D02*
X47537Y-34509D01*
X46750Y-27450D02*
X47537Y-27450D01*
X47537Y-27450D02*
X47750Y-27450D01*
X17245Y-32195D02*
X17700Y-32650D01*
X17245Y-30455D02*
X17245Y-32195D01*
X17550Y-30150D02*
X17245Y-30455D01*
X17840Y-30150D02*
X17550Y-30150D01*
X18450Y-29540D02*
X17840Y-30150D01*
X18450Y-25250D02*
X18450Y-29540D01*
X19047Y-26652D02*
X20450Y-25250D01*
X19047Y-30302D02*
X19047Y-26652D01*
X17700Y-31650D02*
X19047Y-30302D01*
X18719Y-29630D02*
X17700Y-30650D01*
X18719Y-25980D02*
X18719Y-29630D01*
X19450Y-25250D02*
X18719Y-25980D01*
X36807Y-13162D02*
X36807Y-11700D01*
X35433Y-14536D02*
X36807Y-13162D01*
X35433Y-16190D02*
X35433Y-14536D01*
X34814Y-16808D02*
X35433Y-16190D01*
X34311Y-16808D02*
X34814Y-16808D01*
X33205Y-17915D02*
X34311Y-16808D01*
X33205Y-18345D02*
X33205Y-17915D01*
X34122Y-19261D02*
X33205Y-18345D01*
X34122Y-20481D02*
X34122Y-19261D01*
X33125Y-21478D02*
X34122Y-20481D01*
X33125Y-24773D02*
X33125Y-21478D01*
X32576Y-25323D02*
X33125Y-24773D01*
X33129Y-25876D02*
X32576Y-25323D01*
X33129Y-27617D02*
X33129Y-25876D01*
X33381Y-27869D02*
X33129Y-27617D01*
X31431Y-25323D02*
X31358Y-25250D01*
X32576Y-25323D02*
X31431Y-25323D01*
X49952Y-17902D02*
X50950Y-18900D01*
X49952Y-13637D02*
X49952Y-17902D01*
X47613Y-11299D02*
X49952Y-13637D01*
X46900Y-11299D02*
X47613Y-11299D01*
X46400Y-11800D02*
X46900Y-11299D01*
X25281Y-33155D02*
X28656Y-36530D01*
X25281Y-27081D02*
X25281Y-33155D01*
X23450Y-25250D02*
X25281Y-27081D01*
X25832Y-28772D02*
X25807Y-28798D01*
X25832Y-22165D02*
X25832Y-28772D01*
X24916Y-21250D02*
X25832Y-22165D01*
X24450Y-21250D02*
X24916Y-21250D01*
X22950Y-19750D02*
X21450Y-21250D01*
X22950Y-18935D02*
X22950Y-19750D01*
X23776Y-18108D02*
X22950Y-18935D01*
X30118Y-12402D02*
X30118Y-14074D01*
X29415Y-11700D02*
X30118Y-12402D01*
X47400Y-16350D02*
X50950Y-19900D01*
X47400Y-12800D02*
X47400Y-16350D01*
X26919Y-21719D02*
X24450Y-19250D01*
X26919Y-29281D02*
X26919Y-21719D01*
X34168Y-36530D02*
X26919Y-29281D01*
X45400Y-16534D02*
X45400Y-12800D01*
X45034Y-16900D02*
X45400Y-16534D01*
X23999Y-20700D02*
X23450Y-21250D01*
X23999Y-19063D02*
X23999Y-20700D01*
X24269Y-18794D02*
X23999Y-19063D01*
X27110Y-18794D02*
X24269Y-18794D01*
X27481Y-19164D02*
X27110Y-18794D01*
X44579Y-18955D02*
X45034Y-18500D01*
X42878Y-18955D02*
X44579Y-18955D01*
X42602Y-18679D02*
X42878Y-18955D01*
X42602Y-11589D02*
X42602Y-18679D01*
X43099Y-11093D02*
X42602Y-11589D01*
X44693Y-11093D02*
X43099Y-11093D01*
X45400Y-11800D02*
X44693Y-11093D01*
X16950Y-20750D02*
X17450Y-21250D01*
X16950Y-17474D02*
X16950Y-20750D01*
X16873Y-17398D02*
X16950Y-17474D01*
X16873Y-16864D02*
X16873Y-17398D01*
X17858Y-15879D02*
X16873Y-16864D01*
X17858Y-12610D02*
X17858Y-15879D01*
X18074Y-12393D02*
X17858Y-12610D01*
X17950Y-21750D02*
X17450Y-22250D01*
X17950Y-21093D02*
X17950Y-21750D01*
X18743Y-20299D02*
X17950Y-21093D01*
X21045Y-20299D02*
X18743Y-20299D01*
X21950Y-19395D02*
X21045Y-20299D01*
X21950Y-18337D02*
X21950Y-19395D01*
X22637Y-17650D02*
X21950Y-18337D01*
X22637Y-17077D02*
X22637Y-17650D01*
X23954Y-15760D02*
X22637Y-17077D01*
X24467Y-15760D02*
X23954Y-15760D01*
X24860Y-15367D02*
X24467Y-15760D01*
X24860Y-13655D02*
X24860Y-15367D01*
X24774Y-13569D02*
X24860Y-13655D01*
X24774Y-12893D02*
X24774Y-13569D01*
X25274Y-12393D02*
X24774Y-12893D01*
X43893Y-11293D02*
X44400Y-11800D01*
X43182Y-11293D02*
X43893Y-11293D01*
X42877Y-11597D02*
X43182Y-11293D01*
X42877Y-14389D02*
X42877Y-11597D01*
X43001Y-14513D02*
X42877Y-14389D01*
X25080Y-22700D02*
X25491Y-22288D01*
X22900Y-22700D02*
X25080Y-22700D01*
X22450Y-22250D02*
X22900Y-22700D01*
X24988Y-21799D02*
X24998Y-21809D01*
X23900Y-21799D02*
X24988Y-21799D01*
X23450Y-22250D02*
X23900Y-21799D01*
X42954Y-21230D02*
X42759Y-21230D01*
X45489Y-18694D02*
X42954Y-21230D01*
X45489Y-18307D02*
X45489Y-18694D01*
X44400Y-17217D02*
X45489Y-18307D01*
X44400Y-12800D02*
X44400Y-17217D01*
X43400Y-12800D02*
X43400Y-13300D01*
X43400Y-16565D02*
X43400Y-13300D01*
X43065Y-16900D02*
X43400Y-16565D01*
X43065Y-18500D02*
X43065Y-16900D01*
X27245Y-22439D02*
X27245Y-29129D01*
X29462Y-20222D02*
X27245Y-22439D01*
X29462Y-19629D02*
X29462Y-20222D01*
G54D28*
X13293Y-21093D02*
X12450Y-20250D01*
X13293Y-24016D02*
X13293Y-21093D01*
X12769Y-24540D02*
X13293Y-24016D01*
X11368Y-24540D02*
X12769Y-24540D01*
X10899Y-25009D02*
X11368Y-24540D01*
X10899Y-26633D02*
X10899Y-25009D01*
X17528Y-33261D02*
X10899Y-26633D01*
X17738Y-33261D02*
X17528Y-33261D01*
X20618Y-36141D02*
X17738Y-33261D01*
X20618Y-36179D02*
X20618Y-36141D01*
G54D29*
X18977Y-11944D02*
X18977Y-14210D01*
X18236Y-11203D02*
X18977Y-11944D01*
X17689Y-11203D02*
X18236Y-11203D01*
X17287Y-11606D02*
X17689Y-11203D01*
X19685Y-12363D02*
X19685Y-15157D01*
X18325Y-11003D02*
X19685Y-12363D01*
X17103Y-11003D02*
X18325Y-11003D01*
X16500Y-11606D02*
X17103Y-11003D01*
X20995Y-19704D02*
X21450Y-19250D01*
X20257Y-19704D02*
X20995Y-19704D01*
X19950Y-19396D02*
X20257Y-19704D01*
X19950Y-17390D02*
X19950Y-19396D01*
X19685Y-17125D02*
X19950Y-17390D01*
X22956Y-13704D02*
X24409Y-15157D01*
X21452Y-13704D02*
X22956Y-13704D01*
X18551Y-10802D02*
X21452Y-13704D01*
X16515Y-10802D02*
X18551Y-10802D01*
X15712Y-11606D02*
X16515Y-10802D01*
X24890Y-11203D02*
X24487Y-11606D01*
X25444Y-11203D02*
X24890Y-11203D01*
X27812Y-13571D02*
X25444Y-11203D01*
X27812Y-14813D02*
X27812Y-13571D01*
X28487Y-15488D02*
X27812Y-14813D01*
X29464Y-15488D02*
X28487Y-15488D01*
X30118Y-16141D02*
X29464Y-15488D01*
X29724Y-17716D02*
X31299Y-16141D01*
X30118Y-18110D02*
X29724Y-17716D01*
X29724Y-17716D02*
X27753Y-15745D01*
X36023Y-16929D02*
X36023Y-16141D01*
X34842Y-18110D02*
X36023Y-16929D01*
X23515Y-11003D02*
X22912Y-11606D01*
X26410Y-11003D02*
X23515Y-11003D01*
X30955Y-15548D02*
X26410Y-11003D01*
X31347Y-15548D02*
X30955Y-15548D01*
X31754Y-15955D02*
X31347Y-15548D01*
X31754Y-19623D02*
X31754Y-15955D01*
X31299Y-20078D02*
X31754Y-19623D01*
X31748Y-22496D02*
X31299Y-22047D01*
X32683Y-22496D02*
X31748Y-22496D01*
X32925Y-22254D02*
X32683Y-22496D01*
X32925Y-20524D02*
X32925Y-22254D01*
X32480Y-20078D02*
X32925Y-20524D01*
X22450Y-25368D02*
X24481Y-27400D01*
X22450Y-25250D02*
X22450Y-25368D01*
X24754Y-28190D02*
X24754Y-28307D01*
X21813Y-25250D02*
X24754Y-28190D01*
X21450Y-25250D02*
X21813Y-25250D01*
X25109Y-20788D02*
X25212Y-20891D01*
X24248Y-20788D02*
X25109Y-20788D01*
X23950Y-21086D02*
X24248Y-20788D01*
X23950Y-21422D02*
X23950Y-21086D01*
X23663Y-21709D02*
X23950Y-21422D01*
X19909Y-21709D02*
X23663Y-21709D01*
X19450Y-21250D02*
X19909Y-21709D01*
X33381Y-36168D02*
X33381Y-36530D01*
X26132Y-28919D02*
X33381Y-36168D01*
X26132Y-21810D02*
X26132Y-28919D01*
X25212Y-20891D02*
X26132Y-21810D01*
G54D28*
X41550Y-36150D02*
X41550Y-32935D01*
X25590Y-17125D02*
X26014Y-17125D01*
X30738Y-18671D02*
X30699Y-18671D01*
X31299Y-18110D02*
X30738Y-18671D01*
X29497Y-18671D02*
X28937Y-18110D01*
X30699Y-18671D02*
X29497Y-18671D01*
X31898Y-21465D02*
X30699Y-21465D01*
X32480Y-22047D02*
X31898Y-21465D01*
X30118Y-22047D02*
X30699Y-21465D01*
X30699Y-21465D02*
X30699Y-18671D01*
X34657Y-26043D02*
X34618Y-26043D01*
X41550Y-32935D02*
X34657Y-26043D01*
X17700Y-27650D02*
X17700Y-28650D01*
X41550Y-32935D02*
X42485Y-32000D01*
X26980Y-18110D02*
X28937Y-18110D01*
X26014Y-17144D02*
X26980Y-18110D01*
X26014Y-17125D02*
X26014Y-17144D01*
X34842Y-25818D02*
X34842Y-22047D01*
X34618Y-26043D02*
X34842Y-25818D01*
X35396Y-21493D02*
X35396Y-18673D01*
X34842Y-22047D02*
X35396Y-21493D01*
X34225Y-18673D02*
X33661Y-18110D01*
X35396Y-18673D02*
X34225Y-18673D01*
X35459Y-18673D02*
X36023Y-18110D01*
X35396Y-18673D02*
X35459Y-18673D01*
X39760Y-14373D02*
X39760Y-11700D01*
X36023Y-18110D02*
X39760Y-14373D01*
X13157Y-18542D02*
X12450Y-19250D01*
X14725Y-18542D02*
X13157Y-18542D01*
X16141Y-17125D02*
X14725Y-18542D01*
X26136Y-17004D02*
X26014Y-17125D01*
X26136Y-12467D02*
X26136Y-17004D01*
X25274Y-11606D02*
X26136Y-12467D01*
X20318Y-16578D02*
X19051Y-16578D01*
X20866Y-17125D02*
X20318Y-16578D01*
X19051Y-16578D02*
X18503Y-17125D01*
X19051Y-14885D02*
X19051Y-16578D01*
X18551Y-14386D02*
X19051Y-14885D01*
X18551Y-13841D02*
X18551Y-14386D01*
X18588Y-13805D02*
X18551Y-13841D01*
X18588Y-12119D02*
X18588Y-13805D01*
X18074Y-11606D02*
X18588Y-12119D01*
X28041Y-24124D02*
X30118Y-22047D01*
X28041Y-27253D02*
X28041Y-24124D01*
X28656Y-27869D02*
X28041Y-27253D01*
G54D29*
X36093Y-36946D02*
X40141Y-32899D01*
X28492Y-36946D02*
X36093Y-36946D01*
X25081Y-33536D02*
X28492Y-36946D01*
X25081Y-27540D02*
X25081Y-33536D01*
X22950Y-25408D02*
X25081Y-27540D01*
X22950Y-24750D02*
X22950Y-25408D01*
X20450Y-22250D02*
X22950Y-24750D01*
X45441Y-31074D02*
X46015Y-30500D01*
X45441Y-35720D02*
X45441Y-31074D01*
X44890Y-36271D02*
X45441Y-35720D01*
X43273Y-36271D02*
X44890Y-36271D01*
X42956Y-36588D02*
X43273Y-36271D01*
X40988Y-36588D02*
X42956Y-36588D01*
X40550Y-36150D02*
X40988Y-36588D01*
M02*
