G04 (created by PCBNEW (2013-jul-07)-stable) date Wed 10 Jun 2015 05:30:31 PM PDT*
%MOIN*%
G04 Gerber Fmt 3.4, Leading zero omitted, Abs format*
%FSLAX34Y34*%
G01*
G70*
G90*
G04 APERTURE LIST*
%ADD10C,0.00590551*%
%ADD11C,0.0511811*%
%ADD12C,0.06*%
%ADD13R,0.06X0.06*%
%ADD14C,0.0629921*%
%ADD15C,0.0708661*%
%ADD16C,0.065*%
%ADD17C,0.13*%
%ADD18C,0.07*%
%ADD19C,0.125*%
%ADD20R,0.063X0.063*%
%ADD21C,0.063*%
%ADD22R,0.07X0.07*%
%ADD23C,0.0590551*%
%ADD24C,0.0492126*%
%ADD25C,0.15*%
%ADD26C,0.055*%
%ADD27C,0.035*%
%ADD28C,0.03*%
%ADD29C,0.01*%
G04 APERTURE END LIST*
G54D10*
G54D11*
X35728Y-28051D03*
X34940Y-28051D03*
X34153Y-28051D03*
X33366Y-28051D03*
X32578Y-28051D03*
X31791Y-28051D03*
X31003Y-28051D03*
X30216Y-28051D03*
X29429Y-28051D03*
X28641Y-28051D03*
X28641Y-36712D03*
X29429Y-36712D03*
X30216Y-36712D03*
X31003Y-36712D03*
X31791Y-36712D03*
X32578Y-36712D03*
X33366Y-36712D03*
X34153Y-36712D03*
X34940Y-36712D03*
X35728Y-36712D03*
G54D12*
X20550Y-27650D03*
X21550Y-27650D03*
X22550Y-27650D03*
X23550Y-27650D03*
G54D13*
X18300Y-35100D03*
G54D12*
X18300Y-36100D03*
X17300Y-35100D03*
X17300Y-36100D03*
G54D13*
X20620Y-35100D03*
G54D12*
X20620Y-36100D03*
G54D13*
X22718Y-35129D03*
G54D12*
X22718Y-36129D03*
X17700Y-27650D03*
X17700Y-28650D03*
X17700Y-29650D03*
X17700Y-30650D03*
X17700Y-31650D03*
X17700Y-32650D03*
G54D14*
X40222Y-35050D03*
X44277Y-35050D03*
G54D15*
X40222Y-33593D03*
X40226Y-36152D03*
X44277Y-33593D03*
X44277Y-36152D03*
G54D16*
X12700Y-23780D03*
X12700Y-22800D03*
X12700Y-21820D03*
X11400Y-21820D03*
X11400Y-22800D03*
X11400Y-23780D03*
X28618Y-26043D03*
X29618Y-26043D03*
X30618Y-26043D03*
X31618Y-26043D03*
X32618Y-26043D03*
X33618Y-26043D03*
X34618Y-26043D03*
X35618Y-26043D03*
G54D17*
X28618Y-14483D03*
X36618Y-14483D03*
G54D16*
X36618Y-26043D03*
G54D18*
X51000Y-19500D03*
X51000Y-20500D03*
X51000Y-21500D03*
X51000Y-22500D03*
X51000Y-23500D03*
X51000Y-24500D03*
X51000Y-25500D03*
X51000Y-26500D03*
G54D19*
X51030Y-17290D03*
X51030Y-28710D03*
X39410Y-17290D03*
X39410Y-28710D03*
G54D20*
X11500Y-15011D03*
G54D21*
X11500Y-16389D03*
G54D13*
X15000Y-35100D03*
G54D12*
X15000Y-36100D03*
G54D22*
X43400Y-12800D03*
G54D18*
X43400Y-11800D03*
X44400Y-12800D03*
X44400Y-11800D03*
X45400Y-12800D03*
X45400Y-11800D03*
X46400Y-12800D03*
X46400Y-11800D03*
X47400Y-12800D03*
X47400Y-11800D03*
G54D12*
X11450Y-25250D03*
X12450Y-25250D03*
X13450Y-25250D03*
X14450Y-25250D03*
X15450Y-25250D03*
X16450Y-25250D03*
X17450Y-25250D03*
X18450Y-25250D03*
X19450Y-25250D03*
X20450Y-25250D03*
X21450Y-25250D03*
X22450Y-25250D03*
X23450Y-25250D03*
X24450Y-25250D03*
X24450Y-24250D03*
X24450Y-23250D03*
X24450Y-22250D03*
X24450Y-21250D03*
X24450Y-20250D03*
X24450Y-19250D03*
X23450Y-19250D03*
X22450Y-19250D03*
X21450Y-19250D03*
X20450Y-19250D03*
X19450Y-19250D03*
X18450Y-19250D03*
X17450Y-19250D03*
X16450Y-19250D03*
X15450Y-19250D03*
X14450Y-19250D03*
X13450Y-19250D03*
X12450Y-19250D03*
X11450Y-19250D03*
X17450Y-22250D03*
X18450Y-22250D03*
X19450Y-22250D03*
X20450Y-22250D03*
X21450Y-22250D03*
X22450Y-22250D03*
X23450Y-22250D03*
X23450Y-21250D03*
X22450Y-21250D03*
X21450Y-21250D03*
X20450Y-21250D03*
X19450Y-21250D03*
X18450Y-21250D03*
X17450Y-21250D03*
X16450Y-20250D03*
X15450Y-20250D03*
X14450Y-20250D03*
X12450Y-20250D03*
G54D23*
X16141Y-15157D03*
X16141Y-17125D03*
X17322Y-15157D03*
X17322Y-17125D03*
X18503Y-15157D03*
X18503Y-17125D03*
X19685Y-15157D03*
X19685Y-17125D03*
X20866Y-15157D03*
X20866Y-17125D03*
X22047Y-15157D03*
X22047Y-17125D03*
X23228Y-15157D03*
X23228Y-17125D03*
X24409Y-15157D03*
X24409Y-17125D03*
X25590Y-15157D03*
X25590Y-17125D03*
X26771Y-15157D03*
X26771Y-17125D03*
X28937Y-16141D03*
X28937Y-18110D03*
X14960Y-15157D03*
X14960Y-17125D03*
X31299Y-16141D03*
X31299Y-18110D03*
X32480Y-16141D03*
X32480Y-18110D03*
X33661Y-16141D03*
X33661Y-18110D03*
X34842Y-16141D03*
X34842Y-18110D03*
X36023Y-16141D03*
X36023Y-18110D03*
X28937Y-20078D03*
X28937Y-22047D03*
X30118Y-20078D03*
X30118Y-22047D03*
X31299Y-20078D03*
X31299Y-22047D03*
X32480Y-20078D03*
X32480Y-22047D03*
X33661Y-20078D03*
X33661Y-22047D03*
X34842Y-20078D03*
X34842Y-22047D03*
X30118Y-16141D03*
X30118Y-18110D03*
G54D24*
X22125Y-12393D03*
X22125Y-11606D03*
X22912Y-12393D03*
X22912Y-11606D03*
X23700Y-12393D03*
X23700Y-11606D03*
X24487Y-12393D03*
X24487Y-11606D03*
X25274Y-12393D03*
X25274Y-11606D03*
X14925Y-12393D03*
X14925Y-11606D03*
X15712Y-12393D03*
X15712Y-11606D03*
X16500Y-12393D03*
X16500Y-11606D03*
X17287Y-12393D03*
X17287Y-11606D03*
X18074Y-12393D03*
X18074Y-11606D03*
G54D25*
X11500Y-11500D03*
X11500Y-36000D03*
X51000Y-11500D03*
X51000Y-36000D03*
G54D23*
X33169Y-14074D03*
X35137Y-14074D03*
X32086Y-14074D03*
X30118Y-14074D03*
X45865Y-36200D03*
X47834Y-36200D03*
X47834Y-34900D03*
X45865Y-34900D03*
G54D12*
X48450Y-31350D03*
X47450Y-31350D03*
X41450Y-31350D03*
X42450Y-31350D03*
X43450Y-31350D03*
X44450Y-31350D03*
X45450Y-31350D03*
X46450Y-31350D03*
G54D23*
X28431Y-11700D03*
X29415Y-11700D03*
X30400Y-11700D03*
X31384Y-11700D03*
X32368Y-11700D03*
X39760Y-11700D03*
X34839Y-11700D03*
X35823Y-11700D03*
X36807Y-11700D03*
X37792Y-11700D03*
X38776Y-11700D03*
G54D26*
X50100Y-33500D03*
X50100Y-32500D03*
G54D27*
X22046Y-32490D03*
X19679Y-12789D03*
X25686Y-14545D03*
X25954Y-30229D03*
X17819Y-26152D03*
X26400Y-27665D03*
X38164Y-17572D03*
X23692Y-15863D03*
X25062Y-15537D03*
X41468Y-12678D03*
X25907Y-13092D03*
X19286Y-13813D03*
X35894Y-20386D03*
X18093Y-13472D03*
X36818Y-18230D03*
X16835Y-33686D03*
G54D28*
X43400Y-12800D02*
X43400Y-13400D01*
X18300Y-35100D02*
X18850Y-35100D01*
X21459Y-32490D02*
X22046Y-32490D01*
X18850Y-35100D02*
X21459Y-32490D01*
X43400Y-20379D02*
X35728Y-28051D01*
X43400Y-13400D02*
X43400Y-20379D01*
X22999Y-27099D02*
X23550Y-27650D01*
X20315Y-27099D02*
X22999Y-27099D01*
X19607Y-27807D02*
X20315Y-27099D01*
X19607Y-32014D02*
X19607Y-27807D01*
X16743Y-34878D02*
X19607Y-32014D01*
X16743Y-35543D02*
X16743Y-34878D01*
X17300Y-36100D02*
X16743Y-35543D01*
X41450Y-31350D02*
X40222Y-32577D01*
X40222Y-32577D02*
X40222Y-33593D01*
X25960Y-30928D02*
X26387Y-30928D01*
X22056Y-34832D02*
X25960Y-30928D01*
X22056Y-35469D02*
X22056Y-34832D01*
X20865Y-36660D02*
X22056Y-35469D01*
X18860Y-36660D02*
X20865Y-36660D01*
X18300Y-36100D02*
X18860Y-36660D01*
X38573Y-30928D02*
X40222Y-32577D01*
X26387Y-30928D02*
X38573Y-30928D01*
X26387Y-28254D02*
X26387Y-30928D01*
X25975Y-27841D02*
X26387Y-28254D01*
X25975Y-24775D02*
X25975Y-27841D01*
X24450Y-23250D02*
X25975Y-24775D01*
X34716Y-11823D02*
X34716Y-12880D01*
X34839Y-11700D02*
X34716Y-11823D01*
X34363Y-12880D02*
X34716Y-12880D01*
X33169Y-14074D02*
X34363Y-12880D01*
X35465Y-25890D02*
X35618Y-26043D01*
X35465Y-15172D02*
X35465Y-25890D01*
X35694Y-14943D02*
X35465Y-15172D01*
X35694Y-13858D02*
X35694Y-14943D01*
X34716Y-12880D02*
X35694Y-13858D01*
X11450Y-19250D02*
X11562Y-19250D01*
X13279Y-23200D02*
X12700Y-23780D01*
X13279Y-21557D02*
X13279Y-23200D01*
X12522Y-20800D02*
X13279Y-21557D01*
X12194Y-20800D02*
X12522Y-20800D01*
X11562Y-20168D02*
X12194Y-20800D01*
X11562Y-19250D02*
X11562Y-20168D01*
X13716Y-17095D02*
X11562Y-19250D01*
X13716Y-13602D02*
X13716Y-17095D01*
X14925Y-12393D02*
X13716Y-13602D01*
X14417Y-11885D02*
X14925Y-12393D01*
X14417Y-11403D02*
X14417Y-11885D01*
X15333Y-10487D02*
X14417Y-11403D01*
X20219Y-10487D02*
X15333Y-10487D01*
X22125Y-12393D02*
X20219Y-10487D01*
X30400Y-12388D02*
X30400Y-11700D01*
X32086Y-14074D02*
X30400Y-12388D01*
G54D29*
X15000Y-35100D02*
X15000Y-34649D01*
X15950Y-33699D02*
X15000Y-34649D01*
X15950Y-25106D02*
X15950Y-33699D01*
X16902Y-24154D02*
X15950Y-25106D01*
X18205Y-24154D02*
X16902Y-24154D01*
X19950Y-22410D02*
X18205Y-24154D01*
X19950Y-22113D02*
X19950Y-22410D01*
X20263Y-21799D02*
X19950Y-22113D01*
X20536Y-21799D02*
X20263Y-21799D01*
X20900Y-21436D02*
X20536Y-21799D01*
X20900Y-21158D02*
X20900Y-21436D01*
X21301Y-20757D02*
X20900Y-21158D01*
X23942Y-20757D02*
X21301Y-20757D01*
X24450Y-20250D02*
X23942Y-20757D01*
X17287Y-15122D02*
X17322Y-15157D01*
X17287Y-12393D02*
X17287Y-15122D01*
X17322Y-17125D02*
X17632Y-17125D01*
X18503Y-16254D02*
X17632Y-17125D01*
X18503Y-15157D02*
X18503Y-16254D01*
X18979Y-18472D02*
X17632Y-17125D01*
X18979Y-19419D02*
X18979Y-18472D01*
X19482Y-19922D02*
X18979Y-19419D01*
X21777Y-19922D02*
X19482Y-19922D01*
X22450Y-19250D02*
X21777Y-19922D01*
X22047Y-15157D02*
X19679Y-12789D01*
X22047Y-17652D02*
X20450Y-19250D01*
X22047Y-17125D02*
X22047Y-17652D01*
X22047Y-16338D02*
X22047Y-17125D01*
X23228Y-15157D02*
X22047Y-16338D01*
X25518Y-13424D02*
X24487Y-12393D01*
X26140Y-13424D02*
X25518Y-13424D01*
X28243Y-15528D02*
X26140Y-13424D01*
X28971Y-15528D02*
X28243Y-15528D01*
X29527Y-16084D02*
X28971Y-15528D01*
X29527Y-16210D02*
X29527Y-16084D01*
X29908Y-16591D02*
X29527Y-16210D01*
X32030Y-16591D02*
X29908Y-16591D01*
X32480Y-16141D02*
X32030Y-16591D01*
X32480Y-17322D02*
X32480Y-18110D01*
X33661Y-16141D02*
X32480Y-17322D01*
X25079Y-13773D02*
X23700Y-12393D01*
X26022Y-13773D02*
X25079Y-13773D01*
X27417Y-15167D02*
X26022Y-13773D01*
X27417Y-18558D02*
X27417Y-15167D01*
X28937Y-20078D02*
X27417Y-18558D01*
X28937Y-21070D02*
X28952Y-21055D01*
X28937Y-22047D02*
X28937Y-21070D01*
X29929Y-20078D02*
X30118Y-20078D01*
X28952Y-21055D02*
X29929Y-20078D01*
X26073Y-14932D02*
X25686Y-14545D01*
X26073Y-18176D02*
X26073Y-14932D01*
X28952Y-21055D02*
X26073Y-18176D01*
X24539Y-14020D02*
X22912Y-12393D01*
X25639Y-14020D02*
X24539Y-14020D01*
X26284Y-14665D02*
X25639Y-14020D01*
X26284Y-18087D02*
X26284Y-14665D01*
X28733Y-20536D02*
X26284Y-18087D01*
X29128Y-20536D02*
X28733Y-20536D01*
X29398Y-20266D02*
X29128Y-20536D01*
X29398Y-19849D02*
X29398Y-20266D01*
X28486Y-18937D02*
X29398Y-19849D01*
X28486Y-17922D02*
X28486Y-18937D01*
X28744Y-17663D02*
X28486Y-17922D01*
X31487Y-17663D02*
X28744Y-17663D01*
X31889Y-18066D02*
X31487Y-17663D01*
X31889Y-18307D02*
X31889Y-18066D01*
X33661Y-20078D02*
X31889Y-18307D01*
X33661Y-21259D02*
X34842Y-20078D01*
X33661Y-22047D02*
X33661Y-21259D01*
X42450Y-32822D02*
X40222Y-35050D01*
X42450Y-31350D02*
X42450Y-32822D01*
X44450Y-31928D02*
X40226Y-36152D01*
X44450Y-31350D02*
X44450Y-31928D01*
X45865Y-36152D02*
X44277Y-36152D01*
X45865Y-34900D02*
X45865Y-36152D01*
X45865Y-36152D02*
X45865Y-36200D01*
X25954Y-28249D02*
X25954Y-30229D01*
X23950Y-26245D02*
X25954Y-28249D01*
X23950Y-24750D02*
X23950Y-26245D01*
X21450Y-22250D02*
X23950Y-24750D01*
X46450Y-32877D02*
X44277Y-35050D01*
X46450Y-31350D02*
X46450Y-32877D01*
X14533Y-26166D02*
X15450Y-25250D01*
X14533Y-35474D02*
X14533Y-26166D01*
X14609Y-35550D02*
X14533Y-35474D01*
X15104Y-35550D02*
X14609Y-35550D01*
X16739Y-37185D02*
X15104Y-35550D01*
X26703Y-37185D02*
X16739Y-37185D01*
X28317Y-35571D02*
X26703Y-37185D01*
X40364Y-35571D02*
X28317Y-35571D01*
X43921Y-32014D02*
X40364Y-35571D01*
X43921Y-30578D02*
X43921Y-32014D01*
X51000Y-23500D02*
X43921Y-30578D01*
X17819Y-25619D02*
X17819Y-26152D01*
X17450Y-25250D02*
X17819Y-25619D01*
X27397Y-28662D02*
X26400Y-27665D01*
X37099Y-28662D02*
X27397Y-28662D01*
X44262Y-21500D02*
X37099Y-28662D01*
X51000Y-21500D02*
X44262Y-21500D01*
X16240Y-25459D02*
X16450Y-25250D01*
X16240Y-35989D02*
X16240Y-25459D01*
X17222Y-36970D02*
X16240Y-35989D01*
X25111Y-36970D02*
X17222Y-36970D01*
X27819Y-34262D02*
X25111Y-36970D01*
X40290Y-34262D02*
X27819Y-34262D01*
X41950Y-32602D02*
X40290Y-34262D01*
X41950Y-31192D02*
X41950Y-32602D01*
X50642Y-22500D02*
X41950Y-31192D01*
X51000Y-22500D02*
X50642Y-22500D01*
X17248Y-32198D02*
X17700Y-32650D01*
X17248Y-27208D02*
X17248Y-32198D01*
X18161Y-26295D02*
X17248Y-27208D01*
X18161Y-25538D02*
X18161Y-26295D01*
X18450Y-25250D02*
X18161Y-25538D01*
X18599Y-30750D02*
X17700Y-31650D01*
X18599Y-27100D02*
X18599Y-30750D01*
X20450Y-25250D02*
X18599Y-27100D01*
X18361Y-29988D02*
X17700Y-30650D01*
X18361Y-26338D02*
X18361Y-29988D01*
X19450Y-25250D02*
X18361Y-26338D01*
X38164Y-13057D02*
X38164Y-17572D01*
X36807Y-11700D02*
X38164Y-13057D01*
X46906Y-11293D02*
X46400Y-11800D01*
X47605Y-11293D02*
X46906Y-11293D01*
X47965Y-11654D02*
X47605Y-11293D01*
X47965Y-16465D02*
X47965Y-11654D01*
X51000Y-19500D02*
X47965Y-16465D01*
X19999Y-21700D02*
X19450Y-22250D01*
X19999Y-21063D02*
X19999Y-21700D01*
X20897Y-20166D02*
X19999Y-21063D01*
X22198Y-20166D02*
X20897Y-20166D01*
X22900Y-19464D02*
X22198Y-20166D01*
X22900Y-18039D02*
X22900Y-19464D01*
X22569Y-17708D02*
X22900Y-18039D01*
X22569Y-16844D02*
X22569Y-17708D01*
X23550Y-15863D02*
X22569Y-16844D01*
X23692Y-15863D02*
X23550Y-15863D01*
X20620Y-35100D02*
X20170Y-35100D01*
X23900Y-21799D02*
X24450Y-21250D01*
X21263Y-21799D02*
X23900Y-21799D01*
X20950Y-22113D02*
X21263Y-21799D01*
X20950Y-26022D02*
X20950Y-22113D01*
X19107Y-27864D02*
X20950Y-26022D01*
X19107Y-31879D02*
X19107Y-27864D01*
X16443Y-34542D02*
X19107Y-31879D01*
X16443Y-35880D02*
X16443Y-34542D01*
X17117Y-36554D02*
X16443Y-35880D01*
X17506Y-36554D02*
X17117Y-36554D01*
X17849Y-36211D02*
X17506Y-36554D01*
X17849Y-35905D02*
X17849Y-36211D01*
X18205Y-35550D02*
X17849Y-35905D01*
X19720Y-35550D02*
X18205Y-35550D01*
X20170Y-35100D02*
X19720Y-35550D01*
X34691Y-14521D02*
X35137Y-14074D01*
X32983Y-14521D02*
X34691Y-14521D01*
X32627Y-14165D02*
X32983Y-14521D01*
X32627Y-12943D02*
X32627Y-14165D01*
X31384Y-11700D02*
X32627Y-12943D01*
X24202Y-16397D02*
X25062Y-15537D01*
X23300Y-16397D02*
X24202Y-16397D01*
X22769Y-16927D02*
X23300Y-16397D01*
X22769Y-17365D02*
X22769Y-16927D01*
X23914Y-18511D02*
X22769Y-17365D01*
X23914Y-19449D02*
X23914Y-18511D01*
X22960Y-20403D02*
X23914Y-19449D01*
X21296Y-20403D02*
X22960Y-20403D01*
X20450Y-21250D02*
X21296Y-20403D01*
X29415Y-13372D02*
X29415Y-11700D01*
X30118Y-14074D02*
X29415Y-13372D01*
X51505Y-19715D02*
X50993Y-20227D01*
X51505Y-19205D02*
X51505Y-19715D01*
X50199Y-17899D02*
X51505Y-19205D01*
X50199Y-13602D02*
X50199Y-17899D01*
X47464Y-10867D02*
X50199Y-13602D01*
X36656Y-10867D02*
X47464Y-10867D01*
X35823Y-11700D02*
X36656Y-10867D01*
X51000Y-20233D02*
X50993Y-20227D01*
X51000Y-20500D02*
X51000Y-20233D01*
X47400Y-16633D02*
X47400Y-12800D01*
X50993Y-20227D02*
X47400Y-16633D01*
X44685Y-11085D02*
X45400Y-11800D01*
X43061Y-11085D02*
X44685Y-11085D01*
X41468Y-12678D02*
X43061Y-11085D01*
X16950Y-20750D02*
X17450Y-21250D01*
X16950Y-18335D02*
X16950Y-20750D01*
X16667Y-18052D02*
X16950Y-18335D01*
X16667Y-16446D02*
X16667Y-18052D01*
X17768Y-15345D02*
X16667Y-16446D01*
X17768Y-12700D02*
X17768Y-15345D01*
X18074Y-12393D02*
X17768Y-12700D01*
X25907Y-13026D02*
X25907Y-13092D01*
X25274Y-12393D02*
X25907Y-13026D01*
X17918Y-21781D02*
X17450Y-22250D01*
X17918Y-18443D02*
X17918Y-21781D01*
X16871Y-17396D02*
X17918Y-18443D01*
X16871Y-16772D02*
X16871Y-17396D01*
X18050Y-15593D02*
X16871Y-16772D01*
X18050Y-14954D02*
X18050Y-15593D01*
X19191Y-13813D02*
X18050Y-14954D01*
X19286Y-13813D02*
X19191Y-13813D01*
X38516Y-17765D02*
X35894Y-20386D01*
X38516Y-16100D02*
X38516Y-17765D01*
X42361Y-12255D02*
X38516Y-16100D01*
X42361Y-12115D02*
X42361Y-12255D01*
X43191Y-11285D02*
X42361Y-12115D01*
X43885Y-11285D02*
X43191Y-11285D01*
X44400Y-11800D02*
X43885Y-11285D01*
X44400Y-19970D02*
X44400Y-12800D01*
X35911Y-28459D02*
X44400Y-19970D01*
X28469Y-28459D02*
X35911Y-28459D01*
X26278Y-26267D02*
X28469Y-28459D01*
X26278Y-24416D02*
X26278Y-26267D01*
X24649Y-22788D02*
X26278Y-24416D01*
X23988Y-22788D02*
X24649Y-22788D01*
X23450Y-22250D02*
X23988Y-22788D01*
X18471Y-13095D02*
X18093Y-13472D01*
X18471Y-11415D02*
X18471Y-13095D01*
X18256Y-11200D02*
X18471Y-11415D01*
X17693Y-11200D02*
X18256Y-11200D01*
X17287Y-11606D02*
X17693Y-11200D01*
X16141Y-15944D02*
X16141Y-15157D01*
X14960Y-17125D02*
X16141Y-15944D01*
X17105Y-11000D02*
X16500Y-11606D01*
X18339Y-11000D02*
X17105Y-11000D01*
X18900Y-11561D02*
X18339Y-11000D01*
X18900Y-12740D02*
X18900Y-11561D01*
X19685Y-13525D02*
X18900Y-12740D01*
X19685Y-15157D02*
X19685Y-13525D01*
X19950Y-17390D02*
X19685Y-17125D01*
X19950Y-19391D02*
X19950Y-17390D01*
X20267Y-19709D02*
X19950Y-19391D01*
X20990Y-19709D02*
X20267Y-19709D01*
X21450Y-19250D02*
X20990Y-19709D01*
X24130Y-15157D02*
X24409Y-15157D01*
X19762Y-10788D02*
X24130Y-15157D01*
X16530Y-10788D02*
X19762Y-10788D01*
X15712Y-11606D02*
X16530Y-10788D01*
X25590Y-15944D02*
X24409Y-17125D01*
X25590Y-15157D02*
X25590Y-15944D01*
X29282Y-15305D02*
X30118Y-16141D01*
X28304Y-15305D02*
X29282Y-15305D01*
X26991Y-13992D02*
X28304Y-15305D01*
X26991Y-12760D02*
X26991Y-13992D01*
X25426Y-11195D02*
X26991Y-12760D01*
X24898Y-11195D02*
X25426Y-11195D01*
X24487Y-11606D02*
X24898Y-11195D01*
X24310Y-10995D02*
X23700Y-11606D01*
X26394Y-10995D02*
X24310Y-10995D01*
X30708Y-15310D02*
X26394Y-10995D01*
X34010Y-15310D02*
X30708Y-15310D01*
X34842Y-16141D02*
X34010Y-15310D01*
X37424Y-17623D02*
X36818Y-18230D01*
X37424Y-13934D02*
X37424Y-17623D01*
X35331Y-11841D02*
X37424Y-13934D01*
X35331Y-11558D02*
X35331Y-11841D01*
X34548Y-10775D02*
X35331Y-11558D01*
X23743Y-10775D02*
X34548Y-10775D01*
X22912Y-11606D02*
X23743Y-10775D01*
X32932Y-20530D02*
X32480Y-20078D01*
X32932Y-22232D02*
X32932Y-20530D01*
X32664Y-22500D02*
X32932Y-22232D01*
X31752Y-22500D02*
X32664Y-22500D01*
X31299Y-22047D02*
X31752Y-22500D01*
G54D28*
X23789Y-17687D02*
X25028Y-17687D01*
X23228Y-17125D02*
X23789Y-17687D01*
X25028Y-17687D02*
X25590Y-17125D01*
X25028Y-17687D02*
X25028Y-22250D01*
X25028Y-22250D02*
X24450Y-22250D01*
X21260Y-35459D02*
X20620Y-36100D01*
X21260Y-33895D02*
X21260Y-35459D01*
X22550Y-32606D02*
X21260Y-33895D01*
X22550Y-27650D02*
X22550Y-32606D01*
X28022Y-27431D02*
X28022Y-23577D01*
X28641Y-28051D02*
X28022Y-27431D01*
X28587Y-23577D02*
X28022Y-23577D01*
X30118Y-22047D02*
X28587Y-23577D01*
X26356Y-23577D02*
X25028Y-22250D01*
X28022Y-23577D02*
X26356Y-23577D01*
X31922Y-21489D02*
X30676Y-21489D01*
X32480Y-22047D02*
X31922Y-21489D01*
X30676Y-21489D02*
X30118Y-22047D01*
X30676Y-18672D02*
X30676Y-21489D01*
X29498Y-18672D02*
X30676Y-18672D01*
X28937Y-18110D02*
X29498Y-18672D01*
X30737Y-18672D02*
X31299Y-18110D01*
X30676Y-18672D02*
X30737Y-18672D01*
X34842Y-25818D02*
X34842Y-22047D01*
X34618Y-26043D02*
X34842Y-25818D01*
X20318Y-16578D02*
X20866Y-17125D01*
X19051Y-16578D02*
X20318Y-16578D01*
X18503Y-17125D02*
X19051Y-16578D01*
X50100Y-27400D02*
X50100Y-32500D01*
X51000Y-26500D02*
X50100Y-27400D01*
X49506Y-34527D02*
X47834Y-36200D01*
X49506Y-33093D02*
X49506Y-34527D01*
X50100Y-32500D02*
X49506Y-33093D01*
G54D29*
X16958Y-33564D02*
X16835Y-33686D01*
X16958Y-25093D02*
X16958Y-33564D01*
X17596Y-24454D02*
X16958Y-25093D01*
X18245Y-24454D02*
X17596Y-24454D01*
X20450Y-22250D02*
X18245Y-24454D01*
G54D28*
X12700Y-22800D02*
X12400Y-22800D01*
X10700Y-15811D02*
X11500Y-15011D01*
X10700Y-20200D02*
X10700Y-15811D01*
X12000Y-21500D02*
X10700Y-20200D01*
X12000Y-22400D02*
X12000Y-21500D01*
X12400Y-22800D02*
X12000Y-22400D01*
M02*
