G04 (created by PCBNEW (2013-jul-07)-stable) date Wed 10 Jun 2015 05:30:31 PM PDT*
%MOIN*%
G04 Gerber Fmt 3.4, Leading zero omitted, Abs format*
%FSLAX34Y34*%
G01*
G70*
G90*
G04 APERTURE LIST*
%ADD10C,0.00590551*%
%ADD11C,0.0511811*%
%ADD12C,0.06*%
%ADD13R,0.06X0.06*%
%ADD14C,0.0629921*%
%ADD15C,0.0708661*%
%ADD16C,0.065*%
%ADD17C,0.13*%
%ADD18C,0.07*%
%ADD19C,0.125*%
%ADD20R,0.063X0.063*%
%ADD21C,0.063*%
%ADD22R,0.07X0.07*%
%ADD23C,0.0590551*%
%ADD24C,0.0492126*%
%ADD25C,0.15*%
%ADD26C,0.055*%
G04 APERTURE END LIST*
G54D10*
G54D11*
X35728Y-28051D03*
X34940Y-28051D03*
X34153Y-28051D03*
X33366Y-28051D03*
X32578Y-28051D03*
X31791Y-28051D03*
X31003Y-28051D03*
X30216Y-28051D03*
X29429Y-28051D03*
X28641Y-28051D03*
X28641Y-36712D03*
X29429Y-36712D03*
X30216Y-36712D03*
X31003Y-36712D03*
X31791Y-36712D03*
X32578Y-36712D03*
X33366Y-36712D03*
X34153Y-36712D03*
X34940Y-36712D03*
X35728Y-36712D03*
G54D12*
X20550Y-27650D03*
X21550Y-27650D03*
X22550Y-27650D03*
X23550Y-27650D03*
G54D13*
X18300Y-35100D03*
G54D12*
X18300Y-36100D03*
X17300Y-35100D03*
X17300Y-36100D03*
G54D13*
X20620Y-35100D03*
G54D12*
X20620Y-36100D03*
G54D13*
X22718Y-35129D03*
G54D12*
X22718Y-36129D03*
X17700Y-27650D03*
X17700Y-28650D03*
X17700Y-29650D03*
X17700Y-30650D03*
X17700Y-31650D03*
X17700Y-32650D03*
G54D14*
X40222Y-35050D03*
X44277Y-35050D03*
G54D15*
X40222Y-33593D03*
X40226Y-36152D03*
X44277Y-33593D03*
X44277Y-36152D03*
G54D16*
X12700Y-23780D03*
X12700Y-22800D03*
X12700Y-21820D03*
X11400Y-21820D03*
X11400Y-22800D03*
X11400Y-23780D03*
X28618Y-26043D03*
X29618Y-26043D03*
X30618Y-26043D03*
X31618Y-26043D03*
X32618Y-26043D03*
X33618Y-26043D03*
X34618Y-26043D03*
X35618Y-26043D03*
G54D17*
X28618Y-14483D03*
X36618Y-14483D03*
G54D16*
X36618Y-26043D03*
G54D18*
X51000Y-19500D03*
X51000Y-20500D03*
X51000Y-21500D03*
X51000Y-22500D03*
X51000Y-23500D03*
X51000Y-24500D03*
X51000Y-25500D03*
X51000Y-26500D03*
G54D19*
X51030Y-17290D03*
X51030Y-28710D03*
X39410Y-17290D03*
X39410Y-28710D03*
G54D20*
X11500Y-15011D03*
G54D21*
X11500Y-16389D03*
G54D13*
X15000Y-35100D03*
G54D12*
X15000Y-36100D03*
G54D22*
X43400Y-12800D03*
G54D18*
X43400Y-11800D03*
X44400Y-12800D03*
X44400Y-11800D03*
X45400Y-12800D03*
X45400Y-11800D03*
X46400Y-12800D03*
X46400Y-11800D03*
X47400Y-12800D03*
X47400Y-11800D03*
G54D12*
X11450Y-25250D03*
X12450Y-25250D03*
X13450Y-25250D03*
X14450Y-25250D03*
X15450Y-25250D03*
X16450Y-25250D03*
X17450Y-25250D03*
X18450Y-25250D03*
X19450Y-25250D03*
X20450Y-25250D03*
X21450Y-25250D03*
X22450Y-25250D03*
X23450Y-25250D03*
X24450Y-25250D03*
X24450Y-24250D03*
X24450Y-23250D03*
X24450Y-22250D03*
X24450Y-21250D03*
X24450Y-20250D03*
X24450Y-19250D03*
X23450Y-19250D03*
X22450Y-19250D03*
X21450Y-19250D03*
X20450Y-19250D03*
X19450Y-19250D03*
X18450Y-19250D03*
X17450Y-19250D03*
X16450Y-19250D03*
X15450Y-19250D03*
X14450Y-19250D03*
X13450Y-19250D03*
X12450Y-19250D03*
X11450Y-19250D03*
X17450Y-22250D03*
X18450Y-22250D03*
X19450Y-22250D03*
X20450Y-22250D03*
X21450Y-22250D03*
X22450Y-22250D03*
X23450Y-22250D03*
X23450Y-21250D03*
X22450Y-21250D03*
X21450Y-21250D03*
X20450Y-21250D03*
X19450Y-21250D03*
X18450Y-21250D03*
X17450Y-21250D03*
X16450Y-20250D03*
X15450Y-20250D03*
X14450Y-20250D03*
X12450Y-20250D03*
G54D23*
X16141Y-15157D03*
X16141Y-17125D03*
X17322Y-15157D03*
X17322Y-17125D03*
X18503Y-15157D03*
X18503Y-17125D03*
X19685Y-15157D03*
X19685Y-17125D03*
X20866Y-15157D03*
X20866Y-17125D03*
X22047Y-15157D03*
X22047Y-17125D03*
X23228Y-15157D03*
X23228Y-17125D03*
X24409Y-15157D03*
X24409Y-17125D03*
X25590Y-15157D03*
X25590Y-17125D03*
X26771Y-15157D03*
X26771Y-17125D03*
X28937Y-16141D03*
X28937Y-18110D03*
X14960Y-15157D03*
X14960Y-17125D03*
X31299Y-16141D03*
X31299Y-18110D03*
X32480Y-16141D03*
X32480Y-18110D03*
X33661Y-16141D03*
X33661Y-18110D03*
X34842Y-16141D03*
X34842Y-18110D03*
X36023Y-16141D03*
X36023Y-18110D03*
X28937Y-20078D03*
X28937Y-22047D03*
X30118Y-20078D03*
X30118Y-22047D03*
X31299Y-20078D03*
X31299Y-22047D03*
X32480Y-20078D03*
X32480Y-22047D03*
X33661Y-20078D03*
X33661Y-22047D03*
X34842Y-20078D03*
X34842Y-22047D03*
X30118Y-16141D03*
X30118Y-18110D03*
G54D24*
X22125Y-12393D03*
X22125Y-11606D03*
X22912Y-12393D03*
X22912Y-11606D03*
X23700Y-12393D03*
X23700Y-11606D03*
X24487Y-12393D03*
X24487Y-11606D03*
X25274Y-12393D03*
X25274Y-11606D03*
X14925Y-12393D03*
X14925Y-11606D03*
X15712Y-12393D03*
X15712Y-11606D03*
X16500Y-12393D03*
X16500Y-11606D03*
X17287Y-12393D03*
X17287Y-11606D03*
X18074Y-12393D03*
X18074Y-11606D03*
G54D25*
X11500Y-11500D03*
X11500Y-36000D03*
X51000Y-11500D03*
X51000Y-36000D03*
G54D23*
X33169Y-14074D03*
X35137Y-14074D03*
X32086Y-14074D03*
X30118Y-14074D03*
X45865Y-36200D03*
X47834Y-36200D03*
X47834Y-34900D03*
X45865Y-34900D03*
G54D12*
X48450Y-31350D03*
X47450Y-31350D03*
X41450Y-31350D03*
X42450Y-31350D03*
X43450Y-31350D03*
X44450Y-31350D03*
X45450Y-31350D03*
X46450Y-31350D03*
G54D23*
X28431Y-11700D03*
X29415Y-11700D03*
X30400Y-11700D03*
X31384Y-11700D03*
X32368Y-11700D03*
X39760Y-11700D03*
X34839Y-11700D03*
X35823Y-11700D03*
X36807Y-11700D03*
X37792Y-11700D03*
X38776Y-11700D03*
G54D26*
X50100Y-33500D03*
X50100Y-32500D03*
M02*
